<svg xmlns="http://www.w3.org/2000/svg" viewBox="0 0 15 15">
  <path fill="param(fill) #888" stroke="param(outline) #000" stroke-width="param(outline-width) 0" fill-opacity="param(fill-opacity) 1" stroke-opacity="param(outline-opacity) 1" d="M2.89 1.25L0 13.75L1.28 13.75L1.85 11.27L8.54 11.27L7.96 13.75L9.24 13.75L12.14 1.25L2.89 1.25L2.89 1.25ZM9.12 4.17L8.83 5.42L4.32 5.43L4.61 4.17L9.12 4.17L9.12 4.17ZM4.02 6.67L7.75 6.67L7.46 7.92L3.73 7.93L4.02 6.67ZM15 13.75L13.72 13.75L13.15 11.27L10.7 11.27L10.99 10.02L12.86 10.02L11.92 5.98L12.56 3.22L15 13.75L15 13.75Z"/>
</svg>