<svg xmlns="http://www.w3.org/2000/svg" viewBox="0 0 15 15">
  <path fill="param(fill) #888" stroke="param(outline) #000" stroke-width="param(outline-width) 0" fill-opacity="param(fill-opacity) 1" stroke-opacity="param(outline-opacity) 1" d="M5.97 4L6.05 4C6.15 4.01 6.25 4.06 6.32 4.15L11.82 11.08C11.98 11.27 12.03 11.52 11.98 11.76L11.26 15L7.21 15L6 8.57L5.15 11.94C4.72 13.67 3.2 14.91 1.44 14.99L1.23 15L0.74 15L0.02 11.76C-0.03 11.52 0.02 11.27 0.18 11.08L5.68 4.15C5.7 4.13 5.72 4.11 5.75 4.09C5.79 4.05 5.84 4.03 5.89 4.01L5.97 4ZM9.32 0.15L14.82 7.08C14.98 7.27 15.03 7.52 14.98 7.76L14.26 11L12.9 11C12.84 10.81 12.74 10.62 12.61 10.46L7.1 3.53C6.91 3.29 6.65 3.13 6.38 3.05L8.68 0.15C8.7 0.13 8.72 0.11 8.75 0.09C8.92 -0.05 9.18 -0.02 9.32 0.15Z"/>
</svg>