<svg xmlns="http://www.w3.org/2000/svg" viewBox="0 0 15 15">
  <path fill="param(fill) #888" stroke="param(outline) #000" stroke-width="param(outline-width) 0" fill-opacity="param(fill-opacity) 1" stroke-opacity="param(outline-opacity) 1" d="M3.39 11.31L3.7 11.56C4.01 11.81 4.39 11.96 4.78 11.99L4.95 12L5.05 12C5.5 12 5.94 11.85 6.3 11.56L6.61 11.31C6.86 11.11 7.18 11 7.5 11C7.82 11 8.14 11.11 8.39 11.31L8.7 11.56C9.01 11.81 9.39 11.96 9.78 11.99L9.95 12L10.05 12C10.5 12 10.94 11.85 11.3 11.56L11.61 11.31C11.86 11.11 12.18 11 12.5 11C12.6 11 12.71 11.01 12.81 11.04L12.91 11.06L13.01 11.1L13.06 11.12L13.15 11.16L13.24 11.21L13.32 11.26L13.33 11.27L13.39 11.31L13.71 11.57C14.01 11.81 14.39 11.96 14.78 12L15 12L15 13.5L14.95 13.5C14.49 13.5 14.06 13.34 13.71 13.06L13.39 12.81C13.14 12.61 12.82 12.5 12.5 12.5C12.18 12.5 11.86 12.61 11.61 12.81L11.3 13.06C10.94 13.34 10.5 13.5 10.05 13.5L9.95 13.5C9.5 13.5 9.06 13.34 8.7 13.06L8.39 12.81C8.14 12.61 7.82 12.5 7.5 12.5C7.18 12.5 6.86 12.61 6.61 12.81L6.3 13.06C5.94 13.34 5.5 13.5 5.05 13.5L4.95 13.5C4.5 13.5 4.06 13.34 3.7 13.06L3.39 12.81C3.14 12.61 2.82 12.5 2.5 12.5C2.18 12.5 1.86 12.61 1.61 12.81L1.29 13.06C0.99 13.31 0.61 13.46 0.22 13.49L0 13.5L0 12L0.05 12C0.51 12 0.94 11.85 1.29 11.57L1.61 11.31C1.86 11.11 2.18 11 2.5 11C2.82 11 3.14 11.11 3.39 11.31ZM0 8L15 8L14.93 8.23C14.75 8.72 14.38 9.55 14 10.26L13.89 10.45L13.85 10.41C13.45 10.15 12.98 10 12.5 10C11.95 10 11.42 10.19 10.98 10.53L10.67 10.78C10.5 10.92 10.28 11 10.05 11L9.95 11C9.72 11 9.5 10.92 9.33 10.78L9.01 10.53C8.58 10.19 8.05 10 7.5 10C6.95 10 6.42 10.19 5.99 10.53L5.67 10.78C5.5 10.92 5.28 11 5.05 11L4.95 11C4.72 11 4.5 10.92 4.33 10.78L4.01 10.53C3.58 10.19 3.05 10 2.5 10C1.95 10 1.42 10.19 0.99 10.53L0.67 10.78C0.49 10.93 0.28 11 0.05 11L0 11L0 8ZM3.43 1.07L4.29 7.5L2.14 7.5L2.14 4.39L0.86 4.39C0.96 4.71 1.29 5.14 1.29 5.68C1.29 6.54 0.96 7.29 0.75 7.29C0.43 7.18 0 6.43 0 5.57C0 5.04 0.32 4.61 0.43 4.29C0.21 4.29 0 4.18 0 4.18C0 4.07 0.21 4.07 0.43 3.96L0.29 3.69C0.16 3.43 0 3.05 0 2.68C0 1.82 0.43 1.07 0.64 1.07C0.86 1.07 1.18 1.82 1.18 2.68C1.18 3.21 0.96 3.64 0.86 3.96L2.14 3.96L2.14 1.07L3.43 1.07Z"/>
</svg>