<svg xmlns="http://www.w3.org/2000/svg" viewBox="0 0 15 15">
  <path fill="param(fill) #888" stroke="param(outline) #000" stroke-width="param(outline-width) 0" fill-opacity="param(fill-opacity) 1" stroke-opacity="param(outline-opacity) 1" d="M5.39 0.5L7.12 1.34L7.47 1.47L7.88 1.34L9.54 1.93L10.16 1.73L11 2.17L11 9.75L11.35 9.81L12.3 10.81L12.93 10.22L13.83 11.13L14.38 12.36L15 12.62L15 13.2L14.72 13.53L14.03 13.53L12.58 11.39L11.06 10.42L10.16 10.03L9.82 10.03L8.85 9.57L8.43 10.22L7.81 10.22L7.12 10.81L7.12 9.57L7.81 9.44L7.81 9.12L7.47 9.12L6.29 10.42L6.29 10.81L6.5 10.94L5.88 11.58L4.84 12.49L3 13.25L0 14L2.42 13.1L4.22 12.36L4.84 11.58L5.19 10.81L4.56 11.13L3.8 10.81L3.39 11.13L3.39 10.03L2.49 10.22L2.14 9.7L2.01 8.73L2.49 7.76L2.97 7.89L3.39 7.56L3.67 7.56L3.8 7.24L3.8 6.53L3.18 6.79L1.66 6.79L1.7 5.87L1 5.63L2.7 5.04L2.7 5.49L3.39 5.62L3.67 5.17L3.39 4.65L2.7 4.65L2.49 4L1.66 3.55L1.8 2.96L2.7 2.96L2.97 2.31L3.39 1.6L3.67 1.73L4.22 0.95L4.84 1.15L5.39 0.5ZM6.84 11.13L6.84 11.52L7.05 11.71L6.08 12.3L6.08 11.78L6.84 11.13ZM1.8 9.77L2.01 9.96L2.01 10.22L1.8 10.22L1.38 9.96L1.8 9.77ZM0.5 7L0.75 7.5L0.5 7.75L0.25 7.5L0 7.25L0 7L0.5 7Z"/>
</svg>