<?xml version="1.0" encoding="UTF-8"?>
<svg viewBox="0 0 15 15" version="1.1" xmlns="http://www.w3.org/2000/svg" xmlns:xlink="http://www.w3.org/1999/xlink">
  <path fill="param(fill) #888" stroke="param(outline) #000" stroke-width="param(outline-width) 0" fill-opacity="param(fill-opacity) 1" stroke-opacity="param(outline-opacity) 1" d="M7.53 3C2.41 3 0 7.5 0 7.5C0 7.5 2.41 12 7.53 12C12.66 12 15 7.5 15 7.5C15 7.5 12.69 3 7.53 3ZM11 7L11 8.5C11 8.78 10.78 9 10.5 9C10.22 9 10 8.78 10 8.5L10 8L8 8L8 8.5C8 8.78 7.78 9 7.5 9C7.22 9 7 8.78 7 8.5L7 8L5 8L5 8.5C5 8.78 4.78 9 4.5 9C4.22 9 4 8.78 4 8.5L4 6.5C4 6.22 4.22 6 4.5 6C4.78 6 5 6.22 5 6.5L5 7L7 7L7 6.5C7 6.22 7.22 6 7.5 6C7.78 6 8 6.22 8 6.5L8 7L10 7L10 6.5C10 6.22 10.22 6 10.5 6C10.78 6 11 6.22 11 6.5L11 7Z"/>
</svg>