<svg xmlns="http://www.w3.org/2000/svg" viewBox="0 0 15 15">
  <path fill="param(fill) #888" stroke="param(outline) #000" stroke-width="param(outline-width) 0" fill-opacity="param(fill-opacity) 1" stroke-opacity="param(outline-opacity) 1" d="M13.49 10.98C12.73 8.77 10.29 5 5.58 5C3.21 5 2 5.91 2 5.91L2.43 5.92C3.09 5.95 4.34 6.02 5.02 6.32C5.09 6.35 5.15 6.4 5.19 6.46L5.25 6.57C5.43 6.96 5.75 7.87 5.29 8.82C5.2 8.98 5 9.06 4.82 9L4.56 8.92C4.08 8.75 3.38 8.46 2.82 8.05C2.62 7.91 2.34 7.96 2.28 8.2C2.05 9.17 2.05 10.83 2.28 11.8C2.34 12.04 2.62 12.09 2.82 11.95C3.49 11.45 4.37 11.14 4.82 11C5 10.94 5.2 11.02 5.29 11.18C5.8 12.23 5.36 13.22 5.19 13.54C5.15 13.6 5.09 13.65 5.02 13.68C4.06 14.09 2 14.09 2 14.09C2.45 14.39 3.97 15 6.47 15C10.47 15 12.7 12.58 13.38 11.69C13.54 11.49 13.58 11.22 13.49 10.98ZM10.05 11.25C9.42 11.25 8.92 10.75 8.92 10.14C8.92 9.52 9.42 9.02 10.05 9.02C10.66 9.02 11.16 9.52 11.16 10.14C11.16 10.75 10.66 11.25 10.05 11.25ZM12 0C12.67 1.33 13.42 2 14.25 2C14.51 2 14.76 1.94 15 1.81L15 3.36C14.76 3.45 14.51 3.5 14.25 3.5C13.42 3.5 12.67 3 12 2C11.33 3 10.58 3.5 9.75 3.5C8.92 3.5 8.17 3 7.5 2C6.83 3 6.08 3.5 5.25 3.5C4.42 3.5 3.67 3 3 2C2.33 3 1.58 3.5 0.75 3.5C0.49 3.5 0.24 3.45 0 3.36L0 1.81C0.24 1.94 0.49 2 0.75 2C1.58 2 2.33 1.33 3 0C3.67 1.33 4.42 2 5.25 2C6.08 2 6.83 1.33 7.5 0C8.17 1.33 8.92 2 9.75 2C10.58 2 11.33 1.33 12 0Z"/>
</svg>