<?xml version="1.0" encoding="UTF-8"?>
<svg viewBox="0 0 15 15" version="1.1" xmlns="http://www.w3.org/2000/svg" xmlns:xlink="http://www.w3.org/1999/xlink">
  <path fill="param(fill) #888" stroke="param(outline) #000" stroke-width="param(outline-width) 0" fill-opacity="param(fill-opacity) 1" stroke-opacity="param(outline-opacity) 1" d="M14.94 8.78C13.95 5.9 10.78 1 4.65 1C1.57 1 0 2.18 0 2.18L0.56 2.19C1.42 2.23 3.04 2.33 3.93 2.71C4.02 2.75 4.1 2.82 4.15 2.9L4.22 3.04C4.46 3.55 4.88 4.73 4.28 5.96C4.16 6.18 3.9 6.28 3.67 6.2L3.33 6.09C2.71 5.88 1.79 5.5 1.07 4.97C0.81 4.78 0.44 4.85 0.37 5.16C0.07 6.42 0.07 8.58 0.37 9.84C0.44 10.15 0.81 10.22 1.07 10.03C1.94 9.39 3.08 8.98 3.67 8.8C3.9 8.72 4.16 8.82 4.28 9.04C4.94 10.4 4.37 11.68 4.15 12.1C4.1 12.18 4.02 12.25 3.93 12.29C2.68 12.82 0 12.82 0 12.82C0.58 13.21 2.56 14 5.81 14C11.01 14 13.91 10.86 14.8 9.7C15 9.44 15.06 9.08 14.94 8.78ZM10.46 9.13C9.65 9.13 9 8.48 9 7.68C9 6.88 9.65 6.23 10.46 6.23C11.26 6.23 11.91 6.88 11.91 7.68C11.91 8.48 11.26 9.13 10.46 9.13Z"/>
</svg>