<svg xmlns="http://www.w3.org/2000/svg" viewBox="0 0 15 15">
  <path fill="param(fill) #888" stroke="param(outline) #000" stroke-width="param(outline-width) 0" fill-opacity="param(fill-opacity) 1" stroke-opacity="param(outline-opacity) 1" d="M2.34 2.75C4.11 2.75 5.67 3.55 6.99 4.79L5.96 5.88C5.86 5.78 5.75 5.69 5.65 5.6C5.71 5.77 5.75 5.96 5.75 6.15C5.75 6.98 5.08 7.65 4.25 7.65C3.42 7.65 2.75 6.98 2.75 6.15C2.75 5.32 3.42 4.65 4.25 4.65L4.17 4.65C3.58 4.39 2.97 4.25 2.34 4.25ZM12.66 2.75L12.66 4.25C12.03 4.25 11.42 4.39 10.83 4.65C11.62 4.69 12.25 5.35 12.25 6.15C12.25 6.98 11.58 7.65 10.75 7.65C9.92 7.65 9.25 6.98 9.25 6.15C9.25 5.96 9.29 5.77 9.35 5.6C9.25 5.69 9.14 5.78 9.04 5.88L8.01 4.79C9.33 3.55 10.89 2.75 12.66 2.75ZM3.62 10.66C4.41 9.97 5.77 9 7.5 9C9.23 9 10.59 9.97 11.38 10.66C11.91 11.11 11.88 11.79 11.62 12.22C11.36 12.64 10.79 12.95 10.16 12.73L9.16 12.37C8.33 12.07 7.95 12.07 7.53 12.07C7.52 12.07 7.51 12.07 7.5 12.07C7.49 12.07 7.48 12.07 7.47 12.07C7.05 12.07 6.67 12.07 5.84 12.37L4.84 12.73C4.21 12.95 3.64 12.64 3.38 12.22C3.12 11.79 3.09 11.11 3.62 10.66Z"/>
</svg>