<svg xmlns="http://www.w3.org/2000/svg" viewBox="0 0 15 15">
  <path fill="param(fill) #888" stroke="param(outline) #000" stroke-width="param(outline-width) 0" fill-opacity="param(fill-opacity) 1" stroke-opacity="param(outline-opacity) 1" d="M0 7.5C0 3.36 3.36 0 7.5 0C11.64 0 15 3.36 15 7.5C15 11.64 11.64 15 7.5 15C3.36 15 0 11.64 0 7.5ZM7.5 1.5C4.19 1.5 1.5 4.19 1.5 7.5C1.5 10.81 4.19 13.5 7.5 13.5C10.81 13.5 13.5 10.81 13.5 7.5C13.5 4.19 10.81 1.5 7.5 1.5ZM3.63 5.06C4.59 5.06 5.5 5.49 6.35 6.29L7.12 5.47C6.13 4.54 4.96 3.94 3.63 3.94L3.63 5.06ZM11.37 5.06C10.41 5.06 9.5 5.49 8.65 6.29L7.88 5.47C8.87 4.54 10.04 3.94 11.37 3.94L11.37 5.06ZM4.59 9.87C5.18 9.35 6.2 8.63 7.5 8.63C8.8 8.63 9.82 9.35 10.41 9.87C10.81 10.21 10.79 10.72 10.59 11.04C10.4 11.35 9.97 11.59 9.5 11.42L8.75 11.15C8.12 10.93 7.83 10.93 7.52 10.93C7.51 10.93 7.51 10.93 7.5 10.93C7.49 10.93 7.49 10.93 7.48 10.93C7.17 10.93 6.88 10.93 6.25 11.15L5.5 11.42C5.03 11.59 4.6 11.35 4.41 11.04C4.21 10.72 4.19 10.21 4.59 9.87ZM5.06 7.61C5.68 7.61 6.19 7.11 6.19 6.49C6.19 5.87 5.68 5.36 5.06 5.36C4.44 5.36 3.94 5.87 3.94 6.49C3.94 7.11 4.44 7.61 5.06 7.61ZM9.94 7.61C10.56 7.61 11.06 7.11 11.06 6.49C11.06 5.87 10.56 5.36 9.94 5.36C9.32 5.36 8.81 5.87 8.81 6.49C8.81 7.11 9.32 7.61 9.94 7.61Z"/>
</svg>