<svg xmlns="http://www.w3.org/2000/svg" viewBox="0 0 15 15">
  <path fill="param(fill) #888" stroke="param(outline) #000" stroke-width="param(outline-width) 0" fill-opacity="param(fill-opacity) 1" stroke-opacity="param(outline-opacity) 1" d="M7.5 0C11.64 0 15 3.36 15 7.5C15 11.64 11.64 15 7.5 15C3.36 15 0 11.64 0 7.5C0 3.36 3.36 0 7.5 0ZM7.5 8.63C6.2 8.63 5.18 9.35 4.59 9.87C4.19 10.21 4.21 10.72 4.41 11.04C4.6 11.35 5.03 11.59 5.5 11.42L6.25 11.15C6.88 10.93 7.17 10.93 7.48 10.93L7.62 10.93C7.9 10.93 8.18 10.95 8.75 11.15L9.5 11.42C9.97 11.59 10.4 11.35 10.59 11.04C10.79 10.72 10.81 10.21 10.41 9.87C9.82 9.35 8.8 8.63 7.5 8.63ZM3.63 3.94L3.63 5.06C4.1 5.06 4.56 5.17 5 5.36L5.06 5.36C4.44 5.36 3.94 5.87 3.94 6.49C3.94 7.11 4.44 7.61 5.06 7.61C5.68 7.61 6.19 7.11 6.19 6.49C6.19 6.34 6.16 6.2 6.11 6.08C6.19 6.14 6.27 6.21 6.35 6.29L7.12 5.47C6.13 4.54 4.96 3.94 3.63 3.94ZM11.37 3.94C10.04 3.94 8.87 4.54 7.88 5.47L8.65 6.29C8.73 6.21 8.81 6.14 8.89 6.07C8.84 6.2 8.81 6.34 8.81 6.49C8.81 7.11 9.32 7.61 9.94 7.61C10.56 7.61 11.06 7.11 11.06 6.49C11.06 5.89 10.59 5.39 10 5.36C10.44 5.17 10.9 5.06 11.37 5.06Z"/>
</svg>