<svg xmlns="http://www.w3.org/2000/svg" viewBox="0 0 15 15">
  <path fill="param(fill) #888" stroke="param(outline) #000" stroke-width="param(outline-width) 0" fill-opacity="param(fill-opacity) 1" stroke-opacity="param(outline-opacity) 1" d="M7.5 0C11.64 0 15 3.36 15 7.5C15 11.64 11.64 15 7.5 15C3.36 15 0 11.64 0 7.5C0 3.36 3.36 0 7.5 0ZM7.5 1.5C6.98 1.5 6.48 1.57 6 1.69C6.23 1.86 6.38 2.13 6.38 2.44C6.38 2.96 5.96 3.38 5.44 3.38C4.92 3.38 4.5 2.96 4.5 2.44C4.5 2.39 4.5 2.34 4.51 2.3C2.71 3.33 1.5 5.27 1.5 7.5C1.5 8.12 1.59 8.72 1.77 9.28C1.94 9.11 2.18 9 2.44 9C2.96 9 3.38 9.42 3.38 9.94C3.38 10.42 3.01 10.82 2.54 10.87C3.35 12.07 4.58 12.95 6.02 13.32C6.1 12.99 6.4 12.75 6.75 12.75C7.16 12.75 7.5 13.09 7.5 13.5C9.53 13.5 11.33 12.49 12.42 10.94L12.53 10.78C12.21 10.63 12 10.31 12 9.94C12 9.42 12.42 9 12.94 9C13.06 9 13.18 9.02 13.29 9.07C13.43 8.57 13.5 8.04 13.5 7.5C13.5 4.19 10.81 1.5 7.5 1.5ZM7.5 7.69C8.25 7.69 8.96 7.98 9.49 8.51C10.02 9.04 10.31 9.75 10.31 10.5L10.31 11.06L4.69 11.06L4.69 10.5C4.69 9.75 4.98 9.04 5.51 8.51C6.04 7.98 6.75 7.69 7.5 7.69ZM4.38 4.37L5.28 4.83C6.25 5.31 6.25 6.69 5.28 7.17L4.38 7.63C4.1 7.77 3.76 7.65 3.62 7.38C3.48 7.1 3.6 6.76 3.87 6.62L4.78 6.17C4.92 6.1 4.92 5.9 4.78 5.83L3.87 5.38C3.6 5.24 3.48 4.9 3.62 4.62C3.76 4.35 4.1 4.23 4.38 4.37ZM11.38 4.62C11.52 4.9 11.4 5.24 11.13 5.38L10.22 5.83C10.08 5.9 10.08 6.1 10.22 6.17L11.13 6.62C11.4 6.76 11.52 7.1 11.38 7.38C11.24 7.65 10.9 7.77 10.62 7.63L9.72 7.17C8.75 6.69 8.75 5.31 9.72 4.83L10.62 4.37C10.9 4.23 11.24 4.35 11.38 4.62ZM9 3C9.41 3 9.75 3.34 9.75 3.75C9.75 4.16 9.41 4.5 9 4.5C8.59 4.5 8.25 4.16 8.25 3.75C8.25 3.34 8.59 3 9 3Z"/>
</svg>