<svg xmlns="http://www.w3.org/2000/svg" viewBox="0 0 15 15">
  <path fill="param(fill) #888" stroke="param(outline) #000" stroke-width="param(outline-width) 0" fill-opacity="param(fill-opacity) 1" stroke-opacity="param(outline-opacity) 1" d="M7.5 0C11.64 0 15 3.36 15 7.5C15 11.64 11.64 15 7.5 15C3.36 15 0 11.64 0 7.5C0 3.36 3.36 0 7.5 0ZM6.75 12.75C6.34 12.75 6 13.09 6 13.5C6 13.91 6.34 14.25 6.75 14.25C7.16 14.25 7.5 13.91 7.5 13.5C7.5 13.09 7.16 12.75 6.75 12.75ZM7.5 7.69C6.75 7.69 6.04 7.98 5.51 8.51C4.98 9.04 4.69 9.75 4.69 10.5L4.69 11.06L10.31 11.06L10.31 10.5C10.31 9.75 10.02 9.04 9.49 8.51C8.96 7.98 8.25 7.69 7.5 7.69ZM12.94 9C12.42 9 12 9.42 12 9.94C12 10.46 12.42 10.88 12.94 10.88C13.46 10.88 13.88 10.46 13.88 9.94C13.88 9.42 13.46 9 12.94 9ZM2.44 9C1.92 9 1.5 9.42 1.5 9.94C1.5 10.46 1.92 10.88 2.44 10.88C2.96 10.88 3.38 10.46 3.38 9.94C3.38 9.42 2.96 9 2.44 9ZM3.62 4.62C3.48 4.9 3.6 5.24 3.87 5.38L4.78 5.83C4.92 5.9 4.92 6.1 4.78 6.17L3.87 6.62C3.6 6.76 3.48 7.1 3.62 7.38C3.76 7.65 4.1 7.77 4.38 7.63L5.28 7.17C6.25 6.69 6.25 5.31 5.28 4.83L4.38 4.37C4.1 4.23 3.76 4.35 3.62 4.62ZM11.38 4.62C11.24 4.35 10.9 4.23 10.62 4.37L9.72 4.83C8.75 5.31 8.75 6.69 9.72 7.17L10.62 7.63C10.9 7.77 11.24 7.65 11.38 7.38C11.52 7.1 11.4 6.76 11.13 6.62L10.22 6.17C10.08 6.1 10.08 5.9 10.22 5.83L11.13 5.38C11.4 5.24 11.52 4.9 11.38 4.62ZM9 3C8.59 3 8.25 3.34 8.25 3.75C8.25 4.16 8.59 4.5 9 4.5C9.41 4.5 9.75 4.16 9.75 3.75C9.75 3.34 9.41 3 9 3ZM5.44 1.5C4.92 1.5 4.5 1.92 4.5 2.44C4.5 2.96 4.92 3.38 5.44 3.38C5.96 3.38 6.38 2.96 6.38 2.44C6.38 1.92 5.96 1.5 5.44 1.5Z"/>
</svg>