<svg xmlns="http://www.w3.org/2000/svg" viewBox="0 0 15 15">
  <path fill="param(fill) #888" stroke="param(outline) #000" stroke-width="param(outline-width) 0" fill-opacity="param(fill-opacity) 1" stroke-opacity="param(outline-opacity) 1" d="M7.5 7.75C8.49 7.75 9.45 8.15 10.15 8.85C10.85 9.55 11.25 10.51 11.25 11.5L11.25 12.25L3.75 12.25L3.75 11.5C3.75 10.51 4.15 9.55 4.85 8.85C5.55 8.15 6.51 7.75 7.5 7.75ZM2.33 3.66C2.51 3.29 2.96 3.14 3.34 3.33L4.55 3.93C5.84 4.58 5.84 6.42 4.55 7.07L3.34 7.67C2.96 7.86 2.51 7.71 2.33 7.34C2.14 6.96 2.29 6.51 2.66 6.33L3.88 5.72C4.06 5.63 4.06 5.37 3.88 5.28L2.66 4.67C2.29 4.49 2.14 4.04 2.33 3.66ZM12.67 3.66C12.86 4.04 12.71 4.49 12.34 4.67L11.12 5.28C10.94 5.37 10.94 5.63 11.12 5.72L12.34 6.33C12.71 6.51 12.86 6.96 12.67 7.34C12.49 7.71 12.04 7.86 11.66 7.67L10.45 7.07C9.16 6.42 9.16 4.58 10.45 3.93L11.66 3.33C12.04 3.14 12.49 3.29 12.67 3.66Z"/>
</svg>