<svg xmlns="http://www.w3.org/2000/svg" viewBox="0 0 15 15">
  <path fill="param(fill) #888" stroke="param(outline) #000" stroke-width="param(outline-width) 0" fill-opacity="param(fill-opacity) 1" stroke-opacity="param(outline-opacity) 1" d="M7.5 0C9.25 0 10.5 1.5 10.5 3.5C10.5 4.43 10.02 5.59 9.05 7L13 7L13 9L8.25 9L9 15L6 15L6.75 9L2 9L2 7L5.95 7C4.98 5.59 4.5 4.43 4.5 3.5C4.5 1.5 5.75 0 7.5 0ZM7.5 1.75C6.8 1.75 6.25 2.39 6.25 3.5C6.25 4.03 6.62 4.89 7.38 6L7.5 6.17L7.62 6C8.33 4.96 8.7 4.14 8.75 3.6L8.75 3.5C8.75 2.39 8.2 1.75 7.5 1.75Z"/>
</svg>