<svg xmlns="http://www.w3.org/2000/svg" viewBox="0 0 15 15">
  <path fill="param(fill) #888" stroke="param(outline) #000" stroke-width="param(outline-width) 0" fill-opacity="param(fill-opacity) 1" stroke-opacity="param(outline-opacity) 1" d="M7.78 3.03C8.92 3.03 9.84 1.98 9.84 0.69C9.84 0.31 9.57 0 9.24 0C8.1 0 7.17 1.06 7.17 2.34C7.17 2.72 7.44 3.03 7.78 3.03ZM12.5 4.69C12.04 3.66 11.48 3.42 10.26 3.42C9.54 3.42 8.47 3.89 7.84 4.04C7.78 4.06 7.73 4.06 7.68 4.07C7.64 4.07 7.6 4.09 7.57 4.09C7.56 4.09 7.52 4.09 7.51 4.09C7.49 4.09 7.46 4.09 7.44 4.09C7.41 4.09 7.38 4.07 7.33 4.07C7.28 4.07 7.22 4.06 7.17 4.04C6.53 3.89 5.46 3.42 4.76 3.42C3.54 3.42 2.98 3.66 2.5 4.69C3.75 5.58 4.34 7.16 4.34 8.9C4.34 10.37 3.44 12.1 2.5 13C3.06 14.15 4.07 15 4.76 15C5.51 14.97 6.29 14.48 7.17 14.36C7.4 14.33 7.62 14.33 7.84 14.36C8.72 14.48 9.51 14.97 10.26 15C10.95 15 11.96 14.15 12.5 13C11.57 12.1 10.68 10.37 10.68 8.9C10.68 7.16 11.27 5.59 12.5 4.69Z"/>
</svg>