<?xml version="1.0" encoding="UTF-8"?>
<svg viewBox="0 0 15 15" version="1.1" xmlns="http://www.w3.org/2000/svg" xmlns:xlink="http://www.w3.org/1999/xlink">
  <path fill="param(fill) #888" stroke="param(outline) #000" stroke-width="param(outline-width) 0" fill-opacity="param(fill-opacity) 1" stroke-opacity="param(outline-opacity) 1" d="M14 1L13 6L12.26 3.8L11.06 5C12.97 7.31 13.25 10.35 11.97 14.01L11.84 14.35C11.65 14.87 11.07 15.13 10.55 14.94C10.07 14.76 9.81 14.25 9.93 13.76L9.94 13.74L6.13 9.93L4.9 11.16L5 12.01L2.46 14.95L2.06 12.94L0.05 12.54L2.99 10L3.84 10.1L5.07 8.87L1.26 5.06C0.81 5.18 0.33 4.97 0.11 4.55L0.06 4.45C-0.13 3.93 0.13 3.35 0.65 3.16C4.46 1.73 7.62 1.97 10 3.94L11.2 2.74L9 2L14 1ZM9.63 6.43L6.84 9.22L10.3 12.68C11.05 10.16 10.87 8.17 9.78 6.62L9.63 6.43ZM8.57 5.37C7 4.15 4.94 3.91 2.32 4.7L5.78 8.16L8.57 5.37Z"/>
</svg>