<svg xmlns="http://www.w3.org/2000/svg" viewBox="0 0 15 15">
  <path fill="param(fill) #888" stroke="param(outline) #000" stroke-width="param(outline-width) 0" fill-opacity="param(fill-opacity) 1" stroke-opacity="param(outline-opacity) 1" d="M12.5 9.5C12.82 9.5 13.14 9.61 13.39 9.81L13.71 10.06C14.01 10.31 14.39 10.46 14.78 10.49L15 10.5L15 12L14.95 12C14.49 12 14.06 11.84 13.71 11.56L13.39 11.31C13.14 11.11 12.82 11 12.5 11C12.18 11 11.86 11.11 11.61 11.31L11.3 11.56C10.94 11.84 10.5 12 10.05 12L9.95 12C9.5 12 9.06 11.84 8.7 11.56L8.39 11.31C8.14 11.11 7.82 11 7.5 11C7.18 11 6.86 11.11 6.61 11.31L6.3 11.56C5.94 11.84 5.5 12 5.05 12L4.95 12C4.5 12 4.06 11.84 3.7 11.56L3.39 11.31C3.14 11.11 2.82 11 2.5 11C2.18 11 1.86 11.11 1.61 11.31L1.29 11.56C0.99 11.81 0.61 11.96 0.22 11.99L0 12L0 10.5L0.05 10.5C0.51 10.5 0.94 10.35 1.29 10.06L1.61 9.81C1.86 9.61 2.18 9.5 2.5 9.5C2.82 9.5 3.14 9.61 3.39 9.81L3.7 10.06C4.06 10.34 4.5 10.5 4.95 10.5L5.05 10.5C5.5 10.5 5.94 10.34 6.3 10.06L6.61 9.81C6.86 9.61 7.18 9.5 7.5 9.5C7.82 9.5 8.14 9.61 8.39 9.81L8.7 10.06C9.06 10.34 9.5 10.5 9.95 10.5L10.05 10.5C10.5 10.5 10.94 10.34 11.3 10.06L11.61 9.81C11.86 9.61 12.18 9.5 12.5 9.5ZM12.5 12.5C12.82 12.5 13.14 12.61 13.39 12.81L13.71 13.07C14.01 13.31 14.39 13.46 14.78 13.5L15 13.5L15 15L14.95 15C14.49 15 14.06 14.84 13.71 14.56L13.39 14.31C13.14 14.11 12.82 14 12.5 14C12.18 14 11.86 14.11 11.61 14.31L11.3 14.56C10.94 14.84 10.5 15 10.05 15L9.95 15C9.5 15 9.06 14.84 8.7 14.56L8.39 14.31C8.14 14.11 7.82 14 7.5 14C7.18 14 6.86 14.11 6.61 14.31L6.3 14.56C5.94 14.84 5.5 15 5.05 15L4.95 15C4.5 15 4.06 14.84 3.7 14.56L3.39 14.31C3.14 14.11 2.82 14 2.5 14C2.18 14 1.86 14.11 1.61 14.31L1.29 14.56C0.99 14.81 0.61 14.96 0.22 14.99L0 15L0 13.5L0.05 13.5C0.51 13.5 0.94 13.35 1.29 13.07L1.61 12.81C1.86 12.61 2.18 12.5 2.5 12.5C2.82 12.5 3.14 12.61 3.39 12.81L3.7 13.06C4.06 13.35 4.5 13.5 4.95 13.5L5.05 13.5C5.5 13.5 5.94 13.35 6.3 13.06L6.61 12.81C6.86 12.61 7.18 12.5 7.5 12.5C7.82 12.5 8.14 12.61 8.39 12.81L8.7 13.06C9.06 13.35 9.5 13.5 9.95 13.5L10.05 13.5C10.5 13.5 10.94 13.35 11.3 13.06L11.61 12.81C11.86 12.61 12.18 12.5 12.5 12.5ZM5.5 0L0.5 4L5.5 8L5.5 5.5L9.5 5.5L9.5 8L14.5 4L9.5 0L9.5 2.5L5.5 2.5L5.5 0Z"/>
</svg>