<svg xmlns="http://www.w3.org/2000/svg" viewBox="0 0 15 15">
  <path fill="param(fill) #888" stroke="param(outline) #000" stroke-width="param(outline-width) 0" fill-opacity="param(fill-opacity) 1" stroke-opacity="param(outline-opacity) 1" d="M6 3L2 3L2 12L6 12L6 14L1 14C0.45 14 0 13.55 0 13L0 2C0 1.45 0.45 1 1 1L6 1L6 3ZM14.91 7.5L10.21 2.79C9.82 2.4 9.18 2.4 8.79 2.79C8.4 3.18 8.4 3.82 8.79 4.21L11.09 6.5L4 6.5L4 8.5L11.09 8.5L8.79 10.79C8.43 11.15 8.4 11.72 8.71 12.11L8.79 12.21C9.18 12.6 9.82 12.6 10.21 12.21L14.91 7.5Z"/>
</svg>