<svg xmlns="http://www.w3.org/2000/svg" viewBox="0 0 15 15">
  <path fill="param(fill) #888" stroke="param(outline) #000" stroke-width="param(outline-width) 0" fill-opacity="param(fill-opacity) 1" stroke-opacity="param(outline-opacity) 1" d="M7.5 8.64C7.75 8.64 7.96 8.85 7.96 9.1L7.96 13.41L9.22 12.18C9.4 12 9.69 12 9.87 12.18C10.04 12.36 10.04 12.65 9.87 12.82L7.82 14.87C7.73 14.96 7.62 15 7.5 15C7.38 15 7.27 14.96 7.18 14.87L5.13 12.82C4.96 12.65 4.96 12.36 5.13 12.18C5.31 12 5.6 12 5.78 12.18L7.04 13.41L7.04 9.1C7.04 8.85 7.25 8.64 7.5 8.64ZM6.5 6L6.5 9L5.5 8L4.5 9L4.5 6L6.5 6ZM12 3L12 5.5L11.25 6.25L12 7L12 8L7 8L7 7L11 7L10.25 6.25L11 5.5L4 5.5L4 8C3.45 8 3 7.55 3 7L3 3L12 3ZM14 0C14.55 0 15 0.45 15 1L15 5C15 5.55 14.55 6 14 6L12.5 6L12.5 4C12.78 4 13 3.78 13 3.5L13 2.5C13 2.22 12.78 2 12.5 2L2.5 2C2.22 2 2 2.22 2 2.5L2 3.5C2 3.78 2.22 4 2.5 4L2.5 6L1 6C0.45 6 0 5.55 0 5L0 1C0 0.45 0.45 0 1 0L14 0Z"/>
</svg>