<svg xmlns="http://www.w3.org/2000/svg" viewBox="0 0 15 15">
  <path fill="param(fill) #888" stroke="param(outline) #000" stroke-width="param(outline-width) 0" fill-opacity="param(fill-opacity) 1" stroke-opacity="param(outline-opacity) 1" d="M12 6L12 2L3 2L3 6L1 6L1 1C1 0.45 1.45 0 2 0L13 0C13.55 0 14 0.45 14 1L14 6L12 6ZM7.5 14.91L12.21 10.21C12.6 9.82 12.6 9.18 12.21 8.79C11.82 8.4 11.18 8.4 10.79 8.79L8.5 11.09L8.5 4L6.5 4L6.5 11.09L4.21 8.79C3.85 8.43 3.28 8.4 2.89 8.71L2.79 8.79C2.4 9.18 2.4 9.82 2.79 10.21L7.5 14.91Z"/>
</svg>