<svg xmlns="http://www.w3.org/2000/svg" viewBox="0 0 15 15">
  <path fill="param(fill) #888" stroke="param(outline) #000" stroke-width="param(outline-width) 0" fill-opacity="param(fill-opacity) 1" stroke-opacity="param(outline-opacity) 1" d="M7.5 8.64C7.62 8.64 7.73 8.68 7.82 8.77L9.87 10.82C10.04 10.99 10.04 11.28 9.87 11.46C9.69 11.64 9.4 11.64 9.22 11.46L7.96 10.23L7.96 14.54C7.96 14.79 7.75 15 7.5 15C7.25 15 7.04 14.79 7.04 14.54L7.04 10.23L5.78 11.46C5.6 11.64 5.31 11.64 5.13 11.46C4.96 11.28 4.96 10.99 5.13 10.82L7.18 8.77C7.27 8.68 7.38 8.64 7.5 8.64ZM6.5 6L6.5 9L5.5 8L4.5 9L4.5 6L6.5 6ZM12 3L12 5.5L11.25 6.25L12 7L12 8L7 8L7 7L11 7L10.25 6.25L11 5.5L4 5.5L4 8C3.45 8 3 7.55 3 7L3 3L12 3ZM14 0C14.55 0 15 0.45 15 1L15 5C15 5.55 14.55 6 14 6L12.5 6L12.5 4C12.78 4 13 3.78 13 3.5L13 2.5C13 2.22 12.78 2 12.5 2L2.5 2C2.22 2 2 2.22 2 2.5L2 3.5C2 3.78 2.22 4 2.5 4L2.5 6L1 6C0.45 6 0 5.55 0 5L0 1C0 0.45 0.45 0 1 0L14 0Z"/>
</svg>