<svg xmlns="http://www.w3.org/2000/svg" viewBox="0 0 15 15">
  <path fill="param(fill) #888" stroke="param(outline) #000" stroke-width="param(outline-width) 0" fill-opacity="param(fill-opacity) 1" stroke-opacity="param(outline-opacity) 1" d="M12 9C12.67 10.33 13.42 11 14.25 11C14.51 11 14.76 10.94 15 10.81L15 13.86C14.76 13.95 14.51 14 14.25 14C13.42 14 12.67 13.5 12 12.5C11.33 13.5 10.58 14 9.75 14C8.92 14 8.17 13.5 7.5 12.5C6.83 13.5 6.08 14 5.25 14C4.42 14 3.67 13.5 3 12.5C2.33 13.5 1.58 14 0.75 14C0.49 14 0.24 13.95 0 13.86L0 10.81C0.24 10.94 0.49 11 0.75 11C1.58 11 2.33 10.33 3 9C3.67 10.33 4.42 11 5.25 11C6.08 11 6.83 10.33 7.5 9C8.17 10.33 8.92 11 9.75 11C10.58 11 11.33 10.33 12 9ZM5.5 0L0.5 4L5.5 8L5.5 5.5L9.5 5.5L9.5 8L14.5 4L9.5 0L9.5 2.5L5.5 2.5L5.5 0Z"/>
</svg>