<svg xmlns="http://www.w3.org/2000/svg" viewBox="0 0 15 15">
  <path fill="param(fill) #888" stroke="param(outline) #000" stroke-width="param(outline-width) 0" fill-opacity="param(fill-opacity) 1" stroke-opacity="param(outline-opacity) 1" d="M1 0C0.45 0 0 0.45 0 1L0 2L0 4L0 5C0 5.55 0.45 6 1 6L2.5 6L2.5 4A0.5 0.5 0 0 1 2 3.5L2 2.5A0.5 0.5 0 0 1 2.5 2L12.5 2A0.5 0.5 0 0 1 13 2.5L13 3.5A0.5 0.5 0 0 1 12.5 4L12.5 6L14 6C14.55 6 15 5.55 15 5L15 4L15 2L15 1C15 0.45 14.55 0 14 0L1 0zM3 3L3 8L6 8C6 6 9 6 9 8L12 8L12 3L10 3L10 5L5 5L5 3L3 3zM6 3L6 4L9 4L9 3L6 3zM7.5 8.64C7.38 8.64 7.27 8.68 7.18 8.77L5.13 10.82C4.96 10.99 4.96 11.28 5.13 11.46C5.31 11.64 5.6 11.64 5.78 11.46L7.04 10.23L7.04 14.54C7.04 14.79 7.25 15 7.5 15C7.75 15 7.96 14.79 7.96 14.54L7.96 10.23L9.22 11.46C9.4 11.64 9.69 11.64 9.87 11.46C10.04 11.28 10.04 10.99 9.87 10.82L7.82 8.77C7.73 8.68 7.62 8.64 7.5 8.64z"/>
</svg>