<svg xmlns="http://www.w3.org/2000/svg" viewBox="0 0 15 15">
  <path fill="param(fill) #888" stroke="param(outline) #000" stroke-width="param(outline-width) 0" fill-opacity="param(fill-opacity) 1" stroke-opacity="param(outline-opacity) 1" d="M3.75 3.5L6 11.5L4.5 11.5L4 9.5L2 9.5L1.5 11.5L0 11.5L2.25 3.5L3.75 3.5ZM3 5.5L2.25 8L3.75 8L3 5.5ZM15 3.5L15 5L13.25 5L13.25 11.5L12 11.5L12 5L10.25 5L10.25 3.5zM8.11 3.5C9.31 3.5 10.28 4.69 10.28 6.17C10.28 7.1 9.89 7.92 9.3 8.4C10.03 9.02 10.5 10.06 10.5 11.23L10.5 11.5L9.2 11.5L9.2 11.31C9.2 10.2 8.62 9.22 7.77 8.87L7.67 8.83L7.3 8.83L7.25 11.5L6 11.5L6 3.5L8.11 3.5ZM8.11 5.1L7.3 5.1L7.3 7.23L8.11 7.23C8.59 7.23 8.98 6.76 8.98 6.17C8.98 5.58 8.59 5.1 8.11 5.1Z"/>
</svg>