<svg xmlns="http://www.w3.org/2000/svg" viewBox="0 0 15 15">
  <path fill="param(fill) #888" stroke="param(outline) #000" stroke-width="param(outline-width) 0" fill-opacity="param(fill-opacity) 1" stroke-opacity="param(outline-opacity) 1" d="M3.75 1.5L6 9.5L4.5 9.5L4 7.5L2 7.5L1.5 9.5L0 9.5L2.25 1.5L3.75 1.5ZM3 3.5L2.25 6L3.75 6L3 3.5ZM15 1.5L15 3L13.25 3L13.25 9.5L12 9.5L12 3L10.25 3L10.25 1.5zM8.11 1.5C9.31 1.5 10.28 2.69 10.28 4.17C10.28 5.1 9.89 5.92 9.3 6.4C10.03 7.02 10.5 8.06 10.5 9.23L10.5 9.5L9.2 9.5L9.2 9.31C9.2 8.2 8.62 7.22 7.77 6.87L7.67 6.83L7.3 6.83L7.25 9.5L6 9.5L6 1.5L8.11 1.5ZM8.11 3.1L7.3 3.1L7.3 5.23L8.11 5.23C8.59 5.23 8.98 4.76 8.98 4.17C8.98 3.58 8.59 3.1 8.11 3.1ZM0 13.25C0 13.25 6.21 9.38 15 11.27L13 13.91C13 13.91 6.75 11.15 0.4 13.91L0 13.25Z"/>
</svg>