<svg xmlns="http://www.w3.org/2000/svg" viewBox="0 0 15 15">
  <path fill="param(fill) #888" stroke="param(outline) #000" stroke-width="param(outline-width) 0" fill-opacity="param(fill-opacity) 1" stroke-opacity="param(outline-opacity) 1" d="M0.77 0C0.72 0 0.67 0 0.6 0.02C0.45 0.05 0.32 0.19 0.28 0.29C0.24 0.4 0.24 0.48 0.24 0.56C0.24 0.73 0.28 0.91 0.34 1.12C0.45 1.55 0.65 2.12 0.92 2.8C1.45 4.16 2.24 5.94 3.06 7.72C4.69 11.27 6.44 14.8 6.44 14.8C6.5 14.92 6.63 15 6.76 15C6.9 15 7.02 14.92 7.08 14.79C8.26 12.29 9.36 11.08 10.47 10.55C11.59 10.03 12.8 10.15 14.33 10.48C14.49 10.52 14.66 10.44 14.73 10.28C14.8 10.13 14.75 9.95 14.62 9.85C14.62 9.85 11.41 7.36 8.08 4.9C6.42 3.66 4.73 2.43 3.39 1.52C2.72 1.07 2.15 0.69 1.7 0.43C1.47 0.3 1.28 0.19 1.12 0.12C1 0.06 0.91 0.01 0.77 0ZM2.75 2.41L3.27 2.72L3.84 2.51L3.68 3.06L4.08 3.49L3.46 3.52L3.14 4L2.92 3.47L2.32 3.34L2.8 2.98L2.75 2.41ZM4.55 5.09L4.86 5.81L5.63 5.96L5.04 6.47L5.13 7.25L4.46 6.85L3.75 7.18L3.92 6.41L3.39 5.84L4.17 5.77L4.55 5.09ZM8.15 6.22L8.93 6.9L9.93 6.65L9.52 7.6L10.07 8.47L9.04 8.38L8.38 9.17L8.15 8.16L7.19 7.78L8.08 7.25L8.15 6.22ZM6.49 9.26L6.52 10.05L7.18 10.47L6.44 10.74L6.25 11.49L5.76 10.88L4.98 10.92L5.42 10.27L5.13 9.55L5.88 9.76L6.49 9.26Z"/>
</svg>