<svg xmlns="http://www.w3.org/2000/svg" viewBox="0 0 15 15">
  <path fill="param(fill) #888" stroke="param(outline) #000" stroke-width="param(outline-width) 0" fill-opacity="param(fill-opacity) 1" stroke-opacity="param(outline-opacity) 1" d="M9.75 3.5L9.75 5L8 5L8 11.5L6.75 11.5L6.75 5L5 5L5 3.5L9.75 3.5ZM3.75 3.5L6 11.5L4.5 11.5L4 9.5L2 9.5L1.5 11.5L0 11.5L2.25 3.5L3.75 3.5ZM3 5.5L2.25 8L3.75 8L3 5.5ZM15 3.5L15 11.5L13.75 11.5L13.75 7L13 9.5L12 9.5L11.25 7L11.25 11.5L10 11.5L10 3.5L11.25 3.5L12.5 7.5L13.75 3.5L15 3.5Z"/>
</svg>