<svg xmlns="http://www.w3.org/2000/svg" viewBox="0 0 15 15">
  <path fill="param(fill) #888" stroke="param(outline) #000" stroke-width="param(outline-width) 0" fill-opacity="param(fill-opacity) 1" stroke-opacity="param(outline-opacity) 1" d="M9.75 3L9.75 4.5L8 4.5L8 12L6.75 12L6.75 4.5L5 4.5L5 3L9.75 3ZM3.75 3L6 12L4.5 12L4 10L2 10L1.5 12L0 12L2.25 3L3.75 3ZM3 5.5L2.25 8.5L3.75 8.5L3 5.5ZM15 3L15 12L13.75 12L13.75 6.5L13 9L12 9L11.25 6.5L11.25 12L10 12L10 3L11.25 3L12.5 7L13.75 3L15 3Z"/>
</svg>