<svg xmlns="http://www.w3.org/2000/svg" viewBox="0 0 15 15">
  <path fill="param(fill) #888" stroke="param(outline) #000" stroke-width="param(outline-width) 0" fill-opacity="param(fill-opacity) 1" stroke-opacity="param(outline-opacity) 1" d="M2 15L2 0L8.5 0C10.99 0 13 2.01 13 4.5C13 5.52 12.66 6.47 12.08 7.22C12.96 8.04 13.5 9.21 13.5 10.5C13.5 12.99 11.49 15 9 15L2 15ZM5 12L9 12C9.83 12 10.5 11.33 10.5 10.5C10.5 9.67 9.83 9 9 9L5 9L5 12ZM8.5 3L5 3L5 6L8.5 6C9.33 6 10 5.33 10 4.5C10 3.67 9.33 3 8.5 3Z"/>
</svg>