<svg xmlns="http://www.w3.org/2000/svg" viewBox="0 0 15 15">
  <path fill="param(fill) #888" stroke="param(outline) #000" stroke-width="param(outline-width) 0" fill-opacity="param(fill-opacity) 1" stroke-opacity="param(outline-opacity) 1" d="M3.75 11.25L3.75 3.7L4.21 4C5.34 4.77 6.85 5.9 8.15 7.35C9.57 8.92 10.68 10.8 10.85 12.93C10.24 14.16 8.97 15 7.5 15C5.43 15 3.75 13.32 3.75 11.25ZM11.25 3.7L11.25 9.14C10.7 8.1 10.01 7.17 9.27 6.34C8.98 6.02 8.68 5.72 8.38 5.43C8.94 5.27 9.47 4.96 9.9 4.49L10.78 3.52C10.94 3.34 11.25 3.45 11.25 3.7ZM7.5 0C8.74 0 9.75 1.01 9.75 2.25C9.75 3.49 8.74 4.5 7.5 4.5C6.26 4.5 5.25 3.49 5.25 2.25C5.25 1.01 6.26 0 7.5 0Z"/>
</svg>