<svg xmlns="http://www.w3.org/2000/svg" viewBox="0 0 15 15">
  <path fill="param(fill) #888" stroke="param(outline) #000" stroke-width="param(outline-width) 0" fill-opacity="param(fill-opacity) 1" stroke-opacity="param(outline-opacity) 1" d="M8.5 7C9.25 7 9.82 7.26 10.54 7.72C11.05 8.05 11.36 8.35 11.6 8.62L11.99 9.07C12.1 9.19 12.18 9.27 12.31 9.35C12.33 9.36 12.36 9.36 12.4 9.36L12.53 9.36L12.97 9.35C13.02 9.35 13.07 9.35 13.13 9.35C14.13 9.35 15 10.17 15 11.18C15 11.62 14.86 12.08 14.52 12.44C14.17 12.81 13.68 13 13.13 13L11.25 13C10.66 13 10.22 12.73 9.95 12.49C9.44 12.71 8.65 12.94 7.5 12.94L7 13L7 7.37C7.5 7.12 8 7 8.5 7ZM11.5 2C12.88 2 14 3.12 14 4.5C14 5.88 12.88 7 11.5 7C10.12 7 9 5.88 9 4.5C9 3.12 10.12 2 11.5 2ZM2.63 9L2.97 8.68C3.76 7.95 5.04 7.81 5.83 8.55C6.72 9.38 6.72 10.79 5.83 11.62L5.02 12.37C4.57 12.78 3.99 13 3.41 13L2 13C0.87 13 0 12.14 0 11C0 9.86 0.87 9 2 9L2.63 9Z"/>
</svg>