<svg xmlns="http://www.w3.org/2000/svg" viewBox="0 0 15 15">
  <path fill="param(fill) #888" stroke="param(outline) #000" stroke-width="param(outline-width) 0" fill-opacity="param(fill-opacity) 1" stroke-opacity="param(outline-opacity) 1" d="M9.32 0.77C9.49 0.6 9.25 0.4 8.89 0.4L8.41 0.4C7.97 0.4 7.13 0.34 6.76 0.22L6.2 0.04C5.8 -0.09 5.33 0.13 5.51 0.36L6.64 2.23L8.61 2.23L9.32 0.77L9.32 0.77ZM13 12.83C12.24 11.58 12.03 10.92 12 10.58C11.97 10.32 11.94 10.18 11.92 10.07C11.9 9.95 11.88 9.86 11.86 9.61L11.82 9.05C11.74 7.85 11.63 6.9 11.3 6.14C11 5.45 10.04 4.71 9.26 4.27C9.04 4.14 8.83 4.01 8.67 3.91L7.77 3.9C7.77 3.98 7.76 4.06 7.72 4.14L6.88 5.8L5.89 5.31L6.59 3.89L6.37 3.89C6.2 4.01 5.94 4.16 5.67 4.33C4.88 4.78 3.99 5.49 3.7 6.15C3.36 6.9 3.26 7.85 3.17 9.06L3.14 9.62C3.12 9.86 3.1 9.95 3.07 10.07C3.05 10.19 3.03 10.32 3 10.59C2.96 10.92 2.75 11.58 1.99 12.84C1.73 13.26 1.68 13.75 1.85 14.16C2.06 14.68 2.52 15 3.05 15L11.95 15C12.48 15 12.94 14.68 13.15 14.16C13.32 13.76 13.27 13.26 13.01 12.84L13 12.83Z"/>
</svg>