<svg xmlns="http://www.w3.org/2000/svg" viewBox="0 0 15 15">
  <path fill="param(fill) #888" stroke="param(outline) #000" stroke-width="param(outline-width) 0" fill-opacity="param(fill-opacity) 1" stroke-opacity="param(outline-opacity) 1" d="M8.12 1.25C8.19 1.16 8.21 1.06 8.19 0.95C8.17 0.84 8.11 0.75 8.02 0.69L8.49 0C9.05 0.39 9.19 1.16 8.8 1.72C8.74 1.82 8.72 1.92 8.74 2.03C8.76 2.14 8.82 2.23 8.91 2.29L8.44 2.98C7.88 2.59 7.74 1.82 8.12 1.25L8.12 1.25ZM8.85 4.36C8.97 4.23 8.79 4.08 8.53 4.08L8.17 4.08C7.85 4.08 7.23 4.03 6.95 3.94L6.54 3.81C6.24 3.71 5.89 3.88 6.03 4.05L6.86 5.45L8.32 5.45L8.85 4.36L8.85 4.36ZM11.57 13.38C11 12.44 10.85 11.95 10.82 11.7C10.8 11.5 10.78 11.4 10.77 11.31C10.75 11.22 10.74 11.15 10.72 10.97L10.69 10.55C10.63 9.65 10.55 8.94 10.31 8.37C10.09 7.86 9.37 7.31 8.8 6.97C8.64 6.88 8.48 6.78 8.36 6.71L7.7 6.7C7.7 6.76 7.69 6.82 7.66 6.87L7.04 8.12L6.31 7.75L6.83 6.69L6.66 6.69C6.54 6.78 6.35 6.9 6.14 7.02C5.56 7.36 4.91 7.88 4.69 8.38C4.44 8.94 4.36 9.65 4.3 10.56L4.27 10.97C4.26 11.15 4.24 11.22 4.23 11.32C4.21 11.4 4.2 11.5 4.17 11.7C4.14 11.95 3.99 12.45 3.43 13.38C3.24 13.7 3.2 14.07 3.32 14.37C3.48 14.76 3.82 15 4.21 15L10.79 15C11.18 15 11.52 14.76 11.68 14.37C11.8 14.07 11.76 13.7 11.57 13.38L11.57 13.38ZM6.41 2.98L6.88 2.29C6.79 2.23 6.73 2.14 6.71 2.03C6.69 1.92 6.71 1.82 6.78 1.72C7.16 1.16 7.02 0.39 6.46 0L6 0.69C6.09 0.75 6.14 0.84 6.16 0.95C6.18 1.05 6.16 1.16 6.1 1.25C5.72 1.82 5.86 2.59 6.41 2.98Z"/>
</svg>