<svg xmlns="http://www.w3.org/2000/svg" viewBox="0 0 15 15">
  <path fill="param(fill) #888" stroke="param(outline) #000" stroke-width="param(outline-width) 0" fill-opacity="param(fill-opacity) 1" stroke-opacity="param(outline-opacity) 1" d="M8.5 0L8.5 2L9.25 2C11.04 2 12.5 3.46 12.5 5.25C12.5 5.99 12.25 6.68 11.83 7.22L11.82 7.24L11.86 7.28C12.51 7.84 12.94 8.65 12.99 9.57L13 9.75C13 11.54 11.54 13 9.75 13L8.5 13L8.5 15L6.5 15L6.5 13L2.5 13L2.5 2L6.5 2L6.5 0L8.5 0ZM6.5 8.5L4.5 8.5L4.5 11L6.5 11L6.5 8.5ZM9.75 8.5L8.5 8.5L8.5 11L9.75 11C10.4 11 10.93 10.51 10.99 9.88L11 9.75C11 9.06 10.44 8.5 9.75 8.5ZM6.5 4L4.5 4L4.5 6.5L6.5 6.5L6.5 4ZM9.25 4L8.5 4L8.5 6.5L9.25 6.5C9.94 6.5 10.5 5.94 10.5 5.25C10.5 4.56 9.94 4 9.25 4Z"/>
</svg>