<svg xmlns="http://www.w3.org/2000/svg" viewBox="0 0 15 15">
  <path fill="param(fill) #888" stroke="param(outline) #000" stroke-width="param(outline-width) 0" fill-opacity="param(fill-opacity) 1" stroke-opacity="param(outline-opacity) 1" d="M7.74 0.37C7.55 0.38 7.27 0.42 7.04 0.47C6.8 0.51 6.63 0.77 6.67 1.02L6.97 2.83C7.14 2.8 7.56 2.74 7.79 2.74C8.05 2.73 8.48 2.78 8.65 2.8L8.84 0.95C8.87 0.7 8.69 0.46 8.44 0.43C8.21 0.4 7.93 0.37 7.74 0.37ZM7.8 3.28C7.57 3.29 7.17 3.35 6.98 3.38V3.38V3.38V3.39V3.39V3.39V3.39V3.39V3.4H6.97V3.4V3.4V3.4V3.4V3.4H6.97C6.1 4.34 5.78 6.77 4.84 8.33C3.56 10.46 -0.58 12.17 0.13 14.12C0.71 15.64 4.96 13.46 7.04 11.38C7.04 11.28 7.03 11.18 7.03 11.08C7.03 10.27 7.28 9.46 7.88 8.84C8.14 8.55 8.47 8.35 8.82 8.23C9.35 6.38 9.37 4.33 8.65 3.43C8.64 3.41 8.62 3.38 8.62 3.35C8.43 3.32 8.03 3.28 7.8 3.28ZM11.88 6.69C11.55 7.03 11.29 7.5 11.2 7.91C11.16 8.14 11.14 8.68 11.13 8.94C11.25 9.01 11.38 9.06 11.49 9.16C11.62 9.06 11.74 8.99 11.86 8.92C11.88 8.7 11.89 8.22 11.92 8.06C11.98 7.75 12.14 7.44 12.39 7.2ZM9.65 9.09C9.22 9.08 8.86 9.22 8.6 9.5C8.25 9.88 8.03 10.51 8.03 11.08C8.03 12.23 9.18 14.26 10.34 14.26C10.66 14.26 10.92 14.12 11.49 13.82C12.07 14.12 12.32 14.26 12.65 14.26C13.8 14.26 14.95 12.23 14.95 11.08C14.95 10.51 14.76 9.88 14.38 9.5C13.78 8.93 12.65 8.92 11.49 9.79C10.84 9.33 10.19 9.09 9.65 9.09Z"/>
</svg>