<svg xmlns="http://www.w3.org/2000/svg" viewBox="0 0 15 15">
  <path fill="param(fill) #888" stroke="param(outline) #000" stroke-width="param(outline-width) 0" fill-opacity="param(fill-opacity) 1" stroke-opacity="param(outline-opacity) 1" d="M3.15 0.02C3.36 0.01 3.67 0.03 3.93 0.06C4.21 0.08 4.42 0.34 4.4 0.62L4.26 2.64C4.06 2.62 3.6 2.6 3.35 2.62C3.07 2.64 2.59 2.74 2.41 2.78L2 0.77C1.95 0.5 2.12 0.22 2.4 0.16C2.65 0.1 2.95 0.04 3.15 0.02ZM3.39 3.22C3.64 3.2 4.08 3.23 4.29 3.24C4.29 3.25 4.3 3.26 4.31 3.26C5.36 4.19 5.98 6.84 7.18 8.45C8.81 10.66 13.54 12.1 12.95 14.31C12.43 16.26 6.31 13.56 4.26 11.27C2.46 9.26 1.44 5.04 2.46 3.47C2.47 3.45 2.49 3.41 2.49 3.38C2.7 3.33 3.13 3.24 3.39 3.22Z"/>
</svg>