<svg xmlns="http://www.w3.org/2000/svg" viewBox="0 0 15 15">
  <path fill="param(fill) #888" stroke="param(outline) #000" stroke-width="param(outline-width) 0" fill-opacity="param(fill-opacity) 1" stroke-opacity="param(outline-opacity) 1" d="M2.28 0.73C2.2 0.73 2.12 0.75 2.04 0.77C1.74 0.87 1.38 0.99 1.14 1.09C0.92 1.2 0.6 1.38 0.33 1.54C0.03 1.71 -0.08 2.02 0.06 2.21L1.12 3.66C1.31 3.55 1.83 3.25 2.14 3.11C2.42 2.98 2.95 2.79 3.18 2.72L2.74 1.02C2.7 0.84 2.51 0.73 2.28 0.73ZM3.82 3.06C3.66 3.13 3.31 3.29 3.13 3.41C3.05 3.46 2.95 3.53 2.85 3.61H2.85C2.84 3.61 2.84 3.61 2.84 3.61C2.71 3.72 2.58 3.82 2.5 3.89C2.98 6.36 4.78 8.29 7.1 9.28C7.41 9.4 7.77 9.49 8.16 9.56C8.17 9.56 8.17 9.56 8.17 9.56C8.22 9.57 8.28 9.57 8.33 9.58C8.68 9.64 9.05 9.69 9.43 9.72C9.66 9.74 9.9 9.73 10.14 9.74C10.35 9.74 10.56 9.76 10.77 9.75C11.03 9.75 11.28 9.72 11.54 9.7C11.72 9.69 11.91 9.69 12.08 9.67L12.08 9.66C13.81 9.47 15.18 8.93 14.98 8.08C14.53 6.15 10.33 6.97 8.19 5.94C6.62 5.2 5.03 3.35 3.85 3.06H3.84L3.84 3.06H3.84H3.84H3.84H3.83L3.83 3.06H3.83H3.83L3.83 3.06H3.83L3.82 3.06L3.82 3.06ZM2.06 3.87C1.91 3.94 1.77 4.01 1.69 4.06C1.64 5.31 1.95 6.5 2.52 7.57C2.66 7.84 2.82 8.09 3 8.34C3.52 9.09 4.18 9.76 4.94 10.32C5.94 10.97 7.64 11.51 9.21 11.74C11.13 12.03 12.86 11.87 12.86 10.91C12.86 10.58 12.73 10.29 12.52 10.05C12.41 10.06 12.29 10.08 12.18 10.09C10.41 10.3 8.32 10.19 6.95 9.69L6.94 9.69L6.93 9.68C4.5 8.64 2.58 6.6 2.08 3.98ZM1.25 4.41C0.69 6.62 1.31 8.96 2.7 10.83C4.41 12.87 9.62 15.39 10.13 13.72C10.29 13.2 10.09 12.71 9.7 12.24C9.7 12.24 9.69 12.24 9.69 12.24C7.92 12.05 5.92 11.48 4.71 10.68L4.7 10.67L4.69 10.67C2.66 9.18 1.29 6.92 1.25 4.41Z"/>
</svg>