<svg xmlns="http://www.w3.org/2000/svg" viewBox="0 0 15 15">
  <path fill="param(fill) #888" stroke="param(outline) #000" stroke-width="param(outline-width) 0" fill-opacity="param(fill-opacity) 1" stroke-opacity="param(outline-opacity) 1" d="M1 0C0.45 0 0 0.45 0 1L0 2L0 4L0 5C0 5.55 0.45 6 1 6L2.5 6L2.5 4A0.5 0.5 0 0 1 2 3.5L2 2.5A0.5 0.5 0 0 1 2.5 2L12.5 2A0.5 0.5 0 0 1 13 2.5L13 3.5A0.5 0.5 0 0 1 12.5 4L12.5 6L14 6C14.55 6 15 5.55 15 5L15 4L15 2L15 1C15 0.45 14.55 0 14 0L1 0zM3 3L3 14C3 14.55 3.45 15 4 15L11 15C11.55 15 12 14.55 12 14L12 3L10.5 3L4.5 3L3 3zM7.5 5C9.43 5 11 6.12 11 7.5C11 8.88 9.43 10 7.5 10C5.57 10 4 8.88 4 7.5C4 6.12 5.57 5 7.5 5zM6.5 6L6.25 6.1L6.25 8.38L6.5 8L6.5 6zM6 6.24C5.91 6.28 5.84 6.31 5.75 6.38L5.75 8.65C5.89 8.71 6 8.75 6 8.75L6 6.24zM6.75 6.25L6.75 8.25L7 8.5L7 6.5L6.75 6.25zM7.25 6.5L7.25 8.5L7.5 8.5L7.5 6.5L7.25 6.5zM7.75 6.5L7.75 8.5L8 8.5L8 6.5L7.75 6.5zM8.25 6.5L8.25 8.5L8.5 8.5L8.5 6.5L8.25 6.5zM8.75 6.54L8.75 8.45C8.83 8.44 8.91 8.42 9 8.38L9 6.63C8.91 6.58 8.83 6.56 8.75 6.54zM5.5 6.57C5.41 6.65 5.32 6.73 5.25 6.83L5.25 8.25C5.33 8.35 5.41 8.43 5.5 8.5L5.5 6.57zM9.25 6.82L9.25 8.18C9.39 8.03 9.5 7.82 9.5 7.5C9.5 7.18 9.39 6.97 9.25 6.82zM4.5 12C4.78 12 5 12.22 5 12.5C5 12.78 4.78 13 4.5 13L5 13.5C5 13.22 5.22 13 5.5 13C5.78 13 6 13.22 6 13.5C6 13.78 5.78 14 5.5 14L4 14L4 12.5C4 12.22 4.22 12 4.5 12zM10.5 12C10.78 12 11 12.22 11 12.5L11 14L9.5 14C9.22 14 9 13.78 9 13.5C9 13.22 9.22 13 9.5 13C9.78 13 10 13.22 10 13.5L10.5 13C10.22 13 10 12.78 10 12.5C10 12.22 10.22 12 10.5 12z"/>
</svg>