<svg xmlns="http://www.w3.org/2000/svg" viewBox="0 0 15 15">
  <path fill="param(fill) #888" stroke="param(outline) #000" stroke-width="param(outline-width) 0" fill-opacity="param(fill-opacity) 1" stroke-opacity="param(outline-opacity) 1" d="M7.38 0C4.04 0.02 1.38 1.08 1.43 2.37C-0.08 5.94 0.49 9.38 1.43 12.63C1.31 15.79 13.63 15.79 13.51 12.63C14.78 9.36 14.88 5.95 13.51 2.37C13.56 1.05 10.79 -0.02 7.38 0ZM7.41 1.03C9.97 1.02 11.01 1.62 10.33 2.25C9.65 2.89 8.95 3.32 7.41 3.32C4.85 3.32 2.78 2.8 2.78 2.17C2.78 1.54 4.85 1.03 7.41 1.03ZM2.66 4.37C2.68 4.37 2.69 4.37 2.71 4.37C4.38 5.08 5.44 5.49 7.25 5.49C9.05 5.5 11 5 11.96 4.52C13.66 3.64 12.5 5.59 12.5 5.59C11.38 6.15 9.65 6.69 7.25 6.69C4.83 6.69 3.57 6.2 2.63 5.54C2.15 5.21 1.51 3.58 2.66 4.37ZM7.5 8.18C7.92 8.18 8.21 8.58 8.21 8.98C8.21 9.39 7.92 9.78 7.5 9.78C7.08 9.78 6.79 9.39 6.79 8.98C6.79 8.58 7.08 8.18 7.5 8.18ZM2.71 10.54L2.71 10.54C4.02 11.44 5.3 11.73 7.25 11.67C9.19 11.61 11 11.18 11.96 10.7C13.66 9.65 12.61 11.49 11.89 11.85C10.76 12.41 9.65 12.87 7.25 12.87C4.83 12.87 3.69 12.3 2.75 11.63C2.28 11.31 1.38 9.77 2.65 10.55C2.67 10.54 2.69 10.54 2.71 10.54Z"/>
</svg>