<svg xmlns="http://www.w3.org/2000/svg" viewBox="0 0 15 15">
  <path fill="param(fill) #888" stroke="param(outline) #000" stroke-width="param(outline-width) 0" fill-opacity="param(fill-opacity) 1" stroke-opacity="param(outline-opacity) 1" d="M13.71 0C13.34 0.03 11.57 1.75 8.53 4.9C7.2 6.55 5.89 8.22 4.54 9.86L1.05 13.36C0.67 13.36 0.11 13.27 0.01 13.77C-0.04 14.26 0.48 14.5 0.75 14.84C1.22 15.28 1.78 14.68 1.63 14.16C1.55 13.84 5.22 10.38 5.35 10.25C6.99 8.93 8.66 7.63 10.28 6.29C11.8 4.75 13.36 3.24 14.87 1.68C15.41 0.95 13.88 -0.03 13.71 0ZM10.02 12.46C11.4 12.46 12.55 11.21 12.61 9.91C11.25 9.89 10.02 11.11 10.02 12.46ZM13.11 10.01C13.07 11.58 11.68 12.93 10.12 13C10.32 13.91 11.09 14.64 11.98 14.86C12.03 13.29 13.42 11.94 14.97 11.87C14.75 10.97 14.01 10.23 13.11 10.01ZM15 12.4C13.63 12.41 12.48 13.65 12.41 14.99C13.81 15.05 15.04 13.79 15 12.4Z"/>
</svg>