<svg xmlns="http://www.w3.org/2000/svg" viewBox="0 0 15 15">
  <path fill="param(fill) #888" stroke="param(outline) #000" stroke-width="param(outline-width) 0" fill-opacity="param(fill-opacity) 1" stroke-opacity="param(outline-opacity) 1" d="M2.45 1L12.55 1C13.37 1 14.02 1.67 14 2.48L13.72 12.6C13.69 13.38 13.05 14 12.26 14L2.74 14C1.95 14 1.31 13.38 1.28 12.6L1 2.48C0.98 1.67 1.63 1 2.45 1ZM4.02 2.44L4.38 6.07C5.15 5.88 5.94 5.76 6.75 5.72L7.33 3.4C7.41 3.11 7.7 2.93 8 3C8.29 3.07 8.47 3.37 8.39 3.66L7.88 5.7C8.82 5.73 9.73 5.85 10.62 6.07L10.98 2.44L4.02 2.44Z"/>
</svg>