<svg xmlns="http://www.w3.org/2000/svg" viewBox="0 0 15 15">
  <path fill="param(fill) #888" stroke="param(outline) #000" stroke-width="param(outline-width) 0" fill-opacity="param(fill-opacity) 1" stroke-opacity="param(outline-opacity) 1" d="M6.5 1C7.15 1 7.71 1.42 7.91 2L10 2L10 4L8 4L8 4.09C8.58 4.29 9 4.85 9 5.5L9 14L5 14L5 5.5C5 4.85 5.42 4.29 6 4.09L6 3.91C5.42 3.71 5 3.15 5 2.5C5 1.67 5.67 1 6.5 1ZM6.5 1.75C6.09 1.75 5.75 2.09 5.75 2.5C5.75 2.91 6.09 3.25 6.5 3.25C6.91 3.25 7.25 2.91 7.25 2.5C7.25 2.09 6.91 1.75 6.5 1.75Z"/>
</svg>