<svg xmlns="http://www.w3.org/2000/svg" viewBox="0 0 15 15">
  <path fill="param(fill) #888" stroke="param(outline) #000" stroke-width="param(outline-width) 0" fill-opacity="param(fill-opacity) 1" stroke-opacity="param(outline-opacity) 1" d="M2.5 2C3.15 2 3.71 2.42 3.91 3L6 3L6 5L4 5L4 5.09C4.58 5.29 5 5.85 5 6.5L5 15L1 15L1 6.5C1 5.85 1.42 5.29 2 5.09L2 4.91C1.42 4.71 1 4.15 1 3.5C1 2.67 1.67 2 2.5 2ZM2.5 2.75C2.09 2.75 1.75 3.09 1.75 3.5C1.75 3.91 2.09 4.25 2.5 4.25C2.91 4.25 3.25 3.91 3.25 3.5C3.25 3.09 2.91 2.75 2.5 2.75ZM14 6L14 7L13 7L13 6L14 6ZM13 5L13 6L12 6L12 5L13 5ZM10 4L10 5L9 5L9 4L10 4ZM12 4L12 5L11 5L11 4L12 4ZM9 3L9 4L7 4L7 3L9 3ZM11 3L11 4L10 4L10 3L11 3ZM13 3L13 4L12 4L12 3L13 3ZM15 3L15 4L14 4L14 3L15 3ZM10 2L10 3L9 3L9 2L10 2ZM12 2L12 3L11 3L11 2L12 2ZM11 1L11 2L10 2L10 1L11 1ZM13 1L13 2L12 2L12 1L13 1ZM14 0L14 1L13 1L13 0L14 0ZM12.91 8C11.85 8.02 10.81 8.73 10.3 10L10.3 10L9.4 10L9 11L10.05 11C10.01 11.33 10.01 11.67 10.05 12L9.4 12L9 13L10.3 13C11.12 15.04 13.3 15.64 14.76 14.22L14.25 13.3C13.38 14.39 12.06 14.13 11.41 13L13.03 13L13.43 12L11.07 12C11.02 11.67 11.02 11.33 11.07 11L13.83 11L14.23 10L11.41 10C12.16 8.69 13.57 8.75 14.35 9.71C14.35 9.71 14.74 8.75 14.74 8.74C14.19 8.22 13.55 7.98 12.91 7.99L12.91 8Z"/>
</svg>