<svg xmlns="http://www.w3.org/2000/svg" viewBox="0 0 15 15">
  <path fill="param(fill) #888" stroke="param(outline) #000" stroke-width="param(outline-width) 0" fill-opacity="param(fill-opacity) 1" stroke-opacity="param(outline-opacity) 1" d="M2.5 2C3.15 2 3.71 2.42 3.91 3L6 3L6 5L4 5L4 5.09C4.58 5.29 5 5.85 5 6.5L5 15L1 15L1 6.5C1 5.85 1.42 5.29 2 5.09L2 4.91C1.42 4.71 1 4.15 1 3.5C1 2.67 1.67 2 2.5 2ZM2.5 2.75C2.09 2.75 1.75 3.09 1.75 3.5C1.75 3.91 2.09 4.25 2.5 4.25C2.91 4.25 3.25 3.91 3.25 3.5C3.25 3.09 2.91 2.75 2.5 2.75ZM14 6L14 7L13 7L13 6L14 6ZM13 5L13 6L12 6L12 5L13 5ZM10 4L10 5L9 5L9 4L10 4ZM12 4L12 5L11 5L11 4L12 4ZM9 3L9 4L7 4L7 3L9 3ZM11 3L11 4L10 4L10 3L11 3ZM13 3L13 4L12 4L12 3L13 3ZM15 3L15 4L14 4L14 3L15 3ZM10 2L10 3L9 3L9 2L10 2ZM12 2L12 3L11 3L11 2L12 2ZM11 1L11 2L10 2L10 1L11 1ZM13 1L13 2L12 2L12 1L13 1ZM14 0L14 1L13 1L13 0L14 0ZM12 8L12 9L12.53 9C13.33 9 13.97 9.64 13.97 10.44C13.97 10.79 13.84 11.13 13.61 11.39L13.5 11.5C14.09 12.03 14.13 12.94 13.6 13.53C13.32 13.83 12.94 14 12.53 14L12 14L12 15L11 15L11 14L9 14L9 9L11 9L11 8L12 8ZM11 11.8L10 11.8L10 13L11 13L11 11.8ZM12.34 11.8L12 11.8L12 13L12.53 13C12.63 13 12.73 12.97 12.8 12.91L12.86 12.86C13.02 12.68 13.01 12.4 12.83 12.24L12.34 11.8ZM11 10L10 10L10 11.2L11 11.2L11 10ZM12.53 10L12 10L12 11.2L12.34 11.2L12.83 10.76C12.92 10.68 12.97 10.56 12.97 10.44C12.97 10.2 12.77 10 12.53 10Z"/>
</svg>