<svg xmlns="http://www.w3.org/2000/svg" viewBox="0 0 15 15">
  <path fill="param(fill) #888" stroke="param(outline) #000" stroke-width="param(outline-width) 0" fill-opacity="param(fill-opacity) 1" stroke-opacity="param(outline-opacity) 1" d="M2.5 2C3.15 2 3.71 2.42 3.91 3L6 3L6 5L4 5L4 5.09C4.58 5.29 5 5.85 5 6.5L5 15L1 15L1 6.5C1 5.85 1.42 5.29 2 5.09L2 4.91C1.42 4.71 1 4.15 1 3.5C1 2.67 1.67 2 2.5 2ZM2.5 2.75C2.09 2.75 1.75 3.09 1.75 3.5C1.75 3.91 2.09 4.25 2.5 4.25C2.91 4.25 3.25 3.91 3.25 3.5C3.25 3.09 2.91 2.75 2.5 2.75ZM14 6L14 7L13 7L13 6L14 6ZM13 5L13 6L12 6L12 5L13 5ZM10 4L10 5L9 5L9 4L10 4ZM12 4L12 5L11 5L11 4L12 4ZM9 3L9 4L7 4L7 3L9 3ZM11 3L11 4L10 4L10 3L11 3ZM13 3L13 4L12 4L12 3L13 3ZM15 3L15 4L14 4L14 3L15 3ZM10 2L10 3L9 3L9 2L10 2ZM12 2L12 3L11 3L11 2L12 2ZM11 1L11 2L10 2L10 1L11 1ZM13 1L13 2L12 2L12 1L13 1ZM14 0L14 1L13 1L13 0L14 0ZM12 8C13.03 8 13.91 8.62 14.29 9.5L15 9.5L15 10.25L14.49 10.25C14.5 10.33 14.5 10.42 14.5 10.5C14.5 10.58 14.5 10.67 14.49 10.75L15 10.75L15 11.5L14.29 11.5C13.91 12.38 13.02 13 12 13L10 13L10 11.5L9 11.5L9 10.75L10 10.75L10 10.25L9 10.25L9 9.5L10 9.5L10 8L12 8ZM13.12 11.5L11 11.5L11 12L12 12C12.44 12 12.84 11.81 13.12 11.5ZM13.48 10.25L11 10.25L11 10.75L13.48 10.75C13.49 10.67 13.5 10.59 13.5 10.5C13.5 10.41 13.49 10.33 13.48 10.25ZM12 9L11 9L11 9.5L13.12 9.5C12.84 9.19 12.44 9 12 9ZM11 13L11 15L10 15L10 13L11 13Z"/>
</svg>