<svg xmlns="http://www.w3.org/2000/svg" viewBox="0 0 15 15">
  <path fill="param(fill) #888" stroke="param(outline) #000" stroke-width="param(outline-width) 0" fill-opacity="param(fill-opacity) 1" stroke-opacity="param(outline-opacity) 1" d="M2.5 2C3.15 2 3.71 2.42 3.91 3L6 3L6 5L4 5L4 5.09C4.58 5.29 5 5.85 5 6.5L5 15L1 15L1 6.5C1 5.85 1.42 5.29 2 5.09L2 4.91C1.42 4.71 1 4.15 1 3.5C1 2.67 1.67 2 2.5 2ZM2.5 2.75C2.09 2.75 1.75 3.09 1.75 3.5C1.75 3.91 2.09 4.25 2.5 4.25C2.91 4.25 3.25 3.91 3.25 3.5C3.25 3.09 2.91 2.75 2.5 2.75ZM14 6L14 7L13 7L13 6L14 6ZM13 5L13 6L12 6L12 5L13 5ZM10 4L10 5L9 5L9 4L10 4ZM12 4L12 5L11 5L11 4L12 4ZM9 3L9 4L7 4L7 3L9 3ZM11 3L11 4L10 4L10 3L11 3ZM13 3L13 4L12 4L12 3L13 3ZM15 3L15 4L14 4L14 3L15 3ZM10 2L10 3L9 3L9 2L10 2ZM12 2L12 3L11 3L11 2L12 2ZM11 1L11 2L10 2L10 1L11 1ZM13 1L13 2L12 2L12 1L13 1ZM14 0L14 1L13 1L13 0L14 0ZM12 9C13.05 9 13.92 9.82 13.99 10.85L14 11L13 11.25L13 11C13 10.45 12.55 10 12 10C11.49 10 11.06 10.39 11.01 10.88L11 11L11.67 12L13.5 12L13 13L12 13C12 13.32 11.87 13.63 11.65 13.85L11.5 14L14 14L13.5 15L10 15L10 14C10.4 14 10.74 13.74 10.85 13.36L10.88 13.25C10.89 13.17 10.9 13.08 10.9 13L9.5 13L10 12L10.66 12L10.58 11.87L10 11C10 9.9 10.9 9 12 9Z"/>
</svg>