<svg xmlns="http://www.w3.org/2000/svg" viewBox="0 0 15 15">
  <path fill="param(fill) #888" stroke="param(outline) #000" stroke-width="param(outline-width) 0" fill-opacity="param(fill-opacity) 1" stroke-opacity="param(outline-opacity) 1" d="M2.5 11.5C2.82 11.5 3.14 11.61 3.39 11.81L3.7 12.06L3.83 12.16L3.97 12.24C4.27 12.41 4.6 12.5 4.95 12.5L5.05 12.5C5.37 12.5 5.68 12.42 5.97 12.28L6.15 12.17L6.3 12.06L6.61 11.81C6.86 11.61 7.18 11.5 7.5 11.5C7.82 11.5 8.14 11.61 8.39 11.81L8.72 12.08L8.84 12.16C9.17 12.38 9.55 12.5 9.95 12.5L10.05 12.5C10.5 12.5 10.94 12.35 11.3 12.06L11.61 11.81C11.86 11.61 12.18 11.5 12.5 11.5C12.82 11.5 13.14 11.61 13.39 11.81L13.71 12.07C14.01 12.31 14.39 12.46 14.78 12.5L15 12.5L15 14L14.95 14C14.49 14 14.06 13.84 13.71 13.56L13.39 13.31C13.14 13.11 12.82 13 12.5 13C12.18 13 11.86 13.11 11.61 13.31L11.3 13.56C10.94 13.84 10.5 14 10.05 14L9.95 14C9.5 14 9.06 13.84 8.7 13.56L8.39 13.31C8.14 13.11 7.82 13 7.5 13C7.18 13 6.86 13.11 6.61 13.31L6.3 13.56C5.94 13.84 5.5 14 5.05 14L4.95 14C4.5 14 4.06 13.84 3.7 13.56L3.39 13.31C3.14 13.11 2.82 13 2.5 13C2.18 13 1.86 13.11 1.61 13.31L1.29 13.56C0.99 13.81 0.61 13.96 0.22 13.99L0 14L0 12.5L0.05 12.5C0.51 12.5 0.94 12.35 1.29 12.07L1.61 11.81C1.86 11.61 2.18 11.5 2.5 11.5ZM1.5 0.5C1.72 0.51 1.94 0.57 2.14 0.68C3.19 1.27 3.66 2.5 3.34 3.61L3.29 3.77C3.25 3.87 3.21 3.97 3.15 4.08L0.8 8.62C1.19 8.4 1.58 8.21 1.98 8.06C2.89 7.7 3.84 7.52 4.82 7.52C6.52 7.52 7.86 7.7 8.84 8.06L9.09 7.78C9.33 7.52 9.58 7.3 9.84 7.11L9.62 6.68L9.58 6.56C9.54 6.33 9.68 6.11 9.91 6.05C9.95 6.04 9.98 6.03 10.02 6.03L10.12 6.03C10.36 6.04 10.58 6.18 10.69 6.41L10.8 6.61L10.99 6.56C11.25 6.49 11.52 6.45 11.79 6.45L12.05 6.46C13.03 6.51 14.01 6.87 15 7.52L15 9.99L13.73 10.84C13.36 10.62 12.94 10.5 12.5 10.5C11.95 10.5 11.42 10.69 10.98 11.03L10.67 11.28C10.5 11.42 10.28 11.5 10.05 11.5L9.95 11.5C9.72 11.5 9.5 11.42 9.33 11.28L9.01 11.03C8.58 10.69 8.05 10.5 7.5 10.5C6.95 10.5 6.42 10.69 5.99 11.03L5.67 11.28C5.5 11.42 5.28 11.5 5.05 11.5L4.95 11.5C4.72 11.5 4.5 11.42 4.33 11.28L4.01 11.03C3.58 10.69 3.05 10.5 2.5 10.5C1.95 10.5 1.42 10.69 0.99 11.03L0.67 11.28C0.49 11.43 0.28 11.5 0.05 11.5L0 11.5L0 1.94C0 1.74 0.04 1.55 0.12 1.37L0.18 1.23C0.38 0.87 0.72 0.64 1.08 0.55L1.22 0.52C1.27 0.51 1.32 0.5 1.37 0.5L1.5 0.5ZM12.32 7.52C12.27 7.52 12.22 7.54 12.17 7.56C12.01 7.64 11.94 7.84 12.02 8L12.05 8.06C12.22 8.4 12.54 8.63 12.91 8.7L13.13 8.73C13.21 8.75 13.3 8.72 13.37 8.67C13.51 8.56 13.53 8.36 13.42 8.23L13.19 7.94C12.98 7.68 12.66 7.52 12.32 7.52Z"/>
</svg>