<svg xmlns="http://www.w3.org/2000/svg" viewBox="0 0 15 15">
  <path fill="param(fill) #888" stroke="param(outline) #000" stroke-width="param(outline-width) 0" fill-opacity="param(fill-opacity) 1" stroke-opacity="param(outline-opacity) 1" d="M4.77 4.77C5.73 4.98 6.14 5.8 6.14 6.82L6.14 14.59C6.14 14.8 5.93 15 5.66 15L1.84 15C1.57 15 1.36 14.8 1.36 14.59L1.36 6.82C1.36 5.8 1.77 4.98 2.73 4.77L2.73 1.36L4.77 1.36L4.77 4.77ZM2.73 0L4.77 0L4.77 0.68L2.73 0.68L2.73 0ZM10.64 1.64C10.5 1.64 10.43 1.5 10.43 1.36C10.43 1.3 10.5 1.16 10.57 1.16C10.5 1.09 10.43 1.02 10.43 0.95C10.43 0.82 10.57 0.75 10.7 0.75L12.07 0.75C12.2 0.75 12.34 0.82 12.34 0.95C12.34 1.02 12.27 1.16 12.2 1.16C12.27 1.16 12.34 1.23 12.34 1.36C12.34 1.5 12.27 1.64 12.14 1.64L13.43 5.93C13.55 6.16 13.56 6.43 13.57 6.68L13.57 14.45C13.57 14.73 13.3 15 13.02 15L9.34 15C9.07 15 8.8 14.8 8.8 14.45L8.8 6.82C8.8 6.48 8.8 6.2 8.93 5.93L10.64 1.64Z"/>
</svg>