<svg xmlns="http://www.w3.org/2000/svg" viewBox="0 0 15 15">
  <path fill="param(fill) #888" stroke="param(outline) #000" stroke-width="param(outline-width) 0" fill-opacity="param(fill-opacity) 1" stroke-opacity="param(outline-opacity) 1" d="M10.53 2.06L10.53 2.79L10.65 2.88L11.73 2.66L13.07 3.59L12.37 5.63L14.78 6.77L14.47 7.31L15.13 7.75L14.37 9.83L14.37 9.83L13.85 9.62L12.83 11.89L13.17 12.42L13.23 13.41L11.72 13.82L11.29 13.02L9.25 11.89L9.19 9.81L8.36 10.81L5.85 10.86L5.85 9.09L5.9 8.54L4.62 8.79L4.28 7.73L3.37 7.64L2.49 5.93L2.07 5.86L1.57 6.29L0.39 5.52L0.13 3.97L3.4 2.28L3.95 2.72L5.51 3.21L6.87 2.18L7.72 2.3L7.72 2.06L10.53 2.06ZM7.5 3.92L7.14 5.01L6 5.01L6.92 5.76L6.5 7L7.5 6.25L8.5 7L8.08 5.76L9 5.01L7.86 5.01L7.5 3.92Z"/>
</svg>