<svg xmlns="http://www.w3.org/2000/svg" viewBox="0 0 15 15">
  <path fill="param(fill) #888" stroke="param(outline) #000" stroke-width="param(outline-width) 0" fill-opacity="param(fill-opacity) 1" stroke-opacity="param(outline-opacity) 1" d="M7.5 6c0.25 0 0.46 0.18 0.5 0.41v1.88l0.74 0.74c1.26 0.12 2.26 1.17 2.26 2.47c0 1.38 -1.12 2.5 -2.49 2.5c-1.38 0 -2.51 -1.12 -2.51 -2.5c0 -0.96 0.55 -1.79 1.34 -2.21l0.16 -0.08l-0.39 -0.4l-2.48 1.4c0.23 0.38 0.38 0.82 0.38 1.29c0 1.38 -1.14 2.5 -2.51 2.5c-1.38 0 -2.5 -1.12 -2.5 -2.5c0 -1.37 1.12 -2.5 2.5 -2.5c0.14 0 0.27 0.02 0.41 0.04l0.18 0.04l-0.43 -1.08h-0.23c-0.64 0.01 -0.68 -0.89 -0.12 -0.99l0.12 -0.01h2.03c0.63 -0.01 0.67 0.89 0.11 0.99l-0.11 0.01h-0.72l0.52 1.28l2.74 -1.56v-0.72h-0.5c-0.63 0.01 -0.67 -0.89 -0.11 -0.99l0.11 -0.01zm-5 4.01c-0.84 0 -1.5 0.66 -1.5 1.49c0 0.84 0.66 1.5 1.5 1.5c0.83 0 1.51 -0.66 1.51 -1.5c0 -0.83 -0.68 -1.49 -1.51 -1.49zm6.01 0c-0.84 0 -1.51 0.66 -1.51 1.49c0 0.84 0.67 1.5 1.51 1.5c0.83 0 1.49 -0.66 1.49 -1.5c0 -0.83 -0.66 -1.49 -1.49 -1.49zm4.49 -10v1h1c0.5 0 1 0.5 1 1h-2v1h0.5c0.83 0 1.5 0.67 1.5 1.5s-0.67 1.5 -1.5 1.5h-0.5v1h-1v-1h-1c-0.5 0 -1 -0.5 -1 -1h2v-1h-0.5c-0.83 0 -1.5 -0.67 -1.5 -1.5s0.67 -1.5 1.5 -1.5h0.5v-1zm0 5h0.5c0.28 0 0.5 -0.22 0.5 -0.5s-0.22 -0.5 -0.5 -0.5h-0.5zm-1 -2v-1h-0.5c-0.28 0 -0.5 0.22 -0.5 0.5s0.22 0.5 0.5 0.5z"/>
</svg>