<svg xmlns="http://www.w3.org/2000/svg" viewBox="0 0 15 15">
  <path fill="param(fill) #888" stroke="param(outline) #000" stroke-width="param(outline-width) 0" fill-opacity="param(fill-opacity) 1" stroke-opacity="param(outline-opacity) 1" d="M12.91 0c-1.06 0.02 -2.1 0.73 -2.61 2l0 0l-0.9 0l-0.4 1h1.05c-0.04 0.33 -0.04 0.67 0 1h-0.65l-0.4 1h1.3c0.82 2.04 3 2.64 4.46 1.22l-0.51 -0.92c-0.87 1.09 -2.19 0.83 -2.84 -0.3h1.62l0.4 -1h-2.36c-0.05 -0.33 -0.05 -0.67 0 -1h2.76l0.4 -1h-2.82c0.75 -1.31 2.16 -1.25 2.94 -0.29c0 0 0.39 -0.96 0.39 -0.97c-0.55 -0.52 -1.19 -0.76 -1.83 -0.75zm-6.41 6l-0.11 0.01c-0.56 0.1 -0.52 1 0.11 0.99h0.5v0.72l-2.74 1.56l-0.52 -1.28h0.72l0.11 -0.01c0.56 -0.1 0.52 -1 -0.11 -0.99h-2.03l-0.12 0.01c-0.56 0.1 -0.52 1 0.12 0.99h0.23l0.43 1.08l-0.18 -0.04c-0.14 -0.02 -0.27 -0.04 -0.41 -0.04c-1.38 0 -2.5 1.13 -2.5 2.5c0 1.38 1.12 2.5 2.5 2.5c1.37 0 2.51 -1.12 2.51 -2.5c0 -0.47 -0.15 -0.91 -0.38 -1.29l2.48 -1.4l0.39 0.4l-0.16 0.08c-0.79 0.42 -1.34 1.25 -1.34 2.21c0 1.38 1.13 2.5 2.51 2.5c1.37 0 2.49 -1.12 2.49 -2.5c0 -1.3 -1 -2.35 -2.26 -2.47l-0.74 -0.74v-1.88c-0.04 -0.23 -0.25 -0.41 -0.5 -0.41h-1zm-4 4.01c0.83 0 1.51 0.66 1.51 1.49c0 0.84 -0.68 1.5 -1.51 1.5c-0.84 0 -1.5 -0.66 -1.5 -1.5c0 -0.83 0.66 -1.49 1.5 -1.49zm6.01 0c0.83 0 1.49 0.66 1.49 1.49c0 0.84 -0.66 1.5 -1.49 1.5c-0.84 0 -1.51 -0.66 -1.51 -1.5c0 -0.83 0.67 -1.49 1.51 -1.49z"/>
</svg>