<svg xmlns="http://www.w3.org/2000/svg" viewBox="0 0 15 15">
  <path fill="param(fill) #888" stroke="param(outline) #000" stroke-width="param(outline-width) 0" fill-opacity="param(fill-opacity) 1" stroke-opacity="param(outline-opacity) 1" d="M6.5 6C5.82 5.99 5.82 7.01 6.5 7L7 7L7 7.71L4.25 9.28L3.74 8L4.45 8C5.13 8.01 5.13 6.99 4.45 7L2.43 7C1.75 6.99 1.75 8.01 2.43 8L2.66 8L3.09 9.08C2.9 9.03 2.7 9 2.5 9C1.13 9 0 10.13 0 11.5C0 12.87 1.13 14 2.5 14C3.87 14 5 12.87 5 11.5C5 11.03 4.86 10.59 4.63 10.21L7.1 8.8L7.5 9.21C6.62 9.6 6 10.48 6 11.5C6 12.87 7.13 14 8.5 14C9.87 14 11 12.87 11 11.5C11 10.2 10 9.14 8.73 9.02L8 8.29L8 6.5C8 6.22 7.78 6 7.5 6L6.5 6ZM2.5 10C3.33 10 4 10.67 4 11.5C4 12.33 3.33 13 2.5 13C1.67 13 1 12.33 1 11.5C1 10.67 1.67 10 2.5 10ZM8.5 10C9.33 10 10 10.67 10 11.5C10 12.33 9.33 13 8.5 13C7.67 13 7 12.33 7 11.5C7 10.67 7.67 10 8.5 10ZM11.5 3L11.5 4.5L14.5 4.5L14.5 5.5L11.5 5.5L11.5 7L9.5 5L11.5 3ZM13 0L15 2L13 4L13 2.5L10 2.5L10 1.5L13 1.5L13 0Z"/>
</svg>