<svg xmlns="http://www.w3.org/2000/svg" viewBox="0 0 15 15">
  <path fill="param(fill) #888" stroke="param(outline) #000" stroke-width="param(outline-width) 0" fill-opacity="param(fill-opacity) 1" stroke-opacity="param(outline-opacity) 1" d="M1 0L8 0L8 1L1 1L1 0ZM1 2L8 2L8 3L1 3L1 2ZM1 4L8 4L8 5L1 5L1 4ZM13.25 0L11.25 3.5L10.25 2L8.5 2L10.5 5L12 5L15 0L13.25 0ZM8.5 7C7.82 6.99 7.82 8.01 8.5 8L9 8L9 8.71L6.25 10.28L5.74 9L6.45 9C7.13 9.01 7.13 7.99 6.45 8L4.43 8C3.75 7.99 3.75 9.01 4.43 9L4.66 9L5.09 10.08C4.9 10.03 4.7 10 4.5 10C3.13 10 2 11.13 2 12.5C2 13.87 3.13 15 4.5 15C5.87 15 7 13.87 7 12.5C7 12.03 6.86 11.59 6.63 11.21L9.1 9.8L9.5 10.21C8.62 10.6 8 11.48 8 12.5C8 13.87 9.13 15 10.5 15C11.87 15 13 13.87 13 12.5C13 11.2 12 10.14 10.73 10.02L10 9.29L10 7.5C10 7.22 9.78 7 9.5 7L8.5 7ZM4.5 11C5.33 11 6 11.67 6 12.5C6 13.33 5.33 14 4.5 14C3.67 14 3 13.33 3 12.5C3 11.67 3.67 11 4.5 11ZM10.5 11C11.33 11 12 11.67 12 12.5C12 13.33 11.33 14 10.5 14C9.67 14 9 13.33 9 12.5C9 11.67 9.67 11 10.5 11Z"/>
</svg>