<svg xmlns="http://www.w3.org/2000/svg" viewBox="0 0 15 15">
  <path fill="param(fill) #888" stroke="param(outline) #000" stroke-width="param(outline-width) 0" fill-opacity="param(fill-opacity) 1" stroke-opacity="param(outline-opacity) 1" d="M6.5 7C5.82 6.99 5.82 8.01 6.5 8L7 8L7 8.71L4.25 10.28L3.74 9L4.45 9C5.13 9.01 5.13 7.99 4.45 8L2.43 8C1.75 7.99 1.75 9.01 2.43 9L2.66 9L3.09 10.08C2.9 10.03 2.7 10 2.5 10C1.13 10 0 11.13 0 12.5C0 13.87 1.13 15 2.5 15C3.87 15 5 13.87 5 12.5C5 12.03 4.86 11.59 4.63 11.21L7.1 9.8L7.5 10.21C6.62 10.6 6 11.48 6 12.5C6 13.87 7.13 15 8.5 15C9.87 15 11 13.87 11 12.5C11 11.2 10 10.14 8.73 10.02L8 9.29L8 7.5C8 7.22 7.78 7 7.5 7L6.5 7ZM2.5 11C3.33 11 4 11.67 4 12.5C4 13.33 3.33 14 2.5 14C1.67 14 1 13.33 1 12.5C1 11.67 1.67 11 2.5 11ZM8.5 11C9.33 11 10 11.67 10 12.5C10 13.33 9.33 14 8.5 14C7.67 14 7 13.33 7 12.5C7 11.67 7.67 11 8.5 11ZM12 0C13.1 0 14 0.9 14 2L14 2.5L14.5 2.5C14.78 2.5 15 2.72 15 3L15 6C15 6.28 14.78 6.5 14.5 6.5L9.5 6.5C9.22 6.5 9 6.28 9 6L9 3C9 2.72 9.22 2.5 9.5 2.5L10 2.5L10 2C10 0.9 10.9 0 12 0ZM12 3.25C11.59 3.25 11.25 3.59 11.25 4C11.25 4.27 11.4 4.52 11.62 4.65L11.25 5.75L12.75 5.75L12.38 4.65C12.6 4.51 12.75 4.27 12.75 4C12.75 3.59 12.41 3.25 12 3.25ZM12 1C11.45 1 11 1.45 11 2L11 2.5L13 2.5L13 2C13 1.49 12.61 1.06 12.12 1.01L12 1Z"/>
</svg>