<svg xmlns="http://www.w3.org/2000/svg" viewBox="0 0 15 15">
  <path fill="param(fill) #888" stroke="param(outline) #000" stroke-width="param(outline-width) 0" fill-opacity="param(fill-opacity) 1" stroke-opacity="param(outline-opacity) 1" d="M7.5 6C7.75 6 7.96 6.18 8 6.41L8 8.29L8.74 9.03C10 9.15 11 10.2 11 11.5C11 12.88 9.88 14 8.51 14C7.13 14 6 12.88 6 11.5C6 10.54 6.55 9.71 7.34 9.29L7.5 9.21L7.11 8.81L4.63 10.21C4.86 10.59 5.01 11.03 5.01 11.5C5.01 12.88 3.87 14 2.5 14C1.12 14 0 12.88 0 11.5C0 10.13 1.12 9 2.5 9C2.64 9 2.77 9.02 2.91 9.04L3.09 9.08L2.66 8L2.43 8C1.79 8.01 1.75 7.11 2.31 7.01L2.43 7L4.46 7C5.09 6.99 5.13 7.89 4.57 7.99L4.46 8L3.74 8L4.26 9.28L7 7.72L7 7L6.5 7C5.87 7.01 5.83 6.11 6.39 6.01L6.5 6L7.5 6ZM2.5 10.01C1.66 10.01 1 10.67 1 11.5C1 12.34 1.66 13 2.5 13C3.33 13 4.01 12.34 4.01 11.5C4.01 10.67 3.33 10.01 2.5 10.01ZM8.51 10.01C7.67 10.01 7 10.67 7 11.5C7 12.34 7.67 13 8.51 13C9.34 13 10 12.34 10 11.5C10 10.67 9.34 10.01 8.51 10.01ZM12 0C13.03 0 13.91 0.62 14.29 1.5L15 1.5L15 2.25L14.49 2.25C14.5 2.33 14.5 2.42 14.5 2.5C14.5 2.58 14.5 2.67 14.49 2.75L15 2.75L15 3.5L14.29 3.5C13.91 4.38 13.02 5 12 5L11 5L11 7L10 7L10 3.5L9 3.5L9 2.75L10 2.75L10 2.25L9 2.25L9 1.5L10 1.5L10 0L12 0ZM11 3.5L11 4L12 4C12.44 4 12.84 3.81 13.12 3.5L11 3.5ZM13.48 2.25L11 2.25L11 2.75L13.48 2.75C13.49 2.67 13.5 2.59 13.5 2.5C13.5 2.41 13.49 2.33 13.48 2.25ZM12 1L11 1L11 1.5L13.12 1.5C12.84 1.19 12.44 1 12 1Z"/>
</svg>