<svg xmlns="http://www.w3.org/2000/svg" viewBox="0 0 15 15">
  <path fill="param(fill) #888" stroke="param(outline) #000" stroke-width="param(outline-width) 0" fill-opacity="param(fill-opacity) 1" stroke-opacity="param(outline-opacity) 1" d="M15 6.6L15 7.92L12.01 7.92C11.59 7.58 9.75 4.94 8.82 3.08C10.25 4.24 12.36 5.83 15 6.6ZM10.15 14.99L4.85 14.99L4.85 9.25L10.15 9.25L10.15 14.99ZM7.5 3.52C8.16 4.76 9.37 7.17 10.15 7.92L4.85 7.92C5.62 7.19 6.84 4.78 7.5 3.52ZM0 6.6C2.63 5.83 4.75 4.24 6.18 3.08C5.18 5.09 3.14 7.81 2.98 7.92L0 7.92L0 6.6ZM0.88 9.25L3.53 9.25L3.53 14.98L0.88 15L0.88 9.25ZM14.12 14.99L11.47 14.99L11.47 9.25L14.12 9.25L14.12 14.99ZM11.5 1.24L7.5 2.5L7.5 0L11.5 1.24Z"/>
</svg>