<svg xmlns="http://www.w3.org/2000/svg" viewBox="0 0 15 15">
  <path fill="param(fill) #888" stroke="param(outline) #000" stroke-width="param(outline-width) 0" fill-opacity="param(fill-opacity) 1" stroke-opacity="param(outline-opacity) 1" d="M8.32 0C9.11 0 10.65 0.36 11.42 1.45C12.04 2.34 12.13 3.12 11.94 4.19C11.86 4.66 11.73 5.05 11.55 5.39C11.88 5.42 12.22 5.5 12.59 5.64C13.62 6.01 14.25 6.47 14.71 7.47C15.27 8.67 14.94 9.95 14.41 10.87L14.4 10.72C14.35 10.26 14.17 8.89 13.53 8.27C12.27 7.04 9.95 7.14 9.02 8.65C8.12 10.11 8.94 12.14 10.53 12.78C11.66 13.24 13.61 12.25 13.61 12.25C13.22 12.95 12.14 14.1 10.81 14.21C9.72 14.31 9.01 14 8.17 13.3C7.9 13.07 7.68 12.84 7.5 12.61C7.32 12.84 7.1 13.07 6.83 13.3C5.99 14 5.28 14.31 4.19 14.21C2.86 14.1 1.78 12.95 1.39 12.25L1.58 12.35C2.11 12.58 3.56 13.16 4.47 12.78C6.06 12.14 6.88 10.11 5.98 8.65C5.05 7.14 2.73 7.04 1.47 8.27C0.7 9.02 0.59 10.87 0.59 10.87C0.06 9.95 -0.27 8.67 0.29 7.47C0.75 6.47 1.38 6.01 2.41 5.64C2.79 5.5 3.15 5.42 3.49 5.39C3.31 5.04 3.18 4.66 3.1 4.19C2.91 3.12 2.99 2.34 3.62 1.45C4.39 0.36 5.66 0 6.72 0L6.57 0.1C6.18 0.39 5.12 1.22 4.91 2.06C4.47 3.77 5.72 5.73 7.49 5.78C9.21 5.83 10.55 4.11 10.32 2.41C10.15 1.2 8.32 0 8.32 0ZM10.47 8.08L11.94 8.36C11.86 8.87 11.67 9.35 11.42 9.79C11.36 9.9 11.29 10 11.22 10.1C10.93 10.52 10.57 10.88 10.15 11.18L9.27 9.96C9.89 9.51 10.32 8.84 10.47 8.08ZM4.57 8.07C4.71 8.83 5.14 9.5 5.77 9.95L4.88 11.18C4.46 10.88 4.1 10.51 3.81 10.09C3.74 9.99 3.68 9.89 3.62 9.78C3.36 9.34 3.18 8.86 3.09 8.35L4.57 8.07ZM7.52 6.77C7.1 6.77 6.77 7.1 6.77 7.52C6.77 7.93 7.1 8.27 7.52 8.27C7.93 8.27 8.27 7.93 8.27 7.52C8.27 7.1 7.93 6.77 7.52 6.77ZM7.71 3.01C8.21 3.03 8.72 3.14 9.2 3.33L8.64 4.73C7.92 4.45 7.12 4.45 6.41 4.73L5.85 3.34C6.33 3.14 6.83 3.03 7.34 3.01C7.46 3.01 7.58 3.01 7.71 3.01Z"/>
</svg>