<svg xmlns="http://www.w3.org/2000/svg" viewBox="0 0 15 15">
  <path fill="param(fill) #888" stroke="param(outline) #000" stroke-width="param(outline-width) 0" fill-opacity="param(fill-opacity) 1" stroke-opacity="param(outline-opacity) 1" d="M11.41 0C13.43 -0.07 14.9 1.83 14.6 3.83C14.38 5.3 13.47 6.49 12.15 7.09L12.15 8.75L12.79 8.75C13.13 8.75 13.41 9.03 13.41 9.38C13.41 9.72 13.13 10 12.79 10L12.15 10L12.15 15L10.89 15L10.89 10L10.27 10C9.92 10 9.64 9.72 9.64 9.38C9.64 9.03 9.92 8.75 10.27 8.75L10.89 8.75L10.89 7.1C10.89 6.59 11.21 6.15 11.67 5.94C12.67 5.48 13.29 4.52 13.38 3.41C13.47 2.29 12.65 1.26 11.53 1.25C10.5 1.24 9.65 2.03 9.65 3C9.65 3.38 9.96 3.75 10.27 3.75C10.82 3.75 10.89 3.43 10.89 3.16L10.91 3.16C10.91 3.14 10.91 3.12 10.91 3.1C10.91 2.76 11.18 2.48 11.52 2.48C11.87 2.48 12.14 2.76 12.14 3.1C12.14 3.11 12.14 3.12 12.14 3.12L12.14 3.16L12.16 3.16C12.16 4.26 11.4 5 10.28 5C9.28 5 8.4 4.06 8.4 3C8.4 1.38 9.74 0.06 11.41 0ZM8.06 12.94L8.06 14.19L0.95 14.19L0.95 12.94L8.06 12.94ZM4.51 0.41C4.65 0.41 4.79 0.48 4.86 0.61L8.78 7.32C8.86 7.45 8.88 7.62 8.85 7.78L8.07 11.69L5.14 11.69L5.14 8.35L7.23 8.35L7.23 7.1L5.14 7.1L5.14 5.01L3.88 5.01L3.88 7.1L1.79 7.1L1.79 8.35L3.88 8.35L3.88 11.69L0.9 11.69L0.16 7.77C0.13 7.62 0.16 7.45 0.24 7.32L4.15 0.61C4.22 0.48 4.36 0.41 4.51 0.41Z"/>
</svg>