<?xml version="1.0" encoding="UTF-8"?>
<svg viewBox="0 0 15 15" version="1.1" xmlns="http://www.w3.org/2000/svg" xmlns:xlink="http://www.w3.org/1999/xlink">
  <path fill="param(fill) #888" stroke="param(outline) #000" stroke-width="param(outline-width) 0" fill-opacity="param(fill-opacity) 1" stroke-opacity="param(outline-opacity) 1" d="M0 0.5L0 15L14 15C14.25 15 14.25 14 14 14L12 14L12 9.5C12 9.25 11 9.25 11 9.5L11 13.52L7.5 11.85L7.5 7.5C7.5 7.25 6.5 7.25 6.5 7.5L6.5 11.38L3 9.7L3 5.5C3 5.25 2 5.25 2 5.5L2 9.23L1 8.75L1 0.5C1 0.25 0 0.25 0 0.5ZM1 9.75L2 10.2L2 14L1 14L1 9.75ZM3 10.7L6.5 12.35L6.5 14L3 14L3 10.7ZM7.5 12.85L9.9 14L7.5 14L7.5 12.85ZM12.5 12L14.75 12C15 12 15 13 14.75 13L12.5 13C12.25 13 12.25 12 12.5 12ZM8 10L10.25 10C10.5 10 10.5 11 10.25 11L8 11C7.75 11 7.75 10 8 10ZM3.5 8L5.75 8C6 8 6 9 5.75 9L3.5 9C3.25 9 3.25 8 3.5 8ZM10.5 8L13 8C13.25 8 13.25 9 13 9L10.5 9C10.25 9 10.25 8 10.5 8ZM6 6L8.5 6C8.75 6 8.75 7 8.5 7L6 7C5.75 7 5.75 6 6 6ZM1.5 4L4 4C4.25 4 4.25 5 4 5L1.5 5C1.25 5 1.25 4 1.5 4Z"/>
</svg>