<svg xmlns="http://www.w3.org/2000/svg" viewBox="0 0 15 15">
  <path fill="param(fill) #888" stroke="param(outline) #000" stroke-width="param(outline-width) 0" fill-opacity="param(fill-opacity) 1" stroke-opacity="param(outline-opacity) 1" d="M12.19 0.13c-2.37 -0.09 -6.39 2.53 -8.98 5.56c0.19 0.3 0.7 0.96 0.93 1.27c3.2 -3.78 8.08 -7.22 9.01 -4.49c0.82 2.39 -1.4 6.28 -3.9 9.53c6.27 -4.98 6.73 -11.73 2.94 -11.87zm-10.05 1.26c-5.21 0.17 3.73 14.42 10.28 13.47c2.32 -0.34 3.69 -3.33 1.39 -6.53c-0.25 0.45 -0.61 0.83 -0.92 1.25c1.22 2.23 0.56 3.6 -0.91 3.83c-5.32 0.84 -15.07 -12.42 -8.04 -11.61c0 0 -0.27 -0.34 -1.55 -0.4c-0.09 0 -0.18 0 -0.26 0zm8.36 3.11a1 1 0 0 0 -1 1a1 1 0 0 0 1 1a1 1 0 0 0 0.16 -0.01c0.23 0.28 0.41 0.53 0.66 0.88c0.29 -0.42 0.51 -0.84 0.65 -1.26c-0.18 -0.23 -0.32 -0.38 -0.48 -0.54a1 1 0 0 0 0 -0.07a1 1 0 0 0 -1 -1zm-3 1.5a1.5 1.5 0 0 0 -1.5 1.5a1.5 1.5 0 0 0 1.5 1.5a1.5 1.5 0 0 0 1.5 -1.5a1.5 1.5 0 0 0 -1.5 -1.5zm-6.06 2.09c-1.49 2.42 -2.24 5.26 0.27 6.03a1 1 0 0 0 0.79 0.38a1 1 0 0 0 1 -1a1 1 0 0 0 -1 -1a1 1 0 0 0 -0.62 0.21c-0.77 -0.6 -0.6 -1.67 0.44 -3.33l-0.88 -1.29z"/>
</svg>