<svg xmlns="http://www.w3.org/2000/svg" viewBox="0 0 15 15">
  <path fill="param(fill) #888" stroke="param(outline) #000" stroke-width="param(outline-width) 0" fill-opacity="param(fill-opacity) 1" stroke-opacity="param(outline-opacity) 1" d="M3 0C2.45 0 2 0.45 2 1V14C2 14.55 2.45 15 3 15H13V14L12.25 13.25L13 12.5V0.5C13 0.22 12.78 0 12.5 0ZM5.61 2.77C5.62 2.77 5.62 2.77 5.63 2.77C5.66 2.77 5.68 2.77 5.71 2.78L6.39 2.99C6.53 3.02 6.62 3.17 6.59 3.31L6.35 4.19H6.34L5.14 3.84L5.37 2.96C5.4 2.85 5.5 2.78 5.61 2.77ZM7.74 4.1C8.84 4.1 9.22 4.48 9.22 5.58C8.1 5.58 7.74 5.22 7.74 4.1ZM4.96 4.57L6.1 4.93L5.22 8.35C5.21 8.4 5.19 8.44 5.15 8.48L4.36 9.21C4.31 9.25 4.25 9.23 4.23 9.17L4.01 8.13C4 8.1 4 8.05 4.01 8ZM7.75 6.24C8.02 6.24 8.29 6.43 8.51 6.58C8.68 6.7 8.89 6.7 9.05 6.58C9.26 6.43 9.51 6.24 9.77 6.24C10.15 6.24 10.58 6.48 10.78 6.83C11.53 8.16 10.3 10.14 9.34 9.99C9.29 9.98 9.25 9.97 9.21 9.95C8.9 9.67 8.68 9.67 8.37 9.95C8.33 9.97 8.29 9.98 8.25 9.99L8.24 9.98C7.57 10.09 6.9 9.24 6.71 8.21L7.14 6.5C7.34 6.34 7.49 6.24 7.75 6.24ZM3 12.5H12L11.25 13.25L12 14H3Z"/>
</svg>