<svg xmlns="http://www.w3.org/2000/svg" viewBox="0 0 15 15">
  <path fill="param(fill) #888" stroke="param(outline) #000" stroke-width="param(outline-width) 0" fill-opacity="param(fill-opacity) 1" stroke-opacity="param(outline-opacity) 1" d="M3 0C2.45 0 2 0.45 2 1L2 14C2 14.55 2.45 15 3 15L13 15L13 14L12.25 13.25L13 12.5L13 0.5C13 0.22 12.78 0 12.5 0L3 0ZM10.21 2.5L11 2.5L11 3.29C11 4.45 10.2 6.01 8.83 7.06L8.83 7.93C8.83 8.56 8.36 8.92 7.86 9.17L7.2 9.5L7.2 8.72L7.2 7.93L6.38 7.12L5.57 6.3L4.78 6.3L4 6.3L4.33 5.64C4.58 5.14 4.94 4.67 5.57 4.67L6.44 4.67C7.49 3.3 9.05 2.5 10.21 2.5ZM8.8 3.89A0.75 0.75 0 0 0 8.05 4.64A0.75 0.75 0 0 0 8.8 5.39A0.75 0.75 0 0 0 9.55 4.64A0.75 0.75 0 0 0 8.8 3.89ZM5.3 7.39L6.11 8.2L5.84 8.47C5.41 8.91 4.48 9.02 4.48 9.02C4.48 9.02 4.64 8.05 5.03 7.66L5.3 7.39ZM3 12.5L12 12.5L11.25 13.25L12 14L3 14L3 12.5Z"/>
</svg>