<svg xmlns="http://www.w3.org/2000/svg" viewBox="0 0 15 15">
  <path fill="param(fill) #888" stroke="param(outline) #000" stroke-width="param(outline-width) 0" fill-opacity="param(fill-opacity) 1" stroke-opacity="param(outline-opacity) 1" d="M3 0C2.45 0 2 0.45 2 1L2 14C2 14.55 2.45 15 3 15L13 15L13 14L12.25 13.25L13 12.5L13 0.5C13 0.22 12.78 0 12.5 0L3 0ZM6.63 2C7.24 2 7.14 3.71 7.09 4.14C7.05 4.59 6.75 4.95 6.35 5.02C4.94 5.26 4.82 2.31 6.57 2.01C6.59 2 6.61 2 6.63 2ZM8.37 2C8.38 2 8.41 2 8.43 2.01C10.18 2.31 10.05 5.26 8.65 5.02C8.25 4.95 7.95 4.59 7.9 4.14C7.86 3.71 7.75 2 8.37 2ZM4.37 5.06C4.61 5.04 5.2 5.55 5.41 5.81C5.54 5.96 5.63 6.18 5.63 6.41C5.63 6.89 5.29 7.27 4.88 7.27C4.56 7.27 4.29 7.05 4.17 6.73C3.96 6.17 3.95 5.4 4.31 5.09C4.32 5.07 4.34 5.07 4.37 5.06ZM10.61 5.06C10.64 5.06 10.67 5.07 10.69 5.09C11.05 5.4 11.04 6.17 10.83 6.73C10.71 7.05 10.44 7.27 10.12 7.27C9.71 7.27 9.37 6.89 9.37 6.41C9.37 6.18 9.46 5.96 9.59 5.81C9.78 5.56 10.35 5.08 10.61 5.06ZM7.5 5.47C7.99 5.47 8.4 5.8 8.51 6.25C8.66 6.81 8.64 7.43 9.28 7.74C9.84 7.94 10.06 8.18 10.06 8.83C10.06 9.35 9.61 9.9 9.04 9.97C8.4 10.06 7.91 9.94 7.5 9.71C7.09 9.94 6.6 10.06 5.96 9.97C5.39 9.9 4.94 9.34 4.94 8.83C4.94 8.19 5.17 7.92 5.74 7.74C6.43 7.38 6.34 6.76 6.49 6.22C6.62 5.79 7.02 5.47 7.5 5.47ZM3 12.5L12 12.5L11.25 13.25L12 14L3 14L3 12.5Z"/>
</svg>