<svg xmlns="http://www.w3.org/2000/svg" viewBox="0 0 15 15">
  <path fill="param(fill) #888" stroke="param(outline) #000" stroke-width="param(outline-width) 0" fill-opacity="param(fill-opacity) 1" stroke-opacity="param(outline-opacity) 1" d="M3 0C2.45 0 2 0.45 2 1V14C2 14.55 2.45 15 3 15H13V14L12.25 13.25L13 12.5V0.5C13 0.22 12.78 0 12.5 0ZM7.5 2.97L11.1 4.6L7.5 6.23L5.4 5.25V5.91C5.68 6.01 5.67 6.24 5.67 6.57C5.67 6.89 5.68 7.13 5.4 7.27L5.72 8.15C5.86 8.57 5.67 9.13 5.17 9.13C4.64 9.13 4.47 8.57 4.61 8.15L4.93 7.27C4.78 7.18 4.67 7.19 4.67 6.57C4.67 6.29 4.65 6.01 4.93 5.91V5.02L3.9 4.6ZM9.55 6.1V7.5C9.55 7.97 8.99 8.8 7.45 8.8C6.99 8.8 6.71 8.71 6.39 8.57C6.44 8.16 6.28 7.79 6.16 7.41C6.39 7.17 6.33 6.89 6.33 6.57V6.52L7.45 7.03ZM3 12.5H12L11.25 13.25L12 14H3Z"/>
</svg>