<svg xmlns="http://www.w3.org/2000/svg" viewBox="0 0 15 15">
  <path fill="param(fill) #888" stroke="param(outline) #000" stroke-width="param(outline-width) 0" fill-opacity="param(fill-opacity) 1" stroke-opacity="param(outline-opacity) 1" d="M6.5 12L6.5 15L5 14L3.5 15L3.5 12L6.5 12ZM12.5 0C12.78 0 13 0.22 13 0.5L13 11.5L12.25 12.25L13 13L13 14L7 14L7 13L12 13L11.25 12.25L12 11.5L3 11.5L3 14C2.45 14 2 13.55 2 13L2 1C2 0.45 2.45 0 3 0L12.5 0ZM10.5 5L4.5 5C4.22 5 4 5.22 4 5.5C4 5.78 4.22 6 4.5 6L10.5 6C10.78 6 11 5.78 11 5.5C11 5.22 10.78 5 10.5 5ZM10.5 3L4.5 3C4.22 3 4 3.22 4 3.5C4 3.78 4.22 4 4.5 4L10.5 4C10.78 4 11 3.78 11 3.5C11 3.22 10.78 3 10.5 3Z"/>
</svg>