<svg xmlns="http://www.w3.org/2000/svg" viewBox="0 0 15 15">
  <path fill="param(fill) #888" stroke="param(outline) #000" stroke-width="param(outline-width) 0" fill-opacity="param(fill-opacity) 1" stroke-opacity="param(outline-opacity) 1" d="M3 0C2.45 0 2 0.45 2 1V14C2 14.55 2.45 15 3 15H13V14L12.25 13.25L13 12.5V0.5C13 0.22 12.78 0 12.5 0ZM7.5 2.5C8 2.5 8 3 8 3L9.88 3.5V4L11 6.5C11 7 10.61 7.5 9.75 7.5C8.89 7.5 8.5 7 8.5 6.5L9.62 4H8V9H10L10.5 9.5H4.5L5 9H7V4H5.38L6.5 6.5C6.5 7 6.1 7.5 5.25 7.5C4.4 7.5 4 7 4 6.5L5.12 4V3.5L7 3C7 3 7 2.5 7.5 2.5ZM5.25 4.5L4.67 6.5H5.82ZM9.75 4.5L9.18 6.5H10.33ZM3 12.5H12L11.25 13.25L12 14H3Z"/>
</svg>