<svg xmlns="http://www.w3.org/2000/svg" viewBox="0 0 15 15">
  <path fill="param(fill) #888" stroke="param(outline) #000" stroke-width="param(outline-width) 0" fill-opacity="param(fill-opacity) 1" stroke-opacity="param(outline-opacity) 1" d="M3 0C2.45 0 2 0.45 2 1L2 14C2 14.55 2.45 15 3 15L13 15L13 14L12.25 13.25L13 12.5L13 0.5C13 0.22 12.78 0 12.5 0L3 0ZM7.93 2.54L8.1 2.57C9.31 2.78 10.31 3.63 10.73 4.77C10.84 5.06 10.9 5.34 10.93 5.64C10.99 6.44 10.73 7.22 10.27 7.88L10.58 7.88C10.81 7.88 11 8.06 11 8.29L11 8.6C11 8.83 10.81 9.01 10.58 9.01L8.59 9.01C8.46 9.01 8.34 8.9 8.34 8.76L8.34 6.78C8.34 6.55 8.53 6.36 8.76 6.37L9.08 6.37C9.31 6.37 9.49 6.55 9.49 6.78L9.49 6.88C9.75 6.35 9.87 5.75 9.66 5.16C9.38 4.4 8.7 3.84 7.9 3.69L7.73 3.66L7.93 2.54ZM4.42 2.86L6.41 2.87C6.54 2.87 6.66 2.98 6.66 3.12L6.66 5.1C6.66 5.33 6.47 5.51 6.24 5.51L5.92 5.51C5.69 5.51 5.51 5.32 5.51 5.1L5.51 4.99C5.25 5.53 5.13 6.12 5.34 6.71C5.62 7.48 6.3 8.04 7.1 8.18L7.27 8.21L7.07 9.34L6.89 9.31C5.69 9.09 4.69 8.25 4.27 7.1C3.88 6.04 4.13 4.9 4.75 4.01L4.42 4.01C4.19 4.01 4 3.82 4 3.59L4 3.27C4 3.05 4.19 2.86 4.42 2.86ZM3 12.5L12 12.5L11.25 13.25L12 14L3 14L3 12.5Z"/>
</svg>