<svg xmlns="http://www.w3.org/2000/svg" viewBox="0 0 15 15">
  <path fill="param(fill) #888" stroke="param(outline) #000" stroke-width="param(outline-width) 0" fill-opacity="param(fill-opacity) 1" stroke-opacity="param(outline-opacity) 1" d="M3 0C2.45 0 2 0.45 2 1L2 14C2 14.55 2.45 15 3 15L13 15L13 14L12.25 13.25L13 12.5L13 0.5C13 0.22 12.78 0 12.5 0L3 0ZM7.5 2C8.03 2 8.5 2.47 8.5 3C8.5 3.53 8.03 4 7.5 4C6.97 4 6.5 3.53 6.5 3C6.5 2.47 6.97 2 7.5 2ZM5.17 4.67L7.83 4.67C8.17 4.67 8.5 5 8.5 5.33L8.5 8C8.5 9.33 9.83 9.33 9.83 9.33L9.83 10L5.17 10L5.17 9.33C5.17 9.33 6.5 9.33 6.5 8L6.5 6.67C6.5 5.33 5.17 5.33 5.17 5.33L5.17 4.67ZM3 12.5L12 12.5L11.25 13.25L12 14L3 14L3 12.5Z"/>
</svg>