<svg xmlns="http://www.w3.org/2000/svg" viewBox="0 0 15 15">
  <path fill="param(fill) #888" stroke="param(outline) #000" stroke-width="param(outline-width) 0" fill-opacity="param(fill-opacity) 1" stroke-opacity="param(outline-opacity) 1" d="M9 7.5C9.67 8.97 10 10.29 10 11.47C10 12.65 9.67 13.82 9 15L6 15C5.33 13.82 5 12.65 5 11.47C5 10.29 5.33 8.97 6 7.5ZM4 6.5C4.34 7.24 4.59 7.95 4.76 8.62C4.42 9.63 4.25 10.58 4.25 11.47C4.25 12.02 4.31 12.56 4.44 13.11C4.32 13.4 4.17 13.7 4 14L1 14C0.33 12.82 0 11.65 0 10.47C0 9.29 0.33 7.97 1 6.5L4 6.5ZM14 6.5C14.67 7.97 15 9.29 15 10.47C15 11.65 14.67 12.82 14 14L11 14C10.83 13.7 10.68 13.4 10.56 13.11C10.69 12.56 10.75 12.02 10.75 11.47L10.74 11.17C10.71 10.37 10.54 9.52 10.25 8.62C10.41 7.95 10.66 7.24 11 6.5L14 6.5ZM9 6L9 7L6 7L6 6L9 6ZM4 5L4 6L1 6L1 5L4 5ZM14 5L14 6L11 6L11 5L14 5ZM7.5 1C8.06 1 8.48 1.17 8.78 1.5L8.86 1.6C9.38 2.29 9.42 3.59 9 5.5L6 5.5C5.33 2.5 5.83 1 7.5 1ZM2.5 0C4.17 0 4.67 1.5 4 4.5L1 4.5C0.33 1.5 0.83 0 2.5 0ZM12.5 0C14.17 0 14.67 1.5 14 4.5L11 4.5C10.33 1.5 10.83 0 12.5 0Z"/>
</svg>