<svg xmlns="http://www.w3.org/2000/svg" viewBox="0 0 15 15">
  <path fill="param(fill) #888" stroke="param(outline) #000" stroke-width="param(outline-width) 0" fill-opacity="param(fill-opacity) 1" stroke-opacity="param(outline-opacity) 1" d="M13 6.5C13.67 8.17 14 9.67 14 11C14 12.33 13.67 13.67 13 15L10 15C9.64 14.29 9.38 13.57 9.22 12.86C9.56 12.17 9.75 11.38 9.75 10.56C9.75 9.85 9.61 9.16 9.34 8.52C9.5 7.87 9.72 7.2 10 6.5ZM13 5L13 6L10 6L10 5L13 5ZM11.5 0C13.17 0 13.67 1.5 13 4.5L10 4.5C9.33 1.5 9.83 0 11.5 0ZM4.5 6.06C5.69 6.06 6.84 6.53 7.68 7.38C8.53 8.22 9 9.37 9 10.56C9 13.04 6.99 15.06 4.5 15.06C2.01 15.06 0 13.04 0 10.56C0 9.37 0.47 8.22 1.32 7.38C2.16 6.53 3.31 6.06 4.5 6.06ZM3.5 9.5C2.95 9.5 2.5 9.95 2.5 10.5C2.5 11.05 2.95 11.5 3.5 11.5C4.05 11.5 4.5 11.05 4.5 10.5C4.5 9.95 4.05 9.5 3.5 9.5ZM6.5 9C5.95 9 5.5 9.45 5.5 10C5.5 10.55 5.95 11 6.5 11C7.05 11 7.5 10.55 7.5 10C7.5 9.45 7.05 9 6.5 9ZM4.5 7C3.95 7 3.5 7.45 3.5 8C3.5 8.55 3.95 9 4.5 9C5.05 9 5.5 8.55 5.5 8C5.5 7.45 5.05 7 4.5 7Z"/>
</svg>