<svg xmlns="http://www.w3.org/2000/svg" viewBox="0 0 15 15">
  <path fill="param(fill) #888" stroke="param(outline) #000" stroke-width="param(outline-width) 0" fill-opacity="param(fill-opacity) 1" stroke-opacity="param(outline-opacity) 1" d="M5.63 0.01C4.37 0.1 3.36 1.31 3.46 2.56C3.47 3.03 3.44 3.5 3.48 3.96C3.69 4.42 4.35 4.06 4.72 4.3C5.69 4.56 6.15 5.64 6.08 6.57C6.05 6.84 6.18 7.23 5.83 7.34C5.37 7.46 5.34 6.93 5.38 6.62C5.41 6.03 5.33 5.37 4.78 5.04C4 4.51 2.76 4.92 2.56 5.87C2.47 6.6 2.53 7.34 2.52 8.07C2.47 9.38 3.66 10.56 4.97 10.49C6.75 10.48 8.53 10.51 10.31 10.48C11.59 10.39 12.6 9.16 12.48 7.89C12.48 6 12.5 4.1 12.47 2.21C12.39 1 11.27 0 9.92 0.01C8.57 0.01 7.1 -0.02 5.63 0.01ZM4.04 11.61V15H10.81V11.61Z"/>
</svg>