<?xml version="1.0" encoding="UTF-8"?>
<svg viewBox="0 0 15 15" version="1.1" xmlns="http://www.w3.org/2000/svg" xmlns:xlink="http://www.w3.org/1999/xlink">
  <path fill="param(fill) #888" stroke="param(outline) #000" stroke-width="param(outline-width) 0" fill-opacity="param(fill-opacity) 1" stroke-opacity="param(outline-opacity) 1" d="M4.95 9.82L5.59 9.06L6.74 10.02C6.96 10.2 7.27 10.17 7.45 9.96L7.95 9.36L11.35 9.97L14.85 1.62C14.94 1.42 14.88 1.18 14.71 1.04L14.2 0.62C14.04 0.48 13.8 0.46 13.61 0.58L5.99 5.47L7.19 8.72L7 8.94L5.85 7.97C5.64 7.79 5.33 7.82 5.15 8.03L4.19 9.18C3.97 9 3.66 9.03 3.48 9.24L0.27 13.07C0.09 13.29 0.12 13.6 0.33 13.78L1.1 14.42C1.31 14.6 1.62 14.57 1.8 14.36L5.01 10.53C5.17 10.34 5.16 10.07 5.01 9.88L4.95 9.82ZM9.82 8.68L9.96 6.19L7.53 6.76L7.21 5.88L13.74 1.69L10.74 8.85L9.82 8.68Z"/>
</svg>