<svg xmlns="http://www.w3.org/2000/svg" viewBox="0 0 15 15">
  <path fill="param(fill) #888" stroke="param(outline) #000" stroke-width="param(outline-width) 0" fill-opacity="param(fill-opacity) 1" stroke-opacity="param(outline-opacity) 1" d="M7.74 0C8.43 0 8.99 0.56 8.99 1.25C9.18 1.07 9.42 0.97 9.68 0.94C10.34 0.88 10.93 1.37 10.99 2.03C11.08 2 11.18 1.98 11.28 1.97C11.93 1.96 12.47 2.46 12.53 3.11C13.15 3.4 13.54 4.03 13.53 4.72C13.54 5.41 13.15 6.03 12.53 6.33L12.53 6.49C12.53 6.61 12.52 6.74 12.49 6.86C12.3 7.66 11.5 8.16 10.7 7.97C9.62 8.39 8.66 9.08 7.93 9.97L7.9 10.79C7.77 10.77 7.64 10.75 7.5 10.75C7.03 10.75 6.58 10.9 6.21 11.18C6.2 10.98 6.2 10.72 6.2 10.46L6.2 9.75L6.18 6.97C5.94 6.94 5.71 6.84 5.53 6.68C5.44 7.23 5.05 7.69 4.51 7.87C3.73 8.12 2.89 7.69 2.64 6.91C2.14 6.77 1.74 6.38 1.6 5.88C1.38 5.08 1.84 4.26 2.64 4.04C2.56 3.85 2.52 3.66 2.52 3.46C2.53 2.63 3.21 1.96 4.04 1.97C4.2 1.97 4.37 1.99 4.53 2.04C4.56 1.81 4.66 1.6 4.81 1.43C5.25 0.92 6.02 0.86 6.53 1.3C6.53 1.27 6.49 1.25 6.49 1.25C6.49 0.56 7.05 0 7.74 0ZM7.93 5.79L7.93 9.23C8.55 8.59 9.29 8.06 10.11 7.69C9.76 7.42 9.55 7.01 9.54 6.57L9.26 6.57C8.7 6.57 8.2 6.27 7.93 5.79ZM6.3 13.56L6.61 13.31C6.86 13.11 7.18 13 7.5 13C7.82 13 8.14 13.11 8.39 13.31L8.7 13.56C9.06 13.84 9.5 14 9.95 14L10.05 14C10.5 14 10.94 13.84 11.3 13.56L11.61 13.31C11.86 13.11 12.18 13 12.5 13C12.82 13 13.14 13.11 13.39 13.31L13.71 13.56C14.01 13.81 14.39 13.96 14.78 13.99L15 14L15 12.5L14.95 12.5C14.49 12.5 14.06 12.35 13.71 12.07L13.39 11.81C13.14 11.61 12.82 11.5 12.5 11.5C12.18 11.5 11.86 11.61 11.61 11.81L11.3 12.06C10.94 12.35 10.5 12.5 10.05 12.5L9.95 12.5C9.5 12.5 9.06 12.35 8.7 12.06L8.39 11.81C8.14 11.61 7.82 11.5 7.5 11.5C7.18 11.5 6.86 11.61 6.61 11.81L6.3 12.06C5.94 12.35 5.5 12.5 5.05 12.5L4.95 12.5C4.5 12.5 4.06 12.35 3.7 12.06L3.39 11.81C3.14 11.61 2.82 11.5 2.5 11.5C2.18 11.5 1.86 11.61 1.61 11.81L1.29 12.07C0.99 12.31 0.61 12.46 0.22 12.5L0 12.5L0 14L0.05 14C0.51 14 0.94 13.84 1.29 13.56L1.61 13.31C1.86 13.11 2.18 13 2.5 13C2.82 13 3.14 13.11 3.39 13.31L3.7 13.56C4.06 13.84 4.5 14 4.95 14L5.05 14C5.5 14 5.94 13.84 6.3 13.56Z"/>
</svg>