<svg xmlns="http://www.w3.org/2000/svg" viewBox="0 0 15 15">
  <path fill="param(fill) #888" stroke="param(outline) #000" stroke-width="param(outline-width) 0" fill-opacity="param(fill-opacity) 1" stroke-opacity="param(outline-opacity) 1" d="M7.5 0.5C8.05 0.5 8.5 0.95 8.5 1.5C8.5 1.92 8.24 2.28 7.88 2.43L9.25 5.75L12.52 6.33C12.6 5.86 13.01 5.5 13.5 5.5C14.05 5.5 14.5 5.95 14.5 6.5C14.5 7.05 14.05 7.5 13.5 7.5C13.18 7.5 12.89 7.35 12.71 7.11L10.25 9L11.23 12.54C11.32 12.51 11.41 12.5 11.5 12.5C12.05 12.5 12.5 12.95 12.5 13.5C12.5 14.05 12.05 14.5 11.5 14.5C10.95 14.5 10.5 14.05 10.5 13.5C10.5 13.32 10.55 13.15 10.63 13.01L7.5 11.25L4.37 13.01C4.45 13.15 4.5 13.32 4.5 13.5C4.5 14.05 4.05 14.5 3.5 14.5C2.95 14.5 2.5 14.05 2.5 13.5C2.5 12.95 2.95 12.5 3.5 12.5C3.59 12.5 3.68 12.51 3.77 12.54L4.75 9L2.29 7.11C2.11 7.35 1.82 7.5 1.5 7.5C0.95 7.5 0.5 7.05 0.5 6.5C0.5 5.95 0.95 5.5 1.5 5.5C1.99 5.5 2.4 5.86 2.48 6.33L5.75 5.75L7.12 2.42C6.76 2.27 6.5 1.92 6.5 1.5C6.5 0.95 6.95 0.5 7.5 0.5Z"/>
</svg>