<svg xmlns="http://www.w3.org/2000/svg" viewBox="0 0 15 15">
  <path fill="param(fill) #888" stroke="param(outline) #000" stroke-width="param(outline-width) 0" fill-opacity="param(fill-opacity) 1" stroke-opacity="param(outline-opacity) 1" d="M13.1 10.34C11.09 13.25 9.22 14.69 7.51 14.69C5.79 14.69 3.92 13.25 1.91 10.34L1.91 10.34C1.23 9.35 1.07 8.07 1.51 6.93C1.84 6.08 2 5.41 2 4.9C2 3.67 3.65 0 7.51 0C11.95 0 13.01 3.67 13.01 4.9C13.01 5.41 13.17 6.08 13.5 6.93L13.5 6.93C13.94 8.07 13.78 9.35 13.1 10.34ZM4.49 3.38L5.46 5.74C5.56 5.97 5.78 6.12 6.02 6.12L8.99 6.12C9.23 6.12 9.45 5.97 9.55 5.74L10.52 3.38C10.6 3.17 10.57 2.94 10.43 2.77C9.64 1.74 8.66 1.22 7.51 1.22C6.35 1.22 5.37 1.74 4.58 2.77L4.58 2.77C4.44 2.94 4.41 3.17 4.49 3.38ZM7.51 13.47C8.18 13.47 8.73 12.91 8.73 12.24C8.73 11.57 8.18 11.02 7.51 11.02C6.83 11.02 6.28 11.57 6.28 12.24C6.28 12.91 6.83 13.47 7.51 13.47Z"/>
</svg>