<svg xmlns="http://www.w3.org/2000/svg" viewBox="0 0 15 15">
  <path fill="param(fill) #888" stroke="param(outline) #000" stroke-width="param(outline-width) 0" fill-opacity="param(fill-opacity) 1" stroke-opacity="param(outline-opacity) 1" d="M7.5 11C7.82 11 8.14 11.11 8.39 11.31L8.7 11.56C9.06 11.85 9.5 12 9.95 12L10.05 12C10.5 12 10.94 11.85 11.3 11.56L11.61 11.31C11.86 11.11 12.18 11 12.5 11C12.82 11 13.14 11.11 13.39 11.31L13.71 11.57C14.01 11.81 14.39 11.96 14.78 12L15 12L15 13.5L14.95 13.5C14.49 13.5 14.06 13.34 13.71 13.06L13.39 12.81C13.14 12.61 12.82 12.5 12.5 12.5C12.18 12.5 11.86 12.61 11.61 12.81L11.3 13.06C10.94 13.34 10.5 13.5 10.05 13.5L9.95 13.5C9.5 13.5 9.06 13.34 8.7 13.06L8.39 12.81C8.14 12.61 7.82 12.5 7.5 12.5C7.18 12.5 6.86 12.61 6.61 12.81L6.3 13.06C5.94 13.34 5.5 13.5 5.05 13.5L4.95 13.5C4.5 13.5 4.06 13.34 3.7 13.06L3.39 12.81C3.14 12.61 2.82 12.5 2.5 12.5C2.18 12.5 1.86 12.61 1.61 12.81L1.29 13.06C0.94 13.34 0.51 13.5 0.05 13.5L0 13.5L0 12L0.05 12C0.51 12 0.94 11.85 1.29 11.57L1.61 11.31C1.86 11.11 2.18 11 2.5 11C2.82 11 3.14 11.11 3.39 11.31L3.7 11.56C4.06 11.85 4.5 12 4.95 12L5.05 12C5.5 12 5.94 11.85 6.3 11.56L6.61 11.31C6.86 11.11 7.18 11 7.5 11ZM10 0.2C10.8 0.42 11.28 1.24 11.06 2.04L10.93 2.52L11.42 2.65C11.68 2.73 11.84 3 11.77 3.27C11.7 3.53 11.43 3.69 11.16 3.62L10.68 3.49L10.35 8.58C11.1 8.78 11.64 9.39 11.79 10.11C11.5 10.2 11.23 10.34 10.98 10.53L10.67 10.78C10.5 10.92 10.28 11 10.05 11L9.95 11C9.72 11 9.5 10.92 9.33 10.78L9.01 10.53C8.58 10.19 8.05 10 7.5 10C6.95 10 6.42 10.19 5.99 10.53L5.67 10.78C5.5 10.92 5.28 11 5.05 11L4.95 11C4.72 11 4.5 10.92 4.33 10.78L4.01 10.53C3.78 10.34 3.5 10.2 3.22 10.11C3 9.69 2.94 9.19 3.07 8.7C3.35 7.63 4.45 7 5.52 7.28L7.78 2.71L7.3 2.58C7.03 2.51 6.87 2.24 6.94 1.97C7.01 1.71 7.29 1.55 7.55 1.62L8.04 1.75L8.17 1.27C8.38 0.46 9.2 -0.01 10 0.2ZM8.74 2.97L6.48 7.54L7.93 7.93L9.23 3.1L8.74 2.97Z"/>
</svg>