<svg xmlns="http://www.w3.org/2000/svg" viewBox="0 0 15 15">
  <path fill="param(fill) #888" stroke="param(outline) #000" stroke-width="param(outline-width) 0" fill-opacity="param(fill-opacity) 1" stroke-opacity="param(outline-opacity) 1" d="M7.5 0C11.64 0 15 3.36 15 7.5C15 11.64 11.64 15 7.5 15C3.36 15 0 11.64 0 7.5C0 3.36 3.36 0 7.5 0ZM7.5 1C3.91 1 1 3.91 1 7.5C1 11.09 3.91 14 7.5 14C11.09 14 14 11.09 14 7.5C14 3.91 11.09 1 7.5 1ZM7.5 2C10.54 2 13 4.46 13 7.5C13 10.54 10.54 13 7.5 13C4.46 13 2 10.54 2 7.5C2 4.46 4.46 2 7.5 2ZM5.5 8.5C4.95 8.5 4.5 8.95 4.5 9.5C4.5 10.05 4.95 10.5 5.5 10.5C6.05 10.5 6.5 10.05 6.5 9.5C6.5 8.95 6.05 8.5 5.5 8.5ZM9.5 8.5C8.95 8.5 8.5 8.95 8.5 9.5C8.5 10.05 8.95 10.5 9.5 10.5C10.05 10.5 10.5 10.05 10.5 9.5C10.5 8.95 10.05 8.5 9.5 8.5ZM5.5 4.5C4.95 4.5 4.5 4.95 4.5 5.5C4.5 6.05 4.95 6.5 5.5 6.5C6.05 6.5 6.5 6.05 6.5 5.5C6.5 4.95 6.05 4.5 5.5 4.5ZM9.5 4.5C8.95 4.5 8.5 4.95 8.5 5.5C8.5 6.05 8.95 6.5 9.5 6.5C10.05 6.5 10.5 6.05 10.5 5.5C10.5 4.95 10.05 4.5 9.5 4.5Z"/>
</svg>