<svg xmlns="http://www.w3.org/2000/svg" viewBox="0 0 15 15">
  <path fill="param(fill) #888" stroke="param(outline) #000" stroke-width="param(outline-width) 0" fill-opacity="param(fill-opacity) 1" stroke-opacity="param(outline-opacity) 1" d="M5.61 0.52C5.52 0.55 5.45 0.63 5.44 0.72C5.42 0.81 5.46 0.9 5.54 0.95C6.19 1.41 6.63 2.3 6.88 3.09C6.98 3.4 7.04 3.67 7.09 3.9C6.79 4.09 6.5 4.41 6.5 4.55L6.54 5.66C6.49 5.48 6.43 5.3 6.36 5.12C5.6 3.14 4.07 2.13 2.78 2.01C2.59 1.99 2.41 1.99 2.24 2.01C-1.41 2.41 0.19 5.79 1.21 7.02L1.26 7.08C1.82 7.73 2.6 8.77 3.41 9.49C3.26 9.58 3.1 9.68 2.96 9.81C1.8 10.78 1.49 12.31 2.26 13.23C3.03 14.14 4.59 14.1 5.75 13.13C6.25 12.7 6.58 12.17 6.75 11.63L6.78 12.64C6.77 13.53 8.07 13.56 8.15 12.73L8.19 11.63C8.35 12.17 8.68 12.7 9.19 13.13C10.34 14.1 11.9 14.14 12.67 13.23C13.44 12.31 13.13 10.78 11.97 9.81C11.83 9.69 11.67 9.58 11.52 9.49C12.25 8.84 12.95 7.94 13.5 7.29L13.67 7.08C14.69 5.9 16.4 2.42 12.69 2.01C12.52 1.99 12.34 1.99 12.16 2.01C10.86 2.13 9.33 3.14 8.57 5.12C8.5 5.3 8.44 5.49 8.39 5.67L8.43 4.51C8.43 4.39 8.19 4.13 7.91 3.95C8.03 3.67 8.17 3.35 8.36 2.99C8.81 2.13 9.48 1.18 10.29 0.76C10.41 0.69 10.46 0.55 10.39 0.43C10.33 0.32 10.19 0.27 10.07 0.33C9.1 0.84 8.41 1.87 7.93 2.76C7.66 3.29 7.63 3.43 7.52 3.74L7.45 3.36C7.43 3.26 7.4 3.14 7.34 2.94C7.07 2.11 6.62 1.12 5.81 0.56C5.77 0.53 5.71 0.51 5.66 0.52L5.61 0.52ZM3.13 3.36L3.4 4.38L4.4 4.74L3.51 5.31L3.47 6.37L2.65 5.7L1.64 5.99L2.02 5.01L1.43 4.13L2.49 4.19L3.13 3.36ZM11.8 3.36L12.45 4.19L13.51 4.13L12.91 5.01L13.3 5.99L12.28 5.7L11.47 6.37L11.43 5.31L10.54 4.74L11.53 4.38L11.8 3.36ZM4.84 6.51C4.92 6.48 5 6.46 5.09 6.46C5.45 6.46 5.73 6.75 5.73 7.1C5.73 7.45 5.45 7.74 5.09 7.74C4.74 7.74 4.45 7.45 4.45 7.1C4.45 6.84 4.61 6.61 4.84 6.51ZM9.59 6.51C9.67 6.48 9.75 6.46 9.84 6.46C10.19 6.46 10.48 6.75 10.48 7.1C10.48 7.45 10.2 7.74 9.84 7.74C9.49 7.74 9.2 7.45 9.2 7.1C9.2 6.84 9.36 6.61 9.59 6.51ZM4.06 10.81C4.11 10.8 4.17 10.79 4.23 10.79C4.71 10.79 5.09 11.18 5.09 11.66C5.09 12.13 4.71 12.52 4.23 12.52C3.75 12.52 3.37 12.13 3.37 11.66C3.37 11.24 3.66 10.89 4.06 10.81ZM10.53 10.81C10.58 10.8 10.64 10.79 10.7 10.79C11.18 10.79 11.56 11.18 11.56 11.66C11.56 12.13 11.18 12.52 10.7 12.52C10.23 12.52 9.84 12.13 9.84 11.66C9.84 11.24 10.14 10.89 10.53 10.81Z"/>
</svg>