<svg xmlns="http://www.w3.org/2000/svg" viewBox="0 0 15 15">
  <path fill="param(fill) #888" stroke="param(outline) #000" stroke-width="param(outline-width) 0" fill-opacity="param(fill-opacity) 1" stroke-opacity="param(outline-opacity) 1" d="M5.61 0.52C5.52 0.55 5.45 0.63 5.44 0.72C5.42 0.81 5.46 0.9 5.54 0.95C6.19 1.41 6.63 2.3 6.88 3.09C6.98 3.4 7.04 3.67 7.09 3.9C6.79 4.09 6.5 4.41 6.5 4.55L6.54 5.66C6.49 5.48 6.43 5.3 6.36 5.12C5.6 3.14 4.07 2.13 2.78 2.01C2.59 1.99 2.41 1.99 2.24 2.01C-1.41 2.41 0.19 5.79 1.21 7.02L1.26 7.08C1.82 7.73 2.6 8.77 3.41 9.49C3.26 9.58 3.1 9.68 2.96 9.81C1.8 10.78 1.49 12.31 2.26 13.23C3.03 14.14 4.59 14.1 5.75 13.13C6.25 12.7 6.58 12.17 6.75 11.63L6.78 12.64C6.77 13.53 8.07 13.56 8.15 12.73L8.19 11.63C8.35 12.17 8.68 12.7 9.19 13.13C10.34 14.1 11.9 14.14 12.67 13.23C13.44 12.31 13.13 10.78 11.97 9.81C11.83 9.69 11.67 9.58 11.52 9.49C12.25 8.84 12.95 7.94 13.5 7.29L13.67 7.08C14.69 5.9 16.4 2.42 12.69 2.01C12.52 1.99 12.34 1.99 12.16 2.01C10.86 2.13 9.33 3.14 8.57 5.12C8.5 5.3 8.44 5.49 8.39 5.67L8.43 4.51C8.43 4.39 8.19 4.13 7.91 3.95C8.03 3.67 8.17 3.35 8.36 2.99C8.81 2.13 9.48 1.18 10.29 0.76C10.41 0.69 10.46 0.55 10.39 0.43C10.33 0.32 10.19 0.27 10.07 0.33C9.1 0.84 8.41 1.87 7.93 2.76C7.66 3.29 7.63 3.43 7.52 3.74L7.45 3.36C7.43 3.26 7.4 3.14 7.34 2.94C7.07 2.11 6.62 1.12 5.81 0.56C5.77 0.53 5.71 0.51 5.66 0.52L5.61 0.52Z"/>
</svg>