<svg xmlns="http://www.w3.org/2000/svg" viewBox="0 0 15 15">
  <path fill="param(fill) #888" stroke="param(outline) #000" stroke-width="param(outline-width) 0" fill-opacity="param(fill-opacity) 1" stroke-opacity="param(outline-opacity) 1" d="M3 0c-0.75 0 -1.5 0.75 -1.5 1.5v12c0 0.75 0.75 1.5 1.5 1.5h9c0.75 0 1.5 -0.75 1.5 -1.5v-12c0 -0.75 -0.75 -1.5 -1.5 -1.5zm0.5 1.5h8c0.25 0 0.5 0.25 0.5 0.5v2c0 0.25 -0.25 0.5 -0.5 0.5h-8c-0.33 0 -0.5 -0.25 -0.5 -0.5v-2c0 -0.25 0.25 -0.5 0.5 -0.5zm1.75 5v0.75c0 0.75 -2.25 0.75 -2.25 0v-0.75c0 -0.75 2.25 -0.75 2.25 0zm3.38 0v0.75c0 0.75 -2.25 0.75 -2.25 0v-0.75c0 -0.75 2.25 -0.75 2.25 0zm3.38 0v0.75c0 0.75 -2.25 0.75 -2.25 0v-0.75c0 -0.75 2.25 -0.75 2.25 0zm-6.75 3v0.75c0 0.75 -2.25 0.75 -2.25 0v-0.75c0 -0.75 2.25 -0.75 2.25 0zm3.38 0v0.75c0 0.75 -2.25 0.75 -2.25 0v-0.75c0 -0.75 2.25 -0.75 2.25 0zm3.38 0v3.75c0 0.75 -2.25 0.75 -2.25 0v-3.75c0 -0.75 2.25 -0.75 2.25 0zm-6.75 3v0.75c0 0.75 -2.25 0.75 -2.25 0v-0.75c0 -0.75 2.25 -0.75 2.25 0zm3.38 0v0.75c0 0.75 -2.25 0.75 -2.25 0v-0.75c0 -0.75 2.25 -0.75 2.25 0z"/>
</svg>