<svg xmlns="http://www.w3.org/2000/svg" viewBox="0 0 15 15">
  <path fill="param(fill) #888" stroke="param(outline) #000" stroke-width="param(outline-width) 0" fill-opacity="param(fill-opacity) 1" stroke-opacity="param(outline-opacity) 1" d="M13.5 1.25L13.5 3.75L1.5 3.75L1.5 1.24L3.21 1.25L3.21 2.5L4.06 2.5L4.07 0L5.36 0L5.36 1.24L8.79 1.25L8.79 2.5L9.64 2.5L9.64 0L10.93 0L10.93 1.25L13.5 1.25ZM1.5 5L13.5 5L13.5 12.92C13.5 14.25 12.73 15 11.79 15L3.21 15C2.27 15 1.5 14.25 1.5 13.33L1.5 5ZM6.64 13.13C6.64 12.78 6.36 12.5 6 12.5C5.64 12.5 5.36 12.78 5.36 13.13C5.36 13.47 5.64 13.75 6 13.75C6.36 13.75 6.64 13.47 6.64 13.13ZM9.65 8.33L5.37 8.33L5.36 12.07C5.65 11.89 6.03 11.81 6.43 11.93C6.81 12.05 7.11 12.34 7.25 12.7C7.39 13.09 7.32 13.45 7.15 13.75L8.43 13.75C8.76 13.75 9.04 13.5 9.06 13.18L9.65 8.33ZM4.92 7.5L10.5 7.49L10.5 6.67L9.66 6.67C9.66 6.44 9.47 6.25 9.24 6.25L5.79 6.25C5.55 6.25 5.36 6.44 5.36 6.68L4.92 6.67L4.92 7.5L4.92 7.5Z"/>
</svg>