<svg xmlns="http://www.w3.org/2000/svg" viewBox="0 0 15 15">
  <path fill="param(fill) #888" stroke="param(outline) #000" stroke-width="param(outline-width) 0" fill-opacity="param(fill-opacity) 1" stroke-opacity="param(outline-opacity) 1" d="M13.5 1.25L13.5 3.75L1.5 3.75L1.5 1.24L3.21 1.25L3.21 2.5L4.06 2.5L4.07 0L5.36 0L5.36 1.24L8.79 1.25L8.79 2.5L9.64 2.5L9.64 0L10.93 0L10.93 1.25L13.5 1.25ZM1.5 5L13.5 5L13.5 13.33C13.5 14.25 12.73 15 11.79 15L3.21 15C2.27 15 1.5 14.25 1.5 13.33L1.5 5ZM10.07 7.92L11.79 7.92L11.79 6.67L10.07 6.67L10.07 7.92ZM10.07 10.42L11.79 10.42L11.79 9.17L10.07 9.17L10.07 10.42ZM10.07 12.92L11.79 12.92L11.79 11.67L10.07 11.67L10.07 12.92ZM6.64 7.92L8.36 7.92L8.36 6.67L6.64 6.67L6.64 7.92ZM6.64 10.42L8.36 10.42L8.36 9.17L6.64 9.17L6.64 10.42ZM3.21 7.92L4.93 7.92L4.93 6.67L3.21 6.67L3.21 7.92ZM3.21 10.42L4.93 10.42L4.93 9.17L3.21 9.17L3.21 10.42ZM3.21 12.92L4.93 12.92L4.93 11.67L3.21 11.67L3.21 12.92ZM6.64 12.92L8.35 12.92L8.35 11.67L6.64 11.67L6.64 12.92Z"/>
</svg>