<svg xmlns="http://www.w3.org/2000/svg" viewBox="0 0 15 15">
  <path fill="param(fill) #888" stroke="param(outline) #000" stroke-width="param(outline-width) 0" fill-opacity="param(fill-opacity) 1" stroke-opacity="param(outline-opacity) 1" d="M7.5 0L7.5 5L13.9 11.39L13.9 11.91L14.5 12.64L13.9 13.01L13.7 14.14L14.19 14.68L13.9 15L10.66 15L9.84 13.72L8.98 13.01L8.01 13.01L7.53 12.32L6.16 12.32L6.16 11.39L4.4 9.22L4.7 8.36L4.22 8.36L3.69 7.51L3.99 6.97L3.18 6.65L3.18 6.15L2.17 5.05L2.17 3.69L1.5 3.1L1.5 2.48L1.82 1.73L1.82 0.67L1.5 0L7.5 0ZM5.5 3.92L5.14 5.01L4 5.01L4.92 5.76L4.5 7L5.5 6.25L6.5 7L6.08 5.76L7 5.01L5.86 5.01L5.5 3.92Z"/>
</svg>