<svg xmlns="http://www.w3.org/2000/svg" viewBox="0 0 15 15">
  <path fill="param(fill) #888" stroke="param(outline) #000" stroke-width="param(outline-width) 0" fill-opacity="param(fill-opacity) 1" stroke-opacity="param(outline-opacity) 1" d="M1.01 3.75C3.08 0.16 7.66 -1.06 11.25 1.01C14.84 3.08 16.06 7.66 13.99 11.25C11.92 14.84 7.34 16.06 3.75 13.99C0.16 11.92 -1.06 7.34 1.01 3.75ZM10.01 9.8C9.72 9.51 9.24 9.51 8.95 9.8C8.82 9.93 8.61 10.05 8.32 10.13C8.04 10.21 7.73 10.24 7.5 10.24C7.27 10.24 6.96 10.21 6.68 10.13C6.39 10.05 6.18 9.93 6.05 9.8C5.76 9.51 5.28 9.51 4.99 9.8C4.7 10.09 4.7 10.57 4.99 10.86C5.36 11.23 5.84 11.45 6.26 11.57C6.7 11.7 7.14 11.74 7.5 11.74C7.86 11.74 8.3 11.7 8.73 11.57C9.16 11.45 9.64 11.23 10.01 10.86C10.3 10.57 10.3 10.09 10.01 9.8ZM5.89 6.09C5.78 6.28 5.4 6.67 4.88 6.67C4.35 6.67 3.97 6.28 3.86 6.09L2.89 6.65C3.11 7.03 3.8 7.8 4.88 7.8C5.95 7.8 6.64 7.03 6.86 6.65ZM11.14 6.09C11.03 6.28 10.65 6.67 10.12 6.67C9.6 6.67 9.22 6.28 9.11 6.09L8.14 6.65C8.36 7.03 9.05 7.8 10.12 7.8C11.2 7.8 11.89 7.03 12.11 6.65Z"/>
</svg>