<svg xmlns="http://www.w3.org/2000/svg" viewBox="0 0 15 15">
  <path fill="param(fill) #888" stroke="param(outline) #000" stroke-width="param(outline-width) 0" fill-opacity="param(fill-opacity) 1" stroke-opacity="param(outline-opacity) 1" d="M4.15 10.57C4.55 10.18 5.18 10.18 5.57 10.57C5.74 10.74 6.02 10.89 6.41 11.01C6.79 11.12 7.19 11.16 7.5 11.16C7.81 11.16 8.21 11.12 8.59 11.01C8.98 10.89 9.26 10.74 9.43 10.57C9.82 10.18 10.45 10.18 10.84 10.57C11.24 10.96 11.24 11.59 10.85 11.98C10.35 12.48 9.72 12.76 9.15 12.93C8.57 13.09 7.98 13.16 7.5 13.16C7.02 13.16 6.43 13.09 5.85 12.93C5.28 12.76 4.65 12.48 4.15 11.98C3.76 11.59 3.76 10.96 4.15 10.57ZM2.65 5.61C2.8 5.87 3.3 6.4 4 6.4C4.7 6.4 5.2 5.87 5.35 5.61L6.65 6.36C6.35 6.88 5.44 7.9 4 7.9C2.57 7.9 1.65 6.88 1.35 6.36L2.65 5.61ZM9.65 5.61C9.8 5.87 10.3 6.4 11 6.4C11.7 6.4 12.2 5.87 12.35 5.61L13.65 6.36C13.35 6.88 12.43 7.9 11 7.9C9.56 7.9 8.65 6.88 8.35 6.36L9.65 5.61Z"/>
</svg>