<svg xmlns="http://www.w3.org/2000/svg" viewBox="0 0 15 15">
  <path fill="param(fill) #888" stroke="param(outline) #000" stroke-width="param(outline-width) 0" fill-opacity="param(fill-opacity) 1" stroke-opacity="param(outline-opacity) 1" d="M11.25 1.01C7.66 -1.06 3.08 0.16 1.01 3.75C-1.06 7.34 0.16 11.92 3.75 13.99C7.34 16.06 11.92 14.84 13.99 11.25C16.06 7.66 14.84 3.08 11.25 1.01ZM2.3 4.5C3.96 1.63 7.63 0.65 10.5 2.3C13.37 3.96 14.35 7.63 12.7 10.5C11.04 13.37 7.37 14.35 4.5 12.7C1.63 11.04 0.65 7.37 2.3 4.5ZM4.99 9.8C5.28 9.51 5.76 9.51 6.05 9.8C6.18 9.93 6.39 10.05 6.68 10.13C6.96 10.21 7.27 10.24 7.5 10.24C7.73 10.24 8.04 10.21 8.32 10.13C8.61 10.05 8.82 9.93 8.95 9.8C9.24 9.51 9.72 9.51 10.01 9.8C10.3 10.09 10.3 10.57 10.01 10.86C9.64 11.23 9.16 11.45 8.73 11.57C8.3 11.7 7.86 11.74 7.5 11.74C7.14 11.74 6.7 11.7 6.26 11.57C5.84 11.45 5.36 11.23 4.99 10.86C4.7 10.57 4.7 10.09 4.99 9.8ZM3.86 6.09C3.97 6.28 4.35 6.67 4.88 6.67C5.4 6.67 5.78 6.28 5.89 6.09L6.86 6.65C6.64 7.03 5.95 7.8 4.88 7.8C3.8 7.8 3.11 7.03 2.89 6.65L3.86 6.09ZM9.11 6.09C9.22 6.28 9.6 6.67 10.12 6.67C10.65 6.67 11.03 6.28 11.14 6.09L12.11 6.65C11.89 7.03 11.2 7.8 10.12 7.8C9.05 7.8 8.36 7.03 8.14 6.65L9.11 6.09Z"/>
</svg>