<svg xmlns="http://www.w3.org/2000/svg" viewBox="0 0 15 15">
  <path fill="param(fill) #888" stroke="param(outline) #000" stroke-width="param(outline-width) 0" fill-opacity="param(fill-opacity) 1" stroke-opacity="param(outline-opacity) 1" d="M11.5 1L13.72 3.3C13.79 3.38 13.83 3.49 13.83 3.6C13.83 3.82 13.67 4 13.48 4L12 4L14.3 6.3C14.36 6.37 14.4 6.45 14.41 6.54L14.42 6.6C14.42 6.82 14.26 7 14.06 7L12.25 7L14.85 9.65C15.05 9.85 15.04 10.16 14.85 10.36C14.75 10.45 14.63 10.5 14.5 10.5L12 10.5L12 13L11 13L11 10.5L8.83 10.5L8.3 9.48L10.75 7L8.93 7C8.83 7 8.74 6.95 8.67 6.87C8.54 6.7 8.55 6.46 8.69 6.3L11 4L9.52 4C9.44 4 9.36 3.97 9.3 3.91L9.25 3.86C9.13 3.7 9.14 3.45 9.28 3.3L11.5 1ZM4.9 4.68C4.96 4.71 5.01 4.76 5.05 4.82L8.5 11.5L9.17 11.5C9.35 11.5 9.5 11.65 9.5 11.83L9.5 12.67C9.5 12.85 9.35 13 9.17 13L0.33 13C0.15 13 0 12.85 0 12.67L0 11.83C0 11.65 0.15 11.5 0.33 11.5L1 11.5L4.45 4.82C4.54 4.66 4.74 4.59 4.9 4.68ZM4.75 8L3 11.5L6.5 11.5L4.75 8Z"/>
</svg>