<?xml version="1.0" encoding="UTF-8"?>
<svg viewBox="0 0 15 15" version="1.1" xmlns="http://www.w3.org/2000/svg" xmlns:xlink="http://www.w3.org/1999/xlink">
  <path fill="param(fill) #888" stroke="param(outline) #000" stroke-width="param(outline-width) 0" fill-opacity="param(fill-opacity) 1" stroke-opacity="param(outline-opacity) 1" d="M6 8L6 10L3.5 10C3.22 10 3 10.22 3 10.5L3 14.5C3 14.78 3.22 15 3.5 15L11.5 15C11.78 15 12 14.78 12 14.5L12 10.5C12 10.22 11.78 10 11.5 10L9 10L9 8L14.5 8C14.78 8 15 7.78 15 7.5C15 7.22 14.78 7 14.5 7L12 7C13.1 7 14 6.1 14 5L14 2.29C14 1.31 13.3 0.49 12.35 0.32L12.2 0.3C10.27 0.1 8.54 0 7 0C5.46 0 3.73 0.1 1.8 0.3C0.78 0.4 0 1.26 0 2.29L0 6C0 7.1 0.9 8 2 8L6 8ZM9.5 4C9.22 4 9 3.78 9 3.5L9 2.5C9 2.22 9.22 2 9.5 2L11.5 2C11.78 2 12 2.22 12 2.5L12 3.5C12 3.78 11.78 4 11.5 4L9.5 4ZM2.5 4C2.22 4 2 3.78 2 3.5L2 2.5C2 2.22 2.22 2 2.5 2L6.5 2C6.78 2 7 2.22 7 2.5L7 3.5C7 3.78 6.78 4 6.5 4L2.5 4ZM8 11L9.31 11C9.45 11 9.56 11.11 9.56 11.25C9.56 11.32 9.53 11.39 9.47 11.44L7.66 12.96C7.57 13.04 7.43 13.04 7.34 12.96L5.53 11.44C5.42 11.35 5.41 11.2 5.5 11.09C5.54 11.03 5.61 11 5.69 11L7 11L7 6.5C7 6.22 7.22 6 7.5 6C7.78 6 8 6.22 8 6.5L8 11Z"/>
</svg>