<svg xmlns="http://www.w3.org/2000/svg" viewBox="0 0 15 15">
  <path fill="param(fill) #888" stroke="param(outline) #000" stroke-width="param(outline-width) 0" fill-opacity="param(fill-opacity) 1" stroke-opacity="param(outline-opacity) 1" d="M4.9 3.68C4.96 3.71 5.01 3.76 5.05 3.82L8.5 10.5L9.17 10.5C9.35 10.5 9.5 10.65 9.5 10.83L9.5 11.67C9.5 11.85 9.35 12 9.17 12L0.33 12C0.15 12 0 11.85 0 11.67L0 10.83C0 10.65 0.15 10.5 0.33 10.5L1 10.5L4.45 3.82C4.54 3.66 4.74 3.59 4.9 3.68ZM11.5 0L13.72 2.3C13.79 2.38 13.83 2.49 13.83 2.6C13.83 2.82 13.67 3 13.48 3L12 3L14.3 5.3C14.36 5.37 14.4 5.45 14.41 5.54L14.42 5.6C14.42 5.82 14.26 6 14.06 6L12.25 6L14.85 8.65C15.05 8.85 15.04 9.16 14.85 9.36C14.75 9.45 14.63 9.5 14.5 9.5L12 9.5L12 12L11 12L11 9.5L8.83 9.5L8.3 8.48L10.75 6L8.93 6C8.83 6 8.74 5.95 8.67 5.87C8.54 5.7 8.55 5.46 8.69 5.3L11 3L9.52 3C9.44 3 9.36 2.97 9.3 2.91L9.25 2.86C9.13 2.7 9.14 2.45 9.28 2.3L11.5 0ZM4.75 7L3 10.5L6.5 10.5L4.75 7ZM12.5 12.5C12.82 12.5 13.14 12.61 13.39 12.81L13.71 13.06C14.01 13.31 14.39 13.46 14.78 13.49L15 13.5L15 15L14.95 15C14.49 15 14.06 14.84 13.71 14.56L13.39 14.31C13.14 14.11 12.82 14 12.5 14C12.18 14 11.86 14.11 11.61 14.31L11.3 14.56C10.94 14.84 10.5 15 10.05 15L9.95 15C9.5 15 9.06 14.84 8.7 14.56L8.39 14.31C8.14 14.11 7.82 14 7.5 14C7.18 14 6.86 14.11 6.61 14.31L6.3 14.56C5.94 14.84 5.5 15 5.05 15L4.95 15C4.5 15 4.06 14.84 3.7 14.56L3.39 14.31C3.14 14.11 2.82 14 2.5 14C2.18 14 1.86 14.11 1.61 14.31L1.29 14.56C0.99 14.81 0.61 14.96 0.22 14.99L0 15L0 13.5L0.05 13.5C0.51 13.5 0.94 13.35 1.29 13.06L1.61 12.81C1.86 12.61 2.18 12.5 2.5 12.5C2.82 12.5 3.14 12.61 3.39 12.81L3.7 13.06C4.06 13.34 4.5 13.5 4.95 13.5L5.05 13.5C5.5 13.5 5.94 13.34 6.3 13.06L6.61 12.81C6.86 12.61 7.18 12.5 7.5 12.5C7.82 12.5 8.14 12.61 8.39 12.81L8.7 13.06C9.06 13.34 9.5 13.5 9.95 13.5L10.05 13.5C10.5 13.5 10.94 13.34 11.3 13.06L11.61 12.81C11.86 12.61 12.18 12.5 12.5 12.5Z"/>
</svg>