<svg xmlns="http://www.w3.org/2000/svg" viewBox="0 0 15 15">
  <path fill="param(fill) #888" stroke="param(outline) #000" stroke-width="param(outline-width) 0" fill-opacity="param(fill-opacity) 1" stroke-opacity="param(outline-opacity) 1" d="M11.25 13.5L11.92 13.5C12.1 13.5 12.25 13.65 12.25 13.83L12.25 14.67C12.25 14.85 12.1 15 11.92 15L11.75 15L11.75 15L3.08 15C2.9 15 2.75 14.85 2.75 14.67L2.75 13.83C2.75 13.65 2.9 13.5 3.08 13.5L3.75 13.5L3.75 13.5L7.2 6.82C7.29 6.66 7.49 6.59 7.65 6.68C7.71 6.71 7.76 6.76 7.8 6.82L11.25 13.5L11.25 13.5ZM7.5 10L5.75 13.5L9.25 13.5L7.5 10ZM2 1L13 1L13 2L2 2L2 1ZM2 3L13 3L13 4L2 4L2 3ZM2 5L10 5L10 6L2 6L2 5Z"/>
</svg>