<svg xmlns="http://www.w3.org/2000/svg" viewBox="0 0 15 15">
  <path fill="param(fill) #888" stroke="param(outline) #000" stroke-width="param(outline-width) 0" fill-opacity="param(fill-opacity) 1" stroke-opacity="param(outline-opacity) 1" d="M11.5 1C13.07 1 12.9 3 12.9 3C14.65 2.6 15.02 5.15 13.84 6.08C15.84 7 15.04 10.23 13.06 10.23L12 10L12 13L11 13L11 10L9.94 10.23C7.96 10.23 7.16 7 9.16 6.08C7.98 5.15 8.35 2.6 10.1 3L10.09 2.82C10.1 2.33 10.22 1 11.5 1ZM4.9 4.68C4.96 4.71 5.01 4.76 5.05 4.82L8.5 11.5L9.17 11.5C9.35 11.5 9.5 11.65 9.5 11.83L9.5 12.67C9.5 12.85 9.35 13 9.17 13L0.33 13C0.15 13 0 12.85 0 12.67L0 11.83C0 11.65 0.15 11.5 0.33 11.5L1 11.5L4.45 4.82C4.54 4.66 4.74 4.59 4.9 4.68ZM4.75 8L3 11.5L6.5 11.5L4.75 8Z"/>
</svg>