<svg xmlns="http://www.w3.org/2000/svg" viewBox="0 0 15 15">
  <path fill="param(fill) #888" stroke="param(outline) #000" stroke-width="param(outline-width) 0" fill-opacity="param(fill-opacity) 1" stroke-opacity="param(outline-opacity) 1" d="M15 10L15 13L13 13L13 12L8.5 12L8.5 13L6.5 13L6.5 12L2 12L2 13L0 13L0 10L15 10ZM12.75 7.86L12.75 8.5C12.75 8.77 12.53 9 12.25 9L2.75 9C2.47 9 2.25 8.77 2.25 8.5L2.25 7.86C2.25 7.59 2.47 7.36 2.75 7.36C2.85 7.36 2.96 7.36 3.06 7.36L3.26 7.36L7.12 0.21C7.3 -0.07 7.7 -0.07 7.88 0.21L11.74 7.36L11.94 7.36C12.04 7.36 12.15 7.36 12.25 7.36C12.53 7.36 12.75 7.59 12.75 7.86ZM9.52 7.36L7.5 3.27L5.48 7.36L9.52 7.36Z"/>
</svg>