<svg xmlns="http://www.w3.org/2000/svg" viewBox="0 0 15 15">
  <path fill="param(fill) #888" stroke="param(outline) #000" stroke-width="param(outline-width) 0" fill-opacity="param(fill-opacity) 1" stroke-opacity="param(outline-opacity) 1" d="M12.91 0c-1.06 0.02 -2.1 0.73 -2.61 2l0 0l-0.9 0l-0.4 1h1.05c-0.04 0.33 -0.04 0.67 0 1h-0.65l-0.4 1h1.3c0.82 2.04 3 2.64 4.46 1.22l-0.51 -0.92c-0.87 1.09 -2.19 0.83 -2.84 -0.3h1.62l0.4 -1h-2.36c-0.05 -0.33 -0.05 -0.67 0 -1h2.76l0.4 -1h-2.82c0.75 -1.31 2.16 -1.25 2.94 -0.29c0 0 0.39 -0.96 0.39 -0.97c-0.55 -0.52 -1.19 -0.76 -1.83 -0.75zm-6.41 3c-0.18 0 -0.36 0.09 -0.47 0.26l-4.78 8.74h-0.75c-0.28 0 -0.5 0.22 -0.5 0.5v1c0 0.28 0.22 0.5 0.5 0.5h12c0.28 0 0.5 -0.22 0.5 -0.5v-1c0 -0.28 -0.22 -0.5 -0.5 -0.5h-0.75l-4.78 -8.74c-0.11 -0.17 -0.29 -0.26 -0.47 -0.26zm0 4l2.5 5h-5l2.5 -5z"/>
</svg>