<svg xmlns="http://www.w3.org/2000/svg" viewBox="0 0 15 15">
  <path fill="param(fill) #888" stroke="param(outline) #000" stroke-width="param(outline-width) 0" fill-opacity="param(fill-opacity) 1" stroke-opacity="param(outline-opacity) 1" d="M12 0v1h-0.5c-0.83 0 -1.5 0.67 -1.5 1.5s0.67 1.5 1.5 1.5h0.5v1h-2c0 0.5 0.5 1 1 1h1v1h1v-1h0.5c0.83 0 1.5 -0.67 1.5 -1.5s-0.67 -1.5 -1.5 -1.5h-0.5v-1h2c0 -0.5 -0.5 -1 -1 -1h-1v-1h-1zm-0.5 2h0.5v1h-0.5c-0.28 0 -0.5 -0.22 -0.5 -0.5s0.22 -0.5 0.5 -0.5zm-5 1c-0.18 0 -0.36 0.09 -0.47 0.26l-4.78 8.74h-0.75c-0.28 0 -0.5 0.22 -0.5 0.5v1c0 0.28 0.22 0.5 0.5 0.5h12c0.28 0 0.5 -0.22 0.5 -0.5v-1c0 -0.28 -0.22 -0.5 -0.5 -0.5h-0.75l-4.78 -8.74c-0.11 -0.17 -0.29 -0.26 -0.47 -0.26zm6.5 1h0.5c0.28 0 0.5 0.22 0.5 0.5s-0.22 0.5 -0.5 0.5h-0.5v-1zm-6.5 3l2.5 5h-5l2.5 -5z"/>
</svg>