<svg xmlns="http://www.w3.org/2000/svg" viewBox="0 0 15 15">
  <path fill="param(fill) #888" stroke="param(outline) #000" stroke-width="param(outline-width) 0" fill-opacity="param(fill-opacity) 1" stroke-opacity="param(outline-opacity) 1" d="M6.5 3C6.68 3 6.86 3.09 6.97 3.26L11.75 12L12.5 12C12.78 12 13 12.22 13 12.5L13 13.5C13 13.78 12.78 14 12.5 14L0.5 14C0.22 14 0 13.78 0 13.5L0 12.5C0 12.22 0.22 12 0.5 12L1.25 12L6.03 3.26C6.14 3.09 6.32 3 6.5 3ZM6.5 7L4 12L9 12L6.5 7ZM12 1C12.83 1 13.5 1.67 13.5 2.5L13.5 4.5L12.5 4.5L12.5 2.5C12.5 2.22 12.28 2 12 2L10.5 2L10.5 6L9.5 6L9.5 1L12 1ZM15 1L15 6L12.5 6C11.67 6 11 5.33 11 4.5L11 2.5L12 2.5L12 4.5C12 4.78 12.22 5 12.5 5L14 5L14 1L15 1Z"/>
</svg>