<svg xmlns="http://www.w3.org/2000/svg" viewBox="0 0 15 15">
  <path fill="param(fill) #888" stroke="param(outline) #000" stroke-width="param(outline-width) 0" fill-opacity="param(fill-opacity) 1" stroke-opacity="param(outline-opacity) 1" d="M12.5 10C12.82 10 13.14 10.11 13.39 10.31L13.71 10.56C14.01 10.81 14.39 10.96 14.78 10.99L15 11L15 12.5L14.95 12.5C14.49 12.5 14.06 12.34 13.71 12.06L13.39 11.81C13.14 11.61 12.82 11.5 12.5 11.5C12.18 11.5 11.86 11.61 11.61 11.81L11.3 12.06C10.94 12.34 10.5 12.5 10.05 12.5L9.95 12.5C9.5 12.5 9.06 12.34 8.7 12.06L8.39 11.81C8.14 11.61 7.82 11.5 7.5 11.5C7.18 11.5 6.86 11.61 6.61 11.81L6.3 12.06C5.94 12.34 5.5 12.5 5.05 12.5L4.95 12.5C4.5 12.5 4.06 12.34 3.7 12.06L3.39 11.81C3.14 11.61 2.82 11.5 2.5 11.5C2.18 11.5 1.86 11.61 1.61 11.81L1.29 12.06C0.99 12.31 0.61 12.46 0.22 12.49L0 12.5L0 11L0.05 11C0.51 11 0.94 10.85 1.29 10.56L1.61 10.31C1.86 10.11 2.18 10 2.5 10C2.82 10 3.14 10.11 3.39 10.31L3.7 10.56C4.06 10.84 4.5 11 4.95 11L5.05 11C5.5 11 5.94 10.84 6.3 10.56L6.61 10.31C6.86 10.11 7.18 10 7.5 10C7.82 10 8.14 10.11 8.39 10.31L8.7 10.56C9.06 10.84 9.5 11 9.95 11L10.05 11C10.5 11 10.94 10.84 11.3 10.56L11.61 10.31C11.86 10.11 12.18 10 12.5 10ZM12.5 12.5C12.82 12.5 13.14 12.61 13.39 12.81L13.71 13.07C14.01 13.31 14.39 13.46 14.78 13.5L15 13.5L15 15L14.95 15C14.49 15 14.06 14.84 13.71 14.56L13.39 14.31C13.14 14.11 12.82 14 12.5 14C12.18 14 11.86 14.11 11.61 14.31L11.3 14.56C10.94 14.84 10.5 15 10.05 15L9.95 15C9.5 15 9.06 14.84 8.7 14.56L8.39 14.31C8.14 14.11 7.82 14 7.5 14C7.18 14 6.86 14.11 6.61 14.31L6.3 14.56C5.94 14.84 5.5 15 5.05 15L4.95 15C4.5 15 4.06 14.84 3.7 14.56L3.39 14.31C3.14 14.11 2.82 14 2.5 14C2.18 14 1.86 14.11 1.61 14.31L1.29 14.56C0.99 14.81 0.61 14.96 0.22 14.99L0 15L0 13.5L0.05 13.5C0.51 13.5 0.94 13.35 1.29 13.07L1.61 12.81C1.86 12.61 2.18 12.5 2.5 12.5C2.82 12.5 3.14 12.61 3.39 12.81L3.7 13.06C4.06 13.35 4.5 13.5 4.95 13.5L5.05 13.5C5.5 13.5 5.94 13.35 6.3 13.06L6.61 12.81C6.86 12.61 7.18 12.5 7.5 12.5C7.82 12.5 8.14 12.61 8.39 12.81L8.7 13.06C9.06 13.35 9.5 13.5 9.95 13.5L10.05 13.5C10.5 13.5 10.94 13.35 11.3 13.06L11.61 12.81C11.86 12.61 12.18 12.5 12.5 12.5ZM12.75 7.86L12.75 8.5C12.75 8.77 12.53 9 12.25 9L2.75 9C2.47 9 2.25 8.77 2.25 8.5L2.25 7.86C2.25 7.59 2.47 7.36 2.75 7.36L3.26 7.36L7.12 0.21C7.3 -0.07 7.7 -0.07 7.88 0.21L11.74 7.36L12.25 7.36C12.5 7.36 12.7 7.54 12.74 7.77L12.75 7.86ZM9.52 7.36L7.5 3.27L5.48 7.36L9.52 7.36Z"/>
</svg>