<svg xmlns="http://www.w3.org/2000/svg" viewBox="0 0 15 15">
  <path fill="param(fill) #888" stroke="param(outline) #000" stroke-width="param(outline-width) 0" fill-opacity="param(fill-opacity) 1" stroke-opacity="param(outline-opacity) 1" d="M12.5 12.5C12.82 12.5 13.14 12.61 13.39 12.81L13.71 13.07C14.01 13.31 14.39 13.46 14.78 13.5L15 13.5L15 15L14.95 15C14.49 15 14.06 14.84 13.71 14.56L13.39 14.31C13.14 14.11 12.82 14 12.5 14C12.18 14 11.86 14.11 11.61 14.31L11.3 14.56C10.94 14.84 10.5 15 10.05 15L9.95 15C9.5 15 9.06 14.84 8.7 14.56L8.39 14.31C8.14 14.11 7.82 14 7.5 14C7.18 14 6.86 14.11 6.61 14.31L6.3 14.56C5.94 14.84 5.5 15 5.05 15L4.95 15C4.5 15 4.06 14.84 3.7 14.56L3.39 14.31C3.14 14.11 2.82 14 2.5 14C2.18 14 1.86 14.11 1.61 14.31L1.29 14.56C0.99 14.81 0.61 14.96 0.22 14.99L0 15L0 13.5L0.05 13.5C0.51 13.5 0.94 13.35 1.29 13.07L1.61 12.81C1.86 12.61 2.18 12.5 2.5 12.5C2.82 12.5 3.14 12.61 3.39 12.81L3.7 13.06C3.86 13.19 4.03 13.29 4.21 13.36L4.33 13.4L4.4 13.42L4.51 13.45L4.58 13.47C4.64 13.48 4.7 13.49 4.76 13.49L4.95 13.5L5.13 13.5L5.29 13.48L5.36 13.48C5.7 13.42 6.03 13.28 6.3 13.06L6.61 12.81C6.86 12.61 7.18 12.5 7.5 12.5C7.82 12.5 8.14 12.61 8.39 12.81L8.7 13.06C8.99 13.29 9.33 13.44 9.7 13.48L9.79 13.49L9.95 13.5L10.05 13.5L10.24 13.49L10.42 13.47L10.49 13.45L10.59 13.43L10.68 13.4L10.78 13.36L10.84 13.34C11 13.27 11.16 13.17 11.3 13.06L11.61 12.81C11.86 12.61 12.18 12.5 12.5 12.5ZM13 10L13 11.5L11 11.5L11 12.34L10.83 12.48C10.61 12.65 10.33 12.75 10.05 12.75L9.95 12.75C9.79 12.75 9.64 12.72 9.5 12.67L9.5 11.5L5.5 11.5L5.5 12.67C5.36 12.72 5.21 12.75 5.05 12.75L4.95 12.75C4.67 12.75 4.39 12.65 4.17 12.48L4 12.34L4 11.5L2 11.5L2 10L13 10ZM7.88 0.21L11.74 7.36L12.25 7.36C12.53 7.36 12.75 7.59 12.75 7.86L12.75 8.5C12.75 8.77 12.53 9 12.25 9L2.75 9C2.47 9 2.25 8.77 2.25 8.5L2.25 7.86C2.25 7.59 2.47 7.36 2.75 7.36L3.26 7.36L7.12 0.21C7.3 -0.07 7.7 -0.07 7.88 0.21ZM7.5 3.27L5.48 7.36L9.52 7.36L7.5 3.27Z"/>
</svg>