<svg xmlns="http://www.w3.org/2000/svg" viewBox="0 0 15 15">
  <path fill="param(fill) #888" stroke="param(outline) #000" stroke-width="param(outline-width) 0" fill-opacity="param(fill-opacity) 1" stroke-opacity="param(outline-opacity) 1" d="M6.97 3.26L11.75 12L12.5 12C12.78 12 13 12.22 13 12.5L13 13.5C13 13.78 12.78 14 12.5 14L0.5 14C0.22 14 0 13.78 0 13.5L0 12.5C0 12.22 0.22 12 0.5 12L1.25 12L6.03 3.26C6.25 2.91 6.75 2.91 6.97 3.26ZM6.5 7L4 12L9 12L6.5 7ZM13 1C14.05 1 14.92 1.82 14.99 2.85L15 3L14 3.25L14 3C14 2.45 13.55 2 13 2C12.49 2 12.06 2.39 12.01 2.88L12 3L12.67 4L14.5 4L14 5L13 5C13 5.32 12.87 5.63 12.65 5.85L12.5 6L15 6L14.5 7L11 7L11 6C11.4 6 11.74 5.74 11.85 5.36L11.88 5.25C11.89 5.17 11.9 5.08 11.9 5L10.5 5L11 4L11.66 4L11.58 3.87L11 3C11 1.9 11.9 1 13 1Z"/>
</svg>