<svg xmlns="http://www.w3.org/2000/svg" viewBox="0 0 15 15">
  <path fill="param(fill) #888" stroke="param(outline) #000" stroke-width="param(outline-width) 0" fill-opacity="param(fill-opacity) 1" stroke-opacity="param(outline-opacity) 1" d="M6.97 3.26L11.75 12L12.5 12C12.78 12 13 12.22 13 12.5L13 13.5C13 13.78 12.78 14 12.5 14L0.5 14C0.22 14 0 13.78 0 13.5L0 12.5C0 12.22 0.22 12 0.5 12L1.25 12L6.03 3.26C6.25 2.91 6.75 2.91 6.97 3.26ZM6.5 7L4 12L9 12L6.5 7ZM13 0L13 1L13.5 1C14.28 1 14.92 1.59 14.99 2.36L15 2.5L14 2.5C14 2.22 13.78 2 13.5 2L13 2L13 3L13.5 3C14.33 3 15 3.67 15 4.5C15 5.33 14.33 6 13.5 6L13 6L13 7L12 7L12 6L11.5 6C10.72 6 10.08 5.41 10.01 4.64L10 4.5L11 4.5C11 4.78 11.22 5 11.5 5L12 5L12 4L11.5 4C10.67 4 10 3.33 10 2.5C10 1.67 10.67 1 11.5 1L12 1L12 0L13 0ZM13.5 4L13 4L13 5L13.5 5C13.78 5 14 4.78 14 4.5C14 4.22 13.78 4 13.5 4ZM12 2L11.5 2C11.22 2 11 2.22 11 2.5C11 2.78 11.22 3 11.5 3L12 3L12 2Z"/>
</svg>