<svg xmlns="http://www.w3.org/2000/svg" viewBox="0 0 15 15">
  <path fill="param(fill) #888" stroke="param(outline) #000" stroke-width="param(outline-width) 0" fill-opacity="param(fill-opacity) 1" stroke-opacity="param(outline-opacity) 1" d="M12.75 7.86L12.75 8.5C12.75 8.77 12.53 9 12.25 9L2.75 9C2.47 9 2.25 8.77 2.25 8.5L2.25 7.86C2.25 7.59 2.47 7.36 2.75 7.36L3.26 7.36L7.12 0.21C7.3 -0.07 7.7 -0.07 7.88 0.21L11.74 7.36L12.25 7.36C12.5 7.36 12.7 7.54 12.74 7.77L12.75 7.86ZM9.52 7.36L7.5 3.27L5.48 7.36L9.52 7.36ZM12 10C12.67 11.33 13.42 12 14.25 12C14.51 12 14.76 11.94 15 11.81L15 13.86C14.76 13.95 14.51 14 14.25 14C13.42 14 12.67 13.5 12 12.5C11.33 13.5 10.58 14 9.75 14C8.92 14 8.17 13.5 7.5 12.5C6.83 13.5 6.08 14 5.25 14C4.42 14 3.67 13.5 3 12.5C2.33 13.5 1.58 14 0.75 14C0.49 14 0.24 13.95 0 13.86L0 11.81C0.24 11.94 0.49 12 0.75 12C1.58 12 2.33 11.33 3 10C3.67 11.33 4.42 12 5.25 12C6.08 12 6.83 11.33 7.5 10C8.17 11.33 8.92 12 9.75 12C10.58 12 11.33 11.33 12 10Z"/>
</svg>