<svg xmlns="http://www.w3.org/2000/svg" viewBox="0 0 15 15">
  <path fill="param(fill) #888" stroke="param(outline) #000" stroke-width="param(outline-width) 0" fill-opacity="param(fill-opacity) 1" stroke-opacity="param(outline-opacity) 1" d="M6.5 3C6.32 3 6.14 3.09 6.03 3.26L1.25 12L0.5 12C0.22 12 0 12.22 0 12.5L0 13.5C0 13.78 0.22 14 0.5 14L12.5 14C12.78 14 13 13.78 13 13.5L13 12.5C13 12.22 12.78 12 12.5 12L11.75 12L6.97 3.26C6.86 3.09 6.68 3 6.5 3ZM11 0L12.5 2.75L14 0L15 0L15 0.5L13.57 3L15 3L15 4L13 4L13 5L15 5L15 6L13 6L13 7.5L12 7.5L12 6L10 6L10 5L12 5L12 4L10 4L10 3L11.43 3L10 0.5L10 0L11 0ZM6.5 7L9 12L4 12L6.5 7Z"/>
</svg>