<svg xmlns="http://www.w3.org/2000/svg" viewBox="0 0 15 15">
  <path fill="param(fill) #888" stroke="param(outline) #000" stroke-width="param(outline-width) 0" fill-opacity="param(fill-opacity) 1" stroke-opacity="param(outline-opacity) 1" d="M6.5 3C6.68 3 6.86 3.09 6.97 3.26L11.75 12L12.5 12C12.78 12 13 12.22 13 12.5L13 13.5C13 13.78 12.78 14 12.5 14L0.5 14C0.22 14 0 13.78 0 13.5L0 12.5C0 12.22 0.22 12 0.5 12L1.25 12L6.03 3.26C6.14 3.09 6.32 3 6.5 3ZM6.5 7L4 12L9 12L6.5 7ZM13 0L13 1L13.53 1C14.33 1 14.97 1.64 14.97 2.44C14.97 2.79 14.84 3.13 14.61 3.39L14.5 3.5C15.09 4.03 15.13 4.94 14.6 5.53C14.32 5.83 13.94 6 13.53 6L13 6L13 7L12 7L12 6L10 6L10 1L12 1L12 0L13 0ZM12 3.8L11 3.8L11 5L12 5L12 3.8ZM13.34 3.8L13 3.8L13 5L13.53 5C13.63 5 13.73 4.97 13.8 4.91L13.86 4.86C14.02 4.68 14.01 4.4 13.83 4.24L13.34 3.8ZM12 2L11 2L11 3.2L12 3.2L12 2ZM13.53 2L13 2L13 3.2L13.34 3.2L13.83 2.76C13.92 2.68 13.97 2.56 13.97 2.44C13.97 2.2 13.77 2 13.53 2Z"/>
</svg>