<svg xmlns="http://www.w3.org/2000/svg" viewBox="0 0 15 15">
  <path fill="param(fill) #888" stroke="param(outline) #000" stroke-width="param(outline-width) 0" fill-opacity="param(fill-opacity) 1" stroke-opacity="param(outline-opacity) 1" d="M3.75 8.25L6.12 13L6.75 13C6.89 13 7 13.11 7 13.25L7 13.75C7 13.89 6.89 14 6.75 14L0.25 14C0.11 14 0 13.89 0 13.75L0 13.25C0 13.11 0.11 13 0.25 13L0.87 13L3.25 8.25C3.36 8.08 3.64 8.08 3.75 8.25ZM3.5 10.5L2.25 13L4.75 13L3.5 10.5ZM11.75 8.25L14.12 13L14.75 13C14.89 13 15 13.11 15 13.25L15 13.75C15 13.89 14.89 14 14.75 14L8.25 14C8.11 14 8 13.89 8 13.75L8 13.25C8 13.11 8.11 13 8.25 13L8.87 13L11.25 8.25C11.36 8.08 11.64 8.08 11.75 8.25ZM11.5 10.5L10.25 13L12.75 13L11.5 10.5ZM3.75 0.25L6.12 5L6.75 5C6.89 5 7 5.11 7 5.25L7 5.75C7 5.89 6.89 6 6.75 6L0.25 6C0.11 6 0 5.89 0 5.75L0 5.25C0 5.11 0.11 5 0.25 5L0.87 5L3.25 0.25C3.36 0.08 3.64 0.08 3.75 0.25ZM3.5 2.5L2.25 5L4.75 5L3.5 2.5ZM11.75 0.25L14.12 5L14.75 5C14.89 5 15 5.11 15 5.25L15 5.75C15 5.89 14.89 6 14.75 6L8.25 6C8.11 6 8 5.89 8 5.75L8 5.25C8 5.11 8.11 5 8.25 5L8.87 5L11.25 0.25C11.36 0.08 11.64 0.08 11.75 0.25ZM11.5 2.5L10.25 5L12.75 5L11.5 2.5Z"/>
</svg>