<svg xmlns="http://www.w3.org/2000/svg" viewBox="0 0 15 15">
  <path fill="param(fill) #888" stroke="param(outline) #000" stroke-width="param(outline-width) 0" fill-opacity="param(fill-opacity) 1" stroke-opacity="param(outline-opacity) 1" d="M11.5 7L11.5 2C11.37 0.8 11.03 0.13 10.5 0L9 0C8.47 0.13 8.13 0.8 8 2L8 7L11.5 7ZM11.5 8L11.5 13C11.37 14.2 11.03 14.87 10.5 15L9 15C8.47 14.87 8.13 14.2 8 13L8 8L11.5 8ZM4 14.75C2.76 14.75 1.75 13.74 1.75 12.5C1.75 11.26 2.76 10.25 4 10.25C5.24 10.25 6.25 11.26 6.25 12.5C6.25 13.74 5.24 14.75 4 14.75Z"/>
</svg>