<svg xmlns="http://www.w3.org/2000/svg" viewBox="0 0 15 15">
  <path fill="param(fill) #888" stroke="param(outline) #000" stroke-width="param(outline-width) 0" fill-opacity="param(fill-opacity) 1" stroke-opacity="param(outline-opacity) 1" d="M0.75 6.5L0.75 2C0.88 0.8 1.22 0.13 1.75 0L3.25 0C3.78 0.13 4.12 0.8 4.25 2L4.25 6.5L0.75 6.5ZM0.75 7.5L0.75 12C0.88 13.2 1.22 13.87 1.75 14L3.25 14C3.78 13.87 4.12 13.2 4.25 12L4.25 7.5L0.75 7.5ZM5.75 7.5L5.75 3C5.88 1.8 6.22 1.13 6.75 1L8.25 1C8.78 1.13 9.12 1.8 9.25 3L9.25 7.5L5.75 7.5ZM5.75 8.5L5.75 13C5.88 14.2 6.22 14.87 6.75 15L8.25 15C8.78 14.87 9.12 14.2 9.25 13L9.25 8.5L5.75 8.5ZM10.75 6.5L10.75 2C10.88 0.8 11.22 0.13 11.75 0L13.25 0C13.78 0.13 14.12 0.8 14.25 2L14.25 6.5L10.75 6.5ZM10.75 7.5L10.75 12C10.88 13.2 11.22 13.87 11.75 14L13.25 14C13.78 13.87 14.12 13.2 14.25 12L14.25 7.5L10.75 7.5Z"/>
</svg>