<svg xmlns="http://www.w3.org/2000/svg" viewBox="0 0 15 15">
  <path fill="param(fill) #888" stroke="param(outline) #000" stroke-width="param(outline-width) 0" fill-opacity="param(fill-opacity) 1" stroke-opacity="param(outline-opacity) 1" d="M3.76 12.29C3.76 13.19 3.01 13.93 2.1 13.93C1.18 13.93 0.43 13.19 0.43 12.29C0.43 11.38 1.18 10.65 2.1 10.65C3.01 10.65 3.76 11.38 3.76 12.29ZM13.77 13.47L12.92 13.47L11.88 4.47L11.88 4.43C11.63 3.02 10.62 1.88 9.24 1.47C8.81 1.33 5.02 0.17 4.65 0.08C4.24 -0.01 3.86 0 3.75 0C2.12 0.01 0.8 1.32 0.8 2.93C0.8 4.54 2.13 5.86 3.77 5.86L7.51 5.85C7.85 5.85 8.13 6.12 8.13 6.46C8.13 6.64 8.05 6.81 7.91 6.93L6.8 8.42C6.12 8 5.36 7.75 4.6 7.75L1.28 7.75C0.57 7.75 0 8.31 0 9.01L0 10.25C0.55 9.7 1.3 9.39 2.08 9.39C3.7 9.39 5.02 10.69 5.02 12.28C5.02 12.89 4.82 13.46 4.49 13.93L7.52 13.93C8.44 13.93 9.19 13.19 9.19 12.28C9.19 11.16 8.62 10.03 7.78 9.19L8.79 7.81C9.17 7.46 9.38 6.98 9.38 6.46C9.38 5.44 8.54 4.62 7.51 4.62L3.77 4.63C2.82 4.63 2.05 3.87 2.05 2.93C2.05 1.99 2.82 1.23 3.81 1.23C3.81 1.23 4.08 1.22 4.35 1.28C4.61 1.34 7.19 2.13 8.87 2.64C9.79 2.92 10.47 3.67 10.64 4.61L11.67 13.47L11.26 13.47C10.57 13.47 10.01 14.02 10.01 14.7C10.01 15.38 15 14.7 15 14.7L15 14.68C15 14.01 14.45 13.47 13.77 13.47Z"/>
</svg>