<svg xmlns="http://www.w3.org/2000/svg" viewBox="0 0 15 15">
  <path fill="param(fill) #888" stroke="param(outline) #000" stroke-width="param(outline-width) 0" fill-opacity="param(fill-opacity) 1" stroke-opacity="param(outline-opacity) 1" d="M4 14C1.5 14 0 12.75 0 10.5C0 9 1.32 8.02 2 8C1.5 9.5 2.91 10.5 5 10.5L10 10.5C12.09 10.5 13.5 9.5 13 8C13.68 8.02 15 9 15 10.5C15 12.75 13.5 14 11 14L4 14ZM8.53 1C8.66 1 8.79 1.05 8.88 1.15L12.85 5.12C13.05 5.32 13.05 5.63 12.85 5.82L10.82 7.85C10.63 8.05 10.32 8.05 10.12 7.85L6.15 3.88C6.05 3.79 6 3.66 6 3.53L6 1.5C6 1.22 6.22 1 6.5 1L8.53 1ZM7.49 1.74C7.08 1.74 6.74 2.08 6.74 2.49C6.74 2.9 7.08 3.23 7.49 3.23C7.9 3.23 8.23 2.9 8.23 2.49C8.23 2.08 7.9 1.74 7.49 1.74Z"/>
</svg>