<svg xmlns="http://www.w3.org/2000/svg" viewBox="0 0 15 15">
  <path fill="param(fill) #888" stroke="param(outline) #000" stroke-width="param(outline-width) 0" fill-opacity="param(fill-opacity) 1" stroke-opacity="param(outline-opacity) 1" d="M1 1L8 1L8 2L1 2L1 1ZM1 3L8 3L8 4L1 4L1 3ZM1 5L8 5L8 6L1 6L1 5ZM13.25 1L11.25 4.5L10.25 3L8.5 3L10.5 6L12 6L15 1L13.25 1ZM4 14C1.5 14 0 12.75 0 10.5C0 9 1.32 8.02 2 8C1.5 9.5 2.91 10.5 5 10.5L10 10.5C12.09 10.5 13.5 9.5 13 8C13.68 8.02 15 9 15 10.5C15 12.75 13.5 14 11 14L4 14Z"/>
</svg>