<svg xmlns="http://www.w3.org/2000/svg" viewBox="0 0 15 15">
  <path fill="param(fill) #888" stroke="param(outline) #000" stroke-width="param(outline-width) 0" fill-opacity="param(fill-opacity) 1" stroke-opacity="param(outline-opacity) 1" d="M4 13C1.5 13 0 11.75 0 9.5C0 8 1.32 7.02 2 7C1.5 8.5 2.91 9.5 5 9.5L10 9.5C12.09 9.5 13.5 8.5 13 7C13.68 7.02 15 8 15 9.5C15 11.75 13.5 13 11 13L4 13ZM6.5 3.5L6.5 5.5L4.5 5.5L4.5 3.5L6.5 3.5ZM10.5 3.5L10.5 5.5L8.5 5.5L8.5 3.5L10.5 3.5ZM4.5 1.5L4.5 3.5L2.5 3.5L2.5 1.5L4.5 1.5ZM8.5 1.5L8.5 3.5L6.5 3.5L6.5 1.5L8.5 1.5ZM12.5 1.5L12.5 3.5L10.5 3.5L10.5 1.5L12.5 1.5Z"/>
</svg>