<svg xmlns="http://www.w3.org/2000/svg" viewBox="0 0 15 15">
  <path fill="param(fill) #888" stroke="param(outline) #000" stroke-width="param(outline-width) 0" fill-opacity="param(fill-opacity) 1" stroke-opacity="param(outline-opacity) 1" d="M13 4C13.68 4.02 15 5 15 6.5C15 7.76 14.53 8.71 13.67 9.3C13.31 9.11 12.91 9 12.5 9C11.95 9 11.42 9.19 10.98 9.53L10.67 9.78C10.5 9.92 10.28 10 10.05 10L9.95 10C9.72 10 9.5 9.92 9.33 9.78L9.01 9.53C8.58 9.19 8.05 9 7.5 9C6.95 9 6.42 9.19 5.99 9.53L5.67 9.78C5.5 9.92 5.28 10 5.05 10L4.95 10C4.72 10 4.5 9.92 4.33 9.78L4.01 9.53C3.58 9.19 3.05 9 2.5 9C2.09 9 1.69 9.11 1.33 9.3C0.47 8.71 0 7.76 0 6.5C0 5 1.32 4.02 2 4C1.5 5.5 2.91 6.5 5 6.5L10 6.5C12.09 6.5 13.5 5.5 13 4ZM6.3 12.06L6.61 11.81C6.86 11.61 7.18 11.5 7.5 11.5C7.82 11.5 8.14 11.61 8.39 11.81L8.7 12.06C9.06 12.34 9.5 12.5 9.95 12.5L10.05 12.5C10.5 12.5 10.94 12.34 11.3 12.06L11.61 11.81C11.86 11.61 12.18 11.5 12.5 11.5C12.82 11.5 13.14 11.61 13.39 11.81L13.71 12.06C14.01 12.31 14.39 12.46 14.78 12.49L15 12.5L15 11L14.95 11C14.49 11 14.06 10.85 13.71 10.57L13.39 10.31C13.14 10.11 12.82 10 12.5 10C12.18 10 11.86 10.11 11.61 10.31L11.3 10.56C10.94 10.85 10.5 11 10.05 11L9.95 11C9.5 11 9.06 10.85 8.7 10.56L8.39 10.31C8.14 10.11 7.82 10 7.5 10C7.18 10 6.86 10.11 6.61 10.31L6.3 10.56C5.94 10.85 5.5 11 5.05 11L4.95 11C4.5 11 4.06 10.85 3.7 10.56L3.39 10.31C3.14 10.11 2.82 10 2.5 10C2.18 10 1.86 10.11 1.61 10.31L1.29 10.57C0.99 10.81 0.61 10.96 0.22 11L0 11L0 12.5L0.05 12.5C0.51 12.5 0.94 12.34 1.29 12.06L1.61 11.81C1.86 11.61 2.18 11.5 2.5 11.5C2.82 11.5 3.14 11.61 3.39 11.81L3.7 12.06C4.06 12.34 4.5 12.5 4.95 12.5L5.05 12.5C5.5 12.5 5.94 12.34 6.3 12.06Z"/>
</svg>