<svg xmlns="http://www.w3.org/2000/svg" viewBox="0 0 15 15">
  <path fill="param(fill) #888" stroke="param(outline) #000" stroke-width="param(outline-width) 0" fill-opacity="param(fill-opacity) 1" stroke-opacity="param(outline-opacity) 1" d="M4 13C1.5 13 0 11.75 0 9.5C0 8 1.32 7.02 2 7C1.5 8.5 2.91 9.5 5 9.5L10 9.5C12.09 9.5 13.5 8.5 13 7C13.68 7.02 15 8 15 9.5C15 11.75 13.5 13 11 13L4 13ZM3.5 1C3.22 1 3 1.22 3 1.5L3 4.5C3 4.78 3.22 5 3.5 5L5 5C5.74 5 6.38 4.6 6.72 4L7.5 4L8.5 3L9.5 4L10.5 3L11.5 4L12.5 3L11.5 2L6.72 2C6.38 1.4 5.74 1 5 1L3.5 1ZM4.5 2C4.78 2 5 2.22 5 2.5L5 3.5C5 3.78 4.78 4 4.5 4C4.22 4 4 3.78 4 3.5L4 2.5C4 2.22 4.22 2 4.5 2Z"/>
</svg>