<svg xmlns="http://www.w3.org/2000/svg" viewBox="0 0 15 15">
  <path fill="param(fill) #888" stroke="param(outline) #000" stroke-width="param(outline-width) 0" fill-opacity="param(fill-opacity) 1" stroke-opacity="param(outline-opacity) 1" d="M7.64 5C7.85 5 8.04 5.14 8.11 5.34L9 8C9.55 8 10 8.45 10 9L10 12L9 12L9 13C9 13.55 8.55 14 8 14C7.45 14 7 13.55 7 13L7 12L4 12L4 13C4 13.55 3.55 14 3 14C2.45 14 2 13.55 2 13L2 12L1 12L1 9C1 8.45 1.45 8 2 8L2.89 5.34C2.96 5.14 3.15 5 3.36 5L7.64 5ZM3 9C2.45 9 2 9.45 2 10C2 10.55 2.45 11 3 11C3.55 11 4 10.55 4 10C4 9.45 3.55 9 3 9ZM8 9C7.45 9 7 9.45 7 10C7 10.55 7.45 11 8 11C8.55 11 9 10.55 9 10C9 9.45 8.55 9 8 9ZM7.38 6L3.62 6L3 8L8 8L7.38 6ZM13 0C14.1 0 15 0.9 15 2C15 3.1 14.1 4 13 4L12 4L12 5L14 5L14 6L12 6L12 7.5L11 7.5L11 6L10 6L10 5L11 5L11 4L10 4L10 3L11 3L11 0L13 0ZM13 1L12 1L12 3L13 3C13.55 3 14 2.55 14 2C14 1.45 13.55 1 13 1Z"/>
</svg>