<svg xmlns="http://www.w3.org/2000/svg" viewBox="0 0 15 15">
  <path fill="param(fill) #888" stroke="param(outline) #000" stroke-width="param(outline-width) 0" fill-opacity="param(fill-opacity) 1" stroke-opacity="param(outline-opacity) 1" d="M6.64 6C6.85 6 7.04 6.14 7.11 6.34L8 9C8.55 9 9 9.45 9 10L9 13L8 13L8 14C8 14.55 7.55 15 7 15C6.45 15 6 14.55 6 14L6 13L3 13L3 14C3 14.55 2.55 15 2 15C1.45 15 1 14.55 1 14L1 13L0 13L0 10C0 9.45 0.45 9 1 9L1.89 6.34C1.96 6.14 2.15 6 2.36 6L6.64 6ZM2 10C1.45 10 1 10.45 1 11C1 11.55 1.45 12 2 12C2.55 12 3 11.55 3 11C3 10.45 2.55 10 2 10ZM7 10C6.45 10 6 10.45 6 11C6 11.55 6.45 12 7 12C7.55 12 8 11.55 8 11C8 10.45 7.55 10 7 10ZM6.38 7L2.62 7L2 9L7 9L6.38 7ZM12 0C13.1 0 14 0.9 14 2L14 2.5L14.5 2.5C14.78 2.5 15 2.72 15 3L15 6C15 6.28 14.78 6.5 14.5 6.5L9.5 6.5C9.22 6.5 9 6.28 9 6L9 3C9 2.72 9.22 2.5 9.5 2.5L10 2.5L10 2C10 0.9 10.9 0 12 0ZM12 3.25C11.59 3.25 11.25 3.59 11.25 4C11.25 4.27 11.4 4.52 11.62 4.65L11.25 5.75L12.75 5.75L12.38 4.65C12.6 4.51 12.75 4.27 12.75 4C12.75 3.59 12.41 3.25 12 3.25ZM12 1C11.45 1 11 1.45 11 2L11 2.5L13 2.5L13 2C13 1.49 12.61 1.06 12.12 1.01L12 1Z"/>
</svg>