<svg xmlns="http://www.w3.org/2000/svg" viewBox="0 0 15 15">
  <path fill="param(fill) #888" stroke="param(outline) #000" stroke-width="param(outline-width) 0" fill-opacity="param(fill-opacity) 1" stroke-opacity="param(outline-opacity) 1" d="M5.16 0C5.33 0 5.48 0.11 5.53 0.26L6.22 2.33C6.65 2.33 7 2.68 7 3.11L7 5.5L6.25 5.5L6.25 6.25C6.25 6.66 5.91 7 5.5 7C5.09 7 4.75 6.66 4.75 6.25L4.75 5.5L2.25 5.5L2.25 6.25C2.25 6.66 1.91 7 1.5 7C1.09 7 0.75 6.66 0.75 6.25L0.75 5.5L0 5.5L0 3.11C0 2.68 0.35 2.33 0.78 2.33L1.47 0.26C1.52 0.11 1.67 0 1.84 0L5.16 0ZM1.56 3.11C1.13 3.11 0.78 3.46 0.78 3.89C0.78 4.32 1.13 4.67 1.56 4.67C1.98 4.67 2.33 4.32 2.33 3.89C2.33 3.46 1.98 3.11 1.56 3.11ZM5.44 3.11C5.02 3.11 4.67 3.46 4.67 3.89C4.67 4.32 5.02 4.67 5.44 4.67C5.87 4.67 6.22 4.32 6.22 3.89C6.22 3.46 5.87 3.11 5.44 3.11ZM4.85 1L2.15 1L1.75 2.25L5.25 2.25L4.85 1ZM13.16 0C13.33 0 13.48 0.11 13.53 0.26L14.22 2.33C14.65 2.33 15 2.68 15 3.11L15 5.5L14.25 5.5L14.25 6.25C14.25 6.66 13.91 7 13.5 7C13.09 7 12.75 6.66 12.75 6.25L12.75 5.5L10.25 5.5L10.25 6.25C10.25 6.66 9.91 7 9.5 7C9.09 7 8.75 6.66 8.75 6.25L8.75 5.5L8 5.5L8 3.11C8 2.68 8.35 2.33 8.78 2.33L9.47 0.26C9.52 0.11 9.67 0 9.84 0L13.16 0ZM9.56 3.11C9.13 3.11 8.78 3.46 8.78 3.89C8.78 4.32 9.13 4.67 9.56 4.67C9.98 4.67 10.33 4.32 10.33 3.89C10.33 3.46 9.98 3.11 9.56 3.11ZM13.44 3.11C13.02 3.11 12.67 3.46 12.67 3.89C12.67 4.32 13.02 4.67 13.44 4.67C13.87 4.67 14.22 4.32 14.22 3.89C14.22 3.46 13.87 3.11 13.44 3.11ZM12.85 1L10.15 1L9.75 2.25L13.25 2.25L12.85 1ZM5.16 8C5.33 8 5.48 8.11 5.53 8.26L6.22 10.33C6.65 10.33 7 10.68 7 11.11L7 13.5L6.25 13.5L6.25 14.25C6.25 14.66 5.91 15 5.5 15C5.09 15 4.75 14.66 4.75 14.25L4.75 13.5L2.25 13.5L2.25 14.25C2.25 14.66 1.91 15 1.5 15C1.09 15 0.75 14.66 0.75 14.25L0.75 13.5L0 13.5L0 11.11C0 10.68 0.35 10.33 0.78 10.33L1.47 8.26C1.52 8.11 1.67 8 1.84 8L5.16 8ZM1.56 11.11C1.13 11.11 0.78 11.46 0.78 11.89C0.78 12.32 1.13 12.67 1.56 12.67C1.98 12.67 2.33 12.32 2.33 11.89C2.33 11.46 1.98 11.11 1.56 11.11ZM5.44 11.11C5.02 11.11 4.67 11.46 4.67 11.89C4.67 12.32 5.02 12.67 5.44 12.67C5.87 12.67 6.22 12.32 6.22 11.89C6.22 11.46 5.87 11.11 5.44 11.11ZM4.85 9L2.15 9L1.75 10.25L5.25 10.25L4.85 9ZM13.16 8C13.33 8 13.48 8.11 13.53 8.26L14.22 10.33C14.65 10.33 15 10.68 15 11.11L15 13.5L14.25 13.5L14.25 14.25C14.25 14.66 13.91 15 13.5 15C13.09 15 12.75 14.66 12.75 14.25L12.75 13.5L10.25 13.5L10.25 14.25C10.25 14.66 9.91 15 9.5 15C9.09 15 8.75 14.66 8.75 14.25L8.75 13.5L8 13.5L8 11.11C8 10.68 8.35 10.33 8.78 10.33L9.47 8.26C9.52 8.11 9.67 8 9.84 8L13.16 8ZM9.56 11.11C9.13 11.11 8.78 11.46 8.78 11.89C8.78 12.32 9.13 12.67 9.56 12.67C9.98 12.67 10.33 12.32 10.33 11.89C10.33 11.46 9.98 11.11 9.56 11.11ZM13.44 11.11C13.02 11.11 12.67 11.46 12.67 11.89C12.67 12.32 13.02 12.67 13.44 12.67C13.87 12.67 14.22 12.32 14.22 11.89C14.22 11.46 13.87 11.11 13.44 11.11ZM12.85 9L10.15 9L9.75 10.25L13.25 10.25L12.85 9Z"/>
</svg>