<svg xmlns="http://www.w3.org/2000/svg" viewBox="0 0 15 15">
  <path fill="param(fill) #888" stroke="param(outline) #000" stroke-width="param(outline-width) 0" fill-opacity="param(fill-opacity) 1" stroke-opacity="param(outline-opacity) 1" d="M12.91 0c-1.06 0.02 -2.1 0.73 -2.61 2l0 0l-0.9 0l-0.4 1h1.05c-0.04 0.33 -0.04 0.67 0 1h-0.65l-0.4 1h1.3c0.82 2.04 3 2.64 4.46 1.22l-0.51 -0.92c-0.87 1.09 -2.19 0.83 -2.84 -0.3h1.62l0.4 -1h-2.36c-0.05 -0.33 -0.05 -0.67 0 -1h2.76l0.4 -1h-2.82c0.75 -1.31 2.16 -1.25 2.94 -0.29c0 0 0.39 -0.96 0.39 -0.97c-0.55 -0.52 -1.19 -0.76 -1.83 -0.75zm-9.55 5c-0.21 0 -0.4 0.14 -0.47 0.34l-0.89 2.66c-0.55 0 -1 0.45 -1 1v3h1v1c0 0.55 0.45 1 1 1s1 -0.45 1 -1v-1h3v1c0 0.55 0.45 1 1 1s1 -0.45 1 -1v-1h1v-3c0 -0.55 -0.45 -1 -1 -1l-0.89 -2.66c-0.07 -0.2 -0.26 -0.34 -0.47 -0.34h-4.28zm0.26 1h3.76l0.62 2h-5l0.62 -2zm-0.62 3c0.55 0 1 0.45 1 1s-0.45 1 -1 1s-1 -0.45 -1 -1s0.45 -1 1 -1zm5 0c0.55 0 1 0.45 1 1s-0.45 1 -1 1s-1 -0.45 -1 -1s0.45 -1 1 -1z"/>
</svg>