<svg xmlns="http://www.w3.org/2000/svg" viewBox="0 0 15 15">
  <path fill="param(fill) #888" stroke="param(outline) #000" stroke-width="param(outline-width) 0" fill-opacity="param(fill-opacity) 1" stroke-opacity="param(outline-opacity) 1" d="M14 1C14.55 1 15 1.45 15 2C15 2.55 14.55 3 14 3L13 3L13 4L13.5 4C13.78 4 14 4.22 14 4.5L14 5.5C14 5.78 13.78 6 13.5 6L11.5 6C11.22 6 11 5.78 11 5.5L11 4.5C11 4.22 11.22 4 11.5 4L12 4L12 3L9 3L9 4L9.5 4C9.78 4 10 4.22 10 4.5L10 5.5C10 5.78 9.78 6 9.5 6L7.5 6C7.22 6 7 5.78 7 5.5L7 4.5C7 4.22 7.22 4 7.5 4L8 4L8 3L5 3L5 4L5.5 4C5.78 4 6 4.22 6 4.5L6 5.5C6 5.78 5.78 6 5.5 6L3.5 6C3.22 6 3 5.78 3 5.5L3 4.5C3 4.22 3.22 4 3.5 4L4 4L4 3L3 3C2.45 3 2 3.45 2 4L2 14L0 14L0 4C0 2.34 1.34 1 3 1L14 1ZM10.16 7C10.33 7 10.48 7.11 10.53 7.26L11.22 9.33C11.65 9.33 12 9.68 12 10.11L12 12.5L11.25 12.5L11.25 13.25C11.25 13.66 10.91 14 10.5 14C10.09 14 9.75 13.66 9.75 13.25L9.75 12.5L7.25 12.5L7.25 13.25C7.25 13.66 6.91 14 6.5 14C6.09 14 5.75 13.66 5.75 13.25L5.75 12.5L5 12.5L5 10.11C5 9.68 5.35 9.33 5.78 9.33L6.47 7.26C6.52 7.11 6.67 7 6.84 7L10.16 7ZM6.56 10.11C6.13 10.11 5.78 10.46 5.78 10.89C5.78 11.32 6.13 11.67 6.56 11.67C6.98 11.67 7.33 11.32 7.33 10.89C7.33 10.46 6.98 10.11 6.56 10.11ZM10.44 10.11C10.02 10.11 9.67 10.46 9.67 10.89C9.67 11.32 10.02 11.67 10.44 11.67C10.87 11.67 11.22 11.32 11.22 10.89C11.22 10.46 10.87 10.11 10.44 10.11ZM9.85 8L7.15 8L6.75 9.25L10.25 9.25L9.85 8Z"/>
</svg>