<svg xmlns="http://www.w3.org/2000/svg" viewBox="0 0 15 15">
  <path fill="param(fill) #888" stroke="param(outline) #000" stroke-width="param(outline-width) 0" fill-opacity="param(fill-opacity) 1" stroke-opacity="param(outline-opacity) 1" d="M7.64 6C7.85 6 8.04 6.14 8.11 6.34L9 9C9.55 9 10 9.45 10 10L10 13L9 13L9 14C9 14.55 8.55 15 8 15C7.45 15 7 14.55 7 14L7 13L4 13L4 14C4 14.55 3.55 15 3 15C2.45 15 2 14.55 2 14L2 13L1 13L1 10C1 9.45 1.45 9 2 9L2.89 6.34C2.96 6.14 3.15 6 3.36 6L7.64 6ZM3 10C2.45 10 2 10.45 2 11C2 11.55 2.45 12 3 12C3.55 12 4 11.55 4 11C4 10.45 3.55 10 3 10ZM8 10C7.45 10 7 10.45 7 11C7 11.55 7.45 12 8 12C8.55 12 9 11.55 9 11C9 10.45 8.55 10 8 10ZM7.38 7L3.62 7L3 9L8 9L7.38 7ZM11.5 3L11.5 4.5L14.5 4.5L14.5 5.5L11.5 5.5L11.5 7L9.5 5L11.5 3ZM13 0L15 2L13 4L13 2.5L10 2.5L10 1.5L13 1.5L13 0Z"/>
</svg>