<svg xmlns="http://www.w3.org/2000/svg" viewBox="0 0 15 15">
  <path fill="param(fill) #888" stroke="param(outline) #000" stroke-width="param(outline-width) 0" fill-opacity="param(fill-opacity) 1" stroke-opacity="param(outline-opacity) 1" d="M12 0v1h-0.5c-0.83 0 -1.5 0.67 -1.5 1.5s0.67 1.5 1.5 1.5h0.5v1h-2c0 0.5 0.5 1 1 1h1v1h1v-1h0.5c0.83 0 1.5 -0.67 1.5 -1.5s-0.67 -1.5 -1.5 -1.5h-0.5v-1h2c0 -0.5 -0.5 -1 -1 -1h-1v-1h-1zm-0.5 2h0.5v1h-0.5c-0.28 0 -0.5 -0.22 -0.5 -0.5s0.22 -0.5 0.5 -0.5zm1.5 2h0.5c0.28 0 0.5 0.22 0.5 0.5s-0.22 0.5 -0.5 0.5h-0.5v-1zm-9.64 1c-0.21 0 -0.4 0.14 -0.47 0.34l-0.89 2.66c-0.55 0 -1 0.45 -1 1v3h1v1c0 0.55 0.45 1 1 1s1 -0.45 1 -1v-1h3v1c0 0.55 0.45 1 1 1s1 -0.45 1 -1v-1h1v-3c0 -0.55 -0.45 -1 -1 -1l-0.89 -2.66c-0.07 -0.2 -0.26 -0.34 -0.47 -0.34h-4.28zm0.26 1h3.76l0.62 2h-5l0.62 -2zm-0.62 3c0.55 0 1 0.45 1 1s-0.45 1 -1 1s-1 -0.45 -1 -1s0.45 -1 1 -1zm5 0c0.55 0 1 0.45 1 1s-0.45 1 -1 1s-1 -0.45 -1 -1s0.45 -1 1 -1z"/>
</svg>