<svg xmlns="http://www.w3.org/2000/svg" viewBox="0 0 15 15">
  <path fill="param(fill) #888" stroke="param(outline) #000" stroke-width="param(outline-width) 0" fill-opacity="param(fill-opacity) 1" stroke-opacity="param(outline-opacity) 1" d="M5.16 4C5.33 4 5.48 4.11 5.53 4.26L6.22 6.33C6.65 6.33 7 6.68 7 7.11L7 9.5L6.25 9.5L6.25 10.25C6.25 10.66 5.91 11 5.5 11C5.09 11 4.75 10.66 4.75 10.25L4.75 9.5L2.25 9.5L2.25 10.25C2.25 10.66 1.91 11 1.5 11C1.09 11 0.75 10.66 0.75 10.25L0.75 9.5L0 9.5L0 7.11C0 6.68 0.35 6.33 0.78 6.33L1.47 4.26C1.52 4.11 1.67 4 1.84 4L5.16 4ZM1.56 7.11C1.13 7.11 0.78 7.46 0.78 7.89C0.78 8.32 1.13 8.67 1.56 8.67C1.98 8.67 2.33 8.32 2.33 7.89C2.33 7.46 1.98 7.11 1.56 7.11ZM5.44 7.11C5.02 7.11 4.67 7.46 4.67 7.89C4.67 8.32 5.02 8.67 5.44 8.67C5.87 8.67 6.22 8.32 6.22 7.89C6.22 7.46 5.87 7.11 5.44 7.11ZM4.85 5L2.15 5L1.75 6.25L5.25 6.25L4.85 5ZM13.16 4C13.33 4 13.48 4.11 13.53 4.26L14.22 6.33C14.65 6.33 15 6.68 15 7.11L15 9.5L14.25 9.5L14.25 10.25C14.25 10.66 13.91 11 13.5 11C13.09 11 12.75 10.66 12.75 10.25L12.75 9.5L10.25 9.5L10.25 10.25C10.25 10.66 9.91 11 9.5 11C9.09 11 8.75 10.66 8.75 10.25L8.75 9.5L8 9.5L8 7.11C8 6.68 8.35 6.33 8.78 6.33L9.47 4.26C9.52 4.11 9.67 4 9.84 4L13.16 4ZM9.56 7.11C9.13 7.11 8.78 7.46 8.78 7.89C8.78 8.32 9.13 8.67 9.56 8.67C9.98 8.67 10.33 8.32 10.33 7.89C10.33 7.46 9.98 7.11 9.56 7.11ZM13.44 7.11C13.02 7.11 12.67 7.46 12.67 7.89C12.67 8.32 13.02 8.67 13.44 8.67C13.87 8.67 14.22 8.32 14.22 7.89C14.22 7.46 13.87 7.11 13.44 7.11ZM12.85 5L10.15 5L9.75 6.25L13.25 6.25L12.85 5Z"/>
</svg>