<svg xmlns="http://www.w3.org/2000/svg" viewBox="0 0 15 15">
  <path fill="param(fill) #888" stroke="param(outline) #000" stroke-width="param(outline-width) 0" fill-opacity="param(fill-opacity) 1" stroke-opacity="param(outline-opacity) 1" d="M9.64 5C9.85 5 10.04 5.14 10.11 5.34L11 8C11.55 8 12 8.45 12 9L12 12L11 12L11 13C11 13.55 10.55 14 10 14C9.45 14 9 13.55 9 13L9 12L6 12L6 13C6 13.55 5.55 14 5 14C4.45 14 4 13.55 4 13L4 12L3 12L3 9C3 8.45 3.45 8 4 8L4.89 5.34C4.96 5.14 5.15 5 5.36 5L9.64 5ZM7.5 0L15 4L15 14L13 14L13 5.43L7.5 2.5L2 5.43L2 14L0 14L0 4L7.5 0ZM5 9C4.45 9 4 9.45 4 10C4 10.55 4.45 11 5 11C5.55 11 6 10.55 6 10C6 9.45 5.55 9 5 9ZM10 9C9.45 9 9 9.45 9 10C9 10.55 9.45 11 10 11C10.55 11 11 10.55 11 10C11 9.45 10.55 9 10 9ZM9.38 6L5.62 6L5 8L10 8L9.38 6Z"/>
</svg>