<?xml version="1.0" encoding="UTF-8"?>
<svg viewBox="0 0 15 15" version="1.1" xmlns="http://www.w3.org/2000/svg" xmlns:xlink="http://www.w3.org/1999/xlink">
  <path fill="param(fill) #888" stroke="param(outline) #000" stroke-width="param(outline-width) 0" fill-opacity="param(fill-opacity) 1" stroke-opacity="param(outline-opacity) 1" d="M9.64 6C9.85 6 10.04 6.14 10.11 6.34L11 9C11.55 9 12 9.45 12 10L12 13L11 13L11 14C11 14.55 10.55 15 10 15C9.45 15 9 14.55 9 14L9 13L6 13L6 14C6 14.55 5.55 15 5 15C4.45 15 4 14.55 4 14L4 13L3 13L3 10C3 9.45 3.45 9 4 9L4.89 6.34C4.96 6.14 5.15 6 5.36 6L9.64 6ZM13.5 -0.12C13.85 -0.12 14.13 0.15 14.13 0.5L14.13 13.13L12.88 13.13L12.88 2.13L11 2.13L11 3L10.65 3L8.65 5L6.85 5L8.85 3L10 3L10 2.13L5 2.13L5 3L5.65 3L3.65 5L3.5 5C3.22 5 3 4.78 3 4.5L3 3.5C3 3.22 3.22 3 3.5 3L4 3L4 2.13L2.13 2.13L2.13 13.13L0.88 13.13L0.88 0.5C0.88 0.15 1.15 -0.12 1.5 -0.12C1.85 -0.12 2.13 0.15 2.13 0.5L2.13 0.88L12.88 0.88L12.88 0.5C12.88 0.15 13.15 -0.12 13.5 -0.12ZM5 10C4.45 10 4 10.45 4 11C4 11.55 4.45 12 5 12C5.55 12 6 11.55 6 11C6 10.45 5.55 10 5 10ZM10 10C9.45 10 9 10.45 9 11C9 11.55 9.45 12 10 12C10.55 12 11 11.55 11 11C11 10.45 10.55 10 10 10ZM9.38 7L5.62 7L5 9L10 9L9.38 7ZM8.15 3L6.15 5L4.35 5L6.35 3L8.15 3ZM11.5 3C11.78 3 12 3.22 12 3.5L12 4.5C12 4.78 11.78 5 11.5 5L9.35 5L11.35 3L11.5 3Z"/>
</svg>