<svg xmlns="http://www.w3.org/2000/svg" viewBox="0 0 15 15">
  <path fill="param(fill) #888" stroke="param(outline) #000" stroke-width="param(outline-width) 0" fill-opacity="param(fill-opacity) 1" stroke-opacity="param(outline-opacity) 1" d="M7.5 0C3.38 0 0 3.38 0 7.5C0 11.62 3.38 15 7.5 15C11.62 15 15 11.62 15 7.5C15 3.38 11.62 0 7.5 0ZM7 3.25L6.43 5.06C6.03 5.23 5.66 5.49 5.39 5.83L3.58 5.79C4.18 4.42 5.45 3.43 7 3.25L7 3.25L7 3.25ZM8 3.25C9.56 3.43 10.86 4.41 11.45 5.79L9.61 5.86C9.34 5.51 8.98 5.24 8.57 5.06L8 3.25ZM7.5 6.43C8.09 6.43 8.57 6.91 8.57 7.5C8.57 8.09 8.09 8.57 7.5 8.57C6.91 8.57 6.43 8.09 6.43 7.5C6.43 6.91 6.91 6.43 7.5 6.43L7.5 6.43ZM3.25 6.93L4.85 7.9C4.9 8.19 5 8.46 5.12 8.71L4.39 10.45C3.66 9.68 3.21 8.65 3.21 7.5C3.21 7.31 3.22 7.12 3.25 6.93L3.25 6.93L3.25 6.93ZM11.75 6.93C11.78 7.12 11.79 7.31 11.79 7.5C11.79 8.66 11.35 9.71 10.61 10.48L9.88 8.71C10 8.46 10.1 8.19 10.14 7.9L11.75 6.93L11.75 6.93L11.75 6.93ZM6.8 10.08C7.02 10.14 7.25 10.18 7.5 10.18C7.75 10.18 7.98 10.14 8.2 10.08L9.74 11.15C9.09 11.55 8.33 11.79 7.5 11.79C6.66 11.79 5.88 11.56 5.22 11.15L6.8 10.08L6.8 10.08Z"/>
</svg>