<svg xmlns="http://www.w3.org/2000/svg" viewBox="0 0 15 15">
  <path fill="param(fill) #888" stroke="param(outline) #000" stroke-width="param(outline-width) 0" fill-opacity="param(fill-opacity) 1" stroke-opacity="param(outline-opacity) 1" d="M1 0L8 0L8 1L1 1zM1 2L8 2L8 3L1 3zM1 4L8 4L8 5L1 5zM13.25 0L11.25 3.5L10.25 2L8.5 2L10.5 5L12 5L15 0zM5.5 7C5.22 7 5 7.22 5 7.5C5 7.78 5.22 8 5.5 8L6.14 8L7.81 13L6.81 13L5.77 9.92C5.91 9.83 6 9.67 6 9.5C6 9.22 5.78 9 5.5 9L5 9L4 9C3.72 9 3.5 9.22 3.5 9.5C3.5 9.78 3.72 10 4 10L4.69 10L6.05 13.72C6.14 13.89 6.31 14 6.5 14L8.5 14L9.5 14L10.5 14C10.69 14 10.86 13.89 10.95 13.73L12.97 10.73C13.12 10.43 12.94 10.07 12.62 10.01L7.52 8.99L6.97 7.34C6.91 7.14 6.72 7 6.5 7L5.5 7ZM2.5 9.99C1.12 9.99 0 11.12 0 12.5C0 13.88 1.12 15.01 2.5 15.01C3.88 15.01 5 13.88 5 12.5C5 11.12 3.88 9.99 2.5 9.99ZM2.5 10.92C3.37 10.92 4.07 11.62 4.07 12.5C4.07 13.38 3.37 14.08 2.5 14.08C1.63 14.08 0.93 13.38 0.93 12.5C0.93 11.62 1.63 10.92 2.5 10.92ZM13.5 12C12.68 12 12 12.68 12 13.51C12 14.34 12.68 15.01 13.5 15.01C14.32 15.01 15 14.33 15 13.51C15 12.68 14.32 12 13.5 12ZM13.5 12.81C13.89 12.81 14.19 13.12 14.19 13.51C14.19 13.9 13.88 14.21 13.5 14.21C13.11 14.21 12.81 13.9 12.81 13.51C12.81 13.12 13.12 12.81 13.5 12.81Z"/>
</svg>