<svg xmlns="http://www.w3.org/2000/svg" viewBox="0 0 15 15">
  <path fill="param(fill) #888" stroke="param(outline) #000" stroke-width="param(outline-width) 0" fill-opacity="param(fill-opacity) 1" stroke-opacity="param(outline-opacity) 1" d="M2.5 8.99C3.88 8.99 5 10.12 5 11.5C5 12.88 3.88 14.01 2.5 14.01C1.12 14.01 0 12.88 0 11.5C0 10.12 1.12 8.99 2.5 8.99ZM13.5 11C14.32 11 15 11.68 15 12.51C15 13.33 14.32 14.01 13.5 14.01C12.68 14.01 12 13.34 12 12.51C12 11.68 12.68 11 13.5 11ZM13.5 11.81C13.12 11.81 12.81 12.12 12.81 12.51C12.81 12.9 13.11 13.21 13.5 13.21C13.88 13.21 14.19 12.9 14.19 12.51C14.19 12.12 13.89 11.81 13.5 11.81ZM2.5 9.92C1.63 9.92 0.93 10.62 0.93 11.5C0.93 12.38 1.63 13.08 2.5 13.08C3.37 13.08 4.07 12.38 4.07 11.5C4.07 10.62 3.37 9.92 2.5 9.92ZM6.5 6C6.72 6 6.91 6.14 6.97 6.34L7.52 7.99L12.62 9.01C12.94 9.07 13.12 9.43 12.97 9.73L10.95 12.73C10.86 12.89 10.69 13 10.5 13L6.5 13C6.31 13 6.14 12.89 6.05 12.72L4.69 9L4 9C3.72 9 3.5 8.78 3.5 8.5C3.5 8.22 3.72 8 4 8L5.5 8C5.78 8 6 8.22 6 8.5C6 8.67 5.91 8.83 5.77 8.92L6.81 12L7.81 12L6.14 7L5.5 7C5.22 7 5 6.78 5 6.5C5 6.22 5.22 6 5.5 6L6.5 6ZM13 0L13 1L13.5 1C14.28 1 14.92 1.59 14.99 2.36L15 2.5L14 2.5C14 2.22 13.78 2 13.5 2L13 2L13 3L13.5 3C14.33 3 15 3.67 15 4.5C15 5.33 14.33 6 13.5 6L13 6L13 7L12 7L12 6L11.5 6C10.72 6 10.08 5.41 10.01 4.64L10 4.5L11 4.5C11 4.78 11.22 5 11.5 5L12 5L12 4L11.5 4C10.67 4 10 3.33 10 2.5C10 1.67 10.67 1 11.5 1L12 1L12 0L13 0ZM13 5L13.5 5C13.78 5 14 4.78 14 4.5C14 4.22 13.78 4 13.5 4L13 4L13 5ZM12 3L12 2L11.5 2C11.22 2 11 2.22 11 2.5C11 2.78 11.22 3 11.5 3L12 3Z"/>
</svg>