<svg xmlns="http://www.w3.org/2000/svg" viewBox="0 0 15 15">
  <path fill="param(fill) #888" stroke="param(outline) #000" stroke-width="param(outline-width) 0" fill-opacity="param(fill-opacity) 1" stroke-opacity="param(outline-opacity) 1" d="M2.5 8.99c1.38 0 2.5 1.13 2.5 2.51s-1.12 2.51 -2.5 2.51s-2.5 -1.13 -2.5 -2.51s1.12 -2.51 2.5 -2.51zm11 2.01c0.82 0 1.5 0.68 1.5 1.51c0 0.82 -0.68 1.5 -1.5 1.5s-1.5 -0.67 -1.5 -1.5s0.68 -1.51 1.5 -1.51zm0 0.81c-0.38 0 -0.69 0.31 -0.69 0.7s0.3 0.7 0.69 0.7c0.38 0 0.69 -0.31 0.69 -0.7s-0.3 -0.7 -0.69 -0.7zm-11 -1.89c-0.87 0 -1.57 0.7 -1.57 1.58s0.7 1.58 1.57 1.58s1.57 -0.7 1.57 -1.58s-0.7 -1.58 -1.57 -1.58zm4 -3.92c0.22 0 0.41 0.14 0.47 0.34l0.55 1.65l5.1 1.02c0.32 0.06 0.5 0.42 0.35 0.72l-2.02 3c-0.09 0.16 -0.26 0.27 -0.45 0.27h-4c-0.19 0 -0.36 -0.11 -0.45 -0.28l-1.36 -3.72h-0.69c-0.28 0 -0.5 -0.22 -0.5 -0.5s0.22 -0.5 0.5 -0.5h1.5c0.28 0 0.5 0.22 0.5 0.5c0 0.17 -0.09 0.33 -0.23 0.42l1.04 3.08h1l-1.67 -5h-0.64c-0.28 0 -0.5 -0.22 -0.5 -0.5s0.22 -0.5 0.5 -0.5zm6.5 -6v1h1c0.5 0 1 0.5 1 1h-2v1h0.5c0.83 0 1.5 0.67 1.5 1.5s-0.67 1.5 -1.5 1.5h-0.5v1h-1v-1h-1c-0.5 0 -1 -0.5 -1 -1h2v-1h-0.5c-0.83 0 -1.5 -0.67 -1.5 -1.5s0.67 -1.5 1.5 -1.5h0.5v-1zm0 5h0.5c0.28 0 0.5 -0.22 0.5 -0.5s-0.22 -0.5 -0.5 -0.5h-0.5zm-1 -2v-1h-0.5c-0.28 0 -0.5 0.22 -0.5 0.5s0.22 0.5 0.5 0.5z"/>
</svg>