<svg xmlns="http://www.w3.org/2000/svg" viewBox="0 0 15 15">
  <path fill="param(fill) #888" stroke="param(outline) #000" stroke-width="param(outline-width) 0" fill-opacity="param(fill-opacity) 1" stroke-opacity="param(outline-opacity) 1" d="M5.5 6C5.22 6 5 6.22 5 6.5C5 6.78 5.22 7 5.5 7L6.14 7L7.81 12L6.81 12L5.77 8.92C5.91 8.83 6 8.67 6 8.5C6 8.22 5.78 8 5.5 8L5 8L4 8C3.72 8 3.5 8.22 3.5 8.5C3.5 8.78 3.72 9 4 9L4.69 9L6.05 12.72C6.14 12.89 6.31 13 6.5 13L8.5 13L9.5 13L10.5 13C10.69 13 10.86 12.89 10.95 12.73L12.97 9.73C13.12 9.43 12.94 9.07 12.62 9.01L7.52 7.99L6.97 6.34C6.91 6.14 6.72 6 6.5 6L5.5 6ZM2.5 8.99C1.12 8.99 0 10.12 0 11.5C0 12.88 1.12 14.01 2.5 14.01C3.88 14.01 5 12.88 5 11.5C5 10.12 3.88 8.99 2.5 8.99ZM2.5 9.92C3.37 9.92 4.07 10.62 4.07 11.5C4.07 12.38 3.37 13.08 2.5 13.08C1.63 13.08 0.93 12.38 0.93 11.5C0.93 10.62 1.63 9.92 2.5 9.92ZM13.5 11C12.68 11 12 11.68 12 12.51C12 13.34 12.68 14.01 13.5 14.01C14.32 14.01 15 13.33 15 12.51C15 11.68 14.32 11 13.5 11ZM13.5 11.81C13.89 11.81 14.19 12.12 14.19 12.51C14.19 12.9 13.88 13.21 13.5 13.21C13.11 13.21 12.81 12.9 12.81 12.51C12.81 12.12 13.12 11.81 13.5 11.81ZM6.5 2.5L6.5 4.5L4.5 4.5L4.5 2.5L6.5 2.5ZM10.5 2.5L10.5 4.5L8.5 4.5L8.5 2.5L10.5 2.5ZM4.5 0.5L4.5 2.5L2.5 2.5L2.5 0.5L4.5 0.5ZM8.5 0.5L8.5 2.5L6.5 2.5L6.5 0.5L8.5 0.5ZM12.5 0.5L12.5 2.5L10.5 2.5L10.5 0.5L12.5 0.5Z"/>
</svg>