<svg xmlns="http://www.w3.org/2000/svg" viewBox="0 0 15 15">
  <path fill="param(fill) #888" stroke="param(outline) #000" stroke-width="param(outline-width) 0" fill-opacity="param(fill-opacity) 1" stroke-opacity="param(outline-opacity) 1" d="M2.5 8.99C3.88 8.99 5 10.12 5 11.5C5 12.88 3.88 14.01 2.5 14.01C1.12 14.01 0 12.88 0 11.5C0 10.12 1.12 8.99 2.5 8.99ZM13.5 11C14.32 11 15 11.68 15 12.51C15 13.33 14.32 14.01 13.5 14.01C12.68 14.01 12 13.34 12 12.51C12 11.68 12.68 11 13.5 11ZM13.5 11.81C13.12 11.81 12.81 12.12 12.81 12.51C12.81 12.9 13.11 13.21 13.5 13.21C13.88 13.21 14.19 12.9 14.19 12.51C14.19 12.12 13.89 11.81 13.5 11.81ZM2.5 9.92C1.63 9.92 0.93 10.62 0.93 11.5C0.93 12.38 1.63 13.08 2.5 13.08C3.37 13.08 4.07 12.38 4.07 11.5C4.07 10.62 3.37 9.92 2.5 9.92ZM6.5 6C6.72 6 6.91 6.14 6.97 6.34L7.52 7.99L12.62 9.01C12.94 9.07 13.12 9.43 12.97 9.73L10.95 12.73C10.86 12.89 10.69 13 10.5 13L6.5 13C6.31 13 6.14 12.89 6.05 12.72L4.69 9L4 9C3.72 9 3.5 8.78 3.5 8.5C3.5 8.22 3.72 8 4 8L5.5 8C5.78 8 6 8.22 6 8.5C6 8.67 5.91 8.83 5.77 8.92L6.81 12L7.81 12L6.14 7L5.5 7C5.22 7 5 6.78 5 6.5C5 6.22 5.22 6 5.5 6L6.5 6ZM12 0C13.03 0 13.91 0.62 14.29 1.5L15 1.5L15 2.25L14.49 2.25C14.5 2.33 14.5 2.42 14.5 2.5C14.5 2.58 14.5 2.67 14.49 2.75L15 2.75L15 3.5L14.29 3.5C13.91 4.38 13.02 5 12 5L11 5L11 7L10 7L10 3.5L9 3.5L9 2.75L10 2.75L10 2.25L9 2.25L9 1.5L10 1.5L10 0L12 0ZM11 3.5L11 4L12 4C12.44 4 12.84 3.81 13.12 3.5L11 3.5ZM13.48 2.25L11 2.25L11 2.75L13.48 2.75C13.49 2.67 13.5 2.59 13.5 2.5C13.5 2.41 13.49 2.33 13.48 2.25ZM12 1L11 1L11 1.5L13.12 1.5C12.84 1.19 12.44 1 12 1Z"/>
</svg>