<svg xmlns="http://www.w3.org/2000/svg" viewBox="0 0 15 15">
  <path fill="param(fill) #888" stroke="param(outline) #000" stroke-width="param(outline-width) 0" fill-opacity="param(fill-opacity) 1" stroke-opacity="param(outline-opacity) 1" d="M2.5 8.99C3.88 8.99 5 10.12 5 11.5C5 12.88 3.88 14.01 2.5 14.01C1.12 14.01 0 12.88 0 11.5C0 10.12 1.12 8.99 2.5 8.99ZM13.5 11C14.32 11 15 11.68 15 12.51C15 13.33 14.32 14.01 13.5 14.01C12.68 14.01 12 13.34 12 12.51C12 11.68 12.68 11 13.5 11ZM13.5 11.81C13.12 11.81 12.81 12.12 12.81 12.51C12.81 12.9 13.11 13.21 13.5 13.21C13.88 13.21 14.19 12.9 14.19 12.51C14.19 12.12 13.89 11.81 13.5 11.81ZM2.5 9.92C1.63 9.92 0.93 10.62 0.93 11.5C0.93 12.38 1.63 13.08 2.5 13.08C3.37 13.08 4.07 12.38 4.07 11.5C4.07 10.62 3.37 9.92 2.5 9.92ZM6.5 6C6.72 6 6.91 6.14 6.97 6.34L7.52 7.99L12.62 9.01C12.94 9.07 13.12 9.43 12.97 9.73L10.95 12.73C10.86 12.89 10.69 13 10.5 13L6.5 13C6.31 13 6.14 12.89 6.05 12.72L4.69 9L4 9C3.72 9 3.5 8.78 3.5 8.5C3.5 8.22 3.72 8 4 8L5.5 8C5.78 8 6 8.22 6 8.5C6 8.67 5.91 8.83 5.77 8.92L6.81 12L7.81 12L6.14 7L5.5 7C5.22 7 5 6.78 5 6.5C5 6.22 5.22 6 5.5 6L6.5 6ZM13 0L13 1L13.53 1C14.33 1 14.97 1.64 14.97 2.44C14.97 2.79 14.84 3.13 14.61 3.39L14.5 3.5C15.09 4.03 15.13 4.94 14.6 5.53C14.32 5.83 13.94 6 13.53 6L13 6L13 7L12 7L12 6L10 6L10 1L12 1L12 0L13 0ZM12 3.8L11 3.8L11 5L12 5L12 3.8ZM13.34 3.8L13 3.8L13 5L13.53 5C13.63 5 13.73 4.97 13.8 4.91L13.86 4.86C14.02 4.68 14.01 4.4 13.83 4.24L13.34 3.8ZM12 2L11 2L11 3.2L12 3.2L12 2ZM13.53 2L13 2L13 3.2L13.34 3.2L13.83 2.76C13.92 2.68 13.97 2.56 13.97 2.44C13.97 2.2 13.77 2 13.53 2Z"/>
</svg>