<svg xmlns="http://www.w3.org/2000/svg" viewBox="0 0 15 15">
  <path fill="param(fill) #888" stroke="param(outline) #000" stroke-width="param(outline-width) 0" fill-opacity="param(fill-opacity) 1" stroke-opacity="param(outline-opacity) 1" d="M10.3 2l-0.9 0l-0.4 1h1.05c-0.04 0.33 -0.04 0.67 0 1h-0.65l-0.4 1h1.3c0.82 2.04 3 2.64 4.46 1.22l-0.51 -0.92c-0.87 1.09 -2.19 0.83 -2.84 -0.3h1.62l0.4 -1h-2.36c-0.05 -0.33 -0.05 -0.67 0 -1h2.76l0.4 -1h-2.82c0.75 -1.31 2.16 -1.25 2.94 -0.28c0 0 0.39 -0.96 0.39 -0.97c-1.46 -1.38 -3.62 -0.79 -4.44 1.25zm-4.8 4c-0.28 0 -0.5 0.22 -0.5 0.5s0.22 0.5 0.5 0.5h0.64l1.67 5h-1l-1.04 -3.08c0.14 -0.09 0.23 -0.25 0.23 -0.42c0 -0.28 -0.22 -0.5 -0.5 -0.5h-1.5c-0.28 0 -0.5 0.22 -0.5 0.5s0.22 0.5 0.5 0.5h0.69l1.36 3.72c0.09 0.17 0.26 0.28 0.45 0.28h4c0.19 0 0.36 -0.11 0.45 -0.27l2.02 -3c0.15 -0.3 -0.03 -0.66 -0.35 -0.72l-5.1 -1.02l-0.55 -1.65c-0.06 -0.2 -0.25 -0.34 -0.47 -0.34zm-3 2.99c-1.38 0 -2.5 1.13 -2.5 2.51s1.12 2.51 2.5 2.51s2.5 -1.13 2.5 -2.51s-1.12 -2.51 -2.5 -2.51zm0 0.93c0.87 0 1.57 0.7 1.57 1.58s-0.7 1.58 -1.57 1.58s-1.57 -0.7 -1.57 -1.58s0.7 -1.58 1.57 -1.58zm11 1.08c-0.82 0 -1.5 0.68 -1.5 1.51s0.68 1.5 1.5 1.5s1.5 -0.68 1.5 -1.5c0 -0.83 -0.68 -1.51 -1.5 -1.51zm0 0.81c0.39 0 0.69 0.31 0.69 0.7s-0.31 0.7 -0.69 0.7c-0.39 0 -0.69 -0.31 -0.69 -0.7s0.31 -0.7 0.69 -0.7z"/>
</svg>