<svg xmlns="http://www.w3.org/2000/svg" viewBox="0 0 15 15">
  <path fill="param(fill) #888" stroke="param(outline) #000" stroke-width="param(outline-width) 0" fill-opacity="param(fill-opacity) 1" stroke-opacity="param(outline-opacity) 1" d="M5.45 2.3C5.66 2.3 5.86 2.43 5.93 2.64L6.48 3.93C6.82 4 7.02 4.27 7.02 4.61L7.02 6.11L6.55 6.11L6.55 6.59C6.55 6.8 6.41 6.93 6.27 7L8.73 7C8.59 6.93 8.45 6.8 8.45 6.59L8.45 6.11L7.98 6.11L7.98 4.61C7.98 4.27 8.25 4 8.52 3.93L9.07 2.64C9.14 2.43 9.34 2.3 9.55 2.3L12.34 2.3C12.55 2.3 12.75 2.43 12.82 2.64L13.36 3.93C13.7 4 13.91 4.27 13.91 4.61L13.91 6.11L13.43 6.11L13.43 6.59C13.43 6.8 13.3 6.93 13.16 7L15 7L15 8L14 8L13.41 9.18C13.12 9.06 12.82 9 12.5 9C11.95 9 11.42 9.19 10.98 9.53L10.67 9.78C10.5 9.92 10.28 10 10.05 10L9.95 10C9.72 10 9.5 9.92 9.33 9.78L9.01 9.53C8.58 9.19 8.05 9 7.5 9C6.95 9 6.42 9.19 5.99 9.53L5.67 9.78C5.5 9.92 5.28 10 5.05 10L4.95 10C4.72 10 4.5 9.92 4.33 9.78L4.01 9.53C3.58 9.19 3.05 9 2.5 9C2.19 9 1.88 9.06 1.59 9.18L1 8L0 8L0 7L1.84 7C1.7 6.93 1.57 6.8 1.57 6.59L1.57 6.11L1.09 6.11L1.09 4.61C1.09 4.27 1.36 4 1.64 3.93L2.18 2.64C2.25 2.43 2.45 2.3 2.66 2.3L5.45 2.3ZM5.59 6.11L2.52 6.11L2.52 6.59C2.52 6.8 2.39 6.93 2.25 7L5.86 7C5.73 6.93 5.59 6.8 5.59 6.59L5.59 6.11ZM12.55 6.11L9.48 6.11L9.48 6.59C9.48 6.8 9.34 6.93 9.2 7L12.82 7C12.68 6.93 12.55 6.8 12.55 6.59L12.55 6.11ZM5.39 2.7L2.69 2.7C2.63 2.7 2.59 2.71 2.59 2.77L2.05 4.34L2.05 5.02L2.73 5.02L2.73 4.34L5.45 4.34L5.45 5.02L6.14 5.02L6.14 4.34L5.52 2.77L5.48 2.74C5.45 2.72 5.42 2.7 5.39 2.7ZM12.27 2.7L9.57 2.7C9.52 2.7 9.48 2.71 9.48 2.77L8.86 4.34L8.86 5.02L9.55 5.02L9.55 4.34L12.27 4.34L12.27 5.02L12.95 5.02L12.95 4.34L12.41 2.77L12.37 2.74C12.34 2.72 12.31 2.7 12.27 2.7ZM6.3 12.06L6.61 11.81C6.86 11.61 7.18 11.5 7.5 11.5C7.82 11.5 8.14 11.61 8.39 11.81L8.7 12.06C9.06 12.34 9.5 12.5 9.95 12.5L10.05 12.5C10.5 12.5 10.94 12.34 11.3 12.06L11.61 11.81C11.86 11.61 12.18 11.5 12.5 11.5C12.82 11.5 13.14 11.61 13.39 11.81L13.71 12.06C14.01 12.31 14.39 12.46 14.78 12.49L15 12.5L15 11L14.95 11C14.49 11 14.06 10.85 13.71 10.57L13.39 10.31C13.14 10.11 12.82 10 12.5 10C12.18 10 11.86 10.11 11.61 10.31L11.3 10.56C10.94 10.85 10.5 11 10.05 11L9.95 11C9.5 11 9.06 10.85 8.7 10.56L8.39 10.31C8.14 10.11 7.82 10 7.5 10C7.18 10 6.86 10.11 6.61 10.31L6.3 10.56C5.94 10.85 5.5 11 5.05 11L4.95 11C4.5 11 4.06 10.85 3.7 10.56L3.39 10.31C3.14 10.11 2.82 10 2.5 10C2.18 10 1.86 10.11 1.61 10.31L1.29 10.57C0.99 10.81 0.61 10.96 0.22 11L0 11L0 12.5L0.05 12.5C0.51 12.5 0.94 12.34 1.29 12.06L1.61 11.81C1.86 11.61 2.18 11.5 2.5 11.5C2.82 11.5 3.14 11.61 3.39 11.81L3.7 12.06C4.06 12.34 4.5 12.5 4.95 12.5L5.05 12.5C5.5 12.5 5.94 12.34 6.3 12.06Z"/>
</svg>