<svg xmlns="http://www.w3.org/2000/svg" viewBox="0 0 15 15">
  <path fill="param(fill) #888" stroke="param(outline) #000" stroke-width="param(outline-width) 0" fill-opacity="param(fill-opacity) 1" stroke-opacity="param(outline-opacity) 1" d="M8.84 0C8.74 -0.02 8.63 0.04 8.59 0.14L8.12 1.25C7.99 1.53 8.42 1.72 8.54 1.43L9.01 0.32C9.07 0.19 8.99 0.03 8.84 0ZM6.52 0.42C6.3 0.36 6.15 0.63 6.3 0.8L7.15 1.71C7.36 1.94 7.69 1.62 7.49 1.4L6.64 0.49C6.61 0.45 6.57 0.43 6.52 0.42ZM10.26 2.14C10.25 2.13 10.24 2.13 10.22 2.13L9.11 2.08C8.8 2.06 8.78 2.52 9.09 2.53L10.2 2.59C10.48 2.6 10.54 2.2 10.26 2.14ZM8.19 2.37C7.91 2.31 7.65 2.52 7.64 2.81C7.64 2.81 7.54 4.01 8.44 4.72C8.99 5.16 9.69 5.13 10.33 5.21C10.65 5.25 10.96 5.3 11.18 5.37C11.4 5.45 11.53 5.54 11.59 5.64C11.64 5.72 11.64 5.64 11.58 5.72C11.53 5.79 11.36 5.93 11.15 6.04C11.13 6.06 11.1 6.07 11.07 6.08L10.53 5.62C10.5 5.59 10.47 5.57 10.43 5.57C10.37 5.55 10.31 5.57 10.26 5.6C10.26 5.6 10.05 5.73 9.82 5.88C9.71 5.95 9.6 6.03 9.5 6.1C9.5 6.1 9.5 6.1 9.49 6.11C9.47 6.12 9.44 6.13 9.42 6.14L9.23 6.27C7.32 5.27 5.11 5.57 3.57 7.37C2.03 9.16 2.12 12.27 4.07 13.95C6.01 15.62 9.13 15.18 10.61 13.44C12.1 11.71 12.09 9.75 11.07 8.03L11.66 6.81C11.66 6.81 11.66 6.8 11.66 6.8C11.9 6.66 12.14 6.5 12.32 6.25C12.52 5.98 12.58 5.5 12.36 5.15C12.14 4.81 11.81 4.62 11.47 4.51C11.14 4.39 10.79 4.34 10.45 4.3C9.77 4.21 9.12 4.1 9 4C8.56 3.65 8.55 2.84 8.55 2.84C8.56 2.62 8.41 2.42 8.19 2.37ZM7.03 2.34C6.98 2.33 6.93 2.33 6.88 2.36L5.76 2.91C5.49 3.04 5.69 3.45 5.96 3.32L7.08 2.77C7.28 2.67 7.25 2.38 7.03 2.34ZM6.81 7.14C6.21 7.55 5.69 7.99 5.26 8.45C4.87 8.88 4.54 9.34 4.27 9.84L4.27 9.84C4.2 9.96 4.05 10.01 3.93 9.94C3.85 9.9 3.8 9.82 3.8 9.73C3.79 9.01 4.02 8.35 4.5 7.75C5.02 7.1 5.74 6.75 6.66 6.69L6.66 6.69C6.8 6.68 6.92 6.78 6.93 6.92C6.93 7.01 6.89 7.09 6.81 7.14Z"/>
</svg>