<svg xmlns="http://www.w3.org/2000/svg" viewBox="0 0 15 15">
  <path fill="param(fill) #888" stroke="param(outline) #000" stroke-width="param(outline-width) 0" fill-opacity="param(fill-opacity) 1" stroke-opacity="param(outline-opacity) 1" d="M7.39 0C7.26 0 7.17 0.1 7.17 0.22L7.17 0.99L5.29 4.14L9.39 4.14L7.61 1.16L7.61 0.85L7.99 0.79C8.44 0.73 9.06 0.66 9.28 0.74C9.56 0.85 8.4 1.05 9.04 1.49C9.67 1.92 12.06 1.5 12.23 1.32C12.4 1.14 10.19 1.52 9.76 1.26C9.31 0.97 10.4 0.97 10.21 0.59C10.04 0.25 8.1 0.24 7.61 0.24L7.61 0.22C7.61 0.13 7.56 0.05 7.47 0.02C7.44 0 7.41 0 7.39 0ZM1.88 3.25L1.88 4.76L0.06 7.8L4.16 7.8L2.31 4.7L2.3 3.95C2.97 3.79 2.66 5.03 4.6 4.16C4.39 4.07 4.04 4.09 4.3 3.67C2.82 4.34 3.43 2.92 1.88 3.25ZM12.65 3.33L12.65 4.76L10.83 7.8L14.94 7.8L13.08 4.7L13.07 4.03C13.88 3.89 13.63 4.62 14.65 4.28C14.41 4.26 14.65 3.79 14.94 3.64C13.31 3.99 14.29 3.05 12.65 3.33ZM9.39 4.61L5.29 4.61L5.29 4.84C5.32 5.29 5.49 5.59 7.1 5.62L7.31 5.62C9.41 5.62 9.4 5.12 9.39 4.61ZM6.15 5.97L6.15 9.14L8.85 9.14L8.85 5.97L6.15 5.97ZM7.5 6.79C7.7 6.79 7.99 7.32 7.99 7.32L7.99 8.35L7.01 8.35L7.01 7.32L7.09 7.19C7.19 7.03 7.37 6.79 7.5 6.79ZM4.16 8.27L0.06 8.27L0.07 8.51C0.09 8.97 0.27 9.28 2.08 9.28C4.18 9.28 4.18 8.79 4.16 8.27ZM14.94 8.27L10.83 8.27L10.84 8.51C10.87 8.97 11.05 9.28 12.86 9.28C14.96 9.28 14.95 8.79 14.94 8.27ZM6.15 9.56C4.69 9.56 4.13 10.97 3.82 11L3.83 15L5.7 15L5.7 12.23C6.3 12.22 6.85 11.75 7.53 11.73C8.21 11.72 8.7 12.15 9.33 12.23L9.33 15L11.17 15L11.18 11C10.91 10.97 10.24 9.57 8.85 9.56L6.15 9.56ZM0.79 9.63L0.79 15L3.29 15L3.29 9.63L0.79 9.63ZM11.71 9.63L11.71 15L14.21 15L14.21 9.63L11.71 9.63ZM2.04 10.53C2.28 10.53 2.49 10.91 2.49 10.91L2.49 12.64L1.59 12.64L1.59 10.91L1.63 10.85C1.7 10.74 1.86 10.53 2.04 10.53ZM12.96 10.53C13.19 10.53 13.4 10.91 13.4 10.91L13.4 12.64L12.51 12.64L12.51 10.91L12.55 10.85C12.62 10.74 12.78 10.53 12.96 10.53Z"/>
</svg>