<svg xmlns="http://www.w3.org/2000/svg" viewBox="0 0 15 15">
  <path fill="param(fill) #888" stroke="param(outline) #000" stroke-width="param(outline-width) 0" fill-opacity="param(fill-opacity) 1" stroke-opacity="param(outline-opacity) 1" d="M2.52 0.36L0.48 3.61L4.56 3.61L2.52 0.36ZM12.51 0.36L10.47 3.62L14.55 3.62L12.51 0.36ZM0.11 4.13L0.11 5C0.44 5.08 0.05 5.66 0.44 5.85L4.55 5.85C4.93 5.6 4.61 5.25 4.89 5L4.89 4.13L4.22 4.13L4.22 4.98L3.86 4.98L3.86 4.13L3.19 4.13L3.19 4.98L2.83 4.98L2.83 4.13L2.16 4.13L2.16 4.98L1.8 4.98L1.8 4.13L1.13 4.13L1.13 4.98L0.77 4.98L0.77 4.13L0.11 4.13ZM10.11 4.13L10.11 5C10.44 5.08 10.06 5.66 10.44 5.85L14.56 5.85C14.94 5.6 14.62 5.25 14.89 5L14.89 4.13L14.23 4.13L14.23 4.98L13.86 4.98L13.86 4.13L13.2 4.13L13.2 4.98L12.84 4.98L12.84 4.13L12.17 4.13L12.17 4.98L11.81 4.98L11.81 4.13L11.14 4.13L11.14 4.98L10.78 4.98L10.78 4.13L10.11 4.13ZM6.47 6.09C6.35 6.09 6.26 6.19 6.26 6.31L6.25 8.36L6.16 8.36L6.16 9.2L5.81 9.2L5.81 8.36L5.16 8.36L5.16 14.64L6.2 14.64L6.2 11.88C6.18 11.58 6.36 11.39 6.8 11.35L8.2 11.35C8.69 11.36 8.8 11.56 8.8 11.81L8.8 14.64L9.84 14.64L9.84 8.36L9.19 8.36L9.19 9.2L8.84 9.2L8.84 8.36L8.18 8.36L8.18 9.2L7.83 9.2L7.83 8.36L7.17 8.36L7.17 9.2L6.82 9.2L6.82 8.36L6.7 8.36L6.7 6.94C9.13 6.45 6.14 7.95 9.41 7.25C9.6 7.22 9.71 7.03 9.48 7.01L9.13 7.02C7.07 7.03 10.07 6.36 6.69 6.33L6.69 6.31C6.7 6.22 6.64 6.14 6.56 6.11C6.53 6.1 6.5 6.09 6.47 6.09ZM0.44 6.25L0.44 8.79L4.55 8.79L4.55 6.25L0.44 6.25ZM10.44 6.25L10.44 8.79L14.56 8.79L14.56 6.25L10.44 6.25ZM1.74 6.97L3.25 6.97L3.25 8L1.74 8L1.74 6.97ZM11.75 6.97L13.26 6.97L13.26 8L11.75 8L11.75 6.97ZM0.44 9.2L0.44 14.64L4.55 14.64L4.55 9.2L0.44 9.2ZM10.44 9.2L10.44 14.64L14.56 14.64L14.56 9.2L10.44 9.2ZM6.14 9.87L6.74 9.87L6.74 10.57L6.14 10.57L6.14 9.87ZM8.26 9.87L8.86 9.87L8.86 10.57L8.26 10.57L8.26 9.87ZM1.98 10.38L3.01 10.38L3.01 11.89L1.98 11.89L1.98 10.38ZM11.99 10.38L13.02 10.38L13.02 11.89L11.99 11.89L11.99 10.38Z"/>
</svg>