<svg xmlns="http://www.w3.org/2000/svg" viewBox="0 0 15 15">
  <path fill="param(fill) #888" stroke="param(outline) #000" stroke-width="param(outline-width) 0" fill-opacity="param(fill-opacity) 1" stroke-opacity="param(outline-opacity) 1" d="M7.75 0.74C7.62 0.74 7.52 0.85 7.52 0.98L7.52 2.27C7.52 2.59 7.99 2.59 7.99 2.27L7.99 1.65L8.36 1.59C8.84 1.53 9.55 1.45 9.78 1.54C10.08 1.65 8.84 1.86 9.52 2.33C10.2 2.8 12.76 2.35 12.95 2.16C13.13 1.96 10.75 2.37 10.3 2.09C9.81 1.78 10.99 1.78 10.78 1.37C10.6 1.01 8.52 1 7.99 1L7.99 0.98C7.99 0.88 7.93 0.79 7.85 0.76C7.82 0.75 7.78 0.74 7.75 0.74ZM4.94 3L4.94 3.93C5.29 4.01 4.88 4.63 5.29 4.83L9.71 4.83C10.11 4.57 9.77 4.19 10.06 3.93L10.06 3L9.35 3L9.35 3.9L8.96 3.9L8.96 3L8.24 3L8.24 3.9L7.86 3.9L7.86 3L7.14 3L7.14 3.9L6.76 3.9L6.76 3L6.04 3L6.04 3.9L5.65 3.9L5.65 3L4.94 3ZM5.29 5.26L5.29 7.98L9.71 7.98L9.71 5.26L5.29 5.26ZM6.69 6.03L8.31 6.03L8.31 7.14L6.69 7.14L6.69 6.03ZM0 6.21L0 7.14C0.29 7.4 -0.05 7.78 0.36 8.05L4.77 8.05L4.77 6.21L4.41 6.21L4.41 7.11L4.02 7.11L4.02 6.21L3.31 6.21L3.31 7.11L2.92 7.11L2.92 6.21L2.2 6.21L2.2 7.11L1.82 7.11L1.82 6.21L1.1 6.21L1.1 7.11L0.72 7.11L0.72 6.21L0 6.21ZM10.23 6.21L10.23 8.05L14.64 8.05C15.05 7.78 14.71 7.4 15 7.14L15 6.21L14.28 6.21L14.28 7.11L13.9 7.11L13.9 6.21L13.18 6.21L13.18 7.11L12.8 7.11L12.8 6.21L12.08 6.21L12.08 7.11L11.69 7.11L11.69 6.21L10.98 6.21L10.98 7.11L10.59 7.11L10.59 6.21L10.23 6.21ZM5.29 8.42L5.29 14.26L6.27 14.26L6.27 11.29C6.26 10.98 6.43 10.78 6.84 10.73L8.16 10.73C8.62 10.74 8.72 10.95 8.73 11.22L8.73 14.26L9.71 14.26L9.71 8.42L5.29 8.42ZM0.36 8.47L1.05 11.19L4.77 11.19L4.77 8.47L0.36 8.47ZM10.23 8.47L10.23 11.19L13.95 11.19L14.64 8.47L10.23 8.47ZM2.51 9.17L3.31 9.17L3.31 10.38L2.51 10.38L2.51 9.17ZM11.69 9.17L12.49 9.17L12.49 10.38L11.69 10.38L11.69 9.17ZM1.14 11.64L1.73 14.26L4.77 14.26L4.77 11.64L1.14 11.64ZM10.23 11.64L10.23 14.26L13.27 14.26L13.86 11.64L10.23 11.64Z"/>
</svg>