<svg xmlns="http://www.w3.org/2000/svg" viewBox="0 0 15 15">
  <path fill="param(fill) #888" stroke="param(outline) #000" stroke-width="param(outline-width) 0" fill-opacity="param(fill-opacity) 1" stroke-opacity="param(outline-opacity) 1" d="M7.53 0C7.4 0 7.3 0.11 7.3 0.24L7.3 1.06C6.71 1.42 6.14 3.06 5.59 3.54L6.15 3.54L6.15 6.3L8.85 6.3L8.85 3.54L9.41 3.54C8.91 3.15 8.34 1.58 7.77 1.12L7.76 0.74C9.21 1.74 10.39 1.2 10.87 1.24L10.78 1.11C10.57 0.78 10.58 0.56 11.37 0.45C10.94 0.02 8.99 0.96 7.77 0.26L7.77 0.24C7.77 0.14 7.71 0.05 7.62 0.02C7.6 0.01 7.56 0 7.53 0ZM7.06 3.85L7.94 3.85L7.94 5.5L7.06 5.5L7.06 3.85ZM1.41 7.45C1.28 7.45 1.18 7.56 1.18 7.69L1.17 10.71L1.1 10.71L1.1 11.61L0.72 11.61L0.72 10.71L0 10.71L0 11.64C0.29 11.9 -0.05 12.28 0.36 12.54L0.38 12.54L0.38 15L4.79 15L4.79 10.71L4.41 10.71L4.41 11.61L4.02 11.61L4.02 10.71L3.31 10.71L3.31 11.61L2.92 11.61L2.92 10.71L2.2 10.71L2.2 11.61L1.82 11.61L1.82 10.71L1.67 10.71L1.67 8.36C2.46 8.67 2.9 8.59 3.37 8.63C3.08 8.23 2.99 7.97 3.87 7.84C3.44 7.41 2.32 8.02 1.65 7.71L1.65 7.69C1.65 7.59 1.59 7.5 1.51 7.46C1.48 7.45 1.44 7.45 1.41 7.45ZM11.31 6.82C11.18 6.83 11.08 6.93 11.08 7.06L11.08 7.53L11.08 10.73L10.98 10.73L10.98 11.63L10.59 11.63L10.59 10.73L10.21 10.73L10.21 15.02L14.62 15.02L14.62 12.57L14.64 12.57C15.05 12.3 14.71 11.93 15 11.66L15 10.73L14.28 10.73L14.28 11.63L13.9 11.63L13.9 10.73L13.18 10.73L13.18 11.63L12.8 11.63L12.8 10.73L12.08 10.73L12.08 11.63L11.69 11.63L11.69 10.73L11.57 10.73L11.57 7.74C12.36 8.05 13.4 7.75 13.88 7.78L13.79 7.65C13.58 7.32 13.59 7.11 14.38 7C13.95 6.57 12.22 7.4 11.55 7.08L11.55 7.06C11.55 6.96 11.49 6.88 11.41 6.84C11.38 6.83 11.34 6.82 11.31 6.82ZM4.94 6.87L4.94 7.81C5.29 7.89 4.88 8.51 5.29 8.71L9.71 8.71C10.11 8.45 9.77 8.07 10.06 7.81L10.06 6.87L9.35 6.87L9.35 7.78L8.96 7.78L8.96 6.87L8.24 6.87L8.24 7.78L7.86 7.78L7.86 6.87L7.14 6.87L7.14 7.78L6.76 7.78L6.76 6.87L6.04 6.87L6.04 7.78L5.65 7.78L5.65 6.87L4.94 6.87ZM5.29 9.28L5.29 15L6.27 15L6.27 12.54C6.26 12.22 6.43 11.63 6.84 11.59L8.16 11.59C8.63 11.6 8.72 12.15 8.73 12.47L8.73 15L9.71 15L9.71 9.28L5.29 9.28ZM2.14 12.57L2.8 12.57L2.8 13.9L2.14 13.9L2.14 12.57ZM12.2 12.57L12.86 12.57L12.86 13.9L12.2 13.9L12.2 12.57Z"/>
</svg>