<svg xmlns="http://www.w3.org/2000/svg" viewBox="0 0 15 15">
  <path fill="param(fill) #888" stroke="param(outline) #000" stroke-width="param(outline-width) 0" fill-opacity="param(fill-opacity) 1" stroke-opacity="param(outline-opacity) 1" d="M0 4.9C0.06 6.31 0.82 7.63 2.15 8.35C3.66 9.17 5.49 9 6.91 8.08L10.08 10.8L8.44 12.47L9.8 13.63L10.79 12.62L11.24 13.01L10.24 14.02L11.44 15.05L13.07 13.38L13.18 13.48C13.36 13.62 13.55 13.69 13.75 13.69C13.99 13.69 14.23 13.59 14.47 13.38L14.62 13.24C14.87 12.99 15 12.73 15 12.47C15 12.26 14.91 12.08 14.72 11.91L8.44 6.5C9.72 4.36 9.06 1.72 6.95 0.57C4.81 -0.58 2.01 0.23 0.68 2.37C0.19 3.18 -0.03 4.06 0 4.9ZM1.64 5.07C1.57 4.22 2.41 3.37 3.71 3.77C3.02 1.83 5.76 0.99 6.42 2.96C6.75 3.92 6.75 5.74 6.71 6.58L6.26 6.6C5.27 6.62 3.72 6.58 2.84 6.32C2.05 6.08 1.68 5.58 1.64 5.07Z"/>
</svg>