<svg xmlns="http://www.w3.org/2000/svg" viewBox="0 0 15 15">
  <path fill="param(fill) #888" stroke="param(outline) #000" stroke-width="param(outline-width) 0" fill-opacity="param(fill-opacity) 1" stroke-opacity="param(outline-opacity) 1" d="M12.37 0.98C12.25 0.99 12.15 1.09 12.16 1.21L12.15 3.51L12.15 4.35L11.79 4.35L11.79 3.51L11.12 3.51L11.12 4.35L10.76 4.35L10.76 3.51L10.09 3.51L10.09 4.37C10.42 4.45 10.04 5.03 10.42 5.22L14.54 5.22C14.92 4.97 14.6 4.62 14.87 4.37L14.87 3.51L14.21 3.51L14.21 4.35L13.84 4.35L13.84 3.51L13.18 3.51L13.18 4.35L12.82 4.35L12.82 3.51L12.6 3.51L12.6 2L12.89 1.93C14.47 1.61 11.84 2.91 14.71 2.35C14.82 2.32 14.99 2.23 14.88 2.19C12.28 1.92 16.14 1.24 12.59 1.23L12.59 1.21C12.6 1.12 12.54 1.03 12.46 1C12.43 0.99 12.4 0.98 12.37 0.98ZM2.4 0.99C2.28 1 2.18 1.1 2.18 1.22L2.18 3.51L2.14 3.51L2.14 4.35L1.78 4.35L1.78 3.51L1.11 3.51L1.11 4.35L0.75 4.35L0.75 3.51L0.09 3.51L0.09 4.37C0.41 4.45 0.03 5.03 0.42 5.22L4.53 5.22C4.91 4.97 4.59 4.62 4.87 4.37L4.87 3.51L4.2 3.51L4.2 4.35L3.84 4.35L3.84 3.51L3.17 3.51L3.17 4.35L2.81 4.35L2.81 3.51L2.62 3.51L2.61 2.03C4.9 1.43 1.68 3.47 4.92 2.34C5.13 2.27 5.15 2.21 4.98 2.2L4.91 2.2C2.39 2.13 6.17 1.25 2.62 1.24L2.62 1.22C2.62 1.13 2.57 1.04 2.49 1.01C2.46 1 2.43 0.99 2.4 0.99ZM0.42 5.62L0.42 8.16L4.53 8.16L4.53 5.62L0.42 5.62ZM10.42 5.62L10.42 8.16L14.54 8.16L14.54 5.62L10.42 5.62ZM1.72 6.34L3.23 6.34L3.23 7.37L1.72 7.37L1.72 6.34ZM11.73 6.34L13.24 6.34L13.24 7.37L11.73 7.37L11.73 6.34ZM5.79 7.73L5.14 7.73L5.14 14.02L6.18 14.02L6.18 11.25C6.16 10.95 6.34 10.77 6.78 10.72L8.18 10.72C8.67 10.73 8.78 10.93 8.78 11.18L8.78 14.02L9.82 14.02L9.82 7.73L9.17 7.73L9.17 8.57L8.81 8.57L8.81 7.73L8.16 7.73L8.16 8.57L7.81 8.57L7.81 7.73L7.15 7.73L7.15 8.57L6.8 8.57L6.8 7.73L6.14 7.73L6.14 8.57L5.79 8.57L5.79 7.73ZM0.42 8.57L0.42 14.02L4.53 14.02L4.53 8.57L0.42 8.57ZM10.42 8.57L10.42 14.02L14.54 14.02L14.54 8.57L10.42 8.57ZM6.12 9.24L6.72 9.24L6.72 9.95L6.12 9.95L6.12 9.24ZM8.24 9.24L8.84 9.24L8.84 9.95L8.24 9.95L8.24 9.24ZM1.96 9.76L2.99 9.76L2.99 11.27L1.96 11.27L1.96 9.76ZM11.97 9.76L13 9.76L13 11.27L11.97 11.27L11.97 9.76Z"/>
</svg>