<svg xmlns="http://www.w3.org/2000/svg" viewBox="0 0 15 15">
  <path fill="param(fill) #888" stroke="param(outline) #000" stroke-width="param(outline-width) 0" fill-opacity="param(fill-opacity) 1" stroke-opacity="param(outline-opacity) 1" d="M5.82 0L5.82 2.02C5.82 2.02 8.38 1.29 8.92 1.97C9.46 2.66 7.16 2.65 8.36 4.04C9.57 5.43 14.66 4.01 14.98 3.44C15.31 2.86 11.22 4.38 10.68 2.94C10.13 1.49 11.74 2.37 11.37 1.15C11 -0.07 5.82 0 5.82 0ZM5.81 2.39L0.74 7.96L10.88 7.96L5.81 2.39ZM4.25 8.82L4.25 11.34L3.11 11.34L3.11 8.9L0 8.9L0 11.53C0.46 12.31 0.58 12.44 1.08 12.73L1.08 13.61L1.08 15L10.54 15L10.54 13.61L10.54 12.73C11.2 12.3 11.35 12.18 11.62 11.51L11.62 8.89L8.51 8.89L8.51 11.34L7.37 11.34L7.37 8.82L4.25 8.82Z"/>
</svg>