<svg xmlns="http://www.w3.org/2000/svg" viewBox="0 0 15 15">
  <path fill="param(fill) #888" stroke="param(outline) #000" stroke-width="param(outline-width) 0" fill-opacity="param(fill-opacity) 1" stroke-opacity="param(outline-opacity) 1" d="M7.55 0C7.43 0 7.33 0.1 7.33 0.22L7.33 1.31L5.75 4.02L9.32 4.02L7.77 1.38L7.77 0.85L8.16 0.79C8.6 0.73 9.23 0.66 9.44 0.74C9.72 0.85 8.56 1.05 9.2 1.49C9.83 1.92 12.22 1.5 12.39 1.32C12.56 1.14 10.35 1.53 9.92 1.26C9.47 0.97 10.57 0.97 10.37 0.59C10.2 0.25 8.26 0.24 7.77 0.24L7.77 0.22C7.77 0.13 7.72 0.05 7.63 0.02C7.61 0 7.58 0 7.55 0ZM2.63 2.47L0.97 7L4.29 7L2.63 2.47ZM12.27 2.47L10.61 7L13.93 7L12.27 2.47ZM5.11 4.49L5.11 5.36C5.44 5.44 5.05 6.01 5.44 6.2L9.56 6.2C9.94 5.96 9.62 5.6 9.89 5.36L9.89 4.49L9.22 4.49L9.22 5.33L8.86 5.33L8.86 4.49L8.19 4.49L8.19 5.33L7.83 5.33L7.83 4.49L7.17 4.49L7.17 5.33L6.81 5.33L6.81 4.49L6.14 4.49L6.14 5.33L5.78 5.33L5.78 4.49L5.11 4.49ZM5.44 6.6L5.44 9.14L9.56 9.14L9.56 6.6L5.44 6.6ZM6.74 7.32L8.26 7.32L8.26 8.35L6.74 8.35L6.74 7.32ZM0.5 7.49L0.5 8.36C0.78 8.6 0.46 8.96 0.83 9.2L4.95 9.2L4.95 7.49L4.62 7.49L4.62 8.33L4.25 8.33L4.25 7.49L3.59 7.49L3.59 8.33L3.23 8.33L3.23 7.49L2.56 7.49L2.56 8.33L2.2 8.33L2.2 7.49L1.53 7.49L1.53 8.33L1.17 8.33L1.17 7.49L0.5 7.49ZM10.05 7.49L10.05 9.2L14.17 9.2C14.54 8.96 14.22 8.6 14.5 8.36L14.5 7.49L13.83 7.49L13.83 8.33L13.47 8.33L13.47 7.49L12.8 7.49L12.8 8.33L12.44 8.33L12.44 7.49L11.77 7.49L11.77 8.33L11.41 8.33L11.41 7.49L10.75 7.49L10.75 8.33L10.38 8.33L10.38 7.49L10.05 7.49ZM5.44 9.56L5.44 15L6.36 15L6.36 12.23C6.34 11.94 6.5 11.75 6.88 11.71L8.12 11.71C8.55 11.72 8.64 11.91 8.64 12.16L8.64 15L9.56 15L9.56 9.56L5.44 9.56ZM0.83 9.6L1.48 12.14L4.95 12.14L4.95 9.6L0.83 9.6ZM10.05 9.6L10.05 12.14L13.52 12.14L14.17 9.6L10.05 9.6ZM2.84 10.25L3.59 10.25L3.59 11.38L2.84 11.38L2.84 10.25ZM11.41 10.25L12.16 10.25L12.16 11.38L11.41 11.38L11.41 10.25ZM1.56 12.55L2.11 15L4.95 15L4.95 12.55L1.56 12.55ZM10.05 12.55L10.05 15L12.89 15L13.44 12.55L10.05 12.55Z"/>
</svg>