<svg xmlns="http://www.w3.org/2000/svg" viewBox="0 0 15 15">
  <path fill="param(fill) #888" stroke="param(outline) #000" stroke-width="param(outline-width) 0" fill-opacity="param(fill-opacity) 1" stroke-opacity="param(outline-opacity) 1" d="M11.25 3.5C12.69 3.5 13.9 4.49 14.33 5.87L12.91 6.38C12.68 5.63 12.02 5.1 11.25 5.1C10.28 5.1 9.5 5.94 9.5 6.97L9.5 8.03C9.5 9.06 10.28 9.9 11.25 9.9C12.02 9.9 12.68 9.37 12.91 8.62L14.33 9.13C13.9 10.51 12.69 11.5 11.25 11.5C9.46 11.5 8 9.95 8 8.03L8 6.97C8 5.05 9.46 3.5 11.25 3.5ZM3.75 3.5C5.19 3.5 6.4 4.49 6.83 5.87L5.41 6.38C5.18 5.63 4.52 5.1 3.75 5.1C2.78 5.1 2 5.94 2 6.97L2 8.03C2 9.06 2.78 9.9 3.75 9.9C4.52 9.9 5.18 9.37 5.41 8.62L6.83 9.13C6.4 10.51 5.19 11.5 3.75 11.5C1.96 11.5 0.5 9.95 0.5 8.03L0.5 6.97C0.5 5.05 1.96 3.5 3.75 3.5Z"/>
</svg>