<svg xmlns="http://www.w3.org/2000/svg" viewBox="0 0 15 15">
  <path fill="param(fill) #888" stroke="param(outline) #000" stroke-width="param(outline-width) 0" fill-opacity="param(fill-opacity) 1" stroke-opacity="param(outline-opacity) 1" d="M8.5 0L8.5 2.13C9.91 2.49 11.01 3.59 11.37 5L13 5L13 7L11.37 7C11.01 8.41 9.91 9.51 8.5 9.87L8.5 15L6.5 15L6.5 9.87C5.09 9.51 3.99 8.41 3.63 7L2 7L2 5L3.63 5C3.99 3.59 5.09 2.49 6.5 2.13L6.5 0L8.5 0ZM6.5 8.83L6.5 7L4.67 7C4.97 7.85 5.65 8.53 6.5 8.83ZM10.33 7L8.5 7L8.5 8.83C9.29 8.55 9.93 7.95 10.26 7.18L10.33 7ZM8.5 3.17L8.5 5L10.33 5C10.05 4.21 9.45 3.57 8.68 3.24L8.5 3.17ZM4.67 5L6.5 5L6.5 3.17C5.65 3.47 4.97 4.15 4.67 5Z"/>
</svg>