<svg xmlns="http://www.w3.org/2000/svg" viewBox="0 0 15 15">
  <path fill="param(fill) #888" stroke="param(outline) #000" stroke-width="param(outline-width) 0" fill-opacity="param(fill-opacity) 1" stroke-opacity="param(outline-opacity) 1" d="M6.01 0C6.08 0 6.15 0.03 6.19 0.09C7.04 1.25 8.26 2.09 9.65 2.47C9.88 2.53 10.01 2.76 9.98 2.89L9.72 3.67C9.66 3.85 9.5 3.96 9.32 3.96L7.8 4.01C7.69 4.07 7.67 4.2 7.74 4.3L9.49 6.75C9.57 6.86 9.59 7.02 9.54 7.15L8.88 8.8C8.81 8.96 8.85 9.14 8.97 9.26L9.5 9.78C9.58 9.86 9.62 9.97 9.62 10.08V11.18C9.62 11.41 9.43 11.6 9.2 11.6H5.8C5.57 11.6 5.38 11.41 5.38 11.18V10.08C5.38 9.97 5.42 9.86 5.5 9.78L6.09 9.19C6.24 9.05 6.26 8.82 6.14 8.65C4.69 6.53 4.56 3.77 5.8 1.52V0.21C5.8 0.1 5.9 0 6.01 0ZM9.62 12.45C9.86 12.45 10.05 12.64 10.05 12.88V14.58C10.05 14.81 9.86 15 9.62 15H5.38C5.14 15 4.95 14.81 4.95 14.58V12.88C4.95 12.64 5.14 12.45 5.38 12.45Z"/>
</svg>