<svg xmlns="http://www.w3.org/2000/svg" viewBox="0 0 15 15">
  <path fill="param(fill) #888" stroke="param(outline) #000" stroke-width="param(outline-width) 0" fill-opacity="param(fill-opacity) 1" stroke-opacity="param(outline-opacity) 1" d="M12 13L13 15L12.21 15L11.5 14.29L10.79 15L10.21 15L9.5 14.29L8.79 15L8.21 15L7.5 14.29L6.79 15L6.21 15L5.5 14.29L4.79 15L4.21 15L3.5 14.29L2.79 15L2 15L3 13L12 13ZM3 2.5L12 2.5L12.1 2.69C12.35 3.23 13 4.88 13 7.5C13 10.44 12.18 12.15 12.03 12.45L12 12.5L3 12.5L2.93 12.39C2.71 11.98 2 10.45 2 7.5C2 4 3 2.5 3 2.5ZM5.33 5.63C5.05 5.63 4.79 5.7 4.58 5.86C4.27 6.11 4.11 6.55 4.04 6.95L4.02 7.1C3.95 7.5 4.05 7.89 4.21 8.27C4.35 8.62 4.58 8.94 4.89 9.15C5.31 9.43 5.82 9.53 6.31 9.53C6.52 9.51 6.72 9.46 6.92 9.39L9 8C9 8.61 8.72 9.08 8.16 9.41L7.97 9.51C8.2 9.61 8.46 9.69 8.69 9.69C9.3 9.67 9.93 9.41 10.37 8.99C10.72 8.66 11 8.17 11 7.68C11 7.15 10.79 6.45 10.32 6.19C9.76 5.9 9.33 6.17 8.91 6.5L8.68 6.68C8.37 6.92 8.05 7.13 7.66 7.12C6.85 7.1 6.43 5.84 5.59 5.65C5.52 5.65 5.42 5.63 5.33 5.63ZM2.8 0L3.51 0.71L4.21 0L4.8 0L5.51 0.71L6.21 0L6.8 0L7.51 0.71L8.21 0L8.8 0L9.51 0.71L10.21 0L10.8 0L11.51 0.71L12.21 0L13 0L12 2L3 2L2 0L2.8 0Z"/>
</svg>