<svg xmlns="http://www.w3.org/2000/svg" viewBox="0 0 15 15">
  <path fill="param(fill) #888" stroke="param(outline) #000" stroke-width="param(outline-width) 0" fill-opacity="param(fill-opacity) 1" stroke-opacity="param(outline-opacity) 1" d="M12 13L13 15L12.21 15L11.5 14.29L10.79 15L10.21 15L9.5 14.29L8.79 15L8.21 15L7.5 14.29L6.79 15L6.21 15L5.5 14.29L4.79 15L4.21 15L3.5 14.29L2.79 15L2 15L3 13L12 13ZM3 2.5L12 2.5L12.1 2.69C12.35 3.23 13 4.88 13 7.5C13 10.44 12.18 12.15 12.03 12.45L12 12.5L3 12.5L2.93 12.39C2.71 11.98 2 10.45 2 7.5C2 4 3 2.5 3 2.5ZM2.8 0L3.51 0.71L4.21 0L4.8 0L5.51 0.71L6.21 0L6.8 0L7.51 0.71L8.21 0L8.8 0L9.51 0.71L10.21 0L10.8 0L11.51 0.71L12.21 0L13 0L12 2L3 2L2 0L2.8 0Z"/>
</svg>