<?xml version="1.0" encoding="UTF-8"?>
<svg viewBox="0 0 15 15" version="1.1" xmlns="http://www.w3.org/2000/svg" xmlns:xlink="http://www.w3.org/1999/xlink">
  <path fill="param(fill) #888" stroke="param(outline) #000" stroke-width="param(outline-width) 0" fill-opacity="param(fill-opacity) 1" stroke-opacity="param(outline-opacity) 1" d="M13 12L12 12L12 15L13 15L13 12ZM13.93 10.71C13.21 9.64 11.79 8.57 11.79 7.5C11.79 6.43 15 5.36 15 3.21C15 1.07 12.86 1.07 10.71 0C11.07 1.43 12.86 2.14 12.86 3.21C11.79 4.29 9.64 5.36 9.64 7.5C9.64 9.64 10.71 9.64 13.93 10.71ZM15 12L14 12L14 15L15 15L15 12ZM0 15L11 15L11 12L0 12L0 15Z"/>
</svg>