<?xml version="1.0" encoding="UTF-8"?>
<svg viewBox="0 0 15 15" version="1.1" xmlns="http://www.w3.org/2000/svg" xmlns:xlink="http://www.w3.org/1999/xlink">
  <path fill="param(fill) #888" stroke="param(outline) #000" stroke-width="param(outline-width) 0" fill-opacity="param(fill-opacity) 1" stroke-opacity="param(outline-opacity) 1" d="M7.5 0C11.64 0 15 3.36 15 7.5C15 11.64 11.64 15 7.5 15C3.36 15 0 11.64 0 7.5C0 3.36 3.36 0 7.5 0ZM7.5 4C5.57 4 4 5.57 4 7.5C4 9.43 5.57 11 7.5 11C9.43 11 11 9.43 11 7.5C11 5.57 9.43 4 7.5 4ZM7.5 5.5C8.6 5.5 9.5 6.4 9.5 7.5C9.5 8.6 8.6 9.5 7.5 9.5C6.4 9.5 5.5 8.6 5.5 7.5C5.5 6.4 6.4 5.5 7.5 5.5Z"/>
</svg>