<svg xmlns="http://www.w3.org/2000/svg" viewBox="0 0 15 15">
  <path fill="param(fill) #888" stroke="param(outline) #000" stroke-width="param(outline-width) 0" fill-opacity="param(fill-opacity) 1" stroke-opacity="param(outline-opacity) 1" d="M7.5 0C11.64 0 15 3.36 15 7.5C15 11.64 11.64 15 7.5 15C3.36 15 0 11.64 0 7.5C0 3.36 3.36 0 7.5 0ZM7.5 1.5C4.19 1.5 1.5 4.19 1.5 7.5C1.5 10.81 4.19 13.5 7.5 13.5C10.81 13.5 13.5 10.81 13.5 7.5C13.5 4.19 10.81 1.5 7.5 1.5ZM7.5 9.81L3.97 12.35L5.3 8.21L1.79 5.65L6.14 5.63L7.5 1.5L8.86 5.63L13.21 5.65L9.7 8.21L11.03 12.35z"/>
</svg>