<?xml version="1.0" encoding="UTF-8"?>
<svg viewBox="0 0 15 15" version="1.1" xmlns="http://www.w3.org/2000/svg" xmlns:xlink="http://www.w3.org/1999/xlink">
  <path fill="param(fill) #888" stroke="param(outline) #000" stroke-width="param(outline-width) 0" fill-opacity="param(fill-opacity) 1" stroke-opacity="param(outline-opacity) 1" d="M7.5 0C11.64 0 15 3.36 15 7.5C15 11.64 11.64 15 7.5 15C3.36 15 0 11.64 0 7.5C0 3.36 3.36 0 7.5 0ZM7.5 1.5C4.19 1.5 1.5 4.19 1.5 7.5C1.5 10.81 4.19 13.5 7.5 13.5C10.81 13.5 13.5 10.81 13.5 7.5C13.5 4.19 10.81 1.5 7.5 1.5ZM7.5 4.5C9.16 4.5 10.5 5.84 10.5 7.5C10.5 9.16 9.16 10.5 7.5 10.5C5.84 10.5 4.5 9.16 4.5 7.5C4.5 5.84 5.84 4.5 7.5 4.5ZM7.5 6C6.67 6 6 6.67 6 7.5C6 8.33 6.67 9 7.5 9C8.33 9 9 8.33 9 7.5C9 6.67 8.33 6 7.5 6Z"/>
</svg>