<svg xmlns="http://www.w3.org/2000/svg" viewBox="0 0 15 15">
  <path fill="param(fill) #888" stroke="param(outline) #000" stroke-width="param(outline-width) 0" fill-opacity="param(fill-opacity) 1" stroke-opacity="param(outline-opacity) 1" d="M7.52 0L7.52 0C7.51 0 7.51 0 7.5 0C3.37 0 0 3.37 0 7.5C0 11.63 3.37 15 7.5 15C11.63 15 15 11.63 15 7.5C15 3.38 11.64 0.01 7.52 0ZM6.75 1.6L2.42 10.61C1.87 9.71 1.55 8.64 1.55 7.5C1.55 4.46 3.81 1.96 6.75 1.6ZM8.3 1.61C11.22 2 13.45 4.48 13.45 7.5C13.45 8.59 13.16 9.61 12.65 10.48L11.34 7.83ZM7.53 3.55L9.41 7.4H5.68ZM4.94 8.95H10.17L11.59 11.83C10.52 12.84 9.09 13.45 7.5 13.45C5.96 13.45 4.56 12.87 3.51 11.92Z"/>
</svg>