<svg xmlns="http://www.w3.org/2000/svg" viewBox="0 0 15 15">
  <path fill="param(fill) #888" stroke="param(outline) #000" stroke-width="param(outline-width) 0" fill-opacity="param(fill-opacity) 1" stroke-opacity="param(outline-opacity) 1" d="M10.2 0.53L10.81 2.8L12.53 2.29L12 0L10.2 0.53ZM9.09 0.83L6.74 1.5L7.37 3.77L9.73 3.1L9.09 0.83ZM3.58 2.41L4.22 4.68L6.3 4.07L5.66 1.8L3.58 2.41ZM0.22 3.51L1 5.5L3.11 4.98L2.5 2.71L0.22 3.51ZM1 13C1 13.5 1.5 14 2 14L13 14C13.5 14 14 13.52 14 13L14 5.5L1 5.5L1 13ZM3 8L12 8L12 10L3 10L3 8Z"/>
</svg>