<?xml version="1.0" encoding="UTF-8"?>
<svg viewBox="0 0 15 15" version="1.1" xmlns="http://www.w3.org/2000/svg" xmlns:xlink="http://www.w3.org/1999/xlink">
  <path fill="param(fill) #888" stroke="param(outline) #000" stroke-width="param(outline-width) 0" fill-opacity="param(fill-opacity) 1" stroke-opacity="param(outline-opacity) 1" d="M12.44 4.2L13.28 4.74C12.92 6.09 12.46 7.19 11.92 8.03C11.24 9.08 10.14 10.15 8.63 11.26L9.47 11.8C10.98 10.7 12.07 9.62 12.75 8.57C13.44 7.52 13.97 6.09 14.37 4.26L9.33 0.99L8.79 0.63C8.33 0.33 7.71 0.46 7.4 0.93C7.35 1.01 7.31 1.09 7.28 1.19C6.98 2.22 6.65 3.08 6.3 3.78C5.81 4.76 4.9 6.16 3.57 7.98L7.79 10.71C9.3 9.61 10.4 8.53 11.08 7.48C11.62 6.64 12.08 5.54 12.44 4.2ZM9.42 2.23C9.88 2.53 10.01 3.15 9.71 3.62C9.41 4.08 8.79 4.21 8.33 3.91C7.87 3.61 7.73 2.99 8.04 2.53C8.34 2.06 8.96 1.93 9.42 2.23ZM3.33 8.41L0.88 12.19C0.42 12.88 0.62 13.81 1.32 14.26C1.97 14.68 2.82 14.53 3.29 13.94L3.38 13.82L3.65 13.39C3.31 12.81 3.33 12.07 3.7 11.5L5 9.5L3.33 8.41Z"/>
</svg>