<svg xmlns="http://www.w3.org/2000/svg" viewBox="0 0 15 15">
  <path fill="param(fill) #888" stroke="param(outline) #000" stroke-width="param(outline-width) 0" fill-opacity="param(fill-opacity) 1" stroke-opacity="param(outline-opacity) 1" d="M10 9C10.55 9 11 9.45 11 10L11 13L10.33 13.22C9.79 13.4 9.21 13.43 8.65 13.29L8.23 13.18C7.75 13.06 7.25 13.06 6.77 13.18L6.35 13.29C5.79 13.43 5.21 13.4 4.67 13.22L4 13L4 10C4 9.45 4.45 9 5 9L10 9ZM7.5 0C9.02 0 10.25 1.23 10.25 2.75C10.25 3.99 9.43 5.03 8.31 5.38L8.25 5.4L8.25 5.56L14.2 8.91C14.6 9.13 14.84 9.55 14.84 10C14.84 10.69 14.28 11.25 13.59 11.25L11.5 11.25L11.5 9.75L12.64 9.75L7.5 6.86L2.36 9.75L3.5 9.75L3.5 11.25L1.41 11.25C0.96 11.25 0.54 11.01 0.32 10.61C-0.02 10.01 0.19 9.25 0.8 8.91L6.75 5.56L6.75 4.75C6.75 4.34 7.09 4 7.5 4C8.19 4 8.75 3.44 8.75 2.75C8.75 2.06 8.19 1.5 7.5 1.5C6.81 1.5 6.25 2.06 6.25 2.75C6.25 3.16 5.91 3.5 5.5 3.5C5.09 3.5 4.75 3.16 4.75 2.75C4.75 1.23 5.98 0 7.5 0ZM4 13.75L4.67 13.97C5.21 14.15 5.79 14.18 6.35 14.04L6.77 13.93C7.25 13.81 7.75 13.81 8.23 13.93L8.65 14.04C9.21 14.18 9.79 14.15 10.33 13.97L11 13.75L11 13.75L11 14.5L10.33 14.72C9.79 14.9 9.21 14.93 8.65 14.79L8.23 14.68C7.75 14.56 7.25 14.56 6.77 14.68L6.35 14.79C5.79 14.93 5.21 14.9 4.67 14.72L4 14.5L4 14.5L4 13.75Z"/>
</svg>