<svg xmlns="http://www.w3.org/2000/svg" viewBox="0 0 15 15">
  <path fill="param(fill) #888" stroke="param(outline) #000" stroke-width="param(outline-width) 0" fill-opacity="param(fill-opacity) 1" stroke-opacity="param(outline-opacity) 1" d="M13.5 5C14.3 5 15 5.7 15 6.5L15 13C15 13.55 14.55 14 14 14L12 14L12 6.5C12 5.7 12.7 5 13.5 5ZM1.5 5C2.3 5 3 5.7 3 6.5L3 14L1 14C0.45 14 0 13.55 0 13L0 6.5C0 5.7 0.7 5 1.5 5ZM11 12L11 14L4 14L4 12L11 12ZM11 8L11 11L4 11L4 8L11 8ZM10 0C11.7 0 13 1.3 13 3L13 4.1C11.9 4.3 11 5.3 11 6.5L11 6.8C10.7 6.9 10.4 7 10 7L5 7C4.6 7 4.3 6.9 4 6.8L4 6.5C4 5.3 3.1 4.3 2 4.1L2 3C2 1.3 3.3 0 5 0L10 0Z"/>
</svg>