<svg xmlns="http://www.w3.org/2000/svg" viewBox="0 0 15 15">
  <path fill="param(fill) #888" stroke="param(outline) #000" stroke-width="param(outline-width) 0" fill-opacity="param(fill-opacity) 1" stroke-opacity="param(outline-opacity) 1" d="M5.43 0C4.74 0.03 4.21 0.21 4.21 0.21L3.84 0.32L4.59 1.45C4.55 1.48 4.55 1.48 4.52 1.51C4.48 1.54 4.45 1.57 4.42 1.61C4.38 1.65 4.33 1.68 4.32 1.83C4.31 1.9 4.35 2.01 4.41 2.08C4.48 2.14 4.55 2.16 4.59 2.17C4.69 2.19 4.74 2.17 4.81 2.16C4.77 2.17 4.8 2.16 4.85 2.18C4.9 2.2 4.98 2.24 5.07 2.3C5.17 2.36 5.28 2.43 5.38 2.52C5.27 2.5 5.15 2.5 5.03 2.5C3.23 2.51 2.15 4.46 2.15 4.46L1.96 4.81L3.27 5.13C3.27 5.17 3.26 5.17 3.26 5.21C3.25 5.26 3.25 5.3 3.25 5.36C3.26 5.41 3.24 5.47 3.33 5.58C3.37 5.64 3.48 5.7 3.57 5.7C3.66 5.71 3.72 5.68 3.76 5.65C3.84 5.6 3.88 5.55 3.92 5.49C3.89 5.53 3.9 5.5 3.96 5.48C4.01 5.46 4.1 5.44 4.2 5.42C4.4 5.38 4.67 5.36 4.9 5.36C4.97 5.36 4.99 5.37 5.06 5.37C4.97 5.53 4.92 5.7 4.91 5.85C4.89 6.13 4.94 6.36 4.94 6.36L5.08 6.94L5.46 6.47C5.46 6.47 5.54 6.36 5.96 6.07C6.35 5.8 7.01 5.4 8.05 4.89C7.82 5.09 5.91 6.87 4.83 9.08C3.76 11.29 4.21 13.72 4.33 14.25L4.5 15L7 15L6.48 14.14C6.47 14.11 6.46 14.08 6.44 14.06C6.44 14.06 5.09 11.89 6.02 9.98C6.63 8.72 7.54 7.47 8.2 6.61C7.99 7.2 7.81 7.63 7.67 7.92C7.44 8.38 7.35 8.48 7.35 8.48L6.95 8.93L7.54 8.97C7.54 8.97 7.78 8.99 8.05 8.93C8.19 8.89 8.35 8.82 8.5 8.71C8.51 8.77 8.53 8.79 8.54 8.86C8.57 9.09 8.59 9.35 8.59 9.56C8.58 9.66 8.57 9.75 8.56 9.81C8.55 9.87 8.52 9.88 8.56 9.85C8.51 9.9 8.47 9.94 8.43 10.03C8.41 10.07 8.39 10.14 8.41 10.23C8.42 10.32 8.5 10.41 8.56 10.44C8.69 10.51 8.75 10.49 8.8 10.48C8.85 10.48 8.89 10.47 8.94 10.46C8.98 10.45 8.98 10.44 9.02 10.43L9.55 11.68L9.85 11.43C9.85 11.43 11.61 10.06 11.34 8.27C11.31 8.11 11.27 7.95 11.22 7.8C11.26 7.84 11.31 7.89 11.35 7.93C11.42 8 11.48 8.07 11.51 8.12C11.54 8.17 11.54 8.2 11.54 8.15C11.54 8.22 11.54 8.28 11.57 8.37C11.59 8.41 11.62 8.48 11.7 8.53C11.77 8.58 11.89 8.59 11.96 8.57C12.1 8.53 12.12 8.47 12.16 8.43C12.19 8.39 12.21 8.35 12.24 8.31C12.26 8.27 12.26 8.27 12.27 8.23L13.53 8.74L13.57 8.35C13.57 8.35 13.84 6.14 12.39 5.07C11.67 4.54 10.72 4.42 9.96 4.41C9.56 4.4 9.22 4.43 8.97 4.46L8.97 4.31C8.97 4.31 8.96 3.7 8.8 2.96C8.63 2.21 8.33 1.31 7.66 0.71C6.99 0.1 6.13 -0.02 5.43 0Z"/>
</svg>