<svg xmlns="http://www.w3.org/2000/svg" viewBox="0 0 15 15">
  <path fill="param(fill) #888" stroke="param(outline) #000" stroke-width="param(outline-width) 0" fill-opacity="param(fill-opacity) 1" stroke-opacity="param(outline-opacity) 1" d="M6.69 0C6.09 0.03 5.63 0.18 5.63 0.18L5.31 0.28L5.59 0.99C5.23 1.06 5.25 1.48 5.31 1.54C5.37 1.6 5.43 1.61 5.47 1.62C5.55 1.63 5.65 1.51 5.83 1.59C6.02 1.67 6.06 1.85 6.15 1.92C6.05 1.91 5.95 1.9 5.85 1.9C4.29 1.91 3.78 3.12 3.78 3.12L3.61 3.42L4.75 3.69C4.74 3.73 4.74 3.73 4.74 3.83C4.73 3.94 4.72 3.99 4.8 4.09C4.84 4.14 4.92 4.19 5 4.19C5.08 4.2 5.14 4.17 5.26 4.08C5.39 3.98 5.46 3.96 5.55 3.95C5.73 3.92 5.95 3.9 6.16 3.9C6.22 3.89 6.24 3.9 6.29 3.91C6.22 4.05 6.17 4.19 6.16 4.32C6.14 4.56 6.2 4.76 6.2 4.76L6.32 5.26L6.64 4.86C6.64 4.86 6.71 4.76 7.08 4.51C7.14 4.46 7.26 4.39 7.34 4.34C7.36 4.38 7.37 4.41 7.39 4.44C7.46 4.56 7.57 4.66 7.71 4.72C7.17 5.36 6.55 6.19 6.09 7.12C5.32 8.72 5.48 10.53 5.61 11.34C3.63 11.74 2.5 12.49 1.88 13.19C1.54 13.59 1.35 13.96 1.25 14.24C1.15 14.52 1.14 14.73 1.14 14.73C1.12 14.92 1.31 15.05 1.49 14.98C1.88 14.82 2.27 14.59 2.63 14.41C2.91 14.28 3.14 14.25 3.36 14.22C3.36 14.31 3.33 14.38 3.36 14.48C3.42 14.71 3.64 14.91 3.95 14.99C4.01 15.01 4.08 15 4.14 14.96C5.22 14.33 5.83 14.08 6.23 14.01C6.23 14.06 6.21 14.12 6.21 14.17C6.22 14.32 6.25 14.47 6.35 14.58C6.45 14.69 6.6 14.74 6.73 14.74C6.85 14.75 6.97 14.72 7.09 14.69C7.32 14.62 7.56 14.51 7.79 14.42C7.97 14.34 8.11 14.31 8.22 14.3C8.27 14.38 8.31 14.45 8.43 14.59C8.52 14.69 8.62 14.8 8.76 14.87C8.82 14.91 8.9 14.94 9 14.94C9.1 14.94 9.21 14.89 9.29 14.82C9.41 14.7 9.63 14.48 9.82 14.34C9.92 14.27 10 14.23 10.05 14.22C10.11 14.45 10.18 14.69 10.39 14.8C10.66 14.94 11 14.88 11.34 14.68C11.39 14.64 11.42 14.59 11.44 14.54C11.52 14.28 11.64 14.13 11.77 14.03C11.86 13.96 12.01 13.96 12.14 13.95C12.16 14.09 12.15 14.26 12.24 14.36C12.31 14.45 12.41 14.51 12.51 14.53C12.61 14.56 12.71 14.55 12.79 14.53C13.14 14.45 13.46 14.23 13.69 14.16C13.86 14.1 13.92 13.89 13.81 13.75C13.81 13.75 11.83 11.28 8.05 11.13C7.82 11.12 7.58 11.12 7.33 11.13C7.04 10.54 6.51 9.17 7.12 7.9C7.65 6.81 8.44 5.72 9.01 4.98C8.83 5.49 8.67 5.87 8.55 6.11C8.36 6.51 8.28 6.6 8.28 6.6L7.93 6.99L8.45 7.03C8.45 7.03 8.65 7.04 8.88 6.99C9.01 6.96 9.15 6.89 9.27 6.79C9.29 6.85 9.3 6.87 9.31 6.93C9.34 7.13 9.35 7.35 9.35 7.53C9.35 7.62 9.34 7.7 9.33 7.75C9.32 7.8 9.3 7.81 9.33 7.79C9.28 7.83 9.25 7.86 9.23 8.03C9.21 8.19 9.27 8.27 9.33 8.3C9.44 8.36 9.49 8.34 9.53 8.33C9.58 8.33 9.62 8.32 9.65 8.31C9.69 8.3 9.69 8.3 9.73 8.29L10.18 9.37L10.45 9.15C10.45 9.15 11.97 7.96 11.73 6.42C11.71 6.28 11.67 6.14 11.63 6.01C11.67 6.04 11.71 6.08 11.74 6.12C11.8 6.18 11.85 6.24 11.88 6.29C11.91 6.33 11.91 6.36 12.01 6.52C12.11 6.68 12.21 6.69 12.27 6.67C12.39 6.64 12.41 6.59 12.44 6.56C12.47 6.52 12.49 6.49 12.51 6.45C12.53 6.42 12.53 6.42 12.54 6.38L13.63 6.83L13.66 6.49C13.66 6.49 13.9 4.57 12.64 3.65C12.02 3.19 11.2 3.08 10.54 3.07C10.19 3.07 9.9 3.09 9.68 3.11L9.68 2.99C9.68 2.99 9.74 3.21 9.6 2.56C9.46 1.92 9.19 1.13 8.62 0.61C8.04 0.09 7.29 -0.02 6.69 0Z"/>
</svg>