<?xml version="1.0" encoding="UTF-8"?>
<svg viewBox="0 0 15 15" version="1.1" xmlns="http://www.w3.org/2000/svg" xmlns:xlink="http://www.w3.org/1999/xlink">
  <path fill="param(fill) #888" stroke="param(outline) #000" stroke-width="param(outline-width) 0" fill-opacity="param(fill-opacity) 1" stroke-opacity="param(outline-opacity) 1" d="M3 0C4.18 0 5.97 1.5 7.5 1.5C9.03 1.5 10.94 0 12 0L12.03 0C12.24 0.01 13.5 0.13 13.5 1.5L13.5 9C13.5 12 12 15 7.5 15C3 15 1.5 12 1.5 9L1.5 1.5C1.5 0.13 2.76 0.01 2.97 0ZM11.25 9L3.75 9L3.75 9.02C3.76 9.33 3.92 12.75 7.5 12.75C11.25 12.75 11.25 9 11.25 9ZM4.5 3C3.68 3 3 3.68 3 4.5C3 5.33 3.68 6 4.5 6C5.33 6 6 5.33 6 4.5C6 3.68 5.33 3 4.5 3ZM10.5 3C9.68 3 9 3.68 9 4.5C9 5.33 9.68 6 10.5 6C11.33 6 12 5.33 12 4.5C12 3.68 11.33 3 10.5 3Z"/>
</svg>