<svg xmlns="http://www.w3.org/2000/svg" viewBox="0 0 15 15">
  <path fill="param(fill) #888" stroke="param(outline) #000" stroke-width="param(outline-width) 0" fill-opacity="param(fill-opacity) 1" stroke-opacity="param(outline-opacity) 1" d="M9.71 4.19L9.71 4.3L9.95 5.05L10.7 5.29L10.81 5.29L10.81 5.29L12.04 3.2L12.29 2.71L11.8 2.96L9.71 4.19ZM2.96 3.2L4.19 5.29L4.19 5.29L4.3 5.29L5.05 5.05L5.29 4.3L5.29 4.19L5.29 4.19L3.2 2.96L2.71 2.71L2.96 3.2ZM5.29 10.81L5.29 10.7L5.05 9.95L4.3 9.71L4.19 9.71L4.19 9.71L2.96 11.8L2.71 12.29L3.2 12.04L5.29 10.81ZM10.81 9.71L10.7 9.71L9.95 9.95L9.71 10.7L9.71 10.81L9.71 10.81L11.8 12.04L12.29 12.29L12.04 11.8L10.81 9.71ZM14.62 7.63L15 7.5L14.62 7.37L9.35 5.65L7.5 0L7.37 0.38L5.65 5.65L0.38 7.37L0 7.5L0.38 7.63L5.65 9.35L7.37 14.62L7.5 15L7.63 14.62L9.35 9.35L14.62 7.63Z"/>
</svg>