<svg xmlns="http://www.w3.org/2000/svg" viewBox="0 0 15 15">
  <path fill="param(fill) #888" stroke="param(outline) #000" stroke-width="param(outline-width) 0" fill-opacity="param(fill-opacity) 1" stroke-opacity="param(outline-opacity) 1" d="M5.79 12.91C6.31 13.09 6.88 12.81 7.06 12.28C7.34 11.43 8.19 10.89 8.87 10.71C9.55 10.53 10.55 10.57 11.23 11.17C11.64 11.53 12.27 11.49 12.64 11.08C13 10.66 12.96 10.03 12.55 9.66C11.2 8.48 9.41 8.5 8.35 8.78C7.3 9.06 5.74 9.94 5.16 11.64C4.99 12.17 5.27 12.73 5.79 12.91ZM4.25 6.75C5.08 6.75 5.75 6.08 5.75 5.25C5.75 4.42 5.08 3.75 4.25 3.75C3.42 3.75 2.75 4.42 2.75 5.25C2.75 6.08 3.42 6.75 4.25 6.75ZM10.75 6.75C11.58 6.75 12.25 6.08 12.25 5.25C12.25 4.42 11.58 3.75 10.75 3.75C9.92 3.75 9.25 4.42 9.25 5.25C9.25 6.08 9.92 6.75 10.75 6.75Z"/>
</svg>