<svg xmlns="http://www.w3.org/2000/svg" viewBox="0 0 15 15">
  <path fill="param(fill) #888" stroke="param(outline) #000" stroke-width="param(outline-width) 0" fill-opacity="param(fill-opacity) 1" stroke-opacity="param(outline-opacity) 1" d="M0 7.5C0 3.36 3.36 0 7.5 0C11.64 0 15 3.36 15 7.5C15 11.64 11.64 15 7.5 15C3.36 15 0 11.64 0 7.5ZM7.5 1.5C4.19 1.5 1.5 4.19 1.5 7.5C1.5 10.81 4.19 13.5 7.5 13.5C10.81 13.5 13.5 10.81 13.5 7.5C13.5 4.19 10.81 1.5 7.5 1.5ZM6.22 11.56C6.61 11.69 7.04 11.48 7.17 11.09C7.38 10.45 8.02 10.04 8.53 9.91C9.04 9.77 9.79 9.81 10.3 10.25C10.61 10.52 11.08 10.49 11.35 10.18C11.63 9.87 11.6 9.4 11.29 9.12C10.27 8.23 8.93 8.25 8.14 8.46C7.35 8.67 6.18 9.33 5.75 10.61C5.61 11 5.83 11.42 6.22 11.56ZM5.06 6.94C5.68 6.94 6.19 6.43 6.19 5.81C6.19 5.19 5.68 4.69 5.06 4.69C4.44 4.69 3.94 5.19 3.94 5.81C3.94 6.43 4.44 6.94 5.06 6.94ZM9.94 6.94C10.56 6.94 11.06 6.43 11.06 5.81C11.06 5.19 10.56 4.69 9.94 4.69C9.32 4.69 8.81 5.19 8.81 5.81C8.81 6.43 9.32 6.94 9.94 6.94Z"/>
</svg>