<svg xmlns="http://www.w3.org/2000/svg" viewBox="0 0 15 15">
  <path fill="param(fill) #888" stroke="param(outline) #000" stroke-width="param(outline-width) 0" fill-opacity="param(fill-opacity) 1" stroke-opacity="param(outline-opacity) 1" d="M6.5 0A0.5 0.5 0 0 0 6 0.5L6 1L5.25 1C5.11 1 5 1.11 5 1.25L5 1.75C5 1.89 5.11 2 5.25 2L6 2L6 3L3 4L2.02 14.75C2.01 14.89 2.11 14.97 2.24 14.94C3.08 14.71 5.93 14 7.5 14C9.07 14 11.92 14.71 12.76 14.94C12.89 14.97 12.99 14.89 12.98 14.75L12 4L9 3L9 2L9.75 2C9.89 2 10 1.89 10 1.75L10 1.25C10 1.11 9.89 1 9.75 1L9 1L9 0.5A0.5 0.5 0 0 0 8.5 0L6.5 0ZM7.25 1L7.75 1C7.89 1 8 1.11 8 1.25L8 2.75C8 2.89 7.89 3 7.75 3L7.25 3C7.11 3 7 2.89 7 2.75L7 1.25C7 1.11 7.11 1 7.25 1ZM4.25 5L5.5 5L6.75 5C6.89 5 7 5.11 7 5.25L7 5.75C7 5.89 6.89 6 6.75 6L5.5 6L4.25 6C4.11 6 4 5.89 4 5.75L4 5.25C4 5.11 4.11 5 4.25 5ZM5.5 6A0.5 0.5 0 0 0 6 5.5A0.5 0.5 0 0 0 5.5 5A0.5 0.5 0 0 0 5 5.5A0.5 0.5 0 0 0 5.5 6ZM8.25 5L9.5 5L10.75 5C10.89 5 11 5.11 11 5.25L11 5.75C11 5.89 10.89 6 10.75 6L9.5 6L8.25 6C8.11 6 8 5.89 8 5.75L8 5.25C8 5.11 8.11 5 8.25 5ZM9.5 6A0.5 0.5 0 0 0 10 5.5A0.5 0.5 0 0 0 9.5 5A0.5 0.5 0 0 0 9 5.5A0.5 0.5 0 0 0 9.5 6ZM4.25 7L5.5 7L6.75 7C6.89 7 7 7.11 7 7.25L7 7.75C7 7.89 6.89 8 6.75 8L5.5 8L4.25 8C4.11 8 4 7.89 4 7.75L4 7.25C4 7.11 4.11 7 4.25 7ZM5.5 8A0.5 0.5 0 0 0 6 7.5A0.5 0.5 0 0 0 5.5 7A0.5 0.5 0 0 0 5 7.5A0.5 0.5 0 0 0 5.5 8ZM8.25 7L9.5 7L10.75 7C10.89 7 11 7.11 11 7.25L11 7.75C11 7.89 10.89 8 10.75 8L9.5 8L8.25 8C8.11 8 8 7.89 8 7.75L8 7.25C8 7.11 8.11 7 8.25 7ZM9.5 8A0.5 0.5 0 0 0 10 7.5A0.5 0.5 0 0 0 9.5 7A0.5 0.5 0 0 0 9 7.5A0.5 0.5 0 0 0 9.5 8ZM4.25 9L5.5 9L6.75 9C6.89 9 7 9.11 7 9.25L7 9.75C7 9.89 6.89 10 6.75 10L5.5 10L4.25 10C4.11 10 4 9.89 4 9.75L4 9.25C4 9.11 4.11 9 4.25 9ZM5.5 10A0.5 0.5 0 0 0 6 9.5A0.5 0.5 0 0 0 5.5 9A0.5 0.5 0 0 0 5 9.5A0.5 0.5 0 0 0 5.5 10ZM8.25 9L9.5 9L10.75 9C10.89 9 11 9.11 11 9.25L11 9.75C11 9.89 10.89 10 10.75 10L9.5 10L8.25 10C8.11 10 8 9.89 8 9.75L8 9.25C8 9.11 8.11 9 8.25 9ZM9.5 10A0.5 0.5 0 0 0 10 9.5A0.5 0.5 0 0 0 9.5 9A0.5 0.5 0 0 0 9 9.5A0.5 0.5 0 0 0 9.5 10ZM4.25 11L10.75 11A0.25 0.25 0 0 1 11 11.25L11 12.75C11 12.89 10.9 12.95 10.77 12.9C10.16 12.65 8.48 12 7.5 12C6.52 12 4.84 12.65 4.23 12.9C4.1 12.95 4 12.89 4 12.75L4 11.25A0.25 0.25 0 0 1 4.25 11Z"/>
</svg>