<?xml version="1.0" encoding="UTF-8"?>
<svg viewBox="0 0 15 15" version="1.1" xmlns="http://www.w3.org/2000/svg" xmlns:xlink="http://www.w3.org/1999/xlink">
  <path fill="param(fill) #888" stroke="param(outline) #000" stroke-width="param(outline-width) 0" fill-opacity="param(fill-opacity) 1" stroke-opacity="param(outline-opacity) 1" d="M1.5 13L4.5 13L4.5 9L1.5 9C1.32 9 1.14 8.9 1.06 8.73C0.97 8.56 0.98 8.36 1.09 8.21L3.34 5L2.5 5C2.31 5 2.13 4.89 2.05 4.71C1.97 4.53 2 4.33 2.12 4.18L4.62 1.18C4.72 1.07 4.86 1.01 5.01 1.01C5.15 1.01 5.29 1.07 5.39 1.18L7.89 4.18C8.02 4.33 8.04 4.54 7.96 4.71C7.88 4.89 7.7 5 7.5 5L6.66 5L8.91 8.21C9.02 8.36 9.04 8.56 8.95 8.73C8.86 8.9 8.69 9 8.5 9L5.5 9L5.5 13L11 13L11 11L9.5 11C9.23 11 9 10.78 9 10.5C9 10.22 9.23 10 9.5 10L13.5 10C13.78 10 14 10.22 14 10.5C14 10.78 13.78 11 13.5 11L12 11L12 13L13.5 13C13.78 13 14 13.22 14 13.5C14 13.78 13.78 14 13.5 14L1.5 14C1.23 14 1 13.78 1 13.5C1 13.22 1.23 13 1.5 13Z"/>
</svg>