<svg xmlns="http://www.w3.org/2000/svg" viewBox="0 0 15 15">
  <path fill="param(fill) #888" stroke="param(outline) #000" stroke-width="param(outline-width) 0" fill-opacity="param(fill-opacity) 1" stroke-opacity="param(outline-opacity) 1" d="M7.5 0L7.09 1.03H6.05L6.88 1.75L6.47 2.99L7.5 2.27L8.53 2.99L8.12 1.75L8.95 1.03H7.91ZM7.5 2.63L5.89 3.75L6.06 3.27L4.43 4.71C4.26 4.86 4.24 5.14 4.39 5.32L4.45 5.37C4.53 5.43 4.62 5.46 4.72 5.46H6.53L3.54 8.18C3.36 8.34 3.35 8.61 3.51 8.79C3.59 8.88 3.71 8.93 3.83 8.93H6.37L2.87 11.62C2.68 11.77 2.65 12.04 2.79 12.23L2.85 12.29C2.93 12.36 3.03 12.4 3.13 12.4H6.62V15H8.36V12.4H11.86C12.1 12.4 12.3 12.21 12.3 11.96C12.3 11.83 12.24 11.7 12.12 11.62L8.62 8.93H11.15C11.38 8.93 11.58 8.74 11.58 8.5L11.57 8.43C11.56 8.33 11.51 8.25 11.44 8.18L8.45 5.46H10.25C10.5 5.46 10.69 5.27 10.69 5.03C10.69 4.91 10.64 4.79 10.55 4.71L8.95 3.29L9.1 3.75ZM6.5 3.99A0.5 0.5 0 0 1 7 4.49A0.5 0.5 0 0 1 6.5 4.99A0.5 0.5 0 0 1 6 4.49A0.5 0.5 0 0 1 6.5 3.99ZM8.5 3.99A0.5 0.5 0 0 1 9 4.49A0.5 0.5 0 0 1 8.5 4.99A0.5 0.5 0 0 1 8 4.49A0.5 0.5 0 0 1 8.5 3.99ZM7.5 5.98A0.5 0.5 0 0 1 8 6.48A0.5 0.5 0 0 1 7.5 6.98A0.5 0.5 0 0 1 7 6.48A0.5 0.5 0 0 1 7.5 5.98ZM5.5 6.98A0.5 0.5 0 0 1 6 7.48A0.5 0.5 0 0 1 5.5 7.98A0.5 0.5 0 0 1 5 7.48A0.5 0.5 0 0 1 5.5 6.98ZM9.5 6.98A0.5 0.5 0 0 1 10 7.48A0.5 0.5 0 0 1 9.5 7.98A0.5 0.5 0 0 1 9 7.48A0.5 0.5 0 0 1 9.5 6.98ZM7.5 7.98A0.5 0.5 0 0 1 8 8.48A0.5 0.5 0 0 1 7.5 8.98A0.5 0.5 0 0 1 7 8.48A0.5 0.5 0 0 1 7.5 7.98ZM7.5 9.97A0.5 0.5 0 0 1 8 10.47A0.5 0.5 0 0 1 7.5 10.97A0.5 0.5 0 0 1 7 10.47A0.5 0.5 0 0 1 7.5 9.97ZM5.5 10.97A0.5 0.5 0 0 1 6 11.47A0.5 0.5 0 0 1 5.5 11.97A0.5 0.5 0 0 1 5 11.47A0.5 0.5 0 0 1 5.5 10.97ZM9.5 10.97A0.5 0.5 0 0 1 10 11.47A0.5 0.5 0 0 1 9.5 11.97A0.5 0.5 0 0 1 9 11.47A0.5 0.5 0 0 1 9.5 10.97Z"/>
</svg>