<svg xmlns="http://www.w3.org/2000/svg" viewBox="0 0 15 15">
  <path fill="param(fill) #888" stroke="param(outline) #000" stroke-width="param(outline-width) 0" fill-opacity="param(fill-opacity) 1" stroke-opacity="param(outline-opacity) 1" d="M10.5 2L12.72 4.3C12.79 4.38 12.83 4.49 12.83 4.6C12.83 4.82 12.67 5 12.48 5L11 5L13.3 7.3C13.36 7.37 13.4 7.45 13.41 7.54L13.42 7.6C13.42 7.82 13.26 8 13.06 8L11.25 8L13.85 10.65C14.05 10.85 14.04 11.16 13.85 11.36C13.75 11.45 13.63 11.5 13.5 11.5L11 11.5L11 14L10 14L10 11.5L8.36 11.5C8.58 11.12 8.53 10.63 8.21 10.3L7.85 9.93L9.75 8L7.93 8C7.9 8 7.87 7.99 7.84 7.98C7.89 7.87 7.92 7.74 7.92 7.6L7.9 7.46L7.89 7.36C7.87 7.3 7.85 7.24 7.82 7.18L10 5L8.52 5C8.44 5 8.36 4.97 8.3 4.91L8.25 4.86C8.13 4.7 8.14 4.45 8.28 4.3L10.5 2ZM4.5 2L6.72 4.3C6.79 4.38 6.83 4.49 6.83 4.6C6.83 4.82 6.67 5 6.48 5L5 5L7.3 7.3C7.36 7.37 7.4 7.45 7.41 7.54L7.42 7.6C7.42 7.82 7.26 8 7.06 8L5.25 8L7.85 10.65C8.05 10.85 8.04 11.16 7.85 11.36C7.78 11.43 7.69 11.47 7.59 11.49L7.5 11.5L5 11.5L5 14L4 14L4 11.5L1.49 11.5C1.22 11.5 0.99 11.28 0.99 11C0.99 10.87 1.05 10.74 1.14 10.65L3.75 8L1.93 8C1.83 8 1.74 7.95 1.67 7.87C1.54 7.7 1.55 7.46 1.69 7.3L4 5L2.52 5C2.44 5 2.36 4.97 2.3 4.91L2.25 4.86C2.13 4.7 2.14 4.45 2.28 4.3L4.5 2Z"/>
</svg>