<svg xmlns="http://www.w3.org/2000/svg" viewBox="0 0 15 15">
  <path fill="param(fill) #888" stroke="param(outline) #000" stroke-width="param(outline-width) 0" fill-opacity="param(fill-opacity) 1" stroke-opacity="param(outline-opacity) 1" d="M7.5 0C6.01 0 4.74 1.07 3.88 2.62C3.01 4.17 2.5 6.26 2.5 8.55C2.5 8.81 2.51 9.06 2.52 9.31C2.8 9.47 3.1 9.64 3.41 9.82C3.47 9.86 3.54 9.9 3.6 9.94C3.57 9.63 3.55 9.32 3.54 9L4.4 9L4.49 9L4.6 9C4.82 9 5 9.18 5 9.4L5 9.5L5 9.6C5 9.82 4.82 10 4.6 10L4.49 10L4.4 10L3.7 10C5.19 10.94 6.79 12.23 7.27 14.01C7.35 14.32 7.65 14.31 7.73 14C8.1 12.2 9.8 10.94 11.29 10L10.4 10C10.18 10 10 9.82 10 9.6L10 9.4C10 9.18 10.18 9 10.4 9L11.46 9C11.45 9.32 11.43 9.63 11.4 9.94C11.46 9.89 11.53 9.85 11.59 9.81C11.9 9.63 12.2 9.46 12.48 9.31C12.49 9.06 12.5 8.81 12.5 8.55C12.5 6.26 11.99 4.17 11.12 2.62C10.26 1.07 8.99 0 7.5 0ZM7.5 1.03C7.83 1.03 8.16 1.12 8.48 1.28C8.49 1.31 8.5 1.36 8.5 1.4L8.5 1.6C8.5 1.82 8.32 2 8.1 2L6.9 2C6.68 2 6.5 1.82 6.5 1.6L6.5 1.4C6.5 1.36 6.51 1.31 6.52 1.28C6.84 1.12 7.17 1.03 7.5 1.03ZM6.9 3L8.1 3C8.32 3 8.5 3.18 8.5 3.4L8.5 3.6C8.5 3.82 8.32 4 8.1 4L6.9 4C6.68 4 6.5 3.82 6.5 3.6L6.5 3.4C6.5 3.18 6.68 3 6.9 3ZM4.81 3.06C4.93 3.13 5 3.26 5 3.4L5 3.6C5 3.82 4.82 4 4.6 4L4.36 4C4.49 3.69 4.63 3.39 4.78 3.12L4.81 3.06ZM10.19 3.06L10.22 3.12C10.37 3.39 10.51 3.69 10.64 4L10.4 4C10.18 4 10 3.82 10 3.6L10 3.4C10 3.26 10.07 3.13 10.19 3.06ZM4.02 5L4.4 5L4.49 5L4.6 5C4.82 5 5 5.18 5 5.4L5 5.5L5 5.6C5 5.82 4.82 6 4.6 6L4.49 6L4.4 6L3.78 6C3.84 5.65 3.92 5.32 4.02 5ZM6.9 5L8.1 5C8.32 5 8.5 5.18 8.5 5.4L8.5 5.6C8.5 5.82 8.32 6 8.1 6L6.9 6C6.68 6 6.5 5.82 6.5 5.6L6.5 5.4C6.5 5.18 6.68 5 6.9 5ZM10.4 5L10.98 5C11.08 5.32 11.16 5.65 11.22 6L10.4 6C10.18 6 10 5.82 10 5.6L10 5.4C10 5.18 10.18 5 10.4 5ZM3.62 7L4.4 7L4.49 7L4.6 7C4.82 7 5 7.18 5 7.4L5 7.5L5 7.6C5 7.82 4.82 8 4.6 8L4.49 8L4.4 8L3.54 8C3.56 7.66 3.58 7.33 3.62 7ZM6.9 7L8.1 7C8.32 7 8.5 7.18 8.5 7.4L8.5 7.6C8.5 7.82 8.32 8 8.1 8L6.9 8C6.68 8 6.5 7.82 6.5 7.6L6.5 7.4C6.5 7.18 6.68 7 6.9 7ZM10.4 7L11.38 7C11.42 7.33 11.44 7.66 11.46 8L10.4 8C10.18 8 10 7.82 10 7.6L10 7.4C10 7.18 10.18 7 10.4 7ZM6.9 9L8.1 9C8.32 9 8.5 9.18 8.5 9.4L8.5 9.6C8.5 9.82 8.32 10 8.1 10L6.9 10C6.68 10 6.5 9.82 6.5 9.6L6.5 9.4C6.5 9.18 6.68 9 6.9 9ZM14.9 9C14.9 9 13.75 9.45 12.41 10.21C12 10.44 11.57 10.71 11.15 11C10.78 11.26 10.43 11.55 10.09 11.85L10.09 11.85L10.09 11.85L10.08 11.85L10.08 11.85L10.08 11.85L10.08 11.84C9.88 12.03 9.68 12.22 9.5 12.42C9.36 12.58 9.22 12.75 9.1 12.92C9.02 13.03 8.94 13.14 8.87 13.25L8.87 13.26C8.84 13.3 8.82 13.34 8.8 13.38C8.74 13.48 8.69 13.58 8.64 13.68C8.63 13.72 8.62 13.75 8.6 13.78C8.54 13.92 8.49 14.06 8.46 14.2C8.39 14.42 8.35 14.68 8.31 14.95L8.31 15L12.8 15C14.05 12.28 14.9 9 14.9 9ZM0.1 9.01C0.1 9.01 0.94 12.28 2.19 15L6.69 15C6.66 14.71 6.61 14.44 6.54 14.2C6.51 14.06 6.46 13.93 6.4 13.79C6.38 13.76 6.37 13.72 6.35 13.68C6.3 13.57 6.25 13.46 6.19 13.36C6.17 13.33 6.15 13.3 6.14 13.27L5.9 12.91C5.77 12.74 5.63 12.58 5.49 12.42C5.3 12.21 5.1 12.01 4.88 11.82L4.88 11.83C4.55 11.53 4.21 11.25 3.84 11C3.43 10.71 3 10.44 2.59 10.21C1.25 9.45 0.1 9.01 0.1 9.01ZM6.9 11L8.1 11C8.32 11 8.5 11.18 8.5 11.4L8.5 11.6C8.5 11.82 8.32 12 8.1 12L6.9 12C6.68 12 6.5 11.82 6.5 11.6L6.5 11.4C6.5 11.18 6.68 11 6.9 11Z"/>
</svg>