<svg xmlns="http://www.w3.org/2000/svg" viewBox="0 0 15 15">
  <path fill="param(fill) #888" stroke="param(outline) #000" stroke-width="param(outline-width) 0" fill-opacity="param(fill-opacity) 1" stroke-opacity="param(outline-opacity) 1" d="M14.29 1C14.57 1 14.79 1.22 14.79 1.5C14.79 1.63 14.74 1.76 14.65 1.85L8.75 7.75L14.57 13.57C14.6 13.6 14.63 13.64 14.64 13.69L14.65 13.75C14.65 13.89 14.53 14 14.4 14L12.5 14L7.5 9L2.5 14L0.6 14C0.47 14 0.35 13.89 0.35 13.75C0.35 13.68 0.38 13.62 0.43 13.57L6.25 7.75L0.35 1.85C0.28 1.78 0.23 1.68 0.21 1.58L0.21 1.5C0.21 1.22 0.43 1 0.71 1L14.29 1ZM2 6C3.1 6 4 6.9 4 8C4 9.1 3.1 10 2 10C0.9 10 0 9.1 0 8C0 6.9 0.9 6 2 6ZM13 6C14.1 6 15 6.9 15 8C15 9.1 14.1 10 13 10C11.9 10 11 9.1 11 8C11 6.9 11.9 6 13 6ZM2 7.25C1.59 7.25 1.25 7.59 1.25 8C1.25 8.41 1.59 8.75 2 8.75C2.41 8.75 2.75 8.41 2.75 8C2.75 7.59 2.41 7.25 2 7.25ZM13 7.25C12.59 7.25 12.25 7.59 12.25 8C12.25 8.41 12.59 8.75 13 8.75C13.41 8.75 13.75 8.41 13.75 8C13.75 7.59 13.41 7.25 13 7.25ZM11 3L4 3L7.5 6.5L11 3Z"/>
</svg>