<svg xmlns="http://www.w3.org/2000/svg" viewBox="0 0 15 15">
  <path fill="param(fill) #888" stroke="param(outline) #000" stroke-width="param(outline-width) 0" fill-opacity="param(fill-opacity) 1" stroke-opacity="param(outline-opacity) 1" d="M14.29 1C14.57 1 14.79 1.22 14.79 1.5C14.79 1.63 14.74 1.76 14.65 1.85L8.75 7.75L14.57 13.57C14.6 13.6 14.63 13.64 14.64 13.69L14.65 13.75C14.65 13.89 14.53 14 14.4 14L12.5 14L7.5 9L2.5 14L0.6 14C0.47 14 0.35 13.89 0.35 13.75C0.35 13.68 0.38 13.62 0.43 13.57L6.25 7.75L0.35 1.85C0.28 1.78 0.23 1.68 0.21 1.58L0.21 1.5C0.21 1.22 0.43 1 0.71 1L14.29 1ZM11 3L4 3L7.5 6.5L11 3Z"/>
</svg>