<svg xmlns="http://www.w3.org/2000/svg" viewBox="0 0 15 15">
  <path fill="param(fill) #888" stroke="param(outline) #000" stroke-width="param(outline-width) 0" fill-opacity="param(fill-opacity) 1" stroke-opacity="param(outline-opacity) 1" d="M4.09 3.08C3.72 2.89 3.26 3.04 3.08 3.41C2.89 3.79 3.04 4.24 3.41 4.42L4.63 5.03C4.81 5.12 4.81 5.38 4.63 5.47L3.41 6.08C3.04 6.26 2.89 6.72 3.08 7.09C3.26 7.46 3.72 7.61 4.09 7.42L5.3 6.82C6.59 6.17 6.59 4.33 5.3 3.68L4.09 3.08ZM11.41 3.08C11.79 2.89 12.24 3.04 12.42 3.41C12.61 3.79 12.46 4.24 12.09 4.42L10.87 5.03C10.69 5.12 10.69 5.38 10.87 5.47L12.09 6.08C12.46 6.26 12.61 6.72 12.42 7.09C12.24 7.46 11.79 7.61 11.41 7.42L10.2 6.82C8.91 6.17 8.91 4.33 10.2 3.68L11.41 3.08ZM10.5 10.75C10.5 12.27 9.27 13.5 7.75 13.5C6.23 13.5 5 12.27 5 10.75C5 9.23 6.23 8 7.75 8C9.27 8 10.5 9.23 10.5 10.75Z"/>
</svg>