<svg xmlns="http://www.w3.org/2000/svg" viewBox="0 0 15 15">
  <path fill="param(fill) #888" stroke="param(outline) #000" stroke-width="param(outline-width) 0" fill-opacity="param(fill-opacity) 1" stroke-opacity="param(outline-opacity) 1" d="M12 13.31L12.35 13.67C12.64 13.97 12.63 14.44 12.34 14.73C12.04 15.02 11.56 15.01 11.28 14.71L10.93 14.35C10.64 14.05 10.64 13.58 10.94 13.29C11.24 13 11.71 13.01 12 13.31ZM7.75 8C8.51 8 9.19 8.31 9.69 8.8C9.37 9.01 9.12 9.32 9 9.7L8.95 9.85C8.91 10.04 8.89 10.24 8.91 10.43L8.92 10.46L8.9 10.47C8.75 10.55 8.62 10.65 8.49 10.76C7.8 11.44 7.78 12.55 8.45 13.24L8.58 13.37C8.32 13.46 8.04 13.5 7.75 13.5C6.23 13.5 5 12.27 5 10.75C5 9.23 6.23 8 7.75 8ZM9.67 11.27L9.78 11.27C9.95 11.29 10.12 11.36 10.25 11.5L10.36 11.61L10.36 11.61L10.72 11.98C11.01 12.28 11 12.75 10.7 13.04C10.4 13.33 9.93 13.32 9.64 13.03L9.17 12.54C8.88 12.25 8.89 11.77 9.19 11.48C9.32 11.35 9.5 11.28 9.67 11.27ZM13.22 11.14C13.34 10.75 13.76 10.52 14.15 10.64L14.39 10.72C14.79 10.84 15.01 11.26 14.89 11.65C14.77 12.05 14.35 12.27 13.95 12.15L13.72 12.08C13.32 11.96 13.1 11.54 13.22 11.14ZM10.18 9.68L10.2 9.66C10.22 9.65 10.23 9.64 10.25 9.63C10.25 9.63 10.25 9.62 10.26 9.62C10.44 9.51 10.67 9.47 10.89 9.55L12.25 10C12.64 10.13 12.85 10.56 12.72 10.95C12.59 11.34 12.17 11.55 11.77 11.42L10.42 10.97C10.02 10.84 9.81 10.41 9.94 10.02L9.98 9.93L9.94 10.02C9.96 9.97 9.98 9.93 10 9.88C10.03 9.84 10.06 9.79 10.1 9.76C10.11 9.75 10.12 9.74 10.13 9.73C10.14 9.71 10.15 9.7 10.16 9.69L10.18 9.68ZM4.09 3.08L5.3 3.68C6.59 4.33 6.59 6.17 5.3 6.82L4.09 7.42C3.72 7.61 3.26 7.46 3.08 7.09C2.89 6.72 3.04 6.26 3.41 6.08L4.63 5.47C4.81 5.38 4.81 5.12 4.63 5.03L3.41 4.42C3.04 4.24 2.89 3.79 3.08 3.41C3.26 3.04 3.72 2.89 4.09 3.08ZM12.42 3.41C12.61 3.79 12.46 4.24 12.09 4.42L10.87 5.03C10.69 5.12 10.69 5.38 10.87 5.47L12.09 6.08C12.46 6.26 12.61 6.72 12.42 7.09C12.24 7.46 11.79 7.61 11.41 7.42L10.2 6.82C8.91 6.17 8.91 4.33 10.2 3.68L11.41 3.08C11.79 2.89 12.24 3.04 12.42 3.41Z"/>
</svg>