<svg xmlns="http://www.w3.org/2000/svg" viewBox="0 0 15 15">
  <path fill="param(fill) #888" stroke="param(outline) #000" stroke-width="param(outline-width) 0" fill-opacity="param(fill-opacity) 1" stroke-opacity="param(outline-opacity) 1" d="M7.5 0C11.64 0 15 3.36 15 7.5C15 8.33 14.86 9.13 14.62 9.88C14.52 9.82 14.43 9.77 14.32 9.72C13.91 9.54 13.45 9.45 12.95 9.45C12.52 9.45 11.83 9.51 10.84 9.65L9.91 9.78C9.74 8.8 8.9 8.06 7.88 8.06C6.74 8.06 5.81 8.99 5.81 10.13C5.81 11.26 6.74 12.19 7.88 12.19C8.2 12.19 8.51 12.11 8.78 11.98L9.05 13.14C9.17 13.62 9.27 13.97 9.37 14.21C9.43 14.39 9.51 14.55 9.6 14.7C8.94 14.9 8.23 15 7.5 15C3.36 15 0 11.64 0 7.5C0 3.36 3.36 0 7.5 0ZM9.92 12.47L10.52 12.61C10.88 12.7 11.14 12.78 11.31 12.85C11.56 12.95 11.76 13.07 11.92 13.23C11.95 13.26 11.97 13.28 12 13.31L11.92 13.23L11.97 13.28L12.01 13.34C12.04 13.36 12.05 13.39 12.07 13.42C12.16 13.56 12.21 13.72 12.22 13.9C12.24 14.15 12.16 14.37 11.99 14.54C11.82 14.71 11.6 14.79 11.35 14.77C11.09 14.76 10.87 14.66 10.68 14.47C10.52 14.31 10.4 14.11 10.3 13.86L10.23 13.66C10.14 13.39 10.04 12.99 9.92 12.47ZM12.94 10.45C13.32 10.45 13.64 10.51 13.91 10.63L14.01 10.68L14.12 10.75L14.23 10.82C14.4 10.96 14.54 11.13 14.63 11.34C14.77 11.67 14.78 11.98 14.64 12.28C14.51 12.58 14.27 12.79 13.94 12.9C13.6 13.01 13.26 12.98 12.93 12.83L12.74 12.73L12.61 12.65L12.5 12.57L12.42 12.51L12.29 12.39L12.22 12.31L12.14 12.23C11.89 11.96 11.51 11.42 10.98 10.64L11.46 10.57C12.15 10.49 12.64 10.45 12.94 10.45ZM4.37 4.62C4.23 4.9 4.35 5.24 4.62 5.38L5.53 5.83C5.67 5.9 5.67 6.1 5.53 6.17L4.62 6.62C4.35 6.76 4.23 7.1 4.37 7.38C4.51 7.65 4.85 7.77 5.13 7.63L6.03 7.17C7 6.69 7 5.31 6.03 4.83L5.13 4.37C4.85 4.23 4.51 4.35 4.37 4.62ZM10.62 4.37L9.72 4.83C8.75 5.31 8.75 6.69 9.72 7.17L10.62 7.63C10.9 7.77 11.24 7.65 11.38 7.38C11.52 7.1 11.4 6.76 11.13 6.62L10.22 6.17C10.08 6.1 10.08 5.9 10.22 5.83L11.13 5.38C11.4 5.24 11.52 4.9 11.38 4.62C11.24 4.35 10.9 4.23 10.62 4.37Z"/>
</svg>