<svg xmlns="http://www.w3.org/2000/svg" viewBox="0 0 15 15">
  <path fill="param(fill) #888" stroke="param(outline) #000" stroke-width="param(outline-width) 0" fill-opacity="param(fill-opacity) 1" stroke-opacity="param(outline-opacity) 1" d="M5.13 4.37C4.85 4.23 4.51 4.35 4.37 4.62C4.23 4.9 4.35 5.24 4.62 5.38L5.53 5.83C5.67 5.9 5.67 6.1 5.53 6.17L4.62 6.62C4.35 6.76 4.23 7.1 4.37 7.38C4.51 7.65 4.85 7.77 5.13 7.63L6.03 7.17C7 6.69 7 5.31 6.03 4.83L5.13 4.37ZM10.62 4.37C10.9 4.23 11.24 4.35 11.38 4.62C11.52 4.9 11.4 5.24 11.13 5.38L10.22 5.83C10.08 5.9 10.08 6.1 10.22 6.17L11.13 6.62C11.4 6.76 11.52 7.1 11.38 7.38C11.24 7.65 10.9 7.77 10.62 7.63L9.72 7.17C8.75 6.69 8.75 5.31 9.72 4.83L10.62 4.37ZM1.5 7.5C1.5 4.19 4.19 1.5 7.5 1.5C10.81 1.5 13.5 4.19 13.5 7.5C13.5 8.09 13.42 8.65 13.26 9.19C13.43 9.22 13.59 9.25 13.74 9.3C14.09 9.41 14.39 9.58 14.64 9.8C14.87 9.08 15 8.3 15 7.5C15 3.36 11.64 0 7.5 0C3.36 0 0 3.36 0 7.5C0 11.64 3.36 15 7.5 15C8.17 15 8.81 14.91 9.42 14.75C9.29 14.54 9.18 14.31 9.07 14.05C9 13.87 8.92 13.64 8.84 13.35C8.41 13.45 7.96 13.5 7.5 13.5C4.19 13.5 1.5 10.81 1.5 7.5ZM11.35 14.77C11.6 14.79 11.82 14.71 11.99 14.54C12.16 14.37 12.24 14.15 12.22 13.9C12.21 13.64 12.11 13.42 11.92 13.23C11.76 13.07 11.56 12.95 11.31 12.85C11.06 12.75 10.59 12.62 9.92 12.47C10.08 13.14 10.2 13.6 10.3 13.86C10.4 14.11 10.52 14.31 10.68 14.47C10.87 14.66 11.09 14.76 11.35 14.77ZM9.94 10.13C9.94 11.26 9.01 12.19 7.88 12.19C6.74 12.19 5.81 11.26 5.81 10.13C5.81 8.99 6.74 8.06 7.88 8.06C9.01 8.06 9.94 8.99 9.94 10.13ZM13.94 12.9C14.27 12.79 14.51 12.58 14.64 12.28C14.78 11.98 14.77 11.67 14.63 11.34C14.49 11.02 14.25 10.79 13.91 10.63C13.64 10.51 13.32 10.45 12.94 10.45C12.57 10.45 11.92 10.51 10.98 10.64C11.51 11.42 11.89 11.96 12.14 12.23C12.39 12.51 12.65 12.71 12.93 12.83C13.26 12.98 13.6 13.01 13.94 12.9Z"/>
</svg>