<svg xmlns="http://www.w3.org/2000/svg" viewBox="0 0 15 15">
  <path fill="param(fill) #888" stroke="param(outline) #000" stroke-width="param(outline-width) 0" fill-opacity="param(fill-opacity) 1" stroke-opacity="param(outline-opacity) 1" d="M7.5 0C11.64 0 14.99 3.36 14.99 7.5C14.99 8.28 14.87 9.04 14.65 9.75L14.44 9.69L14.3 9.65C14 9.59 13.71 9.6 13.43 9.69L13.39 9.63C13.33 9.55 13.26 9.48 13.18 9.41C13.39 8.81 13.5 8.17 13.5 7.5C13.5 4.18 10.81 1.5 7.5 1.5C4.18 1.5 1.5 4.18 1.5 7.5C1.5 10.81 4.18 13.5 7.5 13.5C7.88 13.5 8.24 13.46 8.6 13.39L8.92 13.72L9.05 13.84C9.21 13.98 9.41 14.09 9.61 14.16L9.68 14.18L9.77 14.27L9.79 14.35L9.84 14.48L9.89 14.6L9.75 14.65C9.04 14.87 8.28 14.99 7.5 14.99C3.36 14.99 0 11.64 0 7.5C0 3.36 3.36 0 7.5 0ZM12 13.31L12.35 13.67C12.64 13.97 12.63 14.44 12.34 14.73C12.04 15.02 11.56 15.01 11.28 14.71L10.93 14.35C10.64 14.05 10.64 13.58 10.94 13.29C11.24 13 11.71 13.01 12 13.31ZM10.25 11.5L10.72 11.98C11.01 12.28 11 12.75 10.7 13.04C10.4 13.33 9.93 13.32 9.64 13.03L9.17 12.54C8.88 12.25 8.89 11.77 9.19 11.48C9.49 11.2 9.96 11.2 10.25 11.5ZM7.87 8.06C8.56 8.06 9.17 8.39 9.54 8.91C9.3 9.11 9.1 9.38 9 9.7L8.95 9.85C8.91 10.04 8.89 10.24 8.91 10.43L8.92 10.46L8.9 10.47C8.75 10.55 8.62 10.65 8.49 10.76C8.1 11.15 7.92 11.67 7.97 12.18L7.87 12.18C6.73 12.18 5.81 11.26 5.81 10.12C5.81 8.98 6.73 8.06 7.87 8.06ZM13.22 11.14C13.34 10.75 13.76 10.52 14.15 10.64L14.39 10.72C14.79 10.84 15.01 11.26 14.89 11.65C14.77 12.05 14.35 12.27 13.95 12.15L13.72 12.08C13.32 11.96 13.1 11.54 13.22 11.14ZM10.89 9.55L12.25 10C12.64 10.13 12.85 10.56 12.72 10.95C12.59 11.34 12.17 11.55 11.77 11.42L10.42 10.97C10.02 10.84 9.81 10.41 9.94 10.02C10.08 9.63 10.5 9.41 10.89 9.55ZM5.12 4.37L6.03 4.82C7 5.31 7 6.69 6.03 7.17L5.12 7.63C4.85 7.76 4.51 7.65 4.37 7.37C4.23 7.1 4.34 6.76 4.62 6.62L5.53 6.17C5.67 6.1 5.67 5.9 5.53 5.83L4.62 5.38C4.34 5.24 4.23 4.9 4.37 4.62C4.51 4.34 4.85 4.23 5.12 4.37ZM11.37 4.62C11.51 4.9 11.4 5.24 11.12 5.38L10.21 5.83C10.08 5.9 10.08 6.1 10.21 6.17L11.12 6.62C11.4 6.76 11.51 7.1 11.37 7.37C11.24 7.65 10.9 7.76 10.62 7.63L9.71 7.17C8.74 6.69 8.74 5.31 9.71 4.82L10.62 4.37C10.9 4.23 11.24 4.34 11.37 4.62Z"/>
</svg>