<svg xmlns="http://www.w3.org/2000/svg" viewBox="0 0 15 15">
  <path fill="param(fill) #888" stroke="param(outline) #000" stroke-width="param(outline-width) 0" fill-opacity="param(fill-opacity) 1" stroke-opacity="param(outline-opacity) 1" d="M7.5 0C11.64 0 15 3.36 15 7.5C15 11.64 11.64 15 7.5 15C3.36 15 0 11.64 0 7.5C0 3.36 3.36 0 7.5 0ZM7.5 1.5C4.19 1.5 1.5 4.19 1.5 7.5C1.5 10.81 4.19 13.5 7.5 13.5C10.81 13.5 13.5 10.81 13.5 7.5C13.5 4.19 10.81 1.5 7.5 1.5ZM7.88 8.06C9.01 8.06 9.94 8.99 9.94 10.13C9.94 11.26 9.01 12.19 7.88 12.19C6.74 12.19 5.81 11.26 5.81 10.13C5.81 8.99 6.74 8.06 7.88 8.06ZM5.13 4.37L6.03 4.83C7 5.31 7 6.69 6.03 7.17L5.13 7.63C4.85 7.77 4.51 7.65 4.37 7.38C4.23 7.1 4.35 6.76 4.62 6.62L5.53 6.17C5.67 6.1 5.67 5.9 5.53 5.83L4.62 5.38C4.35 5.24 4.23 4.9 4.37 4.62C4.51 4.35 4.85 4.23 5.13 4.37ZM11.38 4.62C11.52 4.9 11.4 5.24 11.13 5.38L10.22 5.83C10.08 5.9 10.08 6.1 10.22 6.17L11.13 6.62C11.4 6.76 11.52 7.1 11.38 7.38C11.24 7.65 10.9 7.77 10.62 7.63L9.72 7.17C8.75 6.69 8.75 5.31 9.72 4.83L10.62 4.37C10.9 4.23 11.24 4.35 11.38 4.62Z"/>
</svg>