<svg xmlns="http://www.w3.org/2000/svg" viewBox="0 0 15 15">
  <path fill="param(fill) #888" stroke="param(outline) #000" stroke-width="param(outline-width) 0" fill-opacity="param(fill-opacity) 1" stroke-opacity="param(outline-opacity) 1" d="M7.5 0C11.64 0 15 3.36 15 7.5C15 8.28 14.88 9.04 14.66 9.75L14.44 9.69L14.3 9.65C14 9.59 13.71 9.6 13.43 9.69L13.39 9.63C13.19 9.37 12.9 9.16 12.57 9.05L11.21 8.6C10.62 8.4 9.99 8.54 9.54 8.91C9.17 8.39 8.56 8.06 7.87 8.06C6.73 8.06 5.81 8.98 5.81 10.12C5.81 11.26 6.73 12.18 7.87 12.18C7.91 12.18 7.94 12.18 7.97 12.18C8 12.56 8.17 12.94 8.45 13.24L8.92 13.72L9.05 13.84C9.21 13.98 9.41 14.09 9.61 14.16L9.75 14.2L9.79 14.35C9.82 14.44 9.85 14.52 9.9 14.61C9.15 14.86 8.34 15 7.5 15C3.36 15 0 11.64 0 7.5C0 3.36 3.36 0 7.5 0ZM12 13.31L12.35 13.67C12.64 13.97 12.63 14.44 12.34 14.73C12.04 15.02 11.56 15.01 11.28 14.71L10.93 14.35C10.83 14.26 10.77 14.14 10.74 14.03C10.74 14.02 10.74 14.01 10.74 14.01C10.72 13.94 10.71 13.88 10.71 13.81C10.72 13.8 10.72 13.8 10.72 13.79C10.72 13.76 10.72 13.74 10.72 13.71C10.73 13.7 10.73 13.68 10.73 13.67C10.74 13.65 10.74 13.63 10.75 13.61C10.75 13.59 10.76 13.58 10.76 13.57C10.77 13.55 10.78 13.53 10.79 13.51C10.79 13.5 10.8 13.48 10.81 13.47C10.82 13.45 10.83 13.43 10.84 13.41C10.86 13.38 10.88 13.36 10.9 13.33C10.92 13.32 10.93 13.3 10.94 13.29C11.24 13 11.71 13.01 12 13.31ZM9.67 11.27L9.78 11.27C9.95 11.29 10.12 11.36 10.25 11.5L10.72 11.98C11.01 12.28 11 12.75 10.7 13.04C10.59 13.15 10.46 13.21 10.32 13.24L10.22 13.25C10.01 13.26 9.8 13.19 9.64 13.03L9.17 12.54C8.99 12.36 8.93 12.1 8.98 11.86C9.01 11.72 9.08 11.59 9.19 11.48C9.3 11.38 9.43 11.31 9.57 11.29L9.67 11.27ZM13.95 10.61L14.05 10.62C14.09 10.63 14.12 10.63 14.15 10.64L14.29 10.69L14.39 10.72C14.79 10.84 15.01 11.26 14.89 11.65C14.77 12.05 14.35 12.27 13.95 12.15L13.72 12.08C13.61 12.05 13.52 11.99 13.44 11.93L13.51 11.98C13.48 11.96 13.44 11.93 13.41 11.9C13.39 11.88 13.38 11.87 13.37 11.85C13.36 11.84 13.35 11.83 13.35 11.83C13.33 11.81 13.32 11.79 13.31 11.77C13.3 11.76 13.29 11.75 13.29 11.74C13.27 11.72 13.26 11.7 13.25 11.68C13.25 11.67 13.25 11.66 13.24 11.65C13.23 11.63 13.23 11.61 13.22 11.59C13.22 11.58 13.21 11.56 13.21 11.55C13.2 11.53 13.2 11.52 13.2 11.5C13.19 11.48 13.19 11.47 13.19 11.45C13.19 11.43 13.18 11.4 13.18 11.38C13.18 11.36 13.18 11.34 13.19 11.31C13.19 11.26 13.2 11.2 13.22 11.14C13.32 10.81 13.62 10.6 13.95 10.61ZM10.7 9.51L10.79 9.52C10.83 9.53 10.86 9.54 10.89 9.55L12.25 10L12.3 10.02L12.34 10.04C12.68 10.2 12.84 10.59 12.72 10.95C12.62 11.24 12.36 11.44 12.07 11.46L11.97 11.46C11.91 11.46 11.84 11.44 11.77 11.42L10.42 10.97C10.14 10.88 9.96 10.64 9.92 10.38C9.9 10.26 9.9 10.14 9.94 10.02C10.05 9.69 10.37 9.49 10.7 9.51ZM4.37 4.62C4.23 4.9 4.34 5.24 4.62 5.38L5.53 5.83C5.67 5.9 5.67 6.1 5.53 6.17L4.62 6.62C4.34 6.76 4.23 7.1 4.37 7.37C4.51 7.65 4.85 7.76 5.12 7.63L6.03 7.17C7 6.69 7 5.31 6.03 4.82L5.12 4.37C4.85 4.23 4.51 4.34 4.37 4.62ZM11.37 4.62C11.24 4.34 10.9 4.23 10.62 4.37L9.71 4.82C8.74 5.31 8.74 6.69 9.71 7.17L10.62 7.63C10.9 7.76 11.24 7.65 11.37 7.37C11.51 7.1 11.4 6.76 11.12 6.62L10.21 6.17C10.08 6.1 10.08 5.9 10.21 5.83L11.12 5.38C11.4 5.24 11.51 4.9 11.37 4.62Z"/>
</svg>