<svg xmlns="http://www.w3.org/2000/svg" viewBox="0 0 15 15">
  <path fill="param(fill) #888" stroke="param(outline) #000" stroke-width="param(outline-width) 0" fill-opacity="param(fill-opacity) 1" stroke-opacity="param(outline-opacity) 1" d="M7.5 0C11.64 0 15 3.36 15 7.5C15 11.64 11.64 15 7.5 15C3.36 15 0 11.64 0 7.5C0 3.36 3.36 0 7.5 0ZM7.88 8.06C6.74 8.06 5.81 8.99 5.81 10.13C5.81 11.26 6.74 12.19 7.88 12.19C9.01 12.19 9.94 11.26 9.94 10.13C9.94 8.99 9.01 8.06 7.88 8.06ZM4.37 4.62C4.23 4.9 4.35 5.24 4.62 5.38L5.53 5.83C5.67 5.9 5.67 6.1 5.53 6.17L4.62 6.62C4.35 6.76 4.23 7.1 4.37 7.38C4.51 7.65 4.85 7.77 5.13 7.63L6.03 7.17C7 6.69 7 5.31 6.03 4.83L5.13 4.37C4.85 4.23 4.51 4.35 4.37 4.62ZM11.38 4.62C11.24 4.35 10.9 4.23 10.62 4.37L9.72 4.83C8.75 5.31 8.75 6.69 9.72 7.17L10.62 7.63C10.9 7.77 11.24 7.65 11.38 7.38C11.52 7.1 11.4 6.76 11.13 6.62L10.22 6.17C10.08 6.1 10.08 5.9 10.22 5.83L11.13 5.38C11.4 5.24 11.52 4.9 11.38 4.62Z"/>
</svg>