<svg xmlns="http://www.w3.org/2000/svg" viewBox="0 0 15 15">
  <path fill="param(fill) #888" stroke="param(outline) #000" stroke-width="param(outline-width) 0" fill-opacity="param(fill-opacity) 1" stroke-opacity="param(outline-opacity) 1" d="M10 12.6C10.7 12.76 11.18 12.89 11.44 12.99C11.7 13.09 11.91 13.22 12.07 13.38C12.27 13.58 12.37 13.81 12.39 14.08C12.4 14.34 12.32 14.56 12.14 14.74C11.97 14.92 11.74 15 11.48 14.99C11.21 14.97 10.98 14.87 10.78 14.67C10.62 14.51 10.49 14.3 10.39 14.03C10.29 13.77 10.16 13.29 10 12.6ZM7.75 8C8.93 8 9.94 8.75 10.33 9.79L9.38 9.93L10.27 11.26L10.41 11.46C10.39 11.53 10.37 11.59 10.35 11.65L10.23 11.62L8.67 11.26L9.03 12.82C9.05 12.93 9.08 13.04 9.1 13.15C8.7 13.37 8.24 13.5 7.75 13.5C6.23 13.5 5 12.27 5 10.75C5 9.23 6.23 8 7.75 8ZM13.14 10.5C13.52 10.5 13.86 10.57 14.14 10.69C14.49 10.85 14.74 11.1 14.89 11.43C15.03 11.77 15.04 12.09 14.9 12.4C14.76 12.72 14.51 12.93 14.16 13.04C13.82 13.15 13.47 13.13 13.12 12.97C12.83 12.85 12.56 12.64 12.3 12.35C12.05 12.07 11.64 11.51 11.1 10.7C12.07 10.56 12.75 10.5 13.14 10.5ZM4.09 3.08L5.3 3.68C6.59 4.33 6.59 6.17 5.3 6.82L4.09 7.42C3.72 7.61 3.26 7.46 3.08 7.09C2.89 6.72 3.04 6.26 3.41 6.08L4.63 5.47C4.81 5.38 4.81 5.12 4.63 5.03L3.41 4.42C3.04 4.24 2.89 3.79 3.08 3.41C3.26 3.04 3.72 2.89 4.09 3.08ZM12.42 3.41C12.61 3.79 12.46 4.24 12.09 4.42L10.87 5.03C10.69 5.12 10.69 5.38 10.87 5.47L12.09 6.08C12.46 6.26 12.61 6.72 12.42 7.09C12.24 7.46 11.79 7.61 11.41 7.42L10.2 6.82C8.91 6.17 8.91 4.33 10.2 3.68L11.41 3.08C11.79 2.89 12.24 3.04 12.42 3.41Z"/>
</svg>