<svg xmlns="http://www.w3.org/2000/svg" viewBox="0 0 15 15">
  <path fill="param(fill) #888" stroke="param(outline) #000" stroke-width="param(outline-width) 0" fill-opacity="param(fill-opacity) 1" stroke-opacity="param(outline-opacity) 1" d="M7 0v1c-3.2 0.24 -5.7 2.8 -6 6h-1v1h1c0.24 3.2 2.8 5.7 6 6v1h1v-1c3.2 -0.24 5.7 -2.8 6 -6h1v-1h-1c-0.24 -3.2 -2.8 -5.7 -6 -6v-1h-1zm0 2v2c-1.5 0.22 -2.7 1.4 -3 3h-2c0.24 -2.6 2.3 -4.7 5 -5zm1 0c2.6 0.24 4.7 2.3 5 5h-2c-0.22 -1.5 -1.4 -2.7 -3 -3v-2zm-1 3v2h-2c0.2 -0.98 0.97 -1.8 2 -2zm1 0c0.98 0.2 1.8 0.97 2 2h-2v-2zm-6 3h2c0.22 1.5 1.4 2.7 3 3v2c-2.6 -0.24 -4.7 -2.3 -5 -5zm3 0h2v2c-0.98 -0.2 -1.8 -0.97 -2 -2zm3 0h2c-0.2 0.98 -0.97 1.8 -2 2v-2zm3 0h2c-0.24 2.6 -2.3 4.7 -5 5v-2c1.5 -0.22 2.7 -1.4 3 -3z"/>
</svg>