<svg xmlns="http://www.w3.org/2000/svg" viewBox="0 0 15 15">
  <path fill="param(fill) #888" stroke="param(outline) #000" stroke-width="param(outline-width) 0" fill-opacity="param(fill-opacity) 1" stroke-opacity="param(outline-opacity) 1" d="M7.5 2C7.1 2 6.77 2.3 6.77 2.67C6.77 2.99 7.02 3.25 7.35 3.31L6.35 6.92L4.41 3.73C4.71 3.59 4.88 3.28 4.79 2.97C4.69 2.61 4.29 2.4 3.9 2.5C3.51 2.59 3.28 2.96 3.38 3.32C3.47 3.63 3.79 3.82 4.12 3.8L4.17 7.32L1.21 4.53C1.46 4.32 1.53 3.99 1.36 3.71C1.16 3.39 0.71 3.28 0.36 3.46C0.02 3.65 -0.1 4.06 0.1 4.38C0.27 4.66 0.63 4.76 0.95 4.67L2.8 10.71C5.92 8.97 9.25 9.16 12.2 10.71L14.05 4.67C14.37 4.76 14.73 4.66 14.9 4.38C15.1 4.06 14.98 3.65 14.64 3.46C14.29 3.28 13.84 3.39 13.64 3.71C13.47 3.99 13.54 4.32 13.79 4.53L10.83 7.32L10.88 3.8C11.21 3.82 11.53 3.63 11.62 3.32C11.72 2.96 11.49 2.59 11.1 2.5C10.72 2.4 10.31 2.61 10.21 2.97C10.12 3.28 10.29 3.59 10.59 3.73L8.65 6.92L7.65 3.31C7.98 3.25 8.23 2.99 8.23 2.67C8.23 2.3 7.9 2 7.5 2ZM7.5 7.36C7.9 7.36 8.23 7.66 8.23 8.03C8.23 8.4 7.9 8.7 7.5 8.7C7.1 8.7 6.77 8.4 6.77 8.03C6.77 7.66 7.1 7.36 7.5 7.36ZM5.69 7.66C5.98 7.69 6.22 7.88 6.3 8.15C6.4 8.5 6.17 8.87 5.78 8.97C5.39 9.06 4.99 8.85 4.89 8.49C4.78 8.14 5.02 7.77 5.4 7.67C5.5 7.65 5.6 7.64 5.69 7.66ZM9.31 7.66C9.4 7.64 9.5 7.65 9.6 7.67C9.98 7.77 10.22 8.14 10.11 8.49C10.01 8.85 9.61 9.06 9.22 8.97C8.83 8.87 8.6 8.5 8.7 8.15C8.78 7.88 9.02 7.69 9.31 7.66ZM3.55 8.02C3.83 7.98 4.12 8.11 4.27 8.35C4.47 8.67 4.35 9.08 4.01 9.26C3.66 9.45 3.21 9.34 3.01 9.02C2.81 8.7 2.93 8.29 3.28 8.1C3.36 8.06 3.46 8.03 3.55 8.02ZM11.45 8.02C11.54 8.03 11.64 8.06 11.72 8.1C12.07 8.29 12.19 8.7 11.99 9.02C11.79 9.34 11.34 9.45 10.99 9.26C10.65 9.08 10.53 8.67 10.73 8.35C10.88 8.11 11.17 7.98 11.45 8.02ZM7.57 10.31C6.06 10.3 4.28 10.8 2.77 11.64C1.86 12.14 2.69 13.39 3.6 12.89C6.2 11.45 8.85 11.64 11.41 12.94C12.35 13.45 13.15 12.12 12.18 11.66C10.72 10.92 9.07 10.32 7.57 10.31Z"/>
</svg>