<svg xmlns="http://www.w3.org/2000/svg" viewBox="0 0 15 15">
  <path fill="param(fill) #888" stroke="param(outline) #000" stroke-width="param(outline-width) 0" fill-opacity="param(fill-opacity) 1" stroke-opacity="param(outline-opacity) 1" d="M7.5 14C7.78 14 8 14.22 8 14.5C8 14.78 7.78 15 7.5 15L0.5 15C0.22 15 0 14.78 0 14.5C0 14.22 0.22 14 0.5 14L7.5 14ZM8 5L8 7L10 7C11.1 7 12 7.9 12 9C12 10.1 11.1 11 10 11L7.45 11C6.74 12.22 5.43 12.97 4.02 12.98C1.81 12.99 0.01 11.21 0 9L0 5L8 5ZM10 8L8 8L8 9C8 9.34 7.95 9.67 7.86 10L10 10C10.55 10 11 9.55 11 9C11 8.45 10.55 8 10 8ZM11.3 4L11.34 4C11.78 4.03 12.12 4.4 12.09 4.83C12.08 4.98 12.03 5.12 11.94 5.25L11.89 5.3C11.58 5.65 11.04 5.68 10.68 5.38C10.66 5.35 10.63 5.33 10.61 5.3C10.32 4.98 10.35 4.49 10.68 4.2C10.8 4.09 10.96 4.02 11.13 4.01C11.17 4 11.22 4 11.26 4L11.3 4ZM13.75 3.01L12.84 3.9C11.96 3.04 10.54 3.04 9.66 3.9L8.76 3.01C10.13 1.66 12.37 1.66 13.75 3.01ZM11.25 0C12.66 0.01 13.88 0.47 14.92 1.39C15.02 1.48 15.03 1.63 14.94 1.73L14.2 2.46C12.57 0.86 9.93 0.86 8.3 2.46L7.57 1.74C7.49 1.66 7.48 1.53 7.54 1.43L7.58 1.39C8.62 0.46 9.84 -0.01 11.25 0Z"/>
</svg>