<svg xmlns="http://www.w3.org/2000/svg" viewBox="0 0 15 15">
  <path fill="param(fill) #888" stroke="param(outline) #000" stroke-width="param(outline-width) 0" fill-opacity="param(fill-opacity) 1" stroke-opacity="param(outline-opacity) 1" d="M0.43 7.5C0.42 6.43 2.14 4.29 4.29 4.29C5.36 4.32 6.43 5.99 7.5 5.94C8.57 6.06 9.64 4.28 10.71 4.29C12.86 4.29 14.54 6.43 14.54 7.5C14.21 7.5 13.76 7.5 13.43 7.5C12.86 6.43 11.79 5.88 10.71 5.83C9.64 5.95 8.57 7.51 7.5 7.5C6.43 7.53 5.36 6.01 4.29 5.94C3.21 5.91 2.14 6.43 1.69 7.5C1.32 7.5 0.8 7.5 0.43 7.5ZM9.64 2.14C9.64 3.33 8.68 4.29 7.5 4.29C6.32 4.29 5.36 3.33 5.36 2.14C5.36 0.96 6.32 0 7.5 0C8.48 0 9.34 0.67 9.58 1.62M3.21 13.93L1.07 8.57C1.84 8.73 2.56 9.53 3.21 9.64C3.65 9.72 4.96 8.53 5.36 8.57C6.36 8.67 6.72 9.55 7.5 9.64C8.31 9.74 8.65 8.78 9.64 8.57C10.12 8.47 11.12 9.59 11.79 9.64C12.61 9.71 13.13 8.73 13.93 8.57L11.79 13.93C10.71 15 9.64 15 7.5 15C5.36 15 4.29 15 3.21 13.93Z"/>
</svg>