<?xml version="1.0" encoding="UTF-8"?>
<svg viewBox="0 0 15 15" version="1.1" xmlns="http://www.w3.org/2000/svg" xmlns:xlink="http://www.w3.org/1999/xlink">
  <path fill="param(fill) #888" stroke="param(outline) #000" stroke-width="param(outline-width) 0" fill-opacity="param(fill-opacity) 1" stroke-opacity="param(outline-opacity) 1" d="M2.49 3.54L3.83 5.78L1.44 8.16C1.15 8.46 1.15 8.93 1.44 9.22C1.73 9.52 2.21 9.52 2.5 9.22L4.8 6.93L6.57 6.57L6.92 4.81L9.22 2.51C9.51 2.21 9.51 1.74 9.22 1.45C8.93 1.15 8.45 1.15 8.16 1.45L5.77 3.83L3.54 2.49C3.77 2.11 3.72 1.6 3.39 1.27L2.68 0.56C2.29 0.17 1.66 0.17 1.26 0.56L0.56 1.27C0.17 1.66 0.17 2.29 0.56 2.68L1.26 3.39C1.57 3.69 2 3.76 2.37 3.6L2.49 3.54ZM7.41 6.35L12.93 12.94L6.34 7.41L4.8 7.63L10.46 12.58L14.7 14.71L12.58 10.46L7.63 4.81L7.41 6.35Z"/>
</svg>