<?xml version="1.0" encoding="UTF-8"?>
<svg viewBox="0 0 15 15" version="1.1" xmlns="http://www.w3.org/2000/svg" xmlns:xlink="http://www.w3.org/1999/xlink">
  <path fill="param(fill) #888" stroke="param(outline) #000" stroke-width="param(outline-width) 0" fill-opacity="param(fill-opacity) 1" stroke-opacity="param(outline-opacity) 1" d="M9.55 0.03C9.15 0.14 8.92 0.55 9.03 0.95L9.26 1.81C9.51 2.72 9.26 3.7 8.6 4.38C7.87 5.14 6.75 5.36 5.78 4.95L5.49 4.82C4.92 4.58 4.46 4.1 4.24 3.51C4.08 3.08 4 2.63 4 2.17L4 2C4 1.59 3.66 1.25 3.25 1.25C2.84 1.25 2.5 1.59 2.5 2L2.5 2.17C2.5 2.81 2.61 3.44 2.84 4.04C3.17 4.93 3.82 5.66 4.66 6.09L4.74 6.14C5.33 6.51 5.66 7.19 5.59 7.88L5.46 9.31C5.44 9.4 5.43 9.49 5.42 9.58L5 14.18C4.97 14.59 5.27 14.96 5.68 15C6.09 15.03 6.46 14.73 6.5 14.32L6.92 9.72C6.92 9.66 6.94 9.6 6.96 9.55C6.98 9.5 7.01 9.45 7.05 9.41L7.11 9.36C7.17 9.3 7.23 9.25 7.31 9.23L7.32 9.22C7.55 9.16 7.79 9.24 7.93 9.43L8.91 10.77C9.12 11.06 9.22 11.41 9.19 11.77L9 14.19C8.97 14.61 9.28 14.97 9.69 15C10.11 15.03 10.47 14.72 10.5 14.31L10.68 11.88C10.74 11.17 10.54 10.47 10.12 9.89L9.15 8.55C9.02 8.38 8.92 8.18 8.9 7.97L8.81 7.15C8.76 6.6 9.02 6.09 9.4 5.7L9.67 5.43C10.7 4.37 11.1 2.84 10.71 1.41L10.47 0.55C10.36 0.15 9.95 -0.08 9.55 0.03ZM6.75 4.13C5.92 4.13 5.25 3.45 5.25 2.63C5.25 1.8 5.92 1.13 6.75 1.13C7.58 1.13 8.25 1.8 8.25 2.63C8.25 3.45 7.58 4.13 6.75 4.13ZM12.64 4.79C12.67 4.62 12.83 4.5 13 4.5C13.17 4.5 13.33 4.62 13.36 4.79L13.47 5.28C13.55 5.66 13.84 5.95 14.22 6.03L14.71 6.14C14.88 6.17 15 6.33 15 6.5C15 6.68 14.88 6.83 14.71 6.86L14.22 6.97C13.84 7.05 13.55 7.34 13.47 7.72L13.36 8.21C13.33 8.38 13.17 8.5 13 8.5C12.83 8.5 12.67 8.38 12.64 8.21L12.53 7.72C12.45 7.34 12.16 7.05 11.78 6.97L11.29 6.86C11.12 6.83 11 6.68 11 6.5C11 6.33 11.12 6.17 11.29 6.14L11.78 6.03C12.16 5.95 12.45 5.66 12.53 5.28L12.64 4.79ZM2 7C1.82 7 1.67 7.12 1.64 7.29L1.53 7.78C1.45 8.16 1.16 8.45 0.78 8.53L0.29 8.64C0.12 8.67 0 8.83 0 9C0 9.18 0.12 9.33 0.29 9.36L0.78 9.47C1.16 9.55 1.45 9.84 1.53 10.22L1.64 10.71C1.67 10.88 1.82 11 2 11C2.17 11 2.33 10.88 2.36 10.71L2.47 10.22C2.55 9.84 2.84 9.55 3.22 9.47L3.71 9.36C3.88 9.33 4 9.18 4 9C4 8.83 3.88 8.67 3.71 8.64L3.22 8.53C2.84 8.45 2.55 8.16 2.47 7.78L2.36 7.29C2.33 7.12 2.17 7 2 7Z"/>
</svg>