<?xml version="1.0" encoding="UTF-8"?>
<svg viewBox="0 0 15 15" version="1.1" xmlns="http://www.w3.org/2000/svg" xmlns:xlink="http://www.w3.org/1999/xlink">
  <path fill="param(fill) #888" stroke="param(outline) #000" stroke-width="param(outline-width) 0" fill-opacity="param(fill-opacity) 1" stroke-opacity="param(outline-opacity) 1" d="M9.78 5.11L9.78 5.17C9.9 5.19 10.04 5.18 10.19 5.17L10.32 4.9C10.44 4.69 10.5 4.6 10.68 4.41L10.8 4.29C10.82 4.28 10.85 4.26 10.9 4.22L11.05 4.12L11.17 4.06C11.82 3.78 11.99 3.87 12.99 3.52C13.59 3.31 13.68 3.21 14.22 3.05L14.38 3.02C14.4 3.01 14.43 3.01 14.49 3L14.6 3L14.7 3.01L14.79 3.04L14.86 3.08L14.91 3.14L14.96 3.21L14.99 3.29L15 3.39C14.98 3.72 14.29 4.32 14.19 4.57L14.06 4.87L13.92 5.12L13.78 5.34C13.75 5.4 13.72 5.43 13.59 5.59L13.42 5.76C13.38 5.8 13.34 5.83 13.2 5.95L12.99 6.09C12.94 6.12 12.9 6.14 12.74 6.23C12.46 6.33 11.88 6.32 11.51 6.37L11.08 6.45L10.77 6.48L10.56 6.5C10.89 7.33 10.72 8.29 10.09 8.96L8.79 10.32C8.79 11.44 8.36 12 7.5 12C6.69 12 6.26 11.51 6.21 10.53L6.21 10.32L4.91 8.96C4.28 8.29 4.11 7.33 4.44 6.5L4.23 6.48L3.92 6.45L3.65 6.4C3.33 6.31 2.58 6.35 2.26 6.23L2.01 6.09L1.8 5.95L1.61 5.79C1.56 5.75 1.54 5.72 1.41 5.59L1.22 5.34L1.08 5.12L0.94 4.87C0.91 4.81 0.89 4.77 0.81 4.57C0.71 4.32 0.02 3.72 0 3.39L0.01 3.29L0.04 3.21L0.09 3.14C0.1 3.13 0.11 3.12 0.14 3.08L0.21 3.04L0.3 3.01L0.4 3L0.51 3L0.65 3.02L0.78 3.05C1.32 3.21 1.41 3.31 2.01 3.52C3.01 3.87 3.18 3.78 3.83 4.06L3.98 4.14C4 4.16 4.03 4.18 4.1 4.22L4.23 4.32C4.24 4.33 4.27 4.36 4.32 4.41C4.56 4.66 4.59 4.74 4.81 5.17C4.96 5.18 5.1 5.19 5.22 5.17L5.22 5.11C5.98 4.7 6.74 4.5 7.5 4.5C8.26 4.5 9.02 4.7 9.78 5.11Z"/>
</svg>