<svg xmlns="http://www.w3.org/2000/svg" viewBox="0 0 15 15">
  <path fill="param(fill) #888" stroke="param(outline) #000" stroke-width="param(outline-width) 0" fill-opacity="param(fill-opacity) 1" stroke-opacity="param(outline-opacity) 1" d="M1.44 8.46C1.1 8.24 1.1 7.02 1.33 6.58C0.99 6.14 1.1 4.7 2.22 2.93L3.11 1.82L3.11 1.27C4.22 0.82 8.89 0.93 9.33 1.6C9.55 1.93 9.44 2.71 9.33 2.71C10.11 3.48 10.22 3.48 10.55 4.81C12.78 5.36 12.44 7.69 14.44 10.68C14.67 11.01 15 11.56 15 12.34C15 13.45 14.56 14 13.89 14L8.89 14C8.44 14 8.22 13.67 8.11 13.45C7.77 12.56 8.33 9.46 8.89 8.46C8.44 8.02 8.33 7.58 8.33 6.8C8 5.92 7.22 4.92 6.33 4.59C5.55 4.37 5 4.37 4.44 5.14C4.22 5.81 4.33 6.03 3.66 6.8C3.66 7.13 3.33 7.91 2.77 8.46L3.33 9.57C3.66 10.24 4.11 11.45 3.88 12.34C3.88 12.34 3.66 12.89 3.33 12.89L0.55 12.89C-0.01 12.89 -0.34 12.12 0.55 11.23C0.44 10.12 1.1 8.46 1.44 8.46Z"/>
</svg>