<svg xmlns="http://www.w3.org/2000/svg" viewBox="0 0 15 15">
  <path fill="param(fill) #888" stroke="param(outline) #000" stroke-width="param(outline-width) 0" fill-opacity="param(fill-opacity) 1" stroke-opacity="param(outline-opacity) 1" d="M14 12C14 13.1 13.1 14 12 14L3 14C1.9 14 1 13.1 1 12L1 3C1 1.9 1.9 1 3 1L12 1C13.1 1 14 1.9 14 3L14 12ZM5.5 4.25C5.5 3.56 4.94 3 4.25 3C3.56 3 3 3.56 3 4.25C3 4.94 3.56 5.5 4.25 5.5C4.94 5.5 5.5 4.94 5.5 4.25ZM5.5 7.5C5.5 6.81 4.94 6.25 4.25 6.25C3.56 6.25 3 6.81 3 7.5C3 8.19 3.56 8.75 4.25 8.75C4.94 8.75 5.5 8.19 5.5 7.5ZM5.5 10.75C5.5 10.06 4.94 9.5 4.25 9.5C3.56 9.5 3 10.06 3 10.75C3 11.44 3.56 12 4.25 12C4.94 12 5.5 11.44 5.5 10.75ZM12 4.25C12 3.56 11.44 3 10.75 3C10.06 3 9.5 3.56 9.5 4.25C9.5 4.94 10.06 5.5 10.75 5.5C11.44 5.5 12 4.94 12 4.25ZM12 7.5C12 6.81 11.44 6.25 10.75 6.25C10.06 6.25 9.5 6.81 9.5 7.5C9.5 8.19 10.06 8.75 10.75 8.75C11.44 8.75 12 8.19 12 7.5ZM12 10.75C12 10.06 11.44 9.5 10.75 9.5C10.06 9.5 9.5 10.06 9.5 10.75C9.5 11.44 10.06 12 10.75 12C11.44 12 12 11.44 12 10.75Z"/>
</svg>