<svg xmlns="http://www.w3.org/2000/svg" viewBox="0 0 15 15">
  <path fill="param(fill) #888" stroke="param(outline) #000" stroke-width="param(outline-width) 0" fill-opacity="param(fill-opacity) 1" stroke-opacity="param(outline-opacity) 1" d="M12 1C13.1 1 14 1.9 14 3L14 12C14 13.1 13.1 14 12 14L3 14C1.9 14 1 13.1 1 12L1 3C1 1.9 1.9 1 3 1L12 1ZM4.25 9.5C3.56 9.5 3 10.06 3 10.75C3 11.44 3.56 12 4.25 12C4.94 12 5.5 11.44 5.5 10.75C5.5 10.06 4.94 9.5 4.25 9.5ZM7.5 6.25C6.81 6.25 6.25 6.81 6.25 7.5C6.25 8.19 6.81 8.75 7.5 8.75C8.19 8.75 8.75 8.19 8.75 7.5C8.75 6.81 8.19 6.25 7.5 6.25ZM10.75 3C10.06 3 9.5 3.56 9.5 4.25C9.5 4.94 10.06 5.5 10.75 5.5C11.44 5.5 12 4.94 12 4.25C12 3.56 11.44 3 10.75 3Z"/>
</svg>