<svg xmlns="http://www.w3.org/2000/svg" viewBox="0 0 15 15">
  <path fill="param(fill) #888" stroke="param(outline) #000" stroke-width="param(outline-width) 0" fill-opacity="param(fill-opacity) 1" stroke-opacity="param(outline-opacity) 1" d="M13.01 2.2L13.01 6.12L13.88 6.99C14.1 7.21 14.24 7.52 14.24 7.84L14.24 11.11C14.24 11.6 13.93 12.05 13.48 12.24L7.5 14.69L1.53 12.24C1.08 12.05 0.77 11.6 0.77 11.11L0.77 7.84C0.77 7.52 0.9 7.21 1.13 6.99L1.99 6.12L1.99 2.2C1.99 1.62 2.4 1.13 2.95 1.01L7.24 0.06C7.42 0.02 7.59 0.02 7.77 0.06L12.06 1.01C12.61 1.13 13.01 1.62 13.01 2.2ZM3.22 2.96L3.22 4.28C3.22 4.62 3.49 4.89 3.83 4.89L6.28 4.89C6.62 4.89 6.89 4.62 6.89 4.28L6.89 2.55C6.89 2.21 6.62 1.94 6.28 1.94C6.24 1.94 6.21 1.94 6.18 1.95L3.73 2.36C3.44 2.41 3.22 2.66 3.22 2.96ZM8.12 2.55L8.12 4.28C8.12 4.62 8.39 4.89 8.73 4.89L11.18 4.89C11.52 4.89 11.79 4.62 11.79 4.28L11.79 2.96C11.79 2.66 11.57 2.41 11.28 2.36L8.83 1.95C8.5 1.89 8.18 2.12 8.13 2.46C8.12 2.49 8.12 2.52 8.12 2.55ZM7.5 9.79C8.18 9.79 8.73 9.24 8.73 8.57C8.73 7.89 8.18 7.34 7.5 7.34C6.83 7.34 6.28 7.89 6.28 8.57C6.28 9.24 6.83 9.79 7.5 9.79Z"/>
</svg>