<svg xmlns="http://www.w3.org/2000/svg" viewBox="0 0 15 15">
  <path fill="param(fill) #888" stroke="param(outline) #000" stroke-width="param(outline-width) 0" fill-opacity="param(fill-opacity) 1" stroke-opacity="param(outline-opacity) 1" d="M6.97 6.03L11 10.06L11 12.79C11 12.93 11.05 13.05 11.15 13.15L11.85 13.85C11.95 13.95 12 14.07 12 14.21L12 14.5C12 14.78 11.78 15 11.5 15L10.21 15C10.07 15 9.95 14.95 9.85 14.85L9.15 14.15C9.05 14.05 9 13.93 9 13.79L9 11.5C9 11.22 8.78 11 8.5 11L8.31 11C8.12 11 7.95 11.11 7.86 11.28L7.11 12.79C7.05 12.89 7.02 13.01 7.01 13.12L7 13.25C7 13.4 7.09 13.54 7.22 13.61L7.72 13.86C7.89 13.95 8 14.12 8 14.31L8 14.5C8 14.78 7.78 15 7.5 15L3.04 15C2.37 15 1.74 14.74 1.27 14.27L0.88 13.88C0.32 13.32 0 12.55 0 11.76L0 11.5C0 10.56 0.47 9.69 1.25 9.17L1.5 9L1.5 10.88C1.5 11.57 1.89 12.19 2.5 12.5C2.53 11.19 2.86 10.03 3.5 9C4.03 8.15 5.08 7.23 6.65 6.23L6.97 6.03ZM10.5 1C10.78 1 11 1.22 11 1.5L11 2.69C11 2.88 11.11 3.05 11.28 3.14L14.55 4.78C14.83 4.91 15 5.19 15 5.5L15 5.59C15 5.85 14.89 6.11 14.71 6.29L14 7L12 7L11.35 8.29L8.02 4.96L9.86 1.28C9.95 1.11 10.12 1 10.31 1L10.5 1ZM0.72 0.31C1.46 -0.22 2.49 -0.06 3.02 0.68C3.08 0.76 3.13 0.85 3.18 0.94L3.5 1.63L3.82 0.94C4.21 0.12 5.19 -0.23 6.01 0.16C6.1 0.2 6.19 0.25 6.28 0.31C7.06 0.88 7.23 1.98 6.66 2.77C6.62 2.83 6.57 2.88 6.53 2.93L3.93 5.71C3.71 5.94 3.34 5.95 3.1 5.73L3.07 5.71L0.47 2.93C-0.19 2.23 -0.15 1.12 0.55 0.45L0.64 0.38L0.72 0.31Z"/>
</svg>