<svg xmlns="http://www.w3.org/2000/svg" viewBox="0 0 15 15">
  <path fill="param(fill) #888" stroke="param(outline) #000" stroke-width="param(outline-width) 0" fill-opacity="param(fill-opacity) 1" stroke-opacity="param(outline-opacity) 1" d="M2.5 12.5C2.53 11.19 2.86 10.03 3.5 9C4.11 8.02 5.43 6.94 7.44 5.75L7.44 5.76C7.6 5.66 7.74 5.51 7.82 5.34L9.86 1.28C9.95 1.11 10.12 1 10.31 1L10.5 1C10.78 1 11 1.22 11 1.5L11 2.69C11 2.88 11.11 3.05 11.28 3.14L14.55 4.78C14.83 4.91 15 5.19 15 5.5L15 5.59C15 5.85 14.89 6.11 14.71 6.29L14 7L14 7L12 7L11 9L11 12.79C11 12.93 11.05 13.05 11.15 13.15L11.85 13.85C11.95 13.95 12 14.07 12 14.21L12 14.5C12 14.78 11.78 15 11.5 15L10.21 15C10.07 15 9.95 14.95 9.85 14.85L9.15 14.15C9.05 14.05 9 13.93 9 13.79L9 11.5C9 11.22 8.78 11 8.5 11L8.31 11C8.12 11 7.95 11.11 7.86 11.28L7.11 12.79C7.04 12.93 7 13.08 7 13.24L7 13.25C7 13.4 7.09 13.54 7.22 13.61L7.72 13.86C7.89 13.95 8 14.12 8 14.31L8 14.5C8 14.78 7.78 15 7.5 15L6 15L3.04 15C2.37 15 1.74 14.74 1.27 14.27L0.88 13.88C0.32 13.32 0 12.55 0 11.76L0 11.5C0 10.56 0.47 9.69 1.25 9.17L1.5 9L1.5 9L1.5 10.88C1.5 11.57 1.89 12.19 2.5 12.5L2.5 12.5L2.5 12.5Z"/>
</svg>