<svg xmlns="http://www.w3.org/2000/svg" viewBox="0 0 15 15">
  <path fill="param(fill) #888" stroke="param(outline) #000" stroke-width="param(outline-width) 0" fill-opacity="param(fill-opacity) 1" stroke-opacity="param(outline-opacity) 1" d="M3 0v1h-1c-1 0 -2 1 -2 2s1 2 2 2h1v2h-1c-1 0 -1 -1 -1 -1h-1c0 1 1 2 2 2h1v1h1v-1h1c1 0 2 -1 2 -2s-1 -2 -2 -2h-1v-2h1c1 0 1 1 1 1h1c0 -1 -1 -2 -2 -2h-1v-1zm8 1l-3 1.5l3 1.5v-1c1.04 0.07 1.32 1.15 1 2h1c0.3 -1.2 -0.22 -2.93 -2 -3zm-9 1h1v2h-1c-0.5 0 -1 -0.5 -1 -1s0.5 -1 1 -1zm2 3h1c0.5 0 1 0.5 1 1s-0.5 1 -1 1h-1zm5.2 3.99h-0.95l-0.5 1h1.27c-0.03 0.35 -0.03 0.67 0 1h-0.77l-0.5 1h1.45c0.83 3.09 3.89 3.96 5.72 1.76l-0.54 -0.96c-1.23 1.99 -3.37 1.39 -4.13 -0.8h2.75l0.5 -1h-3.47c-0.04 -0.35 -0.03 -0.67 0 -1h3.72l0.5 -1h-4c0.76 -2.19 2.92 -2.79 4.15 -0.77l0.51 -1c-1.82 -2.18 -4.88 -1.32 -5.71 1.77zm-7.19 1.01c-0.3 1.2 0.22 2.93 2 3v1l3 -1.5l-3 -1.5v1c-1.04 -0.07 -1.32 -1.15 -1 -2z"/>
</svg>