<svg xmlns="http://www.w3.org/2000/svg" viewBox="0 0 15 15">
  <path fill="param(fill) #888" stroke="param(outline) #000" stroke-width="param(outline-width) 0" fill-opacity="param(fill-opacity) 1" stroke-opacity="param(outline-opacity) 1" d="M5.19 9.5L8.26 13.93L6.55 15L4.4 10L5.19 9.5ZM5.9 8.36L11.55 11.07L10.55 12.93L5.47 9.21L5.9 8.36ZM3.55 5.93C4.33 5.93 5.05 6.64 5.05 7.5C5.05 8.36 4.4 9.07 3.55 9.07C2.69 9.07 2.05 8.36 2.05 7.5C2.05 6.64 2.69 5.93 3.55 5.93ZM13.62 6.43L13.62 8.57L6.05 8L6.05 7.07L13.62 6.43ZM10.55 2.07L11.55 3.93L5.9 6.64L5.47 5.79L10.55 2.07ZM6.55 0L8.26 1.07L5.19 5.5L4.4 5L6.55 0Z"/>
</svg>