<svg xmlns="http://www.w3.org/2000/svg" viewBox="0 0 15 15">
  <path fill="param(fill) #888" stroke="param(outline) #000" stroke-width="param(outline-width) 0" fill-opacity="param(fill-opacity) 1" stroke-opacity="param(outline-opacity) 1" d="M14.62 6.83L14.03 6.24L8.62 11.66C7.1 11.76 5.89 13.02 5.89 14.57L5.89 15L6.31 15C7.86 15 9.12 13.79 9.21 12.25L9.63 11.83C9.54 12.67 9.82 13.55 10.46 14.19L10.77 14.5L11.04 14.22L11.08 14.18C12.16 13.09 12.2 11.41 11.21 10.24L11.91 9.54C11.82 10.39 12.1 11.26 12.74 11.9L13.05 12.21L13.34 11.91C14.42 10.83 14.47 9.1 13.49 7.95L14.61 6.84L14.62 6.83ZM7.41 10L7.53 10C8.74 10 9.47 9.54 9.86 9.15C10.44 8.57 10.83 7.65 10.83 6.84C10.83 6.48 10.98 6.31 11.36 6.24L12.54 6.24L12.18 5.62L11.87 5.07C11.92 4.77 11.89 4.47 11.76 4.18C11.57 3.73 11.18 3.4 10.72 3.29C10.59 3.26 10.47 3.25 10.35 3.25C10.07 3.25 9.8 3.32 9.57 3.46C9.42 3.54 9.3 3.64 9.19 3.76L8.84 4.16L8.7 4.31L8.58 4.45C8.61 4.48 8.64 4.51 8.67 4.56L8.8 4.71C8.8 4.71 8.84 4.77 8.86 4.81C8.93 4.92 8.97 4.99 9.01 5.07C9.04 5.14 9.07 5.23 9.1 5.31L9.11 5.35C9.16 5.5 9.22 5.72 9.21 5.98L8.19 5.97C8.17 5.91 8.16 5.84 8.14 5.78L8.12 5.74C8.11 5.7 8.09 5.65 8.07 5.61C8.05 5.56 8.02 5.51 7.99 5.46C7.96 5.41 7.95 5.39 7.93 5.37L7.88 5.31C7.81 5.22 7.75 5.16 7.69 5.11L3.18 0.21L3.15 0.19L3.13 0.17C2.97 0.06 2.79 0 2.6 0C2.11 0 1.7 0.42 1.7 0.92C1.7 1.33 1.87 1.52 2.02 1.64C1.85 1.85 1.76 2.17 1.76 2.53C1.76 2.98 2.02 3.38 2.43 3.58C2.28 3.81 2.19 4.08 2.19 4.35C2.19 4.93 2.57 5.45 3.12 5.64C2.9 5.97 2.78 6.34 2.78 6.74C2.78 7.51 3.3 8.16 3.98 8.48L3.88 8.44L3.87 8.44C3.99 8.5 4.11 8.56 4.24 8.59L4.2 9.78C3.61 9.73 3 9.53 2.62 8.95L1.08 9.57C0.7 9.71 0.45 10.06 0.45 10.46C0.45 10.81 0.65 11.13 0.96 11.29C0.85 11.54 0.84 11.82 0.91 12.08C1 12.43 1.28 12.73 1.62 12.86C1.95 12.99 2.33 12.96 2.63 12.77C2.8 13.1 3.12 13.3 3.48 13.3C3.83 13.3 4.14 13.11 4.31 12.8L5.27 10.86C5.31 10.78 5.78 10 6.61 10L7.41 10L7.41 10ZM10.47 4.33C10.7 4.33 10.89 4.52 10.89 4.75C10.89 4.98 10.7 5.17 10.47 5.17C10.24 5.17 10.06 4.98 10.06 4.75C10.06 4.52 10.24 4.33 10.47 4.33Z"/>
</svg>