<svg xmlns="http://www.w3.org/2000/svg" viewBox="0 0 15 15">
  <path fill="param(fill) #888" stroke="param(outline) #000" stroke-width="param(outline-width) 0" fill-opacity="param(fill-opacity) 1" stroke-opacity="param(outline-opacity) 1" d="M8.6 11.28L8.73 11.28C10.1 11.28 10.92 10.76 11.36 10.32C12.02 9.67 12.46 8.63 12.46 7.72C12.46 7.3 12.63 7.11 13.05 7.04L14.38 7.04L13.98 6.34L13.63 5.72C13.69 5.38 13.65 5.04 13.51 4.71C13.29 4.21 12.85 3.83 12.33 3.71C12.19 3.68 12.06 3.66 11.91 3.66C11.6 3.66 11.3 3.74 11.03 3.9C10.87 3.99 10.73 4.1 10.61 4.24L10.21 4.69L10.05 4.86L9.92 5.02C9.95 5.05 9.99 5.09 10.02 5.14L10.17 5.31C10.17 5.31 10.21 5.38 10.24 5.43C10.31 5.55 10.36 5.63 10.4 5.72C10.44 5.8 10.47 5.89 10.5 5.99L10.52 6.04C10.57 6.2 10.64 6.45 10.64 6.74L9.47 6.73C9.46 6.66 9.44 6.59 9.42 6.52L9.4 6.48C9.39 6.43 9.37 6.37 9.35 6.33C9.32 6.27 9.29 6.21 9.25 6.16C9.22 6.11 9.21 6.08 9.19 6.06L9.13 5.98C9.05 5.89 8.98 5.82 8.91 5.76L3.83 0.24L3.8 0.21L3.77 0.19C3.59 0.07 3.39 0 3.18 0C2.63 0 2.16 0.47 2.16 1.03C2.16 1.49 2.35 1.72 2.52 1.85C2.33 2.08 2.23 2.44 2.23 2.85C2.23 3.36 2.52 3.81 2.99 4.04C2.81 4.3 2.71 4.6 2.71 4.91C2.71 5.56 3.14 6.14 3.76 6.36C3.51 6.73 3.38 7.15 3.38 7.6C3.38 8.48 3.97 9.2 4.73 9.56L4.62 9.51L4.61 9.51C4.74 9.59 4.88 9.65 5.03 9.69L4.98 11.03C4.31 10.98 3.62 10.75 3.19 10.1L1.46 10.79C1.03 10.95 0.75 11.34 0.75 11.79C0.75 12.19 0.97 12.55 1.32 12.74C1.21 13.02 1.19 13.33 1.27 13.62C1.37 14.02 1.68 14.36 2.07 14.5C2.45 14.65 2.87 14.61 3.21 14.41C3.4 14.77 3.76 15 4.16 15C4.57 15 4.91 14.79 5.1 14.44L6.18 12.25C6.24 12.16 6.76 11.28 7.69 11.28L8.6 11.28L8.6 11.28ZM12.06 4.89C12.31 4.89 12.53 5.1 12.53 5.36C12.53 5.62 12.31 5.83 12.06 5.83C11.8 5.83 11.59 5.62 11.59 5.36C11.59 5.1 11.8 4.89 12.06 4.89Z"/>
</svg>