<svg xmlns="http://www.w3.org/2000/svg" viewBox="0 0 15 15">
  <path fill="param(fill) #888" stroke="param(outline) #000" stroke-width="param(outline-width) 0" fill-opacity="param(fill-opacity) 1" stroke-opacity="param(outline-opacity) 1" d="M10.02 1.02C9.91 1.02 9.84 0.93 9.82 0.82L9.82 0.75C9.82 0.61 9.89 0.55 9.95 0.48C9.9 0.42 9.85 0.37 9.83 0.28L9.82 0.2C9.82 0.07 9.95 -0.07 10.09 -0.07L11.8 -0.07C11.91 -0.07 12.03 0.03 12.06 0.15L12.07 0.2C12.07 0.34 12 0.41 11.93 0.48C11.99 0.53 12.04 0.59 12.06 0.68L12.07 0.75C12.07 0.89 11.93 1.02 11.86 1.02L13.5 5.52C13.57 5.8 13.64 6.14 13.64 6.48L13.64 14.45C13.64 14.73 13.36 15 13.09 15L8.73 15C8.45 15 8.18 14.73 8.18 14.45L8.18 6.48C8.18 6.14 8.25 5.8 8.32 5.52L10.02 1.02ZM2.93 4.5L3.27 5.45L3.27 5.59C3.27 5.8 3.14 5.93 2.93 5.93C2.88 5.93 2.83 5.93 2.78 5.9L1.84 5.18C1.7 5.05 1.64 4.91 1.64 4.77C1.64 4.43 1.91 4.09 2.32 4.09C2.59 4.09 2.8 4.23 2.93 4.5ZM2.05 4.98L2.52 5.39L2.57 5.42C2.59 5.44 2.63 5.45 2.66 5.45C2.73 5.45 2.86 5.32 2.86 5.25L2.86 5.18L2.59 4.64C2.52 4.5 2.45 4.43 2.32 4.43C2.11 4.43 1.98 4.57 1.98 4.77C1.98 4.84 1.98 4.91 2.05 4.98ZM6.61 6.14C6.68 6.14 6.82 6.2 6.82 6.34L6.82 6.82C6.82 6.95 6.75 7.02 6.61 7.02L6.41 7.02C6.61 7.16 6.82 7.43 6.82 7.7L6.82 14.39C6.82 14.73 6.55 15 6.2 15L2.05 15C1.7 15 1.36 14.66 1.36 14.32L1.36 7.7C1.36 7.43 1.5 7.16 1.77 7.02L1.57 7.02C1.43 7.02 1.36 6.95 1.36 6.82L1.36 6.34C1.36 6.2 1.43 6.14 1.57 6.14L6.61 6.14Z"/>
</svg>