<svg xmlns="http://www.w3.org/2000/svg" viewBox="0 0 15 15">
  <path fill="param(fill) #888" stroke="param(outline) #000" stroke-width="param(outline-width) 0" fill-opacity="param(fill-opacity) 1" stroke-opacity="param(outline-opacity) 1" d="M3.75 1.25L1.66 1.25L1.67 0.01L3.75 0L3.75 1.25ZM5.36 8.35L4.99 9.23L4.99 14.17L5.36 15L8.36 14.99L8.73 14.2L8.73 9.17L8.37 8.34L5.36 8.35L5.36 8.35ZM5.41 7L5.41 5.41L5.39 5.41C5.39 5.39 5.4 5.36 5.41 5.34L5.41 5.27L5.39 5.2L5.39 5.2C5.37 5.03 5.31 4.88 5.2 4.76C4.82 4.3 3.89 3.04 3.78 2.69L3.76 2.53L3.74 2.09L1.72 2.09L1.67 2.45L1.65 2.53C1.54 2.93 0.56 4.34 0.25 4.75C0.13 4.88 0.06 5.04 0.04 5.2L0.03 5.25L0.01 5.33L0.02 5.41L0.02 5.41L0 5.41L0 10.83L0.01 10.83L0.01 12.91C0.01 13.6 0.57 14.16 1.26 14.16L3.75 14.16L3.75 9.32C3.75 9.08 3.84 8.72 3.96 8.52L4.42 7.71C4.56 7.48 4.77 7.08 5.42 7.08C5.42 7.05 5.42 7.03 5.41 7L5.41 7ZM14 2.22L13.33 3.19L13.33 14.16L15 13.4L15 2.8L14 2.23L14 2.22ZM7.92 7.08L8.73 7.08C9 7.15 9.23 7.31 9.37 7.55L9.83 8.44C9.93 8.6 9.98 8.78 9.98 8.98L9.98 14.17L12.07 14.17L12.08 3.75L7.92 3.75L7.92 7.08L7.92 7.08ZM13.32 1L13.32 0L9.17 0L9.17 1.14L8.04 2.5L12.18 2.5C12.4 2.21 13.12 1.27 13.33 1L13.32 1Z"/>
</svg>