<svg xmlns="http://www.w3.org/2000/svg" viewBox="0 0 15 15">
  <path fill="param(fill) #888" stroke="param(outline) #000" stroke-width="param(outline-width) 0" fill-opacity="param(fill-opacity) 1" stroke-opacity="param(outline-opacity) 1" d="M11.59 3.7L12.5 4L12.5 11.73C12.5 11.9 12.42 12.06 12.28 12.15L11.22 12.85C11.08 12.95 10.96 13.08 10.88 13.24L10.5 14C9.83 14.67 8.83 15 7.5 15C6.17 15 5.17 14.67 4.5 14L4.12 13.24C4.04 13.08 3.92 12.95 3.78 12.85L2.72 12.15C2.58 12.06 2.5 11.9 2.5 11.73L2.5 4L3.41 3.7C4.36 4.5 5.94 5 7.5 5C9.06 5 10.64 4.5 11.59 3.7ZM7.25 3.99L7.5 4C7.39 4 7.28 4 7.17 3.99C6.99 3.98 6.82 3.96 6.65 3.94C6.63 3.94 6.61 3.94 6.6 3.93C6.53 3.93 6.46 3.91 6.4 3.9C6.37 3.9 6.35 3.89 6.32 3.89C6.16 3.86 6.01 3.82 5.85 3.78C5.81 3.77 5.77 3.76 5.74 3.75C5.7 3.74 5.66 3.73 5.63 3.72C5.6 3.71 5.57 3.7 5.54 3.69L5.51 3.68C5.45 3.66 5.38 3.64 5.31 3.62C5.3 3.61 5.28 3.6 5.26 3.6C5.2 3.57 5.13 3.55 5.07 3.52C5.06 3.52 5.05 3.51 5.04 3.51C4.9 3.45 4.76 3.38 4.64 3.32C4.63 3.31 4.62 3.31 4.61 3.3C3.94 2.93 3.5 2.47 3.5 2C3.5 1 5.5 0 7.5 0C9.5 0 11.5 1 11.5 2C11.5 2.47 11.06 2.93 10.4 3.3L10.37 3.31C10.32 3.34 10.27 3.36 10.22 3.39L10.4 3.3C10.32 3.34 10.25 3.38 10.17 3.41C10.11 3.44 10.04 3.47 9.98 3.5C9.96 3.51 9.94 3.52 9.92 3.53C9.86 3.55 9.81 3.57 9.76 3.59C9.73 3.6 9.7 3.61 9.68 3.62C9.61 3.64 9.54 3.67 9.46 3.69C9.46 3.69 9.45 3.7 9.44 3.7C9.37 3.72 9.3 3.74 9.23 3.76C9.21 3.77 9.19 3.77 9.17 3.78C9.1 3.8 9.03 3.82 8.95 3.83C8.94 3.83 8.93 3.84 8.93 3.84C8.84 3.86 8.76 3.87 8.68 3.89C8.65 3.89 8.63 3.9 8.6 3.9C8.54 3.91 8.48 3.92 8.41 3.93C8.39 3.94 8.37 3.94 8.35 3.94C8.18 3.96 8.01 3.98 7.83 3.99C7.8 3.99 7.78 3.99 7.75 3.99C7.73 4 7.72 4 7.71 4L7.5 4C7.42 4 7.34 4 7.25 3.99ZM8.5 1C7.75 1 7 1.5 7 2C7 2.5 7.75 3 8.5 3C9.25 3 10 2.5 10 2C10 1.5 9.25 1 8.5 1Z"/>
</svg>