<svg xmlns="http://www.w3.org/2000/svg" viewBox="0 0 15 15">
  <path fill="param(fill) #888" stroke="param(outline) #000" stroke-width="param(outline-width) 0" fill-opacity="param(fill-opacity) 1" stroke-opacity="param(outline-opacity) 1" d="M7.5 10.5C7.82 10.5 8.14 10.61 8.39 10.81L8.7 11.06C9.06 11.35 9.5 11.5 9.95 11.5L10.05 11.5C10.5 11.5 10.94 11.35 11.3 11.06L11.61 10.81C11.86 10.61 12.18 10.5 12.5 10.5C12.82 10.5 13.14 10.61 13.39 10.81L13.71 11.07C14.01 11.31 14.39 11.46 14.78 11.5L15 11.5L15 13L14.95 13C14.49 13 14.06 12.84 13.71 12.56L13.39 12.31C13.14 12.11 12.82 12 12.5 12C12.18 12 11.86 12.11 11.61 12.31L11.3 12.56C10.94 12.84 10.5 13 10.05 13L9.95 13C9.5 13 9.06 12.84 8.7 12.56L8.39 12.31C8.14 12.11 7.82 12 7.5 12C7.18 12 6.86 12.11 6.61 12.31L6.3 12.56C5.94 12.84 5.5 13 5.05 13L4.95 13C4.5 13 4.06 12.84 3.7 12.56L3.39 12.31C3.14 12.11 2.82 12 2.5 12C2.18 12 1.86 12.11 1.61 12.31L1.29 12.56C0.94 12.84 0.51 13 0.05 13L0 13L0 11.5L0.05 11.5C0.51 11.5 0.94 11.35 1.29 11.07L1.61 10.81C1.72 10.73 1.84 10.66 1.97 10.6L2.07 10.57L2.18 10.54L2.21 10.53C2.25 10.53 2.28 10.52 2.32 10.51C2.38 10.51 2.44 10.5 2.5 10.5L2.35 10.51C2.4 10.51 2.45 10.5 2.5 10.5L2.66 10.51C2.93 10.54 3.18 10.65 3.39 10.81L3.76 11.11L3.82 11.15C4.15 11.38 4.54 11.5 4.95 11.5L5.05 11.5C5.5 11.5 5.94 11.35 6.3 11.06L6.61 10.81C6.86 10.61 7.18 10.5 7.5 10.5ZM1.5 6.02L3.67 7.46L8.05 7.46L9.81 9.22C9.67 9.6 9.49 9.94 9.27 10.23L9.01 10.03C8.58 9.69 8.05 9.5 7.5 9.5C6.95 9.5 6.42 9.69 5.99 10.03L5.67 10.28C5.5 10.42 5.28 10.5 5.05 10.5L4.95 10.5C4.72 10.5 4.5 10.42 4.33 10.28L4.01 10.03C3.58 9.69 3.05 9.5 2.5 9.5C2.22 9.5 1.95 9.55 1.69 9.64L1.61 9.37C1.55 9.16 1.51 8.99 1.5 8.9L1.5 6.02ZM11.47 4.74C11.76 4.76 12.04 4.89 12.28 5.12C12.52 5.37 12.63 5.69 12.56 6.02L14.5 6.02L14.47 6.12C14.4 6.31 14.21 6.73 13.77 6.73L12.06 6.73L10.13 8.66L8.61 7.12L10.69 5.04C10.86 4.87 11.09 4.77 11.35 4.74L11.47 4.74Z"/>
</svg>