<svg xmlns="http://www.w3.org/2000/svg" viewBox="0 0 15 15">
  <path fill="param(fill) #888" stroke="param(outline) #000" stroke-width="param(outline-width) 0" fill-opacity="param(fill-opacity) 1" stroke-opacity="param(outline-opacity) 1" d="M11.37 2.5C11.07 2.53 10.8 2.65 10.6 2.85L8.2 5.25L9.96 7.02L12.25 5L14.22 5C14.88 5 15 4 15 4L12.76 4C12.84 3.62 12.72 3.23 12.44 2.94C12.16 2.67 11.84 2.52 11.5 2.5L11.37 2.5ZM0 3.98L0 7.3C0.08 8.19 0.89 9.85 3 10.5L3 14L6.25 14C6.23 13.92 6.21 13.84 6.19 13.76C6.08 13.31 5.68 13 5.22 13C4.81 13 4.41 13 4 13L4 10.5C4.2 10.53 4.29 10.72 4.5 10.75L4.5 12.5L7.75 12.5C7.75 12.5 7.75 12.5 7.75 12.5C7.75 11.95 7.3 11.5 6.75 11.5C6.33 11.5 5.92 11.5 5.5 11.5L5.5 10.75C7.95 10.61 8.91 9.5 9.59 7.67L7.56 5.64L2.5 5.64L0 3.98Z"/>
</svg>