<svg xmlns="http://www.w3.org/2000/svg" viewBox="0 0 15 15">
  <path fill="param(fill) #888" stroke="param(outline) #000" stroke-width="param(outline-width) 0" fill-opacity="param(fill-opacity) 1" stroke-opacity="param(outline-opacity) 1" d="M12 4C14.13 4 15.05 5.78 15 6L14.25 12L13 12L13 15L11 15L11 12L9.75 12L9 6C8.95 5.78 9.87 4 12 4ZM9 1L9 3L3 3L3 5L8.31 5C8.08 5.38 7.96 5.76 8.01 6.11L8.12 7L3 7L3 9L8.37 9L8.62 11L1 11L1 1L9 1ZM12 5.5C10.71 5.5 10.49 6.17 10.25 6.5L10.5 8L13.5 8L13.75 6.5L13.55 6.19C13.32 5.86 12.95 5.5 12 5.5Z"/>
</svg>