<svg xmlns="http://www.w3.org/2000/svg" viewBox="0 0 15 15">
  <path fill="param(fill) #888" stroke="param(outline) #000" stroke-width="param(outline-width) 0" fill-opacity="param(fill-opacity) 1" stroke-opacity="param(outline-opacity) 1" d="M11.5 7C11.75 7 11.96 7.18 12 7.41L12 9.29L12.74 10.03C14 10.15 15 11.2 15 12.5C15 13.88 13.88 15 12.51 15C11.13 15 10 13.88 10 12.5C10 11.54 10.55 10.71 11.34 10.29L11.5 10.21L11.11 9.81L8.63 11.21C8.86 11.59 9.01 12.03 9.01 12.5C9.01 13.88 7.87 15 6.5 15C5.12 15 4 13.88 4 12.5C4 11.13 5.12 10 6.5 10C6.64 10 6.77 10.02 6.91 10.04L7.09 10.08L6.66 9L6.43 9C5.83 9.01 5.76 8.21 6.22 8.04L6.31 8.01L6.43 8L8.46 8C9.09 7.99 9.13 8.89 8.57 8.99L8.46 9L7.74 9L8.26 10.28L11 8.72L11 8L10.5 8C9.87 8.01 9.83 7.11 10.39 7.01L10.5 7L11.5 7ZM6.5 11.01C5.66 11.01 5 11.67 5 12.5C5 13.34 5.66 14 6.5 14C7.33 14 8.01 13.34 8.01 12.5C8.01 11.67 7.33 11.01 6.5 11.01ZM12.51 11.01C11.67 11.01 11 11.67 11 12.5C11 13.34 11.67 14 12.51 14C13.34 14 14 13.34 14 12.5C14 11.67 13.34 11.01 12.51 11.01ZM8 0L8 2L2 2L2 4L8 4L8 6L2 6L2 8L5.02 8C4.88 8.39 4.91 8.84 5.09 9.21L5.13 9.28L5.06 9.31C4.68 9.48 4.34 9.72 4.05 10L0 10L0 0L8 0Z"/>
</svg>