<svg xmlns="http://www.w3.org/2000/svg" viewBox="0 0 15 15">
  <path fill="param(fill) #888" stroke="param(outline) #000" stroke-width="param(outline-width) 0" fill-opacity="param(fill-opacity) 1" stroke-opacity="param(outline-opacity) 1" d="M3.96 9.32C4.39 10.29 5.25 11.04 6.21 11.36L2.79 15L1.29 15C0.64 15 0 14.36 0 13.71L0 13.61L3.96 9.32ZM12 12L12 11L15 11L15 12L14 12L14 15L13 15L13 12L12 12ZM7.5 3.54C9.75 3.54 11.46 5.36 11.46 7.5L11.46 8C11.45 8.32 11.43 8.6 11.36 8.89L11.36 8.94C11.36 8.98 11.35 9 11.33 9.03L11.25 9.11C10.5 9.86 9.64 11.25 9.64 12.11C9.64 13.29 8.89 14.57 7.61 14.57C7.29 14.57 7.07 14.36 7.07 14.04C7.07 13.74 7.25 13.54 7.52 13.51L7.61 13.5C8.32 13.5 8.54 12.65 8.57 12.1L8.57 12C8.57 10.71 9.64 9.11 10.39 8.36C10.39 8.14 10.5 7.82 10.5 7.5C10.5 5.89 9.11 4.5 7.5 4.5C5.89 4.5 4.5 5.89 4.5 7.5L3.54 7.5C3.54 5.36 5.25 3.54 7.5 3.54ZM13.71 0C14.36 0 15 0.64 15 1.29L15 1.93L11.89 5.36C11.68 4.71 11.25 4.18 10.82 3.75C10.61 3.43 10.29 3.21 9.86 3.11L12.75 0L13.71 0Z"/>
</svg>