<svg xmlns="http://www.w3.org/2000/svg" viewBox="0 0 15 15">
  <path fill="param(fill) #888" stroke="param(outline) #000" stroke-width="param(outline-width) 0" fill-opacity="param(fill-opacity) 1" stroke-opacity="param(outline-opacity) 1" d="M7.5 0C10.18 0 12.5 1.75 12.5 4.5C12.5 5.62 12.12 6.57 11.49 7.3C12.42 8.07 13 9.16 13 10.5C13 13.31 10.44 15 7.5 15C4.56 15 2 13.31 2 10.5C2 9.16 2.58 8.07 3.51 7.3C2.88 6.57 2.5 5.62 2.5 4.5C2.5 1.75 4.82 0 7.5 0ZM7.5 9C6.02 9 5 9.67 5 10.5C5 11.33 6.02 12 7.5 12C8.98 12 10 11.33 10 10.5C10 9.67 8.98 9 7.5 9ZM7.5 3C6.32 3 5.5 3.62 5.5 4.5C5.5 5.38 6.32 6 7.5 6C8.68 6 9.5 5.38 9.5 4.5C9.5 3.62 8.68 3 7.5 3Z"/>
</svg>