<svg xmlns="http://www.w3.org/2000/svg" viewBox="0 0 15 15">
  <path fill="param(fill) #888" stroke="param(outline) #000" stroke-width="param(outline-width) 0" fill-opacity="param(fill-opacity) 1" stroke-opacity="param(outline-opacity) 1" d="M12.64 7.27V7.22C12.98 7.19 13.29 7.45 13.32 7.79V7.84C12.97 7.87 12.67 7.62 12.64 7.27ZM12.22 7.26C12.22 7.83 12.69 8.26 13.22 8.26L12.82 11.36C12.74 12.04 12.98 12.76 13.49 13.16C13.57 13.24 13.7 13.23 13.77 13.15L14.11 12.81C14.15 12.76 14.15 12.63 14.06 12.56C13.73 12.26 13.58 11.82 13.66 11.36L14.26 8.26C14.61 8.26 14.89 7.98 14.89 7.63H14.47C14.36 7.63 14.26 7.54 14.27 7.46C14.27 7.43 14.59 6.17 14.59 6.17C14.68 5.83 14.71 5.48 14.66 5.17L14.45 3.77C14.29 2.67 13.35 1.77 12.15 1.77H11.25C11.06 1.77 10.89 1.85 10.77 2L9.07 4.1C9.01 4.17 8.96 4.25 8.91 4.33C8.6 4.95 8.85 5.73 9.47 6.03L11.27 6.95C11.33 6.98 11.39 7 11.46 7C11.69 7 11.78 6.81 11.78 6.58V6.37L12.11 6.62C12.16 6.66 12.19 6.73 12.21 6.82ZM1.19 6.81V4.71C1.09 4.42 0.92 4.84 0.82 4.89C0.79 4.93 0.78 4.97 0.78 5.02V7.42C0.78 7.83 0.53 8.2 0.15 8.37V7.88C0.28 7.76 0.36 7.59 0.36 7.42V4.92C0.36 4.74 0.43 4.58 0.56 4.46L2.16 2.96C2.97 2.21 4.06 1.76 5.16 1.76H10.36L8.66 3.86C8.59 3.95 8.53 4.05 8.47 4.15C8.05 4.97 8.36 5.95 9.17 6.35L10.87 7.24C11.04 7.33 11.16 7.5 11.19 7.7L12.1 13C12.11 13.11 12.14 13.22 12.02 13.24H10.49C10.39 13.24 10.3 13.17 10.28 13.07L9.31 8.37C9.29 8.27 9.2 8.2 9.09 8.2C7.59 8.27 6.09 8.2 4.69 7.98L5.27 10.78C5.34 11.1 5.37 11.42 5.37 11.74V12.94C5.37 13.06 5.27 13.15 5.16 13.15H3.66C3.55 13.15 3.45 13.06 3.45 12.94V11.74C3.45 10.98 3.16 10.24 2.63 9.74M7.52 8.74C7.54 8.64 7.63 8.56 7.73 8.56C8.08 8.57 8.42 8.56 8.73 8.55C8.83 8.55 8.92 8.62 8.94 8.72L9.12 9.56C9.13 9.61 9.12 9.65 9.1 9.7L8.64 10.6C8.63 10.63 8.62 10.67 8.62 10.7V12.9C8.62 13.02 8.53 13.11 8.41 13.11H7.01C6.9 13.11 6.8 13.02 6.81 12.96C6.81 12.95 7.52 8.74 7.52 8.74ZM0.11 12.87V12.9C0.11 13.02 0.21 13.11 0.32 13.11H1.72C1.83 13.11 1.93 13.02 1.93 12.9L1.95 10.64C1.95 10.61 2.25 10.13 2.25 10.13L0.95 7.53Z"/>
</svg>