<svg xmlns="http://www.w3.org/2000/svg" viewBox="0 0 15 15">
  <path fill="param(fill) #888" stroke="param(outline) #000" stroke-width="param(outline-width) 0" fill-opacity="param(fill-opacity) 1" stroke-opacity="param(outline-opacity) 1" d="M1 0C0.45 0 0 0.45 0 1L0 2L0 4L0 5C0 5.55 0.45 6 1 6L2.5 6L2.5 4A0.5 0.5 0 0 1 2 3.5L2 2.5A0.5 0.5 0 0 1 2.5 2L12.5 2A0.5 0.5 0 0 1 13 2.5L13 3.5A0.5 0.5 0 0 1 12.5 4L12.5 6L14 6C14.55 6 15 5.55 15 5L15 4L15 2L15 1C15 0.45 14.55 0 14 0L1 0zM3 3C3 3.03 3 3.06 3 3.08L3 13.92C3 14.51 3.45 15 4 15L9.03 15C9.23 15 9.35 14.76 9.24 14.58L5.5 8.5L8.88 3L3 3zM10.39 3L7 8.5L10.81 14.69C10.93 14.88 11.13 15 11.35 15C11.71 15 12 14.68 12 14.29L12 3L10.39 3z"/>
</svg>