<svg xmlns="http://www.w3.org/2000/svg" viewBox="0 0 15 15">
  <path fill="param(fill) #888" stroke="param(outline) #000" stroke-width="param(outline-width) 0" fill-opacity="param(fill-opacity) 1" stroke-opacity="param(outline-opacity) 1" d="M13 1C13.55 1 14 1.45 14 2L14 13C14 13.55 13.55 14 13 14L2 14C1.45 14 1 13.55 1 13L1 2C1 1.45 1.45 1 2 1L13 1ZM9 3L6 3L6 4.5L5 4.5L5 6L3 6L3 12L12 12L12 6L10 6L10 4.5L9 4.5L9 3ZM5 9L5 11L4 11L4 9L5 9ZM6.5 9L6.5 11L5.5 11L5.5 9L6.5 9ZM8 9L8 11L7 11L7 9L8 9ZM9.5 9L9.5 11L8.5 11L8.5 9L9.5 9ZM11 9L11 11L10 11L10 9L11 9Z"/>
</svg>