<svg xmlns="http://www.w3.org/2000/svg" viewBox="0 0 15 15">
  <path fill="param(fill) #888" stroke="param(outline) #000" stroke-width="param(outline-width) 0" fill-opacity="param(fill-opacity) 1" stroke-opacity="param(outline-opacity) 1" d="M2.5 11C1.4 11 0.5 11.9 0.5 13C0.5 14.1 1.4 15 2.5 15C3.6 15 4.5 14.1 4.5 13C4.5 11.9 3.6 11 2.5 11ZM5 0.25L0 0.25L1.5 9.5L3.5 9.5L5 0.25ZM10.5 11C11.6 11 12.5 11.9 12.5 13C12.5 14.1 11.6 15 10.5 15C9.4 15 8.5 14.1 8.5 13C8.5 11.9 9.4 11 10.5 11ZM15 4C15 5.24 14.34 6.38 13.26 6.99L12.51 7.42C11.88 7.78 11.5 8.44 11.5 9.16L11.5 9.5L11.5 9.5L9.5 9.5L9.5 8.15C9.5 7.29 9.98 6.51 10.75 6.13L10.89 6.05C11.57 5.71 12 5.02 12 4.26L12 4L12 4L11.95 3.89C11.67 3.35 11.11 3 10.5 3C9.89 3 9.33 3.35 9.05 3.89L9 4L9 4C9 4.83 8.33 5.5 7.5 5.5C6.67 5.5 6 4.83 6 4L6 4L6 4C6 1.79 7.79 0 10 0L11 0C13.21 0 15 1.79 15 4L15 4L15 4Z"/>
</svg>