<svg xmlns="http://www.w3.org/2000/svg" viewBox="0 0 15 15">
  <path fill="param(fill) #888" stroke="param(outline) #000" stroke-width="param(outline-width) 0" fill-opacity="param(fill-opacity) 1" stroke-opacity="param(outline-opacity) 1" d="M4 11C2.9 11 2 11.9 2 13C2 14.1 2.9 15 4 15C5.1 15 6 14.1 6 13C6 11.9 5.1 11 4 11ZM6.5 0.25L1.5 0.25L3 9.5L5 9.5L6.5 0.25ZM11 11C9.9 11 9 11.9 9 13C9 14.1 9.9 15 11 15C12.1 15 13 14.1 13 13C13 11.9 12.1 11 11 11ZM13.5 0.25L8.5 0.25L10 9.5L12 9.5L13.5 0.25Z"/>
</svg>