<svg xmlns="http://www.w3.org/2000/svg" viewBox="0 0 15 15">
  <path fill="param(fill) #888" stroke="param(outline) #000" stroke-width="param(outline-width) 0" fill-opacity="param(fill-opacity) 1" stroke-opacity="param(outline-opacity) 1" d="M9.75 8.25C10.58 8.25 11.25 8.92 11.25 9.75C11.25 10.31 10.95 10.79 10.5 11.05L10.5 12.47C10.5 13.73 9.38 15 7.5 15C5.63 15 4.5 13.73 4.5 12.47L4.5 11.05C4.05 10.79 3.75 10.31 3.75 9.75C3.75 8.92 4.42 8.25 5.25 8.25L9.75 8.25ZM7.5 0C11.64 0 15 3.36 15 7.5C15 10.47 13.27 13.04 10.77 14.25C11.08 13.81 11.25 13.3 11.25 12.75L11.25 12.18C12.62 11.08 13.5 9.39 13.5 7.5C13.5 4.19 10.81 1.5 7.5 1.5C4.19 1.5 1.5 4.19 1.5 7.5C1.5 9.39 2.38 11.08 3.75 12.18L3.75 12.75C3.75 13.3 3.92 13.81 4.23 14.25C1.73 13.04 0 10.47 0 7.5C0 3.36 3.36 0 7.5 0ZM6.75 9.75L6 9.75L6 12.47C6 12.78 6.32 13.47 7.42 13.5L7.5 13.5C7.53 13.5 7.55 13.5 7.58 13.5L7.5 13.5C8.67 13.5 9 12.79 9 12.47L9 9.75L8.25 9.75L8.25 11.2C8.25 11.62 7.91 11.95 7.5 11.95C7.09 11.95 6.75 11.62 6.75 11.2L6.75 9.75ZM4.88 4.65C5.5 4.65 6 5.15 6 5.78C6 6.4 5.5 6.9 4.88 6.9C4.25 6.9 3.75 6.4 3.75 5.78C3.75 5.15 4.25 4.65 4.88 4.65ZM10.13 4.65C10.75 4.65 11.25 5.15 11.25 5.78C11.25 6.4 10.75 6.9 10.13 6.9C9.5 6.9 9 6.4 9 5.78C9 5.15 9.5 4.65 10.13 4.65Z"/>
</svg>