<svg xmlns="http://www.w3.org/2000/svg" viewBox="0 0 15 15">
  <path fill="param(fill) #888" stroke="param(outline) #000" stroke-width="param(outline-width) 0" fill-opacity="param(fill-opacity) 1" stroke-opacity="param(outline-opacity) 1" d="M7.5 0C11.64 0 15 3.36 15 7.5C15 11.64 11.64 15 7.5 15C3.36 15 0 11.64 0 7.5C0 3.36 3.36 0 7.5 0ZM9.75 8.25L5.25 8.25C4.42 8.25 3.75 8.92 3.75 9.75C3.75 10.31 4.05 10.79 4.5 11.05L4.5 12.47C4.5 13.73 5.63 15 7.5 15C9.38 15 10.5 13.73 10.5 12.47L10.5 11.05C10.95 10.79 11.25 10.31 11.25 9.75C11.25 8.92 10.58 8.25 9.75 8.25ZM6.75 9.75L6.75 11.2C6.75 11.62 7.09 11.95 7.5 11.95C7.91 11.95 8.25 11.62 8.25 11.2L8.25 9.75L9 9.75L9 12.47C9 12.79 8.67 13.5 7.5 13.5C6.33 13.5 6 12.79 6 12.47L6 9.75L6.75 9.75ZM4.88 4.65C4.25 4.65 3.75 5.15 3.75 5.78C3.75 6.4 4.25 6.9 4.88 6.9C5.5 6.9 6 6.4 6 5.78C6 5.15 5.5 4.65 4.88 4.65ZM10.13 4.65C9.5 4.65 9 5.15 9 5.78C9 6.4 9.5 6.9 10.13 6.9C10.75 6.9 11.25 6.4 11.25 5.78C11.25 5.15 10.75 4.65 10.13 4.65Z"/>
</svg>