<svg xmlns="http://www.w3.org/2000/svg" viewBox="0 0 15 15">
  <path fill="param(fill) #888" stroke="param(outline) #000" stroke-width="param(outline-width) 0" fill-opacity="param(fill-opacity) 1" stroke-opacity="param(outline-opacity) 1" d="M9.75 8.25C10.58 8.25 11.25 8.92 11.25 9.75C11.25 10.31 10.95 10.79 10.5 11.05L10.5 12.47C10.5 13.73 9.38 15 7.5 15C5.63 15 4.5 13.73 4.5 12.47L4.5 11.05C4.05 10.79 3.75 10.31 3.75 9.75C3.75 8.92 4.42 8.25 5.25 8.25L9.75 8.25ZM6.75 9.75L6 9.75L6 12.47C6 12.78 6.32 13.47 7.42 13.5L7.5 13.5C7.53 13.5 7.55 13.5 7.58 13.5L7.5 13.5C8.67 13.5 9 12.79 9 12.47L9 9.75L8.25 9.75L8.25 11.2C8.25 11.62 7.91 11.95 7.5 11.95C7.09 11.95 6.75 11.62 6.75 11.2L6.75 9.75ZM5.75 4.75C5.75 5.58 5.08 6.25 4.25 6.25C3.42 6.25 2.75 5.58 2.75 4.75C2.75 3.92 3.42 3.25 4.25 3.25C5.08 3.25 5.75 3.92 5.75 4.75ZM12.25 4.75C12.25 5.58 11.58 6.25 10.75 6.25C9.92 6.25 9.25 5.58 9.25 4.75C9.25 3.92 9.92 3.25 10.75 3.25C11.58 3.25 12.25 3.92 12.25 4.75Z"/>
</svg>