<svg xmlns="http://www.w3.org/2000/svg" viewBox="0 0 15 15">
  <path fill="param(fill) #888" stroke="param(outline) #000" stroke-width="param(outline-width) 0" fill-opacity="param(fill-opacity) 1" stroke-opacity="param(outline-opacity) 1" d="M7.54 0C6.14 0 4.99 0.86 4.31 2.04C3.49 2.19 2.71 2.54 2.13 3.18C1.5 3.89 1.14 4.91 1.17 6.17C1.21 7.51 1.86 8.59 2.45 9.59C3.05 10.58 3.58 11.48 3.66 12.45C3.68 12.73 3.9 12.97 4.18 13.01C4.18 13.02 4.21 13.04 4.26 13.11C4.36 13.26 4.52 13.53 4.75 13.82C5.22 14.4 6.09 15.02 7.55 15C8.99 14.98 9.83 14.37 10.27 13.81C10.49 13.53 10.63 13.27 10.74 13.14C10.84 13.01 10.84 13.02 10.89 13.01C11.19 12.97 11.42 12.71 11.42 12.4C11.42 11.35 11.94 10.38 12.53 9.38C13.12 8.39 13.81 7.38 13.83 6.16C13.86 4.06 12.52 2.48 10.78 2.07C10.11 0.87 8.95 0 7.54 0ZM7.62 1.24C8.59 1.27 9.44 1.9 9.88 2.85C9.97 3.03 10.14 3.16 10.34 3.2C11.62 3.41 12.62 4.46 12.59 6.15C12.58 6.87 12.08 7.74 11.47 8.75C10.92 9.69 10.35 10.79 10.25 12.08C10.09 12.19 9.86 12.26 9.76 12.38C9.57 12.63 9.45 12.86 9.3 13.05C9 13.43 8.69 13.75 7.53 13.77C6.38 13.78 6.03 13.44 5.71 13.05C5.56 12.85 5.43 12.63 5.25 12.39C5.15 12.24 4.98 12.09 4.78 11.97C4.59 10.82 4.04 9.83 3.51 8.95C2.93 7.97 2.43 7.08 2.41 6.14C2.38 5.12 2.65 4.46 3.05 4.01C3.45 3.55 4.03 3.28 4.72 3.19C4.93 3.16 5.11 3.03 5.2 2.84C5.64 1.9 6.48 1.28 7.44 1.24L7.16 1.77L6.36 1.86L6.92 2.44L6.76 3.23L7.48 2.87L8.18 3.27L8.07 2.47L8.66 1.93L7.87 1.79L7.62 1.24ZM7.54 3.9C6.34 3.9 6.25 4.24 5.36 6.58C4.8 8.08 5.36 9.02 6.16 9.49C5.68 9.88 5.31 10.46 5.12 11.16C7.11 13.76 8.56 12.67 9.95 11.17C9.77 10.45 9.38 9.86 8.89 9.47C9.64 8.98 10.18 8.03 9.71 6.58C8.99 4.31 8.74 3.9 7.54 3.9ZM4.1 4.63L3.77 5.04L3.24 5L3.53 5.44L3.34 5.93L3.84 5.79L4.24 6.12L4.27 5.6L4.71 5.32L4.22 5.14L4.1 4.63ZM10.64 6.06L10.59 6.42L10.26 6.59L10.59 6.74L10.65 7.11L10.91 6.84L11.27 6.9L11.09 6.57L11.26 6.25L10.9 6.31L10.64 6.06Z"/>
</svg>