<svg xmlns="http://www.w3.org/2000/svg" viewBox="0 0 15 15">
  <path fill="param(fill) #888" stroke="param(outline) #000" stroke-width="param(outline-width) 0" fill-opacity="param(fill-opacity) 1" stroke-opacity="param(outline-opacity) 1" d="M7 0L7 1.16A1 1 0 0 0 6.5 2.02A1 1 0 0 0 7.5 3.02A1 1 0 0 0 8.5 2.02A1 1 0 0 0 8 1.16L8 0L7 0ZM7 4A0.5 0.5 0 0 0 6.5 4.5L6.5 7.01C6.02 7.21 5.61 7.56 5.33 8L5 8L4 8A1 0.67 0 0 1 3 7.33L3 7L0 7A4 4 0 0 0 4 11L5.52 11L5.54 11.02C5.12 11.27 4.7 11.56 4.41 11.92C4.2 12.17 4.05 12.47 3.92 12.75C3.79 13.03 3.67 13.29 3.58 13.43C3.4 13.7 3.18 13.81 2.9 13.79C2.7 13.78 2.36 13.68 2 13.56A0.5 0.5 0 0 0 2 13.5A0.5 0.5 0 0 0 1.5 13A0.5 0.5 0 0 0 1 13.5A0.5 0.5 0 0 0 1.5 14A0.5 0.5 0 0 0 1.66 13.97C2.08 14.13 2.51 14.27 2.87 14.29C3.31 14.32 3.74 14.1 4 13.7C4.14 13.49 4.24 13.23 4.37 12.96C4.5 12.69 4.64 12.42 4.79 12.23C5.04 11.94 5.45 11.66 5.89 11.4L5.03 14.52A0.38 0.38 0 0 0 5.4 15L5.5 15L6.5 14L7.6 15L8.5 14L9.5 15L9.6 15A0.38 0.38 0 0 0 9.97 14.52L9.11 11.4C9.55 11.66 9.96 11.94 10.21 12.23C10.36 12.42 10.5 12.69 10.63 12.96C10.76 13.23 10.86 13.49 11 13.7C11.26 14.1 11.69 14.32 12.13 14.29C12.49 14.27 12.92 14.13 13.34 13.97A0.5 0.5 0 0 0 13.5 14A0.5 0.5 0 0 0 14 13.5A0.5 0.5 0 0 0 13.5 13A0.5 0.5 0 0 0 13 13.5A0.5 0.5 0 0 0 13 13.56C12.64 13.68 12.3 13.78 12.1 13.79C11.82 13.81 11.6 13.7 11.42 13.43C11.33 13.29 11.21 13.03 11.08 12.75C10.95 12.47 10.8 12.17 10.59 11.92C10.3 11.56 9.88 11.27 9.46 11.02L9.48 11L11 11A4 4 0 0 0 15 7L12 7L12 7.33A1 0.67 0 0 1 11 8L10 8L9.67 8C9.39 7.56 8.98 7.21 8.5 7.01L8.5 6L10.5 6C10.78 6 11 5.78 11 5.5C11 5.22 10.78 5 10.5 5L8.5 5L8.5 4.5A0.5 0.5 0 0 0 8 4L7 4ZM11.5 4A0.5 0.5 0 0 0 11 4.5A0.5 0.5 0 0 0 11.5 5A0.5 0.5 0 0 0 12 4.5A0.5 0.5 0 0 0 11.5 4ZM6.5 7.85L6.5 9.49A0.5 0.5 0 0 0 7 9.99L8 9.99A0.5 0.5 0 0 0 8.5 9.49L8.5 7.85A1.82 1.82 0 0 1 9.32 9.37A1.82 1.82 0 0 1 7.5 11.19A1.82 1.82 0 0 1 5.68 9.37A1.82 1.82 0 0 1 6.5 7.85Z"/>
</svg>