<?xml version="1.0" encoding="UTF-8"?>
<svg viewBox="0 0 15 15" version="1.1" xmlns="http://www.w3.org/2000/svg" xmlns:xlink="http://www.w3.org/1999/xlink">
  <path fill="param(fill) #888" stroke="param(outline) #000" stroke-width="param(outline-width) 0" fill-opacity="param(fill-opacity) 1" stroke-opacity="param(outline-opacity) 1" d="M13.9 9.69C13.56 9.24 12.94 9.15 12.5 9.5C12.09 9.8 11.99 10.35 12.23 10.79L12.3 10.9C12.63 11.34 12.54 11.96 12.1 12.3C11.66 12.63 11.03 12.54 10.71 12.1L9.21 10.1L7.61 11.31L9.11 13.3C10.11 14.63 11.98 14.89 13.31 13.89C14.63 12.9 14.89 11.02 13.9 9.69ZM0.9 0.7C0.45 1.03 0.37 1.66 0.7 2.1L7.31 10.91L8.91 9.7L2.3 0.9C1.96 0.46 1.34 0.37 0.9 0.7Z"/>
</svg>