<svg xmlns="http://www.w3.org/2000/svg" viewBox="0 0 15 15">
  <path fill="param(fill) #888" stroke="param(outline) #000" stroke-width="param(outline-width) 0" fill-opacity="param(fill-opacity) 1" stroke-opacity="param(outline-opacity) 1" d="M9 8L9 14.5L1 14.5L1 8L9 8ZM6 9L4 9C3.72 9 3.5 9.22 3.5 9.5C3.5 9.78 3.72 10 4 10L6 10C6.28 10 6.5 9.78 6.5 9.5C6.5 9.22 6.28 9 6 9ZM9.75 6L9.75 7.5L0.25 7.5L0.25 6L9.75 6ZM10.53 0C10.66 0 10.79 0.05 10.88 0.15L14.85 4.12C15.05 4.32 15.05 4.63 14.85 4.82L12.82 6.85C12.63 7.05 12.32 7.05 12.12 6.85L8.15 2.88C8.05 2.79 8 2.66 8 2.53L8 0.5C8 0.22 8.22 0 8.5 0L10.53 0ZM9.49 0.74C9.08 0.74 8.74 1.08 8.74 1.49C8.74 1.9 9.08 2.23 9.49 2.23C9.9 2.23 10.23 1.9 10.23 1.49C10.23 1.08 9.9 0.74 9.49 0.74Z"/>
</svg>