<?xml version="1.0" encoding="UTF-8"?>
<svg viewBox="0 0 15 15" version="1.1" xmlns="http://www.w3.org/2000/svg" xmlns:xlink="http://www.w3.org/1999/xlink">
  <path fill="param(fill) #888" stroke="param(outline) #000" stroke-width="param(outline-width) 0" fill-opacity="param(fill-opacity) 1" stroke-opacity="param(outline-opacity) 1" d="M1.59 9.17L0.3 7.56C0.28 7.53 0.27 7.51 0.27 7.47C0.27 7.38 0.35 7.3 0.44 7.3L0.48 7.31L2.71 8.39C10.44 4.9 14.34 8.49 14.34 8.49L14.36 8.53C14.37 8.54 14.37 8.55 14.37 8.56C14.37 8.58 14.36 8.6 14.35 8.61L12.26 9.97C12.21 10 12.18 10.04 12.18 10.1C12.18 10.17 12.24 10.23 12.31 10.23L14.52 9.55C14.55 9.55 14.57 9.57 14.57 9.6L14.56 9.62L14.55 9.63C10.95 13.76 2.71 9.95 2.71 9.95L0.51 11.03C0.49 11.04 0.47 11.05 0.44 11.05C0.35 11.05 0.27 10.97 0.27 10.88C0.27 10.84 0.28 10.81 0.29 10.79L1.59 9.17ZM11.93 9.2C12.31 9.2 12.61 8.9 12.61 8.52C12.61 8.15 12.31 7.84 11.93 7.84C11.56 7.84 11.25 8.15 11.25 8.52C11.25 8.9 11.56 9.2 11.93 9.2ZM1.02 3.41L5.45 3.41L5.45 5.45L1.02 5.45C0.46 5.45 0 5 0 4.43C0 3.87 0.46 3.41 1.02 3.41ZM10.91 5.45L6.14 5.45L6.14 3.41L15 3.41L14.83 3.57C14.29 4.05 12.6 5.45 10.91 5.45Z"/>
</svg>