<svg xmlns="http://www.w3.org/2000/svg" viewBox="0 0 15 15">
  <path fill="param(fill) #888" stroke="param(outline) #000" stroke-width="param(outline-width) 0" fill-opacity="param(fill-opacity) 1" stroke-opacity="param(outline-opacity) 1" d="M0.27 12.27L5.49 8.49L6.86 11.47L2.16 14.88C1.87 15.09 1.47 15.02 1.26 14.73L0.12 13.17C-0.09 12.88 -0.02 12.48 0.27 12.27ZM8.57 9.44C8.33 10.08 8.11 10.51 7.9 10.72C7.8 10.82 7.63 10.94 7.38 11.09L6.23 8.59C6.1 8.31 6.19 7.98 6.44 7.8L10.1 5.14L10.45 4.88L10.85 4.56C12.19 3.49 14 1.79 14.45 0C16.92 3.38 10.33 8.16 8.57 9.44Z"/>
</svg>