<svg xmlns="http://www.w3.org/2000/svg" viewBox="0 0 15 15">
  <path fill="param(fill) #888" stroke="param(outline) #000" stroke-width="param(outline-width) 0" fill-opacity="param(fill-opacity) 1" stroke-opacity="param(outline-opacity) 1" d="M11.75 0L11.75 3.28C12.32 3.39 12.75 3.9 12.75 4.5C12.75 5.01 12.44 5.45 12 5.65L12 10C12 10.55 12.45 11 13 11C13.55 11 14 10.55 14 10L14 9.5L13 9.5L15 7L15 10C15 11.1 14.1 12 13 12C11.9 12 11 11.1 11 10L11 5.65C10.56 5.45 10.25 5.01 10.25 4.5C10.25 3.9 10.68 3.39 11.25 3.28L11.25 0L11.75 0ZM11.5 4C11.22 4 11 4.22 11 4.5C11 4.78 11.22 5 11.5 5C11.78 5 12 4.78 12 4.5C12 4.22 11.78 4 11.5 4ZM9 6.5L9 7C9 7.07 8.13 7.42 6.39 8.07C6.28 8.18 6.28 8.18 6.28 8.29C6.28 8.39 6.39 8.5 6.5 8.5L9.5 8.5L9.5 9C6.81 11.09 4.36 11.9 0 12C0 9 0 5.5 0 4C6.36 4.17 9 6.5 9 6.5ZM5 8C5.61 8 6 7.6 6 7C6 6.4 5.61 6 5 6C4.4 6 4 6.4 4 7C4 7.6 4.4 8 5 8Z"/>
</svg>