<svg xmlns="http://www.w3.org/2000/svg" viewBox="0 0 15 15">
  <path fill="param(fill) #888" stroke="param(outline) #000" stroke-width="param(outline-width) 0" fill-opacity="param(fill-opacity) 1" stroke-opacity="param(outline-opacity) 1" d="M14.5 8.38L14.5 8.75C14.5 8.8 13.85 9.07 12.54 9.55C12.46 9.64 12.46 9.64 12.46 9.72C12.46 9.79 12.54 9.88 12.63 9.88L14.88 9.88L14.88 10.25C12.86 11.82 10.75 12.5 8.25 12.5C6.58 12.5 5 11.75 3.5 10.25L0 12.5L0 11.5L1.25 9.5L0 7.5L0 6.5L3.5 8.75C5 7.25 6.58 6.5 8.25 6.5C12.75 6.5 14.5 8.38 14.5 8.38ZM11.5 9.25C11.96 9.25 12.25 8.95 12.25 8.5C12.25 8.05 11.96 7.75 11.5 7.75C11.05 7.75 10.75 8.05 10.75 8.5C10.75 8.95 11.05 9.25 11.5 9.25ZM0.5 2.75L5.5 2.75L5.5 2.75L5 5.25L0.5 5.25C0.22 5.25 0 5.03 0 4.75L0 3.25C0 2.97 0.22 2.75 0.5 2.75ZM7 4.75C6.56 5.05 6.22 5.21 6 5.25C5.89 5.27 5.72 5.27 5.5 5.25L5.92 3.15C5.97 2.92 6.17 2.75 6.41 2.75C7.44 2.75 8.47 2.75 9.5 2.75C10.5 2.75 13.5 2.75 15 1.5C15 4.75 8.69 4.75 7 4.75Z"/>
</svg>