<?xml version="1.0" encoding="UTF-8"?>
<svg viewBox="0 0 15 15" version="1.1" xmlns="http://www.w3.org/2000/svg" xmlns:xlink="http://www.w3.org/1999/xlink">
  <path fill="param(fill) #888" stroke="param(outline) #000" stroke-width="param(outline-width) 0" fill-opacity="param(fill-opacity) 1" stroke-opacity="param(outline-opacity) 1" d="M11.85 2.84C11.85 2.67 12 2.18 12 2.36C12 2.24 11.5 2.34 10.49 2.67L10.46 2.67C10.43 2.66 10.38 2.63 10.36 2.56L10.35 2.49C10.35 2.49 10.35 2.32 10.49 2.32L11.71 1.61L11.6 1.49C11.25 1.12 9.98 0 7.5 0C6 0 4.47 0.48 2.91 1.44L0 0L0 0.25L1.5 2.25L0 4.25L0 4.5L2.91 3.19L3.27 3.38C4.54 4.01 8.86 5.81 11.85 2.84ZM8.4 1.69C8.4 1.38 8.65 1.13 8.96 1.13L9.04 1.13C9.35 1.13 9.6 1.38 9.6 1.69C9.6 2 9.35 2.25 9.04 2.25L8.96 2.25C8.65 2.25 8.4 2 8.4 1.69ZM14.85 8.09C14.85 7.92 15 7.43 15 7.61C15 7.49 14.5 7.59 13.49 7.92L13.46 7.92C13.43 7.91 13.38 7.88 13.36 7.81L13.35 7.74C13.35 7.74 13.35 7.57 13.49 7.57L14.71 6.86L14.6 6.74C14.25 6.37 12.98 5.25 10.5 5.25C9 5.25 7.47 5.73 5.91 6.69L3 5.25L3 5.5L4.5 7.5L3 9.5L3 9.75L5.91 8.44L6.27 8.63C7.54 9.26 11.86 11.06 14.85 8.09ZM11.4 6.94C11.4 6.63 11.65 6.38 11.96 6.38L12.04 6.38C12.35 6.38 12.6 6.63 12.6 6.94C12.6 7.25 12.35 7.5 12.04 7.5L11.96 7.5C11.65 7.5 11.4 7.25 11.4 6.94ZM11.85 13.34C11.85 13.17 12 12.68 12 12.86C12 12.74 11.5 12.84 10.49 13.17L10.46 13.17C10.43 13.16 10.38 13.13 10.36 13.06L10.35 12.99C10.35 12.99 10.35 12.82 10.49 12.82L11.71 12.11L11.6 11.99C11.25 11.62 9.98 10.5 7.5 10.5C6 10.5 4.47 10.98 2.91 11.94L0 10.5L0 10.75L1.5 12.75L0 14.75L0 15L2.91 13.69L3.27 13.88C4.54 14.51 8.86 16.31 11.85 13.34ZM8.4 12.19C8.4 11.88 8.65 11.63 8.96 11.63L9.04 11.63C9.35 11.63 9.6 11.88 9.6 12.19C9.6 12.5 9.35 12.75 9.04 12.75L8.96 12.75C8.65 12.75 8.4 12.5 8.4 12.19Z"/>
</svg>