<svg xmlns="http://www.w3.org/2000/svg" viewBox="0 0 15 15">
  <path fill="param(fill) #888" stroke="param(outline) #000" stroke-width="param(outline-width) 0" fill-opacity="param(fill-opacity) 1" stroke-opacity="param(outline-opacity) 1" d="M14.5 6.38L14.5 6.75C14.5 6.8 13.85 7.07 12.54 7.55C12.46 7.64 12.46 7.64 12.46 7.72C12.46 7.79 12.54 7.88 12.63 7.88L14.88 7.88L14.88 8.25C12.86 9.82 10.75 10.5 8.25 10.5C6.58 10.5 5 9.75 3.5 8.25L0 10.5L0 9.5L1.25 7.5L0 5.5L0 4.5L3.5 6.75C5 5.25 6.58 4.5 8.25 4.5C12.75 4.5 14.5 6.38 14.5 6.38ZM11.5 7.25C11.96 7.25 12.25 6.95 12.25 6.5C12.25 6.05 11.96 5.75 11.5 5.75C11.05 5.75 10.75 6.05 10.75 6.5C10.75 6.95 11.05 7.25 11.5 7.25Z"/>
</svg>