<?xml version="1.0" encoding="UTF-8"?>
<svg viewBox="0 0 15 15" version="1.1" xmlns="http://www.w3.org/2000/svg" xmlns:xlink="http://www.w3.org/1999/xlink">
  <path fill="param(fill) #888" stroke="param(outline) #000" stroke-width="param(outline-width) 0" fill-opacity="param(fill-opacity) 1" stroke-opacity="param(outline-opacity) 1" d="M15 0L15 5.36C15 7.13 13.56 8.57 11.79 8.57C10.01 8.57 8.57 7.13 8.57 5.36L8.57 3.21L10.71 5.36L9.64 5.36C9.64 6.54 10.6 7.5 11.79 7.5C12.97 7.5 13.93 6.54 13.93 5.36L13.93 0L15 0ZM9.11 9.64C11.63 9.64 14.16 10.98 15 12.32C14.16 13.66 11.63 15 9.11 15C6.58 15 4.06 13.66 3.21 12.32C4.06 10.98 6.58 9.64 9.11 9.64ZM3.21 12.32L0 15L0 9.64L3.21 12.32ZM11.79 10.71C11.19 10.71 10.71 11.19 10.71 11.79C10.71 12.38 11.19 12.86 11.79 12.86C12.38 12.86 12.86 12.38 12.86 11.79C12.86 11.19 12.38 10.71 11.79 10.71Z"/>
</svg>