<svg xmlns="http://www.w3.org/2000/svg" viewBox="0 0 15 15">
  <path fill="param(fill) #888" stroke="param(outline) #000" stroke-width="param(outline-width) 0" fill-opacity="param(fill-opacity) 1" stroke-opacity="param(outline-opacity) 1" d="M12 1C12.67 2.33 13.42 3 14.25 3C14.51 3 14.76 2.94 15 2.81L15 4.36C14.76 4.45 14.51 4.5 14.25 4.5C13.42 4.5 12.67 4 12 3C11.33 4 10.58 4.5 9.75 4.5C8.92 4.5 8.17 4 7.5 3C6.83 4 6.08 4.5 5.25 4.5C4.42 4.5 3.67 4 3 3C2.33 4 1.58 4.5 0.75 4.5C0.49 4.5 0.24 4.45 0 4.36L0 2.81C0.24 2.94 0.49 3 0.75 3C1.58 3 2.33 2.33 3 1C3.67 2.33 4.42 3 5.25 3C6.08 3 6.83 2.33 7.5 1C8.17 2.33 8.92 3 9.75 3C10.58 3 11.33 2.33 12 1ZM14.5 8.38L14.5 8.75C14.5 8.8 13.85 9.07 12.54 9.55C12.46 9.64 12.46 9.64 12.46 9.72C12.46 9.79 12.54 9.88 12.63 9.88L14.88 9.88L14.88 10.25C12.86 11.82 10.75 12.5 8.25 12.5C6.58 12.5 5 11.75 3.5 10.25L0 12.5L0 11.5L1.25 9.5L0 7.5L0 6.5L3.5 8.75C5 7.25 6.58 6.5 8.25 6.5C12.75 6.5 14.5 8.38 14.5 8.38ZM11.5 9.25C11.96 9.25 12.25 8.95 12.25 8.5C12.25 8.05 11.96 7.75 11.5 7.75C11.05 7.75 10.75 8.05 10.75 8.5C10.75 8.95 11.05 9.25 11.5 9.25Z"/>
</svg>