<svg xmlns="http://www.w3.org/2000/svg" viewBox="0 0 15 15">
  <path fill="param(fill) #888" stroke="param(outline) #000" stroke-width="param(outline-width) 0" fill-opacity="param(fill-opacity) 1" stroke-opacity="param(outline-opacity) 1" d="M14.5 9.38L14.5 9.75C14.5 9.8 13.85 10.07 12.54 10.55C12.46 10.64 12.46 10.64 12.46 10.72C12.46 10.79 12.54 10.88 12.63 10.88L14.88 10.88L14.88 11.25C12.86 12.82 10.75 13.5 8.25 13.5C6.58 13.5 5 12.75 3.5 11.25L0 13.5L0 12.5L1.25 10.5L0 8.5L0 7.5L3.5 9.75C5 8.25 6.58 7.5 8.25 7.5C12.75 7.5 14.5 9.38 14.5 9.38ZM11.5 10.25C11.96 10.25 12.25 9.95 12.25 9.5C12.25 9.05 11.96 8.75 11.5 8.75C11.05 8.75 10.75 9.05 10.75 9.5C10.75 9.95 11.05 10.25 11.5 10.25ZM2 1L13 1L13 2L2 2L2 1ZM2 3L13 3L13 4L2 4L2 3ZM2 5L10 5L10 6L2 6L2 5Z"/>
</svg>