<svg xmlns="http://www.w3.org/2000/svg" viewBox="0 0 15 15">
  <path fill="param(fill) #888" stroke="param(outline) #000" stroke-width="param(outline-width) 0" fill-opacity="param(fill-opacity) 1" stroke-opacity="param(outline-opacity) 1" d="M11.75 1L11.75 6.28C12.32 6.39 12.75 6.9 12.75 7.5C12.75 8.01 12.44 8.45 12 8.65L12 13C12 13.55 12.45 14 13 14C13.55 14 14 13.55 14 13L14 12.5L13 12.5L15 10L15 13C15 14.1 14.1 15 13 15C11.9 15 11 14.1 11 13L11 8.65C10.56 8.45 10.25 8.01 10.25 7.5C10.25 6.9 10.68 6.39 11.25 6.27L11.25 1L11.75 1ZM11.5 7C11.22 7 11 7.22 11 7.5C11 7.78 11.22 8 11.5 8C11.78 8 12 7.78 12 7.5C12 7.22 11.78 7 11.5 7ZM0 7C6.36 7.17 9 9.5 9 9.5L9 10C9 10.07 8.13 10.42 6.39 11.07C6.28 11.18 6.28 11.18 6.28 11.29C6.28 11.39 6.39 11.5 6.5 11.5L9.5 11.5L9.5 12C6.81 14.09 4.36 14.9 0 15L0 7ZM5 9C4.4 9 4 9.4 4 10C4 10.6 4.4 11 5 11C5.61 11 6 10.6 6 10C6 9.4 5.61 9 5 9ZM10 1L10 3L0 3L0 1L10 1ZM15 1L15 3L13 3L13 1L15 1Z"/>
</svg>