<svg xmlns="http://www.w3.org/2000/svg" viewBox="0 0 15 15">
  <path fill="param(fill) #888" stroke="param(outline) #000" stroke-width="param(outline-width) 0" fill-opacity="param(fill-opacity) 1" stroke-opacity="param(outline-opacity) 1" d="M11.5 0.25L11.63 0.26C12.26 0.32 12.75 0.85 12.75 1.5C12.75 2.01 12.44 2.45 12 2.65L12 6C12 6.55 12.45 7 13 7C13.55 7 14 6.55 14 6L14 5.5L13 5.5L15 3L15 6C15 7.1 14.1 8 13 8C11.9 8 11 7.1 11 6L11 2.65C10.56 2.45 10.25 2.01 10.25 1.5C10.25 0.81 10.81 0.25 11.5 0.25ZM11.5 1C11.22 1 11 1.22 11 1.5C11 1.78 11.22 2 11.5 2C11.78 2 12 1.78 12 1.5C12 1.22 11.78 1 11.5 1ZM14.75 10.38L14.75 10.75C14.75 10.8 14.1 11.07 12.79 11.55C12.71 11.64 12.71 11.64 12.71 11.72C12.71 11.79 12.79 11.88 12.88 11.88L15.13 11.88L15.13 12.25C13.11 13.82 11 14.5 8.5 14.5C6.83 14.5 5.17 13.75 3.5 12.25L0 14.5L0 13.5L1.25 11.5L0 9.5L0 8.5L3.5 10.75C5.17 9.25 6.83 8.5 8.5 8.5C13 8.5 14.75 10.38 14.75 10.38ZM11.5 11.25C11.96 11.25 12.25 10.95 12.25 10.5C12.25 10.05 11.96 9.75 11.5 9.75C11.05 9.75 10.75 10.05 10.75 10.5C10.75 10.95 11.05 11.25 11.5 11.25Z"/>
</svg>