<svg xmlns="http://www.w3.org/2000/svg" viewBox="0 0 15 15">
  <path fill="param(fill) #888" stroke="param(outline) #000" stroke-width="param(outline-width) 0" fill-opacity="param(fill-opacity) 1" stroke-opacity="param(outline-opacity) 1" d="M12.18 1.41L12.18 1.69C12.18 1.73 11.64 1.93 10.54 2.29C10.47 2.35 10.47 2.35 10.47 2.41C10.47 2.47 10.54 2.53 10.61 2.53L12.5 2.53L12.5 2.81C10.8 3.99 9.03 4.5 6.93 4.5C5.53 4.5 4.2 3.94 2.94 2.81L0 4.5L0 3.75L1.05 2.25L0 0.75L0 0L2.94 1.69C4.2 0.56 5.53 0 6.93 0C10.71 0 12.18 1.41 12.18 1.41ZM9.5 2.1C9.86 2.1 10.1 1.86 10.1 1.5C10.1 1.14 9.86 0.9 9.5 0.9C9.14 0.9 8.9 1.14 8.9 1.5C8.9 1.86 9.14 2.1 9.5 2.1ZM14.68 6.66L14.68 6.94C14.68 6.98 14.14 7.18 13.04 7.54C12.97 7.6 12.97 7.6 12.97 7.66C12.97 7.72 13.04 7.78 13.11 7.78L15 7.78L15 8.06C13.3 9.24 11.53 9.75 9.43 9.75C8.03 9.75 6.7 9.19 5.44 8.06L2.5 9.75L2.5 9L3.55 7.5L2.5 6L2.5 5.25L5.44 6.94C6.7 5.81 8.03 5.25 9.43 5.25C13.21 5.25 14.68 6.66 14.68 6.66ZM12 7.35C12.36 7.35 12.6 7.11 12.6 6.75C12.6 6.39 12.36 6.15 12 6.15C11.64 6.15 11.4 6.39 11.4 6.75C11.4 7.11 11.64 7.35 12 7.35ZM12.18 11.91L12.18 12.19C12.18 12.23 11.64 12.43 10.54 12.79C10.47 12.85 10.47 12.85 10.47 12.91C10.47 12.97 10.54 13.03 10.61 13.03L12.5 13.03L12.5 13.31C10.8 14.49 9.03 15 6.93 15C5.53 15 4.2 14.44 2.94 13.31L0 15L0 14.25L1.05 12.75L0 11.25L0 10.5L2.94 12.19C4.2 11.06 5.53 10.5 6.93 10.5C10.71 10.5 12.18 11.91 12.18 11.91ZM9.5 12.6C9.86 12.6 10.1 12.36 10.1 12C10.1 11.64 9.86 11.4 9.5 11.4C9.14 11.4 8.9 11.64 8.9 12C8.9 12.36 9.14 12.6 9.5 12.6Z"/>
</svg>