<?xml version="1.0" encoding="UTF-8"?>
<svg viewBox="0 0 15 15" version="1.1" xmlns="http://www.w3.org/2000/svg" xmlns:xlink="http://www.w3.org/1999/xlink">
  <path fill="param(fill) #888" stroke="param(outline) #000" stroke-width="param(outline-width) 0" fill-opacity="param(fill-opacity) 1" stroke-opacity="param(outline-opacity) 1" d="M8.57 3.21C11.79 3.21 15 5.36 15 7.5C15 9.64 11.79 11.79 8.57 11.79C6.17 11.76 3.21 9.64 3.21 7.5C3.21 5.36 6.43 3.21 8.57 3.21ZM3.21 7.5C3.21 9.64 1.46 11.01 0 11.79C0 9.64 0.71 8.93 1.07 7.5C0.71 6.07 0 5.36 0 3.21C1.32 3.93 3.21 5.36 3.21 7.5ZM11.8 5.36C11.22 5.35 10.73 5.81 10.71 6.4L10.71 6.43C10.71 7.02 11.19 7.5 11.78 7.5C12.37 7.5 12.85 7.03 12.86 6.44C12.86 5.89 12.45 5.43 11.92 5.37L11.8 5.36Z"/>
</svg>