<svg xmlns="http://www.w3.org/2000/svg" viewBox="0 0 15 15">
  <path fill="param(fill) #888" stroke="param(outline) #000" stroke-width="param(outline-width) 0" fill-opacity="param(fill-opacity) 1" stroke-opacity="param(outline-opacity) 1" d="M9 9.5L9 10C9 10.07 8.13 10.42 6.39 11.07C6.28 11.18 6.28 11.18 6.28 11.29C6.28 11.39 6.39 11.5 6.5 11.5L9.5 11.5L9.5 12C6.81 14.09 4.36 14.9 0 15C0 12 0 8.5 0 7C6.36 7.17 9 9.5 9 9.5ZM5 11C5.61 11 6 10.6 6 10C6 9.4 5.61 9 5 9C4.4 9 4 9.4 4 10C4 10.6 4.4 11 5 11ZM2 0L13 0L13 1L2 1L2 0ZM2 2L13 2L13 3L2 3L2 2ZM2 4L10 4L10 5L2 5L2 4ZM11.5 6.25C12.19 6.25 12.75 6.81 12.75 7.5C12.75 8.01 12.44 8.45 12 8.65L12 13C12 13.55 12.45 14 13 14C13.55 14 14 13.55 14 13L14 12.5L13 12.5L15 10L15 13C15 14.1 14.1 15 13 15C11.9 15 11 14.1 11 13L11 8.65C10.56 8.45 10.25 8.01 10.25 7.5C10.25 6.81 10.81 6.25 11.5 6.25ZM11.5 7C11.22 7 11 7.22 11 7.5C11 7.78 11.22 8 11.5 8C11.78 8 12 7.78 12 7.5C12 7.22 11.78 7 11.5 7Z"/>
</svg>