<svg xmlns="http://www.w3.org/2000/svg" viewBox="0 0 15 15">
  <path fill="param(fill) #888" stroke="param(outline) #000" stroke-width="param(outline-width) 0" fill-opacity="param(fill-opacity) 1" stroke-opacity="param(outline-opacity) 1" d="M14.21 5.41L14.21 6.19C14.21 6.29 12.84 6.85 10.09 7.86C9.92 8.03 9.92 8.03 9.92 8.2C9.92 8.36 10.09 8.53 10.26 8.53L15 8.53L15 9.31C10.75 12.59 6.89 13.84 0 14C0 9.31 0 3.84 0 1.5C10.04 1.77 14.21 5.41 14.21 5.41ZM7.89 7.82C8.85 7.82 9.47 7.18 9.47 6.24C9.47 5.29 8.85 4.66 7.89 4.66C6.95 4.66 6.32 5.29 6.32 6.24C6.32 7.18 6.95 7.82 7.89 7.82Z"/>
</svg>