<?xml version="1.0" encoding="UTF-8"?>
<svg viewBox="0 0 15 15" version="1.1" xmlns="http://www.w3.org/2000/svg" xmlns:xlink="http://www.w3.org/1999/xlink">
  <path fill="param(fill) #888" stroke="param(outline) #000" stroke-width="param(outline-width) 0" fill-opacity="param(fill-opacity) 1" stroke-opacity="param(outline-opacity) 1" d="M11.46 0L11.46 3.32C11.68 3.43 11.89 3.64 11.89 3.86C11.89 4.07 11.68 4.39 11.46 4.39L11.46 8.04C11.46 8.57 11.79 9 12.32 9C12.75 9 13.18 8.57 13.18 8.14C13.18 8.06 13.18 7.97 13.12 7.89L13.07 7.82L12.75 8.14L12.96 6.43L13.39 7.61C13.61 7.93 13.61 8.14 13.61 8.14C13.61 8.79 13.07 9.43 12.32 9.43C11.68 9.43 11.04 8.89 11.04 8.14L11.04 4.39C10.82 4.39 10.71 4.07 10.71 3.86C10.71 3.64 10.93 3.32 11.14 3.32L11.14 0L11.46 0ZM15 0L15 2.14L12.86 2.14L12.86 0L15 0ZM9.64 0L0 0L0 2.14L9.64 2.14L9.64 0ZM9.86 9.75L9.86 9.86C9.86 9.96 9.86 9.96 9.75 9.96L7.18 11.14C7.07 11.25 7.07 11.25 7.07 11.36C7.07 11.46 7.18 11.57 7.29 11.57L10.07 11.57C10.16 11.57 10.18 11.57 10.18 11.63L10.18 11.79C7.29 14.04 3.43 15 -0.11 15L-0.11 7.07C6.64 6.96 9.86 9.75 9.86 9.75ZM5.89 11.25C6.54 11.25 6.96 10.82 6.96 10.18C6.96 9.54 6.54 9.11 5.89 9.11C5.25 9.11 4.82 9.54 4.82 10.18C4.82 10.82 5.25 11.25 5.89 11.25Z"/>
</svg>