<svg xmlns="http://www.w3.org/2000/svg" viewBox="0 0 15 15">
  <path fill="param(fill) #888" stroke="param(outline) #000" stroke-width="param(outline-width) 0" fill-opacity="param(fill-opacity) 1" stroke-opacity="param(outline-opacity) 1" d="M10.5 0L10.5 2L6.5 2L6.5 3.33L7.83 3.33C9.62 3.33 11.08 4.75 11.16 6.52L11.16 6.67C11.16 8.51 9.67 10 7.83 10L7.29 10C5.8 10 4.45 9.09 3.9 7.7L5.76 6.96C6.01 7.59 6.61 8 7.29 8L7.83 8C8.56 8 9.16 7.4 9.16 6.67C9.16 5.93 8.56 5.33 7.83 5.33L4.5 5.33L4.5 0L10.5 0ZM12 11C12.67 12.33 13.42 13 14.25 13C14.51 13 14.76 12.94 15 12.81L15 14.86C14.76 14.95 14.51 15 14.25 15C13.42 15 12.67 14.5 12 13.5C11.33 14.5 10.58 15 9.75 15C8.92 15 8.17 14.5 7.5 13.5C6.83 14.5 6.08 15 5.25 15C4.42 15 3.67 14.5 3 13.5C2.33 14.5 1.58 15 0.75 15C0.49 15 0.24 14.95 0 14.86L0 12.81C0.24 12.94 0.49 13 0.75 13C1.58 13 2.33 12.33 3 11C3.67 12.33 4.42 13 5.25 13C6.08 13 6.83 12.33 7.5 11C8.17 12.33 8.92 13 9.75 13C10.58 13 11.33 12.33 12 11Z"/>
</svg>