<svg xmlns="http://www.w3.org/2000/svg" viewBox="0 0 15 15">
  <path fill="param(fill) #888" stroke="param(outline) #000" stroke-width="param(outline-width) 0" fill-opacity="param(fill-opacity) 1" stroke-opacity="param(outline-opacity) 1" d="M7.34 2L7.34 4L3.34 4L3.34 5.33L4.67 5.33C6.46 5.33 7.92 6.75 8 8.52L8 8.67C8 10.51 6.51 12 4.67 12L4.13 12C2.64 12 1.29 11.09 0.74 9.7L2.6 8.96C2.85 9.59 3.45 10 4.13 10L4.67 10C5.4 10 6 9.4 6 8.67C6 7.93 5.4 7.33 4.67 7.33L1.34 7.33L1.34 2L7.34 2ZM13 4L13 6L15 6L15 8L13 8L13 10L11 10L11 8L9 8L9 6L11 6L11 4L13 4Z"/>
</svg>