<svg xmlns="http://www.w3.org/2000/svg" viewBox="0 0 15 15">
  <path fill="param(fill) #888" stroke="param(outline) #000" stroke-width="param(outline-width) 0" fill-opacity="param(fill-opacity) 1" stroke-opacity="param(outline-opacity) 1" d="M7.34 0L7.34 2L3.34 2L3.34 3.33L4.67 3.33C6.46 3.33 7.92 4.75 8 6.52L8 6.67C8 8.51 6.51 10 4.67 10L4.13 10C2.64 10 1.29 9.09 0.74 7.7L2.6 6.96C2.85 7.59 3.45 8 4.13 8L4.67 8C5.4 8 6 7.4 6 6.67C6 5.93 5.4 5.33 4.67 5.33L1.34 5.33L1.34 0L7.34 0ZM12 11C12.67 12.33 13.42 13 14.25 13C14.51 13 14.76 12.94 15 12.81L15 14.86C14.76 14.95 14.51 15 14.25 15C13.42 15 12.67 14.5 12 13.5C11.33 14.5 10.58 15 9.75 15C8.92 15 8.17 14.5 7.5 13.5C6.83 14.5 6.08 15 5.25 15C4.42 15 3.67 14.5 3 13.5C2.33 14.5 1.58 15 0.75 15C0.49 15 0.24 14.95 0 14.86L0 12.81C0.24 12.94 0.49 13 0.75 13C1.58 13 2.33 12.33 3 11C3.67 12.33 4.42 13 5.25 13C6.08 13 6.83 12.33 7.5 11C8.17 12.33 8.92 13 9.75 13C10.58 13 11.33 12.33 12 11ZM9 4H14.5V6H9V4z"/>
</svg>