<svg xmlns="http://www.w3.org/2000/svg" viewBox="0 0 15 15">
  <path fill="param(fill) #888" stroke="param(outline) #000" stroke-width="param(outline-width) 0" fill-opacity="param(fill-opacity) 1" stroke-opacity="param(outline-opacity) 1" d="M8.5 9.72L8.5 13L7.5 15L6.5 13L6.5 9.72C6.83 9.74 7.16 9.75 7.5 9.75C7.84 9.75 8.17 9.74 8.5 9.72ZM13.61 7.32L13.55 7.37L13.36 7.5C13.3 7.54 13.25 7.57 13.19 7.61C13.07 7.68 12.95 7.75 12.83 7.82L12.54 7.96C12.44 8.01 12.34 8.06 12.23 8.1C12.01 8.2 11.78 8.29 11.53 8.37L11.2 8.48L10.88 8.57L10.55 8.66L10.27 8.72L9.88 8.79L9.53 8.85L9.22 8.89L8.77 8.94L8.54 8.96C8.2 8.99 7.85 9 7.5 9C7.16 9 6.83 8.99 6.5 8.96L6.05 8.93L5.62 8.87L5.21 8.81L4.84 8.74L4.6 8.69L4.39 8.64L4.08 8.56C3.82 8.49 3.57 8.41 3.33 8.33L3.08 8.23C2.94 8.18 2.79 8.12 2.66 8.05C2.53 8 2.41 7.94 2.29 7.88L2.1 7.78L1.84 7.62L1.55 7.43L1.31 7.26L1.18 7.15L0.98 6.98L0.89 6.89C0.85 6.85 0.82 6.82 0.78 6.78C0.7 6.69 0.63 6.61 0.56 6.52L0.46 6.38L0.33 6.19L0.26 6.04L0.19 5.89L0.16 5.82L0.13 5.75C0.1 5.67 0.08 5.59 0.06 5.52C0.05 5.46 0.04 5.4 0.03 5.35L0.01 5.22L0.01 5.15L0 5L0 4L0.01 3.85C0.15 1.71 3.45 0 7.5 0C11.64 0 15 1.79 15 4L15 5C15 5.07 15 5.15 14.99 5.22L14.97 5.35C14.96 5.4 14.95 5.46 14.94 5.52L14.89 5.67L14.84 5.82L14.79 5.95L14.72 6.09L14.64 6.22L14.59 6.31L14.5 6.44C14.43 6.54 14.36 6.63 14.28 6.72L14.11 6.89C14.02 6.98 13.93 7.06 13.83 7.15L13.61 7.32ZM13.22 5.99L13.16 6C11.27 6.67 9.39 7 7.5 7C5.61 7 3.73 6.67 1.84 6C1.73 5.96 1.6 6.01 1.54 6.12C1.47 6.24 1.52 6.39 1.64 6.46C3.6 7.49 5.55 8 7.5 8C9.45 8 11.4 7.49 13.36 6.46C13.47 6.4 13.52 6.27 13.48 6.15C13.44 6.05 13.33 5.98 13.22 5.99L13.22 5.99Z"/>
</svg>