<svg xmlns="http://www.w3.org/2000/svg" viewBox="0 0 15 15">
  <path fill="param(fill) #888" stroke="param(outline) #000" stroke-width="param(outline-width) 0" fill-opacity="param(fill-opacity) 1" stroke-opacity="param(outline-opacity) 1" d="M4.69 4.09C4.16 4.31 3.38 6.21 3.04 6.59C2.41 7.17 1.74 7.26 0.84 7.33C-0.7 8.75 0.16 8.68 1.21 8.51L1.83 8.4C2.15 8.36 2.42 8.29 2.67 8.21L2.26 8.77C1.3 10.11 0.45 11.66 0.86 13.7C1.14 15.27 5 15.49 4.64 13.95C4.41 12.83 4.35 11.81 4.45 10.93C4.82 10.91 5.16 10.88 5.43 10.79C5.82 10.67 6.13 10.46 6.36 10.17C6.65 9.81 6.81 9.37 6.96 8.81L7.25 7.74C7.26 7.72 7.26 7.7 7.26 7.67L10.17 6.01C10.87 5.61 10.9 4.89 10.59 4.38L15 1.85L14.03 0.18C13.65 -0.52 12.44 1.08 12.44 1.08L4.99 5.36L5.07 4.95C5.11 4.7 5.13 4.54 5.13 4.54C5.02 4.12 4.87 4.01 4.69 4.09ZM5.12 8.9L6.31 8.22L6.18 8.65C6.04 9.13 5.91 9.49 5.75 9.69C5.61 9.86 5.46 9.97 5.2 10.05C5.04 10.1 4.83 10.13 4.59 10.15C4.71 9.67 4.89 9.25 5.12 8.9Z"/>
</svg>