<svg xmlns="http://www.w3.org/2000/svg" viewBox="0 0 15 15">
  <path fill="param(fill) #888" stroke="param(outline) #000" stroke-width="param(outline-width) 0" fill-opacity="param(fill-opacity) 1" stroke-opacity="param(outline-opacity) 1" d="M14.5 14L14.5 14.5L12 15L11 15L14.5 14ZM4.97 1L5.56 1.75L10.25 1.75L10.5 2.5L11 2.5L11 1L12.5 1.5L12.5 3.61L14.12 6.48L13.74 6.86L15 10.02L14.5 14L13 14L12.72 12.88L11.63 12.38L11.12 11.32L10.62 10.52L9.73 8.88L10.28 7.83L9.73 7.83L9.35 8.33L9.35 7.24L10 6L9.5 5L9 5L7.25 3.25L6.75 3.25L4.68 4.12L3.54 2.94L2.02 2.5L0 2.5L0.5 1.75L0 1L4.97 1Z"/>
</svg>