<svg xmlns="http://www.w3.org/2000/svg" viewBox="0 0 15 15">
  <path fill="param(fill) #888" stroke="param(outline) #000" stroke-width="param(outline-width) 0" fill-opacity="param(fill-opacity) 1" stroke-opacity="param(outline-opacity) 1" d="M2.81 7.19L0.06 9.94C0 10.01 -0.02 10.1 0.02 10.18C0.05 10.25 0.13 10.31 0.21 10.31L3.61 10.31C4.48 11.61 5.94 12.39 7.5 12.39C9.06 12.39 10.52 11.61 11.39 10.31L14.79 10.31C14.87 10.31 14.95 10.25 14.98 10.18C15.02 10.1 15 10.01 14.94 9.94L12.19 7.19C12.19 4.6 10.09 2.5 7.5 2.5C4.91 2.5 2.81 4.6 2.81 7.19ZM7.5 3.6C9.43 3.6 11 5.07 11 7L10.96 7L4.04 7L4 7C4 5.07 5.57 3.6 7.5 3.6ZM3.5 8C3.78 8 4 8.22 4 8.5C4 8.78 3.78 9 3.5 9C3.22 9 3 8.78 3 8.5C3 8.22 3.22 8 3.5 8ZM7.5 8C7.78 8 8 8.22 8 8.5C8 8.78 7.78 9 7.5 9C7.22 9 7 8.78 7 8.5C7 8.22 7.22 8 7.5 8ZM11.5 8C11.78 8 12 8.22 12 8.5C12 8.78 11.78 9 11.5 9C11.22 9 11 8.78 11 8.5C11 8.22 11.22 8 11.5 8ZM5.05 10.1L5.7 10.1L9.3 10.1L9.95 10.1C9.3 10.74 8.42 11.1 7.5 11.1C6.58 11.1 5.7 10.74 5.05 10.1L5.05 10.1Z"/>
</svg>