<svg xmlns="http://www.w3.org/2000/svg" viewBox="0 0 15 15">
  <path fill="param(fill) #888" stroke="param(outline) #000" stroke-width="param(outline-width) 0" fill-opacity="param(fill-opacity) 1" stroke-opacity="param(outline-opacity) 1" d="M3.5 0l-0.5 5.5c-0.15 0.81 1.78 1.18 1.75 2l-0.25 6.5c-0.04 1 1 1 1 1s1.04 0 1 -1l-0.25 -6.5c-0.03 -0.82 1.73 -1.18 1.75 -2l-0.5 -5.5h-0.5l-0.25 4l-0.75 0.5l-0.25 -4.5h-0.5l-0.25 4.5l-0.75 -0.5l-0.25 -4zm8.5 0c-0.74 0 -1.96 0.65 -2.46 1.64c-0.4 0.73 -0.54 2.38 -0.54 3.36v2.5c0 0.82 1.09 1 1.5 1l-0.5 5.5c-0.09 1 1 1 1 1s1 0 1 -1z"/>
</svg>