<svg xmlns="http://www.w3.org/2000/svg" viewBox="0 0 15 15">
  <path fill="param(fill) #888" stroke="param(outline) #000" stroke-width="param(outline-width) 0" fill-opacity="param(fill-opacity) 1" stroke-opacity="param(outline-opacity) 1" d="M12.52 12.5h2.48l-2.5 2.5v-2.48c-0.3 0.3 -0.71 0.48 -1.14 0.48c-0.36 0 -0.71 -0.12 -0.99 -0.34c-3.17 -2.71 -3.17 -7.62 0.01 -10.32c0.64 -0.49 1.54 -0.44 2.12 0.12v-2.46l2.5 2.5h-2.46c0.04 0.04 0.08 0.08 0.12 0.13c0.55 0.71 0.42 1.73 -0.29 2.28c-0.72 0.67 -1.12 1.61 -1.12 2.59c0 1 0.42 1.95 1.15 2.62c0.68 0.57 0.79 1.58 0.23 2.28c-0.04 0.03 -0.08 0.06 -0.11 0.1zm-11.02 -12.5l-0.5 5.5c-0.15 0.81 1.78 1.18 1.75 2l-0.25 6.5c-0.02 0.56 0.44 1.02 1 1c0.56 0.02 1.02 -0.44 1 -1l-0.25 -6.5c-0.03 -0.82 1.73 -1.18 1.75 -2l-0.5 -5.5h-0.5l-0.25 4l-0.75 0.5l-0.25 -4.5h-0.5l-0.25 4.5l-0.75 -0.5l-0.25 -4z"/>
</svg>