<svg xmlns="http://www.w3.org/2000/svg" viewBox="0 0 15 15">
  <path fill="param(fill) #888" stroke="param(outline) #000" stroke-width="param(outline-width) 0" fill-opacity="param(fill-opacity) 1" stroke-opacity="param(outline-opacity) 1" d="M10.49 0C11.35 -0.01 12.78 1.78 12.99 3.71C13.19 5.64 11.23 6.45 11.25 7.12L11.5 14C11.51 14.25 11.43 14.56 11.24 14.73C11.04 14.92 10.79 15.01 10.51 15C10.25 15.01 9.99 14.91 9.81 14.73C9.62 14.56 9.49 14.25 9.5 14L9.76 7.12C9.79 6.34 7.85 5.33 8.01 3.7C8.19 2.07 9.63 -0.01 10.49 0ZM10.61 1.19C10.87 2.37 11.02 3.25 11.02 3.84C11.02 4.43 10.88 5.19 10.62 6.11C11.42 5.74 11.81 4.98 11.81 3.84C11.81 2.7 11.41 1.82 10.61 1.19ZM3.5 0L2.99 0.01L2 5.5C2.02 6.32 3.78 6.68 3.76 7.5L3.5 14C3.49 14.27 3.59 14.53 3.78 14.72C3.97 14.91 4.23 15.01 4.49 15C4.76 15.01 5.02 14.91 5.21 14.72C5.4 14.53 5.51 14.27 5.5 14L5.24 7.5C5.21 6.68 7.14 6.31 6.99 5.5L5.99 0.01L5.5 0L5.75 4L4.99 4.5L4.74 0.01L4.25 0.01L4 4.5L3.25 4L3.5 0Z"/>
</svg>