<svg xmlns="http://www.w3.org/2000/svg" viewBox="0 0 15 15">
  <path fill="param(fill) #888" stroke="param(outline) #000" stroke-width="param(outline-width) 0" fill-opacity="param(fill-opacity) 1" stroke-opacity="param(outline-opacity) 1" d="M7.86 6.05C8.48 5.47 7.46 3.91 8.04 3.29L12.8 0L13.17 0.36L10.05 3.11L10.24 4.03L13.72 0.92L14.08 1.28L10.97 4.76L11.89 4.95L14.64 1.83L15 2.2L11.71 6.96C11.22 7.66 9.53 6.52 8.95 7.14L1.79 14.68C1.6 14.88 1.33 15 1.05 15C0.78 15 0.51 14.88 0.32 14.68C0.12 14.49 0 14.22 0 13.95C0 13.67 0.12 13.4 0.32 13.21L6.65 7.19L7.51 6.38L7.86 6.05ZM9.02 7.8L14.67 13.13C15.34 13.81 14.8 14.49 14.69 14.61L14.62 14.68C14.44 14.83 13.77 15.34 13.19 14.64L7.69 9.19L9.02 7.8ZM0.75 0L7.15 6.03L5.3 7.79C4.93 8 4.47 8.12 4.1 7.84L4 7.75L2.24 6.02C1.5 5.29 0.38 3.94 0.14 3.09C-0.23 1.96 0.19 0.55 0.75 0Z"/>
</svg>