<svg xmlns="http://www.w3.org/2000/svg" viewBox="0 0 15 15">
  <path fill="param(fill) #888" stroke="param(outline) #000" stroke-width="param(outline-width) 0" fill-opacity="param(fill-opacity) 1" stroke-opacity="param(outline-opacity) 1" d="M3.75 0.5C1.5 0.5 0.75 2.5 0.75 5C0.75 6.94 1.69 7 1.75 5.17L1.75 5C1.75 2.5 2.75 1.5 3.75 1.5C5.5 1.5 6.5 4.75 6.5 6L6.46 5.97C6.36 5.9 6.08 5.75 5.5 5.75C4.25 5.75 3.5 6.75 3.5 8.5C3.5 9.7 4.19 9.75 4.25 8.64L4.25 8.5C4.25 7.25 5 6.75 5.5 6.75L5.62 6.76C6.09 6.8 6.71 7.12 6.97 8.78L7 9C7.26 10.86 7.67 10.97 7.92 9.34L7.97 9C8.25 7 8.75 6.75 9.5 6.75C10 6.75 10.5 7.25 10.5 8C10.5 9.5 11.25 9.5 11.25 8C11.25 6.25 10.25 5.75 9.5 5.75C8.75 5.75 8.5 6 8.5 6L8.56 5.63C8.86 3.95 9.6 2 11 2C12.45 2 13.2 3.86 13.25 5.57L13.25 5.75C13.25 7.5 14.25 7.5 14.25 5.75C14.25 2.5 12.75 1 11 1C8.75 1 7.75 3.5 7.5 5C7.25 3 6.25 0.5 3.75 0.5ZM6.3 13.56L6.61 13.31C6.86 13.11 7.18 13 7.5 13C7.82 13 8.14 13.11 8.39 13.31L8.7 13.56C9.06 13.84 9.5 14 9.95 14L10.05 14C10.5 14 10.94 13.84 11.3 13.56L11.61 13.31C11.86 13.11 12.18 13 12.5 13C12.82 13 13.14 13.11 13.39 13.31L13.71 13.56C14.06 13.84 14.49 14 14.95 14L15 14L15 12.5L14.95 12.5C14.49 12.5 14.06 12.35 13.71 12.07L13.39 11.81C13.14 11.61 12.82 11.5 12.5 11.5C12.18 11.5 11.86 11.61 11.61 11.81L11.3 12.06C10.94 12.35 10.5 12.5 10.05 12.5L9.95 12.5C9.5 12.5 9.06 12.35 8.7 12.06L8.39 11.81C8.14 11.61 7.82 11.5 7.5 11.5C7.18 11.5 6.86 11.61 6.61 11.81L6.3 12.06C5.94 12.35 5.5 12.5 5.05 12.5L4.95 12.5C4.5 12.5 4.06 12.35 3.7 12.06L3.39 11.81C3.14 11.61 2.82 11.5 2.5 11.5C2.18 11.5 1.86 11.61 1.61 11.81L1.29 12.07C0.99 12.31 0.61 12.46 0.22 12.5L0 12.5L0 14L0.05 14C0.51 14 0.94 13.84 1.29 13.56L1.61 13.31C1.86 13.11 2.18 13 2.5 13C2.82 13 3.14 13.11 3.39 13.31L3.7 13.56C4.06 13.84 4.5 14 4.95 14L5.05 14C5.5 14 5.94 13.84 6.3 13.56Z"/>
</svg>