<svg xmlns="http://www.w3.org/2000/svg" viewBox="0 0 15 15">
  <path fill="param(fill) #888" stroke="param(outline) #000" stroke-width="param(outline-width) 0" fill-opacity="param(fill-opacity) 1" stroke-opacity="param(outline-opacity) 1" d="M7.49 0.13C6.7 0.62 6.23 1.37 5.95 2.23C5.66 3.13 5.57 4.13 5.51 4.97C5.44 6.01 5.23 6.75 5.07 7.26C4.99 7.51 4.92 7.71 4.89 7.85C4.86 7.99 4.87 8.05 4.88 8.07C4.88 8.07 4.96 8.15 5.12 8.2C5.29 8.26 5.52 8.31 5.78 8.34C6.31 8.41 6.96 8.44 7.5 8.44C8.04 8.44 8.69 8.41 9.22 8.34C9.48 8.31 9.71 8.26 9.88 8.2C10.04 8.15 10.12 8.07 10.12 8.07C10.13 8.05 10.14 7.99 10.11 7.85C10.08 7.71 10.01 7.51 9.93 7.26C9.77 6.75 9.56 6.01 9.49 4.97C9.43 4.14 9.29 3.13 8.97 2.21C8.66 1.35 8.19 0.59 7.49 0.13ZM8.97 1.07C9.15 1.38 9.3 1.71 9.42 2.05C9.77 3.03 9.91 4.08 9.97 4.93C10 5.34 10.05 5.7 10.11 6.01C10.9 5.53 11.56 4.79 12.12 3.78C11.15 2.86 10.11 1.95 8.97 1.07ZM5.87 1.19C4.8 2.03 3.8 2.91 2.88 3.78C3.44 4.79 4.1 5.53 4.89 6.01C4.95 5.7 5 5.34 5.03 4.93C5.09 4.09 5.18 3.05 5.5 2.08C5.6 1.77 5.72 1.48 5.87 1.19ZM6.29 6.18C6.33 6.2 6.37 6.21 6.41 6.23C6.63 6.32 6.66 6.34 6.84 6.42C6.88 6.47 6.92 6.52 6.95 6.58C7.03 6.71 7.07 6.86 7.07 7C6.96 6.84 6.76 6.75 6.57 6.75C6.51 6.75 6.45 6.77 6.4 6.79C6.29 6.84 6.22 6.93 6.2 7.03C6.18 7.14 6.21 7.26 6.29 7.36C6.35 7.44 6.43 7.51 6.53 7.55C6.3 7.53 6.08 7.38 5.95 7.15C5.86 6.99 5.82 6.8 5.84 6.63C5.87 6.45 5.96 6.32 6.09 6.24C6.15 6.2 6.22 6.18 6.29 6.18L6.29 6.18ZM8.72 6.18C8.79 6.19 8.85 6.21 8.91 6.24C9.04 6.32 9.13 6.45 9.16 6.63C9.18 6.8 9.14 6.99 9.05 7.15C8.92 7.38 8.7 7.53 8.48 7.55C8.57 7.51 8.65 7.44 8.71 7.36C8.79 7.26 8.82 7.14 8.8 7.03C8.78 6.93 8.71 6.84 8.6 6.79C8.55 6.77 8.49 6.75 8.43 6.75C8.24 6.75 8.04 6.84 7.93 7C7.93 6.86 7.97 6.71 8.05 6.58C8.08 6.52 8.11 6.47 8.15 6.43L8.72 6.18ZM1.19 6.97C0.71 6.98 0.37 7.28 0.21 7.55C0.04 7.84 0 8.12 0 8.12C-0.07 8.62 0.68 8.72 0.75 8.23C0.75 8.23 0.78 8.07 0.86 7.94C0.94 7.8 1.01 7.71 1.25 7.72C1.47 7.73 1.58 7.79 1.66 7.85C1.73 7.92 1.78 8.02 1.82 8.18C1.9 8.51 1.86 9.06 1.82 9.64C1.77 10.22 1.73 10.83 1.93 11.4C2.12 11.96 2.63 12.43 3.42 12.53C3.44 12.53 3.46 12.53 3.48 12.53C4.11 12.51 4.78 12.29 5 11.73C5.4 10.55 4.69 9.21 5.91 8.94C6.02 10.94 6.54 13.97 4.44 14.02C3.77 14.01 3.46 13.6 3.04 13.22C2.82 13.02 2.55 12.81 2.18 12.79C1.64 12.75 1.27 12.87 1.03 13.03C0.92 13.11 0.83 13.2 0.78 13.28C0.73 13.35 0.69 13.44 0.69 13.44C0.53 13.91 1.22 14.17 1.4 13.71C1.41 13.7 1.42 13.68 1.46 13.65C1.54 13.6 1.72 13.51 2.13 13.54C2.24 13.55 2.36 13.62 2.54 13.78C2.71 13.93 2.91 14.16 3.17 14.38C3.42 14.6 3.74 14.8 4.15 14.86C4.56 14.92 5.03 14.82 5.55 14.54C7.21 13.64 7.55 10.81 7.3 8.91C6.79 8.91 6.22 8.88 5.72 8.82C5.44 8.78 5.18 8.73 4.97 8.66C4.81 8.6 4.66 8.54 4.55 8.43C4.53 8.46 4.5 8.49 4.48 8.52C3.88 9.58 4.81 11.75 3.47 11.67C2.38 11.54 2.51 10.5 2.57 9.69C2.61 9.13 2.68 8.55 2.56 8.02C2.5 7.75 2.38 7.49 2.16 7.29C1.94 7.1 1.63 6.99 1.29 6.97C1.25 6.97 1.22 6.97 1.19 6.97ZM13.81 6.97C13.78 6.97 13.75 6.97 13.71 6.97C13.37 6.99 13.06 7.1 12.84 7.29C12.62 7.49 12.5 7.75 12.44 8.02C12.32 8.55 12.39 9.13 12.43 9.69C12.49 10.5 12.62 11.54 11.53 11.67C10.19 11.75 11.12 9.58 10.52 8.52C10.5 8.49 10.47 8.46 10.45 8.43C10.34 8.54 10.19 8.6 10.03 8.66C9.82 8.73 9.56 8.78 9.28 8.82C8.78 8.88 8.21 8.91 7.7 8.91C7.45 10.81 7.79 13.64 9.45 14.54C9.97 14.82 10.44 14.92 10.85 14.86C11.26 14.8 11.58 14.6 11.83 14.38C12.09 14.16 12.29 13.93 12.46 13.78C12.64 13.62 12.76 13.55 12.87 13.54C13.28 13.51 13.46 13.6 13.54 13.65C13.58 13.68 13.59 13.7 13.6 13.71C13.78 14.17 14.47 13.91 14.31 13.44C14.31 13.44 14.27 13.35 14.22 13.28C14.17 13.2 14.08 13.11 13.97 13.03C13.73 12.87 13.36 12.75 12.82 12.79C12.45 12.81 12.18 13.02 11.96 13.22C11.54 13.6 11.23 14.01 10.56 14.02C8.46 13.97 8.98 10.94 9.09 8.94C10.31 9.21 9.6 10.55 10 11.73C10.22 12.29 10.89 12.51 11.52 12.53C11.54 12.53 11.56 12.53 11.58 12.53C12.37 12.43 12.88 11.96 13.07 11.4C13.27 10.83 13.23 10.22 13.18 9.64C13.14 9.06 13.1 8.51 13.18 8.18C13.22 8.02 13.27 7.92 13.34 7.85C13.42 7.79 13.53 7.73 13.75 7.72C13.99 7.71 14.06 7.8 14.14 7.94C14.22 8.07 14.25 8.23 14.25 8.23C14.32 8.72 15.07 8.62 15 8.12C15 8.12 14.96 7.84 14.79 7.55C14.63 7.28 14.29 6.98 13.81 6.97Z"/>
</svg>