<svg xmlns="http://www.w3.org/2000/svg" viewBox="0 0 15 15">
  <path fill="param(fill) #888" stroke="param(outline) #000" stroke-width="param(outline-width) 0" fill-opacity="param(fill-opacity) 1" stroke-opacity="param(outline-opacity) 1" d="M7.5 0C5.36 0 3.63 1.73 3.63 3.87C3.63 5.19 4.32 6.84 5.35 7.89C5.23 7.89 5.12 7.89 5.01 7.89C4.65 7.88 4.35 7.89 4.17 7.91C3.7 8.14 3.13 8.93 3.04 9.29C2.64 10.76 3.12 12.26 2.01 12.58C1.06 12.84 1.12 13.78 1.95 13.81C1.95 13.81 3.3 13.91 3.9 12.77C4.38 11.85 4.38 11.61 4.69 10.58C4.84 10.25 4.85 9.85 5.31 9.81C5.33 10.93 5.39 12.57 4.65 13.87C4.19 14.55 4.8 15.36 5.44 14.83C5.44 14.83 5.78 14.54 6.12 14.03C6.84 12.93 7.27 11.75 7.5 10.43C7.73 11.75 8.16 12.93 8.88 14.03C9.22 14.54 9.56 14.83 9.56 14.83C10.2 15.36 10.81 14.55 10.35 13.87C9.61 12.57 9.67 10.93 9.69 9.81C10.15 9.85 10.16 10.25 10.31 10.58C10.62 11.61 10.62 11.85 11.1 12.77C11.7 13.91 13.05 13.81 13.05 13.81C13.88 13.78 13.94 12.84 12.99 12.58C11.88 12.26 12.36 10.76 11.96 9.29C11.87 8.93 11.3 8.14 10.83 7.91C10.61 7.89 10.19 7.88 9.71 7.89C10.72 6.84 11.37 5.19 11.37 3.87C11.37 1.73 9.64 0 7.5 0Z"/>
</svg>