<svg xmlns="http://www.w3.org/2000/svg" viewBox="0 0 15 15">
  <path fill="param(fill) #888" stroke="param(outline) #000" stroke-width="param(outline-width) 0" fill-opacity="param(fill-opacity) 1" stroke-opacity="param(outline-opacity) 1" d="M4.93 1.53C3.71 1.53 2.72 2.68 2.72 4.1C2.72 4.44 2.78 4.76 2.88 5.05C2.46 5.77 2.23 6.57 2.23 7.38C2.24 7.49 2.24 7.59 2.25 7.69C1.91 7.55 1.57 7.47 1.27 7.47C0.98 7.47 0.71 7.54 0.5 7.7C-0.36 8.31 -0.08 9.99 1.11 11.45C1.36 11.76 1.64 12.03 1.93 12.26C1.8 12.39 1.71 12.57 1.71 12.79C1.71 13.16 1.96 13.47 2.27 13.47C2.49 13.47 2.68 13.31 2.77 13.09C2.87 13.31 3.05 13.47 3.27 13.47C3.46 13.47 3.63 13.34 3.73 13.16C3.76 13.16 3.78 13.16 3.81 13.17C3.91 13.34 4.07 13.47 4.26 13.47C4.48 13.47 4.66 13.31 4.76 13.09C4.85 13.31 5.04 13.47 5.25 13.47C5.57 13.47 5.82 13.16 5.82 12.79C5.82 12.42 5.58 12.13 5.28 12.11C5.3 12.01 5.3 11.89 5.3 11.77C5.95 12.04 6.64 12.18 7.35 12.18C8.17 12.18 8.98 11.99 9.71 11.64C9.7 11.8 9.7 11.97 9.72 12.11C9.42 12.13 9.18 12.42 9.18 12.79C9.18 13.16 9.43 13.47 9.75 13.47C9.97 13.47 10.15 13.31 10.24 13.09C10.33 13.31 10.52 13.47 10.74 13.47C10.93 13.47 11.09 13.34 11.19 13.17C11.22 13.16 11.24 13.16 11.27 13.16C11.37 13.34 11.53 13.47 11.73 13.47C11.95 13.47 12.13 13.31 12.23 13.09C12.32 13.31 12.5 13.47 12.72 13.47C13.04 13.47 13.29 13.16 13.29 12.79C13.29 12.57 13.2 12.39 13.07 12.26C13.35 12.03 13.64 11.76 13.89 11.45C15.08 9.99 15.36 8.31 14.5 7.7C14.29 7.54 14.02 7.47 13.73 7.47C13.34 7.47 12.89 7.6 12.44 7.84C12.45 7.69 12.46 7.54 12.46 7.38C12.46 6.57 12.24 5.77 11.82 5.06C11.92 4.76 11.98 4.44 11.98 4.1C11.98 2.68 10.99 1.53 9.77 1.53C9.02 1.53 8.36 1.96 7.95 2.62C7.75 2.6 7.55 2.59 7.35 2.59C7.15 2.59 6.94 2.6 6.74 2.63C6.34 1.97 5.68 1.53 4.93 1.53ZM5.39 3.48C6.04 3.48 6.58 4.09 6.58 4.85C6.58 5.31 6.39 5.71 6.09 5.96C6.12 5.87 6.13 5.77 6.13 5.67C6.13 5.23 5.88 4.87 5.57 4.87C5.26 4.87 5.01 5.23 5.01 5.67C5.01 5.88 5.07 6.06 5.16 6.21C4.61 6.08 4.2 5.53 4.2 4.85C4.2 4.09 4.73 3.48 5.39 3.48ZM9.31 3.48C9.97 3.48 10.5 4.09 10.5 4.85C10.5 5.48 10.14 6.01 9.64 6.17C9.72 6.03 9.77 5.87 9.77 5.67C9.77 5.23 9.52 4.87 9.21 4.87C8.9 4.87 8.65 5.23 8.65 5.67C8.65 5.81 8.68 5.93 8.72 6.05C8.37 5.81 8.12 5.37 8.12 4.85C8.12 4.09 8.65 3.48 9.31 3.48ZM7.5 8.59C8.5 8.59 9.31 8.97 9.31 9.44C9.31 9.91 8.5 10.29 7.5 10.29C6.5 10.29 5.69 9.91 5.69 9.44C5.69 8.97 6.5 8.59 7.5 8.59Z"/>
</svg>