<svg xmlns="http://www.w3.org/2000/svg" viewBox="0 0 15 15">
  <path fill="param(fill) #888" stroke="param(outline) #000" stroke-width="param(outline-width) 0" fill-opacity="param(fill-opacity) 1" stroke-opacity="param(outline-opacity) 1" d="M15 7.5C15 11.64 11.64 15 7.5 15C3.93 15 0.94 12.5 0.18 9.16L4.6 6.84C4.74 6.9 4.9 6.94 5.06 6.94C5.61 6.94 6.07 6.54 6.17 6.02L13.02 2.42C14.25 3.76 15 5.54 15 7.5ZM7.5 7.5C6.75 7.5 6.11 7.81 5.62 8.17C5.12 8.54 4.71 8.99 4.42 9.36C4.09 9.77 4.19 10.27 4.43 10.56C4.67 10.84 5.13 11.02 5.59 10.8L6.34 10.42C6.67 10.26 6.88 10.19 7.04 10.16C7.19 10.13 7.31 10.13 7.5 10.13C7.69 10.13 7.81 10.13 7.96 10.16C8.12 10.19 8.33 10.26 8.66 10.42L9.41 10.8C9.87 11.02 10.33 10.84 10.57 10.56C10.81 10.27 10.91 9.77 10.58 9.36C10.29 8.99 9.88 8.54 9.38 8.17C8.89 7.81 8.25 7.5 7.5 7.5ZM11.81 1.36L0 7.56C0 7.54 0 7.52 0 7.5C0 7.03 0.04 6.58 0.12 6.14L10.57 0.66C11.01 0.85 11.42 1.09 11.81 1.36ZM9.94 4.69C9.32 4.69 8.81 5.19 8.81 5.81C8.81 6.43 9.32 6.94 9.94 6.94C10.56 6.94 11.06 6.43 11.06 5.81C11.06 5.19 10.56 4.69 9.94 4.69ZM7.5 0C7.83 0 8.16 0.02 8.48 0.06L0.83 4.08C2.07 1.66 4.59 0 7.5 0Z"/>
</svg>