<svg xmlns="http://www.w3.org/2000/svg" viewBox="0 0 15 15">
  <path fill="param(fill) #888" stroke="param(outline) #000" stroke-width="param(outline-width) 0" fill-opacity="param(fill-opacity) 1" stroke-opacity="param(outline-opacity) 1" d="M7.5 7.5C8.5 7.5 9.35 7.91 10.01 8.4C10.68 8.88 11.22 9.49 11.61 9.98C12.05 10.52 11.92 11.19 11.59 11.57C11.27 11.96 10.65 12.2 10.05 11.89L9.05 11.39C8.61 11.17 8.32 11.08 8.12 11.04C7.91 11 7.75 11 7.5 11C7.25 11 7.09 11 6.88 11.04C6.68 11.08 6.39 11.17 5.95 11.39L4.95 11.89C4.35 12.2 3.73 11.96 3.41 11.57C3.08 11.19 2.95 10.52 3.39 9.98C3.78 9.49 4.32 8.88 4.99 8.4C5.65 7.91 6.5 7.5 7.5 7.5ZM11.19 0.4C11.86 0.75 12.47 1.19 13.01 1.7L5.73 5.52C5.6 6.22 4.99 6.75 4.25 6.75C4.03 6.75 3.82 6.7 3.64 6.62L0 8.53L0 6.27L11.19 0.4ZM10.75 3.75C11.58 3.75 12.25 4.42 12.25 5.25C12.25 6.08 11.58 6.75 10.75 6.75C9.92 6.75 9.25 6.08 9.25 5.25C9.25 4.42 9.92 3.75 10.75 3.75ZM10.36 0.03L0 5.46L0 4.71C0.29 3.94 0.69 3.22 1.2 2.57L6.1 0L10.29 0C10.31 0.01 10.34 0.02 10.36 0.03Z"/>
</svg>