<svg xmlns="http://www.w3.org/2000/svg" viewBox="0 0 15 15">
  <path fill="param(fill) #888" stroke="param(outline) #000" stroke-width="param(outline-width) 0" fill-opacity="param(fill-opacity) 1" stroke-opacity="param(outline-opacity) 1" d="M10.47 0.61L10.56 0.65C10.59 0.66 10.61 0.67 10.64 0.69C10.74 0.73 10.84 0.78 10.93 0.83C10.95 0.84 10.97 0.85 10.99 0.86C11.22 0.98 11.45 1.12 11.67 1.27L11.81 1.36L11.82 1.37C11.9 1.43 11.98 1.48 12.05 1.54L11.81 1.36C11.91 1.43 12.02 1.51 12.11 1.59C12.17 1.63 12.23 1.68 12.28 1.72C12.31 1.74 12.33 1.76 12.35 1.78C12.41 1.83 12.48 1.89 12.54 1.94C12.55 1.95 12.56 1.96 12.57 1.97C12.63 2.03 12.69 2.09 12.76 2.15C12.78 2.17 12.81 2.2 12.83 2.22C12.87 2.27 12.91 2.31 12.96 2.35C12.98 2.38 13 2.4 13.02 2.42C14.25 3.76 15 5.54 15 7.5C15 11.64 11.64 15 7.5 15C3.83 15 0.78 12.36 0.13 8.88L0.18 9.16C0.15 9.03 0.13 8.9 0.11 8.77C0.1 8.71 0.09 8.65 0.08 8.59C0.07 8.56 0.07 8.52 0.06 8.49C0.04 8.3 0.02 8.1 0.01 7.91C0.01 7.89 0.01 7.87 0.01 7.85C0 7.76 0 7.67 0 7.58C0 7.57 0 7.57 0 7.56C0 7.54 0 7.52 0 7.5C0 7.05 0.04 6.61 0.11 6.19C0.12 6.17 0.12 6.16 0.12 6.14C0.76 2.65 3.82 0 7.5 0C8.19 0 8.87 0.09 9.51 0.27L9.53 0.28C9.65 0.31 9.76 0.35 9.88 0.38L9.51 0.27C9.64 0.31 9.77 0.35 9.9 0.39C10.01 0.43 10.12 0.47 10.23 0.51C10.24 0.52 10.24 0.52 10.25 0.52L10.26 0.52C10.33 0.55 10.4 0.58 10.47 0.61ZM11.63 3.15L6.17 6.02C6.07 6.54 5.61 6.94 5.06 6.94C4.9 6.94 4.74 6.9 4.6 6.84L1.57 8.43C2.02 11.3 4.5 13.5 7.5 13.5C10.81 13.5 13.5 10.81 13.5 7.5C13.5 5.79 12.78 4.24 11.63 3.15ZM7.5 7.5C8.25 7.5 8.89 7.81 9.38 8.17C9.88 8.54 10.29 8.99 10.58 9.36C10.91 9.77 10.81 10.27 10.57 10.56C10.33 10.84 9.87 11.02 9.41 10.8L8.66 10.42C8.33 10.26 8.12 10.19 7.96 10.16C7.81 10.13 7.69 10.13 7.5 10.13C7.31 10.13 7.19 10.13 7.04 10.16C6.88 10.19 6.67 10.26 6.34 10.42L5.59 10.8C5.13 11.02 4.67 10.84 4.43 10.56C4.19 10.27 4.09 9.77 4.42 9.36C4.71 8.99 5.12 8.54 5.62 8.17C6.11 7.81 6.75 7.5 7.5 7.5ZM9.94 4.69C10.56 4.69 11.06 5.19 11.06 5.81C11.06 6.43 10.56 6.94 9.94 6.94C9.32 6.94 8.81 6.43 8.81 5.81C8.81 5.19 9.32 4.69 9.94 4.69ZM9.64 1.89L1.67 6.07C1.62 6.29 1.58 6.52 1.55 6.75L10.27 2.17C10.06 2.07 9.86 1.98 9.64 1.89ZM2.77 3.8L7.14 1.51C5.37 1.61 3.8 2.49 2.77 3.8Z"/>
</svg>