<svg xmlns="http://www.w3.org/2000/svg" viewBox="0 0 15 15">
  <path fill="param(fill) #888" stroke="param(outline) #000" stroke-width="param(outline-width) 0" fill-opacity="param(fill-opacity) 1" stroke-opacity="param(outline-opacity) 1" d="M7.5 0L15 4L15 6.5L14 5.97L14 15L12 15L12 4.9L7.5 2.5L3 4.9L3 15L1 15L1 5.97L0 6.5L0 4L7.5 0ZM5.5 5C6.07 5 7 6.29 7 8C7 9.71 6 10 6 10L6 15L5 15L5 10L4.93 9.97C4.69 9.87 4 9.43 4 8C4 6.29 4.93 5 5.5 5ZM8 5C9.25 5 10.5 6.75 10.5 9L10.5 11.5L9 11.5L9 15L8 15L8 5Z"/>
</svg>