<svg xmlns="http://www.w3.org/2000/svg" viewBox="0 0 15 15">
  <path fill="param(fill) #888" stroke="param(outline) #000" stroke-width="param(outline-width) 0" fill-opacity="param(fill-opacity) 1" stroke-opacity="param(outline-opacity) 1" d="M12 14L12 8L3 8L3 14L1.5 14L1.5 6.5L13.5 6.5L13.5 14L12 14ZM3.5 1C3.22 1 3 1.22 3 1.5L3 4.5C3 4.78 3.22 5 3.5 5L5 5C5.74 5 6.38 4.6 6.72 4L7.5 4L8.5 3L9.5 4L10.5 3L11.5 4L12.5 3L11.5 2L6.72 2C6.38 1.4 5.74 1 5 1L3.5 1ZM4.5 2C4.78 2 5 2.22 5 2.5L5 3.5C5 3.78 4.78 4 4.5 4C4.22 4 4 3.78 4 3.5L4 2.5C4 2.22 4.22 2 4.5 2ZM4.5 9L10.5 9C10.78 9 11 9.22 11 9.5C11 9.78 10.78 10 10.5 10L4.5 10C4.22 10 4 9.78 4 9.5C4 9.22 4.22 9 4.5 9ZM4.5 13L10.5 13C10.78 13 11 13.22 11 13.5C11 13.78 10.78 14 10.5 14L4.5 14C4.22 14 4 13.78 4 13.5C4 13.22 4.22 13 4.5 13ZM4.5 11L10.5 11C10.78 11 11 11.22 11 11.5C11 11.78 10.78 12 10.5 12L4.5 12C4.22 12 4 11.78 4 11.5C4 11.22 4.22 11 4.5 11Z"/>
</svg>