<svg xmlns="http://www.w3.org/2000/svg" viewBox="0 0 15 15">
  <path fill="param(fill) #888" stroke="param(outline) #000" stroke-width="param(outline-width) 0" fill-opacity="param(fill-opacity) 1" stroke-opacity="param(outline-opacity) 1" d="M3 2L9.21 2C9.6 1.12 10.48 0.5 11.5 0.5C12.52 0.5 13.4 1.12 13.79 2L11.5 2L11 3L11.5 4L13.79 4C13.4 4.88 12.52 5.5 11.5 5.5C10.48 5.5 9.6 4.88 9.21 4L3 4C2.45 4 2 3.55 2 3C2 2.45 2.45 2 3 2ZM13.5 6.5L13.5 14L12 14L12 8L3 8L3 14L1.5 14L1.5 6.5L13.5 6.5ZM10.5 13C10.78 13 11 13.22 11 13.5C11 13.78 10.78 14 10.5 14L4.5 14C4.22 14 4 13.78 4 13.5C4 13.22 4.22 13 4.5 13L10.5 13ZM10.5 11C10.78 11 11 11.22 11 11.5C11 11.78 10.78 12 10.5 12L4.5 12C4.22 12 4 11.78 4 11.5C4 11.22 4.22 11 4.5 11L10.5 11ZM10.5 9C10.78 9 11 9.22 11 9.5C11 9.78 10.78 10 10.5 10L4.5 10C4.22 10 4 9.78 4 9.5C4 9.22 4.22 9 4.5 9L10.5 9Z"/>
</svg>