<?xml version="1.0" encoding="UTF-8"?>
<svg viewBox="0 0 15 15" version="1.1" xmlns="http://www.w3.org/2000/svg" xmlns:xlink="http://www.w3.org/1999/xlink">
  <path fill="param(fill) #888" stroke="param(outline) #000" stroke-width="param(outline-width) 0" fill-opacity="param(fill-opacity) 1" stroke-opacity="param(outline-opacity) 1" d="M9.58 7.36L12.34 5.81L11.38 4.12L8.62 5.68L9.58 7.36ZM4.07 8.8L8.73 6.17L9.21 7.01L4.55 9.64L4.07 8.8ZM3.5 9.12L3.98 9.96L1.58 11.32L1.1 10.48L3.5 9.12ZM4.15 9.96C4.19 10.03 4.29 10.04 4.37 10C4.46 9.95 4.5 9.86 4.46 9.79L3.9 8.8C3.86 8.74 3.76 8.72 3.68 8.77C3.59 8.82 3.55 8.91 3.59 8.98L4.15 9.97L4.15 9.96ZM0.6 10.5C0.7 10.45 0.8 10.43 0.9 10.43L1.52 11.51C1.47 11.6 1.4 11.67 1.3 11.73C1.03 11.88 0.68 11.79 0.53 11.53L0.38 11.25C0.25 11.02 0.3 10.73 0.52 10.56L0.6 10.5ZM8.35 5.36C8.42 5.49 8.59 5.53 8.72 5.46L11.14 4.1C11.27 4.03 11.31 3.86 11.24 3.73C11.17 3.6 11 3.56 10.87 3.63L8.46 5C8.33 5.07 8.28 5.23 8.36 5.36L8.35 5.36ZM8.01 4.77C8.09 4.9 8.25 4.94 8.38 4.87L10.8 3.51C10.93 3.44 10.97 3.27 10.9 3.14C10.83 3.01 10.67 2.96 10.53 3.04L8.12 4.4C8 4.47 7.96 4.6 7.99 4.71L8.01 4.77ZM10.06 8.35C10.13 8.48 10.3 8.52 10.43 8.45L12.84 7.09C12.97 7.01 13.02 6.85 12.95 6.72C12.87 6.59 12.71 6.55 12.58 6.62L10.16 7.98C10.03 8.06 9.98 8.22 10.06 8.35ZM9.72 7.76C9.79 7.89 9.95 7.93 10.09 7.86L12.5 6.5C12.63 6.42 12.68 6.26 12.61 6.13C12.53 6 12.37 5.96 12.24 6.03L9.82 7.39C9.71 7.46 9.66 7.59 9.7 7.7L9.72 7.76ZM13.77 10.18L9.51 10.18L9.51 10.67L13.77 10.67L13.77 10.18ZM8.58 11.2C8.61 11.04 8.75 10.91 8.92 10.91L14.36 10.91C14.51 10.91 14.63 11.01 14.68 11.13L14.7 11.2L14.7 12L8.57 12L8.57 11.2L8.58 11.2Z"/>
</svg>