<svg xmlns="http://www.w3.org/2000/svg" viewBox="0 0 15 15">
  <path fill="param(fill) #888" stroke="param(outline) #000" stroke-width="param(outline-width) 0" fill-opacity="param(fill-opacity) 1" stroke-opacity="param(outline-opacity) 1" d="M7.8 0L7.54 0.58L6.9 0.71L7.39 1.13L7.32 1.76L7.87 1.43L8.47 1.7L8.32 1.08L8.76 0.61L8.11 0.55L7.8 0ZM11.35 2.29L10.94 2.71L10.35 2.62L10.63 3.14L10.36 3.65L10.95 3.55L11.37 3.97L11.45 3.39L11.98 3.13L11.45 2.87L11.35 2.29ZM5.07 2.99L4.59 3.62L3.79 3.59L4.25 4.23L3.97 4.97L4.74 4.73L5.37 5.22L5.38 4.43L6.05 4L5.29 3.74L5.07 2.99ZM8.57 5.08L8.06 5.59L7.34 5.47L7.68 6.1L7.34 6.72L8.06 6.61L8.56 7.12L8.67 6.42L9.33 6.11L8.67 5.79L8.57 5.08ZM12.44 5.85L11.8 6.45L10.94 6.27L11.32 7.05L10.88 7.8L11.76 7.68L12.35 8.32L12.51 7.47L13.32 7.12L12.54 6.71L12.44 5.85ZM6.32 7.8C5.87 7.8 5.5 8.12 5.5 8.52C5.5 8.61 5.52 8.69 5.55 8.77C5.02 8.83 4.44 9.06 3.91 9.37C3.85 9.21 3.79 9.05 3.7 8.92C3.45 8.55 3.03 8.25 2.62 8.35C1.02 8.67 -0.37 10.52 0.09 11.87C0.6 12.81 1.53 13.02 2.46 13.01C2.71 13.45 3.13 13.81 3.82 14.03C3.57 14.31 3.37 14.63 3.25 14.99L8.77 15C8.64 14.58 8.41 14.22 8.11 13.92C10.75 12.95 12.38 10.29 14.79 10.59L15 9.1C10.14 9.48 11.12 11.48 6.85 9.06C7.02 8.93 7.13 8.74 7.13 8.52C7.13 8.12 6.77 7.8 6.32 7.8ZM2.64 9.33C2.75 9.33 2.77 9.33 2.86 9.45C2.92 9.55 2.99 9.74 3.02 10.03C2.37 10.68 2.11 11.23 2.16 12.02C1.84 12.01 1.6 11.96 1.44 11.89C0.7 11.52 1.15 10.6 1.47 10.17C1.85 9.67 2.42 9.34 2.64 9.33Z"/>
</svg>