<svg xmlns="http://www.w3.org/2000/svg" viewBox="0 0 15 15">
  <path fill="param(fill) #888" stroke="param(outline) #000" stroke-width="param(outline-width) 0" fill-opacity="param(fill-opacity) 1" stroke-opacity="param(outline-opacity) 1" d="M8 0L7 1L9 2L9.38 3.38L10.26 3.92L11.81 6.03L12.61 6.39L12.84 7.85L13.36 8.17L13.5 9.5L14.25 10L13.54 10.77L13.13 12L12.75 13.06L12.75 13.94L11.75 13.5L11 14L11 15L10 15L10 14.5L2.72 13.94L2.39 13.06L2.07 10.36L2.6 8.89L1.87 6.83L0.75 0L8 0ZM4.5 2.92L4.14 4.01L3 4.01L3.92 4.76L3.5 6L4.5 5.25L5.5 6L5.08 4.76L6 4.01L4.86 4.01L4.5 2.92Z"/>
</svg>