<?xml version="1.0" encoding="UTF-8"?>
<svg viewBox="0 0 15 15" version="1.1" xmlns="http://www.w3.org/2000/svg" xmlns:xlink="http://www.w3.org/1999/xlink">
  <path fill="param(fill) #888" stroke="param(outline) #000" stroke-width="param(outline-width) 0" fill-opacity="param(fill-opacity) 1" stroke-opacity="param(outline-opacity) 1" d="M13.34 3.89C13.34 2.64 12.64 1.39 11.66 0.7C10.98 0.27 10.28 0 9.45 0C8.19 0 6.95 0.56 6.25 1.67C5.97 1.67 5.83 1.67 5.56 1.67C5.56 1.67 5.56 1.67 5.56 1.67C5.56 1.67 5.56 1.67 5.56 1.67C5.56 1.67 5.56 1.67 5.56 1.67L5.56 1.8C5.56 1.8 5.56 1.8 5.56 1.8L5.56 1.67C5.42 1.67 5.27 1.67 5.27 1.67C5.27 1.67 5.27 1.67 5.27 1.67L5.27 1.67C3.06 1.94 1.53 3.62 1.67 5.56C1.67 7.64 3.47 9.31 5.56 9.31C5.56 9.31 5.56 9.31 5.56 9.31L5.7 9.31L6.8 15L8.89 15L9.86 10.28C10.14 10.42 10.42 10.42 10.69 10.42C10.69 10.42 10.69 10.42 10.69 10.42C10.69 10.42 10.69 10.42 10.69 10.42C12.08 10.42 13.19 9.31 13.19 7.92C13.19 7.36 12.92 6.66 12.51 6.25C13.05 5.69 13.34 4.72 13.34 3.89ZM11.54 7.22C11.66 7.36 11.81 7.64 11.81 7.92C11.81 8.48 11.25 9.02 10.69 9.02C10.56 9.02 10.42 9.02 10.28 9.02L8.75 8.61L8.48 10.14L7.92 13.2L7.09 9.17L6.8 8.05L5.7 8.05L5.56 8.05C4.17 8.05 3.06 6.95 3.06 5.56C3.06 4.3 3.89 3.19 5.14 3.06C6.67 3.06 7.92 4.3 7.92 5.83L9.31 5.83C9.31 4.45 8.62 3.19 7.5 2.36C7.92 1.8 8.62 1.39 9.45 1.39C10.01 1.39 10.42 1.53 10.84 1.8C11.54 2.22 11.95 3.06 11.95 3.89C11.95 4.45 11.81 5 11.39 5.42L10.69 6.39L11.54 7.22Z"/>
</svg>