<svg xmlns="http://www.w3.org/2000/svg" viewBox="0 0 15 15">
  <path fill="param(fill) #888" stroke="param(outline) #000" stroke-width="param(outline-width) 0" fill-opacity="param(fill-opacity) 1" stroke-opacity="param(outline-opacity) 1" d="M5 10L5 15L2.25 15C1.56 15 1 14.44 1 13.75L1 10L5 10ZM10 10L10 13.75C10 14.44 9.44 15 8.75 15L6 15L6 10L10 10ZM7.95 5C9.41 5 9.83 6.52 9.32 7.5L10.5 7.5C10.78 7.5 11 7.72 11 8L11 8.5C11 8.78 10.78 9 10.5 9L0.5 9C0.22 9 0 8.78 0 8.5L0 8C0 7.72 0.22 7.5 0.5 7.5L1.52 7.5C1.03 6.5 1.47 4.96 2.92 5C4.08 4.97 5.12 5.74 5.42 6.87C5.69 5.8 6.65 5.04 7.74 5L7.95 5ZM7.92 5.83C7 5.83 6.25 6.58 6.25 7.5L8.07 7.5C9.07 7.39 8.9 5.83 7.92 5.83ZM2.92 5.83L2.77 5.83C1.83 5.92 1.88 7.4 2.74 7.5L4.58 7.5C4.58 6.58 3.83 5.83 2.92 5.83ZM10.53 0C10.66 0 10.79 0.05 10.88 0.15L14.85 4.12C15.05 4.32 15.05 4.63 14.85 4.82L12.82 6.85C12.63 7.05 12.32 7.05 12.12 6.85L8.15 2.88C8.05 2.79 8 2.66 8 2.53L8 0.5C8 0.22 8.22 0 8.5 0L10.53 0ZM9.49 0.74C9.08 0.74 8.74 1.08 8.74 1.49C8.74 1.9 9.08 2.23 9.49 2.23C9.9 2.23 10.23 1.9 10.23 1.49C10.23 1.08 9.9 0.74 9.49 0.74Z"/>
</svg>