<?xml version="1.0" encoding="UTF-8"?>
<svg viewBox="0 0 15 15" version="1.1" xmlns="http://www.w3.org/2000/svg" xmlns:xlink="http://www.w3.org/1999/xlink">
  <path fill="param(fill) #888" stroke="param(outline) #000" stroke-width="param(outline-width) 0" fill-opacity="param(fill-opacity) 1" stroke-opacity="param(outline-opacity) 1" d="M1.02 8.73L1.05 8.64L1.14 8.41C1.24 8.18 1.37 7.94 1.63 7.79C1.81 7.68 2.03 7.62 2.23 7.58L2.37 7.56C2.5 7.54 2.61 7.52 2.71 7.48L2.81 7.45L2.82 7.44C3.78 6.66 5.73 6.64 6.93 5.55C8.68 3.97 10.07 2.37 11.64 0L13.61 1.58L13.77 1.7C13.89 1.79 14 1.91 14 2.18C14 2.37 13.8 2.4 13.57 2.33L12.46 1.99L9.36 6.34L9.36 8.71C9.36 9.26 9.37 9.76 8.9 10.05L10.07 14.99L9.28 14.99L8.55 12.65L7.81 11.48L7.81 14.99L6.88 14.99L6.88 11.05C6.87 10.9 6.79 10.29 6.11 10.29L5.33 11.09L5.33 15L4.71 15L4.71 11.88L3.01 15L2.22 15C2.62 13.75 3.17 13.85 3.17 12.67L3.17 11.89C3.17 11.05 2.24 10.29 2.24 9.51L2.24 8.72C2.24 8.54 2.26 8.37 2.3 8.21C2.17 8.24 2.04 8.28 1.94 8.34C1.79 8.42 1.71 8.65 1.63 8.87L1.6 8.96C1.55 9.11 1.41 9.18 1.27 9.16L1.2 9.14C1.04 9.08 0.96 8.9 1.02 8.74L1.02 8.73Z"/>
</svg>