<svg xmlns="http://www.w3.org/2000/svg" viewBox="0 0 15 15">
  <path fill="param(fill) #888" stroke="param(outline) #000" stroke-width="param(outline-width) 0" fill-opacity="param(fill-opacity) 1" stroke-opacity="param(outline-opacity) 1" d="M6 0C7.1 0 8 0.9 8 2C8 2.85 7.47 3.57 6.73 3.86L8.45 4.72C8.79 4.89 9 5.24 9 5.62L9 6L10.5 6C11.33 6 12 6.67 12 7.5L12 12.5C12 12.78 12.22 13 12.5 13C12.78 13 13 12.78 13 12.5L13 6L12.88 5.99C12.39 5.94 12 5.51 12 5L12 4L10.5 3L11.25 2L14 4L14 12.5C14 13.33 13.33 14 12.5 14C11.67 14 11 13.33 11 12.5L11 7.5C11 7.22 10.78 7 10.5 7L9 7L9 14L9.75 14C9.89 14 10 14.11 10 14.25L10 15L2 15L2 14.25C2 14.11 2.11 14 2.25 14L3 14L3 5.62C3 5.28 3.17 4.97 3.44 4.79L3.55 4.72L5.27 3.86C4.53 3.57 4 2.85 4 2C4 0.9 4.9 0 6 0ZM6 9L4 9L4 14L6 14C7.1 14 8 13.1 8 12L8 11C8 9.9 7.1 9 6 9ZM6 10C6.55 10 7 10.45 7 11L7 12C7 12.55 6.55 13 6 13L5 13L5 10L6 10ZM7.75 5.5L4.25 5.5C4.11 5.5 4 5.61 4 5.75L4 7.75C4 7.89 4.11 8 4.25 8L7.75 8C7.89 8 8 7.89 8 7.75L8 5.75C8 5.61 7.89 5.5 7.75 5.5Z"/>
</svg>