<?xml version="1.0" encoding="UTF-8"?>
<svg viewBox="0 0 15 15" version="1.1" xmlns="http://www.w3.org/2000/svg" xmlns:xlink="http://www.w3.org/1999/xlink">
  <path fill="param(fill) #888" stroke="param(outline) #000" stroke-width="param(outline-width) 0" fill-opacity="param(fill-opacity) 1" stroke-opacity="param(outline-opacity) 1" d="M12.37 10.2C13.29 10.2 14.02 10.94 14.02 11.85C14.02 12.76 13.29 13.5 12.37 13.5C11.46 13.5 10.72 12.76 10.72 11.85C10.72 10.94 11.46 10.2 12.37 10.2ZM4.12 10.2C5.04 10.2 5.77 10.94 5.77 11.85C5.77 12.76 5.04 13.5 4.12 13.5C3.21 13.5 2.47 12.76 2.47 11.85C2.47 10.94 3.21 10.2 4.12 10.2ZM12 2C12.28 2 12.5 2.22 12.5 2.5C12.5 2.78 12.28 3 12 3L11 3L12.5 7.5L13.5 7.5C14.05 7.5 14.5 8.45 14.5 9L14.5 9.31C14.5 9.77 14.47 10.2 14.02 10.2C13.47 10.2 13.47 9.65 12.37 9.65C10.72 9.65 10.05 12 9.5 12L7 12C6.22 12 5.77 9.65 4.12 9.65C2.47 9.65 2.05 11.5 1.5 11.5L1.18 11.5C0.79 11.5 0.5 11.44 0.5 11L0.51 10.84C0.55 9.92 0.91 6.5 1.42 6.5L2.47 6.5L2.47 2L12 2ZM10 3L3.5 3L3.5 6.5L4.42 6.5C5.43 6.5 6 9 6 9L7 10L9 10L9.15 9.47C9.35 8.74 9.62 7.91 10.08 7.7L9.28 7.13L8.92 7.57C8.84 7.68 8.68 7.7 8.57 7.61C8.47 7.52 8.45 7.37 8.54 7.26L9.48 6.09C9.54 6.01 9.71 5.94 9.83 6.06C9.96 6.17 9.96 6.3 9.87 6.41L9.56 6.78L10.5 7.5L11.5 7.5L10 3Z"/>
</svg>