<svg xmlns="http://www.w3.org/2000/svg" viewBox="0 0 15 15">
  <path fill="param(fill) #888" stroke="param(outline) #000" stroke-width="param(outline-width) 0" fill-opacity="param(fill-opacity) 1" stroke-opacity="param(outline-opacity) 1" d="M5.5 6L6.16 10.41C6.1 10.45 6.04 10.49 5.99 10.53L5.67 10.78C5.5 10.92 5.28 11 5.05 11L4.95 11C4.74 11 4.54 10.94 4.37 10.82L3.48 6C3.19 5.13 2.39 4.54 1.48 4.5C1.91 4.15 2.45 3.97 3 4C4.23 3.91 5.32 4.78 5.5 6ZM13.34 3.99L13.5 4C14.05 3.97 14.58 4.15 15 4.5C14.09 4.54 13.29 5.13 13 6L12.36 10.01L12.3 10.01C11.82 10.05 11.36 10.23 10.98 10.53L10.67 10.78C10.51 10.91 10.3 10.99 10.09 11L11 6C11.17 4.83 12.18 3.99 13.34 3.99ZM10.34 0.99L10.5 1C11.05 0.97 11.58 1.15 12 1.5C11.09 1.54 10.29 2.13 10 3L8.81 10.39C8.42 10.14 7.97 10 7.5 10C7.27 10 7.04 10.04 6.81 10.1L8 3C8.17 1.83 9.18 0.99 10.34 0.99L10.34 0.99ZM6.3 13.06L6.61 12.81C6.86 12.61 7.18 12.5 7.5 12.5C7.82 12.5 8.14 12.61 8.39 12.81L8.7 13.06C9.06 13.34 9.5 13.5 9.95 13.5L10.05 13.5C10.5 13.5 10.94 13.34 11.3 13.06L11.61 12.81C11.86 12.61 12.18 12.5 12.5 12.5C12.82 12.5 13.14 12.61 13.39 12.81L13.71 13.06C14.06 13.34 14.49 13.5 14.95 13.5L15 13.5L15 12L14.95 12C14.49 12 14.06 11.85 13.71 11.57L13.39 11.31C13.14 11.11 12.82 11 12.5 11C12.18 11 11.86 11.11 11.61 11.31L11.3 11.56C10.94 11.85 10.5 12 10.05 12L9.95 12C9.5 12 9.06 11.85 8.7 11.56L8.39 11.31C8.14 11.11 7.82 11 7.5 11C7.18 11 6.86 11.11 6.61 11.31L6.3 11.56C5.94 11.85 5.5 12 5.05 12L4.95 12C4.5 12 4.06 11.85 3.7 11.56L3.39 11.31C3.14 11.11 2.82 11 2.5 11C2.18 11 1.86 11.11 1.61 11.31L1.29 11.57C0.99 11.81 0.61 11.96 0.22 12L0 12L0 13.5L0.05 13.5C0.51 13.5 0.94 13.34 1.29 13.06L1.61 12.81C1.86 12.61 2.18 12.5 2.5 12.5C2.82 12.5 3.14 12.61 3.39 12.81L3.7 13.06C4.06 13.34 4.5 13.5 4.95 13.5L5.05 13.5C5.5 13.5 5.94 13.34 6.3 13.06Z"/>
</svg>