<svg xmlns="http://www.w3.org/2000/svg" viewBox="0 0 15 15">
  <path fill="param(fill) #888" stroke="param(outline) #000" stroke-width="param(outline-width) 0" fill-opacity="param(fill-opacity) 1" stroke-opacity="param(outline-opacity) 1" d="M11.03 4.9L8.19 4.9L8.19 1.05L11.03 2.73L11.03 4.9ZM12.34 3.55L14.57 4.9L12.35 4.9L12.34 3.55ZM6.86 4.9L3.97 4.9L3.97 2.72L6.86 1L6.86 4.9ZM2.65 4.9L0.45 4.9L2.65 3.65L2.65 4.9L2.65 4.9ZM0 6.2L2.65 6.2L2.65 11.43L0 6.22L0 6.2ZM3.97 6.2L6.86 6.2L6.86 14L3.97 14L3.97 6.2L3.97 6.2ZM8.19 6.2L11.03 6.2L11.03 14L8.19 14L8.19 6.2ZM12.35 6.2L15 6.2L15 6.22L12.35 11.42L12.35 6.2ZM0 8.74L2.65 13.94L2.65 14L0 14L0 8.74ZM12.35 14L12.35 13.94L15 8.74L15 14L12.35 14Z"/>
</svg>