<svg xmlns="http://www.w3.org/2000/svg" viewBox="0 0 15 15">
  <path fill="param(fill) #888" stroke="param(outline) #000" stroke-width="param(outline-width) 0" fill-opacity="param(fill-opacity) 1" stroke-opacity="param(outline-opacity) 1" d="M0.43 9.28C1.78 8.51 5.47 6.39 8.59 6.39C8.8 7.13 9.45 7.88 9.65 8.02C10.02 8.28 10.11 8.36 10.11 8.6C10.11 9.3 8.69 9.75 6.5 9.75C5.65 9.75 1.73 9.42 0.43 9.28ZM12.72 6.01L13.07 5.58L15 5.58C14.98 5.45 14.96 4.55 14.12 4.55L13.08 4.55C13.08 4.21 12.73 3.5 11.47 3.5C10.01 3.5 9.57 4.62 9.57 5.24C9.57 6.13 9.92 6.8 10.42 7.22C10.79 7.53 11.32 7.83 11.32 8.61C11.32 9.58 10.61 10.83 6.67 10.83C5.88 10.83 3.76 10.61 2.44 10.47L2.46 10.51L0 11.76L0 12.5L2.36 12.09L5.85 12.09L5.84 15L9.95 15L9.95 13.76L9.15 13.76L9.16 12.09L9.34 12.09C11.61 12.09 13.74 10.83 13.74 8.91C13.74 6.68 12.72 6.01 12.72 6.01ZM7.92 13.76L7.07 13.76L7.08 12.09L7.92 12.09L7.92 13.76ZM11.91 5.12C11.76 5.13 11.61 5.05 11.53 4.92C11.45 4.78 11.45 4.62 11.53 4.48C11.61 4.35 11.76 4.27 11.91 4.27C12.15 4.27 12.33 4.46 12.33 4.7C12.33 4.94 12.14 5.12 11.91 5.12ZM2.5 4.5C1.95 4.5 1.5 4.95 1.5 5.5C1.5 6.05 1.95 6.5 2.5 6.5C3.05 6.5 3.5 6.05 3.5 5.5C3.5 4.95 3.05 4.5 2.5 4.5ZM3.75 0L1.25 0L2 3.75L3 3.75L3.75 0Z"/>
</svg>