<svg xmlns="http://www.w3.org/2000/svg" viewBox="0 0 15 15">
  <path fill="param(fill) #888" stroke="param(outline) #000" stroke-width="param(outline-width) 0" fill-opacity="param(fill-opacity) 1" stroke-opacity="param(outline-opacity) 1" d="M0.43 8.28C1.78 7.51 5.47 5.39 8.59 5.39C8.8 6.13 9.45 6.88 9.65 7.02C10.02 7.28 10.11 7.36 10.11 7.6C10.11 8.3 8.69 8.75 6.5 8.75C5.65 8.75 1.73 8.42 0.43 8.28ZM12.72 5.01L13.07 4.58L15 4.58C14.98 4.45 14.96 3.55 14.12 3.55L13.08 3.55C13.08 3.21 12.73 2.5 11.47 2.5C10.01 2.5 9.57 3.62 9.57 4.24C9.57 5.13 9.92 5.8 10.42 6.22C10.79 6.53 11.32 6.83 11.32 7.61C11.32 8.58 10.61 9.83 6.67 9.83C5.88 9.83 3.76 9.61 2.44 9.47L2.46 9.51L0 10.76L0 11.5L2.36 11.09L5.85 11.09L5.84 14L9.95 14L9.95 12.76L9.15 12.76L9.16 11.09L9.34 11.09C11.61 11.09 13.74 9.83 13.74 7.91C13.74 5.68 12.72 5.01 12.72 5.01ZM7.92 12.76L7.07 12.76L7.08 11.09L7.92 11.09L7.92 12.76ZM11.91 4.12C11.76 4.13 11.61 4.05 11.53 3.92C11.45 3.78 11.45 3.62 11.53 3.48C11.61 3.35 11.76 3.27 11.91 3.27C12.15 3.27 12.33 3.46 12.33 3.7C12.33 3.94 12.14 4.12 11.91 4.12Z"/>
</svg>