<svg xmlns="http://www.w3.org/2000/svg" viewBox="0 0 15 15">
  <path fill="param(fill) #888" stroke="param(outline) #000" stroke-width="param(outline-width) 0" fill-opacity="param(fill-opacity) 1" stroke-opacity="param(outline-opacity) 1" d="M10.78 3.48L11.28 5.25C11.71 6.79 10.82 8.38 9.28 8.82C9.16 8.85 9.03 8.88 8.91 8.9C8.43 8.97 7.96 9 7.5 9C7.04 9 6.57 8.97 6.09 8.9L6.09 8.9C4.51 8.67 3.42 7.2 3.65 5.62C3.66 5.5 3.69 5.37 3.72 5.25L4.22 3.48C4.64 2.01 5.98 1 7.5 1C7.5 1 7.5 1 7.5 1C7.5 1 7.5 1 7.5 1C9.02 1 10.36 2.01 10.78 3.48ZM13.57 13.56L14 15L14 15L1 15L1.43 13.56C2.07 11.45 4.01 10 6.22 10L8.78 10C10.99 10 12.93 11.45 13.57 13.56Z"/>
</svg>