<?xml version="1.0" encoding="UTF-8"?>
<svg viewBox="0 0 15 15" version="1.1" xmlns="http://www.w3.org/2000/svg" xmlns:xlink="http://www.w3.org/1999/xlink">
  <path fill="param(fill) #888" stroke="param(outline) #000" stroke-width="param(outline-width) 0" fill-opacity="param(fill-opacity) 1" stroke-opacity="param(outline-opacity) 1" d="M2.33 7.59C2.25 7.49 2.09 7.38 1.96 7.31L0.57 6.74C0.42 6.67 0.3 6.47 0.3 6.31L0.3 2.63C0.3 2.49 0.4 2.33 0.52 2.26L0.62 2.22C0.95 2.09 3.4 1.2 5.08 1.2C6.76 1.2 9.08 2.09 9.08 2.09C9.24 2.15 9.5 2.21 9.66 2.23L14.4 2.74C14.57 2.76 14.7 2.91 14.7 3.08L14.7 5.57C14.7 5.74 14.57 5.9 14.41 5.93L9.67 6.69C9.5 6.72 9.24 6.79 9.09 6.85L5.84 7.68C5.68 7.7 5.5 7.85 5.45 8.01L3.54 13.52C3.49 13.67 3.31 13.76 3.16 13.71L1.14 13.03C0.99 12.98 0.9 12.81 0.96 12.65L2.38 8.53L2.38 8.52C2.54 7.87 2.33 7.6 2.33 7.6L2.33 7.59ZM4.63 5.61C5.38 5.61 5.99 5.01 5.99 4.27C5.99 3.53 5.38 2.93 4.63 2.93C3.88 2.93 3.27 3.53 3.27 4.28C3.27 5.02 3.88 5.62 4.63 5.62L4.63 5.61Z"/>
</svg>