<svg xmlns="http://www.w3.org/2000/svg" viewBox="0 0 15 15">
  <path fill="param(fill) #888" stroke="param(outline) #000" stroke-width="param(outline-width) 0" fill-opacity="param(fill-opacity) 1" stroke-opacity="param(outline-opacity) 1" d="M14.38 6.21C14.72 6.21 15 5.93 15 5.59C15 5.25 14.72 4.97 14.38 4.97L13.29 4.97L13.29 4.14L14.31 4.14C14.65 4.14 14.93 3.87 14.93 3.52C14.93 3.18 14.65 2.9 14.31 2.9L13.19 2.9L13.1 2.71L14.12 1.69C14.36 1.45 14.36 1.05 14.12 0.81C13.87 0.57 13.48 0.57 13.24 0.81L12.21 1.84L12.05 1.78L12.05 0.62C12.05 0.28 11.77 0 11.43 0C11.08 0 10.8 0.28 10.8 0.62L10.8 1.78L10.64 1.85L9.62 0.84C9.37 0.59 8.98 0.59 8.74 0.84C8.5 1.08 8.49 1.47 8.74 1.72L9.76 2.73L9.69 2.91L8.52 2.91C8.18 2.91 7.9 3.18 7.9 3.53C7.9 3.87 8.18 4.15 8.52 4.15L9.56 4.15L9.56 4.98L8.53 4.98C8.19 4.98 7.91 5.25 7.91 5.6C7.91 5.94 8.19 6.22 8.53 6.22L9.61 6.22C9.6 6.88 9.39 7.53 9.02 8.08L8.15 7.22C7.91 6.97 7.51 6.97 7.27 7.22C7.02 7.46 7.02 7.85 7.27 8.1L8.13 8.96C7.59 9.33 6.94 9.55 6.24 9.55L6.24 8.51C6.24 8.17 5.96 7.89 5.61 7.89C5.27 7.89 4.99 8.17 4.99 8.51L4.99 9.52L4.16 9.52L4.16 8.43C4.16 8.08 3.88 7.8 3.54 7.8C3.19 7.8 2.91 8.08 2.91 8.43L2.91 9.6C2.86 9.62 2.79 9.64 2.74 9.67L1.74 8.65C1.49 8.4 1.1 8.4 0.85 8.65C0.61 8.9 0.61 9.3 0.85 9.55L1.85 10.56C1.81 10.63 1.79 10.69 1.76 10.77L0.61 10.77C0.27 10.77 0 11.04 0 11.39C0 11.73 0.27 12.01 0.61 12.01L1.76 12.01C1.78 12.08 1.81 12.16 1.84 12.23L0.83 13.26C0.59 13.51 0.59 13.91 0.83 14.16C0.95 14.28 1.11 14.35 1.28 14.35C1.45 14.35 1.61 14.28 1.72 14.16L2.74 13.13C2.79 13.16 2.86 13.18 2.92 13.2L2.92 14.36C2.92 14.71 3.2 15 3.55 15C3.89 15 4.17 14.71 4.17 14.36L4.17 13.25L5 13.25L5 14.33C5 14.68 5.28 14.95 5.62 14.95C5.97 14.95 6.24 14.68 6.24 14.33L6.24 13.3C6.58 13.3 6.91 13.26 7.23 13.22L7.5 14.23C7.58 14.52 7.83 14.7 8.11 14.7C8.16 14.7 8.22 14.69 8.27 14.68C8.6 14.59 8.8 14.25 8.71 13.91L8.45 12.93C8.68 12.86 8.9 12.78 9.11 12.68L9.61 13.53C9.72 13.73 9.93 13.85 10.15 13.85C10.3 13.85 10.45 13.79 10.58 13.68C10.8 13.48 10.83 13.14 10.68 12.88L10.21 12.08C10.42 11.94 10.62 11.78 10.82 11.62L11.54 12.34C11.66 12.46 11.82 12.52 11.99 12.52C12.2 12.52 12.41 12.42 12.53 12.21C12.68 11.96 12.61 11.64 12.4 11.44L11.7 10.74C11.86 10.55 12.01 10.36 12.15 10.16L12.97 10.63C13.15 10.73 13.35 10.74 13.54 10.66C13.72 10.58 13.85 10.42 13.9 10.23C13.97 9.96 13.82 9.68 13.57 9.54L12.75 9.07C12.85 8.85 12.93 8.63 13.01 8.4L13.97 8.66C14.17 8.71 14.38 8.67 14.53 8.54C14.69 8.41 14.77 8.22 14.76 8.02C14.76 7.75 14.54 7.52 14.27 7.45L13.3 7.19C13.34 6.87 13.38 6.55 13.38 6.22L14.39 6.22L14.38 6.21ZM6.12 12L3.49 12C3.15 12 2.87 11.72 2.87 11.38C2.87 11.04 3.15 10.76 3.49 10.76L6.17 10.76C8.73 10.76 10.8 8.69 10.8 6.15L10.79 3.52C10.79 3.18 11.06 2.9 11.4 2.9L11.43 2.9C11.77 2.9 12.05 3.18 12.05 3.52L12.06 6.15C12.06 9.38 9.4 12 6.12 12L6.12 12ZM3.5 4.5C2.95 4.5 2.5 4.95 2.5 5.5C2.5 6.05 2.95 6.5 3.5 6.5C4.05 6.5 4.5 6.05 4.5 5.5C4.5 4.95 4.05 4.5 3.5 4.5ZM4.75 0L2.25 0L3 3.75L4 3.75L4.75 0Z"/>
</svg>