<?xml version="1.0" encoding="UTF-8"?>
<svg viewBox="0 0 15 15" version="1.1" xmlns="http://www.w3.org/2000/svg" xmlns:xlink="http://www.w3.org/1999/xlink">
  <path fill="param(fill) #888" stroke="param(outline) #000" stroke-width="param(outline-width) 0" fill-opacity="param(fill-opacity) 1" stroke-opacity="param(outline-opacity) 1" d="M7.19 10.17L2.42 7.42L0.17 11.31C0.05 11.52 0.1 11.79 0.28 11.94L0.39 12.01L0.79 12.25C1.08 12.41 1.5 12.22 1.75 12.07L1.88 11.99L1.95 11.93C2.05 11.91 2.15 11.91 2.25 11.94L2.34 11.98L3.89 12.88L3.14 14.18C3.09 14.32 3.08 14.47 3.14 14.62C3.24 14.88 3.52 15.02 3.79 14.95L3.87 14.92L7.17 13.56C7.72 13.47 8.31 13.39 8.79 13.4C8.95 13.4 9.16 13.43 9.39 13.47L9.75 13.54L10.78 13.78L11.21 13.87C12.29 14.09 13.38 14.19 13.85 13.6L13.93 13.48L14.18 13.05L10.72 11.05C10.2 10.75 9.74 10.67 9.3 10.63L8.63 10.59C8.26 10.55 7.88 10.49 7.46 10.31L7.19 10.17ZM3.79 5.11L3.67 5.25L2.92 6.55L7.25 9.05C7.86 9.4 8.4 9.49 8.88 9.53L9.24 9.56C9.71 9.58 10.12 9.61 10.58 9.83L10.79 9.93L14.68 12.18L14.93 11.75C15.06 11.54 15 11.27 14.82 11.12L14.75 11.07L11.29 9.07C10.68 8.72 10.14 8.63 9.66 8.58L9.3 8.56C8.83 8.53 8.42 8.51 7.96 8.29L7.75 8.18L8 7.75C8.13 7.54 8.08 7.27 7.9 7.12L7.82 7.07L4.36 5.07C4.17 4.96 3.95 4.99 3.79 5.11ZM11.05 0L11.34 0.29C11.75 0.7 12 1.24 12.04 1.81L12.05 2L11.05 2L11.05 4L12.05 6L11.3 6C11.16 6 11.05 6.11 11.05 6.25L11.05 6.75C11.05 6.89 11.16 7 11.3 7L13.8 7C13.94 7 14.05 6.89 14.05 6.75L14.05 6.25C14.05 6.11 13.94 6 13.8 6L13.05 6L14.05 4L14.05 3C14.05 1.4 12.8 0.1 11.23 0.01L11.05 0ZM1.55 2C1 2 0.55 2.45 0.55 3C0.55 3.55 1 4 1.55 4L10.55 4L10.55 2L1.55 2Z"/>
</svg>