<svg xmlns="http://www.w3.org/2000/svg" viewBox="0 0 15 15">
  <path fill="param(fill) #888" stroke="param(outline) #000" stroke-width="param(outline-width) 0" fill-opacity="param(fill-opacity) 1" stroke-opacity="param(outline-opacity) 1" d="M4 0C4 0 1.99 1.59 1.4 3.32C0.82 5.05 1.09 10 1.6 10C2.11 10 1.85 5.14 2.46 3.83C3.07 2.52 4 2 4 2H6V3.31A4.5 5.5 0 0 0 4.03 5H5.56C5.74 4.28 5.91 3.66 6.01 3.31A4.5 5.5 0 0 1 6.56 3.12C6.48 3.4 6.27 4.13 6.06 5H8.94C8.73 4.13 8.52 3.4 8.44 3.12A4.5 5.5 0 0 1 8.99 3.31C9.09 3.66 9.26 4.28 9.44 5H10.97A4.5 5.5 0 0 0 9 3.31V2H10C10.55 2 11 1.55 11 1C11 0.45 10.55 0 10 0ZM3.73 5.5A4.5 5.5 0 0 0 3 8.25H5.01C5.04 7.46 5.23 6.43 5.44 5.5ZM5.94 5.5C5.73 6.43 5.54 7.46 5.51 8.25H9.49C9.46 7.46 9.27 6.43 9.06 5.5ZM9.56 5.5C9.77 6.43 9.96 7.46 9.99 8.25H12A4.5 5.5 0 0 0 11.27 5.5ZM3 8.75A4.5 5.5 0 0 0 3.74 11.53H5.45C5.24 10.59 5.04 9.55 5.01 8.75ZM5.51 8.75C5.54 9.55 5.74 10.59 5.95 11.53H9.05C9.26 10.59 9.46 9.55 9.49 8.75ZM9.99 8.75C9.96 9.55 9.76 10.59 9.55 11.53H11.26A4.5 5.5 0 0 0 12 8.75ZM4.05 12.03A4.5 5.5 0 0 0 6 13.69V15H9V13.69A4.5 5.5 0 0 0 10.95 12.03H9.43C9.26 12.73 9.09 13.34 8.99 13.69A4.5 5.5 0 0 1 8.44 13.88C8.52 13.6 8.72 12.89 8.93 12.03H6.07C6.28 12.89 6.48 13.6 6.56 13.88A4.5 5.5 0 0 1 6.01 13.69C5.91 13.34 5.74 12.73 5.57 12.03Z"/>
</svg>