<?xml version="1.0" encoding="UTF-8"?>
<svg viewBox="0 0 15 15" version="1.1" xmlns="http://www.w3.org/2000/svg" xmlns:xlink="http://www.w3.org/1999/xlink">
  <path fill="param(fill) #888" stroke="param(outline) #000" stroke-width="param(outline-width) 0" fill-opacity="param(fill-opacity) 1" stroke-opacity="param(outline-opacity) 1" d="M3.43 0.11C4.18 0.96 5.14 1.82 6.64 2.46L7.15 2.65C8.65 3.18 9.96 3.48 10.71 3.63L11.36 3.75L13.93 4.18C14.36 4.29 14.68 4.61 14.57 5.04C14.47 5.33 14.29 5.53 13.94 5.56L13.82 5.57C13.82 5.57 13.71 5.57 13.71 5.57L11.14 5.14L11.14 5.25L11.78 5.56C13.25 6.27 14.47 6.91 14.66 7.05L14.68 7.07C15 7.29 15.11 7.71 14.89 8.04C14.79 8.25 14.46 8.36 14.25 8.36C14.16 8.36 14.08 8.36 13.99 8.3L13.93 8.25C13.93 8.25 12.33 7.36 10.4 6.52L10.18 6.43L10.16 6.43C10.14 6.44 10.11 6.45 10.15 6.5L10.18 6.54C11.25 7.18 12.54 8.25 13.39 9.64C13.61 9.96 13.5 10.5 13.18 10.71C13.07 10.71 12.96 10.82 12.86 10.82C12.64 10.82 12.43 10.71 12.21 10.5C11.74 9.74 11.09 9.06 10.43 8.54L10.18 8.36C10.18 8.36 8.38 6.76 6.52 7.03L6.32 7.07C4.39 7.39 5.14 8.89 5.25 9.75C5.36 10.61 4.93 11.04 4.61 11.14C4.5 11.14 4.5 11.14 4.39 11.25C4.18 11.25 4.07 11.04 4.07 11.04L4.07 10.93C3 6.96 1.5 4.29 0 2.36L3.43 0.11ZM3.75 13.93L4.5 13.93L5.68 12.64L6.86 13.93L7.61 13.93L9.54 12L11.46 13.93L12.11 13.93L13.39 12.86L14.57 14.14L14.57 14.89L0.64 14.89L0.64 14.14L2.36 11.89L3.75 13.93Z"/>
</svg>