<?xml version="1.0" encoding="UTF-8"?>
<svg viewBox="0 0 15 15" version="1.1" xmlns="http://www.w3.org/2000/svg" xmlns:xlink="http://www.w3.org/1999/xlink">
  <path fill="param(fill) #888" stroke="param(outline) #000" stroke-width="param(outline-width) 0" fill-opacity="param(fill-opacity) 1" stroke-opacity="param(outline-opacity) 1" d="M0 8.5C2 9 4.5 10 4.5 10C4.5 10 5.5 9.5 6 9.5L8 9.5L11 9C11 9 11.5 9.5 11 10C10.5 10.5 8.5 11 8 11C7.5 11 8.5 11.5 8.5 11.5L10 11.5C10 11.5 12 11.5 13 11C14 10.5 15 10 15 10.5C13 12.5 12 13 12 13C12 13 10 13.5 8 13.5C7.5 13.5 6 12.5 5.5 12.5C5 12.5 0 13 0 12.5L0 8.5ZM6.93 0.4C7.87 -0.28 9.2 -0.07 9.88 0.87C9.96 0.98 10.03 1.09 10.08 1.21L10.5 2.1L10.91 1.21C11.41 0.16 12.67 -0.3 13.73 0.2C13.85 0.26 13.96 0.33 14.07 0.4C15.08 1.14 15.3 2.55 14.57 3.56C14.51 3.63 14.45 3.7 14.39 3.77L11.05 7.34C10.76 7.64 10.29 7.66 9.99 7.37L9.95 7.34L6.61 3.77C5.76 2.86 5.8 1.44 6.71 0.58L6.82 0.49L6.93 0.4Z"/>
</svg>