<svg xmlns="http://www.w3.org/2000/svg" viewBox="0 0 15 15">
  <path fill="param(fill) #888" stroke="param(outline) #000" stroke-width="param(outline-width) 0" fill-opacity="param(fill-opacity) 1" stroke-opacity="param(outline-opacity) 1" d="M4.42 10.03L4.42 11.04C4.43 11.35 4.18 11.6 3.88 11.6L3.7 11.6C3.39 11.6 3.15 11.35 3.14 11.05L3.14 10.02C3.14 9.72 3.39 9.47 3.69 9.47L3.87 9.47C4.18 9.47 4.42 9.72 4.42 10.03L4.42 10.03ZM2 8.5L1.78 8.5C1.49 8.5 1.25 8.74 1.25 9.04L1.25 10.2C1.25 10.5 1.49 10.74 1.78 10.74L2 10.74C2.29 10.74 2.53 10.5 2.53 10.21L2.53 9.04C2.53 8.75 2.3 8.5 2 8.5L2 8.5ZM5.76 10.67L5.61 10.67C5.46 10.67 5.32 10.73 5.21 10.84C5.1 10.94 5.04 11.09 5.04 11.24L5.04 12.34C5.05 12.65 5.3 12.91 5.62 12.91L5.77 12.91C5.92 12.91 6.06 12.85 6.17 12.74C6.21 12.7 6.23 12.66 6.25 12.61L6.27 12.58C6.31 12.5 6.33 12.42 6.33 12.33L6.33 11.24C6.33 10.92 6.07 10.67 5.75 10.67L5.76 10.67ZM14.13 8.93L12.08 7.68L12.09 7.67C12.04 7.65 12 7.62 11.96 7.6L9.23 6.05C8.99 5.91 8.78 5.72 8.62 5.49L8.04 4.65L5.77 5.32C4.98 5.54 4.14 5.2 3.72 4.5L3.39 3.85C3.25 3.59 3.35 3.27 3.61 3.13L4.72 2.52L2.96 2.69C2.65 2.72 2.33 2.67 2.05 2.54L0 1.5L0.01 7.73L0.46 8.15C0.72 7.75 1.15 7.5 1.63 7.5L1.93 7.5C2.56 7.5 3.11 7.93 3.27 8.54C3.4 8.5 3.53 8.48 3.66 8.48L3.84 8.48C4.22 8.48 4.57 8.62 4.84 8.89C5.06 9.11 5.2 9.41 5.24 9.72C5.36 9.69 5.49 9.67 5.61 9.67L5.9 9.67C6.69 9.67 7.33 10.31 7.34 11.1L7.34 12.33C7.34 12.4 7.34 12.57 7.33 12.63L9.39 13.89C9.56 14 9.76 14.02 9.96 13.98C10.16 13.93 10.32 13.81 10.42 13.63C10.53 13.45 10.56 13.25 10.51 13.06C10.47 12.88 10.36 12.73 10.21 12.62L8.34 11.48C8.08 11.32 8 10.99 8.16 10.74C8.23 10.61 8.35 10.52 8.49 10.49C8.63 10.46 8.77 10.48 8.89 10.55L10.69 11.65C10.69 11.65 10.7 11.65 10.72 11.67C10.73 11.67 10.75 11.68 10.76 11.69L11.47 12.13C11.64 12.24 11.84 12.27 12.04 12.22C12.23 12.17 12.4 12.05 12.5 11.87C12.6 11.69 12.63 11.49 12.59 11.3C12.54 11.11 12.42 10.95 12.26 10.84L10.12 9.53L9.67 9.25C9.41 9.1 9.33 8.76 9.49 8.51C9.56 8.39 9.68 8.3 9.82 8.26C9.96 8.23 10.1 8.25 10.22 8.33L13.35 10.24C13.7 10.46 14.16 10.35 14.38 9.99C14.49 9.82 14.52 9.61 14.47 9.42C14.43 9.22 14.3 9.05 14.13 8.94L14.13 8.93ZM12.58 3.04C12.13 3.15 11.67 3.08 11.26 2.85L9.23 1.7C9 1.57 8.73 1.57 8.51 1.69L4.58 3.82L4.66 3.96C4.82 4.23 5.17 4.36 5.49 4.28L8.12 3.5C8.34 3.43 8.58 3.52 8.71 3.71L9.51 4.87C9.57 4.97 9.66 5.05 9.76 5.1L12.48 6.65C12.65 6.75 12.85 6.77 13.04 6.73L15 6.01L15 2.32L12.59 3.03L12.58 3.04Z"/>
</svg>