<svg xmlns="http://www.w3.org/2000/svg" viewBox="0 0 15 15">
  <path fill="param(fill) #888" stroke="param(outline) #000" stroke-width="param(outline-width) 0" fill-opacity="param(fill-opacity) 1" stroke-opacity="param(outline-opacity) 1" d="M7.5 6.65C8.23 6.65 9.2 6.91 9.64 7.05L12.14 7.39L15 6.76L15 8.5L13.03 8.94L13.03 13.45C13.03 13.88 12.7 14.24 12.28 14.29L12.08 14.31C11.67 14.35 10.14 14.58 7.5 14.98L3.57 14.39C3.26 14.35 3.04 14.32 2.92 14.31L2.83 14.3C2.36 14.3 1.98 13.92 1.98 13.45L1.98 8.94L0 8.5L0 6.76L2.86 7.39L5.36 7.05L5.65 6.96C6.14 6.82 6.9 6.65 7.5 6.65ZM9.63 11.33L5.38 11.33C5.02 11.33 4.74 11.61 4.74 11.96C4.74 12.31 5.02 12.6 5.38 12.6L9.63 12.6C9.98 12.6 10.26 12.31 10.26 11.96C10.26 11.61 9.98 11.33 9.63 11.33ZM9.63 9.41L5.38 9.41C5.02 9.41 4.74 9.7 4.74 10.05C4.74 10.4 5.02 10.69 5.38 10.69L9.63 10.69C9.98 10.69 10.26 10.4 10.26 10.05C10.26 9.7 9.98 9.41 9.63 9.41ZM4.53 3.89C5.26 3.89 5.8 4.34 6.14 4.76C6.49 5.19 6.72 5.68 6.83 6.02L5.62 6.43C5.54 6.2 5.38 5.85 5.15 5.56C4.91 5.27 4.7 5.16 4.53 5.16C4.35 5.16 4.14 5.27 3.9 5.56C3.67 5.85 3.51 6.2 3.43 6.43L2.22 6.02C2.33 5.68 2.56 5.19 2.91 4.76C3.25 4.34 3.79 3.89 4.53 3.89ZM10.48 3.89C11.21 3.89 11.75 4.34 12.09 4.76C12.44 5.19 12.67 5.68 12.78 6.02L11.57 6.43C11.49 6.2 11.33 5.85 11.1 5.56C10.86 5.27 10.65 5.16 10.48 5.16C10.3 5.16 10.09 5.27 9.85 5.56C9.62 5.85 9.46 6.2 9.38 6.43L8.17 6.02C8.28 5.68 8.51 5.19 8.86 4.76C9.2 4.34 9.74 3.89 10.48 3.89Z"/>
</svg>