<svg xmlns="http://www.w3.org/2000/svg" viewBox="0 0 15 15">
  <path fill="param(fill) #888" stroke="param(outline) #000" stroke-width="param(outline-width) 0" fill-opacity="param(fill-opacity) 1" stroke-opacity="param(outline-opacity) 1" d="M7.5 0C11.64 0 15 3.36 15 7.5C15 11.64 11.64 15 7.5 15C3.36 15 0 11.64 0 7.5C0 3.36 3.36 0 7.5 0ZM9.88 8.58C9.31 9.43 8.25 9.75 7.5 9.75C6.75 9.75 5.69 9.43 5.12 8.58C4.89 8.24 4.43 8.15 4.08 8.38C3.74 8.61 3.65 9.07 3.88 9.42C4.81 10.82 6.45 11.25 7.5 11.25C8.55 11.25 10.19 10.82 11.12 9.42C11.35 9.07 11.26 8.61 10.92 8.38C10.57 8.15 10.11 8.24 9.88 8.58ZM4.88 4.31C4.23 4.31 3.75 4.72 3.45 5.08C3.15 5.46 2.94 5.9 2.84 6.2L3.91 6.55C3.98 6.35 4.12 6.04 4.32 5.79C4.53 5.53 4.72 5.44 4.88 5.44C5.03 5.44 5.22 5.53 5.43 5.79C5.63 6.04 5.77 6.35 5.84 6.55L6.91 6.2C6.81 5.9 6.6 5.46 6.3 5.08C6 4.72 5.52 4.31 4.88 4.31ZM10.13 4.31C9.48 4.31 9 4.72 8.7 5.08C8.4 5.46 8.19 5.9 8.09 6.2L9.16 6.55C9.23 6.35 9.37 6.04 9.57 5.79C9.78 5.53 9.97 5.44 10.13 5.44C10.28 5.44 10.47 5.53 10.68 5.79C10.88 6.04 11.02 6.35 11.09 6.55L12.16 6.2C12.06 5.9 11.85 5.46 11.55 5.08C11.25 4.72 10.77 4.31 10.13 4.31Z"/>
</svg>