<svg xmlns="http://www.w3.org/2000/svg" viewBox="0 0 15 15">
  <path fill="param(fill) #888" stroke="param(outline) #000" stroke-width="param(outline-width) 0" fill-opacity="param(fill-opacity) 1" stroke-opacity="param(outline-opacity) 1" d="M0 7.5C0 3.36 3.36 0 7.5 0C11.64 0 15 3.36 15 7.5C15 11.64 11.64 15 7.5 15C3.36 15 0 11.64 0 7.5ZM7.5 1.5C4.19 1.5 1.5 4.19 1.5 7.5C1.5 10.81 4.19 13.5 7.5 13.5C10.81 13.5 13.5 10.81 13.5 7.5C13.5 4.19 10.81 1.5 7.5 1.5ZM3.91 6.55C3.98 6.35 4.12 6.04 4.32 5.79C4.53 5.53 4.72 5.44 4.88 5.44C5.03 5.44 5.22 5.53 5.43 5.79C5.63 6.04 5.77 6.35 5.84 6.55L6.91 6.2C6.81 5.9 6.6 5.46 6.3 5.08C6 4.72 5.52 4.31 4.88 4.31C4.23 4.31 3.75 4.72 3.45 5.08C3.15 5.46 2.94 5.9 2.84 6.2L3.91 6.55ZM9.16 6.55C9.23 6.35 9.37 6.04 9.57 5.79C9.78 5.53 9.97 5.44 10.13 5.44C10.28 5.44 10.47 5.53 10.68 5.79C10.88 6.04 11.02 6.35 11.09 6.55L12.16 6.2C12.06 5.9 11.85 5.46 11.55 5.08C11.25 4.72 10.77 4.31 10.13 4.31C9.48 4.31 9 4.72 8.7 5.08C8.4 5.46 8.19 5.9 8.09 6.2L9.16 6.55ZM7.5 6.75C8.14 6.75 9 6.98 9.38 7.1L11.59 7.41L14.46 6.77C14.87 6.68 15.19 8.14 14.79 8.23L12.38 8.77L12.38 12.75C12.38 13.16 12.04 13.5 11.63 13.5C11.49 13.5 10.11 13.7 7.5 14.1C4.89 13.7 3.51 13.5 3.38 13.5C2.96 13.5 2.63 13.16 2.63 12.75L2.63 8.77C1.85 8.6 1.27 8.47 0.88 8.38C0.66 8.33 0.76 6.82 0.88 6.84C1.44 6.97 2.28 7.16 3.41 7.41L5.62 7.1C6 6.98 6.86 6.75 7.5 6.75ZM9.38 10.88L5.63 10.88C5.31 10.88 5.06 11.13 5.06 11.44C5.06 11.75 5.31 12 5.63 12L9.38 12C9.69 12 9.94 11.75 9.94 11.44C9.94 11.13 9.69 10.88 9.38 10.88ZM9.38 9.19L5.63 9.19C5.31 9.19 5.06 9.44 5.06 9.75C5.06 10.06 5.31 10.31 5.63 10.31L9.38 10.31C9.69 10.31 9.94 10.06 9.94 9.75C9.94 9.44 9.69 9.19 9.38 9.19Z"/>
</svg>