<svg xmlns="http://www.w3.org/2000/svg" viewBox="0 0 15 15">
  <path fill="param(fill) #888" stroke="param(outline) #000" stroke-width="param(outline-width) 0" fill-opacity="param(fill-opacity) 1" stroke-opacity="param(outline-opacity) 1" d="M2.71 6.24C2.8 5.97 3 5.55 3.27 5.22C3.55 4.88 3.8 4.75 4 4.75C4.2 4.75 4.45 4.88 4.73 5.22C5 5.55 5.2 5.97 5.29 6.24L6.71 5.76C6.58 5.36 6.31 4.78 5.9 4.28C5.5 3.79 4.86 3.25 4 3.25C3.14 3.25 2.5 3.79 2.1 4.28C1.69 4.78 1.42 5.36 1.29 5.76L2.71 6.24ZM9.71 6.24C9.8 5.97 10 5.55 10.27 5.22C10.55 4.88 10.8 4.75 11 4.75C11.2 4.75 11.45 4.88 11.73 5.22C12 5.55 12.2 5.97 12.29 6.24L13.71 5.76C13.58 5.36 13.31 4.78 12.9 4.28C12.5 3.79 11.86 3.25 11 3.25C10.14 3.25 9.5 3.79 9.1 4.28C8.69 4.78 8.42 5.36 8.29 5.76L9.71 6.24ZM4.33 8.95C4.03 8.49 3.4 8.36 2.95 8.67C2.49 8.97 2.36 9.6 2.67 10.05C3.92 11.93 6.1 12.5 7.5 12.5C8.9 12.5 11.08 11.93 12.33 10.05C12.64 9.6 12.51 8.97 12.05 8.67C11.6 8.36 10.97 8.49 10.67 8.95C9.92 10.07 8.5 10.5 7.5 10.5C6.5 10.5 5.08 10.07 4.33 8.95Z"/>
</svg>