<svg xmlns="http://www.w3.org/2000/svg" viewBox="0 0 15 15">
  <path fill="param(fill) #888" stroke="param(outline) #000" stroke-width="param(outline-width) 0" fill-opacity="param(fill-opacity) 1" stroke-opacity="param(outline-opacity) 1" d="M7.5 15C3.58 15 0.37 12 0.03 8.17C0.09 8.2 0.15 8.22 0.21 8.23L2.63 8.77L2.63 12.1C2.63 12.51 2.96 12.85 3.38 12.85C3.51 12.85 4.89 13.15 7.5 13.75C10.11 13.15 11.49 12.85 11.63 12.85C12.04 12.85 12.38 12.51 12.38 12.1L12.38 8.77L14.79 8.23C14.85 8.22 14.92 8.2 14.97 8.17C14.63 12 11.42 15 7.5 15ZM9.38 10.88C9.69 10.88 9.94 11.13 9.94 11.44C9.94 11.75 9.69 12 9.38 12L5.63 12C5.32 12 5.06 11.75 5.06 11.44C5.06 11.13 5.32 10.88 5.63 10.88ZM9.38 9.19C9.69 9.19 9.94 9.44 9.94 9.75C9.94 10.06 9.69 10.31 9.38 10.31L5.63 10.31C5.32 10.31 5.06 10.06 5.06 9.75C5.06 9.44 5.32 9.19 5.63 9.19L9.38 9.19ZM7.5 0C11.42 0 14.64 3 14.97 6.84C14.82 6.76 14.64 6.73 14.46 6.77L11.6 7.41L9.39 7.1C9 6.98 8.14 6.75 7.5 6.75C6.86 6.75 6 6.98 5.62 7.1L3.41 7.41L0.54 6.77C0.36 6.73 0.18 6.76 0.03 6.83C0.37 3 3.58 0 7.5 0ZM4.88 4.31C4.23 4.31 3.75 4.72 3.45 5.08C3.15 5.46 2.94 5.9 2.84 6.2L3.91 6.55C3.98 6.35 4.12 6.04 4.32 5.79C4.53 5.53 4.72 5.44 4.88 5.44C5.03 5.44 5.22 5.53 5.43 5.79C5.63 6.04 5.78 6.35 5.84 6.55L6.91 6.2C6.81 5.9 6.61 5.46 6.3 5.08C6 4.72 5.52 4.31 4.88 4.31ZM10.13 4.31C9.48 4.31 9 4.72 8.7 5.08C8.4 5.46 8.19 5.9 8.09 6.2L9.16 6.55C9.23 6.35 9.37 6.04 9.57 5.79C9.78 5.53 9.97 5.44 10.13 5.44C10.28 5.44 10.47 5.53 10.68 5.79C10.88 6.04 11.03 6.35 11.09 6.55L12.16 6.2C12.06 5.9 11.86 5.46 11.55 5.08C11.25 4.72 10.77 4.31 10.13 4.31Z"/>
</svg>