<svg xmlns="http://www.w3.org/2000/svg" viewBox="0 0 15 15">
  <path fill="param(fill) #888" stroke="param(outline) #000" stroke-width="param(outline-width) 0" fill-opacity="param(fill-opacity) 1" stroke-opacity="param(outline-opacity) 1" d="M8 1L7.42 3.5L9.42 3.5L10 1L12 1L11.42 3.5L13.5 3.5L13.5 5.5L10.96 5.5L10.04 9.5L12.5 9.5L12.5 11.5L9.58 11.5L9 14L7 14L7.58 11.5L5.58 11.5L5 14L3 14L3.58 11.5L1.5 11.5L1.5 9.5L4.04 9.5L4.96 5.5L2.5 5.5L2.5 3.5L5.42 3.5L6 1L8 1ZM8.96 5.5L6.96 5.5L6.04 9.5L8.04 9.5L8.96 5.5Z"/>
</svg>