<svg xmlns="http://www.w3.org/2000/svg" viewBox="0 0 15 15">
  <path fill="param(fill) #888" stroke="param(outline) #000" stroke-width="param(outline-width) 0" fill-opacity="param(fill-opacity) 1" stroke-opacity="param(outline-opacity) 1" d="M11.35 8.87L11.72 8.66L12.4 9.19L13.61 9.56L14.5 10.75L15 11.5L15 12L14.61 12.5L13.56 12.6L12.88 13.18L12.35 13.91L11.46 13.34L11.46 12.13L10.88 10.71L11.46 10.19L11.72 9.66L11.35 8.87ZM9.47 7.47L10.46 7.47L11.25 7L10.25 6.21L9.26 6.32L9.05 5.79L8.73 5.9L8.57 6.42L9.05 6.9L9.31 6.74L9.47 7.47ZM6.47 5.06L6.26 5.64L7.1 5.58L7.79 5.79L8.52 5.37L7.73 5.22L6.47 5.06ZM7.1 6.27L7.47 6.53L7.42 6.84L7.79 7L8.1 6.69L7.79 6.27L7.1 6.27ZM8 8L9 7.5L9 8L8 8ZM3.25 3.75L3.83 3.8L4.25 3.28L4.77 3.91L4.82 4.33L5.24 4.33L5.24 4.59L5.51 4.8L4.88 5.01L4.51 4.75L3.72 4.8L3.25 3.75ZM0.5 3.25L0.5 3.75L0.25 4L0 4L0 3.5L0.25 3.25L0.5 3.25ZM1.55 2L2.13 2.1L2.44 2.52L2.18 2.79L2.23 3.21L1.86 3.47L1.18 3.36L0.92 3.1L0.5 2.94L0.87 2.37L1.55 2Z"/>
</svg>