<svg xmlns="http://www.w3.org/2000/svg" viewBox="0 0 15 15">
  <path fill="param(fill) #888" stroke="param(outline) #000" stroke-width="param(outline-width) 0" fill-opacity="param(fill-opacity) 1" stroke-opacity="param(outline-opacity) 1" d="M7.5 0C8.78 0 9.81 1.01 9.81 2.25L9.81 3.75L9.98 3.75C10.76 3.75 11.42 4.32 11.51 5.08L11.99 9.32C12.07 9.95 11.56 10.5 10.91 10.5C10.79 10.5 10.69 10.48 10.59 10.45L10.59 14.25C10.59 14.66 10.24 15 9.81 15L9.04 15C8.62 15 8.27 14.66 8.27 14.25L8.27 10.5L6.73 10.5L6.73 14.25C6.73 14.66 6.38 15 5.96 15L5.19 15C4.76 15 4.41 14.66 4.41 14.25L4.41 10.45C4.31 10.48 4.2 10.5 4.09 10.5C3.44 10.5 2.93 9.95 3.01 9.32L3.49 5.08C3.58 4.32 4.24 3.75 5.02 3.75L5.19 3.75L5.19 2.25C5.19 1.01 6.22 0 7.5 0ZM8 5L7 5L7 7L5 7L5 8L10 8L10 7L8 7L8 5ZM9.04 1.5L5.96 1.5L5.96 1.88C5.96 2.5 6.48 3 7.11 3L7.89 3C8.52 3 9.04 2.5 9.04 1.88L9.04 1.5Z"/>
</svg>