<svg xmlns="http://www.w3.org/2000/svg" viewBox="0 0 15 15">
  <path fill="param(fill) #888" stroke="param(outline) #000" stroke-width="param(outline-width) 0" fill-opacity="param(fill-opacity) 1" stroke-opacity="param(outline-opacity) 1" d="M7.46 0.98C7.43 0.98 7.4 1 7.39 1.02L7.14 1.41C7.13 1.43 7.13 1.46 7.13 1.48L7.3 2.08C7.22 2.02 7.13 1.97 7.02 1.98C6.88 1.99 6.78 2.09 6.69 2.18C6.61 2.27 6.55 2.36 6.55 2.36C6.5 2.43 6.57 2.53 6.66 2.49C6.66 2.49 6.73 2.46 6.82 2.43C6.91 2.4 7.03 2.37 7.07 2.37C7.11 2.36 7.2 2.4 7.27 2.45C7.35 2.5 7.35 2.83 7.47 2.83C7.59 2.82 7.59 2.5 7.67 2.45C7.74 2.4 7.83 2.36 7.87 2.37C7.9 2.37 8.03 2.4 8.12 2.43C8.21 2.46 8.28 2.49 8.28 2.49C8.36 2.53 8.44 2.43 8.39 2.36C8.39 2.36 8.33 2.27 8.25 2.18C8.16 2.09 8.06 1.99 7.92 1.98C7.81 1.97 7.72 2.02 7.63 2.08L7.8 1.48C7.81 1.46 7.81 1.43 7.8 1.41L7.55 1.02C7.53 0.99 7.49 0.97 7.46 0.98ZM4.68 2.1C4.27 2.13 3.86 2.23 3.5 2.39C2.04 3.06 1.21 4.82 2.27 6.65C2.43 6.93 2.65 7.22 2.87 7.52C2.78 7.51 2.68 7.51 2.59 7.5C2.44 7.5 2.29 7.51 2.15 7.52C1.65 7.57 1.32 7.7 1.27 7.72C1.27 7.71 1.24 7.69 1.24 7.68C1.24 7.64 1.24 7.51 1.24 7.42C1.25 7.33 1.26 7.25 1.26 7.25C1.27 7.16 1.16 7.11 1.1 7.18C1.1 7.18 1.03 7.26 0.97 7.36C0.9 7.47 0.83 7.59 0.85 7.73C0.87 7.84 0.95 7.92 1.03 7.98L0.4 7.97C0.38 7.97 0.35 7.98 0.34 8L0.03 8.34C-0.01 8.37 -0.01 8.46 0.07 8.49L0.5 8.63C0.53 8.64 0.56 8.63 0.58 8.62L1.11 8.3C1.08 8.39 1.05 8.5 1.09 8.6C1.13 8.73 1.26 8.81 1.37 8.86C1.48 8.92 1.58 8.96 1.58 8.96C1.66 8.99 1.73 8.89 1.68 8.82C1.68 8.82 1.63 8.76 1.58 8.68C1.53 8.6 1.46 8.49 1.45 8.45C1.44 8.43 1.46 8.36 1.47 8.3C1.5 8.29 2.57 7.91 3.55 8.34C3.63 8.43 3.71 8.52 3.8 8.61C3.72 8.6 3.66 8.59 3.58 8.59C2.09 8.59 0.86 9.81 0.86 11.31C0.86 12.8 2.14 14.02 3.58 14.02C5.03 14.02 6.11 12.96 6.27 11.61L7.04 11.61C7.28 11.81 7.65 11.81 7.9 11.61L9.12 11.61C9.28 12.96 10.36 14.02 11.81 14.02C13.25 14.02 14.52 12.8 14.52 11.31C14.52 9.81 13.3 8.59 11.81 8.59C11.54 8.59 11.29 8.64 11.05 8.71C11.26 8.48 11.47 8.25 11.67 8.02C12.58 7.78 13.46 8.13 13.46 8.13C13.51 8.15 13.55 8.16 13.59 8.16C13.59 8.19 13.59 8.24 13.58 8.25C13.56 8.28 13.47 8.37 13.4 8.44C13.33 8.5 13.27 8.55 13.27 8.55C13.2 8.6 13.24 8.72 13.33 8.71C13.33 8.71 13.44 8.7 13.56 8.67C13.67 8.64 13.81 8.61 13.89 8.49C13.96 8.4 13.96 8.29 13.95 8.19L14.38 8.64C14.4 8.66 14.42 8.67 14.45 8.67L14.91 8.65C14.99 8.64 15.02 8.55 14.99 8.51L14.78 8.1C14.76 8.08 14.74 8.07 14.72 8.06L14.11 7.91C14.21 7.86 14.3 7.81 14.35 7.71C14.41 7.58 14.37 7.44 14.33 7.33C14.3 7.21 14.25 7.11 14.25 7.11C14.21 7.03 14.09 7.05 14.08 7.14C14.08 7.14 14.07 7.22 14.05 7.31C14.03 7.4 14 7.53 13.98 7.56C13.97 7.59 13.9 7.63 13.84 7.67C13.8 7.62 13.76 7.59 13.7 7.57C13.7 7.57 13.33 7.41 12.79 7.34C12.65 7.32 12.51 7.31 12.35 7.31C12.31 7.31 12.27 7.32 12.23 7.32C12.39 7.09 12.54 6.86 12.67 6.65C13.72 4.82 12.9 3.06 11.44 2.39C10.21 1.83 8.58 2.11 7.47 3.29C6.69 2.46 5.67 2.04 4.68 2.1ZM6.45 4.14C6.9 4.14 7.3 4.38 7.5 4.75C7.7 4.38 8.1 4.14 8.55 4.14C9.19 4.14 9.71 4.63 9.71 5.01L9.71 7.39C9.71 7.67 9.51 7.9 9.25 7.9L5.75 7.9C5.49 7.9 5.29 7.67 5.29 7.39C5.29 7.39 5.29 5.04 5.29 5.01C5.29 4.63 5.81 4.14 6.45 4.14ZM3.58 9.35C3.83 9.35 4.06 9.41 4.28 9.49L3.58 10.69L2.89 9.49C3.1 9.4 3.34 9.35 3.58 9.35ZM11.81 9.35C12.01 9.35 12.2 9.39 12.38 9.45L11.66 10.69L11 9.54C11.24 9.42 11.52 9.35 11.81 9.35ZM12.94 9.72C13.35 10.01 13.64 10.47 13.73 11L12.2 11L12.94 9.72ZM4.81 9.8C5.17 10.09 5.43 10.51 5.5 11L4.12 11L4.81 9.8ZM2.36 9.8L3.05 11L1.66 11C1.74 10.51 1.99 10.09 2.36 9.8ZM10.48 9.88L11.13 11L9.89 11C9.96 10.56 10.17 10.17 10.48 9.88ZM9.24 10.46C9.18 10.63 9.14 10.81 9.12 11L8.63 11C8.82 10.83 9.03 10.65 9.24 10.46ZM1.66 11.61L3.05 11.61L2.36 12.82C1.99 12.52 1.74 12.1 1.66 11.61ZM4.11 11.61L5.5 11.61C5.43 12.1 5.17 12.52 4.81 12.82L4.11 11.61ZM9.89 11.61L11.13 11.61L10.48 12.74C10.17 12.45 9.96 12.06 9.89 11.61ZM12.19 11.61L13.73 11.61C13.64 12.14 13.35 12.6 12.94 12.9L12.19 11.61ZM3.58 11.92L4.28 13.13C4.06 13.21 3.83 13.26 3.58 13.26C3.34 13.26 3.1 13.21 2.89 13.13L3.58 11.92ZM11.66 11.92L12.38 13.16C12.2 13.22 12.01 13.26 11.81 13.26C11.52 13.26 11.24 13.19 11 13.08L11.66 11.92Z"/>
</svg>