<svg xmlns="http://www.w3.org/2000/svg" viewBox="0 0 15 15">
  <path fill="param(fill) #888" stroke="param(outline) #000" stroke-width="param(outline-width) 0" fill-opacity="param(fill-opacity) 1" stroke-opacity="param(outline-opacity) 1" d="M1.22 0.9C2.39 0.22 3.88 0.62 4.55 1.79C5.05 2.66 4.96 3.7 4.4 4.46L8.17 10.98C8.98 12.38 10.77 12.86 12.17 12.05C13.01 11.56 13.3 10.49 12.81 9.65C12.76 9.55 12.48 9.34 11.98 9.01L11.59 8.76L10.98 8.37L10.07 5.25L11.04 5.96L12.75 7.2L13.31 7.62C13.91 8.05 14.28 8.38 14.45 8.59L14.5 8.67C15.53 10.44 14.92 12.71 13.14 13.74C10.81 15.09 7.82 14.29 6.48 11.95L2.71 5.44C1.78 5.54 0.83 5.1 0.33 4.23C-0.35 3.06 0.05 1.57 1.22 0.9ZM1.95 2.17C1.49 2.44 1.33 3.03 1.6 3.5C1.87 3.97 2.46 4.13 2.93 3.86C3.4 3.59 3.56 2.99 3.29 2.52C3.02 2.06 2.42 1.9 1.95 2.17Z"/>
</svg>