<svg xmlns="http://www.w3.org/2000/svg" viewBox="0 0 15 15">
  <path fill="param(fill) #888" stroke="param(outline) #000" stroke-width="param(outline-width) 0" fill-opacity="param(fill-opacity) 1" stroke-opacity="param(outline-opacity) 1" d="M7.5 2C7.75 2 7.95 2.18 7.99 2.41L8 2.5C8 2.78 7.78 3 7.5 3L7 3L7 4L13 4C14.33 4.67 15 5.83 15 7.5C15 9.17 14.33 10.33 13 11C12.63 11 12.3 11 12 11L12 13L10 13L10 11L5 11L5 13L3 13L3 11L2 11C0.67 10.33 0 9.17 0 7.5C0 5.83 0.67 4.67 2 4L4 4L4 3L3.5 3C3.22 3 3 2.78 3 2.5C3 2.22 3.22 2 3.5 2L7.5 2Z"/>
</svg>