<svg xmlns="http://www.w3.org/2000/svg" viewBox="0 0 15 15">
  <path fill="param(fill) #888" stroke="param(outline) #000" stroke-width="param(outline-width) 0" fill-opacity="param(fill-opacity) 1" stroke-opacity="param(outline-opacity) 1" d="M14.22 4.32C15 5.1 15 6.37 14.22 7.15L7.15 14.22C6.37 15 5.1 15 4.32 14.22L14.22 4.32ZM14.22 0.78C14.8 1.37 14.8 2.32 14.22 2.9L2.9 14.22C2.32 14.8 1.37 14.8 0.78 14.22C0.2 13.63 0.2 12.68 0.78 12.1L12.1 0.78C12.68 0.2 13.63 0.2 14.22 0.78ZM10.68 0.78L10.68 0.78L0.78 10.68C0 9.9 0 8.63 0.78 7.85L7.85 0.78C8.63 0 9.9 0 10.68 0.78Z"/>
</svg>