<svg xmlns="http://www.w3.org/2000/svg" viewBox="0 0 15 15">
  <path fill="param(fill) #888" stroke="param(outline) #000" stroke-width="param(outline-width) 0" fill-opacity="param(fill-opacity) 1" stroke-opacity="param(outline-opacity) 1" d="M7.5 11.5C7.82 11.5 8.14 11.61 8.39 11.81L8.7 12.06C8.74 12.1 8.78 12.13 8.83 12.15C8.83 12.16 8.84 12.16 8.84 12.17L8.98 12.25C9.28 12.41 9.61 12.5 9.95 12.5L10.05 12.5C10.5 12.5 10.94 12.35 11.3 12.06L11.61 11.81C11.65 11.78 11.69 11.75 11.74 11.72C11.75 11.71 11.77 11.7 11.78 11.7C11.81 11.68 11.84 11.66 11.86 11.65C11.89 11.64 11.92 11.62 11.95 11.61C11.97 11.6 11.99 11.6 12 11.59C12.03 11.58 12.06 11.57 12.09 11.56C12.11 11.55 12.13 11.55 12.15 11.54C12.18 11.54 12.2 11.53 12.23 11.53C12.25 11.52 12.26 11.52 12.28 11.52C12.35 11.51 12.42 11.5 12.5 11.5C12.82 11.5 13.14 11.61 13.39 11.81L13.71 12.07C14.06 12.35 14.49 12.5 14.95 12.5L15 12.5L15 14L14.95 14C14.49 14 14.06 13.84 13.71 13.56L13.39 13.31C13.14 13.11 12.82 13 12.5 13C12.18 13 11.86 13.11 11.61 13.31L11.3 13.56C10.94 13.84 10.5 14 10.05 14L9.95 14C9.5 14 9.06 13.84 8.7 13.56L8.39 13.31C8.14 13.11 7.82 13 7.5 13C7.18 13 6.86 13.11 6.61 13.31L6.3 13.56C5.94 13.84 5.5 14 5.05 14L4.95 14C4.5 14 4.06 13.84 3.7 13.56L3.39 13.31C3.14 13.11 2.82 13 2.5 13C2.18 13 1.86 13.11 1.61 13.31L1.29 13.56C0.94 13.84 0.51 14 0.05 14L0 14L0 12.5L0.05 12.5C0.51 12.5 0.94 12.35 1.29 12.07L1.61 11.81C1.86 11.61 2.18 11.5 2.5 11.5C2.62 11.5 2.73 11.52 2.85 11.55L2.7 11.52C2.77 11.53 2.83 11.54 2.9 11.56C2.93 11.57 2.96 11.58 2.99 11.59C3.01 11.6 3.04 11.61 3.06 11.62C3.09 11.63 3.11 11.64 3.13 11.65C3.15 11.66 3.17 11.67 3.19 11.68C3.26 11.72 3.33 11.76 3.39 11.81L3.7 12.06C4.06 12.35 4.5 12.5 4.95 12.5L5.05 12.5C5.5 12.5 5.94 12.35 6.3 12.06L6.61 11.81C6.86 11.61 7.18 11.5 7.5 11.5ZM13 9L13 10.32C12.99 10.33 12.95 10.4 12.86 10.53C12.75 10.51 12.62 10.5 12.5 10.5C11.95 10.5 11.42 10.69 10.98 11.03L10.67 11.28C10.5 11.42 10.28 11.5 10.05 11.5L9.95 11.5C9.72 11.5 9.5 11.42 9.33 11.28L9.01 11.03C8.58 10.69 8.05 10.5 7.5 10.5C6.95 10.5 6.42 10.69 5.99 11.03L5.67 11.28C5.5 11.42 5.28 11.5 5.05 11.5L4.95 11.5C4.72 11.5 4.5 11.42 4.33 11.28L4.01 11.03C3.58 10.69 3.05 10.5 2.5 10.5C2.39 10.5 2.27 10.51 2.16 10.53C2.09 10.42 2.04 10.35 2 10.32L2 9L13 9ZM12 4L12 8.5L9 8.5L9 6L6 6L6 8.5L3 8.5L3 4L12 4ZM11 0L11 1.43C11.65 1.58 12.31 1.77 13 2L13 3.5L2 3.5L2 2C4 1.33 5.83 1 7.5 1C7.99 1 8.49 1.03 9 1.08L9 0L11 0Z"/>
</svg>