<svg xmlns="http://www.w3.org/2000/svg" viewBox="0 0 15 15">
  <path fill="param(fill) #888" stroke="param(outline) #000" stroke-width="param(outline-width) 0" fill-opacity="param(fill-opacity) 1" stroke-opacity="param(outline-opacity) 1" d="M8.62 0.58C8.8 0.62 8.94 0.76 8.99 0.94L9.84 4.38C9.91 4.65 9.75 4.92 9.48 4.99L9.42 5L9 5L9 6.47L9.07 6.5L9.92 6.9C10.02 6.95 10.12 6.99 10.22 7.03L11 7.32L11 6L10.64 6C10.36 6 10.14 5.78 10.14 5.5C10.14 5.46 10.15 5.42 10.16 5.38L11.02 1.94C11.08 1.67 11.36 1.51 11.62 1.58C11.8 1.62 11.94 1.76 11.99 1.94L12.84 5.38C12.91 5.65 12.75 5.92 12.48 5.99L12.42 6L12 6L12 7.69L12.49 7.88C12.71 7.96 12.91 8.08 13.08 8.22L13.41 8.5C13.78 8.82 14 9.28 14 9.77L14 10.52L13.85 10.41C13.45 10.15 12.98 10 12.5 10C11.95 10 11.42 10.19 10.98 10.53L10.67 10.78C10.5 10.92 10.28 11 10.05 11L9.95 11C9.72 11 9.5 10.92 9.33 10.78L9.01 10.53C8.58 10.19 8.05 10 7.5 10C6.95 10 6.42 10.19 5.99 10.53L5.67 10.78C5.5 10.92 5.28 11 5.05 11L4.95 11C4.72 11 4.5 10.92 4.33 10.78L4.01 10.53C3.58 10.19 3.05 10 2.5 10C2.12 10 1.74 10.09 1.4 10.27L1.51 10.07C2.09 9.31 2.59 8.81 3 8.58L3 6.5L6 6.5L6 7.93C6.32 7.79 6.74 7.44 7.27 6.86C7.47 6.64 7.72 6.49 8 6.41L8 5L7.64 5C7.36 5 7.14 4.78 7.14 4.5C7.14 4.46 7.15 4.42 7.16 4.38L8.02 0.94C8.08 0.67 8.36 0.51 8.62 0.58ZM4.5 3L7 6L2 6L4.5 3ZM6.3 13.06L6.61 12.81C6.86 12.61 7.18 12.5 7.5 12.5C7.82 12.5 8.14 12.61 8.39 12.81L8.7 13.06C9.06 13.34 9.5 13.5 9.95 13.5L10.05 13.5C10.5 13.5 10.94 13.34 11.3 13.06L11.61 12.81C11.86 12.61 12.18 12.5 12.5 12.5C12.82 12.5 13.14 12.61 13.39 12.81L13.71 13.06C14.06 13.34 14.49 13.5 14.95 13.5L15 13.5L15 12L14.95 12C14.49 12 14.06 11.85 13.71 11.57L13.39 11.31C13.14 11.11 12.82 11 12.5 11C12.18 11 11.86 11.11 11.61 11.31L11.3 11.56C10.94 11.85 10.5 12 10.05 12L9.95 12C9.5 12 9.06 11.85 8.7 11.56L8.39 11.31C8.14 11.11 7.82 11 7.5 11C7.18 11 6.86 11.11 6.61 11.31L6.3 11.56C5.94 11.85 5.5 12 5.05 12L4.95 12C4.5 12 4.06 11.85 3.7 11.56L3.39 11.31C3.14 11.11 2.82 11 2.5 11C2.18 11 1.86 11.11 1.61 11.31L1.29 11.57C0.99 11.81 0.61 11.96 0.22 12L0 12L0 13.5L0.05 13.5C0.51 13.5 0.94 13.34 1.29 13.06L1.61 12.81C1.86 12.61 2.18 12.5 2.5 12.5C2.82 12.5 3.14 12.61 3.39 12.81L3.7 13.06C4.06 13.34 4.5 13.5 4.95 13.5L5.05 13.5C5.5 13.5 5.94 13.34 6.3 13.06Z"/>
</svg>