<svg xmlns="http://www.w3.org/2000/svg" viewBox="0 0 15 15">
  <path fill="param(fill) #888" stroke="param(outline) #000" stroke-width="param(outline-width) 0" fill-opacity="param(fill-opacity) 1" stroke-opacity="param(outline-opacity) 1" d="M9 0.5L7 1.5L7 5.27L2 8L2 15L13 15L13 8L8 5.27L8 4L9 3.5L11 4.5L13 3.5L13 0.5L11 1.5L9 0.5ZM7.5 7C8.05 7 8.5 7.45 8.5 8C8.5 8.55 8.05 9 7.5 9C6.95 9 6.5 8.55 6.5 8C6.5 7.45 6.95 7 7.5 7ZM5.5 9.5L8.25 9.5L8.25 12.75L9.5 14L5.5 14L6.75 12.75L6.75 10.75L5.5 9.5Z"/>
</svg>