<svg xmlns="http://www.w3.org/2000/svg" viewBox="0 0 15 15">
  <path fill="param(fill) #888" stroke="param(outline) #000" stroke-width="param(outline-width) 0" fill-opacity="param(fill-opacity) 1" stroke-opacity="param(outline-opacity) 1" d="M4 3.5L4 5L3 5L3 10L4 10L4 11.5L0.5 11.5L0.5 10L1.5 10L1.5 5L0.5 5L0.5 3.5L4 3.5ZM7.25 3.5C8.69 3.5 9.32 4.46 9.75 5.75L8.33 6.22C8.1 5.53 8.02 5 7.25 5C6.28 5 6 5.78 6 6.75L6 8.25C6 9.22 6.28 10 7.25 10C8.02 10 8.1 9.47 8.33 8.78L9.75 9.25C9.32 10.54 8.69 11.5 7.25 11.5C5.46 11.5 4.5 10.04 4.5 8.25L4.5 6.75C4.5 4.96 5.46 3.5 7.25 3.5ZM10.5 11.5L10.5 3.5L14.5 3.5L14.5 5L12 5L12 6.5L14 6.5L14 8L12 8L12 10L14.5 10L14.5 11.5L10.5 11.5Z"/>
</svg>