<svg xmlns="http://www.w3.org/2000/svg" viewBox="0 0 15 15">
  <path fill="param(fill) #888" stroke="param(outline) #000" stroke-width="param(outline-width) 0" fill-opacity="param(fill-opacity) 1" stroke-opacity="param(outline-opacity) 1" d="M4 0L4 1.5L3 1.5L3 6.5L4 6.5L4 8L0.5 8L0.5 6.5L1.5 6.5L1.5 1.5L0.5 1.5L0.5 0L4 0ZM7.25 0C8.69 0 9.32 0.96 9.75 2.25L8.33 2.72C8.1 2.03 8.02 1.5 7.25 1.5C6.28 1.5 6 2.28 6 3.25L6 4.75C6 5.72 6.28 6.5 7.25 6.5C8.02 6.5 8.1 5.97 8.33 5.28L9.75 5.75C9.32 7.04 8.69 8 7.25 8C5.46 8 4.5 6.54 4.5 4.75L4.5 3.25C4.5 1.46 5.46 0 7.25 0ZM10.5 8L10.5 0L14.5 0L14.5 1.5L12 1.5L12 3L14 3L14 4.5L12 4.5L12 6.5L14.5 6.5L14.5 8L10.5 8ZM15 9L0 9L0.86 12.86L1.61 10.93L2.68 10.39L3.75 15L4.82 10.5L5.68 11.25L6.11 13.18C6.11 13.18 6.86 10.5 6.86 10.61C6.86 10.71 8.04 10.39 8.04 10.39L9.11 14.25L10.29 10.29L11.25 11.89L12.21 9.86L13.29 12.86L15 9Z"/>
</svg>