<svg xmlns="http://www.w3.org/2000/svg" viewBox="0 0 15 15">
  <path fill="param(fill) #888" stroke="param(outline) #000" stroke-width="param(outline-width) 0" fill-opacity="param(fill-opacity) 1" stroke-opacity="param(outline-opacity) 1" d="M7.04 0.84C7.73 0.84 7.83 1.14 7.83 1.46V2.65H6.33V3.42H7.83C7.84 3.73 7.86 4 7.9 4.25L6.5 4.87L6.8 5.58L8.1 5.03C8.19 5.29 8.35 5.57 8.53 5.79L7.53 6.89L8.11 7.42L9.08 6.32C9.3 6.57 9.61 6.7 9.88 6.87L9.33 8.37L10.06 8.62L10.58 7.21C10.99 7.41 11.41 7.57 11.88 7.74L11.35 9.13L12.08 9.4L12.59 8.01C13.44 8.29 14 8.86 14.51 9.55C14.79 10.11 14.8 10.86 14.52 11.36C15.24 12.07 15.11 14.15 13.32 14.15L0.32 14.1C-0.02 14.1 0 13.71 0.31 13.62L2.81 13.23C3.03 13.18 3.32 13.04 3.32 12.71V12.1H2.22C1.43 12.1 0.32 10.1 0.32 8.29C0.33 7.38 0.42 6.59 0.78 5.89C1.13 5.25 1.35 4.59 1.34 4.09V2.29C1.34 1.71 1.67 1.74 2.11 1.62C3.75 1.36 5.4 1.09 7.04 0.84ZM5.24 10.85L4.84 11.28V12.18H4.02V12.71C4.02 13.03 4.26 13.27 4.56 13.27H8.36C8.66 13.27 8.9 13.03 8.9 12.71C8.9 12.4 8.66 12.18 8.36 12.18H7.74ZM9.84 12.14L9.83 12.68C9.83 12.99 10.08 13.23 10.38 13.23H12.48C12.78 13.23 13.02 12.99 13.02 12.68C13.02 12.38 12.78 12.14 12.48 12.14Z"/>
</svg>