<svg xmlns="http://www.w3.org/2000/svg" viewBox="0 0 15 15">
  <path fill="param(fill) #888" stroke="param(outline) #000" stroke-width="param(outline-width) 0" fill-opacity="param(fill-opacity) 1" stroke-opacity="param(outline-opacity) 1" d="M13.33 2.5L8.5 2.5L8.5 4L6.5 4L6.5 2.5L1.67 2.5C0.75 2.5 0 3.25 0 4.17L0 10.84C0 11.75 0.75 12.5 1.66 12.5L13.34 12.5C14.26 12.5 15 11.75 15 10.84L15 4.17C15 3.25 14.25 2.5 13.33 2.5ZM4.51 5C5.34 5.01 6 5.68 6 6.51C6 6.91 5.84 7.29 5.55 7.57C5.27 7.85 4.89 8 4.49 8C4.09 8 3.71 7.84 3.43 7.55C3.15 7.27 3 6.89 3 6.49C3 6.09 3.16 5.71 3.45 5.43C3.73 5.15 4.11 5 4.51 5L4.51 5ZM7.17 11L2 11L2 10.48C2 9.84 2.55 9 3.21 9L6 9C6.66 9 7.17 9.84 7.17 10.48L7.17 11ZM12.5 6L9.5 6C9.22 6 9 5.78 9 5.5C9 5.22 9.22 5 9.5 5L12.5 5C12.78 5 13 5.22 13 5.5C13 5.78 12.78 6 12.5 6ZM12.5 8L9.5 8C9.22 8 9 7.78 9 7.5C9 7.22 9.22 7 9.5 7L12.5 7C12.78 7 13 7.22 13 7.5C13 7.78 12.78 8 12.5 8ZM11.5 10L9.5 10C9.22 10 9 9.78 9 9.5C9 9.22 9.22 9 9.5 9L11.5 9C11.78 9 12 9.22 12 9.5C12 9.78 11.78 10 11.5 10Z"/>
</svg>