<svg xmlns="http://www.w3.org/2000/svg" viewBox="0 0 15 15">
  <path fill="param(fill) #888" stroke="param(outline) #000" stroke-width="param(outline-width) 0" fill-opacity="param(fill-opacity) 1" stroke-opacity="param(outline-opacity) 1" d="M11.5 0L11.5 10L11 10.5L11.5 11L11.49 11.55L10.77 12L10 12L10 12.75L8.73 13.62L8.73 14.3L8.13 14.64L7.51 14.3L7.51 13.79L6.66 14.3L6.66 15L5.74 14.64L4.69 15L3.62 14.64L2 15L2 13.62L3.5 11.98L3.5 10.96L3 10.25L3.5 9.5L3.5 0.5L4.34 0.75L5.18 0.53L6 0L11.5 0ZM7.5 5.92L7.14 7.01L6 7.01L6.92 7.76L6.5 9L7.5 8.25L8.5 9L8.08 7.76L9 7.01L7.86 7.01L7.5 5.92Z"/>
</svg>