<svg xmlns="http://www.w3.org/2000/svg" viewBox="0 0 15 15">
  <path fill="param(fill) #888" stroke="param(outline) #000" stroke-width="param(outline-width) 0" fill-opacity="param(fill-opacity) 1" stroke-opacity="param(outline-opacity) 1" d="M12.53 3L12.93 3.76L12.53 4.31L13.08 5.13L14.09 5.74L14.49 6.65L15 7L15 8L14.7 8.25L14.7 8.76L13.23 9.52L12.93 9.97L13.23 10.47L13.23 11.03L12.93 11.38L12.76 11.8L12 12L12 13L11.75 13L11 12L2 12L1.26 8.86L1.26 7.9L0 5.42L0.4 4.01L0 3.76L0 3L12.53 3ZM7.5 6.92L7.14 8.01L6 8.01L6.92 8.76L6.5 10L7.5 9.25L8.5 10L8.08 8.76L9 8.01L7.86 8.01L7.5 6.92Z"/>
</svg>