<svg xmlns="http://www.w3.org/2000/svg" viewBox="0 0 15 15">
  <path fill="param(fill) #888" stroke="param(outline) #000" stroke-width="param(outline-width) 0" fill-opacity="param(fill-opacity) 1" stroke-opacity="param(outline-opacity) 1" d="M3.56 3.41C3.97 3.41 4.34 3.29 4.7 3.36L5.87 5L9.13 5L10.29 3.37C10.68 3.31 11.09 3.41 11.49 3.41C12.37 3.41 13.16 3.87 13.88 4.78C14.63 5.73 15 6.85 15 8.15C15 8.47 14.98 8.81 14.93 9.14C14.7 10.47 14.08 11.65 13.05 12.65C12.12 13.55 11.26 14 10.45 14C10.03 14 9.64 13.79 9.27 13.37C8.64 13.79 8.03 14 7.46 14C6.92 14 6.35 13.8 5.74 13.41C5.38 13.8 5 14 4.58 14C3.8 14 2.95 13.55 2.04 12.65C1.04 11.65 0.4 10.48 0.13 9.14C0.04 8.78 0 8.42 0 8.04C0 6.8 0.38 5.71 1.15 4.76C1.89 3.86 2.69 3.41 3.56 3.41ZM12 10L10 10.5L9 11.5L8 10.5L3 10L5 12L6 11L7 12L10 12L12 10ZM7.5 7.5L6 9L9 9L7.5 7.5ZM3 6L3.5 8.25L6 7L3 6ZM12 6L9 7L11.5 8.25L12 6ZM8 0.5L8.98 1.21C8.55 1.49 8.23 1.86 8.03 2.32C7.95 2.52 7.9 2.73 7.87 2.94C8.51 3.02 9.11 3.26 9.66 3.67L9.53 3.58L8.87 4.5L6.13 4.5L5.42 3.5C5.74 3.3 6.09 3.15 6.46 3.05C6.54 1.87 7.05 1.02 8 0.5Z"/>
</svg>