<svg xmlns="http://www.w3.org/2000/svg" viewBox="0 0 15 15">
  <path fill="param(fill) #888" stroke="param(outline) #000" stroke-width="param(outline-width) 0" fill-opacity="param(fill-opacity) 1" stroke-opacity="param(outline-opacity) 1" d="M1.02 0.69C0.96 0.69 0.13 1.34 0.13 1.34C-0.01 1.46 -0.03 1.67 0.05 1.76L3.63 6.01C4.06 6.46 4.33 7.05 4.38 7.67L4.18 9.76C4.17 10.31 4.39 10.84 4.79 11.22C7.33 13.82 11.11 14.78 13.01 14.16C14.9 13.53 14.98 13.42 15 13.29L14.88 12.73C14.84 12.59 14.73 12.49 12.74 12.5C10.75 12.51 7.39 10.17 6.15 6.63C6.02 6.33 5.84 6.05 5.63 5.8L1.39 0.8C1.32 0.69 1.2 0.63 1.02 0.69ZM11.5 5.96C10.7 5.96 10.04 6.62 10.04 7.43C10.04 8.25 10.7 8.9 11.5 8.9C12.32 8.9 12.97 8.25 12.97 7.43C12.97 6.62 12.32 5.96 11.5 5.96Z"/>
</svg>