<svg xmlns="http://www.w3.org/2000/svg" viewBox="0 0 15 15">
  <path fill="param(fill) #888" stroke="param(outline) #000" stroke-width="param(outline-width) 0" fill-opacity="param(fill-opacity) 1" stroke-opacity="param(outline-opacity) 1" d="M5.65 0.05C5.67 0.06 5.69 0.09 5.71 0.11C7.24 2.42 8 4.88 8 7.5C8 9.98 7.31 12.32 5.94 14.53L5.7 14.89C5.62 15.01 5.47 15.03 5.35 14.95C5.33 14.94 5.31 14.91 5.29 14.89C3.76 12.58 3 10.12 3 7.5C3 5.02 3.69 2.68 5.06 0.47L5.3 0.11C5.38 -0.01 5.53 -0.03 5.65 0.05ZM5.82 5.5L5.18 5.5C4.96 5.5 4.77 5.65 4.71 5.86L4.64 6.1C4.55 6.51 4.5 6.98 4.5 7.5C4.5 8.13 4.57 8.68 4.71 9.14C4.77 9.35 4.96 9.5 5.18 9.5L5.82 9.5C6.04 9.5 6.23 9.35 6.29 9.14L6.36 8.9C6.45 8.49 6.5 8.02 6.5 7.5C6.5 6.87 6.43 6.32 6.29 5.86C6.23 5.65 6.04 5.5 5.82 5.5ZM11 0.5C11.55 0.5 12 0.95 12 1.5L12 1.82C12 2.6 11.82 3.36 11.47 4.06L11 5L11 10L11.47 10.94C11.82 11.64 12 12.4 12 13.18L12 13.5C12 14.05 11.55 14.5 11 14.5L10 14.5C9.45 14.5 9 14.05 9 13.5L9 13.18C9 12.4 9.18 11.64 9.53 10.94L10 10L10 5L9.53 4.06C9.18 3.36 9 2.6 9 1.82L9 1.5C9 0.95 9.45 0.5 10 0.5L11 0.5Z"/>
</svg>