<svg xmlns="http://www.w3.org/2000/svg" viewBox="0 0 15 15">
  <path fill="param(fill) #888" stroke="param(outline) #000" stroke-width="param(outline-width) 0" fill-opacity="param(fill-opacity) 1" stroke-opacity="param(outline-opacity) 1" d="M2.91 0.79L3.49 1.37C4.04 1.92 4.45 2.59 4.7 3.32L5.03 4.32L10.68 9.97L11.68 10.3C12.41 10.55 13.08 10.96 13.63 11.51L14.21 12.09C14.6 12.48 14.6 13.11 14.21 13.5L13.5 14.21C13.11 14.6 12.48 14.6 12.09 14.21L11.51 13.63C10.96 13.08 10.55 12.41 10.3 11.68L9.97 10.68L4.32 5.03L3.32 4.7C2.59 4.45 1.92 4.04 1.37 3.49L0.79 2.91C0.4 2.52 0.4 1.89 0.79 1.5L1.5 0.79C1.89 0.4 2.52 0.4 2.91 0.79ZM4.35 6.11L5.75 7.52C5.56 7.77 5.39 8.03 5.26 8.28C5.12 8.53 5.17 8.84 5.37 9.05L5.95 9.63C6.15 9.83 6.47 9.88 6.72 9.74L7 9.58C7.16 9.48 7.32 9.37 7.48 9.24L8.89 10.65C6.78 12.47 4.3 13.71 1.44 14.37L0.88 14.49C0.7 14.52 0.53 14.4 0.5 14.22C0.5 14.18 0.5 14.14 0.51 14.1C1.14 11.01 2.42 8.34 4.35 6.11ZM14.5 0.77C14.5 0.81 14.5 0.85 14.49 0.89C13.86 3.99 12.58 6.65 10.65 8.89L9.24 7.48C9.44 7.22 9.6 6.97 9.74 6.72C9.88 6.46 9.83 6.15 9.63 5.94L9.05 5.36C8.85 5.16 8.53 5.12 8.28 5.25L8 5.42C7.84 5.52 7.68 5.63 7.51 5.75L6.11 4.35C8.21 2.53 10.7 1.29 13.56 0.62L14.12 0.51C14.3 0.47 14.47 0.59 14.5 0.77Z"/>
</svg>