<svg xmlns="http://www.w3.org/2000/svg" viewBox="0 0 15 15">
  <path fill="param(fill) #888" stroke="param(outline) #000" stroke-width="param(outline-width) 0" fill-opacity="param(fill-opacity) 1" stroke-opacity="param(outline-opacity) 1" d="M10 3.5L10.68 4.22L11.21 4.29L11.63 4.61L11.99 4.45L12.49 4.81L13.21 4.29L13.67 5.15L13.67 5.95L14.5 7L15 7.5L13.75 9.5L13.5 10L11.63 10.5L2.8 10.5L2.8 11L0 11L0 10.75L0.5 10.5L0.93 9.87L0.44 9.55L0.93 8.98L1.98 9.28L1.98 8.49L2.75 8L2.57 7.37L2.99 6.81L3.86 6.44L4.57 6.81L5.35 6.44L5.71 6.81L6.28 5.95L6.93 6.49L7.23 5.95L8.17 5.15L8.05 4.45L8.34 4.29L8.57 4.45L9.33 4.22L9.5 3.5L10 3.5ZM9.5 4.92L9.14 6.01L8 6.01L8.92 6.76L8.5 8L9.5 7.25L10.5 8L10.08 6.76L11 6.01L9.86 6.01L9.5 4.92Z"/>
</svg>