<svg xmlns="http://www.w3.org/2000/svg" viewBox="0 0 15 15">
  <path fill="param(fill) #888" stroke="param(outline) #000" stroke-width="param(outline-width) 0" fill-opacity="param(fill-opacity) 1" stroke-opacity="param(outline-opacity) 1" d="M0 11L2.8 11L2.8 10.5L11.63 10.5L13.5 10L13.75 9.5L15 7.5L14.5 7L13.67 5.95L13.67 5.15L13.21 4.29L12.49 4.81L11.99 4.45L11.63 4.61L11.21 4.29L10.68 4.22L10 3.5L9.5 3.5L9.33 4.22L8.57 4.45L8.34 4.29L8.05 4.45L8.17 5.15L7.23 5.95L6.93 6.49L6.28 5.95L5.71 6.81L5.35 6.44L4.57 6.81L3.86 6.44L2.99 6.81L2.57 7.37L2.75 8L1.98 8.49L1.98 9.28L0.93 8.98L0.44 9.55L0.93 9.87L0.5 10.5L0 10.75z"/>
</svg>