<?xml version="1.0" encoding="UTF-8"?>
<svg viewBox="0 0 15 15" version="1.1" xmlns="http://www.w3.org/2000/svg" xmlns:xlink="http://www.w3.org/1999/xlink">
  <path fill="param(fill) #888" stroke="param(outline) #000" stroke-width="param(outline-width) 0" fill-opacity="param(fill-opacity) 1" stroke-opacity="param(outline-opacity) 1" d="M15 11L15 14L10 14L10 11L15 11ZM0 4.5L9 11L9 14L0 14L0 4.5ZM3.4 2.15L7.19 3.83C7.71 4.08 8.16 4.45 8.5 4.91C8.76 5.28 9.1 5.58 9.5 5.77L12.91 7.29L12.74 7.67C12.7 7.77 12.62 7.85 12.51 7.88C12.41 7.92 12.3 7.92 12.2 7.88L9.17 6.53C8.71 6.31 8.31 6 7.99 5.62L7.74 5.29C7.5 5 7.2 4.76 6.85 4.59L6.68 4.97C6.64 5.07 6.56 5.15 6.45 5.19C6.35 5.23 6.24 5.22 6.14 5.18L3.11 3.83C2.9 3.74 2.8 3.49 2.9 3.28L3.4 2.15ZM9.76 0L10.18 1.58C10.37 1.98 10.6 2.37 10.85 2.74C11.45 3.55 13.92 5.02 13.42 6.15L13.25 6.53L10.22 5.18C9.08 4.68 9.04 3.75 7.91 3.24L3.74 1.39L4.34 0L9.76 0Z"/>
</svg>