<?xml version="1.0" encoding="UTF-8"?>
<svg viewBox="0 0 15 15" version="1.1" xmlns="http://www.w3.org/2000/svg" xmlns:xlink="http://www.w3.org/1999/xlink">
  <path fill="param(fill) #888" stroke="param(outline) #000" stroke-width="param(outline-width) 0" fill-opacity="param(fill-opacity) 1" stroke-opacity="param(outline-opacity) 1" d="M5.83 0.26L7.81 2.25C8.79 3.22 9.07 4.63 8.69 5.91L15 12.22L15 15L12.21 15L12.29 12.29L9.57 12.36L9.65 9.65L6.93 9.73L5.91 8.7C4.62 9.07 3.22 8.79 2.24 7.82L0.26 5.84C-0.1 5.48 -0.09 4.87 0.3 4.48L4.48 0.3C4.86 -0.08 5.47 -0.1 5.83 0.26ZM3.01 4.41C2.63 4.79 2.61 5.4 2.97 5.77C3.34 6.13 3.95 6.11 4.33 5.73L5.72 4.34C6.11 3.95 6.13 3.34 5.76 2.98C5.4 2.61 4.79 2.63 4.4 3.02L3.01 4.41Z"/>
</svg>