<svg xmlns="http://www.w3.org/2000/svg" viewBox="0 0 15 15">
  <path fill="param(fill) #888" stroke="param(outline) #000" stroke-width="param(outline-width) 0" fill-opacity="param(fill-opacity) 1" stroke-opacity="param(outline-opacity) 1" d="M8.3 3.9C8.33 3.72 8.35 3.53 8.35 3.35C8.35 1.28 6.43 -0.36 4.25 0.07C2.95 0.32 1.9 1.34 1.62 2.62C1.26 4.32 2.21 5.85 3.66 6.44L3.66 3.78C3.16 3.57 2.91 3.03 3.07 2.53C3.16 2.19 3.44 1.92 3.79 1.83C4.49 1.65 5.13 2.17 5.13 2.83C5.13 3.26 4.88 3.62 4.5 3.78L4.52 8.34L0.75 11.12L1.52 12.19L1.97 11.85L1.96 15L7.9 15L7.9 11.87L8.32 12.2L9.09 11.21L5.35 8.34L5.35 6.67C5.91 6.6 6.45 6.39 6.89 6.09L7.96 6.75L8.65 6.48L9.16 6.85L9.16 7.48L10.5 8.29L11.19 8.02L11.71 8.39L11.71 9.03L12.64 9.59L14.25 8.92L14.25 7.37L8.3 3.9L8.3 3.9ZM5.77 11.67L5.77 12.92L4.08 12.92L4.08 11.67L5.77 11.67Z"/>
</svg>