<svg xmlns="http://www.w3.org/2000/svg" viewBox="0 0 15 15">
  <path fill="param(fill) #888" stroke="param(outline) #000" stroke-width="param(outline-width) 0" fill-opacity="param(fill-opacity) 1" stroke-opacity="param(outline-opacity) 1" d="M5.44 0.24L7.29 2.1C8.2 3.01 8.46 4.32 8.11 5.52L14 11.4L14 14L11.39 14L11.47 11.47L8.93 11.53L9.01 9.01L6.47 9.08L5.52 8.12C4.31 8.46 3 8.2 2.09 7.3L0.24 5.45C-0.09 5.11 -0.08 4.54 0.28 4.18L4.18 0.28C4.54 -0.07 5.1 -0.09 5.44 0.24ZM2.81 4.12C2.45 4.47 2.44 5.04 2.77 5.38C3.12 5.72 3.69 5.7 4.04 5.35L5.34 4.05C5.7 3.69 5.72 3.12 5.38 2.78C5.04 2.44 4.47 2.45 4.11 2.82L2.81 4.12ZM13 0L15 2L13 4L13 2.5L10 2.5L10 1.5L13 1.5zM11.5 3L9.5 5L11.5 7L11.5 5.5L14.5 5.5L14.5 4.5L11.5 4.5z"/>
</svg>