<svg xmlns="http://www.w3.org/2000/svg" viewBox="0 0 15 15">
  <path fill="param(fill) #888" stroke="param(outline) #000" stroke-width="param(outline-width) 0" fill-opacity="param(fill-opacity) 1" stroke-opacity="param(outline-opacity) 1" d="M9.34 1.22L9.34 2.45C10.01 2.45 10.56 3 10.56 3.67L10.56 4.75C11.68 5.64 12.4 7.03 12.4 8.57C12.4 9.42 12.19 10.21 11.81 10.91L12.33 11.89C12.64 12.48 12.42 13.22 11.82 13.54C11.76 13.57 11.7 13.6 11.64 13.62L7.5 15L3.36 13.62C2.73 13.41 2.38 12.71 2.59 12.07C2.62 12.01 2.64 11.94 2.68 11.89L3.19 10.91C2.81 10.21 2.6 9.42 2.6 8.57C2.6 7.03 3.33 5.64 4.44 4.75L4.44 3.67C4.44 3 4.99 2.45 5.66 2.45L5.66 1.22L5.05 1.22C4.71 1.22 4.44 0.96 4.44 0.61C4.44 0.27 4.71 0 5.05 0L9.95 0C10.29 0 10.56 0.27 10.56 0.61C10.56 0.96 10.29 1.22 9.95 1.22L9.34 1.22ZM7.5 12.24C9.53 12.24 11.17 10.6 11.17 8.57C11.17 6.54 9.53 4.9 7.5 4.9C5.47 4.9 3.83 6.54 3.83 8.57C3.83 10.6 5.47 12.24 7.5 12.24ZM6.28 8.57C5.93 8.57 5.66 8.3 5.66 7.96L5.66 6.73C5.66 6.39 5.93 6.12 6.28 6.12C6.62 6.12 6.89 6.39 6.89 6.73L6.89 7.96C6.89 8.3 6.62 8.57 6.28 8.57ZM8.73 8.57C8.38 8.57 8.11 8.3 8.11 7.96L8.11 6.73C8.11 6.39 8.38 6.12 8.73 6.12C9.07 6.12 9.34 6.39 9.34 6.73L9.34 7.96C9.34 8.3 9.07 8.57 8.73 8.57ZM7.5 11.63C6.73 11.63 6.13 11.17 5.69 10.24C5.68 10.19 5.66 10.15 5.66 10.1C5.66 9.93 5.8 9.8 5.97 9.8L9.03 9.8C9.07 9.8 9.12 9.81 9.15 9.82C9.31 9.89 9.37 10.08 9.3 10.24L9.3 10.24C8.87 11.17 8.27 11.63 7.5 11.63Z"/>
</svg>