<svg xmlns="http://www.w3.org/2000/svg" viewBox="0 0 15 15">
  <path fill="param(fill) #888" stroke="param(outline) #000" stroke-width="param(outline-width) 0" fill-opacity="param(fill-opacity) 1" stroke-opacity="param(outline-opacity) 1" d="M9 1L9 2C9.55 2 10 2.45 10 3L10 3.88C10.91 4.61 11.5 5.74 11.5 7C11.5 7.69 11.33 8.34 11.02 8.91L11.81 9.59C12.07 10.07 11.89 10.68 11.4 10.94C11.35 10.96 11.3 10.99 11.25 11L7.5 12.25L3.75 11C3.23 10.83 2.95 10.26 3.12 9.74L3.16 9.64C3.17 9.62 3.18 9.6 3.19 9.59L3.98 8.91C3.67 8.34 3.5 7.69 3.5 7C3.5 5.74 4.09 4.61 5 3.88L5 3C5 2.45 5.45 2 6 2L6 1L5.5 1C5.22 1 5 0.78 5 0.5C5 0.22 5.22 0 5.5 0L9.5 0C9.78 0 10 0.22 10 0.5C10 0.78 9.78 1 9.5 1L9 1ZM4 11.5L6 12.25L6 13C6 13.55 5.55 14 5 14C4.45 14 4 13.55 4 13L4 11.5ZM9 12.25L11 11.5L11 13C11 13.55 10.55 14 10 14C9.45 14 9 13.55 9 13L9 12.25ZM7.5 10C9.16 10 10.5 8.66 10.5 7C10.5 5.34 9.16 4 7.5 4C5.84 4 4.5 5.34 4.5 7C4.5 8.66 5.84 10 7.5 10ZM6.5 7C6.22 7 6 6.78 6 6.5L6 5.5C6 5.22 6.22 5 6.5 5C6.78 5 7 5.22 7 5.5L7 6.5C7 6.78 6.78 7 6.5 7ZM8.5 7C8.22 7 8 6.78 8 6.5L8 5.5C8 5.22 8.22 5 8.5 5C8.78 5 9 5.22 9 5.5L9 6.5C9 6.78 8.78 7 8.5 7ZM7.5 9.5C6.87 9.5 6.38 9.12 6.02 8.36C6.01 8.32 6 8.29 6 8.25C6 8.11 6.11 8 6.25 8L8.75 8C8.78 8 8.82 8.01 8.85 8.02C8.96 8.07 9.01 8.18 8.99 8.29L8.97 8.36C8.62 9.12 8.13 9.5 7.5 9.5Z"/>
</svg>