<svg xmlns="http://www.w3.org/2000/svg" viewBox="0 0 15 15">
  <path fill="param(fill) #888" stroke="param(outline) #000" stroke-width="param(outline-width) 0" fill-opacity="param(fill-opacity) 1" stroke-opacity="param(outline-opacity) 1" d="M11 0C11.41 0 11.75 0.34 11.75 0.75L11.75 15L10.25 15L10.25 13L4.75 13L4.75 15L3.25 15L3.25 0.75C3.25 0.34 3.59 0 4 0C4.41 0 4.75 0.34 4.75 0.75L4.75 3L10.25 3L10.25 0.75C10.25 0.34 10.59 0 11 0ZM10.25 10L4.75 10L4.75 12L10.25 12L10.25 10ZM10.25 7L4.75 7L4.75 9L10.25 9L10.25 7ZM10.25 4L4.75 4L4.75 6L10.25 6L10.25 4Z"/>
</svg>