<svg xmlns="http://www.w3.org/2000/svg" viewBox="0 0 15 15">
  <path fill="param(fill) #888" stroke="param(outline) #000" stroke-width="param(outline-width) 0" fill-opacity="param(fill-opacity) 1" stroke-opacity="param(outline-opacity) 1" d="M7.5 0C11.64 0 15 3.36 15 7.5C15 11.64 11.64 15 7.5 15C3.36 15 0 11.64 0 7.5C0 3.36 3.36 0 7.5 0ZM11.44 8.06L3.56 8.06L3.56 8.63C3.56 9.15 3.67 9.66 3.86 10.13C3.96 10.37 4.08 10.6 4.23 10.81C4.37 11.03 4.53 11.23 4.72 11.41C5.45 12.15 6.46 12.56 7.5 12.56C8.54 12.56 9.55 12.15 10.28 11.41C10.47 11.23 10.63 11.03 10.77 10.81C10.92 10.6 11.04 10.37 11.14 10.13C11.33 9.66 11.44 9.15 11.44 8.63L11.44 8.06ZM10.26 9.19C10.22 9.36 10.17 9.53 10.1 9.7C10.07 9.78 10.03 9.86 9.99 9.94L5.01 9.94C4.97 9.86 4.93 9.78 4.9 9.7C4.83 9.53 4.78 9.36 4.74 9.19L10.26 9.19ZM4.88 4.31C4.23 4.31 3.75 4.72 3.45 5.08C3.15 5.46 2.94 5.9 2.84 6.2L3.91 6.55C3.98 6.35 4.12 6.04 4.32 5.79C4.53 5.53 4.72 5.44 4.88 5.44C5.03 5.44 5.22 5.53 5.43 5.79C5.63 6.04 5.77 6.35 5.84 6.55L6.91 6.2C6.81 5.9 6.6 5.46 6.3 5.08C6 4.72 5.52 4.31 4.88 4.31ZM10.13 4.31C9.48 4.31 9 4.72 8.7 5.08C8.4 5.46 8.19 5.9 8.09 6.2L9.16 6.55C9.23 6.35 9.37 6.04 9.57 5.79C9.78 5.53 9.97 5.44 10.13 5.44C10.28 5.44 10.47 5.53 10.68 5.79C10.88 6.04 11.02 6.35 11.09 6.55L12.16 6.2C12.06 5.9 11.85 5.46 11.55 5.08C11.25 4.72 10.77 4.31 10.13 4.31Z"/>
</svg>