<svg xmlns="http://www.w3.org/2000/svg" viewBox="0 0 15 15">
  <path fill="param(fill) #888" stroke="param(outline) #000" stroke-width="param(outline-width) 0" fill-opacity="param(fill-opacity) 1" stroke-opacity="param(outline-opacity) 1" d="M2.71 6.24C2.8 5.97 3 5.55 3.27 5.22C3.55 4.88 3.8 4.75 4 4.75C4.2 4.75 4.45 4.88 4.73 5.22C5 5.55 5.2 5.97 5.29 6.24L6.71 5.76C6.58 5.36 6.31 4.78 5.9 4.28C5.5 3.79 4.86 3.25 4 3.25C3.14 3.25 2.5 3.79 2.1 4.28C1.69 4.78 1.42 5.36 1.29 5.76L2.71 6.24ZM9.71 6.24C9.8 5.97 10 5.55 10.27 5.22C10.55 4.88 10.8 4.75 11 4.75C11.2 4.75 11.45 4.88 11.73 5.22C12 5.55 12.2 5.97 12.29 6.24L13.71 5.76C13.58 5.36 13.31 4.78 12.9 4.28C12.5 3.79 11.86 3.25 11 3.25C10.14 3.25 9.5 3.79 9.1 4.28C8.69 4.78 8.42 5.36 8.29 5.76L9.71 6.24ZM12.75 8.25L2.25 8.25L2.25 9C2.25 9.69 2.39 10.37 2.65 11C2.78 11.32 2.94 11.63 3.13 11.92C3.32 12.2 3.54 12.47 3.79 12.71C4.77 13.7 6.11 14.25 7.5 14.25C8.89 14.25 10.23 13.7 11.21 12.71C11.46 12.47 11.68 12.2 11.87 11.92C12.06 11.63 12.22 11.32 12.35 11C12.61 10.37 12.75 9.69 12.75 9L12.75 8.25ZM4.03 10.43C3.94 10.21 3.87 9.98 3.83 9.75L11.17 9.75C11.13 9.98 11.06 10.21 10.97 10.43C10.92 10.54 10.87 10.65 10.82 10.75L4.18 10.75C4.13 10.65 4.08 10.54 4.03 10.43Z"/>
</svg>