<svg xmlns="http://www.w3.org/2000/svg" viewBox="0 0 15 15">
  <path fill="param(fill) #888" stroke="param(outline) #000" stroke-width="param(outline-width) 0" fill-opacity="param(fill-opacity) 1" stroke-opacity="param(outline-opacity) 1" d="M1.15 4.1C2.56 1.6 5.27 1.28 7.64 1.6L8.12 1.67C8.09 1.73 8.35 1.79 8.7 1.84C8.15 3.36 7.88 4.92 7.88 6.5C7.88 7.77 8.05 9.01 8.4 10.24L8.26 10.3L7.94 10.39L6.41 10.9C6.14 11 5.82 11.1 5.48 11.16L5.22 11.2C5.14 11.21 5.06 11.21 4.99 11.22L4.7 11.82C4.68 11.87 4.65 11.92 4.63 11.97L4.55 12.11C4.37 12.44 3.78 13.5 2.49 13.5C1.24 13.5 0.61 12.51 0.38 12.03C0.11 11.47 -0.01 10.82 0 10.27L0.01 9.82C0.03 9.15 0.08 8.28 0.21 7.4C0.36 6.33 0.62 5.04 1.15 4.1ZM12.44 1.81C13.17 1.71 13.91 1.96 14.42 2.48C14.95 3.04 15.17 3.87 14.85 4.69C14.65 5.18 14.37 5.74 14 6.23C13.64 6.72 13.12 7.26 12.4 7.57C12.11 7.69 11.81 7.79 11.56 7.86L11.27 7.94C11.01 8.02 10.83 8.08 10.68 8.15L10.59 8.26L10.3 8.67C10.27 8.71 10.24 8.75 10.21 8.79C10.04 9.02 9.82 9.3 9.51 9.56C9.25 8.55 9.13 7.53 9.13 6.5C9.13 4.88 9.44 3.3 10.08 1.74L10 1.94L10.1 1.93C10.28 1.95 10.41 1.95 10.53 1.96L10.83 1.96C11.09 1.96 11.72 1.91 12.44 1.81Z"/>
</svg>