<svg xmlns="http://www.w3.org/2000/svg" viewBox="0 0 15 15">
  <path fill="param(fill) #888" stroke="param(outline) #000" stroke-width="param(outline-width) 0" fill-opacity="param(fill-opacity) 1" stroke-opacity="param(outline-opacity) 1" d="M9.31 2.68C9.09 3.24 9.08 3.93 9.08 4.5L7.56 4.5L7.56 4.46C7.56 3.94 7.56 2.97 7.9 2.13C7.96 1.98 8.03 1.82 8.12 1.67C8.04 1.66 7.95 1.65 7.86 1.63C5.44 1.27 2.6 1.52 1.15 4.1C0.62 5.04 0.36 6.33 0.21 7.4C0.05 8.5 0 9.59 0 10.27C-0.01 10.82 0.11 11.47 0.38 12.03C0.61 12.51 1.24 13.5 2.49 13.5C3.78 13.5 4.37 12.44 4.55 12.11C4.66 11.92 4.75 11.71 4.83 11.55L4.87 11.47C4.91 11.37 4.95 11.29 4.99 11.22C5.06 11.21 5.14 11.21 5.22 11.2C5.66 11.15 6.07 11.02 6.41 10.9L6.41 8.42C5.68 8.59 5.11 8.49 4.72 8.3C4.48 8.18 4.29 8.02 4.19 7.83C4.15 7.74 4.09 7.58 4.16 7.4C4.25 7.18 4.46 7.12 4.6 7.12L6.61 7.12C6.76 6.77 6.99 6.49 7.3 6.3C7.8 5.99 8.38 6 8.66 6L8.7 6L8.7 7.5C8.54 7.5 8.42 7.5 8.31 7.51C8.2 7.53 8.14 7.55 8.11 7.57C8.1 7.58 7.94 7.66 7.94 8.25L7.94 10.39L6.41 10.9L6.45 13.5L7.95 13.5L7.94 10.39C7.97 10.39 7.99 10.38 8.02 10.37C9.17 10.07 9.83 9.3 10.21 8.79C10.3 8.67 10.39 8.56 10.45 8.46L10.47 8.44C10.54 8.33 10.59 8.26 10.64 8.2C10.66 8.18 10.67 8.16 10.68 8.15C10.83 8.08 11.01 8.02 11.27 7.94C11.3 7.93 11.34 7.92 11.39 7.91C11.66 7.83 12.03 7.72 12.4 7.57C13.12 7.26 13.64 6.72 14 6.23C14.37 5.74 14.65 5.18 14.85 4.69C15.17 3.87 14.95 3.04 14.42 2.48C13.91 1.96 13.17 1.71 12.44 1.81C11.72 1.91 11.09 1.96 10.83 1.96L10.78 1.96C10.57 1.96 10.39 1.96 10.1 1.93C9.94 1.98 9.82 2.04 9.73 2.1C9.56 2.23 9.42 2.42 9.31 2.68Z"/>
</svg>