<svg xmlns="http://www.w3.org/2000/svg" viewBox="0 0 15 15">
  <path fill="param(fill) #888" stroke="param(outline) #000" stroke-width="param(outline-width) 0" fill-opacity="param(fill-opacity) 1" stroke-opacity="param(outline-opacity) 1" d="M7.64 6L7.5 6C7.84 6 8.19 6.01 8.53 6.04C9.4 6.94 9.96 7.68 10.21 8.27C10.4 8.7 10.59 9.28 10.81 10.02C10.83 10.11 10.91 10.18 11 10.19C11.14 10.22 11.27 10.13 11.29 9.99C11.43 9.27 11.5 8.7 11.5 8.27C11.5 7.75 11.29 7.12 10.87 6.38C11.42 6.5 11.98 6.65 12.53 6.84C12.83 6.93 13.1 7.1 13.31 7.32L14.12 8.12C14.68 8.68 15 9.45 15 10.24L15 12.63C15 13.13 14.62 13.56 14.12 13.62C12.04 13.87 9.83 14 7.5 14C5.46 14 3.51 13.9 1.67 13.71L0.88 13.62C0.38 13.56 0 13.13 0 12.63L0 10.24C0 9.45 0.32 8.68 0.88 8.12L1.69 7.32C1.9 7.1 2.17 6.93 2.47 6.84C2.68 6.77 2.88 6.7 3.09 6.64C3.65 7.28 4.02 7.82 4.21 8.27C4.4 8.7 4.59 9.28 4.81 10.02C4.83 10.11 4.91 10.18 5 10.19C5.14 10.22 5.27 10.13 5.29 9.99C5.43 9.27 5.5 8.7 5.5 8.27C5.5 7.67 5.21 6.91 4.64 6L4.98 6.21C5.19 6.17 5.4 6.14 5.61 6.12C6.44 6.98 6.97 7.7 7.21 8.27C7.4 8.7 7.59 9.28 7.81 10.02C7.83 10.11 7.91 10.18 8 10.19C8.14 10.22 8.27 10.13 8.29 9.99C8.43 9.27 8.5 8.7 8.5 8.27C8.5 7.67 8.21 6.91 7.64 6L7.64 6ZM3 2.6C3 1.6 3.5 0.9 4.5 0.5L3.95 1.65C3.74 2.1 3.89 2.64 4.3 2.91C4.77 3.22 5 3.72 5 4.4C5 5.4 4.5 6.1 3.5 6.5L4.05 5.35C4.26 4.9 4.11 4.36 3.7 4.09C3.23 3.78 3 3.28 3 2.6ZM6 2.1C6 1.1 6.5 0.4 7.5 0L6.95 1.15C6.74 1.6 6.89 2.14 7.3 2.41C7.77 2.72 8 3.22 8 3.9C8 4.9 7.5 5.6 6.5 6L7.05 4.85C7.26 4.4 7.11 3.86 6.7 3.59C6.23 3.28 6 2.78 6 2.1ZM9 2.6C9 1.6 9.5 0.9 10.5 0.5L9.95 1.65C9.74 2.1 9.89 2.64 10.3 2.91C10.77 3.22 11 3.72 11 4.4C11 5.4 10.5 6.1 9.5 6.5L10.05 5.35C10.26 4.9 10.11 4.36 9.7 4.09C9.23 3.78 9 3.28 9 2.6Z"/>
</svg>