<svg xmlns="http://www.w3.org/2000/svg" viewBox="0 0 15 15">
  <path fill="param(fill) #888" stroke="param(outline) #000" stroke-width="param(outline-width) 0" fill-opacity="param(fill-opacity) 1" stroke-opacity="param(outline-opacity) 1" d="M7.64 3.5L7.5 3.5C7.84 3.5 8.19 3.51 8.53 3.54C9.4 4.44 9.96 5.18 10.21 5.77C10.4 6.2 10.59 6.78 10.81 7.52C10.83 7.61 10.91 7.68 11 7.69C11.14 7.72 11.27 7.63 11.29 7.49C11.43 6.77 11.5 6.2 11.5 5.77C11.5 5.25 11.29 4.62 10.87 3.88C11.26 3.96 11.64 4.06 12.03 4.18L12.53 4.34C12.83 4.43 13.1 4.6 13.31 4.82L14.12 5.62C14.68 6.18 15 6.95 15 7.74L15 10.13C15 10.63 14.62 11.06 14.12 11.12C12.04 11.37 9.83 11.5 7.5 11.5C5.46 11.5 3.51 11.4 1.67 11.21L0.88 11.12C0.38 11.06 0 10.63 0 10.13L0 7.74C0 7.01 0.27 6.31 0.74 5.77L0.88 5.62L1.69 4.82C1.9 4.6 2.17 4.43 2.47 4.34C2.68 4.27 2.88 4.2 3.09 4.14C3.65 4.78 4.02 5.32 4.21 5.77C4.4 6.2 4.59 6.78 4.81 7.52C4.83 7.61 4.91 7.68 5 7.69C5.14 7.72 5.27 7.63 5.29 7.49C5.43 6.77 5.5 6.2 5.5 5.77C5.5 5.17 5.21 4.41 4.64 3.5L4.98 3.71C5.19 3.67 5.4 3.64 5.61 3.62C6.44 4.48 6.97 5.2 7.21 5.77C7.4 6.2 7.59 6.78 7.81 7.52C7.83 7.61 7.91 7.68 8 7.69C8.14 7.72 8.27 7.63 8.29 7.49C8.43 6.77 8.5 6.2 8.5 5.77C8.5 5.17 8.21 4.41 7.64 3.5L7.64 3.5Z"/>
</svg>