<svg xmlns="http://www.w3.org/2000/svg" viewBox="0 0 15 15">
  <path fill="param(fill) #888" stroke="param(outline) #000" stroke-width="param(outline-width) 0" fill-opacity="param(fill-opacity) 1" stroke-opacity="param(outline-opacity) 1" d="M7.64 5L7.5 5C7.85 5 8.18 5 8.51 5.01C9.39 5.74 9.96 6.34 10.21 6.82C10.4 7.16 10.6 7.63 10.81 8.23C10.84 8.31 10.9 8.37 10.99 8.39C11.12 8.42 11.26 8.34 11.29 8.21C11.43 7.62 11.5 7.16 11.5 6.82C11.5 6.33 11.21 5.73 10.64 5L10.73 5.11C11.66 5.18 12.47 5.28 13.17 5.42L13.44 5.48C14.35 5.68 15 6.5 15 7.43L15 8.38C15 9.01 14.67 9.6 14.14 9.92L14 10L14 13.66C14 14.15 13.64 14.57 13.15 14.65C11.62 14.88 9.74 15 7.5 15C5.45 15 3.7 14.9 2.24 14.7L1.85 14.65C1.36 14.57 1 14.15 1 13.66L1 10C0.39 9.69 0 9.07 0 8.38L0 7.43C0 6.5 0.65 5.68 1.56 5.48C1.94 5.39 2.35 5.32 2.8 5.26C3.52 5.88 3.99 6.4 4.21 6.82C4.4 7.16 4.6 7.63 4.81 8.23C4.84 8.31 4.9 8.37 4.99 8.39C5.12 8.42 5.26 8.34 5.29 8.21C5.43 7.62 5.5 7.16 5.5 6.82C5.5 6.33 5.21 5.73 4.64 5L4.7 5.08C4.97 5.06 5.25 5.05 5.54 5.04C6.4 5.75 6.96 6.35 7.21 6.82C7.4 7.16 7.6 7.63 7.81 8.23C7.84 8.31 7.9 8.37 7.99 8.39C8.12 8.42 8.26 8.34 8.29 8.21C8.43 7.62 8.5 7.16 8.5 6.82C8.5 6.33 8.21 5.73 7.64 5ZM3 1.75C3 0.92 3.5 0.33 4.5 0L4.08 0.74C3.82 1.19 3.96 1.78 4.4 2.07C4.8 2.33 5 2.72 5 3.25C5 4.08 4.5 4.67 3.5 5L3.92 4.26C4.18 3.81 4.04 3.22 3.6 2.93C3.2 2.67 3 2.28 3 1.75ZM6 1.75C6 0.92 6.5 0.33 7.5 0L7.08 0.74C6.82 1.19 6.96 1.78 7.4 2.07C7.8 2.33 8 2.72 8 3.25C8 4.08 7.5 4.67 6.5 5L6.92 4.26C7.18 3.81 7.04 3.22 6.6 2.93C6.2 2.67 6 2.28 6 1.75ZM9 1.75C9 0.92 9.5 0.33 10.5 0L10.08 0.74C9.82 1.19 9.96 1.78 10.4 2.07C10.8 2.33 11 2.72 11 3.25C11 4.08 10.5 4.67 9.5 5L9.92 4.26C10.18 3.81 10.04 3.22 9.6 2.93C9.2 2.67 9 2.28 9 1.75Z"/>
</svg>