<svg xmlns="http://www.w3.org/2000/svg" viewBox="0 0 15 15">
  <path fill="param(fill) #888" stroke="param(outline) #000" stroke-width="param(outline-width) 0" fill-opacity="param(fill-opacity) 1" stroke-opacity="param(outline-opacity) 1" d="M7.64 2.5L7.5 2.5C7.85 2.5 8.18 2.5 8.51 2.51C9.39 3.24 9.96 3.84 10.21 4.32C10.4 4.66 10.6 5.13 10.81 5.73C10.84 5.81 10.9 5.87 10.99 5.89C11.12 5.92 11.26 5.84 11.29 5.71C11.43 5.12 11.5 4.66 11.5 4.32C11.5 3.83 11.21 3.23 10.64 2.5L10.73 2.61C11.66 2.68 12.47 2.78 13.17 2.92L13.44 2.98C14.35 3.18 15 4 15 4.93L15 5.88C15 6.51 14.67 7.1 14.14 7.42L14 7.5L14 11.16C14 11.65 13.64 12.07 13.15 12.15C11.62 12.38 9.74 12.5 7.5 12.5C5.45 12.5 3.7 12.4 2.24 12.2L1.85 12.15C1.36 12.07 1 11.65 1 11.16L1 7.5C0.39 7.19 0 6.57 0 5.88L0 4.93C0 4 0.65 3.18 1.56 2.98C1.94 2.89 2.35 2.82 2.8 2.76C3.52 3.38 3.99 3.9 4.21 4.32C4.4 4.66 4.6 5.13 4.81 5.73C4.84 5.81 4.9 5.87 4.99 5.89C5.12 5.92 5.26 5.84 5.29 5.71C5.43 5.12 5.5 4.66 5.5 4.32C5.5 3.83 5.21 3.23 4.64 2.5L4.7 2.58C4.97 2.56 5.25 2.55 5.54 2.54C6.4 3.25 6.96 3.85 7.21 4.32C7.4 4.66 7.6 5.13 7.81 5.73C7.84 5.81 7.9 5.87 7.99 5.89C8.12 5.92 8.26 5.84 8.29 5.71C8.43 5.12 8.5 4.66 8.5 4.32C8.5 3.83 8.21 3.23 7.64 2.5Z"/>
</svg>