<svg xmlns="http://www.w3.org/2000/svg" viewBox="0 0 15 15">
  <path fill="param(fill) #888" stroke="param(outline) #000" stroke-width="param(outline-width) 0" fill-opacity="param(fill-opacity) 1" stroke-opacity="param(outline-opacity) 1" d="M7.5 2C4.17 5.33 4.17 7.67 7.5 11C10.83 7.67 10.83 5.33 7.5 2ZM2.56 3.8C1.34 8.36 2.45 10.28 7 11.5C7.02 11.42 7.04 11.34 7.06 11.27C5.41 9.59 4.5 8.09 4.5 6.5C4.5 5.88 4.64 5.26 4.91 4.65C4.26 4.33 3.48 4.05 2.56 3.8ZM12.44 3.8C11.52 4.05 10.74 4.33 10.09 4.65C10.36 5.26 10.5 5.88 10.5 6.5C10.5 8.09 9.59 9.59 7.94 11.27C7.96 11.34 7.98 11.42 8 11.5C12.55 10.28 13.66 8.36 12.44 3.8ZM0 7C0 10.75 1.25 12 5 12C5 11.78 5 11.56 4.99 11.36C3.67 10.81 2.74 10.12 2.18 9.15C1.83 8.55 1.65 7.87 1.6 7.1C1.13 7.03 0.6 7 0 7ZM15 7C14.4 7 13.87 7.03 13.4 7.1C13.35 7.87 13.17 8.55 12.82 9.15C12.26 10.12 11.33 10.81 10.01 11.36C10 11.56 10 11.78 10 12C13.75 12 15 10.75 15 7Z"/>
</svg>