<svg xmlns="http://www.w3.org/2000/svg" viewBox="0 0 15 15">
  <path fill="param(fill) #888" stroke="param(outline) #000" stroke-width="param(outline-width) 0" fill-opacity="param(fill-opacity) 1" stroke-opacity="param(outline-opacity) 1" d="M8.5 1L8.5 2.55L9 3.5L8 5.25L7.5 7L7.5 8L13 8L12.39 9.26L12.96 9.86L13.29 10.78L12.09 10.46L11.25 10.24L10.76 11.08L11.6 11.57L12.96 11.08L12.39 11.57L13.29 11.95L13.53 11.57L13.8 11.57L13.8 11.95L12.96 12.71L13.53 13.58L14.54 13.83L15 14.25L14.25 15L13.53 14.07L12.39 13.58L11.6 13.12L11.85 13.83L11.25 14.75L10.76 13.83L10 14.45L8.5 14L8.5 13L7.5 13L7.23 12.41L6.49 11.95L5.5 12.5L5.5 13L3.75 13L2.5 12.5L0.5 12.5L1 11L1 10L1.5 8L0.75 6.5L0.75 5L0 4.5L0 1L8.5 1ZM8.5 8.92L8.14 10.01L7 10.01L7.92 10.76L7.5 12L8.5 11.25L9.5 12L9.08 10.76L10 10.01L8.86 10.01L8.5 8.92Z"/>
</svg>