<svg xmlns="http://www.w3.org/2000/svg" viewBox="0 0 15 15">
  <path fill="param(fill) #888" stroke="param(outline) #000" stroke-width="param(outline-width) 0" fill-opacity="param(fill-opacity) 1" stroke-opacity="param(outline-opacity) 1" d="M15 11L15 14L10 14L10 11L15 11ZM0 4.5L9 11L9 14L0 14L0 4.5ZM12.5 5.5C13.05 5.5 13.5 5.95 13.5 6.5C13.5 7.05 13.05 7.5 12.5 7.5C11.95 7.5 11.5 7.05 11.5 6.5C11.5 5.95 11.95 5.5 12.5 5.5ZM15 2.5C15 3.33 14.33 4 13.5 4L13.5 4L13.5 4C13.35 4 13.22 4.1 13.17 4.24L13 4.75L13 4.75L12 4.75L12 4.01C12 3.57 12.32 3.2 12.75 3.13L13.01 3.08C13.29 3.03 13.5 2.79 13.5 2.5L13.5 2.5L13.5 2.5C13.5 2.22 13.28 2 13 2L12 2C11.72 2 11.5 2.22 11.5 2.5L11.5 2.5L11.5 2.5C11.5 2.91 11.16 3.25 10.75 3.25C10.34 3.25 10 2.91 10 2.5L10 2.5L10 2.5C10 1.4 10.9 0.5 12 0.5L13 0.5C14.1 0.5 15 1.4 15 2.5L15 2.5L15 2.5Z"/>
</svg>