<svg xmlns="http://www.w3.org/2000/svg" viewBox="0 0 15 15">
  <path fill="param(fill) #888" stroke="param(outline) #000" stroke-width="param(outline-width) 0" fill-opacity="param(fill-opacity) 1" stroke-opacity="param(outline-opacity) 1" d="M3.25 0L11.75 0C11.89 0 12 0.11 12 0.25L12 0.75C12 0.89 11.89 1 11.75 1L3.25 1C3.11 1 3 0.89 3 0.75L3 0.25C3 0.11 3.11 0 3.25 0ZM8.5 11.75C8.5 11.61 8.39 11.5 8.25 11.5L6.75 11.5C6.61 11.5 6.5 11.61 6.5 11.75L6.5 14L4 14L4 1.5L11 1.5L11 14L14.5 14L14.5 15L0.5 15L0.5 14L8.5 14L8.5 11.75ZM5.75 8.5L5.25 8.5C5.11 8.5 5 8.61 5 8.75L5 9.75C5 9.89 5.11 10 5.25 10L5.75 10C5.89 10 6 9.89 6 9.75L6 8.75C6 8.61 5.89 8.5 5.75 8.5ZM7.75 8.5L7.25 8.5C7.11 8.5 7 8.61 7 8.75L7 9.75C7 9.89 7.11 10 7.25 10L7.75 10C7.89 10 8 9.89 8 9.75L8 8.75C8 8.61 7.89 8.5 7.75 8.5ZM9.75 8.5L9.25 8.5C9.11 8.5 9 8.61 9 8.75L9 9.75C9 9.89 9.11 10 9.25 10L9.75 10C9.89 10 10 9.89 10 9.75L10 8.75C10 8.61 9.89 8.5 9.75 8.5ZM5.75 5.5L5.25 5.5C5.11 5.5 5 5.61 5 5.75L5 6.75C5 6.89 5.11 7 5.25 7L5.75 7C5.89 7 6 6.89 6 6.75L6 5.75C6 5.61 5.89 5.5 5.75 5.5ZM7.75 5.5L7.25 5.5C7.11 5.5 7 5.61 7 5.75L7 6.75C7 6.89 7.11 7 7.25 7L7.75 7C7.89 7 8 6.89 8 6.75L8 5.75C8 5.61 7.89 5.5 7.75 5.5ZM9.75 5.5L9.25 5.5C9.11 5.5 9 5.61 9 5.75L9 6.75C9 6.89 9.11 7 9.25 7L9.75 7C9.89 7 10 6.89 10 6.75L10 5.75C10 5.61 9.89 5.5 9.75 5.5ZM5.75 2.5L5.25 2.5C5.11 2.5 5 2.61 5 2.75L5 3.75C5 3.89 5.11 4 5.25 4L5.75 4C5.89 4 6 3.89 6 3.75L6 2.75C6 2.61 5.89 2.5 5.75 2.5ZM7.75 2.5L7.25 2.5C7.11 2.5 7 2.61 7 2.75L7 3.75C7 3.89 7.11 4 7.25 4L7.75 4C7.89 4 8 3.89 8 3.75L8 2.75C8 2.61 7.89 2.5 7.75 2.5ZM9.75 2.5L9.25 2.5C9.11 2.5 9 2.61 9 2.75L9 3.75C9 3.89 9.11 4 9.25 4L9.75 4C9.89 4 10 3.89 10 3.75L10 2.75C10 2.61 9.89 2.5 9.75 2.5Z"/>
</svg>