<svg xmlns="http://www.w3.org/2000/svg" viewBox="0 0 15 15">
  <path fill="param(fill) #888" stroke="param(outline) #000" stroke-width="param(outline-width) 0" fill-opacity="param(fill-opacity) 1" stroke-opacity="param(outline-opacity) 1" d="M7.5 0A7.5 7.5 0 0 0 0.02 7L1.02 7L2 7L2 8L1.02 8L0.02 8A7.5 7.5 0 0 0 7.5 15A7.5 7.5 0 0 0 14.98 8L13.98 8L13 8L13 7L13.98 7L14.98 7A7.5 7.5 0 0 0 7.5 0ZM7.5 1A6.5 6.5 0 0 1 11.45 2.34L10.74 3.05A5.5 5.5 0 0 0 8 2.02L8 2.51L8 3.03L8 6L8 7L11.97 7L12 7L12 8L11.97 8L8 8L8 9L8 11.97L8 12.49L8 12.98A5.5 5.5 0 0 0 10.95 11.78L11.66 12.49A6.5 6.5 0 0 1 7.5 14A6.5 6.5 0 0 1 3.34 12.49L4.05 11.78A5.5 5.5 0 0 0 7 12.98L7 12.49L7 11.97L7 9L7 8L3.03 8L3 8L3 7L3.03 7L7 7L7 6L7 3.03L7 2.51L7 2.02A5.5 5.5 0 0 0 4.26 3.05L3.55 2.34A6.5 6.5 0 0 1 7.5 1ZM2.8 3.01L3.51 3.72A5.5 5.5 0 0 0 2.6 5L3 5L3.76 5L5 5L5 4.5L4.15 4.5A4.5 4.5 0 0 1 6 3.26L6 6L4 6L3.26 6L2.21 6L2 6L1.18 6A6.5 6.5 0 0 1 2.8 3.01ZM12.2 3.01A6.5 6.5 0 0 1 13.82 6L13 6L12.79 6L11.74 6L11 6L9 6L9 3.26A4.5 4.5 0 0 1 10.85 4.5L10 4.5L10 5L11.24 5L12 5L12.4 5A5.5 5.5 0 0 0 11.49 3.72L12.2 3.01ZM1.18 9L2 9L2.21 9L3.26 9L4 9L6 9L6 11.74A4.5 4.5 0 0 1 4.15 10.5L5 10.5L5 10L3.76 10L3 10L2.6 10A5.5 5.5 0 0 0 3.33 11.08L2.62 11.79A6.5 6.5 0 0 1 1.18 9ZM9 9L11 9L11.74 9L12.79 9L13 9L13.82 9A6.5 6.5 0 0 1 12.38 11.79L11.67 11.08A5.5 5.5 0 0 0 12.4 10L12 10L11.24 10L10 10L10 10.5L10.85 10.5A4.5 4.5 0 0 1 9 11.74L9 9Z"/>
</svg>