<svg xmlns="http://www.w3.org/2000/svg" viewBox="0 0 15 15">
  <path fill="param(fill) #888" stroke="param(outline) #000" stroke-width="param(outline-width) 0" fill-opacity="param(fill-opacity) 1" stroke-opacity="param(outline-opacity) 1" d="M6.9 0C4 0.13 1.8 2.6 1.9 5.5L1.92 9.85C1.94 11.4 4.41 14.8 7.51 15C10.61 14.8 13.11 11.4 13.11 9.85L13.11 5.5C13.24 2.6 11.01 0.2 8.11 0ZM2.8 3.4C3.06 4.27 3.8 4.9 4.7 5H4.7C6 5.14 7 6.2 7.1 7.5V9.4H5.2C3.9 9.4 2.7 8.5 2.4 7.2C2.08 6 2.19 4.6 2.71 3.4ZM12.2 3.4C12.72 4.6 12.83 5.9 12.51 7.2C12.18 8.5 11.01 9.4 9.71 9.4H7.81V7.5C7.92 6.2 8.91 5.1 10.21 5H10.21C11.11 4.92 11.91 4.3 12.11 3.4ZM3.4 5.7C3.4 6.1 3.45 6.49 3.54 6.9C3.74 7.7 4.47 8.3 5.34 8.3H6.12V7.57C6.04 6.8 5.43 6.17 4.62 6.07L4.62 6.07C4.2 6.03 3.78 5.91 3.42 5.72ZM11.6 5.7C11.22 5.89 10.81 6.01 10.4 6.05L10.4 6.05C9.63 6.14 9 6.74 8.9 7.55V8.28H9.68C10.51 8.28 11.18 7.72 11.48 6.88C11.58 6.5 11.63 6.1 11.62 5.68ZM6.6 10H8.5C8.67 10 8.81 10.14 8.81 10.31C8.81 10.48 8.67 10.62 8.5 10.62H6.6C6.43 10.62 6.29 10.48 6.29 10.31C6.29 10.14 6.43 10 6.6 10ZM6.13 10.94H8.93C9.71 10.94 10.33 11.57 10.33 12.34C10.33 13.11 9.7 13.74 8.93 13.74H6.13C5.35 13.74 4.73 13.11 4.73 12.34C4.73 11.56 5.36 10.94 6.13 10.94ZM6.13 11.88C5.87 11.88 5.66 12.09 5.67 12.35C5.67 12.61 5.88 12.81 6.13 12.82H8.93C9.19 12.82 9.4 12.61 9.4 12.35C9.4 12.09 9.19 11.88 8.93 11.88Z"/>
</svg>