<svg xmlns="http://www.w3.org/2000/svg" viewBox="0 0 15 15">
  <path fill="param(fill) #888" stroke="param(outline) #000" stroke-width="param(outline-width) 0" fill-opacity="param(fill-opacity) 1" stroke-opacity="param(outline-opacity) 1" d="M9.11 4.44L10.58 5.9C10.98 6.31 10.98 6.96 10.58 7.37L3.24 14.7C2.83 15.1 2.18 15.1 1.77 14.7L0.3 13.23C-0.1 12.83 -0.1 12.17 0.3 11.76L7.64 4.44C8.05 4.03 8.71 4.03 9.11 4.44ZM12.51 7.46C12.51 8.08 12.82 8.71 13.28 9.17C13.76 9.64 14.38 9.95 15 9.95C14.38 9.95 13.76 10.26 13.29 10.73C12.82 11.2 12.51 11.82 12.51 12.44C12.51 11.82 12.2 11.2 11.73 10.73C11.26 10.26 10.64 9.95 10.02 9.95C10.64 9.95 11.26 9.64 11.73 9.18C12.2 8.71 12.51 8.08 12.51 7.46ZM8.38 5.46L6.87 6.96L8.05 8.14L9.55 6.63L8.38 5.46ZM12.51 0C12.51 0.62 12.82 1.24 13.28 1.71C13.76 2.18 14.38 2.49 15 2.49C14.38 2.49 13.76 2.8 13.29 3.26C12.82 3.73 12.51 4.35 12.51 4.98C12.51 4.35 12.2 3.73 11.73 3.27C11.26 2.8 10.64 2.49 10.02 2.49C10.64 2.49 11.26 2.18 11.73 1.71C12.2 1.24 12.51 0.62 12.51 0ZM5.45 0C5.45 0.62 5.76 1.24 6.23 1.71C6.7 2.18 7.32 2.49 7.94 2.49C7.32 2.49 6.7 2.8 6.23 3.26C5.76 3.73 5.45 4.35 5.45 4.98C5.45 4.35 5.14 3.73 4.67 3.27C4.2 2.8 3.58 2.49 2.96 2.49C3.58 2.49 4.2 2.18 4.67 1.71C5.14 1.24 5.45 0.62 5.45 0Z"/>
</svg>