<svg xmlns="http://www.w3.org/2000/svg" viewBox="0 0 15 15">
  <path fill="param(fill) #888" stroke="param(outline) #000" stroke-width="param(outline-width) 0" fill-opacity="param(fill-opacity) 1" stroke-opacity="param(outline-opacity) 1" d="M7.56 1.27C9.26 -0.42 12.03 -0.42 13.73 1.27C15.42 2.97 15.42 5.74 13.73 7.44C12.88 8.29 11.76 8.71 10.65 8.71C9.74 8.71 8.83 8.42 8.07 7.87L7.31 8.57C7.47 8.72 7.56 8.94 7.56 9.16C7.56 9.38 7.47 9.6 7.31 9.75L2.31 14.75C1.98 15.08 1.46 15.08 1.13 14.75L0.25 13.87C-0.08 13.54 -0.08 13.02 0.25 12.69L5.25 7.69C5.57 7.36 6.1 7.36 6.43 7.69L7.18 7C5.88 5.29 6.01 2.84 7.57 1.28L7.56 1.27ZM8.42 6.58C9.65 7.8 11.64 7.8 12.87 6.58C14.09 5.35 14.09 3.36 12.87 2.13C12.25 1.52 11.45 1.21 10.65 1.21C9.84 1.21 9.04 1.52 8.43 2.13C7.2 3.36 7.2 5.35 8.43 6.58L8.42 6.58Z"/>
</svg>