<svg xmlns="http://www.w3.org/2000/svg" viewBox="0 0 15 15">
  <path fill="param(fill) #888" stroke="param(outline) #000" stroke-width="param(outline-width) 0" fill-opacity="param(fill-opacity) 1" stroke-opacity="param(outline-opacity) 1" d="M7.75 0L7.75 0.75L8 1L9.5 0.25L11 1L11 6L11.5 6.5L11.5 8.25L12 8L13 9L11 10.25L10.5 10L10.5 10.75L9 11L8 10.5L7.5 12L6 12.5L5 12.5L4.5 13.5L4 15L3 14.21L3 7.5L4 7L4 6.3L4.5 6L5 5.32L5 4L5.5 3.5L5.5 2.45L7 0L7.75 0ZM6.5 7.92L6.14 9.01L5 9.01L5.92 9.76L5.5 11L6.5 10.25L7.5 11L7.08 9.76L8 9.01L6.86 9.01L6.5 7.92Z"/>
</svg>