<svg xmlns="http://www.w3.org/2000/svg" viewBox="0 0 15 15">
  <path fill="param(fill) #888" stroke="param(outline) #000" stroke-width="param(outline-width) 0" fill-opacity="param(fill-opacity) 1" stroke-opacity="param(outline-opacity) 1" d="M7.5 0C10.26 0 12.5 2.24 12.5 5C12.5 6.84 10.83 10.17 7.5 15L6.96 14.21C3.99 9.81 2.5 6.74 2.5 5C2.5 2.24 4.74 0 7.5 0ZM7.5 1.5C5.57 1.5 4 3.07 4 5C4 6.15 5.04 8.44 7.11 11.7L7.5 12.31L7.68 12.04C9.82 8.71 10.93 6.35 11 5.12L11 5C11 3.07 9.43 1.5 7.5 1.5ZM7.5 3.5C8.33 3.5 9 4.17 9 5C9 5.83 8.33 6.5 7.5 6.5C6.67 6.5 6 5.83 6 5C6 4.17 6.67 3.5 7.5 3.5Z"/>
</svg>