<svg xmlns="http://www.w3.org/2000/svg" viewBox="0 0 15 15">
  <path fill="param(fill) #888" stroke="param(outline) #000" stroke-width="param(outline-width) 0" fill-opacity="param(fill-opacity) 1" stroke-opacity="param(outline-opacity) 1" d="M1.45 15L4.55 10.98L6.91 14.94L8 13L12.65 14L12.27 12.94C12.21 12.79 12.28 12.63 12.42 12.56L15 11.25L12.76 9.8C12.64 9.72 12.59 9.56 12.64 9.42L13.13 8.23L10.5 8L15 4.82L12.86 4.29L14.46 0.54L10.71 2.14L10.18 0L7 4.5L6.78 1.87L5.58 2.35C5.44 2.4 5.29 2.35 5.2 2.23L3.75 0L2.44 2.57C2.36 2.71 2.2 2.78 2.05 2.72L0.99 2.34L2 7L0 8.05L4.02 10.45L0.08 13.63C0.12 13.97 0.26 14.26 0.5 14.5C0.74 14.74 1.06 14.91 1.45 15Z"/>
</svg>