<svg xmlns="http://www.w3.org/2000/svg" viewBox="0 0 15 15">
  <path fill="param(fill) #888" stroke="param(outline) #000" stroke-width="param(outline-width) 0" fill-opacity="param(fill-opacity) 1" stroke-opacity="param(outline-opacity) 1" d="M9 5L5 8.5L5 13C5 14 7.5 13.5 7.5 15L1.5 15C1.5 13.5 4 14 4 13L4 8.5L0 5L9 5ZM12 0L12 4L13.12 5.12C13.68 5.68 14 6.45 14 7.24L14 14.5C14 14.78 13.78 15 13.5 15L8.5 15C8.45 15 8.4 14.99 8.35 14.98C8.35 14.5 8.23 14.14 8 13.85L8 7.24C8 7.16 8 7.07 8.01 6.99L9.56 5.64C9.96 5.29 9.92 4.72 9.6 4.4L10 4L10 0L12 0Z"/>
</svg>