<svg xmlns="http://www.w3.org/2000/svg" viewBox="0 0 15 15">
  <path fill="param(fill) #888" stroke="param(outline) #000" stroke-width="param(outline-width) 0" fill-opacity="param(fill-opacity) 1" stroke-opacity="param(outline-opacity) 1" d="M0 4L12.5 4L12.5 10L15 10L14.8 10.69L14.19 11.02L13.66 12L12.18 12L12.32 11.02L11.7 10.43L11.46 11.02L10.49 9.93L11.22 9.27L10.69 8.36L11.22 7.08L10.69 6.59L11.9 4.88L11.46 4.88L10.86 5.71L10.31 5.71L9.9 6.59L10.31 7.46L9.9 8L9.9 9.71L10.49 11.72L8.56 10.43L8.14 9.93L7.5 10.43L7.5 9.71L8 8.36L8.56 7.86L8.14 7.46L7.74 7.86L7.3 7.08L6.6 7.08L6.75 6.31L5.74 6.1L5.31 5.07L4.25 4.55L3.2 5.27L2.05 4.77L1.55 5.63L1.15 5.63L0 6.47z"/>
</svg>