<svg xmlns="http://www.w3.org/2000/svg" viewBox="0 0 15 15">
  <path fill="param(fill) #888" stroke="param(outline) #000" stroke-width="param(outline-width) 0" fill-opacity="param(fill-opacity) 1" stroke-opacity="param(outline-opacity) 1" d="M6.71 0C6.43 0 6.15 0 5.86 0.03C4.68 0.16 3.41 0.52 2.47 1.5C1.45 2.55 1.59 4 1.84 5.12C1.96 5.68 2.09 6.17 2.19 6.59C2.29 7 2.3 7.32 2.29 7.35C2.2 7.66 1.64 8.45 1.09 9.27C0.55 10.09 -0.02 10.98 0 12.02C0.02 12.97 0.56 13.88 1.48 14.39C2.41 14.91 3.67 15.1 5.29 14.95C7.07 14.79 9.47 13.72 11.51 12.2C13.54 10.68 15.27 8.63 14.96 6.34L14.93 6.2C14.6 4.19 13.38 2.76 12.11 1.81C10.8 0.84 9.45 0.37 8.75 0.21C8.26 0.1 7.53 0 6.71 0ZM6.78 1.39C7.49 1.38 8.11 1.45 8.47 1.53C8.9 1.63 10.15 2.11 11.26 2.93C12.37 3.75 13.33 4.92 13.55 6.55C13.75 8 12.5 9.7 10.66 11.08C8.81 12.46 6.44 13.44 5.15 13.56C3.71 13.69 2.75 13.49 2.19 13.17C1.63 12.86 1.42 12.53 1.41 12.02C1.4 11.62 1.78 10.81 2.29 10.04C2.81 9.27 3.39 8.58 3.64 7.77C3.79 7.25 3.68 6.76 3.57 6.27C3.45 5.79 3.32 5.3 3.21 4.81C2.99 3.82 2.93 3.03 3.46 2.47C4.07 1.84 5.06 1.53 6.04 1.43C6.28 1.4 6.54 1.4 6.78 1.39ZM7.38 2.61C6.51 2.59 5.65 2.75 5.01 3.49C4.17 4.47 5.24 6.84 5.01 7.6C4.79 8.36 3.47 9.64 3.49 10.63C3.52 11.62 3.84 12.32 5.93 12.13C8.02 11.94 12.45 9.34 12.11 6.8C11.98 5.86 11.57 4.98 11.05 4.46C10.81 4.23 10.28 4.62 9.99 5.05L7.48 8.75C7.06 9.37 6.11 8.78 6.53 8.16L9.07 4.43C9.48 3.82 9.45 3.16 9.11 2.96C8.79 2.78 8.46 2.72 8.22 2.68C7.95 2.64 7.67 2.62 7.38 2.61Z"/>
</svg>