<svg xmlns="http://www.w3.org/2000/svg" viewBox="0 0 15 15">
  <path fill="param(fill) #888" stroke="param(outline) #000" stroke-width="param(outline-width) 0" fill-opacity="param(fill-opacity) 1" stroke-opacity="param(outline-opacity) 1" d="M6.44 13.45C6.49 13.64 6.45 13.85 6.33 14C6.22 14.16 6.03 14.25 5.84 14.25L3.8 14.25C3.52 14.25 3.27 14.06 3.2 13.78L2.5 10.45L5.83 10.45L6.44 13.45L6.44 13.45ZM13.75 5.03L13.75 8.28C14.47 8.09 15 7.44 15 6.66C15 5.87 14.47 5.22 13.75 5.03ZM11.72 0.75L12.5 0.75L12.5 12.56L11.66 12.56L6.25 9.19L1.45 9.19C1.11 9.19 0.83 8.9 0.83 8.55L0.83 8.34L0 8.34L0 4.97L0.83 4.97L0.83 4.76C0.83 4.41 1.11 4.12 1.45 4.12L6.25 4.12L11.72 0.75ZM6.25 5.39L5 5.39L5 7.92L6.25 7.92L6.25 5.39Z"/>
</svg>