<svg xmlns="http://www.w3.org/2000/svg" viewBox="0 0 15 15">
  <path fill="param(fill) #888" stroke="param(outline) #000" stroke-width="param(outline-width) 0" fill-opacity="param(fill-opacity) 1" stroke-opacity="param(outline-opacity) 1" d="M1.93 14.64L6.93 14.64L6.93 15L10.68 15L11.4 13.39L12.11 12.5L12.29 11.43L13.18 11.61L13.36 10.36L12.83 7.14L12.29 6.25L11.22 6.61L10.15 8.21L9.25 7.86L9.61 6.61L10.5 6.43L10.5 5.54L11.04 5.36L11.22 3.39L10.68 3.04L10.68 2.5L11.22 2.68L10.86 1.61L9.79 1.25L8.9 1.07L8.54 0.36L8 0.36L7.29 0L6.75 0L6.22 0.54L6.22 1.07L6.93 1.25L6.04 1.43L5.33 1.96L5.33 3.39L4.79 3.57L4.79 2.14L3.54 3.39L3.54 3.93L3.18 3.93L3 5.36L2.47 6.43L2.83 7.32L2.47 7.86L3.36 10.36L3.18 11.79L2.83 13.21z"/>
</svg>