<svg xmlns="http://www.w3.org/2000/svg" viewBox="0 0 15 15">
  <path fill="param(fill) #888" stroke="param(outline) #000" stroke-width="param(outline-width) 0" fill-opacity="param(fill-opacity) 1" stroke-opacity="param(outline-opacity) 1" d="M10.45 4.67L10.94 4.92L11.31 4.92L11.56 5.41L12.17 5.53L12.91 5.78L13.16 6.52L12.79 6.39L12.79 6.76L13.16 7.01L13.03 8.36L12.66 8.48L12.66 9.1L12.05 9.22L11.8 10.08L12.42 10.33L13.16 9.22L13.89 8.98L14.26 9.59L14.63 11.8L14.51 12.66L13.89 12.54L13.77 13.28L13.28 13.89L12.79 15L10.2 15L10.2 14.75L6.76 14.75L7.38 13.77L7.62 12.79L7.75 11.8L7.13 10.08L7.38 9.71L7.13 9.1L7.5 8.36L7.62 7.38L7.87 7.38L7.87 7.01L8.73 6.15L8.73 7.13L9.1 7.01L9.1 6.02L9.59 5.66L10.2 5.53L9.71 5.41L9.71 5.04L10.08 4.67L10.45 4.67ZM10.5 9.92L10.14 11.01L9 11.01L9.92 11.76L9.5 13L10.5 12.25L11.5 13L11.08 11.76L12 11.01L10.86 11.01L10.5 9.92ZM4.18 0L5.04 0.12L4.18 0.61L3.69 1.11L3.57 1.97L4.18 1.48L5.04 1.72L5.66 2.7L6.76 2.83L7.87 2.21L8.73 2.34L9.84 1.97L9.84 2.7L10.94 2.83L11.43 2.58L11.56 3.44L11.93 3.81L12.54 3.69L12.79 3.93L12.66 4.18L11.8 4.06L10.57 3.93L10.45 4.06L10.45 4.43L9.71 3.81L8.98 3.81L8.73 4.06L8.11 4.18L7.75 4.06L7.5 4.3L7.38 4.55L6.76 5.04L7.13 4.3L6.64 4.43L6.52 4.8L6.27 4.8L6.27 4.18L5.04 6.27L4.8 6.15L5.04 5.66L4.55 5.66L4.8 5.04L4.67 4.67L4.18 4.55L4.3 4.3L3.32 3.93L2.95 3.93L2.34 3.57L0.49 3.07L0.37 2.7L0 2.46L1.23 1.72L1.97 1.72L3.32 0.49L4.18 0Z"/>
</svg>