<svg xmlns="http://www.w3.org/2000/svg" viewBox="0 0 15 15">
  <path fill="param(fill) #888" stroke="param(outline) #000" stroke-width="param(outline-width) 0" fill-opacity="param(fill-opacity) 1" stroke-opacity="param(outline-opacity) 1" d="M0 6.53L1.55 5.47L2.47 5.47L4.18 3.71L5.26 3L6.34 3.18L5.26 3.88L4.64 4.59L4.48 5.82L5.26 5.12L6.34 5.47L7.11 6.88L8.51 7.06L9.9 6.18L10.98 6.35L12.37 5.82L12.37 6.88L13.76 7.06L14.38 6.71L14.54 7.94L15 8.47L14.85 8.82L13.3 8.65L13.14 8.82L13.14 9.35L12.22 8.47L11.29 8.47L10.98 8.82L10.21 9L9.74 8.82L9.43 9.18L9.28 9.53L8.51 10.24L8.97 9.18L8.35 9.35L8.2 9.88L7.89 9.88L7.89 9L6.06 12.18L5.75 12L6.06 11.29L5.44 11.29L5.75 10.41L5.6 9.88L4.98 9.71L5.13 9.35L4.18 8.65L3.71 8.65L2.94 8.12L0.62 7.41L0.46 6.88z"/>
</svg>