<?xml version="1.0" encoding="UTF-8"?>
<svg viewBox="0 0 15 15" version="1.1" xmlns="http://www.w3.org/2000/svg" xmlns:xlink="http://www.w3.org/1999/xlink">
  <path fill="param(fill) #888" stroke="param(outline) #000" stroke-width="param(outline-width) 0" fill-opacity="param(fill-opacity) 1" stroke-opacity="param(outline-opacity) 1" d="M13.76 1.24C12.59 0.06 10.84 -0.32 9.29 0.28C7.74 0.88 6.69 2.33 6.62 3.99L11.01 8.38C12.67 8.31 14.12 7.26 14.72 5.71C15.32 4.16 14.94 2.41 13.76 1.24ZM3.37 8.65L0.41 11.63C-0.14 12.17 -0.14 13.05 0.41 13.6L1.4 14.59C1.95 15.14 2.83 15.14 3.37 14.59L6.34 11.63L9.3 8.66L6.34 5.68L3.37 8.65ZM4.41 11.57L3.41 10.58L6.34 7.67L7.33 8.66L4.41 11.57Z"/>
</svg>