<svg xmlns="http://www.w3.org/2000/svg" viewBox="0 0 15 15">
  <path fill="param(fill) #888" stroke="param(outline) #000" stroke-width="param(outline-width) 0" fill-opacity="param(fill-opacity) 1" stroke-opacity="param(outline-opacity) 1" d="M11 8L11 14.5C11 14.5 11 14.5 11 14.5C11 14.78 10.77 15 10.5 15L5 14.98L11 8ZM4 14.5L4 8.5C4 8.22 4.22 8 4.5 8L9.5 8L4 14.5ZM9.46 6.42C8.98 7.1 8.26 7.5 7.5 7.5C6.74 7.5 6.02 7.1 5.54 6.42C5.07 5.74 4.89 4.85 5.07 4L9.93 4C10.11 4.85 9.93 5.74 9.46 6.42ZM9.83 3.5L5.17 3.5C4.81 3.51 4.51 3.12 4.5 2.63L4.5 2.54C4.51 2.09 4.76 1.72 5.09 1.68L9.76 1.01C9.94 0.98 10.13 1.05 10.27 1.22C10.41 1.38 10.5 1.62 10.5 1.87L10.5 2.63C10.49 3.12 10.19 3.51 9.83 3.5Z"/>
</svg>