<svg xmlns="http://www.w3.org/2000/svg" viewBox="0 0 15 15">
  <path fill="param(fill) #888" stroke="param(outline) #000" stroke-width="param(outline-width) 0" fill-opacity="param(fill-opacity) 1" stroke-opacity="param(outline-opacity) 1" d="M11.51 7.41C11.85 7.58 12.21 7.68 12.58 7.73L12.72 7.86C12.47 8.13 12.33 8.35 12.29 8.82C12.92 8.74 13.53 8.89 14.01 9.24C14.67 9.73 15.03 10.57 14.98 11.53C14.9 13.04 14.22 14.32 13.23 14.8C12.7 15.05 12.15 15.04 11.66 14.77C11.38 14.92 11.09 15 10.79 15C10.53 15 10.27 14.94 10.03 14.82C9.06 14.36 8.41 13.1 8.33 11.54L8.34 11.53C8.29 10.57 8.64 9.73 9.31 9.24C9.8 8.88 10.41 8.74 11.06 8.82C11.1 8.26 11.23 7.83 11.49 7.44ZM7.66 2.52L8.6 3.99L8.3 4.72L8.27 4.82C8.16 5.28 8.5 5.75 9 5.75L9.17 5.75L9.17 7.97C8.94 8.07 8.72 8.19 8.52 8.34C7.54 9.04 7.02 10.21 7.09 11.54C7.17 12.97 7.64 14.18 8.4 14.99L4.59 14.99L0 14.97L0 5.84L4.59 5.84L4.58 5.85L4.58 14.16L5.83 14.16L5.83 5.41L7.65 2.52L7.66 2.52ZM12.91 -0.01C13.55 -0.02 14.19 0.22 14.74 0.74C14.74 0.75 14.35 1.71 14.35 1.71C13.57 0.75 12.16 0.69 11.41 2L14.23 2L13.83 3L11.07 3C11.02 3.33 11.02 3.67 11.07 4L13.43 4L13.03 5L11.41 5C12.06 6.13 13.38 6.39 14.25 5.3L14.76 6.22C13.3 7.64 11.12 7.04 10.3 5L9 5L9.4 4L10.05 4C10.01 3.67 10.01 3.33 10.05 3L9 3L9.4 2L10.3 2L10.39 1.79C10.93 0.65 11.91 0.02 12.91 0ZM6.19 2.52L4.87 4.6L0.18 4.6L1.51 2.52L6.19 2.52ZM1.66 0L7.52 0.02L7.5 1.27L1.66 1.27L1.66 0Z"/>
</svg>