<svg xmlns="http://www.w3.org/2000/svg" viewBox="0 0 15 15">
  <path fill="param(fill) #888" stroke="param(outline) #000" stroke-width="param(outline-width) 0" fill-opacity="param(fill-opacity) 1" stroke-opacity="param(outline-opacity) 1" d="M11.84 7L12.72 7.86C12.47 8.13 12.33 8.35 12.29 8.82C12.92 8.74 13.53 8.89 14.01 9.24C14.67 9.73 15.03 10.57 14.98 11.53C14.9 13.04 14.22 14.32 13.23 14.8C12.7 15.05 12.15 15.04 11.66 14.77C11.38 14.92 11.09 15 10.79 15C10.53 15 10.27 14.94 10.03 14.82C9.06 14.36 8.41 13.1 8.33 11.54L8.34 11.53C8.29 10.57 8.64 9.73 9.31 9.24C9.8 8.88 10.41 8.74 11.06 8.82C11.11 8.05 11.34 7.53 11.84 7ZM7.66 2.52L9.17 4.89L9.17 7.97C8.94 8.07 8.72 8.19 8.52 8.34C7.54 9.04 7.02 10.21 7.09 11.54C7.17 12.97 7.64 14.18 8.4 14.99L4.59 14.99L0 14.97L0 5.84L4.59 5.84L4.58 5.85L4.58 14.16L5.83 14.16L5.83 5.41L7.65 2.52L7.66 2.52ZM12 0C13.03 0 13.91 0.62 14.29 1.5L15 1.5L15 2.25L14.49 2.25C14.5 2.33 14.5 2.42 14.5 2.5C14.5 2.58 14.5 2.67 14.49 2.75L15 2.75L15 3.5L14.29 3.5C13.91 4.38 13.02 5 12 5L11 5L11 7L10 7L10 3.5L9 3.5L9 2.75L10 2.75L10 2.25L9 2.25L9 1.5L10 1.5L10 0L12 0ZM6.19 2.52L4.87 4.6L0.18 4.6L1.51 2.52L6.19 2.52ZM11 3.5L11 4L12 4C12.44 4 12.84 3.81 13.12 3.5L11 3.5ZM13.48 2.25L11 2.25L11 2.75L13.48 2.75C13.49 2.67 13.5 2.59 13.5 2.5C13.5 2.41 13.49 2.33 13.48 2.25ZM12 1L11 1L11 1.5L13.12 1.5C12.84 1.19 12.44 1 12 1ZM1.66 0L7.52 0.02L7.5 1.27L1.66 1.27L1.66 0Z"/>
</svg>