<svg xmlns="http://www.w3.org/2000/svg" viewBox="0 0 15 15">
  <path fill="param(fill) #888" stroke="param(outline) #000" stroke-width="param(outline-width) 0" fill-opacity="param(fill-opacity) 1" stroke-opacity="param(outline-opacity) 1" d="M6.19 2.52L1.51 2.52L0.18 4.6L4.87 4.6L6.19 2.52ZM1.66 1.27L1.66 0L7.52 0.02L7.5 1.27L1.66 1.27ZM4.58 5.85L4.58 14.16L5.83 14.16L5.83 5.41L7.65 2.52L7.66 2.52L9.17 4.89L9.17 7.97C8.94 8.07 8.72 8.19 8.52 8.34C7.54 9.04 7.02 10.21 7.09 11.54C7.17 12.97 7.64 14.18 8.4 14.99L4.59 14.99L0 14.97L0 5.84L4.59 5.84L4.58 5.85ZM12.41 6.45C12.69 6.56 12.99 6.61 13.3 6.61C13.95 6.61 14.57 6.35 15 5.86L14.06 5.04C13.78 5.36 13.31 5.45 12.85 5.28C12.6 5.19 12.39 5.02 12.22 4.81L13.28 4.81L13.28 3.56L11.76 3.56C11.74 3.35 11.74 3.14 11.78 2.94L13.29 2.94L13.29 1.69L12.32 1.69C12.47 1.53 12.64 1.41 12.84 1.33C13.29 1.16 13.75 1.26 14.03 1.57L14.97 0.75C14.35 0.04 13.34 -0.19 12.4 0.17C11.69 0.43 11.16 0.97 10.84 1.69L9.95 1.69L9.95 2.94L10.51 2.94C10.51 3.02 10.51 3.1 10.5 3.18L10.49 3.18C10.49 3.22 10.49 3.26 10.5 3.29L10.49 3.41L10.5 3.41C10.5 3.46 10.51 3.51 10.51 3.56L9.95 3.56L9.95 4.81L10.79 4.81C11.1 5.59 11.66 6.17 12.41 6.45L12.41 6.45ZM8.34 11.53C8.29 10.57 8.64 9.73 9.31 9.24C9.8 8.88 10.41 8.74 11.06 8.82C11.11 8.05 11.34 7.53 11.84 7L12.72 7.86C12.47 8.13 12.33 8.35 12.29 8.82C12.92 8.74 13.53 8.89 14.01 9.24C14.67 9.73 15.03 10.57 14.98 11.53C14.9 13.04 14.22 14.32 13.23 14.8C12.7 15.05 12.15 15.04 11.66 14.77C11.38 14.92 11.09 15 10.79 15C10.53 15 10.27 14.94 10.03 14.82C9.06 14.36 8.41 13.1 8.33 11.54L8.34 11.53Z"/>
</svg>