<svg xmlns="http://www.w3.org/2000/svg" viewBox="0 0 15 15">
  <path fill="param(fill) #888" stroke="param(outline) #000" stroke-width="param(outline-width) 0" fill-opacity="param(fill-opacity) 1" stroke-opacity="param(outline-opacity) 1" d="M1.39 0C1.2 0 1.04 0.16 1.04 0.35L1.04 2.84L0.04 5.13C0.02 5.18 0 5.22 0 5.27L0 14.65C0 14.84 0.16 15 0.35 15L15 15L15 8.83L8.04 8.83C8.04 7.64 8.04 6.46 8.04 5.27C8.04 5.22 8.03 5.16 8.01 5.13L7 2.84L7 0.35C7 0.16 6.84 0 6.65 0L1.39 0ZM1.74 0.71L6.31 0.71L6.31 2.75L1.74 2.75L1.74 0.71ZM1.68 3.1L6.34 3.1L6.36 3.13C6.03 3.86 5.7 4.61 5.42 5.23L5.42 8.83L3.68 8.83L3.68 14.29L0.7 14.29C0.69 11.34 0.69 8.33 0.69 5.35L1.68 3.1ZM6.55 3.57L7.33 5.35L7.33 8.83L5.77 8.83L5.77 5.31C5.77 5.31 5.77 5.3 5.77 5.3L6.55 3.57ZM5.69 9.73C6.25 9.73 6.71 10.19 6.71 10.75C6.71 11.31 6.25 11.77 5.69 11.77C5.12 11.77 4.67 11.31 4.67 10.75C4.67 10.19 5.12 9.73 5.69 9.73ZM12.56 10.17C13.33 10.17 13.96 10.79 13.96 11.56C13.96 12.33 13.33 12.95 12.56 12.95C11.79 12.95 11.17 12.33 11.17 11.56C11.17 10.79 11.79 10.17 12.56 10.17L12.56 10.17ZM8.68 11.81C9.33 11.81 9.86 12.34 9.86 12.99C9.86 13.64 9.33 14.17 8.68 14.17C8.02 14.17 7.5 13.64 7.5 12.99C7.5 12.34 8.02 11.81 8.68 11.81Z"/>
</svg>