<svg xmlns="http://www.w3.org/2000/svg" viewBox="0 0 15 15">
  <path fill="param(fill) #888" stroke="param(outline) #000" stroke-width="param(outline-width) 0" fill-opacity="param(fill-opacity) 1" stroke-opacity="param(outline-opacity) 1" d="M0.5 0L4.19 0L7.34 1.38L8.12 0.86L9.3 1.38L9.72 2.07L10.27 1.84L11.35 2.75L12.43 2.07L12.85 2.48L15 2.75L12.43 4.01L11.49 5.07L10.27 6.19L9.91 6.5L10.27 8.04L9.25 8.45L9.25 9.32L9.65 9.86L9.25 10.55L9.25 11.5L10.61 12.84L10.61 13.17L12 13.88L12 15L2 15L2 10.15L1.28 9.45L1.75 8.75L1.75 7.44L1.25 6.75L1.25 3.6L0.5 2.49z"/>
</svg>