<svg xmlns="http://www.w3.org/2000/svg" viewBox="0 0 15 15">
  <path fill="param(fill) #888" stroke="param(outline) #000" stroke-width="param(outline-width) 0" fill-opacity="param(fill-opacity) 1" stroke-opacity="param(outline-opacity) 1" d="M9 1L9.61 1.69L9.26 2.55L9.61 3.49L11.33 4.82L11.33 5.88L12.49 6.32L12.02 7.95L13.97 9.42L13.97 10.33L15 11.47L15 12L14.74 12.5L14 12.5L13.5 14L11.75 14L12.25 13.25L12 12.5L2.5 12.5L2.5 5.5L1.33 4.13L1.97 3.49L1.63 3.02L0.79 2.55L0 1L9 1ZM7.5 5.92L7.14 7.01L6 7.01L6.92 7.76L6.5 9L7.5 8.25L8.5 9L8.08 7.76L9 7.01L7.86 7.01L7.5 5.92Z"/>
</svg>