<svg xmlns="http://www.w3.org/2000/svg" viewBox="0 0 15 15">
  <path fill="param(fill) #888" stroke="param(outline) #000" stroke-width="param(outline-width) 0" fill-opacity="param(fill-opacity) 1" stroke-opacity="param(outline-opacity) 1" d="M7.88 0L7.88 3.63C8.05 3.71 8.2 3.86 8.29 4.06L8.43 4.39C8.46 4.45 8.48 4.5 8.5 4.56L10.13 3.54L10.13 2.07L12.14 0.46C12.3 0.33 12.54 0.35 12.67 0.52C12.8 0.68 12.77 0.91 12.61 1.04L10.88 2.43L10.88 3.96L8.75 5.29C8.92 5.88 9 6.5 9 7.13L9 8.09C9 8.13 9 8.18 9 8.22L11.71 10.39L10.99 12.05L12.54 12.79C12.72 12.88 12.8 13.1 12.71 13.29C12.62 13.47 12.4 13.55 12.21 13.46L10.01 12.42L10.79 10.61L8.84 9.05C8.76 9.28 8.66 9.51 8.52 9.71L9.83 10.76L9.04 12.72L10.07 14.43C10.18 14.61 10.12 14.84 9.94 14.95C9.77 15.05 9.53 15 9.43 14.82L8.21 12.78L8.92 10.99L8.11 10.34C7.81 10.75 7.19 10.75 6.89 10.34L6.08 10.99L6.79 12.78L5.57 14.82C5.47 15 5.23 15.05 5.06 14.95C4.88 14.84 4.82 14.61 4.93 14.43L5.96 12.72L5.17 10.76L6.48 9.71L6.41 9.62C6.3 9.45 6.21 9.26 6.14 9.07L4.21 10.61L4.99 12.42L2.79 13.46C2.6 13.55 2.38 13.47 2.29 13.29C2.2 13.1 2.28 12.88 2.46 12.79L4.01 12.05L3.29 10.39L6 8.22L6 7.49C6 6.75 6.1 6.02 6.28 5.31L4.13 3.96L4.13 2.43L2.39 1.04C2.23 0.91 2.2 0.68 2.33 0.52C2.46 0.35 2.7 0.33 2.86 0.46L4.88 2.07L4.88 3.54L6.51 4.57C6.57 4.4 6.64 4.23 6.71 4.06C6.8 3.86 6.95 3.71 7.13 3.63L7.13 0L7.88 0ZM5.86 5.71C5.95 5.78 6 5.89 6 6C6 6.68 5.34 8.29 3.05 8.62C1.95 8.78 1.19 8.63 0.7 8.3C0.19 7.98 0 7.5 0 7.12C0 6.95 0.12 6.8 0.3 6.76L5.55 5.63C5.66 5.61 5.77 5.64 5.86 5.71ZM9.45 5.63L14.7 6.76C14.88 6.8 15 6.95 15 7.12C15 7.5 14.81 7.98 14.3 8.3C13.81 8.63 13.05 8.78 11.95 8.62C9.66 8.29 9 6.68 9 6C9 5.89 9.05 5.78 9.14 5.71C9.23 5.64 9.34 5.61 9.45 5.63ZM5.11 6.49L0.84 7.41C0.89 7.5 0.98 7.59 1.1 7.67C1.39 7.86 1.95 8.02 2.95 7.88C4.29 7.69 4.88 7 5.11 6.49ZM9.89 6.49C10.12 7 10.71 7.69 12.05 7.88C13.05 8.02 13.61 7.86 13.9 7.67C14.02 7.59 14.11 7.5 14.16 7.41L9.89 6.49Z"/>
</svg>