<svg xmlns="http://www.w3.org/2000/svg" viewBox="0 0 15 15">
  <path fill="param(fill) #888" stroke="param(outline) #000" stroke-width="param(outline-width) 0" fill-opacity="param(fill-opacity) 1" stroke-opacity="param(outline-opacity) 1" d="M13 10C13 12 10.5 14 8.5 14C7.17 14 4.83 14 1.5 14L0 10L9.5 10L7.5 8L8.5 7.5L11.5 10L13 10ZM4 9.5L0 9.5L0 7.5L3 7.5C3.55 7.5 4 7.95 4 8.5L4 9.5ZM11 0L12.5 2.75L14 0L15 0L15 0.5L13.57 3L15 3L15 4L13 4L13 5L15 5L15 6L13 6L13 7.5L12 7.5L12 6L10 6L10 5L12 5L12 4L10 4L10 3L11.43 3L10 0.5L10 0L11 0Z"/>
</svg>