<svg xmlns="http://www.w3.org/2000/svg" viewBox="0 0 15 15">
  <path fill="param(fill) #888" stroke="param(outline) #000" stroke-width="param(outline-width) 0" fill-opacity="param(fill-opacity) 1" stroke-opacity="param(outline-opacity) 1" d="M11 0L12.5 2.75L14 0L15 0L15 0.5L13.57 3L15 3L15 4L13 4L13 5L15 5L15 6L13 6L13 7.5L12 7.5L12 6L10 6L10 5L12 5L12 4L10 4L10 3L11.43 3L10 0.5L10 0L11 0ZM8.16 8L6.5 8C6.22 8 6 7.78 6 7.5C6 7.22 6.22 7 6.5 7L8.49 7C8.52 7 8.55 7 8.58 7.01C8.66 7.02 8.74 7.05 8.8 7.1C8.85 7.14 8.89 7.18 8.93 7.24C8.94 7.27 8.96 7.3 8.97 7.33L10.04 10L10.5 10C11.88 10 13 11.12 13 12.5C13 13.88 11.88 15 10.5 15C9.12 15 8 13.88 8 12.5C8 12.33 8.02 12.16 8.05 12L7 12C7 12.55 6.55 13 6 13L4.95 13C4.72 14.14 3.71 15 2.5 15C1.12 15 0 13.88 0 12.5C0 11.29 0.86 10.28 2 10.05L2 10L5 10L8.6 9.1L8.16 8ZM3.91 13L3 13C2.45 13 2 12.55 2 12L2 11.09C1.42 11.29 1 11.85 1 12.5C1 13.33 1.67 14 2.5 14C3.15 14 3.71 13.58 3.91 13L3.91 13ZM9.51 11.37C9.2 11.65 9 12.05 9 12.5C9 13.33 9.67 14 10.5 14C11.33 14 12 13.33 12 12.5C12 11.67 11.33 11 10.5 11C10.48 11 10.46 11 10.44 11L10.96 12.31C11.07 12.57 10.94 12.86 10.69 12.96C10.43 13.07 10.14 12.94 10.04 12.69L9.51 11.37L9.51 11.37ZM4 9.5L1 9.5L1 8L3 8C3.55 8 4 8.45 4 9L4 9.5Z"/>
</svg>