<svg xmlns="http://www.w3.org/2000/svg" viewBox="0 0 15 15">
  <path fill="param(fill) #888" stroke="param(outline) #000" stroke-width="param(outline-width) 0" fill-opacity="param(fill-opacity) 1" stroke-opacity="param(outline-opacity) 1" d="M12.5 9.5C12.82 9.5 13.14 9.61 13.39 9.81L13.71 10.07C14.06 10.35 14.49 10.5 14.95 10.5L15 10.5L15 12L14.95 12C14.49 12 14.06 11.84 13.71 11.56L13.39 11.31C13.14 11.11 12.82 11 12.5 11C12.18 11 11.86 11.11 11.61 11.31L11.3 11.56C10.94 11.84 10.5 12 10.05 12L9.95 12C9.5 12 9.06 11.84 8.7 11.56L8.39 11.31C8.14 11.11 7.82 11 7.5 11C7.18 11 6.86 11.11 6.61 11.31L6.3 11.56C5.94 11.84 5.5 12 5.05 12L4.95 12C4.5 12 4.06 11.84 3.7 11.56L3.39 11.31C3.14 11.11 2.82 11 2.5 11C2.18 11 1.86 11.11 1.61 11.31L1.29 11.56C0.94 11.84 0.51 12 0.05 12L0 12L0 10.5L0.05 10.5C0.51 10.5 0.94 10.35 1.29 10.07L1.61 9.81C1.81 9.65 2.06 9.55 2.32 9.51C2.38 9.51 2.44 9.5 2.5 9.5L2.66 9.51C2.93 9.54 3.18 9.65 3.39 9.81L3.7 10.06C4.06 10.35 4.5 10.5 4.95 10.5L5.05 10.5C5.5 10.5 5.94 10.35 6.3 10.06L6.61 9.81C6.86 9.61 7.18 9.5 7.5 9.5C7.66 9.5 7.82 9.53 7.97 9.58C7.98 9.59 7.99 9.59 8 9.59C8.04 9.61 8.07 9.62 8.11 9.64C8.13 9.65 8.16 9.66 8.18 9.68C8.2 9.69 8.22 9.7 8.24 9.71C8.29 9.74 8.34 9.78 8.39 9.81L8.7 10.06C9.06 10.35 9.5 10.5 9.95 10.5L10.05 10.5C10.5 10.5 10.94 10.35 11.3 10.06L11.61 9.81C11.86 9.61 12.18 9.5 12.5 9.5ZM9.5 3.5L12.5 6L14 6C14 6.9 13.49 7.8 12.76 8.52C12.67 8.51 12.59 8.5 12.5 8.5C11.95 8.5 11.42 8.69 10.98 9.03L10.67 9.28C10.5 9.42 10.28 9.5 10.05 9.5L9.95 9.5C9.72 9.5 9.5 9.42 9.33 9.28L9.01 9.03C8.58 8.69 8.05 8.5 7.5 8.5C6.95 8.5 6.42 8.69 5.99 9.03L5.67 9.28C5.5 9.42 5.28 9.5 5.05 9.5L4.95 9.5C4.72 9.5 4.5 9.42 4.33 9.28L4.01 9.03C3.58 8.69 3.05 8.5 2.5 8.5C2.32 8.5 2.14 8.52 1.96 8.56L1 6L10.5 6L8.5 4L9.5 3.5ZM4 3.5C4.55 3.5 5 3.95 5 4.5L5 5.5L1 5.5L1 3.5L4 3.5Z"/>
</svg>