<svg xmlns="http://www.w3.org/2000/svg" viewBox="0 0 15 15">
  <path fill="param(fill) #888" stroke="param(outline) #000" stroke-width="param(outline-width) 0" fill-opacity="param(fill-opacity) 1" stroke-opacity="param(outline-opacity) 1" d="M13 10C13 12 10.5 14 8.5 14C7.17 14 4.83 14 1.5 14L0 10L9.5 10L7.5 8L8.5 7.5L11.5 10L13 10ZM4 9.5L0 9.5L0 7.5L3 7.5C3.55 7.5 4 7.95 4 8.5L4 9.5ZM12.91 0C11.85 0.02 10.81 0.73 10.3 2L10.3 2L9.4 2L9 3L10.05 3C10.01 3.33 10.01 3.67 10.05 4L9.4 4L9 5L10.3 5C11.12 7.04 13.3 7.64 14.76 6.22L14.25 5.3C13.38 6.39 12.06 6.13 11.41 5L13.03 5L13.43 4L11.07 4C11.02 3.67 11.02 3.33 11.07 3L13.83 3L14.23 2L11.41 2C12.16 0.69 13.57 0.75 14.35 1.71C14.35 1.71 14.74 0.75 14.74 0.74C14.19 0.22 13.55 -0.02 12.91 -0.01L12.91 0Z"/>
</svg>