<svg xmlns="http://www.w3.org/2000/svg" viewBox="0 0 15 15">
  <path fill="param(fill) #888" stroke="param(outline) #000" stroke-width="param(outline-width) 0" fill-opacity="param(fill-opacity) 1" stroke-opacity="param(outline-opacity) 1" d="M10.5 3L10.5 4.5L13.5 4.5L13.5 5.5L10.5 5.5L10.5 7L8.5 5L10.5 3ZM12 0L14 2L12 4L12 2.5L9 2.5L9 1.5L12 1.5L12 0ZM13 10C13 12 10.5 14 8.5 14C7.17 14 4.83 14 1.5 14L0 10L9.5 10L7.5 8L8.5 7.5L11.5 10L13 10ZM4 9.5L0 9.5L0 7.5L3 7.5C3.55 7.5 4 7.95 4 8.5L4 9.5Z"/>
</svg>