<svg xmlns="http://www.w3.org/2000/svg" viewBox="0 0 15 15">
  <path fill="param(fill) #888" stroke="param(outline) #000" stroke-width="param(outline-width) 0" fill-opacity="param(fill-opacity) 1" stroke-opacity="param(outline-opacity) 1" d="M1 0L8 0L8 1L1 1L1 0ZM1 2L8 2L8 3L1 3L1 2ZM1 4L8 4L8 5L1 5L1 4ZM13.25 0L11.25 3.5L10.25 2L8.5 2L10.5 5L12 5L15 0L13.25 0ZM14 10C14 12 11.5 14 9.5 14C8.17 14 5.83 14 2.5 14L1 10L10.5 10L8.5 8L9.5 7.5L12.5 10L14 10ZM5 9.5L1 9.5L1 7.5L4 7.5C4.55 7.5 5 7.95 5 8.5L5 9.5Z"/>
</svg>