<svg xmlns="http://www.w3.org/2000/svg" viewBox="0 0 15 15">
  <path fill="param(fill) #888" stroke="param(outline) #000" stroke-width="param(outline-width) 0" fill-opacity="param(fill-opacity) 1" stroke-opacity="param(outline-opacity) 1" d="M3 2L9.21 2C9.6 1.12 10.48 0.5 11.5 0.5C12.52 0.5 13.4 1.12 13.79 2L11.5 2L11 3L11.5 4L13.79 4C13.4 4.88 12.52 5.5 11.5 5.5C10.48 5.5 9.6 4.88 9.21 4L3 4C2.45 4 2 3.55 2 3C2 2.45 2.45 2 3 2ZM14 10C14 12 11.5 14 9.5 14C8.17 14 5.83 14 2.5 14L1 10L10.5 10L8.5 8L9.5 7.5L12.5 10L14 10ZM5 9.5L1 9.5L1 7.5L4 7.5C4.55 7.5 5 7.95 5 8.5L5 9.5Z"/>
</svg>