<svg xmlns="http://www.w3.org/2000/svg" viewBox="0 0 15 15">
  <path fill="param(fill) #888" stroke="param(outline) #000" stroke-width="param(outline-width) 0" fill-opacity="param(fill-opacity) 1" stroke-opacity="param(outline-opacity) 1" d="M13 10C13 12 10.5 14 8.5 14C7.17 14 4.83 14 1.5 14L0 10L9.5 10L7.5 8L8.5 7.5L11.5 10L13 10ZM4 9.5L0 9.5L0 7.5L3 7.5C3.55 7.5 4 7.95 4 8.5L4 9.5ZM13 0C14.05 0 14.92 0.82 14.99 1.85L15 2L14 2.25L14 2C14 1.45 13.55 1 13 1C12.49 1 12.06 1.39 12.01 1.88L12 2L12.67 3L14.5 3L14 4L13 4C13 4.32 12.87 4.63 12.65 4.85L12.5 5L15 5L14.5 6L11 6L11 5C11.4 5 11.74 4.74 11.85 4.36L11.88 4.25C11.89 4.17 11.9 4.08 11.9 4L10.5 4L11 3L11.66 3L11.58 2.87L11 2C11 0.9 11.9 0 13 0Z"/>
</svg>