<svg xmlns="http://www.w3.org/2000/svg" viewBox="0 0 15 15">
  <path fill="param(fill) #888" stroke="param(outline) #000" stroke-width="param(outline-width) 0" fill-opacity="param(fill-opacity) 1" stroke-opacity="param(outline-opacity) 1" d="M13 10C13 12 10.5 14 8.5 14C7.17 14 4.83 14 1.5 14L0 10L9.5 10L7.5 8L8.5 7.5L11.5 10L13 10ZM4 9.5L0 9.5L0 7.5L3 7.5C3.55 7.5 4 7.95 4 8.5L4 9.5ZM13 0C14.1 0 15 0.9 15 2C15 3.1 14.1 4 13 4L12 4L12 5L14 5L14 6L12 6L12 7.5L11 7.5L11 6L10 6L10 5L11 5L11 4L10 4L10 3L11 3L11 0L13 0ZM13 1L12 1L12 3L13 3C13.55 3 14 2.55 14 2C14 1.45 13.55 1 13 1Z"/>
</svg>