<svg xmlns="http://www.w3.org/2000/svg" viewBox="0 0 15 15">
  <path fill="param(fill) #888" stroke="param(outline) #000" stroke-width="param(outline-width) 0" fill-opacity="param(fill-opacity) 1" stroke-opacity="param(outline-opacity) 1" d="M13 10C13 12 10.5 14 8.5 14C7.17 14 4.83 14 1.5 14L0 10L9.5 10L7.5 8L8.5 7.5L11.5 10L13 10ZM4 9.5L0 9.5L0 7.5L3 7.5C3.55 7.5 4 7.95 4 8.5L4 9.5ZM12 1C12.83 1 13.5 1.67 13.5 2.5L13.5 4.5L12.5 4.5L12.5 2.5C12.5 2.22 12.28 2 12 2L10.5 2L10.5 6L9.5 6L9.5 1L12 1ZM15 1L15 6L12.5 6C11.67 6 11 5.33 11 4.5L11 2.5L12 2.5L12 4.5C12 4.78 12.22 5 12.5 5L14 5L14 1L15 1Z"/>
</svg>