<svg xmlns="http://www.w3.org/2000/svg" viewBox="0 0 15 15">
  <path fill="param(fill) #888" stroke="param(outline) #000" stroke-width="param(outline-width) 0" fill-opacity="param(fill-opacity) 1" stroke-opacity="param(outline-opacity) 1" d="M13 10C13 12 10.5 14 8.5 14C7.17 14 4.83 14 1.5 14L0 10L9.5 10L7.5 8L8.5 7.5L11.5 10L13 10ZM4 9.5L0 9.5L0 7.5L3 7.5C3.55 7.5 4 7.95 4 8.5L4 9.5ZM11.5 4C12.15 4 12.71 3.58 12.91 3L10 3L10.5 2L12.91 2C12.71 1.42 12.15 1 11.5 1L10 1L10.5 0L15 0L14.5 1L13.5 1C13.72 1.29 13.87 1.63 13.95 2L15 2L14.5 3L13.95 3C13.74 4.06 12.85 4.87 11.77 4.99L15 7.5L13.25 7.5L10 5L10 4L11.5 4Z"/>
</svg>