<svg xmlns="http://www.w3.org/2000/svg" viewBox="0 0 15 15">
  <path fill="param(fill) #888" stroke="param(outline) #000" stroke-width="param(outline-width) 0" fill-opacity="param(fill-opacity) 1" stroke-opacity="param(outline-opacity) 1" d="M1 0L8 0L8 1L1 1zM1 2L8 2L8 3L1 3zM1 4L8 4L8 5L1 5zM13.25 0L11.25 3.5L10.25 2L8.5 2L10.5 5L12 5L15 0zM9.16 8L7.5 8C7.22 8 7 7.78 7 7.5C7 7.22 7.22 7 7.5 7L9.49 7C9.52 7 9.55 7 9.58 7.01C9.66 7.02 9.74 7.05 9.8 7.1C9.85 7.14 9.89 7.18 9.93 7.24C9.94 7.27 9.96 7.3 9.97 7.33L11.04 10L11.5 10C12.88 10 14 11.12 14 12.5C14 13.88 12.88 15 11.5 15C10.12 15 9 13.88 9 12.5C9 12.33 9.02 12.16 9.05 12L8 12C8 12.55 7.55 13 7 13L5.95 13C5.72 14.14 4.71 15 3.5 15C2.12 15 1 13.88 1 12.5C1 11.29 1.86 10.28 3 10.05L3 10L6 10L9.6 9.1L9.16 8ZM4.91 13L4 13C3.45 13 3 12.55 3 12L3 11.09C2.42 11.29 2 11.85 2 12.5C2 13.33 2.67 14 3.5 14C4.15 14 4.71 13.58 4.91 13L4.91 13ZM10.51 11.37C10.2 11.65 10 12.05 10 12.5C10 13.33 10.67 14 11.5 14C12.33 14 13 13.33 13 12.5C13 11.67 12.33 11 11.5 11C11.48 11 11.46 11 11.44 11L11.96 12.31C12.07 12.57 11.94 12.86 11.69 12.96C11.43 13.07 11.14 12.94 11.04 12.69L10.51 11.37L10.51 11.37ZM5 9.5L2 9.5L2 8L4 8C4.55 8 5 8.45 5 9L5 9.5Z"/>
</svg>