<svg xmlns="http://www.w3.org/2000/svg" viewBox="0 0 15 15">
  <path fill="param(fill) #888" stroke="param(outline) #000" stroke-width="param(outline-width) 0" fill-opacity="param(fill-opacity) 1" stroke-opacity="param(outline-opacity) 1" d="M9.16 7L7.5 7C7.22 7 7 6.78 7 6.5C7 6.22 7.22 6 7.5 6L9.49 6C9.52 6 9.55 6 9.58 6.01C9.66 6.02 9.74 6.05 9.8 6.1C9.85 6.14 9.89 6.18 9.93 6.24C9.94 6.27 9.96 6.3 9.97 6.33L11.04 9L11.5 9C12.88 9 14 10.12 14 11.5C14 12.88 12.88 14 11.5 14C10.12 14 9 12.88 9 11.5C9 11.33 9.02 11.16 9.05 11L8 11C8 11.55 7.55 12 7 12L5.95 12C5.72 13.14 4.71 14 3.5 14C2.12 14 1 12.88 1 11.5C1 10.29 1.86 9.28 3 9.05L3 9L6 9L9.6 8.1L9.16 7ZM4.91 12L4 12C3.45 12 3 11.55 3 11L3 10.09C2.42 10.29 2 10.85 2 11.5C2 12.33 2.67 13 3.5 13C4.15 13 4.71 12.58 4.91 12L4.91 12ZM10.51 10.37C10.2 10.65 10 11.05 10 11.5C10 12.33 10.67 13 11.5 13C12.33 13 13 12.33 13 11.5C13 10.67 12.33 10 11.5 10C11.48 10 11.46 10 11.44 10L11.96 11.31C12.07 11.57 11.94 11.86 11.69 11.96C11.43 12.07 11.14 11.94 11.04 11.69L10.51 10.37L10.51 10.37ZM5 8.5L2 8.5L2 7L4 7C4.55 7 5 7.45 5 8L5 8.5ZM3.5 1C3.22 1 3 1.22 3 1.5L3 4.5C3 4.78 3.22 5 3.5 5L5 5C5.74 5 6.38 4.6 6.72 4L7.5 4L8.5 3L9.5 4L10.5 3L11.5 4L12.5 3L11.5 2L6.72 2C6.38 1.4 5.74 1 5 1L3.5 1ZM4.5 2C4.78 2 5 2.22 5 2.5L5 3.5C5 3.78 4.78 4 4.5 4C4.22 4 4 3.78 4 3.5L4 2.5C4 2.22 4.22 2 4.5 2Z"/>
</svg>