<svg xmlns="http://www.w3.org/2000/svg" viewBox="0 0 15 15">
  <path fill="param(fill) #888" stroke="param(outline) #000" stroke-width="param(outline-width) 0" fill-opacity="param(fill-opacity) 1" stroke-opacity="param(outline-opacity) 1" d="M3.5 1C3.22 1 3 1.22 3 1.5L3 4.5C3 4.78 3.22 5 3.5 5L5 5C5.74 5 6.38 4.6 6.72 4L7.5 4L8.5 3L9.5 4L10.5 3L11.5 4L12.5 3L11.5 2L6.72 2C6.38 1.4 5.74 1 5 1L3.5 1ZM4.5 2C4.78 2 5 2.22 5 2.5L5 3.5C5 3.78 4.78 4 4.5 4C4.22 4 4 3.78 4 3.5L4 2.5C4 2.22 4.22 2 4.5 2ZM14 10C14 12 11.5 14 9.5 14C8.17 14 5.83 14 2.5 14L1 10L10.5 10L8.5 8L9.5 7.5L12.5 10L14 10ZM5 9.5L1 9.5L1 7.5L4 7.5C4.55 7.5 5 7.95 5 8.5L5 9.5Z"/>
</svg>