<svg xmlns="http://www.w3.org/2000/svg" viewBox="0 0 15 15">
  <path fill="param(fill) #888" stroke="param(outline) #000" stroke-width="param(outline-width) 0" fill-opacity="param(fill-opacity) 1" stroke-opacity="param(outline-opacity) 1" d="M13 0.5C14 1 13 12.5 12.5 12.5C11.54 12.82 10.18 12.93 9.32 12.98L8.5 13L8.5 14.5C8.5 15 6.5 15 6.5 14.5L6.5 13L6 12.99L5.57 12.97C4.71 12.92 3.42 12.81 2.5 12.5C2 12.5 1 1 2 0.5C3 0 12 0 13 0.5ZM7.5 5C7.5 6 7.24 6.56 6.5 7C5.95 7 5.5 7.45 5.5 8C5.5 8.37 5.83 8.7 6.5 9L5.5 9C4.95 9 4.5 9.45 4.5 10C4.5 10.56 4.95 11 5.5 11L9.5 11C10.06 11 10.5 10.56 10.5 10C10.5 9.45 10.06 9 9.5 9L8.5 9C9.17 8.7 9.5 8.37 9.5 8C9.5 7.45 9.05 7 8.5 7C8.5 6 8.22 5.48 7.5 5ZM10 1.5L5 1.5C4.39 1.5 4 3.5 4.5 3.5L10.5 3.5C11 3.5 10.5 1.5 10 1.5Z"/>
</svg>