<svg xmlns="http://www.w3.org/2000/svg" viewBox="0 0 15 15">
  <path fill="param(fill) #888" stroke="param(outline) #000" stroke-width="param(outline-width) 0" fill-opacity="param(fill-opacity) 1" stroke-opacity="param(outline-opacity) 1" d="M13 0.5C14 1 13 12.5 12.5 12.5C11.54 12.82 10.18 12.93 9.32 12.98L8.5 13L8.5 14.5C8.5 15 6.5 15 6.5 14.5L6.5 13L6 12.99C5.19 12.96 3.58 12.86 2.5 12.5C2 12.5 1 1 2 0.5C3 0 12 0 13 0.5ZM10 1.5L5 1.5C4.39 1.5 4 3.5 4.5 3.5L10.5 3.5C11 3.5 10.5 1.5 10 1.5Z"/>
</svg>