<svg xmlns="http://www.w3.org/2000/svg" viewBox="0 0 15 15">
  <path fill="param(fill) #888" stroke="param(outline) #000" stroke-width="param(outline-width) 0" fill-opacity="param(fill-opacity) 1" stroke-opacity="param(outline-opacity) 1" d="M4.76 5.04C4.73 5.19 4.64 5.48 4.45 5.75C4.26 6.01 4.03 6.21 3.73 6.29C3.43 6.37 3.12 6.32 2.83 6.18C2.54 6.05 2.31 5.84 2.2 5.73L1.07 6.71C1.3 6.97 1.7 7.31 2.2 7.54C2.71 7.78 3.38 7.94 4.12 7.74C4.85 7.55 5.35 7.07 5.67 6.61C5.99 6.16 6.17 5.67 6.24 5.33L4.76 5.04ZM8.76 5.33C8.83 5.67 9.01 6.16 9.33 6.61C9.65 7.07 10.15 7.55 10.88 7.74C11.62 7.94 12.29 7.78 12.8 7.54C13.3 7.31 13.7 6.97 13.93 6.71L12.8 5.73C12.69 5.84 12.46 6.05 12.17 6.18C11.88 6.32 11.57 6.37 11.27 6.29C10.97 6.21 10.74 6.01 10.55 5.75C10.36 5.48 10.27 5.19 10.24 5.04L8.76 5.33ZM4.73 9.74C4.41 9.48 3.94 9.52 3.67 9.84C3.41 10.16 3.45 10.63 3.77 10.9L4.16 11.22C4.28 11.32 4.28 11.5 4.16 11.6L3.77 11.92C3.45 12.19 3.41 12.66 3.67 12.98C3.94 13.3 4.41 13.34 4.73 13.08L5.11 12.76C5.32 12.58 5.48 12.37 5.59 12.14L9.41 12.14C9.52 12.37 9.67 12.58 9.89 12.76L10.27 13.08C10.59 13.34 11.06 13.3 11.33 12.98C11.59 12.66 11.55 12.19 11.23 11.92L10.84 11.6C10.72 11.5 10.72 11.32 10.84 11.22L11.23 10.9C11.55 10.63 11.59 10.16 11.33 9.84C11.06 9.52 10.59 9.48 10.27 9.74L9.89 10.06C9.69 10.23 9.53 10.43 9.43 10.64L5.57 10.64C5.47 10.43 5.31 10.23 5.11 10.06L4.73 9.74Z"/>
</svg>