<svg xmlns="http://www.w3.org/2000/svg" viewBox="0 0 15 15">
  <path fill="param(fill) #888" stroke="param(outline) #000" stroke-width="param(outline-width) 0" fill-opacity="param(fill-opacity) 1" stroke-opacity="param(outline-opacity) 1" d="M5.45 5.65C5.43 5.77 5.35 5.99 5.21 6.19C5.07 6.39 4.89 6.53 4.67 6.59C4.45 6.65 4.22 6.61 4 6.51C3.78 6.41 3.6 6.26 3.53 6.17L2.68 6.91C2.85 7.11 3.15 7.36 3.53 7.53C3.91 7.71 4.41 7.83 4.96 7.68C5.51 7.53 5.89 7.18 6.13 6.83C6.37 6.49 6.5 6.13 6.55 5.87L5.45 5.65ZM8.45 5.87C8.5 6.13 8.63 6.49 8.87 6.83C9.11 7.18 9.49 7.53 10.04 7.68C10.59 7.83 11.09 7.71 11.47 7.53C11.85 7.36 12.15 7.11 12.32 6.91L11.47 6.17C11.4 6.26 11.22 6.41 11 6.51C10.78 6.61 10.55 6.65 10.33 6.59C10.11 6.53 9.93 6.39 9.79 6.19C9.65 5.99 9.57 5.77 9.55 5.65L8.45 5.87ZM5.42 9.18C5.18 8.98 4.83 9.02 4.63 9.26C4.43 9.5 4.47 9.85 4.7 10.05L4.99 10.29C5.08 10.36 5.08 10.5 4.99 10.58L4.7 10.82C4.47 11.01 4.43 11.37 4.63 11.61C4.83 11.85 5.18 11.88 5.42 11.68L5.71 11.44C5.87 11.31 5.99 11.15 6.07 10.98L8.93 10.98C9.01 11.15 9.13 11.31 9.29 11.44L9.58 11.68C9.82 11.88 10.17 11.85 10.37 11.61C10.57 11.37 10.53 11.01 10.3 10.82L10.01 10.58C9.92 10.5 9.92 10.36 10.01 10.29L10.3 10.05C10.53 9.85 10.57 9.5 10.37 9.26C10.17 9.02 9.82 8.98 9.58 9.18L9.29 9.42C9.14 9.55 9.02 9.69 8.95 9.86L6.05 9.86C5.97 9.69 5.86 9.55 5.71 9.42L5.42 9.18ZM11.25 1.01C7.66 -1.06 3.08 0.16 1.01 3.75C-1.06 7.34 0.16 11.92 3.75 13.99C7.34 16.06 11.92 14.84 13.99 11.25C16.06 7.66 14.84 3.08 11.25 1.01ZM2.3 4.5C3.96 1.63 7.63 0.65 10.5 2.3C13.37 3.96 14.35 7.63 12.7 10.5C11.04 13.37 7.37 14.35 4.5 12.7C1.63 11.04 0.65 7.37 2.3 4.5Z"/>
</svg>