<?xml version="1.0" encoding="UTF-8"?>
<svg viewBox="0 0 15 15" version="1.1" xmlns="http://www.w3.org/2000/svg" xmlns:xlink="http://www.w3.org/1999/xlink">
  <path fill="param(fill) #888" stroke="param(outline) #000" stroke-width="param(outline-width) 0" fill-opacity="param(fill-opacity) 1" stroke-opacity="param(outline-opacity) 1" d="M5.87 1.98L5.13 1.97C4.97 1.97 4.83 1.97 4.68 1.97C3.24 2 2.41 2.16 2.1 2.71C1.65 3.5 2.47 4.27 4.54 5.33L5.23 5.68C5.72 5.93 6.09 6.14 6.35 6.32C6.4 6.35 6.45 6.38 6.49 6.41L6.29 6.46L5.62 6.58L5 6.71C3.41 7.09 2.5 7.73 2.5 9L2.5 13L7.5 13L7.5 9L3.5 9C3.5 8.39 3.99 8.02 5.03 7.74L5.23 7.69C5.36 7.66 5.49 7.63 5.65 7.6L6.37 7.46L6.68 7.39C6.91 7.34 7.08 7.29 7.22 7.22C7.61 7.04 7.84 6.71 7.69 6.28C7.53 5.83 6.88 5.4 5.46 4.67L5.22 4.55C4.25 4.06 3.59 3.66 3.23 3.35L3.07 3.21C3.03 3.17 3.01 3.16 2.99 3.17L2.98 3.19C3.1 3.12 3.69 3.01 4.51 2.98L4.7 2.97C5.09 2.96 5.48 2.97 6.02 2.98L6.37 3C6.39 3 6.41 3 6.43 3L7.54 4.58C8.97 6.6 11.46 10.04 15 14.92L11.07 6.14C9.65 3 8.86 1.28 8.68 0.98C8.24 0.21 7.37 -0.3 6.5 0.2C5.81 0.6 5.68 1.32 5.87 1.98ZM9 13.5L9 8.5C9 8.22 8.78 8 8.5 8C8.22 8 8 8.22 8 8.5L8 13.5C8 13.78 8.22 14 8.5 14C8.78 14 9 13.78 9 13.5ZM2 13.5L2 8.5C2 8.22 1.78 8 1.5 8C1.22 8 1 8.22 1 8.5L1 13.5C1 13.78 1.22 14 1.5 14C1.78 14 2 13.78 2 13.5ZM7.82 3.48L6.82 1.75C6.68 1.51 6.76 1.2 7 1.06C7.24 0.93 7.54 1.01 7.68 1.25L8.68 2.98C8.82 3.22 8.74 3.52 8.5 3.66C8.29 3.78 8.03 3.74 7.87 3.55L7.82 3.48Z"/>
</svg>