<?xml version="1.0" encoding="UTF-8"?>
<svg viewBox="0 0 15 15" version="1.1" xmlns="http://www.w3.org/2000/svg" xmlns:xlink="http://www.w3.org/1999/xlink">
  <path fill="param(fill) #888" stroke="param(outline) #000" stroke-width="param(outline-width) 0" fill-opacity="param(fill-opacity) 1" stroke-opacity="param(outline-opacity) 1" d="M1.33 3.79L3.57 5.67C5.93 7.61 9.74 10.72 15 15L5.6 3.44C4.28 1.84 3.52 0.94 3.31 0.74C2.56 -0.02 1.39 -0.35 0.54 0.51C-0.32 1.36 -0.22 2.46 1.33 3.79ZM3.09 3.92L1.39 2.21C1.16 1.98 1.15 1.59 1.39 1.35C1.63 1.13 2 1.13 2.24 1.36L3.94 3.07C4.17 3.3 4.18 3.68 3.94 3.91C3.73 4.13 3.41 4.15 3.18 3.99L3.09 3.92Z"/>
</svg>