<svg xmlns="http://www.w3.org/2000/svg" viewBox="0 0 15 15">
  <path fill="param(fill) #888" stroke="param(outline) #000" stroke-width="param(outline-width) 0" fill-opacity="param(fill-opacity) 1" stroke-opacity="param(outline-opacity) 1" d="M9.56 8.25C10.94 8.25 12.06 9.37 12.06 10.75C12.06 12.13 10.94 13.24 9.56 13.24L5.42 13.24C4.05 13.24 2.93 12.13 2.93 10.75C2.93 9.37 4.05 8.25 5.42 8.25L9.56 8.25ZM10 11.21L5 11.21C4.72 11.21 4.5 11.43 4.5 11.71C4.5 11.98 4.72 12.21 5 12.21L10 12.21C10.28 12.21 10.5 11.98 10.5 11.71C10.5 11.43 10.28 11.21 10 11.21ZM10 9.28L5 9.28C4.72 9.28 4.5 9.51 4.5 9.78C4.5 10.06 4.72 10.28 5 10.28L10 10.28C10.28 10.28 10.5 10.06 10.5 9.78C10.5 9.51 10.28 9.28 10 9.28ZM5.75 5.25C5.75 6.08 5.08 6.75 4.25 6.75C3.42 6.75 2.75 6.08 2.75 5.25C2.75 4.42 3.42 3.75 4.25 3.75C5.08 3.75 5.75 4.42 5.75 5.25ZM12.25 5.25C12.25 6.08 11.58 6.75 10.75 6.75C9.92 6.75 9.25 6.08 9.25 5.25C9.25 4.42 9.92 3.75 10.75 3.75C11.58 3.75 12.25 4.42 12.25 5.25Z"/>
</svg>