<svg xmlns="http://www.w3.org/2000/svg" viewBox="0 0 15 15">
  <path fill="param(fill) #888" stroke="param(outline) #000" stroke-width="param(outline-width) 0" fill-opacity="param(fill-opacity) 1" stroke-opacity="param(outline-opacity) 1" d="M7.5 0C11.64 0 15 3.36 15 7.5C15 11.64 11.64 15 7.5 15C3.36 15 0 11.64 0 7.5C0 3.36 3.36 0 7.5 0ZM9.05 8.06L5.94 8.06C4.91 8.06 4.07 8.9 4.07 9.93C4.07 10.97 4.91 11.81 5.94 11.81L9.05 11.81C10.08 11.81 10.92 10.97 10.92 9.93C10.92 8.9 10.08 8.06 9.05 8.06ZM9.38 10.28C9.58 10.28 9.75 10.45 9.75 10.65C9.75 10.86 9.58 11.03 9.38 11.03L5.63 11.03C5.42 11.03 5.25 10.86 5.25 10.65C5.25 10.45 5.42 10.28 5.63 10.28ZM9.38 8.84C9.58 8.84 9.75 9.01 9.75 9.21C9.75 9.42 9.58 9.59 9.38 9.59L5.63 9.59C5.42 9.59 5.25 9.42 5.25 9.21C5.25 9.01 5.42 8.84 5.63 8.84L9.38 8.84ZM5.06 4.69C4.44 4.69 3.94 5.19 3.94 5.81C3.94 6.43 4.44 6.94 5.06 6.94C5.68 6.94 6.19 6.43 6.19 5.81C6.19 5.19 5.68 4.69 5.06 4.69ZM9.94 4.69C9.32 4.69 8.81 5.19 8.81 5.81C8.81 6.43 9.32 6.94 9.94 6.94C10.56 6.94 11.06 6.43 11.06 5.81C11.06 5.19 10.56 4.69 9.94 4.69Z"/>
</svg>