<svg xmlns="http://www.w3.org/2000/svg" viewBox="0 0 15 15">
  <path fill="param(fill) #888" stroke="param(outline) #000" stroke-width="param(outline-width) 0" fill-opacity="param(fill-opacity) 1" stroke-opacity="param(outline-opacity) 1" d="M11.49 0L11.99 1L12.99 1L12.49 4L12 4L12 5L13 5L13 6L12 8.01L9 8.31L9 9.2L10 10.53L10 12.26L9 13L9 13.5L10 14L9.5 15L8 15L8 13.93L8.5 12.32L7 11.78L6.5 11L4.5 11L3 12.32L1 10.71L1.5 9.64L3 10.18L4 9.11L3.01 8.51L3.01 7.52L5 2.51L6.5 3.01C6.5 3.01 6.38 3.74 6.41 3.81C6.44 3.88 6.91 4.76 6.91 4.76L6.3 5.81L7.95 4.98L8.42 3.07L7.21 2.85L7.41 1.23L8.32 0.32L11.49 0ZM5.5 5.92L5.14 7.01L4 7.01L4.92 7.76L4.5 9L5.5 8.25L6.5 9L6.08 7.76L7 7.01L5.86 7.01L5.5 5.92Z"/>
</svg>