<svg xmlns="http://www.w3.org/2000/svg" viewBox="0 0 15 15">
  <path fill="param(fill) #888" stroke="param(outline) #000" stroke-width="param(outline-width) 0" fill-opacity="param(fill-opacity) 1" stroke-opacity="param(outline-opacity) 1" d="M7.5 0C11.64 0 15 3.36 15 7.5C15 11.64 11.64 15 7.5 15C3.36 15 0 11.64 0 7.5C0 3.36 3.36 0 7.5 0ZM9.5 9L5.5 9C4.95 9 4.5 9.45 4.5 10C4.5 10.55 4.95 11 5.5 11L9.5 11C10.05 11 10.5 10.55 10.5 10C10.5 9.45 10.05 9 9.5 9ZM5.06 4.69C4.44 4.69 3.94 5.19 3.94 5.81C3.94 6.43 4.44 6.94 5.06 6.94C5.68 6.94 6.19 6.43 6.19 5.81C6.19 5.19 5.68 4.69 5.06 4.69ZM9.94 4.69C9.32 4.69 8.81 5.19 8.81 5.81C8.81 6.43 9.32 6.94 9.94 6.94C10.56 6.94 11.06 6.43 11.06 5.81C11.06 5.19 10.56 4.69 9.94 4.69Z"/>
</svg>