<svg xmlns="http://www.w3.org/2000/svg" viewBox="0 0 15 15">
  <path fill="param(fill) #888" stroke="param(outline) #000" stroke-width="param(outline-width) 0" fill-opacity="param(fill-opacity) 1" stroke-opacity="param(outline-opacity) 1" d="M5.75 5.25C5.75 6.08 5.08 6.75 4.25 6.75C3.42 6.75 2.75 6.08 2.75 5.25C2.75 4.42 3.42 3.75 4.25 3.75C5.08 3.75 5.75 4.42 5.75 5.25ZM4.5 9.5L10.5 9.5C11.05 9.5 11.5 9.95 11.5 10.5L11.5 11.17C11.5 11.72 11.05 12.17 10.5 12.17L4.5 12.17C3.95 12.17 3.5 11.72 3.5 11.17L3.5 10.5C3.5 9.95 3.95 9.5 4.5 9.5ZM12.25 5.25C12.25 6.08 11.58 6.75 10.75 6.75C9.92 6.75 9.25 6.08 9.25 5.25C9.25 4.42 9.92 3.75 10.75 3.75C11.58 3.75 12.25 4.42 12.25 5.25Z"/>
</svg>