<svg xmlns="http://www.w3.org/2000/svg" viewBox="0 0 15 15">
  <path fill="param(fill) #888" stroke="param(outline) #000" stroke-width="param(outline-width) 0" fill-opacity="param(fill-opacity) 1" stroke-opacity="param(outline-opacity) 1" d="M6.75 4.25L7.5 3.75L8.25 3L9.75 2L12.5 2L12.5 8L12 10L12 12L11.5 12.5L11.25 13.25L12.24 12.61L13.5 12.5L14.75 12L14.5 12.5L15 12.75L13 13.5L10.5 14L11 13.25L11 12.5L9 11.25L9.06 10.64L8.42 10L0 10L0 9L1.5 8L1 7.5L1 6.72L2 6.5L3.5 6.5L4 6.75L5.75 6.75L6.5 6L7 6L7 5.01L7.25 4.75z"/>
</svg>