<svg xmlns="http://www.w3.org/2000/svg" viewBox="0 0 15 15">
  <path fill="param(fill) #888" stroke="param(outline) #000" stroke-width="param(outline-width) 0" fill-opacity="param(fill-opacity) 1" stroke-opacity="param(outline-opacity) 1" d="M6.74 15C4.8 15 3.03 13.9 2.16 12.17L4.84 10.83C5.2 11.55 5.93 12 6.74 12L8 12C9.1 12 10 11.1 10 10L10 9.49C9.24 9.82 8.39 10 7.5 10C4.54 10 2 8.05 2 5C2 1.95 4.54 0 7.5 0C10.46 0 13 1.95 13 5L13 10C13 12.76 10.76 15 8 15L6.74 15ZM7.5 7C8.95 7 10 6.19 10 5C10 3.81 8.95 3 7.5 3C6.05 3 5 3.81 5 5C5 6.19 6.05 7 7.5 7Z"/>
</svg>