<svg xmlns="http://www.w3.org/2000/svg" viewBox="0 0 15 15">
  <path fill="param(fill) #888" stroke="param(outline) #000" stroke-width="param(outline-width) 0" fill-opacity="param(fill-opacity) 1" stroke-opacity="param(outline-opacity) 1" d="M7.5 0.11C7.3 0.11 7.08 0.24 7 0.45L5.89 3.3L3.21 1.83C3.01 1.72 2.76 1.76 2.61 1.89C2.46 2.01 2.38 2.26 2.45 2.47L3.43 5.37L0.43 5.96C0.21 6.01 0.04 6.2 0.01 6.4C-0.03 6.59 0.07 6.83 0.26 6.94L2.87 8.53L0.96 10.92C0.82 11.09 0.81 11.35 0.91 11.52C1.01 11.69 1.24 11.81 1.45 11.78L4.48 11.32L4.55 14.38C4.55 14.6 4.71 14.8 4.9 14.87C5.08 14.93 5.34 14.88 5.48 14.72L7.5 12.41L9.52 14.72C9.66 14.88 9.92 14.93 10.1 14.87C10.29 14.8 10.45 14.6 10.45 14.38L10.52 11.32L13.55 11.78C13.76 11.81 13.99 11.69 14.09 11.52C14.19 11.35 14.18 11.09 14.04 10.92L12.13 8.53L14.74 6.94C14.93 6.83 15.03 6.59 14.99 6.4C14.96 6.2 14.79 6.01 14.57 5.96L11.57 5.37L12.55 2.47C12.62 2.26 12.54 2.01 12.39 1.89C12.24 1.76 11.98 1.72 11.79 1.83L9.11 3.3L8 0.45C7.92 0.24 7.7 0.11 7.5 0.11ZM7.5 1.93L8.35 4.11C8.47 4.43 8.87 4.57 9.16 4.41L11.22 3.28L10.47 5.5C10.36 5.83 10.57 6.19 10.9 6.25L13.2 6.71L11.2 7.93C10.91 8.1 10.83 8.51 11.05 8.78L12.51 10.61L10.19 10.25C9.86 10.2 9.54 10.47 9.53 10.81L9.48 13.16L7.93 11.39C7.71 11.14 7.29 11.14 7.07 11.39L5.52 13.16L5.47 10.81C5.46 10.47 5.14 10.2 4.81 10.25L2.49 10.61L3.96 8.78C4.17 8.51 4.09 8.1 3.8 7.93L1.8 6.71L4.1 6.25C4.43 6.19 4.64 5.83 4.53 5.5L3.78 3.28L5.84 4.41C6.13 4.57 6.53 4.43 6.65 4.11Z"/>
</svg>