<svg xmlns="http://www.w3.org/2000/svg" viewBox="0 0 15 15">
  <path fill="param(fill) #888" stroke="param(outline) #000" stroke-width="param(outline-width) 0" fill-opacity="param(fill-opacity) 1" stroke-opacity="param(outline-opacity) 1" d="M6.75 2.5L8.5 1.25L10 1.25L10 13.75L8 13.75L8 4.11L6.75 5L6.75 2.5ZM10.75 2.5L12.5 1.25L14 1.25L14 13.75L12 13.75L12 4.11L10.75 5L10.75 2.5ZM3 1C5.02 1 5.89 2.63 5.99 5L6 5L6 9.89C6 12.09 4.92 14 3.25 14L2.62 14C1.39 14 0.45 12.97 0.04 11.49L1.96 10.95C2.16 11.66 2.47 12 2.62 12L3.25 12C3.31 12 3.45 11.89 3.62 11.6C3.82 11.23 3.96 10.71 3.99 10.14L4 9.84C3.7 9.95 3.37 10 3 10C0.84 10 0 8.14 0 5.5C0 2.86 0.84 1 3 1ZM3 3C2.38 3 2 3.84 2 5.5C2 7.16 2.38 8 3 8C3.61 8 3.99 7.19 4 5.58L4 5.27C3.96 3.76 3.59 3 3 3Z"/>
</svg>