<svg xmlns="http://www.w3.org/2000/svg" viewBox="0 0 15 15">
  <path fill="param(fill) #888" stroke="param(outline) #000" stroke-width="param(outline-width) 0" fill-opacity="param(fill-opacity) 1" stroke-opacity="param(outline-opacity) 1" d="M3.1 1.9c2 2 -2.6 1.9 0 5c0.46 0.46 1.2 -0.24 0.71 -0.71c-2 -2 2.6 -1.9 0 -5c-0.45 -0.45 -1.2 0.23 -0.71 0.71zm4 0c2 2 -2.6 1.9 0 5c0.46 0.46 1.2 -0.24 0.71 -0.71c-2 -2 2.6 -1.9 0 -5c-0.45 -0.45 -1.2 0.23 -0.71 0.71zm4 0c2 2 -2.6 1.9 0 5c0.46 0.46 1.2 -0.24 0.71 -0.71c-2 -2 2.6 -1.9 0 -5c-0.45 -0.45 -1.2 0.23 -0.71 0.71zm-10.6 6.1c0 3 3.5 5.5 4.5 5.5h5c1 0 4.5 -2.5 4.5 -5.5zm4.5 6v1h5v-1z"/>
</svg>