<svg xmlns="http://www.w3.org/2000/svg" viewBox="0 0 15 15">
  <path fill="param(fill) #888" stroke="param(outline) #000" stroke-width="param(outline-width) 0" fill-opacity="param(fill-opacity) 1" stroke-opacity="param(outline-opacity) 1" d="M13 1l-7.3 1.9v0.71l7.5 -1.6c0.61 -0.11 0.28 -1.1 -0.23 -0.97zm-8.8 1.5l0 5h1l0 -5c0 -0.65 -1 -0.65 -1 0zm-1.5 0.88l0 4.12h1l0 -4.12c0 -0.65 -1 -0.65 -1 0zm-0.5 0.41l-1.2 0.3c-0.09 0.02 -0.14 0.09 -0.15 0.17c-0.28 0.01 -0.3 0.49 0 0.5l1.3 0.03zm11 0.21l-7.5 0.15v0.7l7.5 0.15c0.59 0.03 0.55 -1 0 -1zm-12.7 4c0 3.5 3.5 5.5 4.5 5.5h5c1 0 4.5 -2 4.5 -5.5zm4.5 6v1h5v-1z"/>
</svg>