<svg xmlns="http://www.w3.org/2000/svg" viewBox="0 0 15 15">
  <path fill="param(fill) #888" stroke="param(outline) #000" stroke-width="param(outline-width) 0" fill-opacity="param(fill-opacity) 1" stroke-opacity="param(outline-opacity) 1" d="M13.95 5L14.22 5.94L13.5 5.75L12.74 6.48L13.5 7L14 6.5L14.4 6.48L14.4 7.02L13.73 7.96L13.04 7.82L12.74 8.68L13.4 9.01L12.74 9.51L12.05 9.51L11.69 9.91L10.87 10.71L10.54 11.5L9.55 11.5L8 9.5L5.66 9.5L5.12 8.45L2.92 8.45L1.75 9L0 9L0.25 8L0.75 8L1 7.5L1.28 7.02L1.73 7.02L2.3 6.26L2.54 6.48L2.9 6.12L3.36 6.12L4.05 5L13.95 5ZM14.5 5L14.88 6.55L15 7.42L14.88 8.25L13.92 9.08L13.73 8.83L14.61 8.11L14.73 7.42L14.61 6.55L14.22 5L14.5 5Z"/>
</svg>