<svg xmlns="http://www.w3.org/2000/svg" viewBox="0 0 15 15">
  <path fill="param(fill) #888" stroke="param(outline) #000" stroke-width="param(outline-width) 0" fill-opacity="param(fill-opacity) 1" stroke-opacity="param(outline-opacity) 1" d="M14.01 1C13.31 0.32 12.23 2.05 11.09 1.87C9.96 1.7 11.45 -0.07 10.02 0.31C8.59 0.67 9.56 2.46 7.84 2.92C6.53 3.27 7.69 1.52 5.79 2.04C4.14 2.47 5.44 5.91 4.46 6.18C3.48 6.45 4.2 4.61 2.48 5.08C0.6 5.57 2.8 8.68 2.8 10.16C2.8 11.09 1.94 12.44 1.45 13.17C1.42 13.18 1.38 13.18 1.35 13.19L0.79 13.34C0.56 13.4 0.33 13.64 0.27 13.88L0.12 14.42C0.05 14.65 0.19 14.79 0.43 14.73L0.97 14.58C1.2 14.51 1.44 14.28 1.51 14.06L1.66 13.5C1.67 13.46 1.67 13.43 1.67 13.4C2.34 12.96 3.58 12.28 4.91 12.28C6.39 12.28 9.77 13.69 9.77 12.37C9.77 10.58 8.21 11.47 8.52 10.29C8.84 9.1 12.43 10.88 12.88 9.13C13.4 7.23 11.83 8.16 12.1 7.18C12.57 5.45 14.47 6.57 14.85 5.14C15.23 3.7 13.37 5.11 13.2 3.97C13.03 2.85 14.69 1.7 14.01 1ZM12.77 2.19L10.86 4.21L10.16 4.96C11.55 5.22 12.52 5 13.91 5.32C12.43 5.35 11.38 5.28 9.98 5.14L7.91 7.33C9.7 8 10.89 8.21 12.21 8.88C10.82 8.44 9.31 8.42 7.7 7.55L6.71 8.59L5.02 10.26C6.68 10.93 7.68 11.38 8.96 12.04C7.95 11.87 6.51 11.24 4.82 10.46L4.65 10.62C4.58 10.69 3.92 11.14 3.81 11.03C3.68 10.89 4.1 10.32 4.16 10.26L4.37 10.06C3.59 8.38 2.96 6.94 2.8 5.92C3.46 7.2 3.91 8.2 4.57 9.86L6.3 8.19L7.33 7.19C6.86 6.38 6.43 5.49 6.27 4.77C6.1 4.03 6.3 3.5 6.09 2.82C6.45 3.54 6.28 4.01 6.52 4.77C6.71 5.37 7.18 6.16 7.56 6.97L9.74 4.88C9.54 3.41 9.75 2.72 9.94 1.3C10.06 2.62 9.72 3.36 9.94 4.69L10.79 3.89Z"/>
</svg>