<svg xmlns="http://www.w3.org/2000/svg" viewBox="0 0 15 15">
  <path fill="param(fill) #888" stroke="param(outline) #000" stroke-width="param(outline-width) 0" fill-opacity="param(fill-opacity) 1" stroke-opacity="param(outline-opacity) 1" d="M10.5 0L11.9 1.4C12.02 1.52 12.15 1.65 12.27 1.77L13.23 2.73C13.35 2.85 13.48 2.98 13.6 3.1L15 4.5L15 10.5L14.99 10.51L10.51 14.99C10.5 15 10.5 15 10.5 15L4.5 15L3.1 13.6C2.98 13.48 2.85 13.35 2.73 13.23L0 10.5L0 4.5L0.01 4.49L4.49 0.01C4.5 0 4.5 0 4.5 0L10.5 0ZM9.88 1.5L5.12 1.5L5.1 1.52C5.02 1.6 4.94 1.68 4.84 1.78L4.42 2.2C4.36 2.26 4.29 2.33 4.21 2.41L2.41 4.21C2.33 4.29 2.26 4.36 2.2 4.42L1.78 4.84C1.68 4.94 1.6 5.02 1.52 5.1L1.5 5.12L1.5 9.88L1.52 9.9C1.6 9.98 1.68 10.06 1.78 10.16L2.2 10.58C2.26 10.64 2.33 10.71 2.41 10.79L4.21 12.59C4.29 12.67 4.36 12.74 4.42 12.8L4.84 13.22C4.94 13.32 5.02 13.4 5.1 13.48L5.12 13.5L9.88 13.5L9.9 13.48C9.98 13.4 10.06 13.32 10.16 13.22L10.58 12.8C10.64 12.74 10.71 12.67 10.79 12.59L12.59 10.79C12.67 10.71 12.74 10.64 12.8 10.58L13.22 10.16C13.32 10.06 13.4 9.98 13.48 9.9L13.5 9.88L13.5 5.12L13.48 5.1C13.4 5.02 13.32 4.94 13.22 4.84L12.8 4.42C12.74 4.36 12.67 4.29 12.59 4.21L10.79 2.41C10.71 2.33 10.64 2.26 10.58 2.2L10.16 1.78C10.06 1.68 9.98 1.6 9.9 1.52L9.88 1.5Z"/>
</svg>