<svg xmlns="http://www.w3.org/2000/svg" viewBox="0 0 15 15">
  <path fill="param(fill) #888" stroke="param(outline) #000" stroke-width="param(outline-width) 0" fill-opacity="param(fill-opacity) 1" stroke-opacity="param(outline-opacity) 1" d="M14.5 0L14.5 5.5L14 5.5L14 7L13.41 9.58L11.89 11.05L11.56 10.63L10.63 11.42L10.09 12.95L9.38 12.26L8.73 14.68L7.75 15L6.66 13.42L5.51 14.05L4.75 13.79L4.26 14.05L3.66 13.42L2.41 13.16L2.08 12.58L0.5 12.05L0.5 1.5L4.75 1.5L7.75 2.53L9.38 2.16L10.36 2.16L11.56 1.11L14.5 0ZM6.5 6.92L6.14 8.01L5 8.01L5.92 8.76L5.5 10L6.5 9.25L7.5 10L7.08 8.76L8 8.01L6.86 8.01L6.5 6.92Z"/>
</svg>