<svg xmlns="http://www.w3.org/2000/svg" viewBox="0 0 15 15">
  <path fill="param(fill) #888" stroke="param(outline) #000" stroke-width="param(outline-width) 0" fill-opacity="param(fill-opacity) 1" stroke-opacity="param(outline-opacity) 1" d="M10.06 0.48C6.81 0.54 0.76 0.7 0.61 1.16C0.13 1.68 3.29 5.18 3.29 5.18C3.29 5.18 0.63 6.62 0 7.65L0 13.93C0 14.26 0.27 14.52 0.59 14.52L11.17 14.52C15.26 13.47 14.57 9.29 14.18 5.96C16.46 1.98 13.63 0.37 10.06 0.48ZM6.11 1.53C7.42 1.51 8.69 1.55 10.16 1.56L13.59 5.49L12.31 6.36C12.32 6.32 12.34 6.28 12.34 6.24C12.34 6.18 12.33 6.12 12.31 6.07C12.37 5.98 12.41 5.87 12.41 5.75C12.41 5.42 12.12 5.16 11.76 5.16C11.75 5.16 11.74 5.16 11.73 5.16C11.63 4.93 11.39 4.79 11.13 4.79C11.09 4.79 11.05 4.79 11.01 4.8C10.9 4.59 10.67 4.45 10.42 4.45C10.06 4.45 9.77 4.72 9.77 5.05C9.77 5.08 9.77 5.11 9.78 5.15C9.67 5.08 9.54 5.05 9.41 5.05C9.39 5.05 9.36 5.05 9.34 5.05C9.26 5.02 9.18 5.01 9.1 5.01C9.09 5.01 9.08 5.01 9.07 5.01C8.97 4.79 8.73 4.64 8.47 4.64C8.43 4.64 8.39 4.64 8.35 4.65C8.24 4.44 8.01 4.3 7.76 4.3C7.53 4.3 7.31 4.42 7.2 4.6C7.1 4.55 6.99 4.53 6.89 4.53C6.88 4.53 6.87 4.53 6.86 4.53C6.76 4.3 6.52 4.15 6.25 4.15C6.21 4.15 6.17 4.16 6.13 4.16C6.03 3.95 5.8 3.82 5.55 3.82C5.19 3.82 4.89 4.08 4.89 4.41C4.89 4.45 4.9 4.48 4.9 4.51C4.8 4.45 4.67 4.41 4.54 4.41C4.27 4.41 4.03 4.57 3.94 4.79L1.86 1.88C3.46 1.63 4.8 1.55 6.11 1.53ZM4.55 1.7C4.22 2.54 4.45 2.5 3.3 2.49C4.31 2.85 4.06 2.91 3.87 3.73C4.38 3.01 4.32 2.94 5.48 3.03C4.42 2.52 4.49 2.48 4.55 1.7ZM7.03 2.08C7.23 2.95 7.39 2.8 6.43 3.43C7.48 3.16 7.3 3.36 7.6 4.14C7.62 3.26 7.53 3.24 8.54 2.66C7.38 2.83 7.41 2.76 7.03 2.08ZM10.76 2.33C9.99 3.21 9.96 3.14 9.23 2.88C9.95 3.41 9.97 3.19 9.66 4.29C10.28 3.41 10.26 3.67 11.01 4.07C10.45 3.39 10.37 3.43 10.76 2.33ZM6.58 4.73C6.59 4.73 6.6 4.73 6.6 4.73C6.83 4.73 7.01 4.88 7.01 5.06C7.01 5.23 6.83 5.38 6.6 5.38C6.38 5.38 6.2 5.24 6.2 5.06C6.2 4.89 6.36 4.74 6.58 4.73ZM5.29 4.88C5.3 4.88 5.31 4.88 5.32 4.88C5.54 4.88 5.72 5.02 5.72 5.2C5.72 5.38 5.54 5.52 5.32 5.52C5.09 5.52 4.91 5.38 4.91 5.2C4.91 5.03 5.07 4.89 5.29 4.88ZM8.4 5.11C8.41 5.11 8.42 5.11 8.43 5.11C8.66 5.12 8.84 5.26 8.84 5.44C8.84 5.62 8.66 5.76 8.43 5.76C8.21 5.76 8.03 5.62 8.03 5.44C8.03 5.27 8.19 5.13 8.4 5.11ZM4.31 5.46C4.23 6.3 3.98 6.39 5.03 6.62C3.89 6.75 4 7.21 3.78 8.08C3.74 7.3 3.91 6.73 2.8 6.36C3.96 6.3 3.9 6.24 4.31 5.46ZM5.75 5.68C5.82 5.68 5.88 5.7 5.93 5.74C6.07 5.85 6.06 6.09 5.92 6.26C5.78 6.43 5.55 6.48 5.41 6.37C5.27 6.26 5.28 6.03 5.42 5.85C5.51 5.74 5.63 5.68 5.75 5.68ZM10.9 5.71C11.04 5.7 11.16 5.77 11.21 5.87C11.29 6.03 11.19 6.24 10.99 6.34C10.79 6.44 10.56 6.39 10.48 6.23C10.4 6.07 10.5 5.86 10.7 5.76C10.77 5.73 10.83 5.71 10.9 5.71ZM8.39 5.95C8.96 6.48 8.96 6.56 10.01 6.05C9.54 6.55 9.39 6.76 9.39 7.02C9.39 7.02 9.4 7.04 9.4 7.04C9.39 7.04 9.39 7.04 9.38 7.04C9.39 7.22 9.46 7.42 9.56 7.75C9.03 7.09 9.14 6.85 8.23 7.42C8.95 6.53 8.84 6.72 8.39 5.95ZM7.86 6.13C7.97 6.14 8.06 6.18 8.12 6.26C8.21 6.41 8.14 6.63 7.95 6.76C7.76 6.88 7.53 6.85 7.43 6.7C7.34 6.55 7.41 6.33 7.6 6.21C7.68 6.16 7.77 6.13 7.86 6.13ZM6.29 6.54C6.3 6.54 6.31 6.54 6.31 6.54C6.54 6.54 6.72 6.68 6.72 6.86C6.73 6.92 6.68 6.97 6.66 7.02C6.43 7.02 6.2 7.02 5.97 7.02C5.94 6.99 5.93 6.95 5.92 6.92C5.91 6.9 5.91 6.88 5.91 6.86C5.91 6.69 6.07 6.55 6.29 6.54ZM2.32 6.61C2.21 6.72 2.14 6.86 2.14 7.02C2.14 7.03 2.15 7.04 2.15 7.06C1.98 7.06 1.82 7.06 1.66 7.06L2.32 6.61ZM10.92 8.02C11.12 8.01 11.29 8.18 11.3 8.38C11.09 9.85 12.34 14.52 10.75 13.78C11.12 12.13 9.71 9.17 10.92 8.02ZM5.33 9.13C5.88 9.1 6.18 9.6 5.74 10.01L5.89 10.77C5.79 10.87 5.49 10.93 5.35 10.94C5.2 10.94 4.95 10.88 4.89 10.77L5.01 10.01C4.57 9.68 4.79 9.15 5.33 9.13Z"/>
</svg>