<svg xmlns="http://www.w3.org/2000/svg" viewBox="0 0 15 15">
  <path fill="param(fill) #888" stroke="param(outline) #000" stroke-width="param(outline-width) 0" fill-opacity="param(fill-opacity) 1" stroke-opacity="param(outline-opacity) 1" d="M11 1L7.76 7.03C7.6 7.32 7.6 7.68 7.76 7.97L11 14L1 14C0.45 14 0 13.55 0 13L0 2C0 1.45 0.45 1 1 1L11 1ZM11 1L14.68 6.98C14.88 7.3 14.88 7.7 14.68 8.02L11 14L11 1ZM4.5 4L3.5 4L3.5 5L3 5C2.17 5 1.5 5.67 1.5 6.5C1.5 7.33 2.17 8 3 8L3.5 8L3.5 9L1.5 9L1.51 9.12C1.56 9.61 1.99 10 2.5 10L3.5 10L3.5 11L4.5 11L4.5 10L5 10C5.83 10 6.5 9.33 6.5 8.5C6.5 7.67 5.83 7 5 7L4.5 7L4.5 6L6.5 6C6.5 5.45 6.05 5 5.5 5L4.5 5L4.5 4ZM5 8C5.28 8 5.5 8.22 5.5 8.5C5.5 8.78 5.28 9 5 9L4.5 9L4.5 8ZM3.5 6L3.5 7L3 7C2.72 7 2.5 6.78 2.5 6.5C2.5 6.22 2.72 6 3 6L3.5 6Z"/>
</svg>