<svg xmlns="http://www.w3.org/2000/svg" viewBox="0 0 15 15">
  <path fill="param(fill) #888" stroke="param(outline) #000" stroke-width="param(outline-width) 0" fill-opacity="param(fill-opacity) 1" stroke-opacity="param(outline-opacity) 1" d="M11 1L7.76 7.03C7.6 7.32 7.6 7.68 7.76 7.97L11 14L1 14C0.45 14 0 13.55 0 13L0 2C0 1.45 0.45 1 1 1L11 1ZM11 1L14.68 6.98C14.88 7.3 14.88 7.7 14.68 8.02L11 14L11 1ZM5 4L4 4L4 5L2 5L2 10L4 10L4 11L5 11L5 10L5.53 10C5.94 10 6.32 9.83 6.6 9.53C7.13 8.94 7.09 8.03 6.5 7.5L6.61 7.39C6.84 7.13 6.97 6.79 6.97 6.44C6.97 5.64 6.33 5 5.53 5L5 5L5 4ZM4 7.8L4 9L3 9L3 7.8L4 7.8ZM5.34 7.8L5.83 8.24C6.01 8.4 6.02 8.68 5.86 8.86L5.8 8.91C5.73 8.97 5.63 9 5.53 9L5 9L5 7.8L5.34 7.8ZM4 6L4 7.2L3 7.2L3 6L4 6ZM5.53 6C5.77 6 5.97 6.2 5.97 6.44C5.97 6.56 5.92 6.68 5.83 6.76L5.34 7.2L5 7.2L5 6Z"/>
</svg>