<svg xmlns="http://www.w3.org/2000/svg" viewBox="0 0 15 15">
  <path fill="param(fill) #888" stroke="param(outline) #000" stroke-width="param(outline-width) 0" fill-opacity="param(fill-opacity) 1" stroke-opacity="param(outline-opacity) 1" d="M11 1L7.76 7.03C7.6 7.32 7.6 7.68 7.76 7.97L11 14L1 14C0.45 14 0 13.55 0 13L0 2C0 1.45 0.45 1 1 1L11 1ZM11 1L14.68 6.98C14.88 7.3 14.88 7.7 14.68 8.02L11 14L11 1ZM4 4L2 4L2 5.5L1 5.5L1 6.25L2 6.25L2 6.75L1 6.75L1 7.5L2 7.5L2 11L3 11L3 9L4 9C5.02 9 5.91 8.38 6.29 7.5L7 7.5L7 6.75L6.49 6.75C6.5 6.67 6.5 6.58 6.5 6.5C6.5 6.42 6.5 6.33 6.49 6.25L7 6.25L7 5.5L6.29 5.5C5.91 4.62 5.03 4 4 4ZM3 7.5L5.12 7.5C4.84 7.81 4.44 8 4 8L3 8L3 7.5ZM3 6.25L5.48 6.25C5.49 6.33 5.5 6.41 5.5 6.5C5.5 6.59 5.49 6.67 5.48 6.75L3 6.75L3 6.25ZM4 5C4.44 5 4.84 5.19 5.12 5.5L3 5.5L3 5Z"/>
</svg>