<svg xmlns="http://www.w3.org/2000/svg" viewBox="0 0 15 15">
  <path fill="param(fill) #888" stroke="param(outline) #000" stroke-width="param(outline-width) 0" fill-opacity="param(fill-opacity) 1" stroke-opacity="param(outline-opacity) 1" d="M5.6 10.13L6.36 10.48C6.38 10.49 6.4 10.5 6.41 10.53L6.7 11.11L6.67 11.14L3.49 14.32C3.31 14.5 3.1 14.66 2.87 14.79C2.34 15.08 1.82 15.07 1.31 14.75C1.01 14.57 0.76 14.34 0.54 14.07C0.42 13.93 0.35 13.76 0.3 13.58L0.27 13.44C0.26 13.42 0.26 13.4 0.25 13.38L0.25 12.97C0.37 12.52 0.7 12.24 1.08 12.01C1.49 11.77 1.94 11.59 2.39 11.44C2.99 11.24 3.59 11.05 4.17 10.78C4.62 10.57 5.06 10.35 5.51 10.13C5.54 10.12 5.58 10.12 5.6 10.13ZM6.38 2.22C6.47 2.3 6.54 2.41 6.59 2.52L9.05 7.84C9.06 7.87 9.08 7.89 9.11 7.9C9.4 7.97 9.65 8.12 9.89 8.31C10.08 8.47 10.26 8.64 10.44 8.81L11.08 9.46L11.09 9.47C11.15 9.36 11.2 9.24 11.26 9.13C11.34 9.01 11.42 8.88 11.5 8.76C11.96 8.1 12.72 7.92 13.38 8.14C14.11 8.38 14.55 8.88 14.71 9.61L14.74 9.78C14.74 9.8 14.75 9.82 14.75 9.83L14.75 10.07L14.74 10.11L14.74 10.15C14.67 10.78 14.23 11.32 13.63 11.48C12.95 11.67 12.36 11.48 11.85 11.02C11.56 10.75 11.27 10.47 10.98 10.19C10.72 9.94 10.44 9.73 10.11 9.59C9.94 9.52 9.76 9.47 9.58 9.48C9.42 9.5 9.33 9.58 9.31 9.75C9.3 9.91 9.34 10.07 9.39 10.22C9.53 10.56 9.74 10.86 9.99 11.12L10.84 12C11.17 12.35 11.36 12.77 11.38 13.25C11.42 14 10.94 14.66 10.22 14.85L9.99 14.91L9.6 14.91C9.49 14.88 9.38 14.87 9.28 14.84C8.47 14.6 7.89 13.86 7.88 13.02C7.88 12.45 8.12 11.98 8.6 11.67L8.8 11.55L9.21 11.34C9.23 11.32 9.26 11.32 9.29 11.3L9.09 11.11C8.76 10.78 8.43 10.45 8.14 10.08C7.95 9.84 7.8 9.58 7.73 9.28C7.72 9.26 7.69 9.23 7.66 9.22L2.38 6.78C2.08 6.65 1.9 6.4 1.77 6.11C1.6 5.76 1.55 5.39 1.67 5.01C1.74 4.8 1.9 4.72 2.1 4.81L6.69 6.86L4.64 2.29C4.54 2.08 4.62 1.91 4.84 1.85C5.43 1.68 5.93 1.85 6.38 2.22ZM9.73 11.76C9.43 11.84 9.15 11.99 8.89 12.17C8.59 12.37 8.46 12.66 8.45 13.01C8.45 13.71 9.08 14.34 9.78 14.34C10.3 14.34 10.72 14 10.8 13.49C10.86 13.08 10.72 12.72 10.44 12.42L9.84 11.79C9.81 11.75 9.78 11.75 9.73 11.76ZM1.85 12.72C1.48 12.72 1.18 13.01 1.18 13.38C1.18 13.74 1.48 14.04 1.84 14.04C2.2 14.04 2.5 13.75 2.5 13.38C2.5 13.02 2.21 12.72 1.85 12.72ZM12.85 8.63C12.56 8.63 12.3 8.71 12.1 8.94C11.86 9.21 11.67 9.53 11.56 9.88C11.54 9.92 11.56 9.95 11.59 9.97C11.79 10.17 11.99 10.37 12.2 10.56C12.3 10.65 12.4 10.74 12.52 10.81C12.83 10.99 13.16 11.04 13.51 10.92C13.96 10.76 14.22 10.32 14.17 9.81C14.1 9.17 13.49 8.62 12.85 8.63ZM8.5 8.27C8.3 8.27 8.14 8.44 8.14 8.64C8.14 8.85 8.3 9.01 8.51 9.01C8.72 9.01 8.88 8.84 8.88 8.64C8.88 8.43 8.71 8.27 8.5 8.27ZM12.41 0C12.51 0.02 12.58 0.08 12.65 0.14L14.17 1.66C14.74 2.23 14.74 3.08 14.17 3.65L10.94 6.88C10.75 6.78 10.56 6.69 10.38 6.6C10.36 6.59 10.34 6.55 10.32 6.53L9.41 4.59C9.37 4.51 9.34 4.43 9.31 4.34L9.35 4.38L10.3 5.33C10.33 5.36 10.37 5.38 10.4 5.39C10.47 5.42 10.55 5.38 10.58 5.32C10.62 5.26 10.61 5.18 10.56 5.12L9.1 3.65C8.98 3.53 8.95 3.38 9.01 3.23C9.08 3.1 9.22 3.01 9.37 3.02C9.47 3.03 9.55 3.07 9.62 3.14L11.09 4.61C11.15 4.66 11.25 4.66 11.31 4.6C11.37 4.54 11.38 4.45 11.32 4.38L11.28 4.33L9.85 2.9C9.73 2.78 9.7 2.63 9.76 2.48C9.83 2.35 9.96 2.26 10.11 2.27C10.22 2.27 10.3 2.32 10.38 2.39L11.82 3.84C11.9 3.91 11.99 3.91 12.06 3.85C12.14 3.78 12.13 3.68 12.06 3.6L10.61 2.16C10.45 2 10.45 1.77 10.59 1.62C10.75 1.47 10.97 1.48 11.13 1.64L12.58 3.08C12.66 3.16 12.75 3.16 12.82 3.09C12.89 3.02 12.89 2.93 12.81 2.85L11.36 1.4C11.25 1.29 11.21 1.15 11.26 1.01C11.31 0.86 11.42 0.78 11.58 0.76C11.7 0.75 11.8 0.8 11.89 0.89L13.32 2.32C13.41 2.4 13.5 2.41 13.58 2.34C13.65 2.26 13.64 2.17 13.56 2.09L12.12 0.65C12.01 0.55 11.97 0.42 12.01 0.28C12.04 0.16 12.11 0.08 12.22 0.04L12.3 0.01C12.31 0.01 12.32 0 12.32 0L12.41 0Z"/>
</svg>