<svg xmlns="http://www.w3.org/2000/svg" viewBox="0 0 15 15">
  <path fill="param(fill) #888" stroke="param(outline) #000" stroke-width="param(outline-width) 0" fill-opacity="param(fill-opacity) 1" stroke-opacity="param(outline-opacity) 1" d="M11 1L7.76 7.03C7.6 7.32 7.6 7.68 7.76 7.97L11 14L1 14C0.45 14 0 13.55 0 13L0 2C0 1.45 0.45 1 1 1L11 1ZM11 1L14.68 6.98C14.88 7.3 14.88 7.7 14.68 8.02L11 14L11 1ZM6.5 4L2 4L1.5 5L3 5C3.65 5 4.21 5.42 4.41 6L2 6L1.5 7L4.41 7C4.21 7.58 3.65 8 3 8L1.5 8L1.5 9L4.75 11.5L6.5 11.5L3.27 8.99C4.35 8.87 5.24 8.06 5.45 7L6 7L6.5 6L5.45 6C5.37 5.63 5.22 5.29 5 5L6 5L6.5 4Z"/>
</svg>