<svg xmlns="http://www.w3.org/2000/svg" viewBox="0 0 15 15">
  <path fill="param(fill) #888" stroke="param(outline) #000" stroke-width="param(outline-width) 0" fill-opacity="param(fill-opacity) 1" stroke-opacity="param(outline-opacity) 1" d="M11 1L7.76 7.03C7.6 7.32 7.6 7.68 7.76 7.97L11 14L1 14C0.45 14 0 13.55 0 13L0 2C0 1.45 0.45 1 1 1L11 1ZM11 1L14.68 6.98C14.88 7.3 14.88 7.7 14.68 8.02L11 14L11 1ZM2.5 4L1.5 4L1.5 4.5L2.93 7L1.5 7L1.5 8L3.5 8L3.5 9L1.5 9L1.5 10L3.5 10L3.5 11.5L4.5 11.5L4.5 10L6.5 10L6.5 9L4.5 9L4.5 8L6.5 8L6.5 7L5.07 7L6.5 4.5L6.5 4L5.5 4L4 6.75L2.5 4Z"/>
</svg>