<svg xmlns="http://www.w3.org/2000/svg" viewBox="0 0 15 15">
  <path fill="param(fill) #888" stroke="param(outline) #000" stroke-width="param(outline-width) 0" fill-opacity="param(fill-opacity) 1" stroke-opacity="param(outline-opacity) 1" d="M11 1L7.76 7.03C7.6 7.32 7.6 7.68 7.76 7.97L11 14L1 14C0.45 14 0 13.55 0 13L0 2C0 1.45 0.45 1 1 1L11 1ZM11 1L14.68 6.98C14.88 7.3 14.88 7.7 14.68 8.02L11 14L11 1ZM3.75 5L1.25 5L1.25 10L2.25 10L2.25 6L3.75 6C4.03 6 4.25 6.22 4.25 6.5L4.25 8.5L5.25 8.5L5.25 6.5C5.25 5.67 4.58 5 3.75 5ZM6.75 5L5.75 5L5.75 9L4.25 9C3.97 9 3.75 8.78 3.75 8.5L3.75 6.5L2.75 6.5L2.75 8.5C2.75 9.33 3.42 10 4.25 10L6.75 10L6.75 5Z"/>
</svg>