<svg xmlns="http://www.w3.org/2000/svg" viewBox="0 0 15 15">
  <path fill="param(fill) #888" stroke="param(outline) #000" stroke-width="param(outline-width) 0" fill-opacity="param(fill-opacity) 1" stroke-opacity="param(outline-opacity) 1" d="M2 2L3.1 2.37L3.5 3.5L4.25 3.5L5.25 3.25L6.23 3.61L7.26 3.25L7.71 3.45L10 2.5L14 2.5L15 3.61L15 4L13.57 7.19L14.35 7.46L14 8.34L14 13L0.5 13L0 11.01L0.42 9.29L1.2 4.87L1.2 2.66L1 2L2 2ZM3.5 4.92L3.14 6.01L2 6.01L2.92 6.76L2.5 8L3.5 7.25L4.5 8L4.08 6.76L5 6.01L3.86 6.01L3.5 4.92Z"/>
</svg>