<svg xmlns="http://www.w3.org/2000/svg" viewBox="0 0 15 15">
  <path fill="param(fill) #888" stroke="param(outline) #000" stroke-width="param(outline-width) 0" fill-opacity="param(fill-opacity) 1" stroke-opacity="param(outline-opacity) 1" d="M10.5 2C12.07 2 11.9 4 11.9 4C13.65 3.6 14.02 6.15 12.84 7.08C14.84 8 14.04 11.23 12.06 11.23L11 11L11 14L10 14L10 11L8.94 11.23C8.61 11.23 8.32 11.14 8.07 10.99C8.91 9.92 9.02 8.2 8.1 7.11L8.16 7.08C8.08 7.02 8.01 6.95 7.95 6.88L8 6.77C8.28 6.19 8.35 5.51 8.2 4.87L8.16 4.72C8.11 4.55 8.05 4.39 7.97 4.25C8.24 4 8.61 3.89 9.1 4L9.09 3.82L9.1 3.59C9.15 3 9.39 2 10.5 2ZM4.5 2C6.07 2 5.9 4 5.9 4C7.65 3.6 8.02 6.15 6.84 7.08C7.11 7.2 7.33 7.37 7.5 7.56L7.62 7.71L7.72 7.87L7.8 8.02L7.86 8.17L7.92 8.36L7.96 8.52C7.98 8.63 7.99 8.74 8 8.84L8 9.04C7.99 9.2 7.97 9.36 7.94 9.52L7.91 9.63L7.85 9.81L7.8 9.95L7.72 10.13L7.64 10.27L7.59 10.35L7.5 10.48C7.16 10.93 6.67 11.23 6.06 11.23L5 11L5 14L4 14L4 11L2.94 11.23C0.96 11.23 0.16 8 2.16 7.08C0.98 6.15 1.35 3.6 3.1 4L3.09 3.82L3.1 3.59C3.15 3 3.39 2 4.5 2Z"/>
</svg>