<svg xmlns="http://www.w3.org/2000/svg" viewBox="0 0 15 15">
  <path fill="param(fill) #888" stroke="param(outline) #000" stroke-width="param(outline-width) 0" fill-opacity="param(fill-opacity) 1" stroke-opacity="param(outline-opacity) 1" d="M7.5 3C7.09 3 6.74 2.85 6.44 2.56C6.15 2.27 6 1.91 6 1.5C6 1.09 6.15 0.73 6.44 0.44C6.74 0.15 7.09 0 7.5 0C7.91 0 8.26 0.15 8.56 0.44C8.85 0.73 9 1.09 9 1.5C9 1.91 8.85 2.27 8.56 2.56C8.26 2.85 7.91 3 7.5 3ZM4.74 6.55L2.3 9L1.25 7.95L4.64 4.56C4.9 4.29 5.19 4.09 5.52 3.96C5.84 3.82 6.19 3.75 6.56 3.75L8.44 3.75C8.81 3.75 9.16 3.82 9.48 3.96C9.81 4.09 10.1 4.29 10.36 4.56L13.75 7.95L12.7 9L10.26 6.55C10.65 8.2 10.7 9.91 10.39 11.58L9.75 15L8.25 15L8.25 11.25L6.75 11.25L6.75 15L5.25 15L4.61 11.58C4.3 9.91 4.35 8.2 4.74 6.55Z"/>
</svg>