<svg xmlns="http://www.w3.org/2000/svg" viewBox="0 0 15 15">
  <path fill="param(fill) #888" stroke="param(outline) #000" stroke-width="param(outline-width) 0" fill-opacity="param(fill-opacity) 1" stroke-opacity="param(outline-opacity) 1" d="M5 0C6.93 0 8.5 1.57 8.5 3.5C8.5 5.43 6.93 7 5 7L2 7L2 11L0 11L0 0L5 0ZM5 2L2 2L2 5L5 5C5.83 5 6.5 4.33 6.5 3.5C6.5 2.67 5.83 2 5 2ZM11.5 7C11.75 7 11.96 7.18 12 7.41L12 9.29L12.74 10.03C14 10.15 15 11.2 15 12.5C15 13.88 13.88 15 12.51 15C11.13 15 10 13.88 10 12.5C10 11.54 10.55 10.71 11.34 10.29L11.5 10.21L11.11 9.81L8.63 11.21C8.86 11.59 9.01 12.03 9.01 12.5C9.01 13.88 7.87 15 6.5 15C5.12 15 4 13.88 4 12.5C4 11.13 5.12 10 6.5 10C6.64 10 6.77 10.02 6.91 10.04L7.09 10.08L6.66 9L6.43 9C5.79 9.01 5.75 8.11 6.31 8.01L6.43 8L8.46 8C9.09 7.99 9.13 8.89 8.57 8.99L8.46 9L7.74 9L8.26 10.28L11 8.72L11 8L10.5 8C9.87 8.01 9.83 7.11 10.39 7.01L10.5 7L11.5 7ZM6.5 11.01C5.66 11.01 5 11.67 5 12.5C5 13.34 5.66 14 6.5 14C7.33 14 8.01 13.34 8.01 12.5C8.01 11.67 7.33 11.01 6.5 11.01ZM12.51 11.01C11.67 11.01 11 11.67 11 12.5C11 13.34 11.67 14 12.51 14C13.34 14 14 13.34 14 12.5C14 11.67 13.34 11.01 12.51 11.01Z"/>
</svg>