<svg xmlns="http://www.w3.org/2000/svg" viewBox="0 0 15 15">
  <path fill="param(fill) #888" stroke="param(outline) #000" stroke-width="param(outline-width) 0" fill-opacity="param(fill-opacity) 1" stroke-opacity="param(outline-opacity) 1" d="M12 4C14.13 4 15.05 5.78 15 6L14.25 12L13 12L13 15L11 15L11 12L9.75 12L9 5.99L9 5.97C9 5.91 9.04 5.79 9.13 5.64C9.16 5.57 9.21 5.49 9.26 5.42C9.67 4.82 10.56 4 12 4ZM6 1C7.8 1 9.29 2.36 9.48 4.11C8.64 4.73 8.13 5.56 8.27 6.17L8.26 6.1L8.38 7.07C7.75 7.65 6.92 8 6 8L3 8L3 12L1 12L1 1L6 1ZM12 5.5C10.71 5.5 10.49 6.17 10.25 6.5L10.5 8L13.5 8L13.75 6.5L13.55 6.19C13.32 5.86 12.95 5.5 12 5.5ZM6 3L3 3L3 6L6 6C6.83 6 7.5 5.33 7.5 4.5C7.5 3.67 6.83 3 6 3Z"/>
</svg>