<svg xmlns="http://www.w3.org/2000/svg" viewBox="0 0 15 15">
  <path fill="param(fill) #888" stroke="param(outline) #000" stroke-width="param(outline-width) 0" fill-opacity="param(fill-opacity) 1" stroke-opacity="param(outline-opacity) 1" d="M11.16 9C12.38 9.19 13.22 9.94 13.5 11.25C13.6 11.81 13.69 12.37 13.88 12.94C13.97 13.4 14.25 13.59 14.63 13.68C14.81 13.68 15 13.87 15 14.06C15 14.25 14.91 14.43 14.72 14.53C14.06 14.77 13.41 14.95 12.81 14.99L12.56 14.99C10.41 15.09 8.91 13.87 8.54 11.81L8.63 11.62C9.38 10.78 10.22 9.94 10.97 9.1C10.97 9 11.07 9 11.16 9ZM0.59 0L0.67 0.01C0.86 0.01 0.95 0.11 1.14 0.2C1.7 0.67 2.36 1.04 2.92 1.51C5.45 3.57 7.79 5.82 10.04 8.16C10.09 8.16 10.11 8.19 10.12 8.22L10.13 8.25L7.69 10.88C7.69 10.85 7.69 10.83 7.68 10.82L7.62 10.74L7.6 10.69C6.1 8.91 4.6 7.22 3.2 5.44C2.17 4.13 1.23 2.92 0.39 1.51C0.2 1.23 0.11 0.95 0.01 0.67C-0.07 0.32 0.24 -0.03 0.59 0Z"/>
</svg>