<svg xmlns="http://www.w3.org/2000/svg" viewBox="0 0 15 15">
  <path fill="param(fill) #888" stroke="param(outline) #000" stroke-width="param(outline-width) 0" fill-opacity="param(fill-opacity) 1" stroke-opacity="param(outline-opacity) 1" d="M13.99 4.33C13.99 4.37 13.98 4.42 13.98 4.46C13.97 4.46 7.37 15 7.37 15L1 4.49L1.04 4.47C1.04 4.47 1.02 4.47 1.01 4.46C1.01 4.42 1 4.37 1 4.33C1 2.67 2.4 1.22 4.47 0.5C3.53 1.54 2.94 3.04 2.94 4.72C2.65 4.69 2.37 4.66 2.09 4.62L6.51 11.9L4.62 4.87C4.34 4.86 4.08 4.83 3.81 4.81L3.81 4.72C3.81 2.59 4.86 0.79 6.33 0.15C5.8 1.23 5.54 3.05 5.54 4.79L5.54 4.92L7.41 11.9C7.41 11.9 9.44 4.92 9.42 4.92L9.42 4.79C9.42 3.04 9.17 1.2 8.63 0.12C10.12 0.75 11.19 2.57 11.19 4.72L11.19 4.81C10.92 4.83 10.66 4.85 10.38 4.87L8.32 11.9L12.82 4.63C12.57 4.67 12.32 4.69 12.06 4.72C12.06 3.04 11.47 1.54 10.53 0.5C12.6 1.22 14 2.67 14 4.33L13.99 4.33ZM7.43 0C7.08 0.18 6.4 1.85 6.4 4.79L6.4 4.95C6.76 4.96 7.12 4.97 7.49 4.97C7.86 4.97 8.2 4.96 8.55 4.96L8.55 4.8C8.55 1.84 7.86 0.17 7.52 0L7.43 0L7.43 0Z"/>
</svg>