<svg xmlns="http://www.w3.org/2000/svg" viewBox="0 0 15 15">
  <path fill="param(fill) #888" stroke="param(outline) #000" stroke-width="param(outline-width) 0" fill-opacity="param(fill-opacity) 1" stroke-opacity="param(outline-opacity) 1" d="M9.35 0.06L9.93 0.04C11.22 0 11.81 -0.21 11.83 0.82C13.1 1.27 12.96 3.36 12.41 3.91C12.26 2.88 11.66 3.22 11.2 3.18C10.69 3.7 11.03 4.28 11.38 4.53C12.63 5 12.04 9.91 8.36 11.09C8.47 11.2 8.56 11.31 8.62 11.43C9.04 12.44 8.06 12.33 7.24 12.74L7.63 12.69C7.75 12.68 7.9 12.68 8.12 12.69C8.53 12.71 8.96 12.77 9.32 12.97C9.68 13.17 9.79 13.66 9.29 14.21C8.41 13.42 8.13 13.33 6.73 13.48L6.37 13.54C5.88 13.64 5.84 13.6 6.01 13.3L6.18 12.99C6.53 12.33 7.49 12.35 6.94 11.96C6.15 12.34 5.32 12.18 4.65 12.03C3.3 11.87 2.47 14.69 1.63 15C1.13 14.17 2.2 12.51 2.55 10.23L2.73 9.53C3.33 7.14 4.2 4.27 6.31 3.68C6.05 3.38 6.23 2.66 6.66 1.71C7.13 0.69 7.95 0.11 9.35 0.06L9.35 0.06ZM10.19 0.74C10.13 0.74 10.08 0.75 10.02 0.76C9.68 0.84 9.52 1.15 9.65 1.45C9.78 1.75 10.15 1.93 10.49 1.85C10.83 1.77 10.99 1.46 10.86 1.16C10.76 0.91 10.48 0.74 10.19 0.74ZM7.62 4.68C6.23 4.66 5.85 5.64 5.43 6.3C4.67 7.49 4.11 9.2 3.45 10.83C3.32 11.14 3.77 11.41 4.15 11.24L5.84 10.42C7.82 9.44 9.85 8.24 9.79 6.42C9.72 5.16 9.01 4.69 7.62 4.68Z"/>
</svg>