<svg xmlns="http://www.w3.org/2000/svg" viewBox="0 0 15 15">
  <path fill="param(fill) #888" stroke="param(outline) #000" stroke-width="param(outline-width) 0" fill-opacity="param(fill-opacity) 1" stroke-opacity="param(outline-opacity) 1" d="M8.4 1.08C8.31 1.09 8.24 1.17 8.21 1.33C8.16 1.65 8.07 2.03 7.88 2.21C7.55 2.54 6.84 2.26 6.52 2.59C6.19 2.92 6.46 3.63 6.12 3.96C5.96 4.15 5.57 4.24 5.25 4.29C4.98 4.34 4.92 4.51 5.12 4.71C5.31 4.9 5.68 5.04 5.95 4.99C6.27 4.94 6.65 4.84 6.83 4.66C7.16 4.33 6.88 3.62 7.22 3.29C7.54 2.96 8.25 3.24 8.58 2.91C8.77 2.73 8.87 2.35 8.91 2.04C8.96 1.77 8.82 1.38 8.62 1.2C8.54 1.12 8.47 1.08 8.4 1.08ZM12.5 3A0.5 0.5 0 0 0 12 3.5A0.5 0.5 0 0 0 12.5 4A0.5 0.5 0 0 0 13 3.5A0.5 0.5 0 0 0 12.5 3ZM8.5 4A0.5 0.5 0 0 0 8 4.5A0.5 0.5 0 0 0 8.5 5A0.5 0.5 0 0 0 9 4.5A0.5 0.5 0 0 0 8.5 4ZM3.32 5.03L0 15L9.97 11.68L3.32 5.03ZM12.45 5.84C12.19 5.83 11.93 5.85 11.76 5.94C11.36 6.18 11.45 6.94 11.03 7.18C10.63 7.41 10.02 6.95 9.62 7.18C9.39 7.31 9.2 7.66 9.07 7.95C8.95 8.19 8.99 8.6 9.13 8.83C9.27 9.07 9.46 9.05 9.56 8.81C9.7 8.51 9.89 8.17 10.11 8.04C10.52 7.81 11.13 8.26 11.53 8.03C11.93 7.8 11.85 7.04 12.26 6.81C12.47 6.67 12.87 6.68 13.19 6.71C13.47 6.74 13.57 6.59 13.43 6.35C13.29 6.11 12.97 5.88 12.7 5.86C12.62 5.85 12.53 5.84 12.45 5.84ZM7.5 7A0.5 0.5 0 0 0 7 7.5A0.5 0.5 0 0 0 7.5 8A0.5 0.5 0 0 0 8 7.5A0.5 0.5 0 0 0 7.5 7ZM3.55 7.18L7.8 11.43L6.74 11.78L3.2 8.25L3.55 7.18ZM12.5 9A0.5 0.5 0 0 0 12 9.5A0.5 0.5 0 0 0 12.5 10A0.5 0.5 0 0 0 13 9.5A0.5 0.5 0 0 0 12.5 9ZM2.85 9.31L5.68 12.13L4.61 12.49L2.49 10.37L2.85 9.31ZM2.14 11.43L3.55 12.84L2.49 13.2L1.79 12.49L2.14 11.43Z"/>
</svg>