<svg xmlns="http://www.w3.org/2000/svg" viewBox="0 0 15 15">
  <path fill="param(fill) #888" stroke="param(outline) #000" stroke-width="param(outline-width) 0" fill-opacity="param(fill-opacity) 1" stroke-opacity="param(outline-opacity) 1" d="M5.26 8.21C5.99 8.21 6.6 8.71 6.79 9.37C6.82 9.47 6.84 9.57 6.86 9.67L6.92 9.97C7.05 10.63 7.19 11.26 7.92 11.62C8.78 11.9 9.13 12.28 9.13 13.25C9.13 14.03 8.44 14.85 7.59 14.95C6.6 15.09 5.86 14.91 5.26 14.56C4.64 14.91 3.89 15.09 2.93 14.95C2.06 14.85 1.38 14.02 1.38 13.25C1.38 12.29 1.73 11.89 2.6 11.61C3.63 11.08 3.5 10.15 3.72 9.32C3.92 8.7 4.53 8.21 5.26 8.21ZM0.58 7.59C0.93 7.62 1.8 8.35 2.09 8.74C2.3 8.95 2.43 9.26 2.43 9.61C2.43 10.34 1.9 10.89 1.29 10.89C0.8 10.89 0.43 10.59 0.24 10.11C-0.09 9.26 -0.13 8.11 0.44 7.63L0.5 7.59L0.58 7.59ZM9.95 7.59C9.99 7.59 10.04 7.59 10.09 7.63C10.62 8.11 10.59 9.26 10.26 10.11C10.09 10.59 9.7 10.89 9.22 10.89C8.59 10.89 8.06 10.34 8.06 9.61C8.06 9.31 8.16 9.04 8.32 8.83L8.4 8.74C8.69 8.35 9.56 7.62 9.95 7.59ZM3.95 3C4.88 3 4.72 5.55 4.64 6.23C4.58 6.87 4.12 7.43 3.5 7.52C1.38 7.89 1.2 3.47 3.85 3.02L3.87 3.02L3.87 3L3.95 3ZM6.55 3C6.59 3 6.62 3.01 6.65 3.02C9.31 3.47 9.11 7.89 6.99 7.52C6.38 7.43 5.92 6.87 5.86 6.23L5.83 5.92C5.77 5 5.75 3.07 6.52 3L6.55 3ZM11 0L11 0.25C11 0.53 11.22 0.75 11.5 0.75C11.78 0.75 12 0.53 12 0.25L12 0L13 0C14.1 0 15 0.9 15 2C15 3.1 14.1 4 13 4C12.08 4 11.31 3.38 11.07 2.54L8 1L9 0L11 0ZM13 1C12.45 1 12 1.45 12 2C12 2.55 12.45 3 13 3C13.55 3 14 2.55 14 2C14 1.45 13.55 1 13 1Z"/>
</svg>