<svg xmlns="http://www.w3.org/2000/svg" viewBox="0 0 15 15">
  <path fill="param(fill) #888" stroke="param(outline) #000" stroke-width="param(outline-width) 0" fill-opacity="param(fill-opacity) 1" stroke-opacity="param(outline-opacity) 1" d="M1 3C0.45 3 0 3.45 0 4L0 5L15 5L15 4C15 3.45 14.55 3 14 3L1 3zM0 7L0 11C0 11.55 0.45 12 1 12L14 12C14.55 12 15 11.55 15 11L15 7L0 7zM1.51 9.04L3.54 9.04C3.82 9.04 4.04 9.26 4.04 9.54L4.04 10.43C4.04 10.7 3.82 10.93 3.54 10.93L1.51 10.93C1.24 10.93 1.01 10.7 1.01 10.43L1.01 9.54C1.01 9.26 1.24 9.04 1.51 9.04z"/>
</svg>