<svg xmlns="http://www.w3.org/2000/svg" viewBox="0 0 15 15">
  <path fill="param(fill) #888" stroke="param(outline) #000" stroke-width="param(outline-width) 0" fill-opacity="param(fill-opacity) 1" stroke-opacity="param(outline-opacity) 1" d="M1 0C0.45 0 0 0.45 0 1L0 2L0 4L0 5C0 5.55 0.45 6 1 6L2.5 6L2.5 4A0.5 0.5 0 0 1 2 3.5L2 2.5A0.5 0.5 0 0 1 2.5 2L12.5 2A0.5 0.5 0 0 1 13 2.5L13 3.5A0.5 0.5 0 0 1 12.5 4L12.5 6L14 6C14.55 6 15 5.55 15 5L15 4L15 2L15 1C15 0.45 14.55 0 14 0L1 0zM3 3L3 14C3 14.55 3.45 15 4 15L8 15L8 3L5.96 3L5.96 3.54C5.96 3.82 5.74 4.04 5.46 4.04L4.57 4.04C4.3 4.04 4.07 3.82 4.07 3.54L4.07 3L3 3zM10 3L10 15L11 15C11.55 15 12 14.55 12 14L12 3L10 3z"/>
</svg>