<svg xmlns="http://www.w3.org/2000/svg" viewBox="0 0 15 15">
  <path fill="param(fill) #888" stroke="param(outline) #000" stroke-width="param(outline-width) 0" fill-opacity="param(fill-opacity) 1" stroke-opacity="param(outline-opacity) 1" d="M7.5 0C11.64 0 15 3.36 15 7.5C15 11.64 11.64 15 7.5 15C3.36 15 0 11.64 0 7.5C0 3.36 3.36 0 7.5 0ZM8.25 9.31L8.25 13.45C9.35 13.32 10.35 12.89 11.18 12.24L8.25 9.31ZM6.75 9.31L3.82 12.24C4.65 12.89 5.65 13.32 6.75 13.45L6.75 9.31ZM8.25 1.55L8.25 7.19L12.24 11.18C13.03 10.16 13.5 8.89 13.5 7.5C13.5 4.44 11.21 1.92 8.25 1.55ZM6.75 1.55C3.79 1.92 1.5 4.44 1.5 7.5C1.5 8.89 1.97 10.16 2.76 11.18L6.75 7.19L6.75 1.55Z"/>
</svg>