<?xml version="1.0" encoding="UTF-8"?>
<svg viewBox="0 0 15 15" version="1.1" xmlns="http://www.w3.org/2000/svg" xmlns:xlink="http://www.w3.org/1999/xlink">
  <path fill="param(fill) #888" stroke="param(outline) #000" stroke-width="param(outline-width) 0" fill-opacity="param(fill-opacity) 1" stroke-opacity="param(outline-opacity) 1" d="M9.11 1.09C9.99 1.09 10.71 1.81 10.71 2.7C10.71 3.58 9.99 4.3 9.11 4.3C8.22 4.3 7.5 3.58 7.5 2.7C7.5 1.81 8.22 1.09 9.11 1.09ZM4.29 2.14L6.43 3.21L3.21 9.64L1.07 8.57L4.29 2.14ZM6.43 4.29L8.57 5.36L8.26 6.93L10.71 8.57L13.93 7.5L13.93 8.57L10.71 10.71L7.88 8.82L7.5 10.71L4.29 9.64L6.43 4.29ZM13.93 9.64L13.93 15L12.86 15L12.86 9.64L13.93 9.64ZM4.29 10.71L7.5 11.79L9.64 15L7.68 15L6.04 12.86L5.36 15L3.21 15L4.29 10.71Z"/>
</svg>