<?xml version="1.0" encoding="UTF-8"?>
<svg viewBox="0 0 15 15" version="1.1" xmlns="http://www.w3.org/2000/svg" xmlns:xlink="http://www.w3.org/1999/xlink">
  <path fill="param(fill) #888" stroke="param(outline) #000" stroke-width="param(outline-width) 0" fill-opacity="param(fill-opacity) 1" stroke-opacity="param(outline-opacity) 1" d="M1 0L1 15L4 15L4 8L9.12 4.47C9.76 4.58 9.76 5.1 10.18 5C10.61 4.89 11.25 4.89 11.47 5.42C11.57 5.75 11.89 5.1 12.21 5.1C12.64 5.21 12.64 5.32 12.74 6.27C12.85 7.24 13.38 7.34 13.27 6.81C13.17 5.92 13.35 5.58 13.38 5.2L13.38 5.1C13.48 3.72 12.64 3.51 11.36 3.41L11.03 3.37C10.41 3.26 10.4 3.12 9.76 2.66C8.6 1.92 8.27 2.12 7.21 2.03C6.04 2.03 6.36 1.49 5.29 1.38L4.82 1.29C4.41 1.2 3.98 1.08 3.59 0.85C3.02 0.5 2.16 0.21 1 0ZM9.34 8.51C9.23 8.51 9.01 8.62 8.91 8.73L7.63 9.79L7.56 9.79C7.52 9.8 7.52 9.82 7.52 9.89L7.21 11.06L7.22 11.14C7.26 11.3 7.44 11.38 7.52 11.38C7.74 11.38 7.85 11.28 7.85 11.17L8.06 10.11L8.49 9.79L7.85 12.87L7 14.26C6.89 14.35 6.89 14.35 6.89 14.46C6.89 14.68 7.11 14.89 7.32 14.89C7.52 14.89 7.63 14.78 7.74 14.78L8.6 13.29C8.6 13.19 8.7 13.08 8.7 13.08L8.91 12.12L9.87 13.19L10.18 14.68C10.29 14.78 10.4 15 10.61 15C10.83 15 11.04 14.78 11.04 14.57L11.04 14.46L10.72 12.87L10.72 12.77L9.55 11.38L9.87 10.11L10.09 10.63C10.09 10.74 10.18 10.74 10.18 10.74L11.15 11.38L11.25 11.38C11.47 11.38 11.57 11.28 11.57 11.06C11.57 10.96 11.47 10.85 11.36 10.85L10.5 10.22L9.87 8.83C9.76 8.62 9.55 8.51 9.34 8.51ZM12.95 8.93C12.88 9.39 12.86 10.34 12.85 10.92L12.85 11.38L13.08 10.68C13.18 10.35 13.27 10.01 13.27 9.89C13.27 9.68 12.95 9.25 12.95 8.93ZM12.42 6.91C12.74 7.45 12.74 7.65 12.95 7.98C13.27 8.4 13.38 9.04 13.59 9.47C13.48 9.25 13.38 7.87 13.27 7.55C13.27 7.34 12.95 7.65 12.42 6.91ZM9.55 7.13C9.23 7.13 8.91 7.34 8.91 7.76C8.91 8.08 9.12 8.4 9.44 8.4C9.76 8.4 10.09 8.19 10.18 7.76C10.18 7.45 9.98 7.13 9.55 7.13ZM12.1 5.42L12.09 5.47L12.08 5.49C12 5.67 11.79 6.03 11.57 5.96C11.57 6.59 11.36 7.24 11.36 7.34L11.43 7.19C11.63 6.76 12.1 5.61 12.1 5.42ZM4 3L7.63 4.04L4 6.5L4 3Z"/>
</svg>