<svg xmlns="http://www.w3.org/2000/svg" viewBox="0 0 15 15">
  <path fill="param(fill) #888" stroke="param(outline) #000" stroke-width="param(outline-width) 0" fill-opacity="param(fill-opacity) 1" stroke-opacity="param(outline-opacity) 1" d="M7.5 0C3.36 0 0 3.36 0 7.5C0 11.64 3.36 15 7.5 15C11.64 15 15 11.64 15 7.5C15 3.36 11.64 0 7.5 0ZM7.3 1.5L6.07 5.09L2 5.09C2.91 3.04 4.93 1.58 7.3 1.5ZM7.7 1.5C10.07 1.58 12.09 3.04 13 5.09L8.93 5.09L7.7 1.5ZM7.5 3.17L8.13 5.09L6.86 5.09L7.5 3.17ZM1.92 5.29L5.07 7.99L3.65 12.1C2.34 11 1.5 9.35 1.5 7.5C1.5 6.72 1.65 5.98 1.92 5.29ZM13.08 5.3C13.35 5.98 13.5 6.72 13.5 7.5C13.5 9.35 12.66 11 11.35 12.1L9.95 8.04L9.99 8L13.08 5.3ZM3.86 5.92L5.78 5.92L5.34 7.2L3.86 5.92ZM6.58 5.92L8.41 5.92L9.01 7.75L7.5 9.06L5.97 7.75L6.58 5.92ZM9.22 5.92L11.09 5.92L9.65 7.18L9.22 5.92ZM5.71 8.54L6.85 9.52L4.93 10.87L5.71 8.54ZM9.29 8.59L10.04 10.87L8.16 9.53L9.29 8.59ZM7.5 10.08L10.89 12.45C9.92 13.11 8.76 13.5 7.5 13.5C6.24 13.5 5.08 13.11 4.11 12.45L7.5 10.08Z"/>
</svg>