<svg xmlns="http://www.w3.org/2000/svg" viewBox="0 0 15 15">
  <path fill="param(fill) #888" stroke="param(outline) #000" stroke-width="param(outline-width) 0" fill-opacity="param(fill-opacity) 1" stroke-opacity="param(outline-opacity) 1" d="M2 12L6 12L6 10C6 9.5 6.5 9 7 9L13 9L13 6L2 6L2 12ZM2 13L2 14L1 14L1 1.5C1 1.22 1.22 1 1.5 1C1.78 1 2 1.22 2 1.5L2 7L13 7L13 1.5C13 1.22 13.22 1 13.5 1C13.78 1 14 1.22 14 1.5L14 14L13 14L13 13L2 13ZM11 5.5C10.17 5.5 9.5 4.83 9.5 4C9.5 3.17 10.17 2.5 11 2.5C11.83 2.5 12.5 3.17 12.5 4C12.5 4.83 11.83 5.5 11 5.5ZM4 8.5C4.83 8.5 5.5 9.17 5.5 10C5.5 10.83 4.83 11.5 4 11.5C3.17 11.5 2.5 10.83 2.5 10C2.5 9.17 3.17 8.5 4 8.5ZM8 3C8.55 3 9 3.45 9 4L9 6L2 6L2 3L8 3Z"/>
</svg>