<svg xmlns="http://www.w3.org/2000/svg" viewBox="0 0 15 15">
  <path fill="param(fill) #888" stroke="param(outline) #000" stroke-width="param(outline-width) 0" fill-opacity="param(fill-opacity) 1" stroke-opacity="param(outline-opacity) 1" d="M7.19 3.71L6.65 5.05C6.61 5.13 6.54 5.2 6.46 5.23C6.27 5.32 6.04 5.24 5.95 5.05L5.41 3.71H7.19M5.35 2.82C5.54 3.34 6.11 3.61 6.63 3.43C7.15 3.25 7.43 2.68 7.25 2.15C7.11 1.75 6.73 1.48 6.3 1.48C6.31 1.27 6.14 1.08 5.92 1.08C5.73 1.07 5.56 1.21 5.52 1.4C5.3 1.28 5.02 1.36 4.9 1.58C4.83 1.72 4.83 1.88 4.9 2.02C4.74 2.24 4.78 2.55 5 2.72C5.1 2.8 5.23 2.83 5.35 2.82M1.56 6.24C1.43 6.08 1.46 5.84 1.62 5.72H3.63C3.72 5.66 3.8 5.59 3.85 5.49L4.42 4.6C4.51 4.29 4.7 4.02 4.96 3.83L5.86 6.13C6.04 6.38 6.39 6.43 6.64 6.24C6.68 6.21 6.72 6.18 6.75 6.13L7.64 3.83C7.9 4.02 8.09 4.29 8.19 4.6L8.75 5.49C8.8 5.59 8.88 5.67 8.98 5.72H10.76L10.54 6.83L8.75 6.36C8.62 6.35 8.49 6.28 8.42 6.16L7.68 5.49C7.68 5.46 7.65 5.43 7.61 5.44C7.58 5.44 7.56 5.47 7.56 5.5L7.3 6.94L7.55 7.72C8.59 7.77 9.62 7.54 10.54 7.05L10.72 9.51C10.3 10.95 9.39 12.2 8.15 13.04C7.03 13.79 5.57 13.79 4.45 13.05C2.42 11.66 1.34 9.25 1.68 6.81L1.63 6.63C0.9 7.48 0.86 8.4 1.18 9.48C1.64 11.27 2.78 12.81 4.36 13.78C6.14 14.63 8.27 14.26 9.64 12.85L9.2 13.74C8.71 14.11 8.14 14.34 7.54 14.41C7.51 14.64 7.33 14.82 7.1 14.85C6.82 14.89 6.56 14.69 6.52 14.41H6.05C6.02 14.64 5.84 14.82 5.61 14.85C5.32 14.89 5.07 14.69 5.03 14.41C3.72 13.99 2.59 13.13 1.84 11.98C0.74 10.74 0.11 9.16 0.06 7.5C0.08 7.43 0.08 7.35 0.06 7.28C-0.02 7.06 -0.02 6.82 0.06 6.61C0.07 6.57 0.09 6.53 0.11 6.49C0.31 6.11 0.79 5.96 1.17 6.16C1.17 6.37 1.34 6.53 1.54 6.54C2.09 6.5 1.55 6.35 1.56 6.24ZM14.67 1.63C14.21 1.44 13.7 1.39 13.21 1.48C13.17 1.2 13.1 0.93 13.01 0.67C12.92 0.3 12.54 0.07 12.17 0.16C11.97 0.21 11.8 0.35 11.71 0.54C11.65 0.7 11.6 0.86 11.57 1.04C11.04 1.38 10.34 1.33 9.87 0.9C9.75 0.8 9.56 0.81 9.46 0.93C9.38 1.03 9.36 1.16 9.42 1.26C9.82 1.86 10.44 2.26 11.15 2.37C10.97 2.9 11.24 3.47 11.76 3.65C12.28 3.84 12.86 3.56 13.04 3.04C13.07 2.97 13.08 2.9 13.09 2.82C13.5 2.93 13.93 2.98 14.36 2.97C14.76 2.92 15.04 2.56 14.99 2.16C14.97 1.94 14.85 1.75 14.67 1.63M14.25 6.16C14.27 5.99 14.19 5.81 14.04 5.72L12.99 4.38C12.7 3.93 12.1 3.8 11.65 4.09C11.39 4.25 11.23 4.53 11.2 4.83L11.22 6.18L11.28 8.19L9.77 14.19C9.71 14.5 9.91 14.79 10.21 14.85C10.51 14.9 10.8 14.71 10.86 14.4C10.87 14.37 10.87 14.33 10.87 14.3L12.2 9.28L12.23 9.25C12.29 9.21 12.36 9.23 12.4 9.28L12.88 14.3C12.88 14.61 13.13 14.86 13.43 14.86C13.74 14.86 13.99 14.61 13.99 14.3L13.43 8.17L14.25 6.16M2.29 6.61C3.09 7.23 4.04 7.62 5.05 7.72L5.3 6.94L5.05 5.5C5.05 5.47 5.02 5.44 4.98 5.44C4.75 5.65 4.52 5.92 4.3 6.16C4.16 6.26 4.01 6.32 3.85 6.36L2.29 6.61M13.43 6.39L13.21 7.05L12.99 5.94C13 5.91 13.03 5.88 13.06 5.87C13.12 5.85 13.19 5.88 13.21 5.94L13.34 6.16C13.4 6.22 13.43 6.3 13.43 6.39Z"/>
</svg>