<svg xmlns="http://www.w3.org/2000/svg" viewBox="0 0 15 15">
  <path fill="param(fill) #888" stroke="param(outline) #000" stroke-width="param(outline-width) 0" fill-opacity="param(fill-opacity) 1" stroke-opacity="param(outline-opacity) 1" d="M9.64 6C9.85 6 10.04 6.14 10.11 6.34L11 9C11.55 9 12 9.45 12 10L12 13L11 13L11 14C11 14.55 10.55 15 10 15C9.45 15 9 14.55 9 14L9 13L6 13L6 14C6 14.55 5.55 15 5 15C4.45 15 4 14.55 4 14L4 13L3 13L3 10C3 9.45 3.45 9 4 9L4.89 6.34C4.96 6.14 5.15 6 5.36 6L9.64 6ZM5 10C4.45 10 4 10.45 4 11C4 11.55 4.45 12 5 12C5.55 12 6 11.55 6 11C6 10.45 5.55 10 5 10ZM10 10C9.45 10 9 10.45 9 11C9 11.55 9.45 12 10 12C10.55 12 11 11.55 11 11C11 10.45 10.55 10 10 10ZM9.38 7L5.62 7L5 9L10 9L9.38 7ZM6 1.25C6 1.94 5.44 2.5 4.75 2.5C4.06 2.5 3.5 1.94 3.5 1.25C3.5 0.56 4.06 0 4.75 0C5.44 0 6 0.56 6 1.25ZM6.85 4.42L7 5L2.5 5L2.65 4.42C2.87 3.58 3.54 3 4.31 3L5.19 3C5.96 3 6.63 3.58 6.85 4.42ZM11.5 1.25C11.5 1.94 10.94 2.5 10.25 2.5C9.56 2.5 9 1.94 9 1.25C9 0.56 9.56 0 10.25 0C10.94 0 11.5 0.56 11.5 1.25ZM12.35 4.42L12.5 5L8 5L8.15 4.42C8.37 3.58 9.04 3 9.81 3L10.69 3C11.46 3 12.13 3.58 12.35 4.42Z"/>
</svg>