<?xml version="1.0" encoding="UTF-8"?>
<svg viewBox="0 0 15 15" version="1.1" xmlns="http://www.w3.org/2000/svg" xmlns:xlink="http://www.w3.org/1999/xlink">
  <path fill="param(fill) #888" stroke="param(outline) #000" stroke-width="param(outline-width) 0" fill-opacity="param(fill-opacity) 1" stroke-opacity="param(outline-opacity) 1" d="M9 4C11.5 4 12.5 5 12.5 7.5C12.5 9 11.5 13 11.5 13C11 15 9.5 15 7.5 15L6.92 15C5.27 14.98 4.04 14.81 3.55 13.19L3.49 12.95C3.38 12.51 2.5 8.91 2.5 7.5C2.5 5 3.5 4 6 4L9 4ZM7 5C3 5 3.5 7.5 4 10L4 9.4C4.02 7.25 4.25 5.92 7 5ZM6.5 0C5.5 0 5.25 1 5.25 1.5L4 1.5C4 1 3.5 0.5 2.5 0.5C1.5 0.5 0.5 1 0.5 1.75C0.5 2.5 1.5 3 2.5 3C3.5 3 4 2.5 4 2L5.25 2C5.25 2.5 5.5 3.5 6.5 3.5L8.5 3.5C9.5 3.5 9.5 2.5 9.5 2.25C8.75 2.25 8.75 1.25 9.5 1.25L9.5 1.15C9.49 0.8 9.39 0 8.5 0L6.5 0ZM11.24 0.93L10.75 1C10.61 1.02 10.52 1.14 10.54 1.28C10.56 1.42 10.68 1.51 10.82 1.49L11.32 1.42C11.45 1.4 11.55 1.28 11.53 1.14C11.51 1 11.38 0.91 11.24 0.93ZM12.73 0.72C12.87 0.7 12.99 0.79 13.01 0.93C13.03 1.06 12.94 1.19 12.8 1.21L12.3 1.28C12.17 1.3 12.04 1.21 12.02 1.07C12 0.93 12.1 0.81 12.23 0.79L12.73 0.72ZM14.21 0.5C14.35 0.48 14.48 0.58 14.5 0.72C14.52 0.85 14.42 0.98 14.28 1L13.79 1.07C13.65 1.09 13.53 0.99 13.51 0.86C13.49 0.72 13.58 0.59 13.72 0.57L14.21 0.5ZM13.79 2.43L14.28 2.5C14.42 2.52 14.52 2.64 14.5 2.78C14.48 2.92 14.35 3.01 14.21 2.99L13.72 2.92C13.58 2.9 13.49 2.78 13.51 2.64C13.53 2.5 13.65 2.41 13.79 2.43ZM12.3 2.22L12.8 2.29C12.94 2.31 13.03 2.43 13.01 2.57C12.99 2.71 12.87 2.8 12.73 2.78L12.23 2.71C12.1 2.69 12 2.56 12.02 2.43C12.04 2.29 12.17 2.19 12.3 2.22ZM10.82 2L11.32 2.07C11.45 2.09 11.55 2.22 11.53 2.36C11.51 2.49 11.38 2.59 11.24 2.57L10.75 2.5C10.61 2.48 10.52 2.35 10.54 2.22C10.56 2.08 10.68 1.98 10.82 2Z"/>
</svg>