<svg xmlns="http://www.w3.org/2000/svg" viewBox="0 0 15 15">
  <path fill="param(fill) #888" stroke="param(outline) #000" stroke-width="param(outline-width) 0" fill-opacity="param(fill-opacity) 1" stroke-opacity="param(outline-opacity) 1" d="M6.14 4.77L7.5 4.77C8.25 4.77 8.25 6.14 7.5 6.14L5.45 6.14C5.32 6.14 4.77 4.77 4.77 4.77L4.77 14.32C4.77 14.66 4.43 15 4.09 15C3.75 15 3.41 14.73 3.41 14.32L3.41 8.86L2.73 8.86L2.73 14.32C2.73 14.66 2.39 15 2.05 15C1.7 15 1.36 14.73 1.36 14.32L1.36 4.77L0.68 4.77L0.68 8.18C0.68 8.93 0.34 8.93 0 8.18L0 4.09C0 3.27 1.09 3.41 2.05 3.41L4.09 3.41C4.64 3.41 5.18 3.68 5.45 4.09L6.14 4.77ZM12.95 10.91C11.86 10.91 10.91 11.86 10.91 12.95L10.91 15L9.55 15L7.16 8.93L7.16 6.95L14.18 6.95L14.32 10.91L12.95 10.91ZM9.27 6.34L8.45 3.95L8.73 4.09L8.86 3.82L9.14 3.95L9.27 3.68L9.55 3.82L9.68 3.55L9.95 3.68L10.09 3.41L10.36 3.55L10.5 3.2L11.32 5.59C11.39 5.8 11.25 6 11.05 6.07L9.68 6.55C9.55 6.61 9.34 6.48 9.27 6.34ZM9.61 1.57L10.02 1.23L14.52 6.61L14.18 6.95L9.61 1.57ZM2.73 0C1.98 0 1.36 0.61 1.36 1.36C1.36 2.11 1.98 2.73 2.73 2.73C3.48 2.73 4.09 2.11 4.09 1.36C4.09 0.61 3.48 0 2.73 0ZM13.3 11.59C14.25 11.59 15 12.34 15 13.3C15 14.25 14.25 15 13.3 15C12.34 15 11.59 14.25 11.59 13.3C11.59 12.34 12.34 11.59 13.3 11.59ZM13.3 14.32C13.84 14.32 14.32 13.84 14.32 13.3C14.32 12.75 13.84 12.27 13.3 12.27C12.75 12.27 12.27 12.75 12.27 13.3C12.27 13.84 12.75 14.32 13.3 14.32Z"/>
</svg>