<svg xmlns="http://www.w3.org/2000/svg" viewBox="0 0 15 15">
  <path fill="param(fill) #888" stroke="param(outline) #000" stroke-width="param(outline-width) 0" fill-opacity="param(fill-opacity) 1" stroke-opacity="param(outline-opacity) 1" d="M12.5 6.25L11.17 15L10.02 15L11.17 7.5L9.59 7.5C9.1 7.5 8.65 7.25 8.38 6.83L7.91 6.16C7.69 7.28 7.41 8.73 7.36 9.02L8.32 10.18C8.53 10.43 8.69 10.75 8.69 11.08L8.69 15L7.45 15L7.45 11.05L5.18 8.69C4.89 8.39 4.77 7.97 4.85 7.57L5.32 5.25C4.89 5.43 4.34 5.63 3.74 5.83L3.74 7.92L2.5 7.92L2.5 5.96C2.5 5.42 2.83 4.93 3.32 4.72C3.71 4.56 5.74 3.73 6.19 3.57C7.04 3.27 7.55 3.63 7.78 3.87C7.81 3.9 9.46 6.24 9.46 6.24L12.5 6.26L12.5 6.25ZM7.69 2.77C8.45 2.77 9.06 2.15 9.06 1.39C9.06 0.62 8.45 0 7.69 0C6.93 0 6.31 0.62 6.31 1.39C6.31 2.15 6.93 2.77 7.69 2.77L7.69 2.77ZM4.55 9.42L3.32 15L4.65 15L5.71 10.63L4.55 9.42L4.55 9.42Z"/>
</svg>