<svg xmlns="http://www.w3.org/2000/svg" viewBox="0 0 15 15">
  <path fill="param(fill) #888" stroke="param(outline) #000" stroke-width="param(outline-width) 0" fill-opacity="param(fill-opacity) 1" stroke-opacity="param(outline-opacity) 1" d="M7.5 0L15 4L15 6.5L14 5.97L14 15L12 15L12 4.9L7.5 2.5L3 4.9L3 15L1 15L1 5.97L0 6.5L0 4L7.5 0ZM10.8 6.74C10.9 6.74 10.97 6.81 10.99 6.89L11 6.95L9.55 14.83C9.54 14.92 9.45 15 9.36 15C9.26 15 9.18 14.94 9.16 14.85L9.15 14.78L10.61 6.91C10.63 6.82 10.7 6.74 10.8 6.74ZM7.03 5.86L7.1 5.86C7.28 5.88 7.79 5.99 7.92 6.6L8.25 7.96L9.48 8.27C9.67 8.31 9.79 8.47 9.79 8.68C9.79 8.91 9.61 9.09 9.38 9.09L9.3 9.08L7.82 8.71C7.74 8.68 7.61 8.61 7.56 8.44L7.48 8.05L7.37 8.54L8.73 14.25L8.75 14.39C8.75 14.72 8.47 15 8.14 15C7.85 15 7.61 14.81 7.54 14.54L6.55 10.24L5.5 14.56C5.42 14.82 5.19 15 4.92 15C4.58 15 4.31 14.72 4.31 14.39C4.31 14.35 4.31 14.31 4.32 14.27L6.15 6.58C6.15 6.58 6.33 5.85 7.03 5.86ZM4.86 5.39L4.92 5.4L5.64 5.57C5.77 5.61 5.85 5.74 5.82 5.87L5.21 8.38C5.18 8.51 5.04 8.59 4.92 8.55L4.19 8.38C4.06 8.35 3.97 8.22 4.01 8.08L4.62 5.58C4.65 5.46 4.74 5.39 4.86 5.39ZM7.29 4C7.77 4 8.15 4.39 8.15 4.86C8.15 5.34 7.77 5.73 7.29 5.73C6.8 5.73 6.42 5.34 6.42 4.86C6.42 4.39 6.8 4 7.29 4Z"/>
</svg>