<svg xmlns="http://www.w3.org/2000/svg" viewBox="0 0 15 15">
  <path fill="param(fill) #888" stroke="param(outline) #000" stroke-width="param(outline-width) 0" fill-opacity="param(fill-opacity) 1" stroke-opacity="param(outline-opacity) 1" d="M12.5 9C12.56 9 12.62 9.01 12.68 9.01C12.94 9.05 13.18 9.15 13.39 9.31L13.71 9.57C14.01 9.81 14.39 9.96 14.78 10L15 10L15 11.5L14.95 11.5C14.49 11.5 14.06 11.34 13.71 11.06L13.39 10.81C13.14 10.61 12.82 10.5 12.5 10.5C12.18 10.5 11.86 10.61 11.61 10.81L11.3 11.06C10.94 11.34 10.5 11.5 10.05 11.5L9.95 11.5C9.5 11.5 9.06 11.34 8.7 11.06L8.39 10.81C8.14 10.61 7.82 10.5 7.5 10.5C7.18 10.5 6.86 10.61 6.61 10.81L6.3 11.06C5.94 11.34 5.5 11.5 5.05 11.5L4.95 11.5C4.69 11.5 4.43 11.45 4.19 11.35L3.32 12.25C3.49 12.57 3.44 12.98 3.18 13.25L2.02 14.45C1.7 14.78 1.17 14.78 0.85 14.45C0.53 14.12 0.53 13.57 0.85 13.24L2.01 12.04C2.29 11.75 2.72 11.71 3.04 11.92L3.8 11.13L3.7 11.06L3.39 10.81C3.14 10.61 2.82 10.5 2.5 10.5C2.18 10.5 1.86 10.61 1.61 10.81L1.29 11.06C0.99 11.31 0.61 11.46 0.22 11.49L0 11.5L0 10L0.05 10C0.4 10 0.74 9.91 1.04 9.74L1.16 9.66L1.29 9.57L1.61 9.31C1.86 9.11 2.18 9 2.5 9C2.82 9 3.14 9.11 3.39 9.31L3.7 9.56C3.74 9.6 3.79 9.63 3.83 9.66C4.16 9.88 4.55 10 4.95 10L5.05 10C5.39 10 5.72 9.91 6.02 9.75L6.13 9.68L6.19 9.64L6.3 9.56L6.61 9.31C6.86 9.11 7.18 9 7.5 9C7.82 9 8.14 9.11 8.39 9.31L8.7 9.56L8.8 9.64C9.14 9.87 9.54 10 9.95 10L10.05 10C10.5 10 10.94 9.85 11.3 9.56L11.61 9.31C11.86 9.11 12.18 9 12.5 9ZM14.16 0.65C14.48 0.98 14.48 1.53 14.16 1.86L13 3.07L13.01 3.08C12.74 3.35 12.35 3.4 12.04 3.23L10.68 4.64C10.82 4.79 10.87 5.02 10.8 5.23C10.69 5.52 10.38 5.67 10.1 5.56L9.87 5.48L8.11 7.02L13.68 7C13.83 7 13.97 7.07 14.06 7.17C14.24 7.38 14.22 7.7 14.01 7.88L13.57 8.26C13.24 8.09 12.88 8 12.5 8C11.95 8 11.42 8.19 10.98 8.53L10.67 8.78C10.5 8.92 10.28 9 10.05 9L9.95 9C9.72 9 9.5 8.92 9.33 8.78L9.01 8.53C8.58 8.19 8.05 8 7.5 8C6.95 8 6.42 8.19 5.99 8.53L5.67 8.78C5.5 8.92 5.28 9 5.05 9L4.95 9C4.72 9 4.5 8.92 4.33 8.78L4.01 8.53C3.58 8.19 3.05 8 2.5 8C1.95 8 1.42 8.19 0.99 8.53L0.67 8.78C0.49 8.93 0.28 9 0.05 9L0 9L0 7L4.75 7L5.69 4.03C5.88 3.38 6.54 3.01 7.16 3.2C7.25 3.23 7.33 3.27 7.41 3.31L10.27 4.41L11.72 2.92C11.51 2.59 11.55 2.15 11.83 1.85L12.99 0.65C13.31 0.32 13.84 0.32 14.16 0.65ZM7.96 4.74L7.25 7L7.6 7L9.43 5.31L7.96 4.74ZM7.59 1.77L7.65 1.8L8.7 1.8L8.69 1.86C8.63 2.4 8.17 2.82 7.64 2.88L7.52 2.89C7.15 2.89 6.75 2.7 6.55 2.4L6.9 2.4C7.14 2.4 7.34 2.29 7.44 2.08L7.59 1.77ZM7.46 0.37C8.1 0.37 8.65 0.9 8.8 1.5L7.64 1.5C7.5 1.5 7.39 1.52 7.33 1.65L7.18 1.92C7.13 2.03 7.03 2.1 6.9 2.1L6.13 2.1C6.1 2.1 6.09 1.89 6.09 1.76C6.09 0.97 6.7 0.37 7.46 0.37Z"/>
</svg>