<svg xmlns="http://www.w3.org/2000/svg" viewBox="0 0 15 15">
  <path fill="param(fill) #888" stroke="param(outline) #000" stroke-width="param(outline-width) 0" fill-opacity="param(fill-opacity) 1" stroke-opacity="param(outline-opacity) 1" d="M6.99 3C7.3 3 7.55 3.22 7.55 3.52C7.55 3.83 7.3 4.04 6.99 4.04L3.21 4.04L3.82 6.67L5.17 7.47C5.41 7.57 5.65 7.81 5.73 8.06L6.58 11.69C6.37 11.77 6.17 11.89 5.99 12.03L5.67 12.28C5.55 12.38 5.41 12.45 5.25 12.48C5.22 12.42 5.19 12.37 5.18 12.31L5.18 12.32L4.41 9.2L2.16 7.89L2.14 7.89C1.85 7.75 1.64 7.48 1.58 7.15L0.8 3.69C0.74 3.35 0.99 3 1.53 3L6.99 3ZM14.75 9C14.89 9.01 14.99 9.12 14.99 9.26L15 9.5C15.01 9.86 14.97 10.45 14.4 10.64L9.07 12.08L9.01 12.03C8.76 11.83 8.46 11.68 8.15 11.59L13 10C13.27 9.94 14.44 9.39 14.56 9.07C14.59 9.01 14.68 9 14.75 9ZM14.7 3.6L14.7 3.9L7.8 3.9L7.8 3.6L14.7 3.6ZM1.69 0.3C2.35 0.3 2.89 0.83 2.89 1.49C2.89 2.15 2.35 2.68 1.69 2.68C1.03 2.68 0.49 2.15 0.49 1.49C0.49 0.83 1.02 0.3 1.69 0.3ZM6.3 14.56L6.61 14.31C6.86 14.11 7.18 14 7.5 14C7.82 14 8.14 14.11 8.39 14.31L8.7 14.56C9.06 14.84 9.5 15 9.95 15L10.05 15C10.5 15 10.94 14.84 11.3 14.56L11.61 14.31C11.86 14.11 12.18 14 12.5 14C12.82 14 13.14 14.11 13.39 14.31L13.71 14.56C14.01 14.81 14.39 14.96 14.78 14.99L15 15L15 13.5L14.95 13.5C14.49 13.5 14.06 13.35 13.71 13.07L13.39 12.81C13.14 12.61 12.82 12.5 12.5 12.5C12.18 12.5 11.86 12.61 11.61 12.81L11.3 13.06C10.94 13.35 10.5 13.5 10.05 13.5L9.95 13.5C9.5 13.5 9.06 13.35 8.7 13.06L8.39 12.81C8.14 12.61 7.82 12.5 7.5 12.5C7.18 12.5 6.86 12.61 6.61 12.81L6.3 13.06C5.94 13.35 5.5 13.5 5.05 13.5L4.95 13.5C4.5 13.5 4.06 13.35 3.7 13.06L3.39 12.81C3.14 12.61 2.82 12.5 2.5 12.5C2.18 12.5 1.86 12.61 1.61 12.81L1.29 13.07C0.99 13.31 0.61 13.46 0.22 13.5L0 13.5L0 15L0.05 15C0.51 15 0.94 14.84 1.29 14.56L1.61 14.31C1.86 14.11 2.18 14 2.5 14C2.82 14 3.14 14.11 3.39 14.31L3.7 14.56C4.06 14.84 4.5 15 4.95 15L5.05 15C5.5 15 5.94 14.84 6.3 14.56Z"/>
</svg>