<svg xmlns="http://www.w3.org/2000/svg" viewBox="0 0 15 15">
  <path fill="param(fill) #888" stroke="param(outline) #000" stroke-width="param(outline-width) 0" fill-opacity="param(fill-opacity) 1" stroke-opacity="param(outline-opacity) 1" d="M4.44 3.29c0.06 -0.01 0.11 0 0.16 0c0.6 0.08 1.12 0.44 1.45 0.98c-0.57 -0.07 -0.89 0.05 -0.82 0.3c0.08 0.25 0.49 0.46 1.03 0.53c0.08 0.32 0.15 0.59 0.21 0.82h-1.25c-0.41 -0.15 -0.83 -0.31 -1.24 -0.46c-0.39 -0.21 -0.62 -0.6 -0.62 -1.05c0 -0.43 0.23 -0.82 0.62 -1.03c0.15 -0.06 0.31 -0.09 0.46 -0.09zm-0.25 2.63c0.82 0.01 1.54 0.5 1.86 1.24l2.39 -0.25c0.05 -0.11 0.18 -0.18 0.3 -0.15l0.42 -0.63c0.05 -0.06 0.15 -0.06 0.2 0c0.06 0.06 0.06 0.15 0 0.21l-0.41 0.61l0.42 -0.03l4.34 2.94l0.44 0.2c0.51 0.19 0.83 0.7 0.8 1.25h-3.54c0.3 -0.52 0.3 -1.15 0 -1.66c-0.45 -0.8 -1.47 -1.07 -2.25 -0.61c-0.8 0.46 -1.07 1.47 -0.61 2.27h-5.41c0.3 -0.52 0.3 -1.15 0 -1.66h1.01l-1.1 -3.31c0.01 -0.12 0.12 -0.21 0.24 -0.2c0.11 0.01 0.19 0.09 0.2 0.2l1.1 3.31h0.22l-1.04 -3.1c-0.01 -0.28 0.16 -0.53 0.42 -0.63zm-1.66 1.24v0.42h-0.41l0.83 1.66c-0.05 -0.05 -0.11 -0.09 -0.16 -0.12c-0.84 -0.55 -1.98 -0.31 -2.52 0.53h-0.01v-1.25h-0.21v-1.24zm6.21 0.21l-0.42 0.63c-0.06 0.05 -0.15 0.05 -0.21 0c-0.04 -0.06 -0.04 -0.15 0 -0.21l-1.85 0.41l0.26 0.62l0.82 -0.67c0.14 -0.16 0.37 -0.2 0.56 -0.1c0.51 0.21 1.02 0.42 1.53 0.65c0.17 -0.06 0.36 -0.09 0.55 -0.09c0.09 -0.12 0.09 -0.28 0 -0.41zm1.24 1.87c0.69 0 1.24 0.55 1.24 1.23c0 0.7 -0.55 1.24 -1.24 1.24c-0.68 0 -1.24 -0.54 -1.24 -1.24c0 -0.68 0.56 -1.23 1.24 -1.23zm-8.27 0c0.68 0 1.24 0.55 1.24 1.23c0 0.7 -0.56 1.24 -1.24 1.24c-0.69 0 -1.24 -0.54 -1.24 -1.24c0 -0.68 0.55 -1.23 1.24 -1.23zm6 0l-0.42 0.41h1.03v-0.21c-0.21 -0.04 -0.41 -0.11 -0.61 -0.2zm2.27 0.62c-0.35 0 -0.62 0.27 -0.62 0.61c0 0.35 0.27 0.63 0.62 0.63c0.34 0 0.62 -0.28 0.62 -0.63c0 -0.34 -0.28 -0.61 -0.62 -0.61zm-8.27 0c-0.35 0 -0.63 0.27 -0.63 0.61c0 0.35 0.28 0.63 0.63 0.63c0.34 0 0.61 -0.28 0.61 -0.63c0 -0.34 -0.27 -0.61 -0.61 -0.61z"/>
</svg>