<svg xmlns="http://www.w3.org/2000/svg" viewBox="0 0 15 15">
  <path fill="param(fill) #888" stroke="param(outline) #000" stroke-width="param(outline-width) 0" fill-opacity="param(fill-opacity) 1" stroke-opacity="param(outline-opacity) 1" d="M9.64 6C9.85 6 10.04 6.14 10.11 6.34L11 9C11.55 9 12 9.45 12 10L12 13L11 13L11 14C11 14.55 10.55 15 10 15C9.45 15 9 14.55 9 14L9 13L6 13L6 14C6 14.55 5.55 15 5 15C4.45 15 4 14.55 4 14L4 13L3 13L3 10C3 9.45 3.45 9 4 9L4.89 6.34C4.96 6.14 5.15 6 5.36 6L9.64 6ZM5 10C4.45 10 4 10.45 4 11C4 11.55 4.45 12 5 12C5.55 12 6 11.55 6 11C6 10.45 5.55 10 5 10ZM10 10C9.45 10 9 10.45 9 11C9 11.55 9.45 12 10 12C10.55 12 11 11.55 11 11C11 10.45 10.55 10 10 10ZM9.38 7L5.62 7L5 9L10 9L9.38 7ZM2 5L2 7L1 7L1 0.5C1 0.22 1.22 0 1.5 0C1.78 0 2 0.22 2 0.5L2 4L6 4L6 2C6 1.5 6.5 1 7 1L12.5 1C13.5 1 14 1.5 14 2.5L14 7L13 7L13 5L2 5ZM4 3.5C3.17 3.5 2.5 2.83 2.5 2C2.5 1.17 3.17 0.5 4 0.5C4.83 0.5 5.5 1.17 5.5 2C5.5 2.83 4.83 3.5 4 3.5Z"/>
</svg>