<svg xmlns="http://www.w3.org/2000/svg" viewBox="0 0 15 15">
  <path fill="param(fill) #888" stroke="param(outline) #000" stroke-width="param(outline-width) 0" fill-opacity="param(fill-opacity) 1" stroke-opacity="param(outline-opacity) 1" d="M1 1v13h13v-13zm1 1h2v11h-2zm3 0h5v11h-5zm6 0h2v11h-2zm-3.5 1c-0.82 0 -1.5 0.39 -2 1v3c0.46 0.61 1.2 1 2 1s1.5 -0.39 2 -1v-3c-0.46 -0.61 -1.2 -1 -2 -1zm-2 6.2v3.3h4v-3.4c-1 -0.14 -3 -0.14 -4 0.05zm6 0.96v2.3h0.98c-0.08 -1 -0.44 -1.8 -0.98 -2.3zm-8 0.15c-0.52 0.53 -0.88 1.3 -0.97 2.2h0.97z"/>
</svg>