<svg xmlns="http://www.w3.org/2000/svg" viewBox="0 0 15 15">
  <path fill="param(fill) #888" stroke="param(outline) #000" stroke-width="param(outline-width) 0" fill-opacity="param(fill-opacity) 1" stroke-opacity="param(outline-opacity) 1" d="M9.21 14.95C9.44 14.95 9.62 14.76 9.62 14.51C9.62 14.27 9.44 14.08 9.21 14.08C8.97 14.08 8.78 14.27 8.78 14.51C8.78 14.76 8.97 14.95 9.21 14.95L9.21 14.95ZM8.47 2.31C9.09 2.31 9.59 1.8 9.59 1.15C9.59 0.52 9.09 0 8.47 0C7.86 0 7.35 0.52 7.35 1.15C7.35 1.8 7.86 2.31 8.47 2.31ZM2.38 12.4C2.33 12.51 2.3 12.62 2.3 12.75C2.3 13.15 2.62 13.48 3.02 13.48C3.31 13.48 3.55 13.31 3.66 13.07L6.11 8.74L5.09 7.69L2.38 12.4L2.38 12.4ZM7.69 12.21C7.58 12.45 7.33 12.63 7.05 12.63C6.65 12.63 6.33 12.3 6.33 11.89C6.33 11.77 6.36 11.66 6.41 11.55L7.48 9.62L5.41 7.49C4.61 6.67 5.18 5.78 5.18 5.78L6.29 3.74L3.32 3.74C3 3.74 2.74 3.45 2.74 3.12C2.74 2.79 3 2.5 3.32 2.5L12.31 2.5C12.64 2.5 12.9 2.79 12.9 3.13C12.9 3.46 12.64 3.75 12.31 3.75L8.89 3.75L7.24 6.7L8.92 8.39C9.5 8.96 9.11 9.62 9.11 9.62L7.69 12.23L7.69 12.21ZM5.56 14.13C5.7 14.03 5.87 14.03 6.01 14.13C6.14 14.21 6.23 14.37 6.21 14.53C6.23 14.69 6.14 14.84 6.01 14.94C5.87 15.02 5.7 15.02 5.56 14.94C5.43 14.84 5.35 14.69 5.36 14.53C5.35 14.37 5.43 14.21 5.56 14.13ZM10.09 13.09C10.27 13.09 10.4 13.23 10.4 13.4C10.4 13.58 10.27 13.71 10.09 13.71L4.79 13.71C4.63 13.71 4.48 13.58 4.48 13.4C4.48 13.23 4.63 13.09 4.79 13.09L10.09 13.09Z"/>
</svg>