<svg xmlns="http://www.w3.org/2000/svg" viewBox="0 0 15 15">
  <path fill="param(fill) #888" stroke="param(outline) #000" stroke-width="param(outline-width) 0" fill-opacity="param(fill-opacity) 1" stroke-opacity="param(outline-opacity) 1" d="M11.59 1.12A1.28 1.28 0 0 1 12.87 2.4A1.28 1.28 0 0 1 11.59 3.69A1.28 1.28 0 0 1 10.31 2.4A1.28 1.28 0 0 1 11.59 1.12ZM9.61 3.19C9.98 3.19 10.35 3.25 10.7 3.71L11.88 5.18L14.25 4.75C15.08 4.61 15.18 5.71 14.51 5.83L11.35 6.33L10.54 5.43L9.26 7.21L14.29 7.71C15.16 7.82 15.01 9.11 14.14 9.01L6.74 8.53L4.88 10.11C4.74 10.23 4.52 10.29 4.27 10.24L0.63 9.44C-0.33 9.26 -0.01 7.96 0.92 8.15L3.98 8.73L7.83 4.7C7.95 4.57 7.86 4.45 7.75 4.46L4.3 5C3.33 5.11 3.32 4.01 4.19 3.92L9.12 3.25C9.24 3.23 9.36 3.23 9.49 3.21ZM9.38 9.51C9.75 9.51 10.04 9.78 10.04 10.13V13.88H8.76V10.13C8.76 9.78 9.04 9.51 9.41 9.51Z"/>
</svg>