<svg xmlns="http://www.w3.org/2000/svg" viewBox="0 0 15 15">
  <path fill="param(fill) #888" stroke="param(outline) #000" stroke-width="param(outline-width) 0" fill-opacity="param(fill-opacity) 1" stroke-opacity="param(outline-opacity) 1" d="M7.34 10.51C7.39 10.51 7.45 10.5 7.5 10.5L7.58 10.51L7.69 10.52L7.85 10.55L7.9 10.56L8 10.59L8.11 10.64L8.14 10.66C8.23 10.7 8.31 10.75 8.39 10.81L8.7 11.06C9.06 11.35 9.5 11.5 9.95 11.5L10.05 11.5C10.5 11.5 10.94 11.35 11.3 11.06L11.61 10.81C11.86 10.61 12.18 10.5 12.5 10.5C12.82 10.5 13.14 10.61 13.39 10.81L13.71 11.07C14.01 11.31 14.39 11.46 14.78 11.5L15 11.5L15 13L14.95 13C14.49 13 14.06 12.84 13.71 12.56L13.39 12.31C13.14 12.11 12.82 12 12.5 12C12.18 12 11.86 12.11 11.61 12.31L11.3 12.56C10.94 12.84 10.5 13 10.05 13L9.95 13C9.5 13 9.06 12.84 8.7 12.56L8.39 12.31C8.14 12.11 7.82 12 7.5 12C7.18 12 6.86 12.11 6.61 12.31L6.3 12.56C5.94 12.84 5.5 13 5.05 13L4.95 13C4.5 13 4.06 12.84 3.7 12.56L3.39 12.31C3.14 12.11 2.82 12 2.5 12C2.18 12 1.86 12.11 1.61 12.31L1.29 12.56C0.99 12.81 0.61 12.96 0.22 12.99L0 13L0 11.5L0.05 11.5C0.51 11.5 0.94 11.35 1.29 11.07L1.61 10.81C1.86 10.61 2.18 10.5 2.5 10.5C2.82 10.5 3.14 10.61 3.39 10.81L3.7 11.06C4.06 11.35 4.5 11.5 4.95 11.5L5.05 11.5C5.5 11.5 5.94 11.35 6.3 11.06L6.61 10.81C6.67 10.77 6.74 10.72 6.8 10.68L6.93 10.62L7.02 10.59L7.13 10.55C7.15 10.55 7.17 10.54 7.19 10.54L7.34 10.51ZM2.04 7.61L2.16 7.64C2.23 7.65 2.33 7.67 2.45 7.69L2.79 7.74C3.94 7.9 6.41 8.09 10.47 7.78L11.25 7.71L11.35 7.71C11.63 7.74 12.34 7.89 12.43 8.89L12.36 9.32L12.33 9.51L12.3 9.51C11.82 9.55 11.36 9.73 10.98 10.03L10.67 10.28C10.5 10.42 10.28 10.5 10.05 10.5L9.95 10.5C9.72 10.5 9.5 10.42 9.33 10.28L9.01 10.03C8.58 9.69 8.05 9.5 7.5 9.5C6.95 9.5 6.42 9.69 5.99 10.03L5.67 10.28C5.5 10.42 5.28 10.5 5.05 10.5L4.95 10.5C4.72 10.5 4.5 10.42 4.33 10.28L4.01 10.03C3.58 9.69 3.05 9.5 2.5 9.5C2.09 9.5 1.7 9.6 1.35 9.8C1.19 9.46 1.09 9.09 1.07 8.94L1.07 8.89C1.07 8.79 1.07 7.93 2.04 7.61ZM10.39 5.79L14.04 6.75L14.25 6.86C14.38 6.94 14.5 7.03 14.57 7.18C14.68 7.29 14.68 7.5 14.57 7.71C14.46 8.14 14.04 8.36 13.61 8.25L12.21 7.93C11.86 7.31 11.29 7.28 11.1 7.29L10.51 7.32C9.12 7.39 7.91 7.4 6.86 7.5L9.75 5.89C9.98 5.82 10.1 5.8 10.23 5.79L10.39 5.79ZM3.28 5.1L3.37 5.18L5.46 7.5C3.64 7.5 2.68 7.29 2.25 7.29L1.99 6.96C1.82 6.74 1.71 6.61 1.71 6.54C1.39 6.11 1.29 5.57 1.82 5.04C2.45 4.49 3.02 4.86 3.28 5.1ZM1.61 1.07C2.46 1.07 3.21 1.82 3.21 2.68C3.21 3.54 2.46 4.29 1.61 4.29C0.75 4.29 0 3.54 0 2.68C0 1.82 0.75 1.07 1.61 1.07Z"/>
</svg>