<?xml version="1.0" encoding="UTF-8"?>
<svg viewBox="0 0 15 15" version="1.1" xmlns="http://www.w3.org/2000/svg" xmlns:xlink="http://www.w3.org/1999/xlink">
  <path fill="param(fill) #888" stroke="param(outline) #000" stroke-width="param(outline-width) 0" fill-opacity="param(fill-opacity) 1" stroke-opacity="param(outline-opacity) 1" d="M3.89 2.52L0.89 5.32C0.75 5.39 0.68 5.52 0.68 5.66L0.68 13.98C0.68 14.52 1.16 15 1.7 15C2.25 15 2.73 14.52 2.73 13.98L2.73 7.16L5.59 4.57L6.61 5.59C6.75 5.73 6.89 5.8 7.09 5.8C7.3 5.8 7.43 5.73 7.57 5.59L9.34 3.82C9.61 3.55 9.55 3.14 9.34 2.93C9.07 2.73 8.66 2.73 8.45 3L7.09 4.36L5.18 2.52C4.84 2.18 4.23 2.18 3.89 2.52ZM10.84 2.66C10.7 2.66 10.57 2.73 10.57 2.86L10.23 5.45L10.23 13.64L7.5 13.64L7.5 15L11.59 15L11.59 5.45L11.11 2.86C11.11 2.73 10.98 2.66 10.84 2.66ZM8.18 0.68L8.18 1.36L8.86 1.36L8.86 2.05L14.32 2.73L14.32 0.68L8.18 0.68ZM6.14 0.07C5.45 0.07 4.84 0.61 4.84 1.36C4.84 2.11 5.45 2.66 6.14 2.66C6.82 2.66 7.43 2.11 7.43 1.36C7.43 0.61 6.82 0.07 6.14 0.07Z"/>
</svg>