<svg xmlns="http://www.w3.org/2000/svg" viewBox="0 0 15 15">
  <path fill="param(fill) #888" stroke="param(outline) #000" stroke-width="param(outline-width) 0" fill-opacity="param(fill-opacity) 1" stroke-opacity="param(outline-opacity) 1" d="M12.5 12.5C12.82 12.5 13.14 12.61 13.39 12.81L13.71 13.07C14.01 13.31 14.39 13.46 14.78 13.5L15 13.5L15 15L14.95 15C14.49 15 14.06 14.84 13.71 14.56L13.39 14.31C13.14 14.11 12.82 14 12.5 14C12.18 14 11.86 14.11 11.61 14.31L11.3 14.56C10.94 14.84 10.5 15 10.05 15L9.95 15C9.5 15 9.06 14.84 8.7 14.56L8.39 14.31C8.14 14.11 7.82 14 7.5 14C7.18 14 6.86 14.11 6.61 14.31L6.3 14.56C5.94 14.84 5.5 15 5.05 15L4.95 15C4.5 15 4.06 14.84 3.7 14.56L3.39 14.31C3.14 14.11 2.82 14 2.5 14C2.18 14 1.86 14.11 1.61 14.31L1.29 14.56C0.99 14.81 0.61 14.96 0.22 14.99L0 15L0 13.5L0.05 13.5C0.51 13.5 0.94 13.35 1.29 13.07L1.61 12.81C1.86 12.61 2.18 12.5 2.5 12.5C2.82 12.5 3.14 12.61 3.39 12.81L3.7 13.06C4.01 13.31 4.39 13.46 4.78 13.49L4.95 13.5L5.05 13.5C5.5 13.5 5.94 13.35 6.3 13.06L6.61 12.81C6.86 12.61 7.18 12.5 7.5 12.5L7.58 12.51L7.67 12.51L7.74 12.52L7.84 12.54L7.89 12.56L7.99 12.59L8.11 12.64L8.16 12.67C8.24 12.71 8.32 12.76 8.39 12.81L8.7 13.06C9.06 13.35 9.5 13.5 9.95 13.5L10.05 13.5C10.5 13.5 10.94 13.35 11.3 13.06L11.61 12.81C11.86 12.61 12.18 12.5 12.5 12.5ZM0 8.75L2.18 8.93L4.5 9.82L5.73 10.7L8 10.25L11.23 11.86C11.14 11.91 11.06 11.97 10.98 12.03L10.67 12.28C10.5 12.42 10.28 12.5 10.05 12.5L9.95 12.5C9.72 12.5 9.5 12.42 9.33 12.28L9.01 12.03C8.58 11.69 8.05 11.5 7.5 11.5C6.95 11.5 6.42 11.69 5.99 12.03L5.67 12.28C5.5 12.42 5.28 12.5 5.05 12.5L4.95 12.5C4.72 12.5 4.5 12.42 4.33 12.28L4.01 12.03C3.58 11.69 3.05 11.5 2.5 11.5C1.95 11.5 1.42 11.69 0.99 12.03L0.67 12.28C0.49 12.43 0.28 12.5 0.05 12.5L0 12.5L0 8.75ZM5.86 7.3L14.73 11.52C14.48 11.77 14.16 11.91 13.81 11.89C13.53 11.7 13.21 11.58 12.87 11.53L6.48 8.45C6 8.25 5.8 7.77 5.86 7.3ZM7.5 6.48L10.77 8.05C10.7 7.98 10.7 7.91 10.7 7.84C10.7 7.64 10.91 7.43 11.11 7.43C11.32 7.43 11.52 7.57 11.52 7.84C11.52 8.05 11.39 8.18 11.18 8.25L14.39 9.82C14.93 10.02 15.14 10.64 15 11.18L6.07 6.95C6.34 6.41 6.95 6.2 7.5 6.48ZM4.98 2.45C5.05 2.52 5.11 2.52 5.11 2.59L7.5 5.18C7.64 5.39 7.64 5.66 7.43 5.8C7.3 6 6.95 6 6.82 5.8L5.05 3.89L3.41 4.91L4.84 5.93C4.98 6.07 5.05 6.2 5.05 6.41L4.98 8.86C4.91 9.14 4.7 9.41 4.36 9.41C4.09 9.41 3.82 9.2 3.82 8.86L3.88 7.15C3.89 6.95 3.89 6.79 3.89 6.68C3.75 6.55 3.41 6.34 3.07 6.07L3.07 6.48C3.07 6.55 3 6.55 3 6.61C2.93 6.61 2.93 6.68 2.93 6.68L1.57 8.39C1.36 8.59 1.02 8.66 0.75 8.45C0.55 8.25 0.48 7.91 0.68 7.64L1.84 6.2L1.3 5.11L1.3 5.05C1.3 4.98 1.23 4.91 1.23 4.84L1.23 4.5C1.23 4.16 1.36 3.89 1.64 3.75L3.82 2.39C4.23 2.11 4.64 2.18 4.98 2.45ZM11.05 7.64C10.91 7.64 10.84 7.7 10.84 7.84C10.84 7.98 10.98 8.05 11.05 8.05C11.18 8.05 11.25 7.98 11.25 7.84C11.25 7.7 11.18 7.64 11.05 7.64ZM6.48 1.36C6.55 1.81 6.2 2.25 5.76 2.31L5.66 2.32C5.11 2.39 4.7 2.05 4.64 1.5C4.58 1.05 4.92 0.62 5.35 0.56L5.45 0.55C6 0.48 6.41 0.82 6.48 1.36Z"/>
</svg>