<?xml version="1.0" encoding="UTF-8"?>
<svg viewBox="0 0 15 15" version="1.1" xmlns="http://www.w3.org/2000/svg" xmlns:xlink="http://www.w3.org/1999/xlink">
  <path fill="param(fill) #888" stroke="param(outline) #000" stroke-width="param(outline-width) 0" fill-opacity="param(fill-opacity) 1" stroke-opacity="param(outline-opacity) 1" d="M13.65 0.07C17.94 2.86 10.2 3.32 14.96 6.62L14.02 6.61C9.55 3.08 17.33 2.82 12.62 0.05L13.65 0.07ZM10.4 0.08C14.69 2.86 6.95 3.32 11.71 6.62L10.77 6.61C6.3 3.08 14.08 2.83 9.37 0.05L10.4 0.08ZM4.18 3.87C3.36 3.87 2.69 3.21 2.69 2.38C2.69 1.56 3.36 0.89 4.18 0.89C5.01 0.89 5.67 1.56 5.67 2.38C5.67 3.21 5.01 3.87 4.18 3.87ZM2.25 4.82L0.16 10.63L0.14 10.71L0.12 10.89C0.12 11.23 0.36 11.51 0.68 11.57L0.79 11.58L4.63 11.57L7.26 14.76C7.52 15.07 7.96 15.09 8.25 14.81C8.55 14.52 8.57 14.03 8.31 13.72L5.71 10.58C5.6 10.35 5.37 10.19 5.09 10.19L1.83 10.2L3.22 6.32L4.02 7.9L4.1 8.03C4.16 8.13 4.25 8.21 4.37 8.25L7.2 9.22C7.47 9.31 7.77 9.17 7.86 8.9C7.95 8.63 7.81 8.33 7.54 8.24L4.88 7.33L3.59 4.8L3.57 4.75L3.54 4.71C3.46 4.57 3.33 4.45 3.16 4.39C2.79 4.26 2.38 4.45 2.25 4.82ZM0.12 12.96L0.12 13.75L3.77 13.75L3.77 12.96L0.12 12.96ZM14.23 10.82L10.62 10.82L11.1 15L13.82 15L14.23 10.82Z"/>
</svg>