<svg xmlns="http://www.w3.org/2000/svg" viewBox="0 0 15 15">
  <path fill="param(fill) #888" stroke="param(outline) #000" stroke-width="param(outline-width) 0" fill-opacity="param(fill-opacity) 1" stroke-opacity="param(outline-opacity) 1" d="M12.5 11.5C12.82 11.5 13.14 11.61 13.39 11.81L13.71 12.07C14.01 12.31 14.39 12.46 14.78 12.5L15 12.5L15 14L14.95 14C14.49 14 14.06 13.84 13.71 13.56L13.39 13.31C13.14 13.11 12.82 13 12.5 13C12.18 13 11.86 13.11 11.61 13.31L11.3 13.56C10.94 13.84 10.5 14 10.05 14L9.95 14C9.5 14 9.06 13.84 8.7 13.56L8.39 13.31C8.14 13.11 7.82 13 7.5 13C7.18 13 6.86 13.11 6.61 13.31L6.3 13.56C5.94 13.84 5.5 14 5.05 14L4.95 14C4.5 14 4.06 13.84 3.7 13.56L3.39 13.31C3.14 13.11 2.82 13 2.5 13C2.18 13 1.86 13.11 1.61 13.31L1.29 13.56C0.94 13.84 0.51 14 0.05 14L0 14L0 12.5L0.05 12.5C0.51 12.5 0.94 12.35 1.29 12.07L1.61 11.81C1.86 11.61 2.18 11.5 2.5 11.5L2.66 11.51C2.93 11.54 3.18 11.65 3.39 11.81L3.7 12.06C4.06 12.35 4.5 12.5 4.95 12.5L5.05 12.5C5.5 12.5 5.94 12.35 6.3 12.06L6.61 11.81C6.86 11.61 7.18 11.5 7.5 11.5C7.82 11.5 8.14 11.61 8.39 11.81L8.7 12.06C9.01 12.31 9.39 12.46 9.78 12.49L9.95 12.5L10.05 12.5C10.5 12.5 10.94 12.35 11.3 12.06L11.61 11.81C11.86 11.61 12.18 11.5 12.5 11.5ZM5.7 4.91L5.85 6.16L7.5 5.96C7.71 5.93 7.93 6.04 8.04 6.25C8.18 6.53 8.08 6.86 7.81 7.01C7.74 7.05 7.67 7.07 7.6 7.07L5.98 7.27L6.06 7.99L8.03 8.49L8.76 6.75L8.74 6.74L7.82 5.57C7.73 5.42 7.8 5.23 7.8 5.1C8.1 4.93 8.27 4.92 8.43 5.07L8.51 5.09L9.71 6.68L14.3 9.05L14.51 9.15L14.53 9.16L14.54 9.16C14.78 9.29 14.75 9.57 14.56 9.74C14.28 10 13.65 10.28 12.92 10.54C12.78 10.51 12.64 10.5 12.5 10.5C11.95 10.5 11.42 10.69 10.98 11.03L10.67 11.28C10.5 11.42 10.28 11.5 10.05 11.5L9.95 11.5C9.72 11.5 9.5 11.42 9.33 11.28L9.01 11.03C8.58 10.69 8.05 10.5 7.5 10.5C6.95 10.5 6.42 10.69 5.99 11.03L5.67 11.28C5.5 11.42 5.28 11.5 5.05 11.5L4.95 11.5C4.72 11.5 4.5 11.42 4.33 11.28L4.01 11.03C3.58 10.69 3.05 10.5 2.5 10.5C1.95 10.5 1.42 10.69 0.99 11.03L1.68 9.27L4.27 8.96C3.98 8.77 3.77 8.45 3.73 8.08L3.38 5.2C3.31 4.55 3.77 3.95 4.4 3.87C5.04 3.8 5.62 4.26 5.7 4.91ZM5.96 2.25C6.04 2.9 5.58 3.49 4.94 3.57C4.3 3.65 3.73 3.18 3.65 2.53C3.57 1.88 4.03 1.29 4.67 1.21C5.3 1.13 5.89 1.6 5.96 2.25Z"/>
</svg>