<?xml version="1.0" encoding="UTF-8"?>
<svg viewBox="0 0 15 15" version="1.1" xmlns="http://www.w3.org/2000/svg" xmlns:xlink="http://www.w3.org/1999/xlink">
  <path fill="param(fill) #888" stroke="param(outline) #000" stroke-width="param(outline-width) 0" fill-opacity="param(fill-opacity) 1" stroke-opacity="param(outline-opacity) 1" d="M1.55 4.88C0.98 4.88 0.5 5.36 0.5 5.93C0.5 6.5 0.98 6.98 1.55 6.98L6.1 6.98L6.1 9.25L5.27 11.73L3.66 12.27C3.16 12.43 2.87 12.95 2.96 13.45L3.01 13.59C3.17 14.09 3.69 14.39 4.2 14.29L4.34 14.25L6.44 13.55C6.7 13.47 6.93 13.27 7.04 13.02L7.09 12.89L7.71 11.04L9.25 11.8L9.25 13.95C9.25 14.48 9.64 14.92 10.16 14.99L10.3 15C10.83 15 11.27 14.61 11.34 14.09L11.35 13.95L11.35 11.16C11.35 10.81 11.18 10.49 10.9 10.3L10.78 10.23L8.9 9.29L8.9 6.98L13.45 6.98C14.02 6.98 14.5 6.5 14.5 5.93C14.5 5.36 14.02 4.88 13.45 4.88L1.55 4.88ZM7.5 0C6.34 0 5.4 0.93 5.4 2.09C5.4 3.25 6.34 4.19 7.5 4.19C8.66 4.19 9.6 3.25 9.6 2.09C9.6 0.93 8.66 0 7.5 0Z"/>
</svg>