<svg xmlns="http://www.w3.org/2000/svg" viewBox="0 0 15 15">
  <path fill="param(fill) #888" stroke="param(outline) #000" stroke-width="param(outline-width) 0" fill-opacity="param(fill-opacity) 1" stroke-opacity="param(outline-opacity) 1" d="M7.88 1.88C7.88 2.91 7.04 3.75 6 3.75C4.96 3.75 4.13 2.91 4.13 1.88C4.13 0.84 4.96 0 6 0C7.04 0 7.88 0.84 7.88 1.88ZM3.75 14.25L3.75 12.75L5.25 12.94L5.25 14.25C5.25 14.66 4.91 15 4.5 15C4.09 15 3.75 14.66 3.75 14.25ZM6.75 12.94L6.75 14.25C6.75 14.66 7.09 15 7.5 15C7.91 15 8.25 14.66 8.25 14.25L8.25 12.75L6.75 12.94ZM10.65 7.86C10.24 7.94 9.85 7.68 9.76 7.27C9.64 6.63 9.29 6.35 8.84 6.19C8.51 6.07 8.14 6.03 7.77 6.01L9.75 11.63C9.75 11.63 7.64 12 6 12C4.36 12 2.25 11.63 2.25 11.63L3 9.5C2.11 9.08 1.5 8.17 1.5 7.13C1.5 5.68 2.68 4.5 4.13 4.5L7.11 4.5L7.13 4.5L7.16 4.5L7.16 4.5C7.21 4.5 7.26 4.5 7.32 4.5L7.5 4.5L7.5 4.5C8.03 4.51 8.71 4.55 9.35 4.78C10.21 5.09 10.99 5.74 11.24 6.98C11.32 7.38 11.05 7.78 10.65 7.86ZM4.24 6L4.13 6C3.5 6 3 6.5 3 7.13C3 7.52 3.2 7.86 3.51 8.07L4.24 6ZM11.25 9.3C11.25 9.13 11.32 9.03 11.41 8.95C11.52 8.86 11.67 8.81 11.81 8.81C11.95 8.81 12.11 8.86 12.21 8.95C12.31 9.03 12.38 9.13 12.38 9.3L12.38 14.25C12.38 14.56 12.63 14.81 12.94 14.81C13.25 14.81 13.5 14.56 13.5 14.25L13.5 9.3C13.5 8.77 13.26 8.35 12.92 8.07C12.6 7.81 12.19 7.69 11.81 7.69C11.44 7.69 11.03 7.81 10.7 8.07C10.36 8.35 10.13 8.77 10.13 9.3C10.13 9.61 10.38 9.86 10.69 9.86C11 9.86 11.25 9.61 11.25 9.3Z"/>
</svg>