<svg xmlns="http://www.w3.org/2000/svg" viewBox="0 0 15 15">
  <path fill="param(fill) #888" stroke="param(outline) #000" stroke-width="param(outline-width) 0" fill-opacity="param(fill-opacity) 1" stroke-opacity="param(outline-opacity) 1" d="M12.5 12.5C12.82 12.5 13.14 12.61 13.39 12.81L13.71 13.07C14.01 13.31 14.39 13.46 14.78 13.5L15 13.5L15 15L14.95 15C14.49 15 14.06 14.84 13.71 14.56L13.39 14.31C13.14 14.11 12.82 14 12.5 14C12.18 14 11.86 14.11 11.61 14.31L11.3 14.56C10.94 14.84 10.5 15 10.05 15L9.95 15C9.5 15 9.06 14.84 8.7 14.56L8.39 14.31C8.14 14.11 7.82 14 7.5 14C7.18 14 6.86 14.11 6.61 14.31L6.3 14.56C5.94 14.84 5.5 15 5.05 15L4.95 15C4.5 15 4.06 14.84 3.7 14.56L3.39 14.31C3.14 14.11 2.82 14 2.5 14C2.18 14 1.86 14.11 1.61 14.31L1.29 14.56C0.99 14.81 0.61 14.96 0.22 14.99L0 15L0 13.5L0.05 13.5C0.51 13.5 0.94 13.35 1.29 13.07L1.61 12.81C1.86 12.61 2.18 12.5 2.5 12.5C2.82 12.5 3.14 12.61 3.39 12.81L3.7 13.06C3.92 13.24 4.17 13.36 4.44 13.43L4.53 13.46L4.66 13.48L4.61 13.47C4.72 13.49 4.83 13.5 4.95 13.5L5.05 13.5C5.22 13.5 5.38 13.48 5.54 13.44C5.81 13.37 6.07 13.24 6.3 13.06L6.61 12.81C6.86 12.61 7.18 12.5 7.5 12.5C7.82 12.5 8.14 12.61 8.39 12.81L8.7 13.06C8.96 13.27 9.27 13.41 9.6 13.47L9.79 13.49L9.95 13.5L10.05 13.5L10.29 13.49L10.47 13.46L10.59 13.43L10.66 13.4L10.82 13.34C10.99 13.27 11.15 13.18 11.3 13.06L11.61 12.81C11.86 12.61 12.18 12.5 12.5 12.5ZM8.39 9.81L8.7 10.06L8.88 10.19L9 10.26L9.07 10.29L9.23 10.37L9.33 10.4L9.51 10.45L9.57 10.46C9.7 10.49 9.82 10.5 9.95 10.5L10.05 10.5C10.5 10.5 10.94 10.35 11.3 10.06L11.61 9.81C11.86 9.61 12.18 9.5 12.5 9.5C12.82 9.5 13.14 9.61 13.39 9.81L13.71 10.07C14.01 10.31 14.39 10.46 14.78 10.5L15 10.5L15 12L14.95 12C14.49 12 14.06 11.84 13.71 11.56L13.39 11.31C13.14 11.11 12.82 11 12.5 11C12.18 11 11.86 11.11 11.61 11.31L11.3 11.56C11.09 11.73 10.85 11.85 10.6 11.92L10.41 11.96L10.32 11.98L10.17 11.99L9.95 12C9.55 12 9.17 11.88 8.84 11.66L8.7 11.56L8.39 11.31C8.14 11.11 7.82 11 7.5 11C7.18 11 6.86 11.11 6.61 11.31L6.29 11.57C6.05 11.76 5.77 11.89 5.47 11.95C5.33 11.98 5.19 12 5.05 12L4.95 12C4.88 12 4.82 11.99 4.75 11.99C4.37 11.95 4.01 11.8 3.7 11.56L3.39 11.31C3.14 11.11 2.82 11 2.5 11C2.18 11 1.86 11.11 1.61 11.31L1.29 11.56C0.99 11.81 0.61 11.96 0.22 11.99L0 12L0 10.5L0.05 10.5C0.51 10.5 0.94 10.35 1.29 10.07L1.61 9.81C1.86 9.61 2.18 9.5 2.5 9.5C2.82 9.5 3.14 9.61 3.39 9.81L3.7 10.06C4.06 10.35 4.5 10.5 4.95 10.5L5.05 10.5C5.2 10.5 5.36 10.48 5.5 10.45L5.61 10.42L5.68 10.4L5.77 10.37L5.93 10.29L6.11 10.2C6.17 10.16 6.24 10.11 6.3 10.06L6.61 9.81C6.8 9.66 7.04 9.56 7.28 9.52L7.32 9.51C7.38 9.51 7.44 9.5 7.5 9.5L7.35 9.51L7.39 9.51C7.43 9.5 7.46 9.5 7.5 9.5C7.82 9.5 8.14 9.61 8.39 9.81ZM7.19 4L12.5 7.79L12.5 8.5C12.26 8.5 12.02 8.54 11.79 8.61L8.75 6.41L8.75 8.67L8.9 8.95C8.49 8.66 8 8.5 7.5 8.5C7.21 8.5 6.93 8.55 6.66 8.65L6.25 8.08L6.25 5.37L4.69 6.63L3.44 8.67L3.38 8.67C3.1 8.56 2.8 8.5 2.5 8.5L2.5 8.08L3.44 6.33L6.25 4L7.19 4ZM7.81 0.5C8.68 0.5 9.38 1.15 9.38 1.96C9.38 2.76 8.68 3.42 7.81 3.42C6.95 3.42 6.25 2.76 6.25 1.96C6.25 1.15 6.95 0.5 7.81 0.5Z"/>
</svg>