<svg xmlns="http://www.w3.org/2000/svg" viewBox="0 0 15 15">
  <path fill="param(fill) #888" stroke="param(outline) #000" stroke-width="param(outline-width) 0" fill-opacity="param(fill-opacity) 1" stroke-opacity="param(outline-opacity) 1" d="M12.5 8.5C12.82 8.5 13.14 8.61 13.39 8.81L13.71 9.07C14.01 9.31 14.39 9.46 14.78 9.5L15 9.5L15 11L14.95 11C14.49 11 14.06 10.84 13.71 10.56L13.39 10.31C13.14 10.11 12.82 10 12.5 10C12.18 10 11.86 10.11 11.61 10.31L11.3 10.56C10.94 10.84 10.5 11 10.05 11L9.95 11C9.5 11 9.06 10.84 8.7 10.56L8.39 10.31C8.14 10.11 7.82 10 7.5 10C7.18 10 6.86 10.11 6.61 10.31L6.3 10.56C5.94 10.84 5.5 11 5.05 11L4.95 11C4.5 11 4.06 10.84 3.7 10.56L3.39 10.31C3.14 10.11 2.82 10 2.5 10C2.18 10 1.86 10.11 1.61 10.31L1.29 10.56C0.99 10.81 0.61 10.96 0.22 10.99L0 11L0 9.5L0.05 9.5C0.51 9.5 0.94 9.35 1.29 9.07L1.61 8.81C1.86 8.61 2.18 8.5 2.5 8.5C2.82 8.5 3.14 8.61 3.39 8.81L3.7 9.06C4.06 9.35 4.5 9.5 4.95 9.5L5.05 9.5C5.5 9.5 5.94 9.35 6.3 9.06L6.61 8.81C6.86 8.61 7.18 8.5 7.5 8.5C7.82 8.5 8.14 8.61 8.39 8.81L8.7 9.06C9.06 9.35 9.5 9.5 9.95 9.5L10.05 9.5C10.5 9.5 10.94 9.35 11.3 9.06L11.61 8.81C11.86 8.61 12.18 8.5 12.5 8.5ZM12.5 11.5C12.82 11.5 13.14 11.61 13.39 11.81L13.71 12.07C14.01 12.31 14.39 12.46 14.78 12.5L15 12.5L15 14L14.95 14C14.49 14 14.06 13.84 13.71 13.56L13.39 13.31C13.14 13.11 12.82 13 12.5 13C12.18 13 11.86 13.11 11.61 13.31L11.3 13.56C10.94 13.84 10.5 14 10.05 14L9.95 14C9.5 14 9.06 13.84 8.7 13.56L8.39 13.31C8.14 13.11 7.82 13 7.5 13C7.18 13 6.86 13.11 6.61 13.31L6.3 13.56C5.94 13.84 5.5 14 5.05 14L4.95 14C4.5 14 4.06 13.84 3.7 13.56L3.39 13.31C3.14 13.11 2.82 13 2.5 13C2.18 13 1.86 13.11 1.61 13.31L1.29 13.56C0.99 13.81 0.61 13.96 0.22 13.99L0 14L0 12.5L0.05 12.5C0.51 12.5 0.94 12.35 1.29 12.07L1.61 11.81C1.86 11.61 2.18 11.5 2.5 11.5C2.82 11.5 3.14 11.61 3.39 11.81L3.7 12.06C4.06 12.35 4.5 12.5 4.95 12.5L5.05 12.5C5.5 12.5 5.94 12.35 6.3 12.06L6.61 11.81C6.86 11.61 7.18 11.5 7.5 11.5C7.82 11.5 8.14 11.61 8.39 11.81L8.7 12.06C9.06 12.35 9.5 12.5 9.95 12.5L10.05 12.5C10.5 12.5 10.94 12.35 11.3 12.06L11.61 11.81C11.86 11.61 12.18 11.5 12.5 11.5ZM10.11 1C10.64 1 11 1.29 11 1.5L11.01 1.71C11.01 1.93 10.98 2.2 10.67 2.4L8 4L11.05 7.98L10.67 8.28C10.5 8.42 10.28 8.5 10.05 8.5L9.95 8.5C9.72 8.5 9.5 8.42 9.33 8.28L9.01 8.03C8.58 7.69 8.05 7.5 7.5 7.5C6.95 7.5 6.42 7.69 5.99 8.03L5.67 8.28C5.5 8.42 5.28 8.5 5.05 8.5L4.95 8.5C4.72 8.5 4.5 8.42 4.33 8.28L4.01 8.03C3.7 7.78 3.33 7.61 2.94 7.54L3 7.5L6.97 5.47L6 4.06C5.74 3.71 5.91 3 6.35 2.83L9.68 1.15C9.68 1.15 10 1 10.11 1ZM12.25 4C13.22 4 14 4.78 14 5.75C14 6.72 13.22 7.5 12.25 7.5C11.28 7.5 10.5 6.72 10.5 5.75C10.5 4.78 11.28 4 12.25 4Z"/>
</svg>