<svg xmlns="http://www.w3.org/2000/svg" viewBox="0 0 15 15">
  <path fill="param(fill) #888" stroke="param(outline) #000" stroke-width="param(outline-width) 0" fill-opacity="param(fill-opacity) 1" stroke-opacity="param(outline-opacity) 1" d="M7.55 0C6.89 0 6.35 0.53 6.35 1.2C6.34 1.85 6.88 2.39 7.55 2.39C8.21 2.39 8.74 1.85 8.74 1.2C8.74 0.54 8.21 0 7.55 0ZM8.94 7.17V4.58L9.74 7.17L9.91 7.72C9.93 7.77 10.1 8.28 10.52 8.19C10.79 8.13 10.85 7.89 10.86 7.72L10.74 7.17L9.55 3.19C9.44 2.77 9.26 2.56 8.75 2.56H6.26C5.75 2.56 5.57 2.77 5.46 3.19L4.27 7.17L4.14 7.72C4.15 7.89 4.21 8.13 4.49 8.19C4.91 8.28 5.09 7.77 5.1 7.72L5.27 7.17L6.06 4.58V7.77L5.26 14.35C5.26 14.35 5.19 14.91 5.77 14.99C6.35 15.07 6.47 14.46 6.47 14.46L7.37 8.79C7.4 8.67 7.41 8.63 7.51 8.63C7.62 8.63 7.62 8.67 7.66 8.79L8.54 14.46C8.54 14.46 8.66 15.07 9.24 14.99C9.83 14.91 9.76 14.35 9.76 14.35L8.96 7.77Z"/>
</svg>