<svg xmlns="http://www.w3.org/2000/svg" viewBox="0 0 15 15">
  <path fill="param(fill) #888" stroke="param(outline) #000" stroke-width="param(outline-width) 0" fill-opacity="param(fill-opacity) 1" stroke-opacity="param(outline-opacity) 1" d="M10.7 0.14C10.84 0.07 11.05 0 11.18 0.07C11.52 0.2 11.66 0.48 11.59 0.82C11.59 0.95 11.45 1.09 11.32 1.16L8.45 2.8L8.93 5.66L10.91 4.36C11.05 4.23 11.32 4.23 11.52 4.3L11.59 4.3L14.59 5.66C14.93 5.86 15.14 6.2 15 6.61C14.86 7.02 14.45 7.23 14.05 7.09L13.98 7.09L11.32 5.93L9.14 7.23L10.43 7.64C10.64 7.77 10.77 7.98 10.84 8.18L11.11 10.55C10.72 11.32 10.36 11.75 10.05 11.92C9.89 11.8 9.8 11.59 9.75 11.39L9.41 9L7.3 8.39C6.95 8.18 6.68 7.84 6.61 7.5L6.14 4.84L5.18 6.07C5.11 6.14 5.05 6.2 4.98 6.2L2.59 5.93C2.45 6 2.32 6 2.18 5.93C1.84 5.8 1.7 5.45 1.84 5.11C1.91 4.98 2.05 4.84 2.18 4.84L4.57 5.11L6.27 2.8C6.34 2.66 6.48 2.59 6.61 2.52ZM4.23 1.16C4.43 0.48 5.18 0.14 5.8 0.34C6.48 0.55 6.82 1.23 6.61 1.91C6.41 2.52 5.73 2.93 5.05 2.73C4.36 2.52 4.02 1.84 4.23 1.16ZM12 11C12.67 12.33 13.42 13 14.25 13C14.51 13 14.76 12.94 15 12.81L15 14.86C14.76 14.95 14.51 15 14.25 15C13.42 15 12.67 14.5 12 13.5C11.33 14.5 10.58 15 9.75 15C9.29 15 8.86 14.85 8.46 14.55L8.18 12.1C8.67 12.7 9.19 13 9.75 13C10.58 13 11.33 12.33 12 11ZM0 15L0 6L7 10.5L7.5 15L0 15Z"/>
</svg>