<svg xmlns="http://www.w3.org/2000/svg" viewBox="0 0 15 15">
  <path fill="param(fill) #888" stroke="param(outline) #000" stroke-width="param(outline-width) 0" fill-opacity="param(fill-opacity) 1" stroke-opacity="param(outline-opacity) 1" d="M12.5 9.5C12.82 9.5 13.14 9.61 13.39 9.81L13.71 10.07C14.01 10.31 14.39 10.46 14.78 10.5L15 10.5L15 12L14.95 12C14.49 12 14.06 11.84 13.71 11.56L13.39 11.31C13.14 11.11 12.82 11 12.5 11C12.18 11 11.86 11.11 11.61 11.31L11.3 11.56C10.94 11.84 10.5 12 10.05 12L9.95 12C9.5 12 9.06 11.84 8.7 11.56L8.39 11.31C8.14 11.11 7.82 11 7.5 11C7.18 11 6.86 11.11 6.61 11.31L6.3 11.56C5.94 11.84 5.5 12 5.05 12L4.95 12C4.5 12 4.06 11.84 3.7 11.56L3.39 11.31C3.14 11.11 2.82 11 2.5 11C2.18 11 1.86 11.11 1.61 11.31L1.29 11.56C0.99 11.81 0.61 11.96 0.22 11.99L0 12L0 10.5L0.05 10.5C0.51 10.5 0.94 10.35 1.29 10.07L1.61 9.81C1.86 9.61 2.18 9.5 2.5 9.5C2.82 9.5 3.14 9.61 3.39 9.81L3.7 10.06C4.06 10.35 4.5 10.5 4.95 10.5L5.05 10.5C5.5 10.5 5.94 10.35 6.3 10.06L6.61 9.81C6.86 9.61 7.18 9.5 7.5 9.5C7.82 9.5 8.14 9.61 8.39 9.81L8.7 10.06C9.06 10.35 9.5 10.5 9.95 10.5L10.05 10.5C10.5 10.5 10.94 10.35 11.3 10.06L11.61 9.81C11.86 9.61 12.18 9.5 12.5 9.5ZM10.11 2C10.64 2 11 2.29 11 2.5L11.01 2.71C11.01 2.93 10.98 3.2 10.67 3.4L8 5L11.05 8.98L10.67 9.28C10.5 9.42 10.28 9.5 10.05 9.5L9.95 9.5C9.72 9.5 9.5 9.42 9.33 9.28L9.01 9.03C8.58 8.69 8.05 8.5 7.5 8.5C6.95 8.5 6.42 8.69 5.99 9.03L5.67 9.28C5.5 9.42 5.28 9.5 5.05 9.5L4.95 9.5C4.72 9.5 4.5 9.42 4.33 9.28L4.01 9.03C3.7 8.78 3.33 8.61 2.94 8.54L3 8.5L6.97 6.47L6 5.06C5.74 4.71 5.91 4 6.35 3.83L9.68 2.15C9.68 2.15 10 2 10.11 2ZM12.25 5C13.22 5 14 5.78 14 6.75C14 7.72 13.22 8.5 12.25 8.5C11.28 8.5 10.5 7.72 10.5 6.75C10.5 5.78 11.28 5 12.25 5Z"/>
</svg>