<svg xmlns="http://www.w3.org/2000/svg" viewBox="0 0 15 15">
  <path fill="param(fill) #888" stroke="param(outline) #000" stroke-width="param(outline-width) 0" fill-opacity="param(fill-opacity) 1" stroke-opacity="param(outline-opacity) 1" d="M2.5 12.5C2.82 12.5 3.14 12.61 3.39 12.81L3.7 13.06C4.06 13.35 4.5 13.5 4.95 13.5L5.05 13.5C5.5 13.5 5.94 13.35 6.3 13.06L6.61 12.81C6.86 12.61 7.18 12.5 7.5 12.5C7.82 12.5 8.14 12.61 8.39 12.81L8.7 13.06C9.06 13.35 9.5 13.5 9.95 13.5L10.05 13.5C10.5 13.5 10.94 13.35 11.3 13.06L11.61 12.81C11.86 12.61 12.18 12.5 12.5 12.5L12.58 12.5L12.67 12.51L12.74 12.52L12.88 12.55C13.07 12.61 13.24 12.69 13.39 12.81L13.71 13.07C14.01 13.31 14.39 13.46 14.78 13.5L15 13.5L15 15L14.95 15C14.49 15 14.06 14.84 13.71 14.56L13.39 14.31C13.14 14.11 12.82 14 12.5 14C12.18 14 11.86 14.11 11.61 14.31L11.3 14.56C10.94 14.84 10.5 15 10.05 15L9.95 15C9.5 15 9.06 14.84 8.7 14.56L8.39 14.31C8.14 14.11 7.82 14 7.5 14C7.18 14 6.86 14.11 6.61 14.31L6.3 14.56C5.94 14.84 5.5 15 5.05 15L4.95 15C4.5 15 4.06 14.84 3.7 14.56L3.39 14.31C3.14 14.11 2.82 14 2.5 14C2.18 14 1.86 14.11 1.61 14.31L1.29 14.56C0.99 14.81 0.61 14.96 0.22 14.99L0 15L0 13.5L0.05 13.5C0.45 13.5 0.83 13.38 1.16 13.17L1.29 13.07L1.61 12.81C1.86 12.61 2.18 12.5 2.5 12.5ZM9.96 7.15L11.55 8.79L15 8.49C14.99 9.53 14.23 10.8 13.53 11.74C13.21 11.58 12.86 11.5 12.5 11.5C11.95 11.5 11.42 11.69 10.98 12.03L10.67 12.28C10.5 12.42 10.28 12.5 10.05 12.5L9.95 12.5C9.72 12.5 9.5 12.42 9.33 12.28L9.01 12.03C8.58 11.69 8.05 11.5 7.5 11.5C6.95 11.5 6.42 11.69 5.99 12.03L5.67 12.28C5.5 12.42 5.28 12.5 5.05 12.5L4.95 12.5C4.72 12.5 4.5 12.42 4.33 12.28L4.01 12.03C3.58 11.69 3.05 11.5 2.5 11.5C1.95 11.5 1.42 11.69 0.99 12.03L0.67 12.28C0.5 12.42 0.28 12.5 0.06 12.5L0.3 9.75L10.86 8.85L9.26 7.21L9.96 7.15ZM3.05 7.76C3.55 7.74 3.48 8.25 3.48 8.25L3.53 9.01L0.99 9.21L1.18 7.89L3.05 7.76ZM8.24 7C8.71 7 9.08 7.38 9.08 7.86C9.08 8.34 8.71 8.72 8.24 8.72L8.24 8.71C7.77 8.71 7.4 8.33 7.4 7.86C7.4 7.38 7.77 7 8.24 7ZM2 0L13 0L13 1L2 1L2 0ZM2 2L13 2L13 3L2 3L2 2ZM2 4L10 4L10 5L2 5L2 4Z"/>
</svg>