<svg xmlns="http://www.w3.org/2000/svg" viewBox="0 0 15 15">
  <path fill="param(fill) #888" stroke="param(outline) #000" stroke-width="param(outline-width) 0" fill-opacity="param(fill-opacity) 1" stroke-opacity="param(outline-opacity) 1" d="M7.53 0.02C6.87 0.02 6.34 0.54 6.34 1.2C6.33 1.86 6.87 2.4 7.53 2.4C8.19 2.41 8.74 1.86 8.73 1.2C8.73 0.54 8.19 0.01 7.53 0.02ZM6.34 2.59C5.84 2.59 5.66 2.8 5.55 3.22L4.36 7.18H3.36V5.6C3.36 5.45 3.25 5.32 3.09 5.32H2.27C2.12 5.32 2 5.45 2 5.6V9.37C2 9.52 2.12 9.65 2.27 9.65H3.09C3.25 9.65 3.36 9.52 3.36 9.37V7.78H4.24C4.25 7.95 4.31 8.19 4.59 8.25C5.01 8.34 5.18 7.83 5.19 7.78H6.15L5.35 14.33C5.35 14.33 5.28 14.9 5.87 14.98C6.45 15.05 6.56 14.45 6.56 14.45L7.45 8.79C7.48 8.67 7.49 8.63 7.59 8.63C7.7 8.63 7.7 8.67 7.74 8.79L8.62 14.45C8.62 14.45 8.75 15.05 9.31 14.98C9.9 14.9 9.83 14.33 9.83 14.33L9.04 7.78H9.99C10.01 7.83 10.18 8.34 10.6 8.25C10.88 8.19 10.94 7.95 10.95 7.78H11.82V9.37C11.82 9.52 11.95 9.65 12.09 9.65H12.92C13.06 9.65 13.19 9.52 13.19 9.37V5.6C13.19 5.45 13.06 5.32 12.92 5.32H12.09C11.95 5.32 11.82 5.45 11.82 5.6V7.18H10.82L9.64 3.22C9.53 2.8 9.34 2.59 8.84 2.59ZM6.14 4.58V7.16H5.35ZM9.02 4.58L9.81 7.16H9.02ZM13.68 6.17C13.56 6.17 13.47 6.26 13.47 6.37V8.55C13.47 8.67 13.56 8.77 13.68 8.77H14.01C14.13 8.77 14.23 8.67 14.23 8.55V7.72H14.78C14.9 7.72 15 7.62 15 7.51V7.4C15 7.27 14.9 7.17 14.78 7.17H14.23V6.33C14.23 6.23 14.13 6.13 14.01 6.13ZM0.99 6.17C0.87 6.17 0.77 6.26 0.77 6.37V7.21H0.22C0.1 7.21 0 7.31 0 7.44V7.55C0 7.66 0.1 7.76 0.22 7.76H0.77V8.59C0.77 8.71 0.87 8.81 0.99 8.81H1.32C1.44 8.81 1.54 8.71 1.54 8.59V6.41C1.54 6.3 1.44 6.21 1.32 6.21Z"/>
</svg>