<svg xmlns="http://www.w3.org/2000/svg" viewBox="0 0 15 15">
  <path fill="param(fill) #888" stroke="param(outline) #000" stroke-width="param(outline-width) 0" fill-opacity="param(fill-opacity) 1" stroke-opacity="param(outline-opacity) 1" d="M12.5 11.5C12.82 11.5 13.14 11.61 13.39 11.81L13.71 12.07C14.01 12.31 14.39 12.46 14.78 12.5L15 12.5L15 14L14.95 14C14.49 14 14.06 13.84 13.71 13.56L13.39 13.31C13.14 13.11 12.82 13 12.5 13C12.18 13 11.86 13.11 11.61 13.31L11.3 13.56C10.94 13.84 10.5 14 10.05 14L9.95 14C9.5 14 9.06 13.84 8.7 13.56L8.39 13.31C8.14 13.11 7.82 13 7.5 13C7.18 13 6.86 13.11 6.61 13.31L6.3 13.56C5.94 13.84 5.5 14 5.05 14L4.95 14C4.5 14 4.06 13.84 3.7 13.56L3.39 13.31C3.14 13.11 2.82 13 2.5 13C2.18 13 1.86 13.11 1.61 13.31L1.29 13.56C0.99 13.81 0.61 13.96 0.22 13.99L0 14L0 12.5L0.05 12.5C0.51 12.5 0.94 12.35 1.29 12.07L1.61 11.81C1.86 11.61 2.18 11.5 2.5 11.5L2.66 11.51C2.93 11.54 3.18 11.65 3.39 11.81L3.7 12.06C4.06 12.35 4.5 12.5 4.95 12.5L5.05 12.5C5.5 12.5 5.94 12.35 6.3 12.06L6.61 11.81C6.86 11.61 7.18 11.5 7.5 11.5C7.82 11.5 8.14 11.61 8.39 11.81L8.71 12L8.62 12L8.7 12.06C9.01 12.31 9.39 12.46 9.78 12.49L9.95 12.5L10.05 12.5C10.5 12.5 10.94 12.35 11.3 12.06L11.61 11.81C11.86 11.61 12.18 11.5 12.5 11.5ZM4.07 4.39L4.82 6.96L6.43 5.46C6.64 5.36 6.75 5.25 6.86 5.25C7.18 5.36 7.29 5.46 7.29 5.46L8.89 7.29C9.32 6.54 12.64 6.75 12.75 6.86C13.07 7.29 13.5 8.57 14.36 8.57L15 8.57L13.01 10.56C12.85 10.52 12.68 10.5 12.5 10.5C11.95 10.5 11.42 10.69 10.98 11.03L10.67 11.28C10.5 11.42 10.28 11.5 10.05 11.5L9.95 11.5C9.72 11.5 9.5 11.42 9.33 11.28L9.01 11.03C8.58 10.69 8.05 10.5 7.5 10.5C6.95 10.5 6.42 10.69 5.99 11.03L5.67 11.28C5.5 11.42 5.28 11.5 5.05 11.5L4.95 11.5C4.72 11.5 4.5 11.42 4.33 11.28L4.01 11.03C3.58 10.69 3.05 10.5 2.5 10.5C1.95 10.5 1.42 10.69 0.99 11.03L0.67 11.28C0.49 11.43 0.28 11.5 0.05 11.5L0 11.5L0 8.46L2.89 8.46L2.71 8.33C2.53 8.21 2.46 8.14 2.46 8.14L1.61 5.14L1.61 4.93C1.61 4.29 2.04 3.64 2.68 3.64C3.32 3.54 3.86 3.86 4.07 4.39ZM6.96 7.18L5.79 8.57L7.82 8.57L6.96 7.18ZM4.39 1.82C4.5 2.46 3.96 3.11 3.32 3.21C2.68 3.32 2.04 2.79 1.93 2.14C1.93 1.5 2.36 0.86 3 0.75C3.75 0.64 4.29 1.18 4.39 1.82Z"/>
</svg>