<?xml version="1.0" encoding="UTF-8"?>
<svg viewBox="0 0 15 15" version="1.1" xmlns="http://www.w3.org/2000/svg" xmlns:xlink="http://www.w3.org/1999/xlink">
  <path fill="param(fill) #888" stroke="param(outline) #000" stroke-width="param(outline-width) 0" fill-opacity="param(fill-opacity) 1" stroke-opacity="param(outline-opacity) 1" d="M3.21 2.68C3.21 1.82 2.46 1.07 1.61 1.07C0.75 1.07 0 1.82 0 2.68C0 3.54 0.75 4.29 1.61 4.29C2.46 4.29 3.21 3.54 3.21 2.68ZM2.46 10.39C1.73 10.39 1.31 10.79 1 11.1L0.86 11.25C0.54 11.57 0.32 11.79 0 11.79L0.11 11.79L0.11 12.86C0.96 12.86 1.39 12.32 1.71 12L1.94 11.78C2.15 11.58 2.33 11.46 2.57 11.46C3 11.46 3.11 11.68 3.43 12L3.65 12.23C3.95 12.53 4.36 12.86 5.04 12.86C5.77 12.86 6.19 12.46 6.5 12.15L6.64 12C6.96 11.68 7.07 11.46 7.5 11.46C7.93 11.46 8.04 11.68 8.36 12L8.58 12.23C8.88 12.53 9.29 12.86 9.96 12.86C10.75 12.86 11.28 12.4 11.6 12.08L11.8 11.88C12.05 11.63 12.25 11.46 12.54 11.46C12.82 11.46 13.02 11.63 13.27 11.88L13.61 12.23C13.91 12.53 14.32 12.86 15 12.86L15 11.79C14.68 11.79 14.46 11.57 14.04 11.25L13.81 11.02L13.64 10.86C13.35 10.61 12.98 10.39 12.43 10.39C11.69 10.39 11.27 10.79 10.96 11.1L10.82 11.25L10.6 11.47C10.39 11.67 10.21 11.79 9.96 11.79C9.64 11.79 9.43 11.57 9.11 11.25L8.89 11.02C8.59 10.72 8.18 10.39 7.5 10.39C6.76 10.39 6.34 10.79 6.03 11.1L5.89 11.25C5.57 11.57 5.46 11.79 5.04 11.79C4.61 11.79 4.5 11.57 4.07 11.25L3.85 11.02C3.55 10.72 3.14 10.39 2.46 10.39ZM2.04 7.61C1.07 7.93 1.07 8.79 1.07 8.89C1.07 9.11 1.07 9.43 1.18 9.64C1.5 9.43 2.04 9.32 2.57 9.32C3.96 9.32 4.61 10.07 5.04 10.5L5.28 10.26L5.46 10.09C5.88 9.71 6.5 9.32 7.5 9.32C8.89 9.32 9.54 10.07 9.96 10.5L10.07 10.5L10.27 10.3L10.45 10.13C10.84 9.78 11.45 9.37 12.43 9.21L12.43 8.89C12.32 7.71 11.36 7.71 11.25 7.71L10.47 7.78C5.01 8.2 2.44 7.71 2.04 7.61ZM14.04 6.75L10.39 5.79L10.23 5.79C10.1 5.8 9.98 5.82 9.75 5.89L6.86 7.5C7.91 7.4 9.12 7.39 10.51 7.32L11.1 7.29C11.29 7.28 11.86 7.31 12.21 7.93L13.61 8.25C14.04 8.36 14.46 8.14 14.57 7.71C14.68 7.5 14.68 7.29 14.57 7.18C14.46 6.96 14.25 6.86 14.04 6.75ZM5.46 7.5L3.37 5.18L3.28 5.1C3.02 4.86 2.45 4.49 1.82 5.04C1.29 5.57 1.39 6.11 1.71 6.54C1.71 6.64 1.93 6.86 2.25 7.29C2.68 7.29 3.64 7.5 5.46 7.5Z"/>
</svg>