<svg xmlns="http://www.w3.org/2000/svg" viewBox="0 0 15 15">
  <path fill="param(fill) #888" stroke="param(outline) #000" stroke-width="param(outline-width) 0" fill-opacity="param(fill-opacity) 1" stroke-opacity="param(outline-opacity) 1" d="M1.67 0.71C2.04 0.49 2.52 0.62 2.73 0.99L4.99 4.82L8.31 6.82C8.47 6.91 8.61 7.05 8.71 7.22L11.29 11.65C11.32 11.7 11.34 11.74 11.35 11.79C11.22 11.86 11.1 11.94 10.98 12.03L10.67 12.28C10.58 12.36 10.47 12.41 10.35 12.45C10.3 12.41 10.25 12.35 10.21 12.28L10.2 12.28L8.4 9.17L4.48 6.74C4.31 6.65 4.18 6.52 4.08 6.35L1.38 1.77C1.17 1.4 1.3 0.92 1.67 0.71ZM10.36 6.23C10.98 6.23 11.48 6.72 11.48 7.33C11.48 7.94 10.98 8.44 10.36 8.44C9.75 8.44 9.25 7.94 9.25 7.33C9.25 6.72 9.75 6.23 10.36 6.23ZM6.3 14.56L6.61 14.31C6.86 14.11 7.18 14 7.5 14C7.82 14 8.14 14.11 8.39 14.31L8.7 14.56C9.06 14.84 9.5 15 9.95 15L10.05 15C10.5 15 10.94 14.84 11.3 14.56L11.61 14.31C11.86 14.11 12.18 14 12.5 14C12.82 14 13.14 14.11 13.39 14.31L13.71 14.56C14.06 14.84 14.49 15 14.95 15L15 15L15 15L15 13.5L14.95 13.5C14.49 13.5 14.06 13.35 13.71 13.07L13.39 12.81C13.14 12.61 12.82 12.5 12.5 12.5C12.18 12.5 11.86 12.61 11.61 12.81L11.3 13.06C10.94 13.35 10.5 13.5 10.05 13.5L9.95 13.5C9.5 13.5 9.06 13.35 8.7 13.06L8.39 12.81C8.14 12.61 7.82 12.5 7.5 12.5C7.18 12.5 6.86 12.61 6.61 12.81L6.3 13.06C5.94 13.35 5.5 13.5 5.05 13.5L4.95 13.5C4.5 13.5 4.06 13.35 3.7 13.06L3.39 12.81C3.14 12.61 2.82 12.5 2.5 12.5C2.18 12.5 1.86 12.61 1.61 12.81L1.29 13.07C0.94 13.35 0.51 13.5 0.05 13.5L0 13.5L0 13.5L0 15L0.05 15C0.51 15 0.94 14.84 1.29 14.56L1.61 14.31C1.86 14.11 2.18 14 2.5 14C2.82 14 3.14 14.11 3.39 14.31L3.7 14.56C4.06 14.84 4.5 15 4.95 15L5.05 15C5.5 15 5.94 14.84 6.3 14.56Z"/>
</svg>