<svg xmlns="http://www.w3.org/2000/svg" viewBox="0 0 15 15">
  <path fill="param(fill) #888" stroke="param(outline) #000" stroke-width="param(outline-width) 0" fill-opacity="param(fill-opacity) 1" stroke-opacity="param(outline-opacity) 1" d="M12.5 12.5C12.82 12.5 13.14 12.61 13.39 12.81L13.71 13.07C14.01 13.31 14.39 13.46 14.78 13.5L15 13.5L15 15L14.95 15C14.49 15 14.06 14.84 13.71 14.56L13.39 14.31C13.14 14.11 12.82 14 12.5 14C12.18 14 11.86 14.11 11.61 14.31L11.3 14.56C10.94 14.84 10.5 15 10.05 15L9.95 15C9.5 15 9.06 14.84 8.7 14.56L8.39 14.31C8.14 14.11 7.82 14 7.5 14C7.18 14 6.86 14.11 6.61 14.31L6.3 14.56C5.94 14.84 5.5 15 5.05 15L4.95 15C4.5 15 4.06 14.84 3.7 14.56L3.39 14.31C3.14 14.11 2.82 14 2.5 14C2.18 14 1.86 14.11 1.61 14.31L1.29 14.56C0.99 14.81 0.61 14.96 0.22 14.99L0 15L0 13.5L0.05 13.5C0.51 13.5 0.94 13.35 1.29 13.07L1.61 12.81C1.86 12.61 2.18 12.5 2.5 12.5C2.82 12.5 3.14 12.61 3.39 12.81L3.7 13.06C3.92 13.24 4.17 13.36 4.44 13.43L4.53 13.46L4.66 13.48L4.61 13.47C4.72 13.49 4.83 13.5 4.95 13.5L5.05 13.5C5.16 13.5 5.28 13.49 5.39 13.47C5.48 13.46 5.56 13.44 5.65 13.41C5.88 13.33 6.1 13.22 6.3 13.06L6.61 12.81C6.86 12.61 7.18 12.5 7.5 12.5C7.82 12.5 8.14 12.61 8.39 12.81L8.7 13.06C8.96 13.27 9.27 13.41 9.6 13.47L9.79 13.49L9.95 13.5L10.05 13.5L10.29 13.49L10.47 13.46L10.59 13.43L10.66 13.4L10.82 13.34C10.99 13.27 11.15 13.18 11.3 13.06L11.61 12.81C11.86 12.61 12.18 12.5 12.5 12.5ZM5.82 8.99L6.78 10.07L6.18 11.89C6.12 11.94 6.05 11.98 5.99 12.03L5.67 12.28C5.5 12.42 5.28 12.5 5.05 12.5L4.95 12.5C4.83 12.5 4.71 12.48 4.59 12.43L5.82 8.99ZM7.19 4L12.5 7.79L12.5 8.67L11.88 8.67L8.75 6.41L8.75 8.67L10 11L10.58 12.35L10.56 12.36C10.41 12.45 10.23 12.5 10.05 12.5L9.95 12.5C9.72 12.5 9.5 12.42 9.33 12.28L9.01 12.03L8.91 11.96L8.75 11.58L6.25 8.08L6.25 5.37L4.69 6.63L3.44 8.67L2.5 8.67L2.5 8.08L3.44 6.33L6.25 4L7.19 4ZM7.81 0.5C8.68 0.5 9.38 1.15 9.38 1.96C9.38 2.76 8.68 3.42 7.81 3.42C6.95 3.42 6.25 2.76 6.25 1.96C6.25 1.15 6.95 0.5 7.81 0.5Z"/>
</svg>