<svg xmlns="http://www.w3.org/2000/svg" viewBox="0 0 15 15">
  <path fill="param(fill) #888" stroke="param(outline) #000" stroke-width="param(outline-width) 0" fill-opacity="param(fill-opacity) 1" stroke-opacity="param(outline-opacity) 1" d="M13 4L15 8L12 13C12 13.55 11.55 14 11 14L9 14L9 15L2 15L2 7.5C2 6.4 2.9 5.5 4 5.5C5.1 5.5 6 6.4 6 7.5L6 12L10 12L7 10.5L9 5.25C10.12 5.55 11.01 5.84 11.69 6.11C12.07 5.41 12.51 4.71 13 4ZM5.5 0C6.88 0 8 1.12 8 2.5C8 3.88 6.88 5 5.5 5C4.12 5 3 3.88 3 2.5C3 1.12 4.12 0 5.5 0Z"/>
</svg>