<svg xmlns="http://www.w3.org/2000/svg" viewBox="0 0 15 15">
  <path fill="param(fill) #888" stroke="param(outline) #000" stroke-width="param(outline-width) 0" fill-opacity="param(fill-opacity) 1" stroke-opacity="param(outline-opacity) 1" d="M8.39 10.81L8.7 11.06C9.01 11.31 9.39 11.46 9.78 11.49L9.95 11.5L10.05 11.5C10.43 11.5 10.81 11.39 11.13 11.18L11.17 11.15L11.3 11.06L11.61 10.81L11.67 10.77L11.81 10.68C12.02 10.56 12.26 10.5 12.5 10.5C12.82 10.5 13.14 10.61 13.39 10.81L13.71 11.07C14.01 11.31 14.39 11.46 14.78 11.5L15 11.5L15 13L14.95 13C14.49 13 14.06 12.84 13.71 12.56L13.39 12.31C13.14 12.11 12.82 12 12.5 12C12.18 12 11.86 12.11 11.61 12.31L11.3 12.56C10.94 12.84 10.5 13 10.05 13L9.95 13C9.5 13 9.06 12.84 8.7 12.56L8.39 12.31C8.14 12.11 7.82 12 7.5 12C7.18 12 6.86 12.11 6.61 12.31L6.3 12.56C5.94 12.84 5.5 13 5.05 13L4.95 13C4.5 13 4.06 12.84 3.7 12.56L3.39 12.31C3.14 12.11 2.82 12 2.5 12C2.18 12 1.86 12.11 1.61 12.31L1.29 12.56C0.94 12.84 0.51 13 0.05 13L0 13L0 11.5L0.05 11.5C0.51 11.5 0.94 11.35 1.29 11.07L1.61 10.81C1.86 10.61 2.18 10.5 2.5 10.5C2.82 10.5 3.14 10.61 3.39 10.81L3.7 11.06C4.06 11.35 4.5 11.5 4.95 11.5L5.05 11.5C5.5 11.5 5.94 11.35 6.3 11.06L6.61 10.81C6.86 10.61 7.18 10.5 7.5 10.5C7.82 10.5 8.14 10.61 8.39 10.81ZM9.78 6.22C10.28 6.24 10.67 6.64 10.7 7.13L11.51 9.71C11.32 9.8 11.15 9.9 10.98 10.03L10.67 10.28C10.56 10.37 10.42 10.44 10.28 10.47L10 9.53C10 9.47 9.95 9.42 9.89 9.42C9.83 9.42 9.78 9.47 9.78 9.53L9.76 10.48C9.6 10.45 9.45 10.38 9.33 10.28L9.01 10.03C8.58 9.69 8.05 9.5 7.5 9.5C6.95 9.5 6.42 9.69 5.99 10.03L5.67 10.28C5.55 10.38 5.39 10.45 5.24 10.48L5.21 9.64C5.21 9.56 5.13 9.49 5.05 9.5C4.99 9.5 4.94 9.54 4.92 9.59L4.67 10.46C4.55 10.43 4.43 10.36 4.33 10.28L4.01 10.03C3.85 9.91 3.68 9.8 3.49 9.72L4.3 7.13C4.33 6.64 4.72 6.24 5.22 6.22L9.78 6.22ZM1.35 7.47C1.49 7.93 1.42 8.42 1.15 8.82C0.94 9.16 0.86 9.57 0.93 9.97L0.22 9.97C0.19 9.5 0.3 9.04 0.53 8.63C0.78 8.29 0.82 7.84 0.63 7.47L1.35 7.47ZM13.65 7.37L14.27 7.47C14.08 7.84 14.12 8.29 14.37 8.63C14.6 9.04 14.71 9.5 14.69 9.97L14.12 9.97C14.14 9.52 14.06 9.06 13.85 8.71C13.58 8.32 13.51 7.82 13.65 7.37ZM2.6 7.89C2.59 8.28 2.51 8.67 2.35 9.02L2.25 9.23C2.2 9.33 2.15 9.43 2.11 9.53C1.85 9.58 1.59 9.66 1.35 9.79C1.42 9.53 1.51 9.28 1.63 9.05C1.83 8.7 1.92 8.29 1.88 7.89L2.6 7.89ZM13.12 7.89C13.08 8.29 13.17 8.7 13.37 9.05C13.49 9.29 13.58 9.53 13.65 9.79C13.41 9.66 13.15 9.58 12.88 9.53L12.82 9.38L12.75 9.23C12.53 8.82 12.41 8.36 12.4 7.89L13.12 7.89ZM3.32 5.8C3.29 6.04 3.32 6.29 3.42 6.51C3.64 7.08 3.68 7.71 3.53 8.3L2.82 8.3C3.01 7.79 3.01 7.23 2.83 6.71C2.71 6.42 2.63 6.11 2.61 5.8L3.32 5.8ZM12.4 5.8C12.38 6.11 12.3 6.42 12.18 6.71C12 7.23 12 7.79 12.19 8.3L11.47 8.3C11.32 7.71 11.36 7.08 11.58 6.51C11.68 6.29 11.71 6.04 11.68 5.8L12.4 5.8ZM7.5 2.11C8.51 2.11 9.33 2.93 9.33 3.94C9.33 4.95 8.51 5.77 7.5 5.77C6.49 5.77 5.67 4.95 5.67 3.94C5.67 2.93 6.49 2.11 7.5 2.11Z"/>
</svg>