<svg xmlns="http://www.w3.org/2000/svg" viewBox="0 0 15 15">
  <path fill="param(fill) #888" stroke="param(outline) #000" stroke-width="param(outline-width) 0" fill-opacity="param(fill-opacity) 1" stroke-opacity="param(outline-opacity) 1" d="M0.9 14.4C1.13 14.4 1.35 14.36 1.56 14.28L1.71 14.22C1.96 14.11 2.25 14.04 2.55 14.04C2.85 14.04 3.13 14.11 3.39 14.22C3.63 14.33 3.91 14.4 4.2 14.4C4.43 14.4 4.65 14.36 4.86 14.28L5.01 14.22C5.27 14.11 5.55 14.04 5.85 14.04C6.09 14.04 6.32 14.08 6.53 14.16L6.69 14.22C6.93 14.33 7.21 14.4 7.5 14.4C7.73 14.4 7.95 14.36 8.16 14.28L8.31 14.22C8.56 14.11 8.85 14.04 9.15 14.04C9.39 14.04 9.62 14.08 9.83 14.16L9.98 14.22C10.23 14.33 10.51 14.4 10.79 14.4C11.02 14.4 11.25 14.36 11.46 14.28L11.61 14.22C11.86 14.11 12.15 14.04 12.44 14.04C12.68 14.04 12.91 14.08 13.13 14.16L13.28 14.22C13.53 14.33 13.81 14.4 14.1 14.4L14.1 13.19C13.81 13.19 13.53 13.12 13.28 13.01C13.03 12.89 12.74 12.83 12.44 12.83C12.15 12.83 11.86 12.89 11.61 13.01C11.36 13.12 11.08 13.19 10.79 13.19C10.51 13.19 10.23 13.12 9.98 13.01C9.73 12.89 9.44 12.83 9.15 12.83C8.85 12.83 8.56 12.89 8.31 13.01C8.06 13.12 7.79 13.19 7.5 13.19C7.27 13.19 7.04 13.15 6.84 13.07L6.69 13.01C6.43 12.89 6.15 12.83 5.85 12.83C5.61 12.83 5.38 12.87 5.17 12.95L5.01 13.01C4.77 13.12 4.49 13.19 4.2 13.19C3.97 13.19 3.74 13.15 3.54 13.07L3.39 13.01C3.13 12.89 2.85 12.83 2.55 12.83C2.31 12.83 2.08 12.87 1.86 12.95L1.71 13.01C1.47 13.12 1.19 13.19 0.9 13.19L0.9 14.4ZM10.36 8.44C9.75 8.44 9.25 7.94 9.25 7.33C9.25 6.72 9.75 6.23 10.36 6.23C10.98 6.23 11.48 6.72 11.48 7.33C11.48 7.94 10.98 8.44 10.36 8.44ZM10.21 12.28C10.38 12.58 10.76 12.68 11.06 12.5C11.36 12.33 11.46 11.95 11.29 11.65L8.71 7.22C8.61 7.05 8.47 6.91 8.31 6.82L4.99 4.82L2.73 0.99C2.52 0.62 2.04 0.49 1.67 0.71C1.3 0.92 1.17 1.4 1.38 1.77L4.08 6.35C4.18 6.52 4.31 6.65 4.48 6.74L8.4 9.17L10.2 12.28L10.21 12.28Z"/>
</svg>