<?xml version="1.0" encoding="UTF-8"?>
<svg viewBox="0 0 15 15" version="1.1" xmlns="http://www.w3.org/2000/svg" xmlns:xlink="http://www.w3.org/1999/xlink">
  <path fill="param(fill) #888" stroke="param(outline) #000" stroke-width="param(outline-width) 0" fill-opacity="param(fill-opacity) 1" stroke-opacity="param(outline-opacity) 1" d="M6.27 6.48C6.64 6.48 6.96 6.7 7.01 7L7.7 13.77C7.7 13.98 7.64 14.11 7.64 14.25L7.43 14.73L7.3 15L1.91 15L1.7 14.59L1.23 14.11C1.02 13.84 0.95 13.43 0.95 13.43L0.68 11.66C0.61 11.32 0.89 11.05 1.3 11.05C1.7 11.05 2.05 11.18 2.05 11.39L2.05 11.45L2.45 11.45L2.39 10.84C2.39 10.57 2.66 10.36 3.07 10.36C3.44 10.31 3.76 10.47 3.81 10.65L3.89 11.11L4.23 11.05L4.09 10.36C4.02 10.16 4.3 9.89 4.7 9.89C5.07 9.89 5.38 10 5.44 10.22L5.52 10.84L5.86 10.77L5.59 7.09C5.59 6.75 5.86 6.48 6.27 6.48ZM15 0L15 12.75L12.41 12.82C9.16 12.75 9.14 11.39 9.26 11.01L9.27 10.98C9.59 10.08 9.86 10.27 9.55 9.61L9.48 9.48C9.07 8.66 8.93 8.73 8.52 8.25C8.18 7.84 9.82 7.77 9.82 7.77L8.45 6.68L8.42 6.66C8.36 6.63 8.25 6.54 8.25 6.34C8.25 6.1 8.31 6.07 8.46 5.78L8.52 5.66C8.73 5.25 8.93 4.43 8.93 4.43L8.61 4.38C8.05 4.26 6.92 3.97 7.02 3.41C7.09 3.27 7.16 3.07 7.23 2.86L8.39 0.27L8.52 0L15 0Z"/>
</svg>