<svg xmlns="http://www.w3.org/2000/svg" viewBox="0 0 15 15">
  <path fill="param(fill) #888" stroke="param(outline) #000" stroke-width="param(outline-width) 0" fill-opacity="param(fill-opacity) 1" stroke-opacity="param(outline-opacity) 1" d="M0 6L7 10.5L7.5 15L0 15L0 6ZM2.11 0.9C2.45 0.9 2.73 1.1 2.86 1.38L4.36 5.13L6.14 5.33L9.07 2.54C9.2 2.4 9.41 2.26 9.68 2.26C10.16 2.26 10.5 2.67 10.5 3.08C10.5 3.35 10.43 3.56 10.23 3.7L7.7 6.22L8.45 6.83L10.23 5.88L14.25 7.17C14.66 7.24 15 7.51 15.07 7.92C15.07 8.4 14.66 8.81 14.25 8.74L13.98 8.66C13.94 8.65 13.9 8.63 13.84 8.6L10.5 7.58L8.93 8.67L12.89 11.33L12.95 11.33L13.04 11.39C13.2 11.53 13.3 11.71 13.3 11.95C13.3 12.42 12.89 12.76 12.48 12.76C12.27 12.76 12.14 12.7 11.93 12.56L3.07 6.63L1.36 1.92C1.36 1.85 1.36 1.85 1.3 1.72C1.3 1.24 1.7 0.9 2.11 0.9ZM5.52 1.63C6.27 1.63 6.89 2.24 6.89 2.99C6.89 3.74 6.27 4.35 5.52 4.35C4.77 4.35 4.16 3.74 4.16 2.99C4.16 2.24 4.77 1.63 5.52 1.63Z"/>
</svg>