<?xml version="1.0" encoding="UTF-8"?>
<svg viewBox="0 0 15 15" version="1.1" xmlns="http://www.w3.org/2000/svg" xmlns:xlink="http://www.w3.org/1999/xlink">
  <path fill="param(fill) #888" stroke="param(outline) #000" stroke-width="param(outline-width) 0" fill-opacity="param(fill-opacity) 1" stroke-opacity="param(outline-opacity) 1" d="M1 15L2 15L2 2L3.25 2L3.25 5C3.25 5.21 3.34 5.42 3.5 5.56L3.58 5.62L6 7.24L6 10.59L4.29 12.29C3.93 12.65 3.9 13.22 4.21 13.61L4.29 13.71C4.65 14.07 5.22 14.1 5.61 13.79L5.71 13.71L7.71 11.71C7.86 11.55 7.96 11.35 7.99 11.13L8 11L8 10.42L8.78 11.2L8.11 12.55L8.06 12.66C7.89 13.13 8.09 13.67 8.55 13.89C9.01 14.12 9.56 13.97 9.84 13.55L10.89 11.45L10.94 11.33C11.06 11.01 11 10.66 10.79 10.39L10.71 10.29L9 8.58L9 7.24L11.42 5.62L11.5 5.56C11.63 5.44 11.72 5.28 11.74 5.11L11.75 5L11.75 2L13 2L13 15L14 15L14 0.5C14 0.22 13.78 0 13.5 0C13.22 0 13 0.22 13 0.5L13 1L11.75 1L11.74 0.9C11.7 0.57 11.43 0.3 11.1 0.26L11 0.25L10.9 0.26C10.57 0.3 10.3 0.57 10.26 0.9L10.25 1L4.75 1C4.75 0.62 4.47 0.31 4.1 0.26L4 0.25C3.62 0.25 3.31 0.53 3.26 0.9L3.25 1L2 1L2 0.5C2 0.22 1.78 0 1.5 0C1.22 0 1 0.22 1 0.5L1 15ZM4.75 2L10.25 2L10.25 4.6L8.15 6L6.85 6L4.75 4.6L4.75 2ZM7.5 2.5C6.67 2.5 6 3.17 6 4C6 4.83 6.67 5.5 7.5 5.5C8.33 5.5 9 4.83 9 4C9 3.17 8.33 2.5 7.5 2.5Z"/>
</svg>