<svg xmlns="http://www.w3.org/2000/svg" viewBox="0 0 15 15">
  <path fill="param(fill) #888" stroke="param(outline) #000" stroke-width="param(outline-width) 0" fill-opacity="param(fill-opacity) 1" stroke-opacity="param(outline-opacity) 1" d="M14.5 9C14.78 9 15 9.22 15 9.5L15 14L13 14L13 11L11 11L11 9L14.5 9ZM6.5 9L6.5 11L2 11L2 14L0 14L0 9.5C0 9.22 0.22 9 0.5 9L6.5 9ZM6 5.75L5 8.75L3.75 8.75L4.78 5.23C4.93 4.75 5.19 4.31 5.54 3.96L5.79 3.71C6.25 3.25 6.86 3 7.5 3C8.14 3 8.75 3.25 9.21 3.71L9.46 3.96C9.81 4.31 10.07 4.75 10.22 5.23L11.25 8.75L11 8.75C10.95 8.06 10.44 7.48 9.75 7.37L9.53 7.33L9 5.75L9 7.75L9.66 7.86L9.81 7.9L9.91 7.93L10.01 7.99L10.09 8.04L10.19 8.12C10.2 8.14 10.21 8.15 10.23 8.16L10.28 8.23L10.35 8.32L10.41 8.43L10.44 8.5C10.47 8.58 10.48 8.65 10.49 8.73L10.5 8.8L10.5 12.25C10.5 12.66 10.16 13 9.75 13C9.34 13 9 12.66 9 12.25L9 9L8.5 9L8.5 12.25C8.5 12.66 8.16 13 7.75 13C7.34 13 7 12.66 7 12.25L7 9L6.88 8.99C6.79 8.98 6.7 8.96 6.62 8.92L6.48 8.86L6.39 8.79L6.31 8.73L6.28 8.69L6.23 8.64L6.17 8.56L6.17 8.55C6.12 8.49 6.09 8.42 6.06 8.35L6.04 8.28C6.03 8.23 6.01 8.18 6.01 8.12L6 8.06L6 5.75ZM7.5 2.5C8.19 2.5 8.75 1.94 8.75 1.25C8.75 0.56 8.19 0 7.5 0C6.81 0 6.25 0.56 6.25 1.25C6.25 1.94 6.81 2.5 7.5 2.5Z"/>
</svg>