<?xml version="1.0" encoding="UTF-8"?>
<svg viewBox="0 0 15 15" version="1.1" xmlns="http://www.w3.org/2000/svg" xmlns:xlink="http://www.w3.org/1999/xlink">
  <path fill="param(fill) #888" stroke="param(outline) #000" stroke-width="param(outline-width) 0" fill-opacity="param(fill-opacity) 1" stroke-opacity="param(outline-opacity) 1" d="M0.5 11C0.22 11 0 11.22 0 11.5L0 12.5C0 12.78 0.22 13 0.5 13L1 13L1 15L2 15L2 13L13 13L13 15L14 15L14 13L14.5 13C14.78 13 15 12.78 15 12.5L15 11.5C15 11.22 14.78 11 14.5 11L0.5 11ZM2.75 3.5C2.34 3.5 2 3.84 2 4.25C2 4.66 2.34 5 2.75 5L6 5L6 6.63L5.41 8.41L4.26 8.79C3.9 8.91 3.69 9.28 3.76 9.64L3.79 9.74C3.91 10.1 4.28 10.31 4.64 10.24L4.74 10.21L6.24 9.71C6.43 9.65 6.59 9.51 6.67 9.33L6.71 9.24L7.15 7.91L8.25 8.46L8.25 10C8.25 10.38 8.53 10.69 8.9 10.74L9 10.75C9.38 10.75 9.69 10.47 9.74 10.1L9.75 10L9.75 8C9.75 7.75 9.63 7.52 9.43 7.38L9.34 7.33L8 6.66L8 5L11.25 5C11.66 5 12 4.66 12 4.25C12 3.84 11.66 3.5 11.25 3.5L2.75 3.5ZM7 0C6.17 0 5.5 0.67 5.5 1.5C5.5 2.33 6.17 3 7 3C7.83 3 8.5 2.33 8.5 1.5C8.5 0.67 7.83 0 7 0Z"/>
</svg>