<svg xmlns="http://www.w3.org/2000/svg" viewBox="0 0 15 15">
  <path fill="param(fill) #888" stroke="param(outline) #000" stroke-width="param(outline-width) 0" fill-opacity="param(fill-opacity) 1" stroke-opacity="param(outline-opacity) 1" d="M12.5 11.5C12.82 11.5 13.14 11.61 13.39 11.81L13.71 12.07C14.06 12.35 14.49 12.5 14.95 12.5L15 12.5L15 14L14.95 14C14.49 14 14.06 13.84 13.71 13.56L13.39 13.31C13.14 13.11 12.82 13 12.5 13C12.18 13 11.86 13.11 11.61 13.31L11.3 13.56C10.94 13.84 10.5 14 10.05 14L9.95 14C9.5 14 9.06 13.84 8.7 13.56L8.39 13.31C8.14 13.11 7.82 13 7.5 13C7.18 13 6.86 13.11 6.61 13.31L6.3 13.56C5.94 13.84 5.5 14 5.05 14L4.95 14C4.5 14 4.06 13.84 3.7 13.56L3.39 13.31C3.14 13.11 2.82 13 2.5 13C2.18 13 1.86 13.11 1.61 13.31L1.29 13.56C0.94 13.84 0.51 14 0.05 14L0 14L0 12.5L0.05 12.5C0.51 12.5 0.94 12.35 1.29 12.07L1.61 11.81C1.86 11.61 2.18 11.5 2.5 11.5C2.82 11.5 3.14 11.61 3.39 11.81L3.7 12.06C4.06 12.35 4.5 12.5 4.95 12.5L5.05 12.5C5.5 12.5 5.94 12.35 6.3 12.06L6.61 11.81C6.86 11.61 7.18 11.5 7.5 11.5C7.82 11.5 8.14 11.61 8.39 11.81L8.7 12.06C9.06 12.35 9.5 12.5 9.95 12.5L10.05 12.5C10.5 12.5 10.94 12.35 11.3 12.06L11.61 11.81C11.86 11.61 12.18 11.5 12.5 11.5ZM13.57 0L13.63 0.02C13.7 0.05 13.8 0.11 13.8 0.19L13.8 11.7L13.5 11.7L13.5 0.62C13.34 0.84 12.68 1.5 11.96 2.19L11.6 2.54C11.05 3.07 10.52 3.58 10.2 3.9C10.22 3.96 10.2 4.14 10.2 4.2C10.2 4.46 9.95 4.5 9.69 4.5L8.17 4.5C8.05 4.5 7.92 4.43 7.84 4.34L7.04 3.53L5.1 5.46L5.1 5.7L8.7 5.7L8.7 6.3L7.8 6.3L7.8 10.7L0.6 10.7L0.6 9.8L7.2 9.8L7.2 6.3L5.1 6.3L5.1 8.76C5.1 9.19 4.77 9.53 4.35 9.53C3.92 9.53 3.6 9.19 3.6 8.76L3.6 6.3L0.6 6.3L0.6 5.7L3.6 5.7L3.6 4.37C3.6 4.25 3.63 4.15 3.71 4.07L5.76 2.01C6.03 1.75 6.44 1.75 6.72 1.99C6.8 2.01 6.88 2.07 6.94 2.13C6.94 2.13 7.09 2.27 7.29 2.47L7.51 2.69C7.85 3.03 8.24 3.44 8.36 3.6L9.69 3.6C9.76 3.6 9.83 3.57 9.89 3.6L13.4 0.06C13.46 0 13.56 -0.01 13.63 0.02ZM7.52 0.05C8.06 0.05 8.48 0.49 8.48 1.01C8.48 1.54 8.06 1.97 7.52 1.97C6.99 1.97 6.56 1.54 6.56 1.01C6.56 0.49 6.99 0.05 7.52 0.05Z"/>
</svg>