<svg xmlns="http://www.w3.org/2000/svg" viewBox="0 0 15 15">
  <path fill="param(fill) #888" stroke="param(outline) #000" stroke-width="param(outline-width) 0" fill-opacity="param(fill-opacity) 1" stroke-opacity="param(outline-opacity) 1" d="M0 15L0 6L7 10.5L7.5 15L0 15ZM12 11L12.08 11.16L12.28 11.51L12.46 11.79L12.63 12.03L12.75 12.18L12.89 12.34L13 12.44L13.1 12.54C13.47 12.85 13.85 13 14.25 13C14.51 13 14.76 12.94 15 12.81L15 14.86C14.76 14.95 14.51 15 14.25 15C13.42 15 12.67 14.5 12 13.5C11.33 14.5 10.58 15 9.75 15C9.29 15 8.86 14.85 8.46 14.55L8.18 12.1C8.67 12.7 9.19 13 9.75 13C10.32 13 10.85 12.69 11.34 12.07L11.51 11.84L11.62 11.67L11.81 11.36L11.92 11.16L12 11ZM2.11 0.9C2.45 0.9 2.73 1.1 2.86 1.38L4.36 5.13L6.14 5.33L9.07 2.54C9.2 2.4 9.41 2.26 9.68 2.26C10.16 2.26 10.5 2.67 10.5 3.08C10.5 3.35 10.43 3.56 10.23 3.7L7.7 6.22L8.45 6.83L10.23 5.88L14.25 7.17C14.66 7.24 15 7.51 15.07 7.92C15.07 8.4 14.66 8.81 14.25 8.74L13.98 8.66C13.94 8.65 13.9 8.63 13.84 8.6L10.5 7.58L8.93 8.67L11.31 10.27C11.23 10.35 11.16 10.44 11.11 10.55C10.88 11.01 10.66 11.34 10.46 11.57L3.07 6.63L1.36 1.92C1.36 1.85 1.36 1.85 1.3 1.72C1.3 1.24 1.7 0.9 2.11 0.9ZM5.52 1.63C6.27 1.63 6.89 2.24 6.89 2.99C6.89 3.74 6.27 4.35 5.52 4.35C4.77 4.35 4.16 3.74 4.16 2.99C4.16 2.24 4.77 1.63 5.52 1.63Z"/>
</svg>