<svg xmlns="http://www.w3.org/2000/svg" viewBox="0 0 15 15">
  <path fill="param(fill) #888" stroke="param(outline) #000" stroke-width="param(outline-width) 0" fill-opacity="param(fill-opacity) 1" stroke-opacity="param(outline-opacity) 1" d="M9.09 0C8.8 -0.01 8.53 0.15 8.4 0.42C8.32 0.7 8.22 0.98 8.12 1.26C7.62 1.2 7.12 1.28 6.66 1.46C6.5 1.59 6.4 1.79 6.38 2C6.36 2.41 6.67 2.76 7.08 2.78C7.48 2.79 7.87 2.74 8.26 2.65C8.27 2.7 8.28 2.76 8.3 2.82C8.48 3.36 9.06 3.66 9.61 3.49C10.16 3.31 10.46 2.72 10.28 2.17C10.98 2.05 11.59 1.64 11.98 1.05C12.03 0.92 11.98 0.77 11.87 0.69C11.73 0.6 11.55 0.63 11.45 0.77C10.97 1.15 10.3 1.18 9.79 0.84C9.78 0.62 9.71 0.4 9.58 0.21C9.53 0.16 9.4 0.03 9.09 0ZM9.19 3.76C8.78 3.74 8.38 3.97 8.2 4.37L7.33 5.72C7.28 5.79 6.58 8.33 6.58 8.33C6.52 8.43 6.49 8.54 6.48 8.65C6.2 8.69 5.92 8.72 5.64 8.73C5.41 8.75 5.19 8.8 4.98 8.88C4.72 8.98 4.48 9.12 4.26 9.29C4.1 9.42 3.95 9.57 3.81 9.73C3.63 9.93 3.48 10.15 3.34 10.38C3.21 10.61 3.1 10.85 3.02 11.1C2.95 11.31 2.89 11.53 2.85 11.74C2.78 12.13 2.78 12.53 2.83 12.92C2.83 13.39 2.99 13.84 3.28 14.21C3.62 14.63 4.1 14.91 4.64 14.98C4.87 15.01 5.1 15 5.33 14.96C5.63 14.9 5.92 14.77 6.16 14.58C6.5 14.3 6.82 13.99 7.1 13.66C7.17 13.56 7.24 13.47 7.3 13.37L7.25 13.96C7.24 13.99 7.23 14.02 7.23 14.06C7.2 14.37 7.42 14.64 7.73 14.67C8.04 14.7 8.32 14.48 8.35 14.17L8.67 11.22L8.91 9.1C8.96 9.04 9.05 9.03 9.09 9.06C9.09 9.07 10.33 14.17 10.33 14.17C10.33 14.2 10.34 14.23 10.35 14.27C10.43 14.57 10.75 14.75 11.05 14.66C11.36 14.58 11.54 14.26 11.45 13.96L10.02 7.91L9.91 6.25C9.92 6.19 9.97 6.15 10.03 6.16C10.08 6.16 10.12 6.2 10.12 6.25L11.43 8.75C11.44 8.77 11.45 8.78 11.46 8.8C11.6 8.98 11.87 9.01 12.05 8.87C12.23 8.73 12.26 8.46 12.12 8.28L10.75 5.74L10.12 4.37C9.95 3.99 9.57 3.76 9.19 3.76ZM8.03 6.17C8.09 6.17 8.12 6.2 8.13 6.25L7.83 8.12L7.64 9.87C7.61 9.82 7.58 9.77 7.55 9.73C7.49 9.62 7.41 9.51 7.34 9.4L7.2 9.2C7.17 9.15 7.15 9.12 7.12 9.09C7.08 9.04 7.02 9 6.96 8.98C7.12 9 7.26 8.9 7.3 8.75L7.92 6.25C7.93 6.2 7.97 6.16 8.03 6.17ZM5.66 8.94C5.06 9.22 4.78 9.93 5.06 10.54C5.33 11.15 6.05 11.42 6.65 11.14C7.26 10.87 7.53 10.15 7.26 9.55C7.66 10.21 7.45 11.07 6.79 11.47C6.13 11.87 5.27 11.66 4.87 11C4.47 10.34 4.68 9.48 5.34 9.08C5.44 9.02 5.55 8.97 5.66 8.94ZM6.16 9.16C6.62 9.16 7 9.54 7 10C7 10.46 6.62 10.83 6.16 10.83C5.7 10.83 5.33 10.46 5.33 10C5.33 9.54 5.7 9.16 6.16 9.16ZM4.53 9.57C4.07 10.39 4.37 11.42 5.18 11.87C6 12.32 7.03 12.03 7.48 11.21V11.22L7.36 12.62L7.17 13.01L6.89 13.44L6.65 13.73L6.38 13.98L6.1 14.2L5.53 14.47C5.36 14.53 5.23 14.56 5.09 14.58C4.97 14.59 4.84 14.59 4.71 14.57C4.6 14.56 4.48 14.53 4.37 14.49C4.25 14.45 4.14 14.4 4.04 14.34C3.94 14.27 3.84 14.2 3.75 14.11C3.66 14.02 3.57 13.92 3.5 13.81L3.34 13.54L3.21 13.25L3.13 12.91L3.09 12.56V12.19L3.14 11.81L3.19 11.56L3.31 11.18L3.46 10.81L3.65 10.46L3.87 10.14L4.12 9.85L4.38 9.58L4.58 9.44C4.6 9.44 4.56 9.5 4.53 9.57ZM6.16 9.58C5.93 9.58 5.75 9.77 5.75 10C5.75 10.23 5.93 10.42 6.16 10.42C6.39 10.42 6.58 10.23 6.58 10C6.58 9.77 6.39 9.58 6.16 9.58Z"/>
</svg>