<svg xmlns="http://www.w3.org/2000/svg" viewBox="0 0 15 15">
  <path fill="param(fill) #888" stroke="param(outline) #000" stroke-width="param(outline-width) 0" fill-opacity="param(fill-opacity) 1" stroke-opacity="param(outline-opacity) 1" d="M9.25 4.5C9.93 4.5 10.53 4.96 10.69 5.63C10.88 6.4 11.21 7.85 11.31 8.93C11.36 9.34 11.06 9.71 10.65 9.75C10.24 9.79 9.87 9.49 9.83 9.07C9.74 8.16 9.46 6.88 9.27 6.09L9.27 14.2C9.27 14.64 8.91 15 8.47 15C8.07 15 7.74 14.71 7.68 14.31L7.14 10.5L6.93 10.5L6.39 14.31C6.33 14.71 5.99 15 5.6 15C5.16 15 4.8 14.64 4.8 14.2L4.8 6.09C4.61 6.88 4.33 8.16 4.24 9.07C4.2 9.49 3.83 9.79 3.42 9.75C3.01 9.71 2.71 9.34 2.75 8.93C2.86 7.85 3.19 6.4 3.38 5.63C3.54 4.96 4.14 4.5 4.81 4.5L9.25 4.5ZM6.57 5.81L6.29 6.13L6.28 6.14C6.28 6.14 6.27 6.15 6.26 6.16C6.25 6.18 6.23 6.2 6.2 6.24C6.15 6.3 6.09 6.39 6.02 6.5C5.9 6.7 5.73 7.02 5.73 7.36C5.73 7.82 6.07 8.25 6.57 8.25C7.06 8.25 7.41 7.82 7.41 7.36C7.41 7.02 7.24 6.7 7.12 6.5C7.05 6.39 6.99 6.3 6.94 6.24C6.91 6.2 6.89 6.18 6.88 6.16C6.87 6.15 6.86 6.14 6.86 6.14L6.85 6.13L6.57 5.81ZM11.41 2.43L11.69 2.75L11.7 2.76C11.7 2.77 11.71 2.78 11.72 2.78C11.73 2.8 11.75 2.83 11.78 2.86C11.83 2.93 11.9 3.02 11.96 3.13C12.08 3.33 12.25 3.65 12.25 3.98C12.25 4.44 11.91 4.88 11.41 4.88C10.92 4.88 10.57 4.44 10.57 3.98C10.57 3.65 10.74 3.33 10.86 3.13C10.93 3.02 10.99 2.93 11.04 2.86C11.07 2.83 11.09 2.8 11.1 2.78C11.11 2.78 11.12 2.77 11.12 2.76L11.13 2.75L11.41 2.43ZM7.03 0C8.06 0 8.9 0.84 8.9 1.88C8.9 2.91 8.06 3.75 7.03 3.75C6.01 3.75 5.17 2.91 5.17 1.88C5.17 0.84 6.01 0 7.03 0ZM10.11 0.07L10.34 0.4L10.35 0.43C10.36 0.44 10.37 0.46 10.39 0.48C10.42 0.53 10.46 0.6 10.5 0.68C10.57 0.83 10.67 1.07 10.67 1.3C10.67 1.46 10.62 1.62 10.53 1.74C10.44 1.86 10.3 1.97 10.11 1.97C9.92 1.97 9.77 1.86 9.68 1.74C9.6 1.62 9.55 1.46 9.55 1.3C9.55 1.07 9.64 0.83 9.72 0.68C9.76 0.6 9.8 0.53 9.83 0.48C9.84 0.46 9.85 0.44 9.86 0.43L9.87 0.41L9.88 0.4L10.11 0.07Z"/>
</svg>