<svg xmlns="http://www.w3.org/2000/svg" viewBox="0 0 15 15">
  <path fill="param(fill) #888" stroke="param(outline) #000" stroke-width="param(outline-width) 0" fill-opacity="param(fill-opacity) 1" stroke-opacity="param(outline-opacity) 1" d="M14.69 8.55C14.7 8.63 14.7 8.68 14.7 8.76C14.7 9.51 14.44 10.08 13.92 10.47L14.01 10.53C13.58 10.19 13.05 10 12.5 10C11.95 10 11.42 10.19 10.98 10.53L10.67 10.78C10.52 10.91 10.32 10.98 10.12 11L9.87 10.99L9.95 11C9.72 11 9.5 10.92 9.33 10.78L9.01 10.53C8.58 10.19 8.05 10 7.5 10C6.95 10 6.42 10.19 5.99 10.53L5.67 10.78C5.54 10.89 5.39 10.96 5.22 10.98L4.77 10.98C4.61 10.95 4.46 10.89 4.33 10.78L4.01 10.53C3.58 10.19 3.05 10 2.5 10C1.95 10 1.42 10.19 0.99 10.53L0.67 10.78C0.56 10.87 0.43 10.94 0.3 10.97L0 10.97L0 9.25L10.06 9.25L10.65 9.26C11.72 9.28 13.75 9.23 14.69 8.55ZM9.4 3.72C9.74 3.64 10.07 3.86 10.15 4.19C10.2 4.44 10.1 4.69 9.91 4.83L10.1 5.58C10.45 5.57 10.74 5.84 10.75 6.18C10.76 6.44 10.63 6.66 10.41 6.77L10.68 7.8C11.02 7.73 11.32 7.66 11.54 7.57C12.84 7.01 14.25 7.09 14.61 8.2C13.9 8.89 11.61 8.99 10.36 9L0 9L0 8L4 8L4.65 5.6C4.71 5.34 5.03 4.18 5.79 3.98C6.65 3.74 9.4 3.72 9.4 3.72ZM9.96 6.85L6.74 6.99L6.41 8.09L6.77 8.09C7.66 8.08 9.09 8.03 10.23 7.87L9.96 6.85ZM9.47 4.95L7.34 5.04L7.13 5.74L9.25 5.63C9.39 5.62 9.53 5.61 9.64 5.61L9.47 4.95ZM6.45 2.4C6.46 2.38 6.48 2.4 6.51 2.4L7.5 2.4L7.49 2.5C7.44 3.06 6.99 3.49 6.43 3.54L6.31 3.55C5.9 3.55 5.55 3.3 5.33 3L5.71 3C5.96 3 6.18 2.91 6.29 2.69L6.45 2.4ZM6.31 0.95C7 0.95 7.59 1.5 7.75 2.1L6.5 2.1C6.36 2.1 6.23 2.13 6.17 2.26L6.01 2.54C5.96 2.66 5.84 2.7 5.71 2.7L4.88 2.7C4.85 2.7 4.83 2.5 4.83 2.37C4.83 1.55 5.5 0.95 6.31 0.95ZM6.3 13.06L6.61 12.81C6.86 12.61 7.18 12.5 7.5 12.5C7.82 12.5 8.14 12.61 8.39 12.81L8.7 13.06C9.06 13.34 9.5 13.5 9.95 13.5L10.05 13.5C10.5 13.5 10.94 13.34 11.3 13.06L11.61 12.81C11.86 12.61 12.18 12.5 12.5 12.5C12.82 12.5 13.14 12.61 13.39 12.81L13.71 13.06C14.06 13.34 14.49 13.5 14.95 13.5L15 13.5L15 12L14.95 12C14.49 12 14.06 11.85 13.71 11.57L13.39 11.31C13.14 11.11 12.82 11 12.5 11C12.18 11 11.86 11.11 11.61 11.31L11.3 11.56C10.94 11.85 10.5 12 10.05 12L9.95 12C9.5 12 9.06 11.85 8.7 11.56L8.39 11.31C8.14 11.11 7.82 11 7.5 11C7.18 11 6.86 11.11 6.61 11.31L6.3 11.56C5.94 11.85 5.5 12 5.05 12L4.95 12C4.5 12 4.06 11.85 3.7 11.56L3.39 11.31C3.14 11.11 2.82 11 2.5 11C2.18 11 1.86 11.11 1.61 11.31L1.29 11.57C0.99 11.81 0.61 11.96 0.22 12L0 12L0 13.5L0.05 13.5C0.51 13.5 0.94 13.34 1.29 13.06L1.61 12.81C1.86 12.61 2.18 12.5 2.5 12.5C2.82 12.5 3.14 12.61 3.39 12.81L3.7 13.06C4.06 13.34 4.5 13.5 4.95 13.5L5.05 13.5C5.5 13.5 5.94 13.34 6.3 13.06Z"/>
</svg>