<?xml version="1.0" encoding="UTF-8"?>
<svg viewBox="0 0 15 15" version="1.1" xmlns="http://www.w3.org/2000/svg" xmlns:xlink="http://www.w3.org/1999/xlink">
  <path fill="param(fill) #888" stroke="param(outline) #000" stroke-width="param(outline-width) 0" fill-opacity="param(fill-opacity) 1" stroke-opacity="param(outline-opacity) 1" d="M0.29 5.29C-0.07 5.65 -0.1 6.22 0.21 6.61L0.29 6.71L4 10.41L4 14L6 14L6 11L13 11L13 14L15 14L15 10C15 9.49 14.61 9.06 14.12 9.01L14 9L5.42 9L1.71 5.29C1.32 4.9 0.68 4.9 0.29 5.29ZM2.94 3.69C2.39 4.24 2.36 5.11 2.84 5.7L2.94 5.81L5.44 8.31C5.91 8.78 6.63 8.88 7.21 8.57L7.33 8.5L9.56 7.01L12.26 8.55C12.93 8.94 13.78 8.74 14.22 8.12L14.3 7.99C14.69 7.32 14.49 6.47 13.87 6.03L13.74 5.95L10.24 3.95C9.8 3.69 9.25 3.69 8.8 3.92L8.67 4L6.69 5.32L5.06 3.69C4.47 3.1 3.53 3.1 2.94 3.69ZM2 0.75C1.17 0.75 0.5 1.42 0.5 2.25C0.5 3.08 1.17 3.75 2 3.75C2.83 3.75 3.5 3.08 3.5 2.25C3.5 1.42 2.83 0.75 2 0.75Z"/>
</svg>