<svg xmlns="http://www.w3.org/2000/svg" viewBox="0 0 15 15">
  <path fill="param(fill) #888" stroke="param(outline) #000" stroke-width="param(outline-width) 0" fill-opacity="param(fill-opacity) 1" stroke-opacity="param(outline-opacity) 1" d="M7.69 3.38C8.62 3.38 9.38 2.62 9.38 1.69C9.38 0.76 8.62 0 7.69 0C6.76 0 6 0.76 6 1.69C6 2.62 6.76 3.38 7.69 3.38ZM4.62 5.43C4.91 4.43 5.95 3.84 6.95 4.11C7.18 4.17 7.38 4.29 7.54 4.46C7.59 4.5 7.64 4.56 7.68 4.62L9.04 6.75L10.5 6.75C10.91 6.75 11.25 7.09 11.25 7.5C11.25 7.91 10.92 8.24 10.52 8.25L13.5 8.25C14.33 8.25 15 8.92 15 9.75L15 15L13.5 15L13.5 9.75L1.5 9.75L1.5 15L0 15L0 9.75C0 8.92 0.67 8.25 1.5 8.25L4.06 8.25C3.98 7.99 3.97 7.7 4.05 7.4L4.62 5.43ZM7.5 8.25L8.21 8.25L7.63 7.34L7.5 8.25ZM4.52 10.5L4.35 11.7L2.78 13.8C2.53 14.13 2.59 14.6 2.93 14.85C3.26 15.1 3.73 15.03 3.98 14.7L5.78 12.3L6.03 10.5L4.52 10.5ZM6.09 10.5L7.81 12.19L8.87 14.55C9.04 14.93 9.48 15.1 9.86 14.94C10.24 14.78 10.42 14.34 10.25 13.95L9.06 11.4L8.17 10.5L6.09 10.5Z"/>
</svg>