<svg xmlns="http://www.w3.org/2000/svg" viewBox="0 0 15 15">
  <path fill="param(fill) #888" stroke="param(outline) #000" stroke-width="param(outline-width) 0" fill-opacity="param(fill-opacity) 1" stroke-opacity="param(outline-opacity) 1" d="M6.21 1.46C6.21 0.65 6.86 0 7.66 0C8.47 0 9.12 0.65 9.12 1.46C9.12 2.26 8.47 2.92 7.66 2.92C6.86 2.92 6.21 2.26 6.21 1.46ZM3.81 15L0.83 15L0.83 9.58L0.83 9.17L5 9.17L4.63 14.23C4.6 14.66 4.24 15 3.81 15L3.81 15ZM8.81 15L6.25 15L5.83 10L5.83 8.34L9.17 8.34C9.62 8.34 10 8.71 10 9.17L9.64 14.23C9.61 14.66 9.25 15 8.81 15L8.81 15ZM13.81 15L11.25 15L10.83 10L10.83 8.34L14.17 8.34C14.62 8.34 15 8.71 15 9.17L14.64 14.23C14.61 14.66 14.24 15 13.8 15L13.81 15ZM0.72 9.17L0 8.75L1.67 5.87C1.9 5.47 2.41 5.33 2.8 5.56C3.2 5.79 0.72 9.17 0.72 9.17ZM9.99 4.96C9.99 4.29 9.45 3.76 8.79 3.76L6.25 3.76C5.66 3.76 5.16 4.02 4.89 4.56L3.33 7.92L4.66 7.92L5.83 5.56L5.83 7.09L10 7.09L9.99 4.96L9.99 4.96Z"/>
</svg>