<svg xmlns="http://www.w3.org/2000/svg" viewBox="0 0 15 15">
  <path fill="param(fill) #888" stroke="param(outline) #000" stroke-width="param(outline-width) 0" fill-opacity="param(fill-opacity) 1" stroke-opacity="param(outline-opacity) 1" d="M9 12.5C10.74 12.5 11.92 13.5 12.51 15L2.49 15C3.08 13.5 4.26 12.5 6 12.5L9 12.5ZM10.23 7.75C10.4 8.13 10.5 8.55 10.5 9C10.5 10.66 9.16 12 7.5 12C5.84 12 4.5 10.66 4.5 9C4.5 8.55 4.6 8.13 4.77 7.75L10.23 7.75ZM13 2.5L13 7L2 7L2 2.5L13 2.5ZM6.99 4C6.44 4 6 4.45 6 5C6 5.55 6.44 6 6.99 6C7.55 6 8 5.55 8 5C8 4.45 7.55 4 6.99 4ZM10.75 3C10.05 3 9.5 3.56 9.5 4.24C9.5 4.94 10.05 5.5 10.75 5.5C11.43 5.5 12 4.94 12 4.24C12 3.56 11.43 3 10.75 3ZM3.88 3C3.38 3 3 3.4 3 3.88C3 4.36 3.38 4.76 3.88 4.76C4.35 4.76 4.75 4.36 4.75 3.88C4.75 3.4 4.35 3 3.88 3ZM4.5 0L13 2L2 2L4.5 0Z"/>
</svg>