<svg xmlns="http://www.w3.org/2000/svg" viewBox="0 0 15 15">
  <path fill="param(fill) #888" stroke="param(outline) #000" stroke-width="param(outline-width) 0" fill-opacity="param(fill-opacity) 1" stroke-opacity="param(outline-opacity) 1" d="M1.83 8.16C0.82 8.16 0 7.34 0 6.33C0 5.32 0.82 4.5 1.83 4.5C2.83 4.5 3.65 5.32 3.65 6.33C3.65 7.34 2.83 8.16 1.83 8.16ZM15 10.5L6.5 10.5L6.5 5.21L12 5.21C13.66 5.21 15 6.55 15 8.21L15 10.5L15 10.5ZM4.21 8.7L4.21 5.98C4.21 5.48 4.61 5.08 5.11 5.08C5.6 5.08 6.01 5.48 6.01 5.98L6.01 9.6C6.01 10.09 5.6 10.5 5.11 10.5L0.94 10.5C0.44 10.5 0.04 10.09 0.04 9.6C0.04 9.1 0.44 8.7 0.94 8.7L4.21 8.7Z"/>
</svg>