<svg xmlns="http://www.w3.org/2000/svg" viewBox="0 0 15 15">
  <path fill="param(fill) #888" stroke="param(outline) #000" stroke-width="param(outline-width) 0" fill-opacity="param(fill-opacity) 1" stroke-opacity="param(outline-opacity) 1" d="M7.5 12.5L7.58 12.51L7.69 12.52L7.75 12.52L7.86 12.55L7.95 12.58L8.05 12.61L8.16 12.66L8.22 12.7L8.31 12.76L8.39 12.81L8.7 13.06C9.06 13.35 9.5 13.5 9.95 13.5L10.05 13.5C10.5 13.5 10.94 13.35 11.3 13.06L11.61 12.81C11.86 12.61 12.18 12.5 12.5 12.5C12.82 12.5 13.14 12.61 13.39 12.81L13.71 13.07C14.01 13.31 14.39 13.46 14.78 13.5L15 13.5L15 15L14.95 15C14.49 15 14.06 14.84 13.71 14.56L13.39 14.31C13.14 14.11 12.82 14 12.5 14C12.18 14 11.86 14.11 11.61 14.31L11.3 14.56C10.94 14.84 10.5 15 10.05 15L9.95 15C9.5 15 9.06 14.84 8.7 14.56L8.39 14.31C8.14 14.11 7.82 14 7.5 14C7.18 14 6.86 14.11 6.61 14.31L6.3 14.56C5.94 14.84 5.5 15 5.05 15L4.95 15C4.5 15 4.06 14.84 3.7 14.56L3.39 14.31C3.14 14.11 2.82 14 2.5 14C2.18 14 1.86 14.11 1.61 14.31L1.29 14.56C0.94 14.84 0.51 15 0.05 15L0 15L0 13.5L0.05 13.5C0.51 13.5 0.94 13.35 1.29 13.07L1.61 12.81C1.86 12.61 2.18 12.5 2.5 12.5C2.82 12.5 3.14 12.61 3.39 12.81L3.7 13.06C4.06 13.35 4.5 13.5 4.95 13.5L5.05 13.5C5.5 13.5 5.94 13.35 6.3 13.06L6.61 12.81C6.66 12.78 6.7 12.74 6.75 12.71L6.85 12.66L7.01 12.59L7.16 12.54L7.19 12.54C7.25 12.52 7.32 12.51 7.39 12.51L7.5 12.5ZM8.89 3.11C9.86 3.11 10.61 3.86 10.61 4.71L10.61 8.57C10.61 9.32 9.64 9.32 9.64 8.57L9.64 4.93L9 4.93L9 7.39L5.89 7.39L5.89 4.93L5.36 4.93L5.36 8.14C5.46 8.14 5.57 8.25 5.68 8.25L7.5 9.32L7.5 11.5L7.29 11.51C6.82 11.55 6.36 11.73 5.99 12.03L5.79 12.19L5.79 11.89L3.96 11.89L3.64 9.64L3.64 9.43C3.64 8.89 3.96 8.36 4.5 8.14L4.5 4.61C4.5 3.75 5.14 3.11 6 3.11L8.89 3.11ZM9 8.46L9 12.02L8.85 11.91C8.45 11.65 7.98 11.5 7.5 11.5L7.5 9.32L9 8.46ZM5.25 8.68C5.14 9.11 4.5 9.11 4.39 8.68L4.3 8.87C4.19 9.1 4.07 9.4 4.07 9.64L5.68 9.64C5.68 9.32 5.57 8.89 5.25 8.68ZM7.51 0C8.28 0 8.9 0.62 8.9 1.39C8.9 2.16 8.28 2.79 7.51 2.79C6.73 2.79 6.11 2.16 6.11 1.39C6.11 0.62 6.73 0 7.51 0Z"/>
</svg>