<svg xmlns="http://www.w3.org/2000/svg" viewBox="0 0 15 15">
  <path fill="param(fill) #888" stroke="param(outline) #000" stroke-width="param(outline-width) 0" fill-opacity="param(fill-opacity) 1" stroke-opacity="param(outline-opacity) 1" d="M0.01 12L0.02 12C0.32 12 0.62 11.93 0.88 11.81C1.15 11.68 1.45 11.61 1.77 11.61C2.08 11.61 2.38 11.68 2.65 11.81C2.92 11.93 3.21 12 3.51 12C3.82 12 4.11 11.93 4.37 11.81C4.64 11.68 4.94 11.61 5.26 11.61C5.57 11.61 5.88 11.68 6.14 11.81C6.41 11.93 6.7 12 7.01 12C7.31 12 7.6 11.93 7.86 11.81C8.13 11.68 8.43 11.61 8.75 11.61C9.07 11.61 9.36 11.68 9.63 11.81C9.9 11.93 10.19 12 10.5 12C10.8 12 11.09 11.93 11.35 11.81C11.62 11.68 11.92 11.61 12.24 11.61C12.56 11.61 12.77 11.68 13.04 11.81C13.3 11.93 13.52 12 13.82 12L13.82 10.69C13.52 10.69 13.3 10.61 13.04 10.49C12.77 10.37 12.51 10.3 12.2 10.3C11.94 10.3 11.71 10.34 11.49 10.42L11.33 10.49C11.07 10.61 10.79 10.69 10.48 10.69C10.24 10.69 10.01 10.64 9.79 10.56L9.63 10.49C9.36 10.37 9.06 10.3 8.74 10.3C8.49 10.3 8.25 10.34 8.03 10.42L7.86 10.49C7.6 10.61 7.31 10.69 7 10.69C6.76 10.69 6.52 10.64 6.3 10.56L6.14 10.49C5.87 10.37 5.57 10.3 5.25 10.3C5 10.3 4.76 10.34 4.54 10.42L4.37 10.49C4.11 10.61 3.81 10.69 3.51 10.69C3.26 10.69 3.03 10.64 2.8 10.56L2.64 10.49C2.37 10.37 2.07 10.3 1.76 10.3C1.5 10.3 1.26 10.34 1.04 10.42L0.87 10.49C0.61 10.61 0.31 10.69 0.01 10.69L0.01 12ZM3.53 6.51L0.99 6.71L1.18 5.39L3.05 5.26C3.55 5.24 3.48 5.75 3.48 5.75L3.53 6.51ZM8.24 6.21C7.77 6.21 7.4 5.83 7.4 5.36C7.4 4.88 7.77 4.5 8.24 4.5C8.71 4.5 9.08 4.88 9.08 5.36C9.08 5.84 8.71 6.22 8.24 6.22L8.24 6.21ZM13.43 9.52L13.44 9.52L13.13 9.4C12.86 9.27 12.56 9.2 12.24 9.2C11.98 9.2 11.75 9.24 11.52 9.33L11.35 9.4C11.09 9.52 10.8 9.59 10.5 9.59C10.19 9.59 9.9 9.52 9.63 9.4C9.36 9.27 9.06 9.2 8.75 9.2C8.43 9.2 8.13 9.27 7.86 9.4C7.6 9.52 7.31 9.59 7 9.59C6.7 9.59 6.41 9.52 6.14 9.4C5.87 9.27 5.57 9.2 5.25 9.2C4.94 9.2 4.64 9.27 4.37 9.4C4.11 9.52 3.81 9.59 3.51 9.59C3.2 9.59 2.91 9.52 2.64 9.4C2.37 9.27 2.07 9.2 1.76 9.2C1.44 9.2 1.14 9.27 0.87 9.4C0.61 9.52 0.32 9.59 0.01 9.59L0.3 7.25L10.86 6.35L9.26 4.71L9.96 4.65L11.55 6.29L15.01 5.99C15.03 7.19 13.71 9.19 13.43 9.52Z"/>
</svg>