<svg xmlns="http://www.w3.org/2000/svg" viewBox="0 0 15 15">
  <path fill="param(fill) #888" stroke="param(outline) #000" stroke-width="param(outline-width) 0" fill-opacity="param(fill-opacity) 1" stroke-opacity="param(outline-opacity) 1" d="M14.93 8.25L14.93 11.25L14.32 11.27L14.01 11.03C13.58 10.69 13.05 10.5 12.5 10.5C11.95 10.5 11.42 10.69 10.98 11.03L10.67 11.28C10.55 11.38 10.41 11.44 10.27 11.48L9.87 11.49L9.82 11.49C9.8 11.49 9.78 11.49 9.77 11.48L12.48 8.25L14.93 8.25ZM5.11 8.11L7.09 4.77L7.13 4.69C7.3 4.4 7.92 3.54 9.14 4.23L13.02 6.34C13.91 6.82 13.23 7.98 12.34 7.5L9.61 6L8.39 8.11L11.39 8.11L9.97 9.71C9.5 10.22 9.13 10.63 8.86 10.92L9.01 11.03C8.58 10.69 8.05 10.5 7.5 10.5C6.95 10.5 6.42 10.69 5.99 11.03L5.67 11.28C5.57 11.36 5.46 11.42 5.34 11.46L4.64 11.45C4.52 11.41 4.42 11.36 4.33 11.28L4.01 11.03C3.58 10.69 3.05 10.5 2.5 10.5C2.14 10.5 1.78 10.58 1.46 10.74L1.02 10.14C0.53 9.43 0.01 8.64 -0.14 8.11L5.11 8.11ZM9.75 1.3C10.5 1.3 11.11 1.91 11.11 2.66C11.11 3.41 10.5 4.02 9.75 4.02C9 4.02 8.39 3.41 8.39 2.66C8.39 1.91 9 1.3 9.75 1.3ZM6.3 13.56L6.61 13.31C6.86 13.11 7.18 13 7.5 13C7.82 13 8.14 13.11 8.39 13.31L8.7 13.56C9.06 13.84 9.5 14 9.95 14L10.05 14C10.5 14 10.94 13.84 11.3 13.56L11.61 13.31C11.86 13.11 12.18 13 12.5 13C12.82 13 13.14 13.11 13.39 13.31L13.71 13.56C14.01 13.81 14.39 13.96 14.78 13.99L15 14L15 12.5L14.95 12.5C14.49 12.5 14.06 12.35 13.71 12.07L13.39 11.81C13.14 11.61 12.82 11.5 12.5 11.5C12.18 11.5 11.86 11.61 11.61 11.81L11.3 12.06C10.94 12.35 10.5 12.5 10.05 12.5L9.95 12.5C9.5 12.5 9.06 12.35 8.7 12.06L8.39 11.81C8.14 11.61 7.82 11.5 7.5 11.5C7.18 11.5 6.86 11.61 6.61 11.81L6.3 12.06C5.94 12.35 5.5 12.5 5.05 12.5L4.95 12.5C4.5 12.5 4.06 12.35 3.7 12.06L3.39 11.81C3.14 11.61 2.82 11.5 2.5 11.5C2.18 11.5 1.86 11.61 1.61 11.81L1.29 12.07C0.99 12.31 0.61 12.46 0.22 12.5L0 12.5L0 14L0.05 14C0.51 14 0.94 13.84 1.29 13.56L1.61 13.31C1.86 13.11 2.18 13 2.5 13C2.82 13 3.14 13.11 3.39 13.31L3.7 13.56C4.06 13.84 4.5 14 4.95 14L5.05 14C5.5 14 5.94 13.84 6.3 13.56Z"/>
</svg>