<svg xmlns="http://www.w3.org/2000/svg" viewBox="0 0 15 15">
  <path fill="param(fill) #888" stroke="param(outline) #000" stroke-width="param(outline-width) 0" fill-opacity="param(fill-opacity) 1" stroke-opacity="param(outline-opacity) 1" d="M13.27 7.26C13.57 7.26 13.82 7.51 13.82 7.82C13.82 8.12 13.57 8.36 13.27 8.36C12.96 8.36 12.72 8.12 12.72 7.82C12.72 7.51 12.96 7.27 13.27 7.27L13.27 7.26ZM5.62 2.69C4.96 2.69 4.43 2.15 4.43 1.49C4.43 0.83 4.96 0.3 5.62 0.3C6.28 0.3 6.82 0.83 6.82 1.49C6.82 2.15 6.28 2.69 5.62 2.69ZM0.48 13.31L2.42 11.02L3.03 7.48L3.56 5.09L2.96 5.43L1.94 7.39C1.86 7.53 1.73 7.64 1.58 7.68C1.42 7.73 1.25 7.72 1.11 7.64C0.97 7.57 0.86 7.44 0.82 7.28C0.77 7.13 0.78 6.96 0.86 6.82L1.99 4.68C2.01 4.65 2.03 4.61 2.07 4.57C2.15 4.49 2.33 4.39 2.33 4.39L4.49 3.17C4.76 3.03 5.06 2.98 5.37 3.05C5.49 3.08 5.61 3.12 5.74 3.2L5.77 3.21C5.88 3.27 6.27 3.5 6.51 4.06L7.62 6.29L9.37 6.63L9.41 6.64L10.99 5.53C11.34 5.28 11.39 4.54 11.39 4.51C11.43 4 11.73 3.52 12.2 3.19C12.62 2.89 13.13 2.76 13.6 2.84C13.97 2.9 14.27 3.09 14.47 3.36C14.63 3.58 14.71 3.84 14.71 4.11L14.69 4.35C14.6 4.82 14.32 5.26 13.89 5.56C13.47 5.87 12.96 5.99 12.49 5.91L12.38 5.89C12.37 5.89 11.67 5.67 11.32 5.9L9.83 6.96L9.87 7.05C9.9 7.1 9.92 7.17 9.91 7.24C9.91 7.28 9.91 7.31 9.9 7.35C9.84 7.68 9.52 7.9 9.19 7.83L7.09 7.42C7.09 7.42 6.91 7.37 6.84 7.31C6.77 7.27 6.72 7.19 6.69 7.14L6.11 5.99L5.73 7.79C5.73 7.81 5.73 7.82 5.73 7.82L7.45 9.63L7.51 9.67C7.67 9.82 7.8 10.01 7.8 10.22L7.8 13.98C7.8 14.39 7.45 14.71 7.05 14.71C6.65 14.71 6.3 14.39 6.3 13.98L6.3 10.85C6 10.69 4.85 9.33 4.5 8.98L4.13 11.09C4.11 11.23 4.04 11.36 3.96 11.46L1.58 14.26C1.46 14.4 1.28 14.5 1.09 14.51C0.89 14.53 0.71 14.47 0.56 14.34C0.39 14.2 0.3 13.99 0.3 13.79C0.3 13.65 0.33 13.52 0.41 13.41L0.48 13.31ZM12 5.12C12.13 5.3 12.33 5.41 12.57 5.45C12.92 5.51 13.3 5.42 13.62 5.18C13.94 4.95 14.16 4.62 14.22 4.28L14.24 4.11C14.24 3.93 14.19 3.77 14.09 3.63C13.77 3.19 13.05 3.16 12.47 3.57C11.94 3.95 11.72 4.58 11.94 5.03L12 5.12Z"/>
</svg>