<svg xmlns="http://www.w3.org/2000/svg" viewBox="0 0 15 15">
  <path fill="param(fill) #888" stroke="param(outline) #000" stroke-width="param(outline-width) 0" fill-opacity="param(fill-opacity) 1" stroke-opacity="param(outline-opacity) 1" d="M4.14 11.33L4.23 11.37L4.38 11.42C4.56 11.47 4.76 11.5 4.95 11.5L5.05 11.5C5.27 11.5 5.5 11.46 5.71 11.39C5.76 11.37 5.81 11.35 5.86 11.33L6.02 11.25C6.12 11.2 6.21 11.13 6.3 11.06L6.61 10.81C6.86 10.61 7.18 10.5 7.5 10.5C7.82 10.5 8.14 10.61 8.39 10.81L8.7 11.06C8.79 11.13 8.88 11.2 8.98 11.25L9.14 11.33L9.23 11.37L9.38 11.42C9.56 11.47 9.76 11.5 9.95 11.5L10.05 11.5C10.16 11.5 10.27 11.49 10.39 11.47L10.53 11.44L10.7 11.39C10.79 11.36 10.87 11.32 10.95 11.28C11.07 11.22 11.19 11.15 11.3 11.06L11.67 10.77L11.79 10.69C12 10.57 12.25 10.5 12.5 10.5C12.82 10.5 13.14 10.61 13.39 10.81L13.71 11.07C14.01 11.31 14.39 11.46 14.78 11.5L15 11.5L15 13L14.95 13C14.49 13 14.06 12.84 13.71 12.56L13.39 12.31C13.14 12.11 12.82 12 12.5 12C12.18 12 11.86 12.11 11.61 12.31L11.3 12.56C10.94 12.84 10.5 13 10.05 13L9.95 13C9.5 13 9.06 12.84 8.7 12.56L8.39 12.31C8.14 12.11 7.82 12 7.5 12C7.18 12 6.86 12.11 6.61 12.31L6.3 12.56C5.94 12.84 5.5 13 5.05 13L4.95 13C4.5 13 4.06 12.84 3.7 12.56L3.39 12.31C3.14 12.11 2.82 12 2.5 12C2.18 12 1.86 12.11 1.61 12.31L1.29 12.56C0.99 12.81 0.61 12.96 0.22 12.99L0 13L0 11.5L0.05 11.5C0.51 11.5 0.94 11.35 1.29 11.07L1.61 10.81C1.86 10.61 2.18 10.5 2.5 10.5C2.75 10.5 3 10.57 3.21 10.69L3.3 10.75L3.39 10.81L3.7 11.06C3.79 11.13 3.88 11.2 3.98 11.25L4.14 11.33ZM9.91 5.02C10.77 5.02 11.79 6.09 11.79 7.69L11.79 9.61C11.5 9.7 11.23 9.84 10.98 10.03L10.67 10.28C10.6 10.34 10.53 10.38 10.45 10.42L10.45 7.16C10.41 6.52 10.2 6.41 9.91 6.41L9.91 10.5L9.82 10.49C9.64 10.47 9.47 10.39 9.33 10.28L9.01 10.03C8.58 9.69 8.05 9.5 7.5 9.5C6.95 9.5 6.42 9.69 5.99 10.03L5.67 10.28C5.51 10.41 5.3 10.49 5.09 10.5L5.09 6.41C4.8 6.41 4.55 6.51 4.55 7.16L4.55 10.42C4.47 10.38 4.39 10.34 4.33 10.28L4.01 10.03C3.77 9.84 3.5 9.7 3.21 9.61L3.21 7.69C3.21 6.09 4.23 5.02 5.09 5.02L9.91 5.02ZM7.5 1C8.54 1 9.38 1.84 9.38 2.87C9.38 3.91 8.54 4.75 7.5 4.75C6.46 4.75 5.63 3.91 5.63 2.87C5.63 1.84 6.46 1 7.5 1Z"/>
</svg>