<svg xmlns="http://www.w3.org/2000/svg" viewBox="0 0 15 15">
  <path fill="param(fill) #888" stroke="param(outline) #000" stroke-width="param(outline-width) 0" fill-opacity="param(fill-opacity) 1" stroke-opacity="param(outline-opacity) 1" d="M1 1L14 1L14 3L1 3L1 1ZM1 12L14 12L14 14L1 14L1 12ZM14 9L14 11L13 11L13 10L2 10L2 11L1 11L1 4.5C1 4.22 1.22 4 1.5 4C1.78 4 2 4.22 2 4.5L2 9L14 9ZM12.5 5C13.5 5 14 5.5 14 6.5L14 8L6 8L6 6C6 5.5 6.5 5 7 5L12.5 5ZM4 4.5C4.83 4.5 5.5 5.17 5.5 6C5.5 6.83 4.83 7.5 4 7.5C3.17 7.5 2.5 6.83 2.5 6C2.5 5.17 3.17 4.5 4 4.5Z"/>
</svg>