<svg xmlns="http://www.w3.org/2000/svg" viewBox="0 0 15 15">
  <path fill="param(fill) #888" stroke="param(outline) #000" stroke-width="param(outline-width) 0" fill-opacity="param(fill-opacity) 1" stroke-opacity="param(outline-opacity) 1" d="M13.48 4.32C13.58 4.73 13.33 5.13 12.93 5.23C11.76 5.51 10.73 5.72 9.75 5.84L9.75 8.97L10.12 14.2C10.15 14.61 9.84 14.97 9.43 15C9.02 15.03 8.66 14.72 8.63 14.3L8.36 10.5L6.64 10.5L6.37 14.3C6.34 14.72 5.98 15.03 5.57 15C5.16 14.97 4.85 14.61 4.88 14.2L5.25 8.97L5.25 5.85C4.27 5.73 3.23 5.52 2.07 5.23C1.67 5.13 1.42 4.72 1.52 4.32C1.62 3.92 2.03 3.67 2.43 3.77C4.43 4.27 5.95 4.5 7.47 4.5C8.99 4.5 10.53 4.26 12.57 3.77C12.98 3.67 13.38 3.92 13.48 4.32ZM7.5 0C8.54 0 9.38 0.84 9.38 1.87C9.38 2.91 8.54 3.75 7.5 3.75C6.46 3.75 5.63 2.91 5.63 1.87C5.63 0.84 6.46 0 7.5 0Z"/>
</svg>