<svg xmlns="http://www.w3.org/2000/svg" viewBox="0 0 15 15">
  <path fill="param(fill) #888" stroke="param(outline) #000" stroke-width="param(outline-width) 0" fill-opacity="param(fill-opacity) 1" stroke-opacity="param(outline-opacity) 1" d="M2.54 3.92C3.09 3.02 3.88 2.88 4.24 2.94L6.78 3.04C7.71 3.04 8.21 4.09 8.27 5.13L8.61 9.47L10.27 10.34L9.51 10.66C9.3 10.75 9.12 10.92 8.99 11.12L5.68 9.39L6.24 10.28C6.45 10.6 6.56 10.98 6.56 11.36L6.56 14L5.31 14L5.31 11.35C5.31 11.22 5.27 11.09 5.2 10.99L3.91 8.97L1.07 13.9L0 13.23L3.01 7.99L0.91 6.89ZM12.39 8.95C12.61 8.96 12.81 9.09 12.91 9.29L14.91 13.05L14.92 13.05C15.03 13.24 15.03 13.48 14.91 13.68C14.8 13.88 14.6 13.99 14.37 13.99L9.36 13.99C9.15 13.99 8.96 13.88 8.84 13.7C8.73 13.51 8.71 13.28 8.79 13.08L9.42 11.59C9.48 11.43 9.6 11.31 9.75 11.25L10.95 10.75L11.84 9.25C11.96 9.06 12.16 8.95 12.37 8.95ZM7.1 5.96L5.96 8.08L7.32 8.79L7.1 5.96ZM4.14 4.25C4.05 4.25 3.83 4.25 3.61 4.61L2.66 6.35L3.67 6.88L4.52 5.4L5.09 4.28L4.14 4.25ZM9.01 1C9.73 1 10.31 1.58 10.31 2.3C10.31 3.02 9.73 3.6 9.01 3.6C8.29 3.6 7.71 3.02 7.71 2.3C7.71 1.58 8.29 1 9.01 1Z"/>
</svg>