<svg xmlns="http://www.w3.org/2000/svg" viewBox="0 0 15 15">
  <path fill="param(fill) #888" stroke="param(outline) #000" stroke-width="param(outline-width) 0" fill-opacity="param(fill-opacity) 1" stroke-opacity="param(outline-opacity) 1" d="M8.25 1.88C8.25 2.91 7.41 3.75 6.38 3.75C5.34 3.75 4.5 2.91 4.5 1.88C4.5 0.84 5.34 0 6.38 0C7.41 0 8.25 0.84 8.25 1.88ZM7.5 4.5C8.03 4.51 8.71 4.55 9.35 4.78C10.21 5.09 10.99 5.74 11.24 6.98C11.32 7.38 11.05 7.78 10.65 7.86C10.24 7.94 9.85 7.68 9.76 7.27C9.64 6.63 9.29 6.35 8.84 6.19C8.77 6.17 8.7 6.14 8.63 6.12L8.63 14.2C8.63 14.64 8.27 15 7.82 15C7.42 15 7.08 14.71 7.03 14.31L6.48 10.5L6.27 10.5L5.72 14.31C5.67 14.71 5.33 15 4.93 15C4.48 15 4.13 14.64 4.13 14.2L4.13 9.75C2.68 9.75 1.5 8.57 1.5 7.13C1.5 5.68 2.68 4.5 4.13 4.5L7.5 4.5ZM11.81 7.69C12.19 7.69 12.6 7.81 12.92 8.07C13.26 8.35 13.5 8.77 13.5 9.3L13.5 14.25C13.5 14.56 13.25 14.81 12.94 14.81C12.63 14.81 12.38 14.56 12.38 14.25L12.38 9.3C12.38 9.13 12.31 9.03 12.21 8.95C12.11 8.86 11.95 8.81 11.81 8.81C11.67 8.81 11.52 8.86 11.41 8.95C11.33 9.01 11.28 9.09 11.26 9.21L11.25 9.3C11.25 9.61 11 9.86 10.69 9.86C10.38 9.86 10.13 9.61 10.13 9.3C10.13 8.77 10.36 8.35 10.7 8.07C11.03 7.81 11.44 7.69 11.81 7.69ZM4.13 6C3.5 6 3 6.5 3 7.13C3 7.75 3.5 8.25 4.13 8.25L4.13 6Z"/>
</svg>