<?xml version="1.0" encoding="UTF-8"?>
<svg viewBox="0 0 15 15" version="1.1" xmlns="http://www.w3.org/2000/svg" xmlns:xlink="http://www.w3.org/1999/xlink">
  <path fill="param(fill) #888" stroke="param(outline) #000" stroke-width="param(outline-width) 0" fill-opacity="param(fill-opacity) 1" stroke-opacity="param(outline-opacity) 1" d="M15 5.18L15 6L11.73 6C11.73 6 11.73 6.48 11.18 6.48L9.78 6.55C9.86 6.6 9.94 6.95 9.64 7.28L9.55 7.36L6.68 9.68C6.68 9.68 6.34 10.02 5.73 9.61L4.64 9.14L4.64 12.95L0 12.95L0 7.49C-0.01 7.38 -0.09 6.2 0.95 6.14L3.89 6.14L4.5 5.59C4.57 5.52 4.64 5.45 4.77 5.45L14.52 5.45L14.59 5.25C14.59 5.18 14.66 5.18 14.66 5.18L15 5.18ZM7.98 6.61L5.52 6.68C5.52 6.68 5.59 7.23 5.05 7.3L6.41 7.91L7.98 6.61ZM2.38 2.05C3.33 2.05 4.09 2.81 4.09 3.75C4.09 4.69 3.33 5.46 2.38 5.46C1.44 5.46 0.68 4.69 0.68 3.75C0.68 2.81 1.44 2.05 2.38 2.05ZM8.86 4.09L8.86 5.09L4.77 5.09L4.77 4.09L8.86 4.09Z"/>
</svg>