<svg xmlns="http://www.w3.org/2000/svg" viewBox="0 0 15 15">
  <path fill="param(fill) #888" stroke="param(outline) #000" stroke-width="param(outline-width) 0" fill-opacity="param(fill-opacity) 1" stroke-opacity="param(outline-opacity) 1" d="M2.5 9C2.82 9 3.14 9.11 3.39 9.31L3.7 9.56C4.06 9.85 4.5 10 4.95 10L5.05 10C5.5 10 5.94 9.85 6.3 9.56L6.61 9.31C6.86 9.11 7.18 9 7.5 9C7.82 9 8.14 9.11 8.39 9.31L8.7 9.56C9.06 9.85 9.5 10 9.95 10L10.05 10C10.5 10 10.94 9.85 11.3 9.56L11.61 9.31C11.86 9.11 12.18 9 12.5 9L12.58 9L12.67 9.01L12.74 9.02L12.88 9.05C13.07 9.11 13.24 9.19 13.39 9.31L13.71 9.57C14.01 9.81 14.39 9.96 14.78 10L15 10L15 11.5L14.95 11.5C14.49 11.5 14.06 11.34 13.71 11.06L13.39 10.81C13.14 10.61 12.82 10.5 12.5 10.5C12.18 10.5 11.86 10.61 11.61 10.81L11.3 11.06C10.94 11.34 10.5 11.5 10.05 11.5L9.95 11.5C9.5 11.5 9.06 11.34 8.7 11.06L8.39 10.81C8.14 10.61 7.82 10.5 7.5 10.5C7.18 10.5 6.86 10.61 6.61 10.81L6.3 11.06C5.94 11.34 5.5 11.5 5.05 11.5L4.95 11.5C4.5 11.5 4.06 11.34 3.7 11.06L3.39 10.81C3.14 10.61 2.82 10.5 2.5 10.5C2.18 10.5 1.86 10.61 1.61 10.81L1.29 11.06C0.99 11.31 0.61 11.46 0.22 11.49L0 11.5L0 10L0.05 10C0.45 10 0.83 9.88 1.16 9.67L1.29 9.57L1.61 9.31C1.86 9.11 2.18 9 2.5 9ZM9.96 3.65L11.55 5.29L15.01 4.99C15 6.03 14.23 7.3 13.53 8.24C13.21 8.08 12.86 8 12.5 8C11.95 8 11.42 8.19 10.98 8.53L10.67 8.78C10.5 8.92 10.28 9 10.05 9L9.95 9C9.72 9 9.5 8.92 9.33 8.78L9.01 8.53C8.58 8.19 8.05 8 7.5 8C6.95 8 6.42 8.19 5.99 8.53L5.67 8.78C5.5 8.92 5.28 9 5.05 9L4.95 9C4.72 9 4.5 8.92 4.33 8.78L4.01 8.53C3.58 8.19 3.05 8 2.5 8C1.95 8 1.42 8.19 0.99 8.53L0.67 8.78C0.5 8.92 0.28 9 0.06 9L0.3 6.25L10.86 5.35L9.26 3.71L9.96 3.65ZM3.05 4.26C3.55 4.24 3.48 4.75 3.48 4.75L3.53 5.51L0.99 5.71L1.18 4.39L3.05 4.26ZM8.24 3.5C8.71 3.5 9.08 3.88 9.08 4.36C9.08 4.84 8.71 5.22 8.24 5.22L8.24 5.21C7.77 5.21 7.4 4.83 7.4 4.36C7.4 3.88 7.77 3.5 8.24 3.5Z"/>
</svg>