<svg xmlns="http://www.w3.org/2000/svg" viewBox="0 0 15 15">
  <path fill="param(fill) #888" stroke="param(outline) #000" stroke-width="param(outline-width) 0" fill-opacity="param(fill-opacity) 1" stroke-opacity="param(outline-opacity) 1" d="M5.77 3.1C6.17 3.51 6.29 4.11 6.1 4.62L5.57 6.83L7.31 8.58C7.63 8.9 7.63 9.43 7.31 9.76C6.99 10.08 6.46 10.08 6.14 9.76L4.4 8C4.12 7.73 3.96 7.37 3.92 7L2.94 7.98L3.94 9.31C4.12 9.56 4.23 9.85 4.26 10.15L4.65 14.08C4.7 14.54 4.36 14.95 3.91 15C3.45 15.04 3.05 14.71 3 14.25L2.61 10.31C1.54 9.58 0.7 8.55 0.21 7.35C-0.14 6.71 -0.05 5.9 0.48 5.36L2.73 3.1C3.57 2.26 4.93 2.26 5.77 3.1ZM12.93 12.08C13.39 12.08 13.76 12.46 13.76 12.92C13.76 12.99 13.75 13.05 13.73 13.12C14.5 13.31 15 13.61 15 13.96C15 14.53 13.61 15 11.9 15C10.18 15 8.79 14.53 8.79 13.96C8.79 13.38 10.18 12.92 11.9 12.92C11.97 12.92 12.03 12.92 12.1 12.92C12.1 12.46 12.47 12.08 12.93 12.08ZM10.65 10.42C11 10.42 11.28 10.7 11.28 11.04C11.28 11.39 11 11.67 10.65 11.67C10.31 11.67 10.03 11.39 10.03 11.04C10.03 10.7 10.31 10.42 10.65 10.42ZM12.72 9.17C13.07 9.17 13.34 9.45 13.34 9.79C13.34 10.14 13.07 10.42 12.72 10.42C12.38 10.42 12.1 10.14 12.1 9.79C12.1 9.45 12.38 9.17 12.72 9.17ZM10.86 6.67C11.32 6.67 11.69 7.04 11.69 7.5C11.69 7.96 11.32 8.33 10.86 8.33C10.4 8.33 10.03 7.96 10.03 7.5C10.03 7.04 10.4 6.67 10.86 6.67ZM9.83 4.58C10.17 4.58 10.45 4.86 10.45 5.21C10.45 5.55 10.17 5.83 9.83 5.83C9.48 5.83 9.21 5.55 9.21 5.21C9.21 4.86 9.48 4.58 9.83 4.58ZM8.17 0C9.2 0 10.03 0.84 10.03 1.87C10.03 2.91 9.2 3.75 8.17 3.75C7.14 3.75 6.31 2.91 6.31 1.87C6.31 0.84 7.14 0 8.17 0Z"/>
</svg>