<svg xmlns="http://www.w3.org/2000/svg" viewBox="0 0 15 15">
  <path fill="param(fill) #888" stroke="param(outline) #000" stroke-width="param(outline-width) 0" fill-opacity="param(fill-opacity) 1" stroke-opacity="param(outline-opacity) 1" d="M1 4L3.07 6.17L3.86 5.44L3.14 4.01L1 4ZM10.3 10.08C10.69 10.19 11.11 9.97 11.22 9.55C11.33 9.15 11.1 8.73 10.7 8.62L10.4 8.54L10.01 9.99L10.3 10.09L10.3 10.08ZM10.06 8.44L7.59 7.72C7.43 7.68 7.27 7.79 7.22 7.95L6.99 8.8C6.95 8.97 7.03 9.13 7.2 9.19L9.67 9.89L10.06 8.45L10.06 8.44ZM10.45 10.86C10.26 10.67 10.03 10.53 9.76 10.44L6.76 9.58L4.93 6.23C4.83 6.05 4.67 5.92 4.47 5.86C4.07 5.74 3.65 5.98 3.54 6.4C3.48 6.59 3.51 6.8 3.6 6.97L5.89 11.12C5.89 11.12 6.08 11.43 6.56 11.59L10.74 12.8L12.68 14.82C12.75 14.9 12.83 14.95 12.93 14.98C13.22 15.06 13.53 14.88 13.61 14.59C13.67 14.38 13.6 14.16 13.46 14.02L10.45 10.86ZM12.68 11.69L13.12 12.28L14 11.29L13.25 10.86C13.32 10.31 13 9.79 12.47 9.65C11.91 9.48 11.31 9.82 11.16 10.42C10.99 11 11.33 11.62 11.9 11.77C12.18 11.85 12.45 11.81 12.68 11.69L12.68 11.69ZM12 0C12.67 1.33 13.42 2 14.25 2C14.51 2 14.76 1.94 15 1.81L15 3.36C14.76 3.45 14.51 3.5 14.25 3.5C13.42 3.5 12.67 3 12 2C11.33 3 10.58 3.5 9.75 3.5C8.92 3.5 8.17 3 7.5 2C6.83 3 6.08 3.5 5.25 3.5C4.42 3.5 3.67 3 3 2C2.33 3 1.58 3.5 0.75 3.5C0.49 3.5 0.24 3.45 0 3.36L0 1.81C0.24 1.94 0.49 2 0.75 2C1.58 2 2.33 1.33 3 0C3.67 1.33 4.42 2 5.25 2C6.08 2 6.83 1.33 7.5 0C8.17 1.33 8.92 2 9.75 2C10.58 2 11.33 1.33 12 0Z"/>
</svg>