<svg xmlns="http://www.w3.org/2000/svg" viewBox="0 0 15 15">
  <path fill="param(fill) #888" stroke="param(outline) #000" stroke-width="param(outline-width) 0" fill-opacity="param(fill-opacity) 1" stroke-opacity="param(outline-opacity) 1" d="M5.07 5.26C4.8 3.48 7.29 2.95 7.68 4.76L8.36 8.23L10.88 8.24C11.62 8.24 12 8.85 12 9.41L12 14.14C12 15.29 10.41 15.28 10.41 14.12C10.41 13.04 10.41 10.45 10.41 10.45L7.19 10.45C6.44 10.45 5.97 9.91 5.85 9.3L5.07 5.26ZM4.77 1.66C4.72 2.24 5 2.79 5.47 3.09C5.95 3.4 6.56 3.4 7.03 3.09C7.51 2.79 7.78 2.24 7.74 1.66C7.78 1.08 7.51 0.53 7.03 0.23C6.56 -0.08 5.95 -0.08 5.47 0.23C5 0.53 4.72 1.08 4.77 1.66L4.77 1.66ZM3.02 7.12C2.84 6.13 4.1 5.9 4.27 6.89L4.83 9.98C4.95 10.62 5.41 11.18 6.07 11.38C6.26 11.45 6.47 11.45 6.67 11.47L8.49 11.48C9.46 11.47 9.45 12.79 8.48 12.78L6.57 12.77C6.27 12.77 5.98 12.73 5.68 12.64C4.55 12.29 3.76 11.33 3.55 10.21L3.02 7.12Z"/>
</svg>