<svg xmlns="http://www.w3.org/2000/svg" viewBox="0 0 15 15">
  <path fill="param(fill) #888" stroke="param(outline) #000" stroke-width="param(outline-width) 0" fill-opacity="param(fill-opacity) 1" stroke-opacity="param(outline-opacity) 1" d="M8.73 6.48C8.36 6.48 8.04 6.7 7.99 7L7.3 13.77C7.3 13.98 7.36 14.11 7.36 14.25L7.57 14.73L7.7 15L13.09 15L13.3 14.59L13.77 14.11C13.98 13.84 14.05 13.43 14.05 13.43L14.32 11.66C14.39 11.32 14.11 11.05 13.7 11.05C13.3 11.05 12.95 11.18 12.95 11.39L12.95 11.45L12.55 11.45L12.61 10.84C12.61 10.57 12.34 10.36 11.93 10.36C11.56 10.31 11.24 10.47 11.19 10.65L11.11 11.11L10.77 11.05L10.91 10.36C10.98 10.16 10.7 9.89 10.3 9.89C9.93 9.89 9.62 10 9.56 10.22L9.48 10.84L9.14 10.77L9.41 7.09C9.41 6.75 9.14 6.48 8.73 6.48ZM0 0L0 12.75L2.59 12.82C5.75 12.75 5.86 11.46 5.75 11.04L5.73 10.98C5.41 10.08 5.14 10.27 5.45 9.61L5.52 9.48C5.93 8.66 6.07 8.73 6.48 8.25C6.82 7.84 5.18 7.77 5.18 7.77L6.55 6.68L6.58 6.66C6.64 6.63 6.75 6.54 6.75 6.34C6.75 6.1 6.69 6.07 6.54 5.78L6.48 5.66C6.27 5.25 6.07 4.43 6.07 4.43L6.39 4.38L6.73 4.3C7.31 4.15 8.06 3.87 7.98 3.41C7.91 3.27 7.84 3.07 7.77 2.86L6.61 0.27L6.48 0L0 0Z"/>
</svg>