<svg xmlns="http://www.w3.org/2000/svg" viewBox="0 0 15 15">
  <path fill="param(fill) #888" stroke="param(outline) #000" stroke-width="param(outline-width) 0" fill-opacity="param(fill-opacity) 1" stroke-opacity="param(outline-opacity) 1" d="M9.66 4.67L8.21 6.84C8.1 6.99 7.72 7.4 7.08 7.01L5.75 6.23L4.48 7.97L4.95 8.28L10.15 8.28C10.15 8.28 11.63 8.08 11.87 6.68C13.51 7.5 14.34 8.46 14.34 9.56C14.34 10.05 14.2 10.46 14 10.79L13.93 10.79L13.8 10.88C13.41 10.63 12.96 10.5 12.5 10.5C11.95 10.5 11.42 10.69 10.98 11.03L10.67 11.28C10.5 11.42 10.28 11.5 10.05 11.5L9.95 11.5C9.72 11.5 9.5 11.42 9.33 11.28L9.01 11.03C8.58 10.69 8.05 10.5 7.5 10.5C6.95 10.5 6.42 10.69 5.99 11.03L5.67 11.28C5.5 11.42 5.28 11.5 5.05 11.5L4.95 11.5C4.72 11.5 4.5 11.42 4.33 11.28L4.01 11.03C3.58 10.69 3.05 10.5 2.5 10.5C1.95 10.5 1.42 10.69 0.99 11.03L0.75 11.22L0.75 8.32L3.09 4.75L3.15 4.64C3.35 4.32 4 3.5 5.28 4.21L7.47 5.38L8.41 3.89C8.96 2.96 10.21 3.66 9.66 4.67ZM6.25 0.5C7.02 0.5 7.63 1.12 7.63 1.88C7.63 2.65 7.02 3.27 6.25 3.27C5.49 3.27 4.87 2.65 4.87 1.88C4.87 1.12 5.49 0.5 6.25 0.5ZM6.3 13.56L6.61 13.31C6.86 13.11 7.18 13 7.5 13C7.82 13 8.14 13.11 8.39 13.31L8.7 13.56C9.06 13.84 9.5 14 9.95 14L10.05 14C10.5 14 10.94 13.84 11.3 13.56L11.61 13.31C11.86 13.11 12.18 13 12.5 13C12.82 13 13.14 13.11 13.39 13.31L13.71 13.56C14.01 13.81 14.39 13.96 14.78 13.99L15 14L15 12.5L14.95 12.5C14.49 12.5 14.06 12.35 13.71 12.07L13.39 11.81C13.14 11.61 12.82 11.5 12.5 11.5C12.18 11.5 11.86 11.61 11.61 11.81L11.3 12.06C10.94 12.35 10.5 12.5 10.05 12.5L9.95 12.5C9.5 12.5 9.06 12.35 8.7 12.06L8.39 11.81C8.14 11.61 7.82 11.5 7.5 11.5C7.18 11.5 6.86 11.61 6.61 11.81L6.3 12.06C5.94 12.35 5.5 12.5 5.05 12.5L4.95 12.5C4.5 12.5 4.06 12.35 3.7 12.06L3.39 11.81C3.14 11.61 2.82 11.5 2.5 11.5C2.18 11.5 1.86 11.61 1.61 11.81L1.29 12.07C0.99 12.31 0.61 12.46 0.22 12.5L0 12.5L0 14L0.05 14C0.51 14 0.94 13.84 1.29 13.56L1.61 13.31C1.86 13.11 2.18 13 2.5 13C2.82 13 3.14 13.11 3.39 13.31L3.7 13.56C4.06 13.84 4.5 14 4.95 14L5.05 14C5.5 14 5.94 13.84 6.3 13.56Z"/>
</svg>