<svg xmlns="http://www.w3.org/2000/svg" viewBox="0 0 15 15">
  <path fill="param(fill) #888" stroke="param(outline) #000" stroke-width="param(outline-width) 0" fill-opacity="param(fill-opacity) 1" stroke-opacity="param(outline-opacity) 1" d="M6.53 1.6C6.53 1.03 6.07 0.62 5.55 0.62C4.98 0.62 4.57 1.07 4.57 1.6C4.57 2.16 5.02 2.58 5.55 2.58C6.11 2.58 6.53 2.12 6.53 1.6M8.98 0.98C8.98 0.42 8.52 0 8 0C7.43 0 7.02 0.46 7.02 0.98C7.02 1.55 7.47 1.96 8 1.96C8.56 1.96 8.98 1.51 8.98 0.98M10.45 0.78C10.37 0.57 10.13 0.45 9.91 0.54C9.9 0.54 9.89 0.55 9.88 0.55C9.98 0.59 10.08 0.65 10.16 0.72C10.46 1 10.48 1.48 10.2 1.8C10.14 1.84 10.13 1.92 10.17 1.97C10.18 1.99 10.19 2 10.2 2C10.44 2.33 10.67 2.67 10.86 2.98C10.89 3.03 10.9 3.09 10.88 3.14C10.85 3.2 10.77 3.23 10.71 3.19L9.89 2.58L9.58 3.56L11.05 4.38C11.36 4.59 11.77 4.59 12.03 4.38C12.24 4.16 12.3 3.84 12.2 3.59ZM5.25 11.22L6.23 11.09L5.96 14.52C5.92 14.83 5.64 15.04 5.34 14.99C5.04 14.95 4.83 14.68 4.89 14.37ZM6.68 11.05L7.66 10.92L7.77 14.35C7.76 14.52 7.49 14.84 7.19 14.81C6.88 14.77 6.67 14.49 6.71 14.2ZM6.22 3C6.32 2.87 6.47 2.8 6.64 2.8L8.5 2.18L8.29 2.58L5.82 3.4ZM3.97 5.07C3.94 5.04 3.93 5 3.94 4.96C3.95 4.9 4.02 4.85 4.08 4.87H4.99L5.97 6.14C5.99 6.16 6.01 6.18 6.03 6.21C6.16 6.42 6.12 6.69 5.91 6.83C5.7 6.98 5.43 6.92 5.32 6.73ZM5.6 3.27H4.98L3.11 3.79C2.92 3.8 2.76 3.95 2.76 4.15C2.77 4.34 2.92 4.49 3.11 4.49H4.98L6.16 5.97C6.16 5.97 6.16 5.98 6.17 5.99C6.45 6.31 6.4 6.79 6.09 7.06C5.76 7.33 5.28 7.29 5.01 6.97L4.83 6.76L4.1 10.69L8.91 10.08L7.05 5.37L6.84 4.54C6.85 4.44 7.04 4.35 7.15 4.34L9.01 3.73C9.1 3.69 9.18 3.62 9.21 3.52L9.82 1.36C9.88 1.14 9.74 0.91 9.51 0.86C9.29 0.8 9.06 0.94 9.01 1.17C9 1.19 9 1.21 9 1.23L8.39 2.89C8.37 2.98 8.28 3.05 8.19 3.06L6.13 3.71L4.71 3.8ZM9.17 4.12L9.36 7.15L11.72 13.43C11.8 13.73 11.63 14.02 11.34 14.11C11.04 14.19 10.74 14.01 10.66 13.72L7.52 5.38L7.32 4.74ZM9.17 10.54L8.19 10.66V14.29C8.18 14.6 8.42 14.85 8.74 14.85C9.04 14.85 9.29 14.6 9.29 14.28Z"/>
</svg>