<svg xmlns="http://www.w3.org/2000/svg" viewBox="0 0 15 15">
  <path fill="param(fill) #888" stroke="param(outline) #000" stroke-width="param(outline-width) 0" fill-opacity="param(fill-opacity) 1" stroke-opacity="param(outline-opacity) 1" d="M3.45 2.55C4.01 2.67 4.28 3.01 4.39 3.25L5.24 5.09C5.29 5.18 5.39 5.23 5.41 5.24L6.68 5.71C6.91 5.81 7.06 6.01 7.06 6.24C7.06 6.57 6.76 6.83 6.39 6.83C6.31 6.83 6.24 6.82 6.16 6.79L4.63 6.23C4.41 6.15 4.31 6.04 4.21 5.88L4.11 5.7C4.06 5.58 3.99 5.43 3.92 5.3L3 8.71L3 14C3 14.53 2.6 15 2 15C1.4 15 1 14.53 1 14L1 7.81C1 7.52 1.07 6.78 1.15 6.52L2.02 3.32C2.17 2.76 2.82 2.41 3.45 2.55ZM14 10.5L14 15L7 15L7 8.29C7 8.1 7.05 7.92 7.15 7.76L9.21 4.47C9.39 4.18 9.71 4 10.05 4L13 4C13.55 4 14 4.45 14 5L14 8.5L13.29 8.5C12.91 7.62 12.03 7 11 7L9 7L9 8.5L8 8.5L8 9.25L9 9.25L9 9.75L8 9.75L8 10.5L9 10.5L9 14L10 14L10 12L11 12C12.02 12 12.91 11.38 13.29 10.5L14 10.5ZM10 10.5L12.12 10.5C11.84 10.81 11.44 11 11 11L10 11L10 10.5ZM12.48 9.25C12.49 9.33 12.5 9.41 12.5 9.5C12.5 9.59 12.49 9.67 12.48 9.75L10 9.75L10 9.25L12.48 9.25ZM11 8C11.44 8 11.84 8.19 12.12 8.5L10 8.5L10 8L11 8ZM5.1 0.17C5.46 0.37 5.68 0.73 5.71 1.12L5.71 1.25C5.73 1.69 5.5 2.1 5.1 2.33C4.71 2.55 4.21 2.55 3.82 2.33C3.46 2.13 3.24 1.77 3.21 1.38L3.21 1.25C3.19 0.81 3.42 0.4 3.82 0.17C4.21 -0.06 4.71 -0.06 5.1 0.17ZM14 9.75L13.49 9.75C13.5 9.67 13.5 9.58 13.5 9.5C13.5 9.42 13.5 9.33 13.49 9.25L14 9.25L14 9.75Z"/>
</svg>