<svg xmlns="http://www.w3.org/2000/svg" viewBox="0 0 15 15">
  <path fill="param(fill) #888" stroke="param(outline) #000" stroke-width="param(outline-width) 0" fill-opacity="param(fill-opacity) 1" stroke-opacity="param(outline-opacity) 1" d="M5.95 6.69C6.17 6.69 6.36 6.88 6.36 7.1C6.36 7.24 6.29 7.37 6.18 7.44L4.73 8.05C4.68 8.09 4.62 8.1 4.56 8.1L3.58 8.1L4.31 9.9L5.93 9.9C6.09 9.9 6.2 9.89 6.3 9.97L7.88 11.42C7.93 11.46 7.96 11.51 7.99 11.56C7.83 11.52 7.67 11.5 7.5 11.5C7.2 11.5 6.91 11.56 6.64 11.66L5.76 10.8L3.37 10.8C3.02 10.8 2.71 10.63 2.57 10.33L1.69 8.37C1.67 8.3 1.66 8.24 1.66 8.17C1.66 7.69 2.05 7.31 2.54 7.31L4.48 7.31L5.81 6.72C5.83 6.71 5.89 6.69 5.95 6.69ZM4.23 0C8.35 0.54 13.59 3.69 13.9 8.44L8.84 11.58L4.23 0ZM7.54 6.05C7.46 6.08 7.41 6.17 7.41 6.26C7.41 6.4 7.52 6.5 7.65 6.5L7.72 6.5L7.75 6.49C11.71 5.62 13 7.83 13.21 8.19C13.24 8.24 13.31 8.26 13.38 8.26C13.52 8.26 13.63 8.15 13.63 8.02C13.63 7.95 13.6 7.89 13.56 7.84C12.07 5.03 8.03 5.87 7.54 6.05ZM2.08 5.5C2.54 5.5 2.92 5.87 2.92 6.32C2.92 6.77 2.54 7.14 2.08 7.14C1.62 7.14 1.25 6.77 1.25 6.32C1.25 5.87 1.62 5.5 2.08 5.5ZM6.3 14.56L6.61 14.31C6.86 14.11 7.18 14 7.5 14C7.82 14 8.14 14.11 8.39 14.31L8.7 14.56C9.06 14.84 9.5 15 9.95 15L10.05 15C10.5 15 10.94 14.84 11.3 14.56L11.61 14.31C11.86 14.11 12.18 14 12.5 14C12.82 14 13.14 14.11 13.39 14.31L13.71 14.56C14.01 14.81 14.39 14.96 14.78 14.99L15 15L15 13.5L14.95 13.5C14.49 13.5 14.06 13.35 13.71 13.07L13.39 12.81C13.14 12.61 12.82 12.5 12.5 12.5C12.18 12.5 11.86 12.61 11.61 12.81L11.3 13.06C10.94 13.35 10.5 13.5 10.05 13.5L9.95 13.5C9.5 13.5 9.06 13.35 8.7 13.06L8.39 12.81C8.14 12.61 7.82 12.5 7.5 12.5C7.18 12.5 6.86 12.61 6.61 12.81L6.3 13.06C5.94 13.35 5.5 13.5 5.05 13.5L4.95 13.5C4.5 13.5 4.06 13.35 3.7 13.06L3.39 12.81C3.14 12.61 2.82 12.5 2.5 12.5C2.18 12.5 1.86 12.61 1.61 12.81L1.29 13.07C0.99 13.31 0.61 13.46 0.22 13.5L0 13.5L0 15L0.05 15C0.51 15 0.94 14.84 1.29 14.56L1.61 14.31C1.86 14.11 2.18 14 2.5 14C2.82 14 3.14 14.11 3.39 14.31L3.7 14.56C4.06 14.84 4.5 15 4.95 15L5.05 15C5.5 15 5.94 14.84 6.3 14.56Z"/>
</svg>