<svg xmlns="http://www.w3.org/2000/svg" viewBox="0 0 15 15">
  <path fill="param(fill) #888" stroke="param(outline) #000" stroke-width="param(outline-width) 0" fill-opacity="param(fill-opacity) 1" stroke-opacity="param(outline-opacity) 1" d="M7 1C9.05 1 10.81 2.23 11.58 4L14 4L14 5.5L11.98 5.5C11.99 5.66 12 5.83 12 6C12 6.17 11.99 6.34 11.98 6.5L14 6.5L14 8L11.58 8C10.81 9.77 9.05 11 7 11L3 11L3 8L1 8L1 6.5L3 6.5L3 5.5L1 5.5L1 4L3 4L3 1L7 1ZM9.24 8L5 8L5 9L7 9C7.82 9 8.56 8.67 9.1 8.14L9.24 8ZM9.96 5.5L5 5.5L5 6.5L9.96 6.5C9.99 6.34 10 6.17 10 6C10 5.89 9.99 5.77 9.98 5.66L9.96 5.5ZM7 3L5 3L5 4L9.24 4C8.69 3.39 7.89 3 7 3ZM5 11L5 15L3 15L3 11L5 11Z"/>
</svg>