<svg xmlns="http://www.w3.org/2000/svg" viewBox="0 0 15 15">
  <path fill="param(fill) #888" stroke="param(outline) #000" stroke-width="param(outline-width) 0" fill-opacity="param(fill-opacity) 1" stroke-opacity="param(outline-opacity) 1" d="M10 7L10 15L8 15L8 9.86L6.75 10.75L6.75 8.25L8.5 7L10 7ZM14 7L14 15L12 15L12 9.86L10.75 10.75L10.75 8.25L12.5 7L14 7ZM0.04 13.46L1.75 13C1.95 13.44 2.5 13.5 3 13.5C3.5 13.5 3.96 12.98 3.99 12.62L4 12.25C3.7 12.31 3.75 12.5 3 12.5C0.84 12.5 0 11.4 0 9.77C0 8.14 0.84 7 3 7C5.02 7 5.89 8 5.99 9.46L6 9.46L6 12.47C6 13.82 4.67 15 3 15C1.33 15 0.45 14.36 0.04 13.46ZM3 11C3.75 11 4 10.38 4 9.75C4 9.13 3.75 8.5 3 8.5C2.25 8.5 2 9.13 2 9.75C2 10.38 2.25 11 3 11ZM0.23 1.85C2.19 0.62 4.62 0 7.5 0C10.23 0 12.55 0.55 14.45 1.66L14.77 1.85C14.91 1.94 15 2.1 15 2.27L15 4.3C15 4.75 14.85 5.19 14.56 5.55L14.2 6C14.08 6.15 13.88 6.22 13.69 6.17L11.25 5.56C11.09 5.52 10.96 5.41 10.91 5.26L10 3L5 3L4.09 5.26C4.04 5.41 3.91 5.52 3.75 5.56L1.31 6.17C1.12 6.22 0.92 6.15 0.8 6L0.44 5.55C0.15 5.19 0 4.75 0 4.3L0 2.27C0 2.13 0.06 1.99 0.17 1.9L0.23 1.85Z"/>
</svg>