<svg xmlns="http://www.w3.org/2000/svg" viewBox="0 0 15 15">
  <path fill="param(fill) #888" stroke="param(outline) #000" stroke-width="param(outline-width) 0" fill-opacity="param(fill-opacity) 1" stroke-opacity="param(outline-opacity) 1" d="M12.5 7C13.96 7 15 8 15 9.25C15 10.08 14.72 10.67 14.17 11C14.72 11.33 15 11.92 15 12.75C15 14 13.88 15 12.5 15C11.12 15 10 14 10 12.25L11.67 12.25L11.67 12.42C11.67 12.88 12.04 13.25 12.5 13.25L12.58 13.25C13 13.25 13.33 12.91 13.33 12.5C13.33 12.09 13 11.75 12.58 11.75L12.08 11.75L12.08 10.25L12.58 10.25C13 10.25 13.33 9.91 13.33 9.5C13.33 9.09 13 8.75 12.58 8.75L12.5 8.75C12.04 8.75 11.67 9.12 11.67 9.58L11.67 9.75L10 9.75C10 8 11.04 7 12.5 7ZM3.5 7L3.5 15L1.5 15L1.5 9.86L0.25 10.75L0.25 8.25L2 7L3.5 7ZM0.23 1.85C2.19 0.62 4.62 0 7.5 0C10.23 0 12.55 0.55 14.45 1.66L14.77 1.85C14.91 1.94 15 2.1 15 2.27L15 4.3C15 4.75 14.85 5.19 14.56 5.55L14.2 6C14.08 6.15 13.88 6.22 13.69 6.17L11.25 5.56C11.09 5.52 10.96 5.41 10.91 5.26L10 3L5 3L4.09 5.26C4.04 5.41 3.91 5.52 3.75 5.56L1.31 6.17C1.12 6.22 0.92 6.15 0.8 6L0.44 5.55C0.15 5.19 0 4.75 0 4.3L0 2.27C0 2.13 0.06 1.99 0.17 1.9L0.23 1.85ZM7 7C8.38 7 9.5 8 9.5 9.75C9.5 10.75 8.5 12 7.25 13L9.5 13L9.5 15L4.5 15L4.5 13.25L4.94 12.92C6.87 11.44 7.75 10.47 7.75 10C7.75 9.92 7.75 9.83 7.75 9.75C7.75 9.34 7.41 9 7 9C6.59 9 6.25 9.34 6.25 9.75L6.25 10L6.25 10L4.5 10L4.5 9.67C4.5 8.01 5.62 7 7 7Z"/>
</svg>