<svg xmlns="http://www.w3.org/2000/svg" viewBox="0 0 15 15">
  <path fill="param(fill) #888" stroke="param(outline) #000" stroke-width="param(outline-width) 0" fill-opacity="param(fill-opacity) 1" stroke-opacity="param(outline-opacity) 1" d="M1.01 11.43C1.53 9.14 2.83 6.96 4.9 4.9C6.85 2.94 8.91 1.67 11.07 1.1L11.43 1.01C11.6 0.97 11.78 1.03 11.9 1.15L13.35 2.6C13.68 2.93 13.88 3.35 13.93 3.81L14 4.39C14.02 4.59 13.92 4.78 13.75 4.88L11.57 6.2C11.43 6.28 11.26 6.29 11.11 6.23L8.84 5.25L5.25 8.84L6.23 11.11C6.29 11.26 6.28 11.43 6.2 11.57L4.88 13.75C4.78 13.92 4.59 14.02 4.39 14L3.81 13.93C3.35 13.88 2.93 13.68 2.6 13.35L1.15 11.9C1.05 11.8 0.99 11.66 1 11.51L1.01 11.43Z"/>
</svg>