<svg xmlns="http://www.w3.org/2000/svg" viewBox="0 0 15 15">
  <path fill="param(fill) #888" stroke="param(outline) #000" stroke-width="param(outline-width) 0" fill-opacity="param(fill-opacity) 1" stroke-opacity="param(outline-opacity) 1" d="M4 7L4 15L2 15L2 9.86L0.75 10.75L0.75 8.25L2.5 7L4 7ZM8 7L8 15L6 15L6 9.86L4.75 10.75L4.75 8.25L6.5 7L8 7ZM0.23 1.85C2.19 0.62 4.62 0 7.5 0C10.23 0 12.55 0.55 14.45 1.66L14.77 1.85C14.91 1.94 15 2.1 15 2.27L15 4.3C15 4.75 14.85 5.19 14.56 5.55L14.2 6C14.08 6.15 13.88 6.22 13.69 6.17L11.25 5.56C11.09 5.52 10.96 5.41 10.91 5.26L10 3L5 3L4.09 5.26C4.04 5.41 3.91 5.52 3.75 5.56L1.31 6.17C1.12 6.22 0.92 6.15 0.8 6L0.44 5.55C0.15 5.19 0 4.75 0 4.3L0 2.27C0 2.13 0.06 1.99 0.17 1.9L0.23 1.85ZM12 7C13.66 7 15 8 15 9.75C15 10.92 14.08 12 12.25 13L15 13L15 15L9 15L9 13.25L9.53 12.92C11.84 11.44 13 10.47 13 10C13 9.25 12.55 9 12 9C11.45 9 11 9.45 11 10L11 10.33L9 10.33L9 10C9 8.34 10.34 7 12 7Z"/>
</svg>