<svg xmlns="http://www.w3.org/2000/svg" viewBox="0 0 15 15">
  <path fill="param(fill) #888" stroke="param(outline) #000" stroke-width="param(outline-width) 0" fill-opacity="param(fill-opacity) 1" stroke-opacity="param(outline-opacity) 1" d="M0.23 5.85C2.19 4.62 4.62 4 7.5 4C10.23 4 12.55 4.55 14.45 5.66L14.77 5.85C14.91 5.94 15 6.1 15 6.27L15 8.3C15 8.75 14.85 9.19 14.56 9.55L14.2 10C14.08 10.15 13.88 10.22 13.69 10.17L11.25 9.56C11.09 9.52 10.96 9.41 10.91 9.26L10 7L5 7L4.09 9.26C4.04 9.41 3.91 9.52 3.75 9.56L1.31 10.17C1.12 10.22 0.92 10.15 0.8 10L0.44 9.55C0.15 9.19 0 8.75 0 8.3L0 6.27C0 6.13 0.06 5.99 0.17 5.9L0.23 5.85Z"/>
</svg>