<svg xmlns="http://www.w3.org/2000/svg" viewBox="0 0 15 15">
  <path fill="param(fill) #888" stroke="param(outline) #000" stroke-width="param(outline-width) 0" fill-opacity="param(fill-opacity) 1" stroke-opacity="param(outline-opacity) 1" d="M14.5 1C14.78 1 15 1.22 15 1.5L15 14L12 14L12 13L14 13L14 1L14.5 1ZM10.5 4C10.78 4 11 4.22 11 4.5L11 14L8 14L8 13L10 13L10 4L10.5 4ZM6.5 7C6.78 7 7 7.22 7 7.5L7 14L4 14L4 13L6 13L6 7L6.5 7ZM2.5 10C2.78 10 3 10.22 3 10.5L3 14L0 14L0 13L2 13L2 10L2.5 10ZM2 1L3 2.25L4 1L6 1L4 3.5L6 6L4 6L3 4.75L2 6L0 6L2 3.5L0 1L2 1Z"/>
</svg>