<svg xmlns="http://www.w3.org/2000/svg" viewBox="0 0 15 15">
  <path fill="param(fill) #888" stroke="param(outline) #000" stroke-width="param(outline-width) 0" fill-opacity="param(fill-opacity) 1" stroke-opacity="param(outline-opacity) 1" d="M5.85 14.77C4.62 12.81 4 10.38 4 7.5C4 4.77 4.55 2.45 5.66 0.55L5.85 0.23C5.94 0.09 6.1 0 6.27 0L8.3 0C8.75 0 9.19 0.15 9.55 0.44L10 0.8C10.15 0.92 10.22 1.12 10.17 1.31L9.56 3.75C9.52 3.91 9.41 4.04 9.26 4.09L7 5L7 10L9.26 10.91C9.41 10.96 9.52 11.09 9.56 11.25L10.17 13.69C10.22 13.88 10.15 14.08 10 14.2L9.55 14.56C9.19 14.85 8.75 15 8.3 15L6.27 15C6.13 15 5.99 14.94 5.9 14.83L5.85 14.77Z"/>
</svg>