<svg xmlns="http://www.w3.org/2000/svg" viewBox="0 0 15 15">
  <path fill="param(fill) #888" stroke="param(outline) #000" stroke-width="param(outline-width) 0" fill-opacity="param(fill-opacity) 1" stroke-opacity="param(outline-opacity) 1" d="M10 7L10 15L8 15L8 9.86L6.75 10.75L6.75 8.25L8.5 7L10 7ZM14 7L14 15L12 15L12 9.86L10.75 10.75L10.75 8.25L12.5 7L14 7ZM0.23 1.85C2.19 0.62 4.62 0 7.5 0C10.23 0 12.55 0.55 14.45 1.66L14.77 1.85C14.91 1.94 15 2.1 15 2.27L15 4.3C15 4.75 14.85 5.19 14.56 5.55L14.2 6C14.08 6.15 13.88 6.22 13.69 6.17L11.25 5.56C11.09 5.52 10.96 5.41 10.91 5.26L10 3L5 3L4.09 5.26C4.04 5.41 3.91 5.52 3.75 5.56L1.31 6.17C1.12 6.22 0.92 6.15 0.8 6L0.44 5.55C0.15 5.19 0 4.75 0 4.3L0 2.27C0 2.13 0.06 1.99 0.17 1.9L0.23 1.85ZM3 7C4.66 7 6 8 6 9.75C6 10.92 5.08 12 3.25 13L6 13L6 15L0 15L0 13.25L0.53 12.92C2.84 11.44 4 10.47 4 10C4 9.25 3.55 9 3 9C2.45 9 2 9.45 2 10L2 10.33L0 10.33L0 10C0 8.34 1.34 7 3 7Z"/>
</svg>