<svg xmlns="http://www.w3.org/2000/svg" viewBox="0 0 15 15">
  <path fill="param(fill) #888" stroke="param(outline) #000" stroke-width="param(outline-width) 0" fill-opacity="param(fill-opacity) 1" stroke-opacity="param(outline-opacity) 1" d="M4.5 7L6.5 7C6.78 7 7 7.22 7 7.5L7 14L4 14L4 7.5C4 7.22 4.22 7 4.5 7ZM0.5 10L2.5 10C2.78 10 3 10.22 3 10.5L3 14L0 14L0 10.5C0 10.25 0.18 10.05 0.41 10.01L0.5 10ZM8.5 4L10.5 4C10.78 4 11 4.22 11 4.5L11 14L8 14L8 4.5C8 4.22 8.22 4 8.5 4ZM12 14L12 13L14 13L14 1L14.5 1C14.78 1 15 1.22 15 1.5L15 14L12 14Z"/>
</svg>