<svg xmlns="http://www.w3.org/2000/svg" viewBox="0 0 15 15">
  <path fill="param(fill) #888" stroke="param(outline) #000" stroke-width="param(outline-width) 0" fill-opacity="param(fill-opacity) 1" stroke-opacity="param(outline-opacity) 1" d="M0.03 13.46L1.31 13C1.46 13.44 1.88 13.5 2.25 13.5C2.63 13.5 2.97 12.98 2.99 12.62L3 12.25C2.78 12.31 2.81 12.5 2.25 12.5C0.63 12.5 0 11.4 0 9.77C0 8.14 0.63 7 2.25 7C3.77 7 4.41 8 4.49 9.46L4.5 12.47C4.5 13.82 3.51 15 2.25 15C0.99 15 0.34 14.36 0.03 13.46ZM2.25 11C2.81 11 3 10.38 3 9.75C3 9.13 2.81 8.5 2.25 8.5C1.69 8.5 1.5 9.13 1.5 9.75C1.5 10.38 1.69 11 2.25 11ZM0.23 1.85C2.19 0.62 4.62 0 7.5 0C10.23 0 12.55 0.55 14.45 1.66L14.77 1.85C14.91 1.94 15 2.1 15 2.27L15 4.3C15 4.75 14.85 5.19 14.56 5.55L14.2 6C14.08 6.15 13.88 6.22 13.69 6.17L11.25 5.56C11.09 5.52 10.96 5.41 10.91 5.26L10 3L5 3L4.09 5.26C4.04 5.41 3.91 5.52 3.75 5.56L1.31 6.17C1.12 6.22 0.92 6.15 0.8 6L0.44 5.55C0.15 5.19 0 4.75 0 4.3L0 2.27C0 2.13 0.06 1.99 0.17 1.9L0.23 1.85ZM7.5 7C8.6 7 9.55 7.93 9.55 9.4C9.55 10 9.39 10.5 9.13 10.9C9.51 11.31 9.75 11.88 9.75 12.6C9.75 14.1 8.7 15 7.5 15C6.3 15 5.25 14.1 5.25 12.6C5.25 11.88 5.49 11.31 5.87 10.9C5.61 10.5 5.45 10 5.45 9.4C5.45 7.93 6.4 7 7.5 7ZM7.5 11.8C6.89 11.8 6.48 12.16 6.48 12.6C6.48 13.04 6.89 13.4 7.5 13.4C8.11 13.4 8.52 13.04 8.52 12.6C8.52 12.16 8.11 11.8 7.5 11.8ZM7.5 8.6C7.02 8.6 6.68 8.93 6.68 9.4C6.68 9.87 7.02 10.2 7.5 10.2C7.98 10.2 8.32 9.87 8.32 9.4C8.32 8.93 7.98 8.6 7.5 8.6ZM12.75 7C13.85 7 14.8 7.93 14.8 9.4C14.8 10 14.64 10.5 14.38 10.9C14.76 11.31 15 11.88 15 12.6C15 14.1 13.95 15 12.75 15C11.55 15 10.5 14.1 10.5 12.6C10.5 11.88 10.74 11.31 11.12 10.9C10.86 10.5 10.7 10 10.7 9.4C10.7 7.93 11.65 7 12.75 7ZM12.75 11.8C12.14 11.8 11.73 12.16 11.73 12.6C11.73 13.04 12.14 13.4 12.75 13.4C13.36 13.4 13.77 13.04 13.77 12.6C13.77 12.16 13.36 11.8 12.75 11.8ZM12.75 8.6C12.27 8.6 11.93 8.93 11.93 9.4C11.93 9.87 12.27 10.2 12.75 10.2C13.23 10.2 13.57 9.87 13.57 9.4C13.57 8.93 13.23 8.6 12.75 8.6Z"/>
</svg>