<svg xmlns="http://www.w3.org/2000/svg" viewBox="0 0 15 15">
  <path fill="param(fill) #888" stroke="param(outline) #000" stroke-width="param(outline-width) 0" fill-opacity="param(fill-opacity) 1" stroke-opacity="param(outline-opacity) 1" d="M10 7L10 15L8 15L8 9.86L6.75 10.75L6.75 8.25L8.5 7L10 7ZM14 7L14 15L12 15L12 9.86L10.75 10.75L10.75 8.25L12.5 7L14 7ZM3 7C4.75 7 6 8 6 9.25C6 10.08 5.67 10.67 5 11C5.67 11.33 6 11.92 6 12.75C6 14 4.66 15 3 15C1.34 15 0 14 0 12.25L2 12.25C2 12.8 2.45 13.25 3 13.25L3.25 13.25C3.66 13.25 4 12.91 4 12.5C4 12.09 3.66 11.75 3.25 11.75L2.5 11.75L2.5 10.25L3.25 10.25C3.66 10.25 4 9.91 4 9.5C4 9.09 3.66 8.75 3.25 8.75L3 8.75C2.49 8.75 2.06 9.14 2.01 9.63L2 9.75L0 9.75C0 8 1.25 7 3 7ZM7.5 0C10.23 0 12.55 0.55 14.45 1.66L14.77 1.85C14.91 1.94 15 2.1 15 2.27L15 4.3C15 4.75 14.85 5.19 14.56 5.55L14.2 6C14.08 6.15 13.88 6.22 13.69 6.17L11.25 5.56C11.09 5.52 10.96 5.41 10.91 5.26L10 3L5 3L4.09 5.26C4.04 5.41 3.91 5.52 3.75 5.56L1.31 6.17C1.12 6.22 0.92 6.15 0.8 6L0.44 5.55C0.15 5.19 0 4.75 0 4.3L0 2.27C0 2.13 0.06 1.99 0.17 1.9L0.23 1.85C2.19 0.62 4.62 0 7.5 0Z"/>
</svg>