<svg xmlns="http://www.w3.org/2000/svg" viewBox="0 0 15 15">
  <path fill="param(fill) #888" stroke="param(outline) #000" stroke-width="param(outline-width) 0" fill-opacity="param(fill-opacity) 1" stroke-opacity="param(outline-opacity) 1" d="M3.54 14.81C2.51 13.17 2 11.15 2 8.75C2 6.47 2.46 4.54 3.38 2.96L3.54 2.69C3.62 2.57 3.75 2.5 3.89 2.5L5.58 2.5C5.96 2.5 6.33 2.63 6.62 2.87L7 3.17C7.13 3.27 7.18 3.43 7.14 3.59L6.64 5.63C6.6 5.76 6.51 5.86 6.39 5.91L4.5 6.67L4.5 10.83L6.39 11.59C6.51 11.64 6.6 11.74 6.64 11.87L7.14 13.91C7.18 14.07 7.13 14.23 7 14.33L6.62 14.63C6.33 14.87 5.96 15 5.58 15L3.89 15C3.77 15 3.66 14.95 3.58 14.86L3.54 14.81ZM8.5 3.6C9 4.1 9 4.9 8.5 5.4L7.9 4.8C8.07 4.63 8.07 4.37 7.9 4.2L8.5 3.6ZM9.7 2.4C10.86 3.56 10.86 5.44 9.7 6.6L9.1 6C9.93 5.17 9.93 3.83 9.1 3L9.7 2.4ZM10.9 1.2C12.72 3.02 12.72 5.98 10.9 7.8L10.3 7.2C11.79 5.71 11.79 3.29 10.3 1.8L10.9 1.2ZM12.1 0C14.59 2.49 14.59 6.51 12.1 9L11.5 8.4C13.65 6.25 13.65 2.75 11.5 0.6L12.1 0Z"/>
</svg>