<svg xmlns="http://www.w3.org/2000/svg" viewBox="0 0 15 15">
  <path fill="param(fill) #888" stroke="param(outline) #000" stroke-width="param(outline-width) 0" fill-opacity="param(fill-opacity) 1" stroke-opacity="param(outline-opacity) 1" d="M3.88 2.25L5.2 4.43C5.28 4.57 5.29 4.74 5.23 4.89L4.25 7.16L7.84 10.75L10.11 9.77C10.26 9.71 10.43 9.72 10.57 9.8L12.75 11.12C12.92 11.22 13.02 11.41 13 11.61L12.93 12.19C12.88 12.65 12.68 13.07 12.35 13.4L10.9 14.85C10.8 14.95 10.66 15.01 10.51 15L10.43 14.99C8.14 14.47 5.96 13.17 3.9 11.1C1.94 9.15 0.67 7.09 0.1 4.93L0.01 4.57C-0.03 4.4 0.03 4.22 0.15 4.1L1.6 2.65C1.93 2.32 2.35 2.12 2.81 2.07L3.39 2C3.59 1.98 3.78 2.08 3.88 2.25ZM11.75 1C11.89 1 12 1.11 12 1.25L12 3L13.75 3C13.89 3 14 3.11 14 3.25L14 4.75C14 4.89 13.89 5 13.75 5L12 5L12 6.75C12 6.89 11.89 7 11.75 7L10.25 7C10.11 7 10 6.89 10 6.75L10 5L8.25 5C8.11 5 8 4.89 8 4.75L8 3.25C8 3.11 8.11 3 8.25 3L10 3L10 1.25C10 1.11 10.11 1 10.25 1L11.75 1Z"/>
</svg>