<svg xmlns="http://www.w3.org/2000/svg" viewBox="0 0 15 15">
  <path fill="param(fill) #888" stroke="param(outline) #000" stroke-width="param(outline-width) 0" fill-opacity="param(fill-opacity) 1" stroke-opacity="param(outline-opacity) 1" d="M10 7L10 15L8 15L8 9.86L6.75 10.75L6.75 8.25L8.5 7L10 7ZM14 7L14 15L12 15L12 9.86L10.75 10.75L10.75 8.25L12.5 7L14 7ZM0.23 1.85C2.19 0.62 4.62 0 7.5 0C10.23 0 12.55 0.55 14.45 1.66L14.77 1.85C14.91 1.94 15 2.1 15 2.27L15 4.3C15 4.75 14.85 5.19 14.56 5.55L14.2 6C14.08 6.15 13.88 6.22 13.69 6.17L11.25 5.56C11.09 5.52 10.96 5.41 10.91 5.26L10 3L5 3L4.09 5.26C4.04 5.41 3.91 5.52 3.75 5.56L1.31 6.17C1.12 6.22 0.92 6.15 0.8 6L0.44 5.55C0.15 5.19 0 4.75 0 4.3L0 2.27C0 2.13 0.06 1.99 0.17 1.9L0.23 1.85ZM6 7L6 11.5L7 11.5L7 13.5L6 13.5L6 15L4 15L4 13.5L0 13.5L0 11.5L4 7L6 7ZM4 9.25L2 11.5L4 11.5L4 9.25Z"/>
</svg>