<svg xmlns="http://www.w3.org/2000/svg" viewBox="0 0 15 15">
  <path fill="param(fill) #888" stroke="param(outline) #000" stroke-width="param(outline-width) 0" fill-opacity="param(fill-opacity) 1" stroke-opacity="param(outline-opacity) 1" d="M0.03 13.46L1.31 13C1.46 13.44 1.88 13.5 2.25 13.5C2.63 13.5 2.97 12.98 2.99 12.62L3 12.25C2.78 12.31 2.81 12.5 2.25 12.5C0.63 12.5 0 11.4 0 9.77C0 8.14 0.63 7 2.25 7C3.77 7 4.41 8 4.49 9.46L4.5 12.47C4.5 13.82 3.51 15 2.25 15C0.99 15 0.34 14.36 0.03 13.46ZM2.25 11C2.81 11 3 10.38 3 9.75C3 9.13 2.81 8.5 2.25 8.5C1.69 8.5 1.5 9.13 1.5 9.75C1.5 10.38 1.69 11 2.25 11ZM10.53 13.46L11.81 13C11.96 13.44 12.38 13.5 12.75 13.5C13.13 13.5 13.47 12.98 13.49 12.62L13.5 12.25C13.28 12.31 13.31 12.5 12.75 12.5C11.13 12.5 10.5 11.4 10.5 9.77C10.5 8.14 11.13 7 12.75 7C14.27 7 14.91 8 14.99 9.46L15 12.47C15 13.82 14.01 15 12.75 15C11.49 15 10.84 14.36 10.53 13.46ZM12.75 11C13.31 11 13.5 10.38 13.5 9.75C13.5 9.13 13.31 8.5 12.75 8.5C12.19 8.5 12 9.13 12 9.75C12 10.38 12.19 11 12.75 11ZM5.28 13.46L6.56 13C6.71 13.44 7.13 13.5 7.5 13.5C7.88 13.5 8.22 12.98 8.24 12.62L8.25 12.25C8.03 12.31 8.06 12.5 7.5 12.5C5.88 12.5 5.25 11.4 5.25 9.77C5.25 8.14 5.88 7 7.5 7C9.02 7 9.66 8 9.74 9.46L9.75 12.47C9.75 13.82 8.76 15 7.5 15C6.24 15 5.59 14.36 5.28 13.46ZM7.5 11C8.06 11 8.25 10.38 8.25 9.75C8.25 9.13 8.06 8.5 7.5 8.5C6.94 8.5 6.75 9.13 6.75 9.75C6.75 10.38 6.94 11 7.5 11ZM0.23 1.85C2.19 0.62 4.62 0 7.5 0C10.23 0 12.55 0.55 14.45 1.66L14.77 1.85C14.91 1.94 15 2.1 15 2.27L15 4.3C15 4.75 14.85 5.19 14.56 5.55L14.2 6C14.08 6.15 13.88 6.22 13.69 6.17L11.25 5.56C11.09 5.52 10.96 5.41 10.91 5.26L10 3L5 3L4.09 5.26C4.04 5.41 3.91 5.52 3.75 5.56L1.31 6.17C1.12 6.22 0.92 6.15 0.8 6L0.44 5.55C0.15 5.19 0 4.75 0 4.3L0 2.27C0 2.13 0.06 1.99 0.17 1.9L0.23 1.85Z"/>
</svg>