<svg xmlns="http://www.w3.org/2000/svg" viewBox="0 0 15 15">
  <path fill="param(fill) #888" stroke="param(outline) #000" stroke-width="param(outline-width) 0" fill-opacity="param(fill-opacity) 1" stroke-opacity="param(outline-opacity) 1" d="M10 7L10 15L8 15L8 9.86L6.75 10.75L6.75 8.25L8.5 7L10 7ZM14 7L14 15L12 15L12 9.86L10.75 10.75L10.75 8.25L12.5 7L14 7ZM0.23 1.85C2.19 0.62 4.62 0 7.5 0C10.23 0 12.55 0.55 14.45 1.66L14.77 1.85C14.91 1.94 15 2.1 15 2.27L15 4.3C15 4.75 14.85 5.19 14.56 5.55L14.2 6C14.08 6.15 13.88 6.22 13.69 6.17L11.25 5.56C11.09 5.52 10.96 5.41 10.91 5.26L10 3L5 3L4.09 5.26C4.04 5.41 3.91 5.52 3.75 5.56L1.31 6.17C1.12 6.22 0.92 6.15 0.8 6L0.44 5.55C0.15 5.19 0 4.75 0 4.3L0 2.27C0 2.13 0.06 1.99 0.17 1.9L0.23 1.85ZM3 7C4.46 7 5.73 7.93 5.73 9.4C5.73 10 5.52 10.5 5.17 10.9C5.68 11.31 6 11.88 6 12.6C6 14.1 4.6 15 3 15C1.4 15 0 14.1 0 12.6C0 11.88 0.32 11.31 0.83 10.9C0.48 10.5 0.27 10 0.27 9.4C0.27 7.93 1.54 7 3 7ZM3 11.8C2.19 11.8 1.64 12.16 1.64 12.6C1.64 13.04 2.19 13.4 3 13.4C3.81 13.4 4.36 13.04 4.36 12.6C4.36 12.16 3.81 11.8 3 11.8ZM3 8.6C2.36 8.6 1.91 8.93 1.91 9.4C1.91 9.87 2.36 10.2 3 10.2C3.64 10.2 4.09 9.87 4.09 9.4C4.09 8.93 3.64 8.6 3 8.6Z"/>
</svg>