<svg xmlns="http://www.w3.org/2000/svg" viewBox="0 0 15 15">
  <path fill="param(fill) #888" stroke="param(outline) #000" stroke-width="param(outline-width) 0" fill-opacity="param(fill-opacity) 1" stroke-opacity="param(outline-opacity) 1" d="M3.88 2.25L5.2 4.43C5.28 4.57 5.29 4.74 5.23 4.89L4.25 7.16L7.84 10.75L10.11 9.77C10.26 9.71 10.43 9.72 10.57 9.8L12.75 11.12C12.92 11.22 13.02 11.41 13 11.61L12.93 12.19C12.88 12.65 12.68 13.07 12.35 13.4L10.9 14.85C10.8 14.95 10.66 15.01 10.51 15L10.43 14.99C8.14 14.47 5.96 13.17 3.9 11.1C1.94 9.15 0.67 7.09 0.1 4.93L0.01 4.57C-0.03 4.4 0.03 4.22 0.15 4.1L1.6 2.65C1.93 2.32 2.35 2.12 2.81 2.07L3.39 2C3.59 1.98 3.78 2.08 3.88 2.25ZM11.25 0.5C11.66 0.5 12 0.84 12 1.25L12 3L13.75 3C14.16 3 14.5 3.34 14.5 3.75C14.5 4.16 14.16 4.5 13.75 4.5L12 4.5L12 6.25C12 6.66 11.66 7 11.25 7C10.84 7 10.5 6.66 10.5 6.25L10.5 4.5L8.75 4.5C8.34 4.5 8 4.16 8 3.75C8 3.34 8.34 3 8.75 3L10.5 3L10.5 1.25C10.5 0.84 10.84 0.5 11.25 0.5Z"/>
</svg>