<svg xmlns="http://www.w3.org/2000/svg" viewBox="0 0 15 15">
  <path fill="param(fill) #888" stroke="param(outline) #000" stroke-width="param(outline-width) 0" fill-opacity="param(fill-opacity) 1" stroke-opacity="param(outline-opacity) 1" d="M0.23 1.85C2.19 0.62 4.62 0 7.5 0C10.23 0 12.55 0.55 14.45 1.66L14.77 1.85C14.91 1.94 15 2.1 15 2.27L15 4.3C15 4.75 14.85 5.19 14.56 5.55L14.2 6C14.08 6.15 13.88 6.22 13.69 6.17L11.25 5.56C11.09 5.52 10.96 5.41 10.91 5.26L10 3L5 3L4.09 5.26C4.04 5.41 3.91 5.52 3.75 5.56L1.31 6.17C1.12 6.22 0.92 6.15 0.8 6L0.44 5.55C0.15 5.19 0 4.75 0 4.3L0 2.27C0 2.13 0.06 1.99 0.17 1.9L0.23 1.85ZM0.75 7L2.25 7C2.39 7 2.5 7.11 2.5 7.25L2.5 8.25C2.5 8.39 2.39 8.5 2.25 8.5L0.75 8.5C0.61 8.5 0.5 8.39 0.5 8.25L0.5 7.25C0.5 7.11 0.61 7 0.75 7ZM3.75 7L5.25 7C5.39 7 5.5 7.11 5.5 7.25L5.5 8.25C5.5 8.39 5.39 8.5 5.25 8.5L3.75 8.5C3.61 8.5 3.5 8.39 3.5 8.25L3.5 7.25C3.5 7.11 3.61 7 3.75 7ZM6.75 7L8.25 7C8.39 7 8.5 7.11 8.5 7.25L8.5 8.25C8.5 8.39 8.39 8.5 8.25 8.5L6.75 8.5C6.61 8.5 6.5 8.39 6.5 8.25L6.5 7.25C6.5 7.11 6.61 7 6.75 7ZM9.75 7L11.25 7C11.39 7 11.5 7.11 11.5 7.25L11.5 8.25C11.5 8.39 11.39 8.5 11.25 8.5L9.75 8.5C9.61 8.5 9.5 8.39 9.5 8.25L9.5 7.25C9.5 7.11 9.61 7 9.75 7ZM12.75 7L14.25 7C14.39 7 14.5 7.11 14.5 7.25L14.5 8.25C14.5 8.39 14.39 8.5 14.25 8.5L12.75 8.5C12.61 8.5 12.5 8.39 12.5 8.25L12.5 7.25C12.5 7.11 12.61 7 12.75 7ZM0.75 11L2.25 11C2.39 11 2.5 11.11 2.5 11.25L2.5 12.25C2.5 12.39 2.39 12.5 2.25 12.5L0.75 12.5C0.61 12.5 0.5 12.39 0.5 12.25L0.5 11.25C0.5 11.11 0.61 11 0.75 11ZM3.75 11L5.25 11C5.39 11 5.5 11.11 5.5 11.25L5.5 12.25C5.5 12.39 5.39 12.5 5.25 12.5L3.75 12.5C3.61 12.5 3.5 12.39 3.5 12.25L3.5 11.25C3.5 11.11 3.61 11 3.75 11ZM6.75 11L8.25 11C8.39 11 8.5 11.11 8.5 11.25L8.5 12.25C8.5 12.39 8.39 12.5 8.25 12.5L6.75 12.5C6.61 12.5 6.5 12.39 6.5 12.25L6.5 11.25C6.5 11.11 6.61 11 6.75 11ZM9.75 11L11.25 11C11.39 11 11.5 11.11 11.5 11.25L11.5 12.25C11.5 12.39 11.39 12.5 11.25 12.5L9.75 12.5C9.61 12.5 9.5 12.39 9.5 12.25L9.5 11.25C9.5 11.11 9.61 11 9.75 11ZM12.75 11L14.25 11C14.39 11 14.5 11.11 14.5 11.25L14.5 12.25C14.5 12.39 14.39 12.5 14.25 12.5L12.75 12.5C12.61 12.5 12.5 12.39 12.5 12.25L12.5 11.25C12.5 11.11 12.61 11 12.75 11ZM11.25 9L12.75 9C12.89 9 13 9.11 13 9.25L13 10.25C13 10.39 12.89 10.5 12.75 10.5L11.25 10.5C11.11 10.5 11 10.39 11 10.25L11 9.25C11 9.11 11.11 9 11.25 9ZM8.25 9L9.75 9C9.89 9 10 9.11 10 9.25L10 10.25C10 10.39 9.89 10.5 9.75 10.5L8.25 10.5C8.11 10.5 8 10.39 8 10.25L8 9.25C8 9.11 8.11 9 8.25 9ZM5.25 9L6.75 9C6.89 9 7 9.11 7 9.25L7 10.25C7 10.39 6.89 10.5 6.75 10.5L5.25 10.5C5.11 10.5 5 10.39 5 10.25L5 9.25C5 9.11 5.11 9 5.25 9ZM2.25 9L3.75 9C3.89 9 4 9.11 4 9.25L4 10.25C4 10.39 3.89 10.5 3.75 10.5L2.25 10.5C2.11 10.5 2 10.39 2 10.25L2 9.25C2 9.11 2.11 9 2.25 9ZM3.25 13.5L11.75 13.5C11.89 13.5 12 13.61 12 13.75L12 14.75C12 14.89 11.89 15 11.75 15L3.25 15C3.11 15 3 14.89 3 14.75L3 13.75C3 13.61 3.11 13.5 3.25 13.5Z"/>
</svg>