<svg xmlns="http://www.w3.org/2000/svg" viewBox="0 0 15 15">
  <path fill="param(fill) #888" stroke="param(outline) #000" stroke-width="param(outline-width) 0" fill-opacity="param(fill-opacity) 1" stroke-opacity="param(outline-opacity) 1" d="M0.23 1.85C2.19 0.62 4.62 0 7.5 0C10.23 0 12.55 0.55 14.45 1.66L14.77 1.85C14.91 1.94 15 2.1 15 2.27L15 4.3C15 4.75 14.85 5.19 14.56 5.55L14.2 6C14.08 6.15 13.88 6.22 13.69 6.17L11.25 5.56C11.09 5.52 10.96 5.41 10.91 5.26L10 3L5 3L4.09 5.26C4.04 5.41 3.91 5.52 3.75 5.56L1.31 6.17C1.12 6.22 0.92 6.15 0.8 6L0.44 5.55C0.15 5.19 0 4.75 0 4.3L0 2.27C0 2.13 0.06 1.99 0.17 1.9L0.23 1.85ZM7.5 7C8.75 7 10 7.89 10 11C10 14.11 8.75 15 7.5 15C6.25 15 5 14.11 5 11C5 7.89 6.25 7 7.5 7ZM2.21 7C3.41 7 4.41 8.07 4.41 9.67L3.21 9.67C2.94 8.96 2.61 8.6 2.21 8.6C1.6 8.6 1.4 8.96 1.4 9.4C1.4 10.47 4.41 10.2 4.41 12.6C4.41 13.93 3.41 15 2.21 15C1 15 0 13.93 0 12.33L1.2 12.33C1.2 12.78 1.6 13.4 2.21 13.4C2.81 13.4 3.01 13.04 3.01 12.6C3.01 11.53 0 11.8 0 9.4C0 8.07 1 7 2.21 7ZM12.79 7C14 7 15 8.07 15 9.67L13.8 9.67C13.53 8.96 13.2 8.6 12.79 8.6C12.19 8.6 11.99 8.96 11.99 9.4C11.99 10.47 15 10.2 15 12.6C15 13.93 14 15 12.79 15C11.59 15 10.59 13.93 10.59 12.33L11.79 12.33C11.79 12.78 12.19 13.4 12.79 13.4C13.4 13.4 13.6 13.04 13.6 12.6C13.6 11.53 10.59 11.8 10.59 9.4C10.59 8.07 11.59 7 12.79 7ZM7.5 8.5C6.92 8.5 6.53 8.97 6.5 10.77L6.5 11C6.5 12.99 6.89 13.5 7.5 13.5C8.11 13.5 8.5 12.99 8.5 11C8.5 9.01 8.11 8.5 7.5 8.5Z"/>
</svg>