<svg xmlns="http://www.w3.org/2000/svg" viewBox="0 0 15 15">
  <path fill="param(fill) #888" stroke="param(outline) #000" stroke-width="param(outline-width) 0" fill-opacity="param(fill-opacity) 1" stroke-opacity="param(outline-opacity) 1" d="M2.85 14.77C1.62 12.81 1 10.38 1 7.5C1 4.77 1.55 2.45 2.66 0.55L2.85 0.23C2.94 0.09 3.1 0 3.27 0L5.3 0C5.75 0 6.19 0.15 6.55 0.44L7 0.8C7.15 0.92 7.22 1.12 7.17 1.31L6.56 3.75C6.52 3.91 6.41 4.04 6.26 4.09L4 5L4 10L6.26 10.91C6.41 10.96 6.52 11.09 6.56 11.25L7.17 13.69C7.22 13.88 7.15 14.08 7 14.2L6.55 14.56C6.19 14.85 5.75 15 5.3 15L3.27 15C3.13 15 2.99 14.94 2.9 14.83L2.85 14.77ZM11.5 11C10.4 11 9.5 11.9 9.5 13C9.5 14.1 10.4 15 11.5 15C12.6 15 13.5 14.1 13.5 13C13.5 11.9 12.6 11 11.5 11ZM14 0L9 0L10.5 9.5L12.5 9.5L14 0Z"/>
</svg>