<svg xmlns="http://www.w3.org/2000/svg" viewBox="0 0 15 15">
  <path fill="param(fill) #888" stroke="param(outline) #000" stroke-width="param(outline-width) 0" fill-opacity="param(fill-opacity) 1" stroke-opacity="param(outline-opacity) 1" d="M11.43 13.99C9.14 13.47 6.96 12.17 4.9 10.1C2.94 8.15 1.67 6.09 1.1 3.93L1.01 3.57C0.97 3.4 1.03 3.22 1.15 3.1L2.6 1.65C2.93 1.32 3.35 1.12 3.81 1.07L4.39 1C4.59 0.98 4.78 1.08 4.88 1.25L6.2 3.43C6.28 3.57 6.29 3.74 6.23 3.89L5.25 6.16L8.84 9.75L11.11 8.77C11.26 8.71 11.43 8.72 11.57 8.8L13.75 10.12C13.92 10.22 14.02 10.41 14 10.61L13.93 11.19C13.88 11.65 13.68 12.07 13.35 12.4L11.9 13.85C11.8 13.95 11.66 14.01 11.51 14L11.43 13.99Z"/>
</svg>