<svg xmlns="http://www.w3.org/2000/svg" viewBox="0 0 15 15">
  <path fill="param(fill) #888" stroke="param(outline) #000" stroke-width="param(outline-width) 0" fill-opacity="param(fill-opacity) 1" stroke-opacity="param(outline-opacity) 1" d="M10 0L14 7L14 9L12 9L12 10.05C11.63 10.13 11.28 10.29 10.98 10.53L10.67 10.78C10.5 10.92 10.28 11 10.05 11L10.01 11L10 9L5 9L5 11L4.95 11C4.72 11 4.5 10.92 4.33 10.78L4.01 10.53C3.72 10.3 3.37 10.13 3 10.06L3 9L1 9L1 7L5 0L10 0ZM11.06 5.11L3.06 6.89L3 7L12 7L11.06 5.11ZM9.81 2.61L4.62 3.76L3.63 5.74L10.59 4.19L9.81 2.61ZM9 1L6 1L5.19 2.61L9.34 1.69L9 1ZM6.3 13.06L6.61 12.81C6.86 12.61 7.18 12.5 7.5 12.5C7.82 12.5 8.14 12.61 8.39 12.81L8.7 13.06C9.06 13.34 9.5 13.5 9.95 13.5L10.05 13.5C10.5 13.5 10.94 13.34 11.3 13.06L11.61 12.81C11.86 12.61 12.18 12.5 12.5 12.5C12.82 12.5 13.14 12.61 13.39 12.81L13.71 13.06C14.06 13.34 14.49 13.5 14.95 13.5L15 13.5L15 12L14.95 12C14.49 12 14.06 11.85 13.71 11.57L13.39 11.31C13.14 11.11 12.82 11 12.5 11C12.18 11 11.86 11.11 11.61 11.31L11.3 11.56C10.94 11.85 10.5 12 10.05 12L9.95 12C9.5 12 9.06 11.85 8.7 11.56L8.39 11.31C8.14 11.11 7.82 11 7.5 11C7.18 11 6.86 11.11 6.61 11.31L6.3 11.56C5.94 11.85 5.5 12 5.05 12L4.95 12C4.5 12 4.06 11.85 3.7 11.56L3.39 11.31C3.14 11.11 2.82 11 2.5 11C2.18 11 1.86 11.11 1.61 11.31L1.29 11.57C0.99 11.81 0.61 11.96 0.22 12L0 12L0 13.5L0.05 13.5C0.51 13.5 0.94 13.34 1.29 13.06L1.61 12.81C1.86 12.61 2.18 12.5 2.5 12.5C2.82 12.5 3.14 12.61 3.39 12.81L3.7 13.06C4.06 13.34 4.5 13.5 4.95 13.5L5.05 13.5C5.5 13.5 5.94 13.34 6.3 13.06Z"/>
</svg>