<svg xmlns="http://www.w3.org/2000/svg" viewBox="0 0 15 15">
  <path fill="param(fill) #888" stroke="param(outline) #000" stroke-width="param(outline-width) 0" fill-opacity="param(fill-opacity) 1" stroke-opacity="param(outline-opacity) 1" d="M15 2L15 13L0 13L0 2L15 2ZM4.5 4L3.5 4L3.5 5L3 5C2.17 5 1.5 5.67 1.5 6.5C1.5 7.33 2.17 8 3 8L3.5 8L3.5 9L1.5 9L1.51 9.12C1.56 9.61 1.99 10 2.5 10L3.5 10L3.5 11L4.5 11L4.5 10L5 10C5.83 10 6.5 9.33 6.5 8.5C6.5 7.67 5.83 7 5 7L4.5 7L4.5 6L6.5 6C6.5 5.45 6.05 5 5.5 5L4.5 5L4.5 4ZM9 10L8 10L8 11L9 11L9 10ZM11 10L10 10L10 11L11 11L11 10ZM13 10L12 10L12 11L13 11L13 10ZM5 8C5.28 8 5.5 8.22 5.5 8.5C5.5 8.78 5.28 9 5 9L4.5 9L4.5 8ZM9 8L8 8L8 9L9 9L9 8ZM13 8L12 8L12 9L13 9L13 8ZM11 8L10 8L10 9L11 9L11 8ZM3.5 6L3.5 7L3 7C2.72 7 2.5 6.78 2.5 6.5C2.5 6.22 2.72 6 3 6L3.5 6ZM13 6L12 6L12 7L13 7L13 6ZM11 6L10 6L10 7L11 7L11 6ZM9 6L8 6L8 7L9 7L9 6ZM13 3.5L8 3.5L8 5L13 5L13 3.5Z"/>
</svg>