<svg xmlns="http://www.w3.org/2000/svg" viewBox="0 0 15 15">
  <path fill="param(fill) #888" stroke="param(outline) #000" stroke-width="param(outline-width) 0" fill-opacity="param(fill-opacity) 1" stroke-opacity="param(outline-opacity) 1" d="M15 2L15 13L0 13L0 2L15 2ZM4.5 4L2.5 4L2.5 7L1.5 7L1.5 8L2.5 8L2.5 9L1.5 9L1.5 10L2.5 10L2.5 11.5L3.5 11.5L3.5 10L5.5 10L5.5 9L3.5 9L3.5 8L4.5 8C5.6 8 6.5 7.1 6.5 6C6.5 4.9 5.6 4 4.5 4ZM9 10L8 10L8 11L9 11L9 10ZM11 10L10 10L10 11L11 11L11 10ZM13 10L12 10L12 11L13 11L13 10ZM9 8L8 8L8 9L9 9L9 8ZM13 8L12 8L12 9L13 9L13 8ZM11 8L10 8L10 9L11 9L11 8ZM13 6L12 6L12 7L13 7L13 6ZM11 6L10 6L10 7L11 7L11 6ZM9 6L8 6L8 7L9 7L9 6ZM4.5 5C5.05 5 5.5 5.45 5.5 6C5.5 6.55 5.05 7 4.5 7L3.5 7L3.5 5ZM13 3.5L8 3.5L8 5L13 5L13 3.5Z"/>
</svg>