<?xml version="1.0" encoding="UTF-8"?>
<svg viewBox="0 0 15 15" version="1.1" xmlns="http://www.w3.org/2000/svg" xmlns:xlink="http://www.w3.org/1999/xlink">
  <path fill="param(fill) #888" stroke="param(outline) #000" stroke-width="param(outline-width) 0" fill-opacity="param(fill-opacity) 1" stroke-opacity="param(outline-opacity) 1" d="M1.08 2C0.08 2 0.58 3 1.08 3L1.39 3C3.13 3.06 3.66 3.69 5.08 7L5.34 7.58C7.19 11.63 8.49 13 12.08 13C14.35 13 14.56 11.35 14.58 10.3L14.58 10C14.58 9 14.58 8.25 14.33 7.5L14.02 7.65C13.6 7.84 13.08 8 12.08 8C10.83 8 10.33 7.75 9.83 7.5C9.58 8.25 9.58 9 9.58 10L9.42 9.95C8.92 9.76 7.33 9 6.08 6.5L5.83 5.94C4.46 2.89 3.44 2 1.08 2ZM10.08 7C10.08 6.84 10.91 6.78 11.51 6.76L12.15 6.75C12.52 6.75 14.08 6.78 14.08 7C14.08 7.25 13.08 7.5 12.08 7.5C11.08 7.5 10.08 7.25 10.08 7Z"/>
</svg>