<svg xmlns="http://www.w3.org/2000/svg" viewBox="0 0 15 15">
  <path fill="param(fill) #888" stroke="param(outline) #000" stroke-width="param(outline-width) 0" fill-opacity="param(fill-opacity) 1" stroke-opacity="param(outline-opacity) 1" d="M6 10L6 12L9 12L9 10L12 10L12 12L15 12L15 15L12 15L12 13L9 13L9 15L6 15L6 13L3 13L3 15L0 15L0 12L3 12L3 10L6 10ZM11 8L9 8L9 6L11 6L11 5L4 5L4 6L6 6L6 8L4 8L4 7L2 7L2 5L0 5L0 3L2 3L2 1L4 1L4 0L6 0L6 2L4 2L4 3L11 3L11 2L9 2L9 0L11 0L11 1L13 1L13 3L15 3L15 5L13 5L13 7L11 7L11 8Z"/>
</svg>