<?xml version="1.0" encoding="UTF-8"?>
<svg viewBox="0 0 15 15" version="1.1" xmlns="http://www.w3.org/2000/svg" xmlns:xlink="http://www.w3.org/1999/xlink">
  <path fill="param(fill) #888" stroke="param(outline) #000" stroke-width="param(outline-width) 0" fill-opacity="param(fill-opacity) 1" stroke-opacity="param(outline-opacity) 1" d="M9 15L6 15L6 12L4 12L4 14L2 14L2 12L0 12L0 6L2 6L2 4L4 4L4 2L6 2L6 4L9 4L9 2L11 2L11 4L13 4L13 6L15 6L15 12L13 12L13 14L11 14L11 12L9 12L9 15ZM11 7L9 7L9 9L11 9L11 7ZM6 7L4 7L4 9L6 9L6 7ZM4 0L4 2L0 2L0 0L4 0ZM15 0L15 2L11 2L11 0L15 0Z"/>
</svg>