<svg xmlns="http://www.w3.org/2000/svg" viewBox="0 0 15 15">
  <path fill="param(fill) #888" stroke="param(outline) #000" stroke-width="param(outline-width) 0" fill-opacity="param(fill-opacity) 1" stroke-opacity="param(outline-opacity) 1" d="M6 10L6 12L9 12L9 10L12 10L12 12L15 12L15 15L12 15L12 13L9 13L9 15L6 15L6 13L3 13L3 15L0 15L0 12L3 12L3 10L6 10ZM6 5L6 7L9 7L9 5L12 5L12 7L15 7L15 10L12 10L12 8L9 8L9 10L6 10L6 8L3 8L3 10L0 10L0 7L3 7L3 5L6 5ZM6 0L6 2L9 2L9 0L12 0L12 2L15 2L15 5L12 5L12 3L9 3L9 5L6 5L6 3L3 3L3 5L0 5L0 2L3 2L3 0L6 0Z"/>
</svg>