<svg xmlns="http://www.w3.org/2000/svg" viewBox="0 0 15 15">
  <path fill="param(fill) #888" stroke="param(outline) #000" stroke-width="param(outline-width) 0" fill-opacity="param(fill-opacity) 1" stroke-opacity="param(outline-opacity) 1" d="M7.5 0C8.05 0 8.5 0.45 8.5 1L8.5 6.5L14 6.5C14.55 6.5 15 6.95 15 7.5C15 8.05 14.55 8.5 14 8.5L8.5 8.5L8.5 14C8.5 14.55 8.05 15 7.5 15C6.95 15 6.5 14.55 6.5 14L6.5 8.5L1 8.5C0.45 8.5 0 8.05 0 7.5C0 6.95 0.45 6.5 1 6.5L6.5 6.5L6.5 1C6.5 0.45 6.95 0 7.5 0Z"/>
</svg>