<svg xmlns="http://www.w3.org/2000/svg" viewBox="0 0 15 15">
  <path fill="param(fill) #888" stroke="param(outline) #000" stroke-width="param(outline-width) 0" fill-opacity="param(fill-opacity) 1" stroke-opacity="param(outline-opacity) 1" d="M10.66 0.05C9.46 0.1 8.34 0.77 7.48 1.68C5.43 3.84 4.23 7.81 5.85 9.34C7.46 10.88 11.37 9.46 13.41 7.3C14.95 5.69 15.68 3.31 13.52 1.25C12.58 0.36 11.59 0.02 10.66 0.05ZM10.77 1.07C10.94 1.07 11.04 1.17 11.05 1.29C11.05 1.33 11.05 1.37 11.03 1.41C10.98 1.53 10.73 1.56 10.6 1.57C9.99 1.65 9.13 2.03 8.23 2.91C8.13 3.01 7.97 3.01 7.87 2.92C7.77 2.82 7.76 2.66 7.86 2.57C8.99 1.45 10.1 1.07 10.77 1.07ZM4.91 8.85L2.82 10.94C2.37 11.39 1.76 11.64 1.12 11.64H1.03C0.52 11.69 0.13 12.12 0.13 12.64C0.13 13.18 0.58 13.63 1.12 13.63H1.45V13.96C1.45 14.5 1.9 14.95 2.44 14.95C3 14.95 3.44 14.5 3.44 13.96L3.45 13.81C3.48 13.23 3.73 12.68 4.14 12.26L6.22 10.18C5.96 10.06 5.72 9.91 5.5 9.7C5.25 9.46 5.05 9.17 4.91 8.85Z"/>
</svg>