<svg xmlns="http://www.w3.org/2000/svg" viewBox="0 0 15 15">
  <path fill="param(fill) #888" stroke="param(outline) #000" stroke-width="param(outline-width) 0" fill-opacity="param(fill-opacity) 1" stroke-opacity="param(outline-opacity) 1" d="M8 1C10.21 1 12 2.79 12 5L10 5.5C10 4.12 8.88 3 7.5 3L7 3C5.95 3 5.08 3.82 5.01 4.85L5 5L5.93 5.86C6.29 6.19 6.58 6.58 6.79 7L11 7L10 9L7.21 9C7.18 9.6 7.01 10.2 6.7 10.76L6 12L12 12L11 14L3 14L3 12L3.11 12C3.95 12 4.69 11.48 4.99 10.7L5.25 10C5.37 9.67 5.44 9.34 5.46 9L2 9L3 7L4.91 7C4.79 6.82 4.65 6.65 4.49 6.49L3 5C3 2.79 4.79 1 7 1L8 1Z"/>
</svg>