<svg xmlns="http://www.w3.org/2000/svg" viewBox="0 0 15 15">
  <path fill="param(fill) #888" stroke="param(outline) #000" stroke-width="param(outline-width) 0" fill-opacity="param(fill-opacity) 1" stroke-opacity="param(outline-opacity) 1" d="M7.34 0.69C7.31 0.69 7.29 0.71 7.28 0.73L7.04 1.1C7.03 1.12 7.02 1.15 7.03 1.17L7.2 1.75C7.12 1.69 7.03 1.64 6.92 1.65C6.79 1.66 6.69 1.76 6.61 1.84C6.53 1.93 6.47 2.01 6.47 2.01C6.42 2.08 6.5 2.17 6.58 2.14C6.58 2.14 6.64 2.11 6.73 2.08C6.82 2.05 6.94 2.02 6.97 2.02C7.01 2.02 7.09 2.06 7.17 2.1C7.19 2.12 7.21 2.17 7.22 2.23C7.08 2.23 6.89 2.25 6.64 2.34C6.33 2.42 6.04 2.56 5.77 2.75C5.39 2.41 4.99 2.24 4.56 2.24C3.95 2.24 3.39 2.56 2.87 3.19C2.33 3.86 2.06 4.63 2.06 5.51C2.06 5.78 2.09 6.03 2.15 6.29C2.21 6.61 2.31 6.92 2.44 7.22C2.4 7.22 2.35 7.21 2.31 7.21C1.83 7.2 1.33 7.34 0.83 7.81C0.82 7.8 0.81 7.8 0.81 7.8C0.79 7.77 0.73 7.65 0.7 7.57C0.67 7.48 0.65 7.41 0.65 7.41C0.62 7.33 0.51 7.33 0.48 7.42C0.48 7.42 0.46 7.51 0.44 7.63C0.43 7.75 0.41 7.88 0.49 7.99C0.55 8.08 0.64 8.12 0.74 8.14L0.19 8.38C0.17 8.39 0.15 8.41 0.14 8.43L0 8.85C-0.01 8.89 0 8.92 0.03 8.95C0.05 8.97 0.08 8.98 0.1 8.97L0.54 8.92C0.56 8.91 0.59 8.9 0.6 8.88L0.94 8.39C0.95 8.49 0.96 8.59 1.04 8.66C1.13 8.76 1.27 8.77 1.39 8.78C1.5 8.79 1.6 8.78 1.6 8.78C1.69 8.77 1.71 8.66 1.64 8.62C1.64 8.62 1.57 8.58 1.5 8.53C1.42 8.49 1.32 8.41 1.29 8.39C1.28 8.37 1.26 8.3 1.25 8.23C1.65 7.87 1.94 7.8 2.3 7.81C2.44 7.81 2.61 7.84 2.78 7.87C2.87 8 2.96 8.14 3.06 8.27C4.17 8.39 5.06 9 5.54 9.68C5.73 9.62 5.91 9.5 6.09 9.31C6.41 9.51 6.71 9.64 7 9.69L7 11.42L6.23 11.42L6.23 12.02L7 12.02L8.58 12.02L8.58 11.42L7.6 11.42L7.6 9.69C7.91 9.64 8.24 9.5 8.57 9.27C8.79 9.53 9.02 9.66 9.27 9.7C9.75 8.98 10.64 8.36 11.67 8.27C11.75 8.17 11.82 8.06 11.88 7.96C12.69 7.85 13.28 7.99 13.73 8.29C13.72 8.32 13.72 8.37 13.71 8.38C13.68 8.4 13.58 8.48 13.5 8.53C13.43 8.57 13.36 8.61 13.36 8.61C13.28 8.65 13.31 8.77 13.39 8.77C13.39 8.77 13.5 8.78 13.61 8.77C13.73 8.76 13.87 8.75 13.96 8.66C14.04 8.58 14.05 8.48 14.06 8.38L14.4 8.87C14.41 8.89 14.44 8.91 14.46 8.91L14.9 8.96C14.92 8.97 14.95 8.96 14.97 8.94C14.99 8.92 15.01 8.88 15 8.84L14.86 8.43C14.85 8.4 14.83 8.39 14.81 8.38L14.26 8.14C14.36 8.11 14.45 8.08 14.51 7.99C14.59 7.88 14.57 7.74 14.56 7.62C14.54 7.51 14.52 7.41 14.52 7.41C14.49 7.32 14.38 7.32 14.35 7.41C14.35 7.41 14.33 7.48 14.3 7.56C14.26 7.65 14.21 7.76 14.19 7.79C14.18 7.8 14.13 7.82 14.1 7.84C13.89 7.69 13.67 7.57 13.42 7.49L13.53 6.91L14.69 6.81L14.69 6.81L14.7 6.81L14.66 6.21L14.65 6.21L14.64 6.21L13.37 6.26L12.73 5.33L12.59 5.43C12.56 4.58 12.31 3.84 11.81 3.21C11.31 2.56 10.75 2.24 10.14 2.24C9.69 2.24 9.28 2.42 8.89 2.77C8.5 2.49 8.08 2.32 7.63 2.26C7.58 2.25 7.53 2.25 7.48 2.25C7.5 2.18 7.51 2.12 7.54 2.1C7.62 2.06 7.7 2.02 7.74 2.02C7.77 2.02 7.89 2.05 7.98 2.08C8.06 2.11 8.13 2.14 8.13 2.14C8.21 2.17 8.29 2.08 8.24 2.01C8.24 2.01 8.18 1.93 8.1 1.84C8.02 1.76 7.92 1.66 7.79 1.65C7.68 1.64 7.59 1.69 7.51 1.75L7.68 1.17C7.68 1.15 7.68 1.12 7.67 1.1L7.43 0.73C7.41 0.7 7.37 0.68 7.34 0.69ZM7.33 3.4C8.17 3.4 8.85 4.42 8.85 5.69C8.85 6.95 8.17 7.97 7.33 7.97C6.49 7.97 5.8 6.95 5.8 5.69C5.8 4.42 6.49 3.4 7.33 3.4ZM4.16 3.57C4.65 3.57 5.04 3.98 5.04 4.5C5.04 5.01 4.65 5.43 4.16 5.43C3.67 5.43 3.28 5.01 3.28 4.5C3.28 3.98 3.67 3.57 4.16 3.57ZM10.5 3.73C10.99 3.73 11.38 4.15 11.38 4.66C11.38 5.18 10.99 5.59 10.5 5.59C10.01 5.59 9.62 5.18 9.62 4.66C9.62 4.15 10.01 3.73 10.5 3.73ZM12.56 6.15L12.95 6.72L12.83 7.36C12.64 7.33 12.44 7.33 12.23 7.34C12.38 7 12.49 6.65 12.55 6.29C12.56 6.24 12.56 6.19 12.56 6.15ZM11.96 8.77C10.67 8.78 9.51 9.68 9.25 10.99C8.94 12.49 9.92 13.95 11.41 14.26C12.91 14.56 14.37 13.59 14.68 12.09C14.98 10.6 14.01 9.13 12.51 8.83C12.33 8.79 12.14 8.77 11.96 8.77ZM2.95 8.78C2.59 8.76 2.22 8.81 1.86 8.94C0.43 9.47 -0.31 11.07 0.22 12.5C0.75 13.93 2.34 14.67 3.77 14.14C5.21 13.61 5.94 12.02 5.42 10.58C5.02 9.51 4.02 8.83 2.95 8.78ZM11.93 9.25C12.09 9.25 12.25 9.26 12.42 9.3C12.74 9.36 13.04 9.5 13.29 9.68L12.06 11.07L11.47 9.31C11.62 9.27 11.77 9.26 11.93 9.25ZM2.97 9.26L2.65 11.09L1.22 9.9C1.44 9.69 1.71 9.51 2.02 9.39C2.34 9.28 2.66 9.24 2.97 9.26ZM3.44 9.34C4.05 9.52 4.57 9.94 4.86 10.53L3.12 11.17L3.44 9.34ZM11.01 9.46L11.6 11.23L9.79 10.86C9.99 10.22 10.44 9.73 11.01 9.46ZM13.65 10C14.07 10.46 14.29 11.09 14.23 11.76L12.42 11.39L13.65 10ZM0.92 10.27L2.34 11.46L0.61 12.1C0.44 11.46 0.57 10.8 0.92 10.27ZM5.03 10.99C5.19 11.63 5.07 12.29 4.72 12.81L3.29 11.62L5.03 10.99ZM9.69 11.33L11.51 11.69L10.28 13.09C9.85 12.62 9.63 11.99 9.69 11.33ZM12.32 11.86L14.13 12.23C13.94 12.86 13.49 13.36 12.91 13.62L12.32 11.86ZM2.51 11.91L2.2 13.74C1.59 13.57 1.07 13.15 0.77 12.55L2.51 11.91ZM2.98 11.99L4.41 13.18C4.19 13.4 3.92 13.58 3.61 13.69C3.3 13.81 2.98 13.85 2.67 13.82L2.98 11.99ZM11.87 12.01L12.46 13.78C12.15 13.84 11.83 13.85 11.51 13.79C11.18 13.72 10.89 13.59 10.64 13.41L11.87 12.01Z"/>
</svg>