<svg xmlns="http://www.w3.org/2000/svg" viewBox="0 0 15 15">
  <path fill="param(fill) #888" stroke="param(outline) #000" stroke-width="param(outline-width) 0" fill-opacity="param(fill-opacity) 1" stroke-opacity="param(outline-opacity) 1" d="M8.06 1C7.11 1.52 6.6 2.37 6.52 3.55C6.08 3.67 5.66 3.87 5.28 4.13C4.74 3.65 4.17 3.41 3.56 3.41C2.69 3.41 1.89 3.86 1.15 4.76C0.38 5.71 0 6.8 0 8.04C0 8.42 0.04 8.78 0.13 9.14C0.4 10.48 1.04 11.65 2.04 12.65C2.95 13.55 3.8 14 4.58 14C5 14 5.38 13.8 5.74 13.41C6.35 13.8 6.92 14 7.46 14C8.03 14 8.64 13.79 9.27 13.37C9.64 13.79 10.03 14 10.45 14C11.26 14 12.12 13.55 13.05 12.65C14.08 11.65 14.7 10.47 14.93 9.14C14.98 8.81 15 8.47 15 8.15C15 6.85 14.63 5.73 13.88 4.78C13.16 3.87 12.37 3.41 11.49 3.41C10.86 3.41 10.27 3.66 9.72 4.17C9.17 3.76 8.57 3.52 7.93 3.44C7.96 3.23 8.01 3.02 8.09 2.82C8.29 2.36 8.61 1.99 9.04 1.71L8.06 1ZM4.89 5.94C4.94 5.94 4.97 5.98 4.97 6.05C4 7.19 3.19 8.83 5.37 11.3C5.46 11.7 3 10.75 2.97 8.63C2.93 6.51 4.51 5.88 4.89 5.94ZM9.94 5.99C10.32 5.93 11.84 6.66 11.86 8.68C11.88 10.7 9.36 11.75 9.46 11.35C11.64 8.88 10.82 7.25 9.85 6.11C9.85 6.03 9.88 5.99 9.94 5.99Z"/>
</svg>