<svg xmlns="http://www.w3.org/2000/svg" viewBox="0 0 15 15">
  <path fill="param(fill) #888" stroke="param(outline) #000" stroke-width="param(outline-width) 0" fill-opacity="param(fill-opacity) 1" stroke-opacity="param(outline-opacity) 1" d="M7.25 0L6.63 0.77L5.63 0.71L6.19 1.52L5.81 2.43L6.78 2.17L7.56 2.79L7.6 1.81L8.44 1.29L7.5 0.95L7.25 0ZM11.16 0.55L10.86 1.95L9.53 2.49L10.77 3.21L10.88 4.64L11.95 3.68L13.35 4.02L12.76 2.71L13.51 1.49L12.09 1.64L11.16 0.55ZM2.98 1.89L2.09 3.02L0.66 2.93L1.46 4.12L0.93 5.45L2.31 5.06L3.41 5.97L3.46 4.54L4.67 3.78L3.33 3.28L2.98 1.89ZM7.97 4.38C7.2 4.8 6.78 5.5 6.72 6.46C6.36 6.56 6.02 6.72 5.71 6.93C5.27 6.54 4.81 6.35 4.31 6.35C3.61 6.35 2.96 6.71 2.36 7.45C1.73 8.22 1.42 9.12 1.42 10.13C1.42 10.44 1.45 10.74 1.52 11.03C1.74 12.12 2.26 13.08 3.08 13.9C3.82 14.63 4.51 15 5.15 15C5.48 15 5.79 14.84 6.08 14.52C6.58 14.84 7.05 15 7.48 15C7.95 15 8.44 14.83 8.96 14.48C9.25 14.83 9.57 15 9.92 15C10.57 15 11.28 14.63 12.03 13.9C12.87 13.08 13.38 12.12 13.56 11.03C13.6 10.76 13.62 10.48 13.62 10.22C13.62 9.16 13.31 8.24 12.7 7.47C12.12 6.72 11.48 6.35 10.76 6.35C10.25 6.35 9.77 6.55 9.32 6.96C8.87 6.64 8.38 6.44 7.86 6.37C7.89 6.2 7.93 6.03 8 5.87C8.16 5.49 8.42 5.19 8.77 4.96L7.97 4.38ZM5.39 8.41C5.44 8.42 5.46 8.45 5.46 8.51C4.67 9.44 4.01 10.77 5.78 12.79C5.86 13.12 3.86 12.35 3.83 10.61C3.8 8.88 5.08 8.37 5.39 8.41ZM9.5 8.45C9.81 8.41 11.04 9 11.06 10.65C11.08 12.31 9.03 13.16 9.11 12.83C10.88 10.81 10.22 9.48 9.43 8.55C9.43 8.49 9.45 8.46 9.5 8.45Z"/>
</svg>