<svg xmlns="http://www.w3.org/2000/svg" viewBox="0 0 15 15">
  <path fill="param(fill) #888" stroke="param(outline) #000" stroke-width="param(outline-width) 0" fill-opacity="param(fill-opacity) 1" stroke-opacity="param(outline-opacity) 1" d="M6.48 0C5.47 0 4.65 0.82 4.65 1.83C4.65 2.28 4.82 2.71 5.12 3.05L1 3.05L1 6.57C1.34 6.27 1.77 6.11 2.22 6.11C2.7 6.11 3.17 6.3 3.51 6.64C3.85 6.99 4.05 7.45 4.05 7.94C4.04 8.94 3.22 9.76 2.22 9.76C1.77 9.76 1.34 9.59 1 9.3L1 14L5.12 14C4.82 13.67 4.65 13.23 4.65 12.78C4.66 11.78 5.47 10.96 6.48 10.96C7.48 10.97 8.3 11.78 8.3 12.78C8.3 13.23 8.14 13.66 7.84 14L11.95 14L11.95 9.89C12.29 10.19 12.72 10.35 13.17 10.35C14.18 10.35 14.99 9.54 15 8.53C15 8.04 14.81 7.58 14.46 7.23C14.12 6.89 13.65 6.7 13.17 6.7C12.72 6.7 12.29 6.87 11.95 7.17L11.95 3.05L7.84 3.05C8.14 2.71 8.3 2.28 8.3 1.83C8.3 0.82 7.49 0.01 6.48 0Z"/>
</svg>