<svg xmlns="http://www.w3.org/2000/svg" viewBox="0 0 15 15">
  <path fill="param(fill) #888" stroke="param(outline) #000" stroke-width="param(outline-width) 0" fill-opacity="param(fill-opacity) 1" stroke-opacity="param(outline-opacity) 1" d="M7.5 0C11.09 0 14 2.91 14 6.5L14 8.5C14 9.63 13.71 10.69 13.2 11.62L15 13L13.5 15L11.6 13.54C10.48 14.45 9.06 15 7.5 15C3.91 15 1 12.09 1 8.5L1 6.5C1 2.91 3.91 0 7.5 0ZM7.5 3C5.57 3 4 4.57 4 6.5L4 8.5C4 10.43 5.57 12 7.5 12C8.08 12 8.62 11.86 9.1 11.61L7 10L8.5 8L10.77 9.75C10.92 9.36 11 8.94 11 8.5L11 6.5C11 4.57 9.43 3 7.5 3Z"/>
</svg>