<svg xmlns="http://www.w3.org/2000/svg" viewBox="0 0 15 15">
  <path fill="param(fill) #888" stroke="param(outline) #000" stroke-width="param(outline-width) 0" fill-opacity="param(fill-opacity) 1" stroke-opacity="param(outline-opacity) 1" d="M12.38 0C13.82 0 15 1.18 15 2.63C15 4.07 13.82 5.25 12.38 5.25C11.95 5.25 11.55 5.15 11.19 4.97L9.93 7.5L11.19 10.03C11.55 9.85 11.95 9.75 12.38 9.75C13.82 9.75 15 10.93 15 12.38C15 13.82 13.82 15 12.38 15C10.93 15 9.75 13.82 9.75 12.38C9.75 11.95 9.85 11.55 10.03 11.19L7.5 9.93L4.97 11.19C5.15 11.55 5.25 11.95 5.25 12.38C5.25 13.82 4.07 15 2.63 15C1.18 15 0 13.82 0 12.38C0 10.93 1.18 9.75 2.63 9.75C3.05 9.75 3.45 9.85 3.81 10.03L5.07 7.5L3.81 4.97C3.45 5.15 3.05 5.25 2.63 5.25C1.18 5.25 0 4.07 0 2.63C0 1.18 1.18 0 2.63 0C4.07 0 5.25 1.18 5.25 2.63C5.25 3.05 5.15 3.45 4.97 3.81L7.5 5.07L10.03 3.81C9.85 3.45 9.75 3.05 9.75 2.63C9.75 1.18 10.93 0 12.38 0ZM12.38 11.25C12.19 11.25 12.02 11.29 11.86 11.37L12.2 12.04C12.25 12.02 12.31 12 12.38 12C12.58 12 12.75 12.17 12.75 12.38C12.75 12.58 12.58 12.75 12.38 12.75C12.17 12.75 12 12.58 12 12.38C12 12.31 12.02 12.25 12.04 12.2L11.37 11.86C11.29 12.02 11.25 12.19 11.25 12.38C11.25 13 11.75 13.5 12.38 13.5C13 13.5 13.5 13 13.5 12.38C13.5 11.75 13 11.25 12.38 11.25ZM2.63 11.25C2 11.25 1.5 11.75 1.5 12.38C1.5 13 2 13.5 2.63 13.5C3.25 13.5 3.75 13 3.75 12.38C3.75 12.19 3.71 12.02 3.63 11.86L2.96 12.2C2.98 12.25 3 12.31 3 12.38C3 12.58 2.83 12.75 2.63 12.75C2.42 12.75 2.25 12.58 2.25 12.38C2.25 12.17 2.42 12 2.63 12C2.69 12 2.75 12.02 2.8 12.04L3.14 11.37C2.98 11.29 2.81 11.25 2.63 11.25ZM2.63 1.5C2 1.5 1.5 2 1.5 2.63C1.5 3.25 2 3.75 2.63 3.75C2.81 3.75 2.98 3.71 3.14 3.63L2.8 2.96C2.75 2.98 2.69 3 2.63 3C2.42 3 2.25 2.83 2.25 2.63C2.25 2.42 2.42 2.25 2.63 2.25C2.83 2.25 3 2.42 3 2.63C3 2.69 2.98 2.75 2.96 2.8L3.63 3.14C3.71 2.98 3.75 2.81 3.75 2.63C3.75 2 3.25 1.5 2.63 1.5ZM12.38 1.5C11.75 1.5 11.25 2 11.25 2.63C11.25 2.81 11.29 2.98 11.37 3.14L12.04 2.8C12.02 2.75 12 2.69 12 2.63C12 2.42 12.17 2.25 12.38 2.25C12.58 2.25 12.75 2.42 12.75 2.63C12.75 2.83 12.58 3 12.38 3C12.31 3 12.25 2.98 12.2 2.96L11.86 3.63C12.02 3.71 12.19 3.75 12.38 3.75C13 3.75 13.5 3.25 13.5 2.63C13.5 2 13 1.5 12.38 1.5Z"/>
</svg>