<svg xmlns="http://www.w3.org/2000/svg" viewBox="0 0 15 15">
  <path fill="param(fill) #888" stroke="param(outline) #000" stroke-width="param(outline-width) 0" fill-opacity="param(fill-opacity) 1" stroke-opacity="param(outline-opacity) 1" d="M12 11C12.67 12.33 13.42 13 14.25 13C14.51 13 14.76 12.94 15 12.81L15 14.86C14.76 14.95 14.51 15 14.25 15C13.42 15 12.67 14.5 12 13.5C11.33 14.5 10.58 15 9.75 15C8.92 15 8.17 14.5 7.5 13.5C6.83 14.5 6.08 15 5.25 15C4.42 15 3.67 14.5 3 13.5C2.33 14.5 1.58 15 0.75 15C0.49 15 0.24 14.95 0 14.86L0 12.81C0.24 12.94 0.49 13 0.75 13C1.58 13 2.33 12.33 3 11C3.67 12.33 4.42 13 5.25 13C6.08 13 6.83 12.33 7.5 11C8.17 12.33 8.92 13 9.75 13C10.58 13 11.33 12.33 12 11ZM7.5 7C6.68 7 6 7.68 6 8.5C6 9.32 6.68 10 7.5 10C8.32 10 9 9.32 9 8.5C9 7.68 8.32 7 7.5 7ZM9.65 4.41L9.06 4.69C8.57 4.91 8.28 5.33 8.28 5.79L8.28 6L6.72 6L6.72 5.15C6.72 4.65 7.04 4.19 7.55 3.94L7.8 3.82C8.33 3.61 8.67 3.17 8.67 2.69L8.67 2.53L8.63 2.46C8.41 2.12 7.97 1.89 7.5 1.89C7.03 1.89 6.59 2.12 6.37 2.46L6.33 2.53C6.33 3.05 5.81 3.47 5.17 3.47C4.52 3.47 4 3.05 4 2.53C4 1.13 5.39 0 7.11 0L7.89 0C9.61 0 11 1.13 11 2.53C11 3.31 10.49 4.03 9.65 4.41Z"/>
</svg>