<svg xmlns="http://www.w3.org/2000/svg" viewBox="0 0 15 15">
  <path fill="param(fill) #888" stroke="param(outline) #000" stroke-width="param(outline-width) 0" fill-opacity="param(fill-opacity) 1" stroke-opacity="param(outline-opacity) 1" d="M7.5 11C8.6 11 9.5 11.9 9.5 13C9.5 14.1 8.6 15 7.5 15C6.4 15 5.5 14.1 5.5 13C5.5 11.9 6.4 11 7.5 11ZM12 4C12 5.24 11.34 6.38 10.26 6.99L9.51 7.42C8.88 7.78 8.5 8.44 8.5 9.16L8.5 9.5L8.5 9.5L6.5 9.5L6.5 8.15C6.5 7.29 6.98 6.51 7.75 6.13L7.89 6.05C8.57 5.71 9 5.02 9 4.26L9 4L9 4L8.95 3.89C8.67 3.35 8.11 3 7.5 3C6.89 3 6.33 3.35 6.05 3.89L6 4L6 4C6 4.83 5.33 5.5 4.5 5.5C3.67 5.5 3 4.83 3 4L3 4L3 4C3 1.79 4.79 0 7 0L8 0C10.21 0 12 1.79 12 4L12 4L12 4Z"/>
</svg>