<svg xmlns="http://www.w3.org/2000/svg" viewBox="0 0 15 15">
  <path fill="param(fill) #888" stroke="param(outline) #000" stroke-width="param(outline-width) 0" fill-opacity="param(fill-opacity) 1" stroke-opacity="param(outline-opacity) 1" d="M5.73 0.68C3 0.75 0 3.53 0 3.53L2.09 14.5C2.09 14.5 4.84 11.39 7.58 11.1C10.3 10.82 10.57 13.98 15 12.39C14.26 11.2 13.36 10.66 13.36 10.66L14.12 9.29C13.31 9.5 12.3 7.36 13.86 7.5C13.84 7.15 14.14 6.79 13.11 6.44L14.17 5.86C13.62 5.93 13.3 4.55 13.76 3.77C14.16 3.09 13.18 2.45 13.79 1.57C10.03 3.19 8.45 0.62 5.73 0.68ZM6.58 2.84C7.69 2.89 8.43 3.24 9.13 4.06C9.6 4.62 9.73 4.93 9.78 5.71C9.82 6.23 9.74 6.76 9.6 6.89C9.47 7.01 9.41 7.33 9.47 7.61C9.54 7.92 9.39 8.37 9.07 8.78C8.64 9.35 8.43 9.45 7.67 9.5C6.94 9.55 6.63 9.47 6.01 9.06C5.46 8.7 5.22 8.4 5.12 7.95C5.04 7.59 4.86 7.32 4.67 7.27C4.47 7.22 4.21 6.79 3.96 6.07C3.6 5.03 3.6 4.88 3.97 4.19C4.39 3.4 5.19 2.92 6.16 2.84C6.3 2.83 6.44 2.83 6.58 2.84ZM8.26 5.2C8.12 5.21 7.98 5.25 7.84 5.33C7.36 5.61 7.37 5.81 7.86 6.13C8.4 6.49 8.82 6.37 8.9 5.86C8.97 5.43 8.66 5.16 8.26 5.2ZM5.33 5.36C5.02 5.39 4.82 5.58 4.89 5.89C5.05 6.6 5.8 6.73 6.23 6.12C6.45 5.81 6.41 5.71 5.98 5.5C5.74 5.39 5.51 5.34 5.33 5.36ZM7 6.4C6.98 6.4 6.96 6.4 6.95 6.41C6.85 6.47 6.66 6.83 6.8 6.93C6.93 7.01 6.95 6.9 7.07 6.89C7.18 6.89 7.26 6.97 7.34 6.9C7.43 6.82 7.14 6.45 7 6.4ZM8.74 7.55C8.71 7.55 8.67 7.56 8.65 7.59L8.38 7.93L8.12 7.76C8.1 7.74 8.07 7.73 8.04 7.73C7.42 7.66 7 7.72 6.51 7.8C6.48 7.81 6.45 7.82 6.44 7.84L6.18 8.12L5.74 7.78C5.7 7.76 5.66 7.74 5.62 7.75C5.61 7.75 5.61 7.75 5.61 7.75C5.5 7.77 5.47 7.88 5.56 7.95L6.13 8.38C6.19 8.42 6.28 8.42 6.33 8.37L6.63 8.03C7.09 7.95 7.46 7.9 8 7.96L8.33 8.19C8.4 8.24 8.49 8.23 8.53 8.18L8.89 7.74C8.96 7.65 8.85 7.54 8.74 7.55Z"/>
</svg>