<svg xmlns="http://www.w3.org/2000/svg" viewBox="0 0 15 15">
  <path fill="param(fill) #888" stroke="param(outline) #000" stroke-width="param(outline-width) 0" fill-opacity="param(fill-opacity) 1" stroke-opacity="param(outline-opacity) 1" d="M10.35 0.64C10.02 0.69 9.73 0.9 9.54 1.17C9.1 1.77 8.98 2.52 8.77 3.21C8.54 4.12 8.31 5.04 8.17 5.96C8.15 6.23 8.35 6.28 8.6 6.03C9.49 5.2 10.36 4.33 11.22 3.48C11.42 3.26 11.63 3.04 11.79 2.78C12.02 2.38 12.13 1.86 11.89 1.44C11.63 1.02 11.16 0.73 10.68 0.64C10.57 0.61 10.45 0.62 10.35 0.64ZM4.52 0.7C4.02 0.71 3.53 0.97 3.21 1.34C2.92 1.68 2.93 2.18 3.11 2.58C3.41 3.26 3.99 3.75 4.49 4.29C5.15 4.94 5.83 5.58 6.56 6.16C6.78 6.31 6.92 6.18 6.83 5.83C6.56 4.65 6.27 3.48 5.96 2.31C5.87 2.02 5.78 1.7 5.63 1.44C5.4 1.04 5.01 0.7 4.52 0.7ZM1.07 6.06C0.72 6.12 0.38 6.31 0.2 6.63C-0.04 7.06 -0.06 7.61 0.1 8.07C0.25 8.5 0.7 8.77 1.14 8.81C1.88 8.89 2.57 8.6 3.28 8.44C4.18 8.19 5.09 7.94 5.96 7.6C6.2 7.49 6.14 7.26 5.79 7.17C4.64 6.81 3.48 6.48 2.31 6.16C2.01 6.09 1.71 6.06 1.41 6.06C1.29 6.06 1.19 6.04 1.07 6.06ZM13.59 6.06C13.29 6.06 12.99 6.09 12.69 6.16C11.52 6.48 10.36 6.81 9.21 7.17C8.86 7.26 8.8 7.49 9.04 7.6C9.91 7.94 10.82 8.19 11.72 8.44C12.43 8.6 13.12 8.89 13.86 8.81C14.3 8.77 14.75 8.5 14.9 8.07C15.06 7.61 15.04 7.06 14.8 6.63C14.56 6.21 14.06 6.05 13.59 6.06ZM6.73 8.64C6.69 8.64 6.62 8.67 6.56 8.71C5.83 9.29 5.15 9.96 4.49 10.61C3.99 11.15 3.41 11.6 3.11 12.29C2.93 12.69 2.92 13.18 3.21 13.53C3.53 13.9 4.02 14.19 4.52 14.2C5.01 14.2 5.4 13.83 5.63 13.43C5.78 13.16 5.87 12.88 5.96 12.59C6.27 11.42 6.56 10.22 6.83 9.04C6.9 8.78 6.86 8.63 6.73 8.64ZM8.3 8.71C8.22 8.72 8.16 8.81 8.17 8.94C8.31 9.86 8.54 10.75 8.77 11.65C8.98 12.35 9.1 13.13 9.54 13.73C9.79 14.09 10.24 14.31 10.68 14.23C11.16 14.14 11.63 13.85 11.89 13.43C12.13 13.01 12.02 12.48 11.79 12.09C11.63 11.82 11.42 11.61 11.22 11.38C10.36 10.53 9.49 9.7 8.6 8.87C8.48 8.74 8.38 8.69 8.3 8.71Z"/>
</svg>