<?xml version="1.0" encoding="UTF-8"?>
<svg viewBox="0 0 15 15" version="1.1" xmlns="http://www.w3.org/2000/svg" xmlns:xlink="http://www.w3.org/1999/xlink">
  <path fill="param(fill) #888" stroke="param(outline) #000" stroke-width="param(outline-width) 0" fill-opacity="param(fill-opacity) 1" stroke-opacity="param(outline-opacity) 1" d="M13 3C14.1 3 15 3.9 15 5L15 10C15 11.1 14.1 12 13 12L2 12C0.9 12 0 11.1 0 10L0 5C0 3.9 0.9 3 2 3L13 3ZM13 4.5L2 4.5C1.72 4.5 1.5 4.72 1.5 5L1.5 10C1.5 10.28 1.72 10.5 2 10.5L13 10.5C13.28 10.5 13.5 10.28 13.5 10L13.5 5C13.5 4.72 13.28 4.5 13 4.5Z"/>
</svg>