<?xml version="1.0" encoding="UTF-8"?>
<svg viewBox="0 0 15 15" version="1.1" xmlns="http://www.w3.org/2000/svg" xmlns:xlink="http://www.w3.org/1999/xlink">
  <path fill="param(fill) #888" stroke="param(outline) #000" stroke-width="param(outline-width) 0" fill-opacity="param(fill-opacity) 1" stroke-opacity="param(outline-opacity) 1" d="M10 0C11.1 0 12 0.9 12 2L12 13C12 14.1 11.1 15 10 15L5 15C3.9 15 3 14.1 3 13L3 2C3 0.9 3.9 0 5 0L10 0ZM10 1.5L5 1.5C4.72 1.5 4.5 1.72 4.5 2L4.5 13C4.5 13.28 4.72 13.5 5 13.5L10 13.5C10.28 13.5 10.5 13.28 10.5 13L10.5 2C10.5 1.72 10.28 1.5 10 1.5Z"/>
</svg>