<svg xmlns="http://www.w3.org/2000/svg" viewBox="0 0 15 15">
  <path fill="param(fill) #888" stroke="param(outline) #000" stroke-width="param(outline-width) 0" fill-opacity="param(fill-opacity) 1" stroke-opacity="param(outline-opacity) 1" d="M8.97 0C10.07 0 10.86 0.71 11.09 1.58L11.73 2.43C12.65 3.64 12.65 5.33 11.73 6.54L10.49 8.14L8.39 5.52L9.93 3.55C9.63 3.38 9.28 3.29 8.93 3.29L6.75 3.29C6.38 3.29 6.02 3.38 5.72 3.55L7.97 6.45L9.82 8.77L13 12.85L10.6 15L7.7 11.32L3.94 6.58C3.02 5.36 3.02 3.68 3.94 2.47L4.6 1.59C4.84 0.68 5.66 -0.01 6.79 0L8.97 0ZM5.14 9.68L7.26 12.23L5.08 14.99L2.5 13.04L5.14 9.68Z"/>
</svg>