<svg xmlns="http://www.w3.org/2000/svg" viewBox="0 0 15 15">
  <path fill="param(fill) #888" stroke="param(outline) #000" stroke-width="param(outline-width) 0" fill-opacity="param(fill-opacity) 1" stroke-opacity="param(outline-opacity) 1" d="M7 12.86L7 14.73L6.25 15L6 14.73L6 14.2L6.5 13.66L6.5 13.13L7 12.86ZM8.75 0L9 2L10 2L10 4L11.13 4.86L11.58 5.64L11.28 5.89L11.42 6.4L10.97 6.88L10.73 6.25L10.29 6.67L10.65 5.27L10.29 5.45L9.82 5.45L9 4L9 4.75L9.53 5.89L9.03 6.51L9 6L8 6L8 6.51L8.5 6.5L8.75 8L8 8L8.67 8.84L8.67 10.1L8.15 10.8L7.59 12.07L6.93 11.76L2 13L2 12L2.5 11L3 11L3 0L8.75 0ZM11.58 6.76L11.58 7.19L11.33 7.33L11.33 9.73L10.69 9.73L10.44 10.32L9.54 10.61L9.54 10.17L10.11 9.92L10.11 9.32L10.69 8.02L10.91 7.33L11.33 6.93L11.58 6.76ZM9.54 8.15L9.54 8.51L9.31 8.79L9.54 9.13L9.54 9.94L9.31 9.94L8.98 10.44L8.98 9.62L9.15 9.62L8.98 9.13L9.31 8.15L9.54 8.15ZM9.89 6.42L9.89 6.9L10.43 7.26L10.29 7.78L10.02 8.15L9.79 7.78L10.02 7.26L9.54 7.02L9.54 6.58L9.89 6.42ZM12.08 6.25L13 6.58L13 9.64L12.08 10.32L11.76 8.59L11.76 7.17L12.08 6.25Z"/>
</svg>