<svg xmlns="http://www.w3.org/2000/svg" viewBox="0 0 15 15">
  <path fill="param(fill) #888" stroke="param(outline) #000" stroke-width="param(outline-width) 0" fill-opacity="param(fill-opacity) 1" stroke-opacity="param(outline-opacity) 1" d="M11.92 3L12.9 1.67L11.65 0L8.72 0L7.47 1.67L8.42 2.97C7.46 3.33 6.65 3.99 6.08 4.83C6.51 4.92 6.92 5.07 7.31 5.26C8 4.4 9.04 3.9 10.13 3.9C12.16 3.9 13.8 5.57 13.74 7.6C13.68 9.57 11.96 11.16 9.98 11.08C8.12 11.01 6.62 9.51 6.53 7.66C6.16 7.42 5.74 7.26 5.29 7.2C5.28 7.3 5.27 7.39 5.27 7.49C5.27 10.22 7.56 12.44 10.33 12.33C12.91 12.22 15 10.05 15 7.48C15 5.45 13.72 3.7 11.92 2.99L11.92 3ZM10.88 2.5L10 1.62L10.88 0.73L11.77 1.62L10.88 2.5ZM7.68 12.4C8.07 12.59 8.48 12.74 8.92 12.83C8.04 14.14 6.55 15 4.87 15C2.18 15 0 12.82 0 10.15C0 7.48 2.18 5.31 4.87 5.31C7.55 5.31 9.73 7.48 9.73 10.15C9.73 10.25 9.72 10.35 9.72 10.44C9.26 10.38 8.83 10.21 8.47 9.96C8.36 8.07 6.79 6.56 4.87 6.56C2.94 6.56 1.26 8.17 1.26 10.15C1.26 12.13 2.88 13.74 4.87 13.74C5.96 13.74 7 13.24 7.68 12.39L7.68 12.4Z"/>
</svg>