<svg xmlns="http://www.w3.org/2000/svg" viewBox="0 0 15 15">
  <path fill="param(fill) #888" stroke="param(outline) #000" stroke-width="param(outline-width) 0" fill-opacity="param(fill-opacity) 1" stroke-opacity="param(outline-opacity) 1" d="M11.26 0.81C10.89 0.8 10.61 0.92 10.49 1.15L9.02 3.74C7.65 3.38 6.49 3.66 6.04 4.44L2.12 10.97C1.81 11.18 1.57 11.44 1.39 11.68C1.09 12.09 0.85 12.47 0.24 12.84C-0.31 13.17 0.18 13.98 0.73 13.65C1.5 13.19 1.88 12.63 2.16 12.25C2.37 11.96 2.53 11.81 2.8 11.7C2.79 11.72 2.79 11.72 2.78 11.75C2.68 11.96 2.56 12.16 2.49 12.43C2.47 12.5 2.45 12.57 2.47 12.7C2.49 12.82 2.59 13.02 2.76 13.11C2.93 13.19 3.06 13.17 3.15 13.15C3.25 13.13 3.32 13.1 3.4 13.06C3.73 12.9 4.63 12.56 5.51 12.33C5.95 12.22 6.38 12.13 6.75 12.09C6.79 12.09 6.79 12.1 6.83 12.1C6.76 12.21 6.74 12.21 6.67 12.33C6.53 12.58 6.41 12.84 6.39 13.16C6.39 13.32 6.42 13.52 6.54 13.69C6.67 13.87 6.88 13.97 7.07 14C7.3 14.05 7.49 14.02 7.72 13.97C7.96 13.93 8.22 13.86 8.5 13.78C9.07 13.61 9.73 13.38 10.36 13.14C11.02 12.89 11.17 12.81 11.62 12.63C11.57 12.79 11.5 12.95 11.5 13.13C11.49 13.44 11.58 13.8 11.85 14.07C12.14 14.36 12.55 14.41 12.88 14.37C13.21 14.32 13.52 14.2 13.8 14.06C14.35 13.78 14.8 13.43 14.8 13.43C15.33 13.04 14.71 12.26 14.21 12.68C14.21 12.68 13.82 12.99 13.37 13.21C13.15 13.32 12.92 13.4 12.75 13.42C12.59 13.45 12.55 13.42 12.52 13.39C12.46 13.34 12.44 13.29 12.45 13.16C12.45 13.03 12.5 12.85 12.57 12.67C12.72 12.32 12.95 12.02 12.95 12.02C13.24 11.63 12.83 11.1 12.38 11.3C12.38 11.3 11.59 11.63 10.66 12L12.77 8.48C13.25 7.71 12.95 6.56 11.99 5.52L13.46 2.93C13.94 2.2 12.52 0.84 11.26 0.81ZM8.97 6.09C9.56 6.08 10.32 6.57 10.54 7.22C9.78 7.91 8.64 8.24 7.54 8.41C7.54 8.41 7.96 6.8 8.48 6.29C8.6 6.16 8.78 6.1 8.97 6.09ZM5.96 7.7C6.76 10.32 9.19 8.72 10.99 7.7L8.11 11.87C8.2 11.63 8.09 11.37 7.87 11.27C7.49 11.1 7.09 11.1 6.65 11.15C6.27 11.18 5.86 11.27 5.45 11.37L5.96 7.7ZM7.88 12.2L7.8 12.33C7.84 12.27 7.85 12.24 7.88 12.2Z"/>
</svg>