<svg xmlns="http://www.w3.org/2000/svg" viewBox="0 0 15 15">
  <path fill="param(fill) #888" stroke="param(outline) #000" stroke-width="param(outline-width) 0" fill-opacity="param(fill-opacity) 1" stroke-opacity="param(outline-opacity) 1" d="M1.01 12.25C1.11 12.2 1.21 12.14 1.29 12.07L1.61 11.81C1.86 11.61 2.18 11.5 2.5 11.5C2.82 11.5 3.14 11.61 3.39 11.81L3.7 12.06L3.84 12.16C3.86 12.18 3.89 12.19 3.91 12.21C3.93 12.22 3.96 12.24 3.99 12.25L3.91 12.21C3.96 12.24 4.02 12.27 4.08 12.3L3.99 12.25C4.04 12.28 4.09 12.31 4.14 12.33L4.08 12.3C4.13 12.33 4.19 12.35 4.24 12.37L4.14 12.33C4.19 12.35 4.25 12.37 4.31 12.39L4.24 12.37C4.28 12.39 4.33 12.4 4.38 12.42L4.31 12.39C4.36 12.41 4.42 12.43 4.48 12.44L4.38 12.42C4.43 12.43 4.49 12.45 4.54 12.46L4.48 12.44C4.54 12.46 4.59 12.47 4.65 12.48L4.54 12.46C4.68 12.49 4.81 12.5 4.95 12.5L5.05 12.5C5.16 12.5 5.27 12.49 5.38 12.47C5.48 12.46 5.58 12.43 5.68 12.4C5.69 12.4 5.7 12.39 5.7 12.39L5.68 12.4C5.73 12.38 5.78 12.36 5.82 12.34L5.7 12.39C5.76 12.37 5.81 12.35 5.86 12.33L5.82 12.34C5.85 12.33 5.88 12.32 5.91 12.3L5.86 12.33C5.96 12.28 6.06 12.23 6.15 12.17C6.2 12.14 6.25 12.1 6.3 12.06L6.61 11.81C6.65 11.78 6.69 11.76 6.73 11.73C6.74 11.72 6.75 11.72 6.76 11.71C6.79 11.69 6.82 11.67 6.86 11.66C6.87 11.65 6.88 11.65 6.89 11.64C7.08 11.55 7.29 11.5 7.5 11.5C7.56 11.5 7.62 11.51 7.68 11.52L7.77 11.53C7.79 11.53 7.81 11.54 7.83 11.54L7.68 11.52C7.82 11.53 7.96 11.57 8.09 11.63C8.1 11.64 8.11 11.64 8.12 11.65C8.14 11.65 8.16 11.66 8.17 11.67C8.25 11.71 8.32 11.76 8.39 11.81L8.26 11.72C8.31 11.75 8.35 11.78 8.39 11.81L8.7 12.06L8.85 12.17C8.87 12.18 8.89 12.2 8.91 12.21C8.94 12.23 8.96 12.24 8.99 12.25L8.91 12.21C8.96 12.24 9.02 12.27 9.07 12.3L8.99 12.25C9.04 12.28 9.1 12.31 9.15 12.33L9.07 12.3C9.12 12.32 9.17 12.34 9.23 12.37L9.15 12.33C9.21 12.36 9.26 12.38 9.32 12.4L9.23 12.37C9.46 12.45 9.7 12.5 9.95 12.5L10.05 12.5C10.5 12.5 10.94 12.35 11.3 12.06L11.61 11.81C11.86 11.61 12.18 11.5 12.5 11.5C12.82 11.5 13.14 11.61 13.39 11.81L13.71 12.07C14.06 12.35 14.49 12.5 14.95 12.5L15 12.5L15 14L14.95 14C14.49 14 14.06 13.84 13.71 13.56L13.39 13.31C13.14 13.11 12.82 13 12.5 13C12.18 13 11.86 13.11 11.61 13.31L11.3 13.56C10.94 13.84 10.5 14 10.05 14L9.95 14C9.5 14 9.06 13.84 8.7 13.56L8.39 13.31C8.14 13.11 7.82 13 7.5 13C7.18 13 6.86 13.11 6.61 13.31L6.3 13.56C5.94 13.84 5.5 14 5.05 14L4.95 14C4.5 14 4.06 13.84 3.7 13.56L3.39 13.31C3.14 13.11 2.82 13 2.5 13C2.18 13 1.86 13.11 1.61 13.31L1.29 13.56C0.94 13.84 0.51 14 0.05 14L0 14L0 12.5L0.05 12.5C0.33 12.5 0.61 12.44 0.86 12.33ZM11.26 0C12.52 0.03 13.94 1.39 13.46 2.12L11.99 4.71C12.95 5.75 13.25 6.9 12.77 7.67L10.66 11.19C10.74 11.16 10.8 11.14 10.86 11.13L10.67 11.28C10.5 11.42 10.28 11.5 10.05 11.5L9.95 11.5C9.72 11.5 9.5 11.42 9.33 11.28L9.01 11.03C8.8 10.86 8.56 10.73 8.31 10.64L10.99 6.89C9.19 7.91 6.76 9.51 5.96 6.89L4.59 11.43C4.5 11.4 4.41 11.35 4.33 11.28L4.01 11.03C3.58 10.69 3.05 10.5 2.5 10.5C2.29 10.5 2.09 10.53 1.9 10.58L6.04 3.63C6.49 2.85 7.65 2.57 9.02 2.93L10.49 0.34C10.61 0.11 10.89 -0.01 11.26 0ZM8.97 5.28C8.78 5.29 8.6 5.35 8.48 5.48C7.96 5.99 7.54 7.6 7.54 7.6C8.64 7.43 9.78 7.1 10.54 6.41C10.32 5.76 9.56 5.27 8.97 5.28Z"/>
</svg>