<svg xmlns="http://www.w3.org/2000/svg" viewBox="0 0 15 15">
  <path fill="param(fill) #888" stroke="param(outline) #000" stroke-width="param(outline-width) 0" fill-opacity="param(fill-opacity) 1" stroke-opacity="param(outline-opacity) 1" d="M12.84 0C12.57 0.03 12.29 0.15 12.01 0.33C11.84 0.45 11.75 0.6 11.67 0.77C11.38 0.77 11.07 0.87 10.82 1.13C10.6 1.34 10.5 1.61 10.48 1.86L9.24 3.1C9.07 2.99 8.9 2.89 8.72 2.81C8.38 2.65 8.03 2.53 7.66 2.52C7.3 2.51 6.89 2.63 6.62 2.93L0.5 9.05C0.2 9.32 0.08 9.73 0.09 10.09C0.1 10.46 0.22 10.8 0.38 11.15C0.71 11.85 1.26 12.56 1.9 13.19C2.53 13.83 3.24 14.38 3.94 14.71C4.29 14.87 4.63 14.99 5 15C5.36 15.01 5.77 14.89 6.04 14.59L12.17 8.47C12.46 8.2 12.58 7.79 12.57 7.43C12.56 7.06 12.44 6.72 12.28 6.37C12.2 6.2 12.1 6.02 12 5.85L13.23 4.61C13.48 4.59 13.75 4.49 13.96 4.27C14.23 4.01 14.33 3.69 14.32 3.39C14.32 3.34 14.31 3.31 14.3 3.27C14.5 3.15 14.67 2.99 14.79 2.77C14.96 2.46 14.93 2.08 14.81 1.68C14.7 1.28 14.47 0.87 14.11 0.56C13.78 0.27 13.47 0.07 13.11 0.01C13.02 0 12.93 0 12.84 0ZM12.88 0.57C12.93 0.57 12.98 0.57 13.02 0.58C13.21 0.6 13.44 0.73 13.74 0.99C13.99 1.21 14.18 1.54 14.27 1.84C14.36 2.14 14.33 2.43 14.29 2.5C14.28 2.52 14.26 2.53 14.25 2.55C14.16 2.54 14.07 2.55 14 2.55C13.87 2.56 13.77 2.56 13.66 2.53C13.45 2.47 13.16 2.27 12.81 1.43C12.77 1.32 12.66 1.25 12.54 1.25C12.45 1.25 12.36 1.3 12.31 1.38C12.26 1.46 12.25 1.56 12.29 1.65C12.63 2.48 13.01 2.86 13.38 3.02C13.34 3.03 13.29 3.05 13.24 3.06C12.9 3.13 12.64 3.15 12.5 3.16C12.4 3.08 12.3 2.99 12.2 2.89C12.09 2.79 12 2.68 11.92 2.57C11.92 2.57 11.92 2.58 11.92 2.58C11.84 2.47 11.79 2.38 11.73 2.29C11.77 2.14 11.82 1.97 11.88 1.79C11.95 1.56 12.03 1.32 12.12 1.13C12.21 0.94 12.32 0.81 12.32 0.81C12.56 0.65 12.73 0.58 12.88 0.57ZM10.87 3.07C11.03 3.3 11.2 3.51 11.39 3.7C11.58 3.89 11.79 4.07 12.02 4.22L10.5 5.73C10.82 6.12 11.09 6.52 11.25 6.85C11.37 7.11 11.43 7.33 11.43 7.46C11.44 7.6 11.42 7.61 11.39 7.64C11.38 7.64 11.38 7.65 11.38 7.65L9.84 9.19C9.23 9.46 8.7 9.56 8.2 9.56C8.23 9.49 8.27 9.42 8.31 9.35C8.74 8.37 9.44 6.9 9.53 6.32C9.54 6.04 9.41 5.77 9.2 5.59C8.98 5.41 8.68 5.31 8.32 5.31C8.04 5.31 7.83 5.49 7.66 5.7C7.48 5.91 7.33 6.19 7.18 6.51C7.13 6.61 7.09 6.77 7.05 6.88C6.8 6.82 6.62 6.72 6.51 6.61C6.31 6.4 6.27 6.2 6.27 6.2C6.22 5.9 5.8 5.88 5.72 6.17L4.98 8.67C4.35 8.46 3.66 8.3 2.83 8.33L7.44 3.72C7.44 3.71 7.45 3.71 7.45 3.7C7.48 3.67 7.5 3.65 7.63 3.66C7.76 3.66 7.98 3.72 8.24 3.84C8.57 4 8.97 4.27 9.36 4.59L10.87 3.07ZM8.42 5.85C8.64 5.83 8.81 6.09 8.96 6.28C8.64 6.82 8.12 6.84 7.64 6.9C7.77 6.45 8 6.07 8.32 5.88C8.36 5.86 8.39 5.86 8.42 5.85ZM6.08 6.95C6.11 6.98 6.09 6.99 6.12 7.02C6.74 7.62 7.62 7.72 8.54 7.34C8.38 7.76 8.18 8.27 7.79 9.11C7.23 10.09 6.23 10.88 5.11 10.78L6.08 6.95Z"/>
</svg>