<svg xmlns="http://www.w3.org/2000/svg" viewBox="0 0 15 15">
  <path fill="param(fill) #888" stroke="param(outline) #000" stroke-width="param(outline-width) 0" fill-opacity="param(fill-opacity) 1" stroke-opacity="param(outline-opacity) 1" d="M7 0L7 1C6.6 1 6.27 1.33 6.27 1.73C6.27 1.8 6.28 1.86 6.29 1.93L7.8 6.35L9.02 2.23C9.15 1.69 8.82 1.16 8.28 1.03C8.2 1.01 8.13 1 8.05 1L8 1L8 0L11.5 0L11.5 1L11.47 1C11.01 1 10.6 1.32 10.49 1.76L8.74 8.03C8.63 8.45 8.89 8.88 9.31 8.98C9.38 8.99 9.44 9 9.5 9L9.5 10L5.5 10L5.5 9C5.92 9 6.26 8.66 6.26 8.24C6.26 8.17 6.25 8.1 6.23 8.04L4.2 1.73C4.08 1.3 3.69 1 3.24 1L3 1L3 0L7 0ZM12 11C12.67 12.33 13.42 13 14.25 13C14.51 13 14.76 12.94 15 12.81L15 14.86C14.76 14.95 14.51 15 14.25 15C13.42 15 12.67 14.5 12 13.5C11.33 14.5 10.58 15 9.75 15C8.92 15 8.17 14.5 7.5 13.5C6.83 14.5 6.08 15 5.25 15C4.42 15 3.67 14.5 3 13.5C2.33 14.5 1.58 15 0.75 15C0.49 15 0.24 14.95 0 14.86L0 12.81C0.24 12.94 0.49 13 0.75 13C1.58 13 2.33 12.33 3 11C3.67 12.33 4.42 13 5.25 13C6.08 13 6.83 12.33 7.5 11C8.17 12.33 8.92 13 9.75 13C10.58 13 11.33 12.33 12 11Z"/>
</svg>