<svg xmlns="http://www.w3.org/2000/svg" viewBox="0 0 15 15">
  <path fill="param(fill) #888" stroke="param(outline) #000" stroke-width="param(outline-width) 0" fill-opacity="param(fill-opacity) 1" stroke-opacity="param(outline-opacity) 1" d="M3.5 10L3.5 9C4.05 9 4.5 8.55 4.5 8L4.5 2C4.5 1.49 4.11 1.06 3.62 1.01L3.5 1L3.5 0L11.5 0L11.5 1C10.95 1 10.5 1.45 10.5 2L10.5 8C10.5 8.51 10.89 8.94 11.38 8.99L11.5 9L11.5 10L3.5 10ZM7.5 1C6.95 1 6.5 1.45 6.5 2L6.5 8C6.5 8.51 6.89 8.94 7.38 8.99L7.5 9C8.05 9 8.5 8.55 8.5 8L8.5 2C8.5 1.45 8.05 1 7.5 1ZM12 11C12.67 12.33 13.42 13 14.25 13C14.51 13 14.76 12.94 15 12.81L15 14.86C14.76 14.95 14.51 15 14.25 15C13.42 15 12.67 14.5 12 13.5C11.33 14.5 10.58 15 9.75 15C8.92 15 8.17 14.5 7.5 13.5C6.83 14.5 6.08 15 5.25 15C4.42 15 3.67 14.5 3 13.5C2.33 14.5 1.58 15 0.75 15C0.49 15 0.24 14.95 0 14.86L0 12.81C0.24 12.94 0.49 13 0.75 13C1.58 13 2.33 12.33 3 11C3.67 12.33 4.42 13 5.25 13C6.08 13 6.83 12.33 7.5 11C8.17 12.33 8.92 13 9.75 13C10.58 13 11.33 12.33 12 11Z"/>
</svg>