<svg xmlns="http://www.w3.org/2000/svg" viewBox="0 0 15 15">
  <path fill="param(fill) #888" stroke="param(outline) #000" stroke-width="param(outline-width) 0" fill-opacity="param(fill-opacity) 1" stroke-opacity="param(outline-opacity) 1" d="M9 0L9 1C8.6 1 8.27 1.33 8.27 1.73C8.27 1.8 8.28 1.86 8.29 1.93L9.8 6.35L11.02 2.23C11.15 1.69 10.82 1.16 10.28 1.03C10.2 1.01 10.13 1 10.05 1L10 1L10 0L13.5 0L13.5 1L13.47 1C13.01 1 12.6 1.32 12.49 1.76L10.74 8.03C10.63 8.45 10.89 8.88 11.31 8.98L11.5 9L11.5 10L7.5 10L7.5 9C7.92 9 8.26 8.66 8.26 8.24C8.26 8.17 8.25 8.1 8.23 8.04L6.2 1.73C6.12 1.43 5.9 1.19 5.62 1.08C5.26 1.23 5 1.58 5 2L5 8C5 8.51 5.39 8.94 5.88 8.99L6 9L6 10L2 10L2 9C2.55 9 3 8.55 3 8L3 2C3 1.49 2.61 1.06 2.12 1.01L2 1L2 0L9 0ZM12 11C12.67 12.33 13.42 13 14.25 13C14.51 13 14.76 12.94 15 12.81L15 14.86C14.76 14.95 14.51 15 14.25 15C13.42 15 12.67 14.5 12 13.5C11.33 14.5 10.58 15 9.75 15C8.92 15 8.17 14.5 7.5 13.5C6.83 14.5 6.08 15 5.25 15C4.42 15 3.67 14.5 3 13.5C2.33 14.5 1.58 15 0.75 15C0.49 15 0.24 14.95 0 14.86L0 12.81C0.24 12.94 0.49 13 0.75 13C1.58 13 2.33 12.33 3 11C3.67 12.33 4.42 13 5.25 13C6.08 13 6.83 12.33 7.5 11C8.17 12.33 8.92 13 9.75 13C10.58 13 11.33 12.33 12 11Z"/>
</svg>