<svg xmlns="http://www.w3.org/2000/svg" viewBox="0 0 15 15">
  <path fill="param(fill) #888" stroke="param(outline) #000" stroke-width="param(outline-width) 0" fill-opacity="param(fill-opacity) 1" stroke-opacity="param(outline-opacity) 1" d="M13 0L13 1C12.45 1 12 1.45 12 2L12 8C12 8.51 12.39 8.94 12.88 8.99L13 9L13 10L9 10L9 9C9.55 9 10 8.55 10 8L10 2C10 1.53 9.67 1.13 9.23 1.03C8.87 1.11 8.58 1.39 8.49 1.76L6.74 8.03C6.63 8.45 6.89 8.88 7.31 8.98L7.5 9L7.5 10L3.5 10L3.5 9C3.92 9 4.26 8.66 4.26 8.24C4.26 8.17 4.25 8.1 4.23 8.04L2.2 1.73C2.08 1.3 1.69 1 1.24 1L1 1L1 0L5 0L5 1C4.6 1 4.27 1.33 4.27 1.73C4.27 1.8 4.28 1.86 4.29 1.93L5.8 6.35L7.02 2.23C7.15 1.69 6.82 1.16 6.28 1.03C6.2 1.01 6.13 1 6.05 1L6 1L6 0L13 0ZM12 11C12.67 12.33 13.42 13 14.25 13C14.51 13 14.76 12.94 15 12.81L15 14.86C14.76 14.95 14.51 15 14.25 15C13.42 15 12.67 14.5 12 13.5C11.33 14.5 10.58 15 9.75 15C8.92 15 8.17 14.5 7.5 13.5C6.83 14.5 6.08 15 5.25 15C4.42 15 3.67 14.5 3 13.5C2.33 14.5 1.58 15 0.75 15C0.49 15 0.24 14.95 0 14.86L0 12.81C0.24 12.94 0.49 13 0.75 13C1.58 13 2.33 12.33 3 11C3.67 12.33 4.42 13 5.25 13C6.08 13 6.83 12.33 7.5 11C8.17 12.33 8.92 13 9.75 13C10.58 13 11.33 12.33 12 11Z"/>
</svg>