<svg xmlns="http://www.w3.org/2000/svg" viewBox="0 0 15 15">
  <path fill="param(fill) #888" stroke="param(outline) #000" stroke-width="param(outline-width) 0" fill-opacity="param(fill-opacity) 1" stroke-opacity="param(outline-opacity) 1" d="M14.12 0.88C13.71 0.47 13.25 0.19 12.78 0.07C12.31 -0.06 11.75 -0.03 11.35 0.37C10.95 0.77 10.92 1.32 11.04 1.79C8.79 5.9 5.07 2.16 1.67 5.29C-0.56 7.53 -0.56 11.17 1.67 13.41C3.89 15.64 7.81 15.41 9.74 13.41C12.75 9.91 8.79 8.44 13.22 3.98C13.69 4.1 14.24 4.07 14.63 3.67C15.03 3.27 15.06 2.71 14.93 2.23C14.81 1.76 14.53 1.29 14.12 0.88ZM13.35 1.66C13.65 1.96 13.85 2.31 13.92 2.57C13.99 2.84 13.93 2.94 13.92 2.95C13.9 2.97 13.8 3.03 13.54 2.96C13.28 2.89 12.93 2.69 12.63 2.39C12.32 2.08 12.13 1.73 12.06 1.47C11.99 1.21 12.05 1.1 12.06 1.09C12.08 1.08 12.18 1.02 12.44 1.09C12.7 1.16 13.05 1.35 13.35 1.66ZM8.65 6.39C9.05 6.8 9.36 7.27 9.56 7.78C9.28 9.71 8.14 7.22 7.29 7.88C6.15 8.8 5.14 9.14 3.95 8.44C2.3 8.31 1.31 9.83 1.84 7.78C2.04 7.27 2.35 6.8 2.76 6.39C4.39 4.75 7.01 4.75 8.65 6.39Z"/>
</svg>