<svg xmlns="http://www.w3.org/2000/svg" viewBox="0 0 15 15">
  <path fill="param(fill) #888" stroke="param(outline) #000" stroke-width="param(outline-width) 0" fill-opacity="param(fill-opacity) 1" stroke-opacity="param(outline-opacity) 1" d="M13.34 13.5L10.97 13.5C10.99 8.26 6.75 4.02 1.5 4.03L1.5 1.69C1.5 1.41 1.7 1.18 1.97 1.13L2.09 1.12C5.3 1.25 8.03 2.45 10.28 4.72C12.53 6.99 13.73 9.72 13.88 12.9C13.9 13.21 13.65 13.48 13.34 13.5ZM9.51 13.51L6.58 13.52C6.59 10.69 4.31 8.41 1.48 8.42L1.49 5.5C5.93 5.48 9.52 9.07 9.51 13.51ZM2.95 14.12C1.87 14.19 0.95 13.37 0.88 12.29C0.88 12.21 0.88 12.13 0.88 12.05C0.95 11.05 1.81 10.28 2.82 10.34C3.2 10.36 3.56 10.51 3.86 10.75C3.94 10.81 4.01 10.88 4.08 10.95L4.15 11.02L4.21 11.09C4.87 11.84 4.8 12.99 4.05 13.66C3.78 13.89 3.46 14.04 3.12 14.1L2.95 14.12Z"/>
</svg>