<?xml version="1.0" encoding="UTF-8"?>
<svg viewBox="0 0 15 15" version="1.1" xmlns="http://www.w3.org/2000/svg" xmlns:xlink="http://www.w3.org/1999/xlink">
  <path fill="param(fill) #888" stroke="param(outline) #000" stroke-width="param(outline-width) 0" fill-opacity="param(fill-opacity) 1" stroke-opacity="param(outline-opacity) 1" d="M10.48 2.31C11.12 2.31 11.63 1.79 11.63 1.15C11.63 0.52 11.12 0 10.48 0C9.85 0 9.33 0.52 9.33 1.15C9.33 1.79 9.85 2.31 10.48 2.31ZM1.83 10.38L4.71 10.38L5.87 6.92L7.02 4.9L5.87 4.62L3.21 5.77C2.89 5.9 2.53 5.75 2.4 5.42C2.29 5.14 2.4 4.82 2.65 4.67L2.75 4.62L5.87 3.46L8.17 3.46L10.48 4.62L11.63 5.77L13.37 5.77C13.69 5.77 13.94 6.02 13.94 6.35C13.94 6.67 13.69 6.92 13.37 6.92L10.48 6.92L9.33 5.77L8.17 8.08L10.48 10.38L10.48 14.42C10.48 14.75 10.23 15 9.9 15C9.58 15 9.33 14.75 9.33 14.42L9.33 10.83L7.02 9.23L5.87 11.54L1.83 11.54C1.5 11.54 1.25 11.28 1.25 10.96C1.25 10.64 1.5 10.38 1.83 10.38Z"/>
</svg>