<svg xmlns="http://www.w3.org/2000/svg" viewBox="0 0 15 15">
  <path fill="param(fill) #888" stroke="param(outline) #000" stroke-width="param(outline-width) 0" fill-opacity="param(fill-opacity) 1" stroke-opacity="param(outline-opacity) 1" d="M7.5 0C11.64 0 15 3.36 15 7.5C15 11.64 11.64 15 7.5 15C3.36 15 0 11.64 0 7.5C0 3.36 3.36 0 7.5 0ZM7.5 7.5C6.75 7.5 6.11 7.81 5.62 8.17C5.12 8.54 4.71 8.99 4.42 9.36C4.09 9.77 4.19 10.27 4.43 10.56C4.67 10.84 5.13 11.02 5.59 10.8L6.34 10.42C6.67 10.26 6.88 10.19 7.04 10.16C7.19 10.13 7.31 10.13 7.5 10.13L7.63 10.13C7.75 10.13 7.85 10.13 7.96 10.16C8.12 10.19 8.33 10.26 8.66 10.42L9.41 10.8C9.87 11.02 10.33 10.84 10.57 10.56C10.81 10.27 10.91 9.77 10.58 9.36C10.29 8.99 9.88 8.54 9.38 8.17C8.89 7.81 8.25 7.5 7.5 7.5ZM5.78 4.15C5.76 4.27 5.68 4.49 5.54 4.69C5.4 4.89 5.22 5.03 5 5.09C4.78 5.15 4.55 5.12 4.33 5.01C4.11 4.91 3.93 4.76 3.86 4.67L3.01 5.41C3.18 5.61 3.48 5.86 3.86 6.03C4.24 6.21 4.74 6.33 5.29 6.18C5.84 6.03 6.22 5.68 6.46 5.34C6.7 4.99 6.83 4.63 6.88 4.37ZM9.22 4.15L8.12 4.37C8.17 4.63 8.3 4.99 8.54 5.34C8.78 5.68 9.16 6.03 9.71 6.18C10.26 6.33 10.76 6.21 11.15 6.03C11.52 5.86 11.82 5.61 11.99 5.41L11.14 4.67C11.07 4.76 10.89 4.91 10.67 5.01C10.45 5.12 10.22 5.15 10 5.09C9.78 5.03 9.6 4.89 9.46 4.69C9.32 4.49 9.25 4.27 9.22 4.15Z"/>
</svg>