<svg xmlns="http://www.w3.org/2000/svg" viewBox="0 0 15 15">
  <path fill="param(fill) #888" stroke="param(outline) #000" stroke-width="param(outline-width) 0" fill-opacity="param(fill-opacity) 1" stroke-opacity="param(outline-opacity) 1" d="M14.56 11.9C14.27 12.18 13.91 12.32 13.5 12.32C13.09 12.32 12.73 12.18 12.44 11.9C12.15 11.62 12 11.28 12 10.88C12 10.56 12.09 10.21 12.28 9.85C12.47 9.48 12.87 8.86 13.5 8C14.13 8.86 14.53 9.48 14.72 9.85C14.91 10.21 15 10.56 15 10.88C15 11.28 14.85 11.62 14.56 11.9ZM4.76 5.04C4.73 5.19 4.64 5.48 4.45 5.75C4.26 6.01 4.03 6.21 3.73 6.29C3.43 6.37 3.12 6.32 2.83 6.18C2.54 6.05 2.31 5.84 2.2 5.73L1.07 6.71C1.3 6.97 1.7 7.31 2.2 7.54C2.71 7.78 3.38 7.94 4.12 7.74C4.85 7.54 5.35 7.07 5.67 6.61C5.99 6.16 6.17 5.67 6.24 5.33L4.76 5.04ZM10.24 5.04C10.27 5.19 10.36 5.48 10.55 5.75C10.74 6.01 10.97 6.21 11.27 6.29C11.57 6.37 11.88 6.32 12.17 6.18C12.46 6.05 12.69 5.84 12.8 5.73L13.93 6.71C13.7 6.97 13.3 7.31 12.8 7.54C12.29 7.78 11.62 7.94 10.88 7.74C10.15 7.54 9.65 7.07 9.33 6.61C9.01 6.16 8.83 5.67 8.76 5.33L10.24 5.04ZM5.69 12.71C5.39 13.17 4.77 13.3 4.31 12.99C3.85 12.69 3.72 12.06 4.03 11.6C4.94 10.24 6.51 9.84 7.5 9.84C8.49 9.84 10.06 10.24 10.97 11.6C11.28 12.06 11.15 12.69 10.69 12.99C10.23 13.3 9.61 13.17 9.31 12.71C8.9 12.1 8.1 11.84 7.5 11.84C6.9 11.84 6.1 12.1 5.69 12.71Z"/>
</svg>