<svg xmlns="http://www.w3.org/2000/svg" viewBox="0 0 15 15">
  <path fill="param(fill) #888" stroke="param(outline) #000" stroke-width="param(outline-width) 0" fill-opacity="param(fill-opacity) 1" stroke-opacity="param(outline-opacity) 1" d="M10.5 2.3C7.63 0.65 3.96 1.63 2.3 4.5C0.65 7.37 1.63 11.04 4.5 12.7C6.69 13.96 9.34 13.69 11.21 12.21C11.57 12.51 11.97 12.66 12.44 12.66C12.64 12.66 12.84 12.63 13.03 12.57C10.71 15.11 6.85 15.79 3.75 13.99C0.16 11.92 -1.06 7.34 1.01 3.75C3.08 0.16 7.66 -1.06 11.25 1.01C14.49 2.88 15.81 6.81 14.5 10.19C14.47 9.72 14.35 9.23 14.12 8.71C13.99 8.41 13.78 8.02 13.5 7.53C13.51 5.45 12.43 3.42 10.5 2.3ZM13.4 11.27C13.13 11.53 12.81 11.66 12.44 11.66C12.06 11.66 11.74 11.53 11.47 11.27C11.21 11.02 11.07 10.71 11.07 10.35C11.07 10.05 11.16 9.74 11.33 9.41C11.5 9.07 11.87 8.51 12.44 7.73C13 8.51 13.37 9.07 13.54 9.41C13.71 9.74 13.8 10.05 13.8 10.35C13.8 10.71 13.66 11.02 13.4 11.27ZM5.45 5.65C5.43 5.77 5.35 5.99 5.21 6.19C5.07 6.39 4.89 6.53 4.67 6.59C4.45 6.65 4.22 6.61 4 6.51C3.78 6.41 3.6 6.26 3.53 6.17L2.68 6.91C2.85 7.1 3.15 7.36 3.53 7.53C3.91 7.71 4.41 7.83 4.96 7.68C5.51 7.53 5.89 7.18 6.13 6.83C6.37 6.49 6.5 6.13 6.55 5.87L5.45 5.65ZM9.55 5.65C9.57 5.77 9.65 5.99 9.79 6.19C9.93 6.39 10.11 6.53 10.33 6.59C10.55 6.65 10.78 6.61 11 6.51C11.22 6.41 11.4 6.26 11.47 6.17L12.32 6.91C12.15 7.1 11.85 7.36 11.47 7.53C11.09 7.71 10.59 7.83 10.04 7.68C9.49 7.53 9.11 7.18 8.87 6.83C8.63 6.49 8.5 6.13 8.45 5.87L9.55 5.65ZM6.14 11.41C5.91 11.76 5.45 11.85 5.1 11.62C4.76 11.39 4.67 10.92 4.9 10.58C5.58 9.55 6.76 9.25 7.5 9.25C8.24 9.25 9.42 9.55 10.1 10.58C10.33 10.92 10.24 11.39 9.9 11.62C9.55 11.85 9.09 11.76 8.86 11.41C8.55 10.95 7.95 10.75 7.5 10.75C7.05 10.75 6.45 10.95 6.14 11.41Z"/>
</svg>