<svg xmlns="http://www.w3.org/2000/svg" viewBox="0 0 15 15">
  <path fill="param(fill) #888" stroke="param(outline) #000" stroke-width="param(outline-width) 0" fill-opacity="param(fill-opacity) 1" stroke-opacity="param(outline-opacity) 1" d="M7.5 0C11.64 0 15 3.36 15 7.5C15 11.64 11.64 15 7.5 15C3.36 15 0 11.64 0 7.5C0 3.36 3.36 0 7.5 0ZM7.5 9.25C6.76 9.25 5.58 9.55 4.9 10.58C4.67 10.92 4.76 11.39 5.1 11.62C5.45 11.85 5.91 11.76 6.14 11.41C6.45 10.95 7.05 10.75 7.5 10.75C7.95 10.75 8.55 10.95 8.86 11.41C9.09 11.76 9.55 11.85 9.9 11.62C10.24 11.39 10.33 10.92 10.1 10.58C9.42 9.55 8.24 9.25 7.5 9.25ZM12.44 7.73C11.87 8.51 11.5 9.07 11.33 9.41C11.16 9.74 11.07 10.05 11.07 10.35C11.07 10.71 11.21 11.02 11.47 11.27C11.74 11.53 12.06 11.66 12.44 11.66C12.81 11.66 13.13 11.53 13.4 11.27C13.66 11.02 13.8 10.71 13.8 10.35C13.8 10.05 13.71 9.74 13.54 9.41C13.37 9.07 13 8.51 12.44 7.73ZM5.45 5.65C5.43 5.77 5.35 5.99 5.21 6.19C5.07 6.39 4.89 6.53 4.67 6.59C4.45 6.65 4.22 6.61 4 6.51C3.78 6.41 3.6 6.26 3.53 6.17L2.68 6.91C2.85 7.1 3.15 7.36 3.53 7.53C3.91 7.71 4.41 7.83 4.96 7.68C5.51 7.53 5.89 7.18 6.13 6.83C6.37 6.49 6.5 6.13 6.55 5.87L5.45 5.65ZM9.55 5.65L8.45 5.87C8.5 6.13 8.63 6.49 8.87 6.83C9.11 7.18 9.49 7.53 10.04 7.68C10.59 7.83 11.09 7.71 11.47 7.53C11.85 7.36 12.15 7.1 12.32 6.91L11.47 6.17C11.4 6.26 11.22 6.41 11 6.51C10.78 6.61 10.55 6.65 10.33 6.59C10.11 6.53 9.93 6.39 9.79 6.19C9.65 5.99 9.57 5.77 9.55 5.65Z"/>
</svg>