<svg xmlns="http://www.w3.org/2000/svg" viewBox="0 0 15 15">
  <path fill="param(fill) #888" stroke="param(outline) #000" stroke-width="param(outline-width) 0" fill-opacity="param(fill-opacity) 1" stroke-opacity="param(outline-opacity) 1" d="M4.89 3.75C5.08 3.48 5.17 3.19 5.2 3.04L6.68 3.33C6.61 3.67 6.43 4.16 6.11 4.61C5.79 5.08 5.29 5.55 4.56 5.74C3.82 5.94 3.15 5.78 2.64 5.54C2.14 5.31 1.74 4.97 1.51 4.71L2.64 3.73C2.75 3.84 2.98 4.05 3.27 4.18C3.56 4.32 3.87 4.37 4.17 4.29C4.47 4.21 4.7 4.02 4.89 3.75ZM4.99 8.4C5.65 7.91 6.5 7.5 7.5 7.5C8.5 7.5 9.35 7.91 10.01 8.4C10.68 8.88 11.22 9.49 11.61 9.98C12.05 10.52 11.92 11.19 11.59 11.57C11.27 11.96 10.65 12.2 10.05 11.89L9.05 11.39C8.61 11.17 8.32 11.08 8.12 11.04C7.91 11 7.75 11 7.5 11C7.25 11 7.09 11 6.88 11.04C6.68 11.08 6.39 11.17 5.95 11.39L4.95 11.89C4.35 12.2 3.73 11.96 3.41 11.57C3.08 11.19 2.95 10.52 3.39 9.98C3.78 9.49 4.32 8.88 4.99 8.4ZM9.8 3.04C9.83 3.19 9.93 3.48 10.11 3.75C10.3 4.02 10.54 4.21 10.83 4.29C11.13 4.37 11.44 4.32 11.73 4.18C12.03 4.05 12.26 3.84 12.36 3.73L13.49 4.71C13.26 4.97 12.86 5.31 12.36 5.54C11.85 5.78 11.18 5.94 10.45 5.74C9.71 5.55 9.21 5.08 8.89 4.61C8.57 4.16 8.39 3.67 8.33 3.33L9.8 3.04Z"/>
</svg>