<svg xmlns="http://www.w3.org/2000/svg" viewBox="0 0 15 15">
  <path fill="param(fill) #888" stroke="param(outline) #000" stroke-width="param(outline-width) 0" fill-opacity="param(fill-opacity) 1" stroke-opacity="param(outline-opacity) 1" d="M12.5 12.5C12.82 12.5 13.14 12.61 13.39 12.81L13.71 13.07C14.01 13.31 14.39 13.46 14.78 13.5L15 13.5L15 15L14.95 15C14.49 15 14.06 14.84 13.71 14.56L13.39 14.31C13.14 14.11 12.82 14 12.5 14C12.18 14 11.86 14.11 11.61 14.31L11.3 14.56C10.94 14.84 10.5 15 10.05 15L9.95 15C9.5 15 9.06 14.84 8.7 14.56L8.39 14.31C8.14 14.11 7.82 14 7.5 14C7.18 14 6.86 14.11 6.61 14.31L6.3 14.56C5.94 14.84 5.5 15 5.05 15L4.95 15C4.5 15 4.06 14.84 3.7 14.56L3.39 14.31C3.14 14.11 2.82 14 2.5 14C2.18 14 1.86 14.11 1.61 14.31L1.29 14.56C0.99 14.81 0.61 14.96 0.22 14.99L0 15L0 13.5L0.05 13.5C0.51 13.5 0.94 13.35 1.29 13.07L1.61 12.81C1.86 12.61 2.18 12.5 2.5 12.5C2.82 12.5 3.14 12.61 3.39 12.81L3.7 13.06C4.06 13.35 4.5 13.5 4.95 13.5L5.05 13.5C5.5 13.5 5.94 13.35 6.3 13.06L6.61 12.81C6.86 12.61 7.18 12.5 7.5 12.5C7.82 12.5 8.14 12.61 8.39 12.81L8.73 13L8.63 13L8.7 13.06C9.01 13.31 9.39 13.46 9.78 13.49L9.95 13.5L10.05 13.5C10.5 13.5 10.94 13.35 11.3 13.06L11.61 12.81C11.86 12.61 12.18 12.5 12.5 12.5ZM7.48 0C7.5 0 7.52 0.01 7.53 0.03C7.54 0.03 7.55 0.06 7.55 0.08L7.6 2.51L9.48 3.66C9.51 3.67 9.53 3.71 9.54 3.74C9.68 4.39 9.83 5.04 9.85 5.7C9.87 6.36 9.74 7.04 9.3 7.7C9.27 7.77 9.2 7.78 9.15 7.75C8.71 7.48 8.22 7.32 7.69 7.24L7.73 9.23C9.41 9.16 10.16 8.6 10.52 8.07C10.89 7.51 10.85 7 10.85 7C10.84 6.86 10.92 6.74 11.05 6.71L13.69 6.09L13.73 6.08C13.84 6.08 13.95 6.16 13.98 6.27C14.03 6.4 13.98 6.53 13.89 6.6L12.15 7.85C12.29 8.71 12.41 9.59 12.27 10.43C12.2 10.8 12.07 11.2 11.86 11.59C11.54 11.67 11.24 11.82 10.98 12.03L10.67 12.28C10.5 12.42 10.28 12.5 10.05 12.5L9.95 12.5C9.72 12.5 9.5 12.42 9.33 12.28L9.01 12.03C8.58 11.69 8.05 11.5 7.5 11.5C6.95 11.5 6.42 11.69 5.99 12.03L5.67 12.28C5.5 12.42 5.28 12.5 5.05 12.5L4.95 12.5C4.72 12.5 4.5 12.42 4.33 12.28L4.01 12.03C3.71 11.79 3.35 11.62 2.97 11.55C2.82 11.13 2.75 10.53 2.78 9.61L1.66 9.27C1.63 9.27 1.6 9.25 1.58 9.23L1.55 9.2C1.24 8.86 1.05 8.41 1.01 7.96C0.97 7.5 1.08 7.02 1.4 6.67C1.46 6.61 1.55 6.58 1.62 6.6L4.06 7.16C4.09 7.17 4.13 7.18 4.16 7.21C5.43 5.26 5.91 3.33 5.32 1.4C5.32 1.36 5.32 1.31 5.34 1.27C5.37 1.24 5.4 1.22 5.45 1.22C5.46 1.22 5.49 1.23 5.51 1.24L7.4 2.39L7.4 1.45L7.39 1.46C7.21 1.52 6.99 1.53 6.78 1.47C6.56 1.43 6.36 1.32 6.21 1.13C6.07 0.94 6.01 0.78 5.94 0.65C5.87 0.52 5.8 0.43 5.62 0.36C5.58 0.34 5.56 0.29 5.56 0.26C5.56 0.22 5.58 0.17 5.62 0.16C5.77 0.1 5.89 0.08 6 0.1C6.1 0.13 6.19 0.19 6.26 0.25L6.42 0.39C6.5 0.46 6.58 0.52 6.69 0.54C6.9 0.57 6.98 0.55 7.06 0.48C7.14 0.41 7.22 0.28 7.38 0.1C7.39 0.1 7.4 0.09 7.41 0.08C7.41 0.03 7.44 0 7.48 0ZM7.54 10.04C7.4 10.04 7.26 10.1 7.16 10.2C7.06 10.3 7 10.44 7 10.59C7 10.9 7.24 11.15 7.54 11.15C7.69 11.15 7.83 11.09 7.93 10.99C8.03 10.89 8.09 10.75 8.09 10.59C8.09 10.44 8.03 10.3 7.93 10.2C7.83 10.1 7.69 10.04 7.54 10.04ZM4.78 9.64C4.63 9.64 4.49 9.7 4.39 9.8C4.29 9.91 4.23 10.05 4.23 10.2C4.23 10.5 4.48 10.76 4.78 10.76C4.93 10.76 5.06 10.69 5.16 10.59C5.26 10.49 5.32 10.35 5.32 10.2C5.32 10.04 5.26 9.91 5.16 9.8C5.06 9.7 4.93 9.64 4.78 9.64ZM10.27 9.52C10.13 9.52 9.99 9.58 9.88 9.68C9.78 9.78 9.73 9.93 9.73 10.08C9.73 10.23 9.78 10.37 9.88 10.47C9.99 10.57 10.13 10.63 10.27 10.63C10.57 10.63 10.82 10.38 10.82 10.08C10.82 9.77 10.57 9.52 10.27 9.52ZM6.93 7.16C6.1 7.14 5.2 7.26 4.26 7.46L4.26 7.53C4.26 7.66 4.29 7.98 4.56 8.31C4.9 8.74 5.66 9.23 7.37 9.24L7.38 8.24L7.38 7.19L6.93 7.16ZM8.57 2.22L8.58 2.22C9.71 2.27 10.46 2.45 10.98 2.71C11.49 2.97 11.76 3.32 11.92 3.67C12.08 4.04 12.15 4.4 12.24 4.73C12.33 5.01 12.45 5.24 12.69 5.42L12.81 5.5C12.83 5.51 12.84 5.53 12.83 5.54C12.82 5.56 12.81 5.56 12.8 5.56C12.43 5.49 11.97 5.65 11.61 5.88C11.43 5.99 11.27 6.12 11.17 6.24C11.06 6.37 11.01 6.49 11.03 6.59C11.03 6.6 11.02 6.61 11.01 6.62L10.98 6.62C10.64 6.38 10.53 6.07 10.51 5.72C10.48 5.37 10.54 4.98 10.53 4.59C10.52 4.19 10.46 3.8 10.17 3.41C9.92 3.04 9.49 2.7 8.78 2.37L8.56 2.28C8.55 2.28 8.54 2.27 8.54 2.26L8.54 2.24C8.54 2.23 8.55 2.22 8.57 2.22Z"/>
</svg>