<svg xmlns="http://www.w3.org/2000/svg" viewBox="0 0 15 15">
  <path fill="param(fill) #888" stroke="param(outline) #000" stroke-width="param(outline-width) 0" fill-opacity="param(fill-opacity) 1" stroke-opacity="param(outline-opacity) 1" d="M7.48 0C7.43 0 7.4 0.04 7.4 0.09L7.4 0.09C7.38 0.1 7.37 0.11 7.36 0.12C7.18 0.32 7.08 0.47 6.99 0.55C6.9 0.63 6.81 0.66 6.57 0.62C6.36 0.58 6.24 0.43 6.07 0.29C5.99 0.22 5.89 0.15 5.77 0.12C5.64 0.09 5.5 0.11 5.33 0.18C5.28 0.2 5.26 0.25 5.26 0.3C5.26 0.34 5.28 0.39 5.33 0.41C5.54 0.5 5.62 0.6 5.7 0.75C5.78 0.9 5.85 1.09 6.01 1.3C6.18 1.52 6.42 1.65 6.67 1.7C6.91 1.76 7.17 1.75 7.37 1.68C7.38 1.68 7.39 1.68 7.39 1.67C7.39 1.91 7.39 2.4 7.39 2.76L5.2 1.43C5.18 1.42 5.15 1.41 5.13 1.41C5.08 1.41 5.04 1.43 5.01 1.47C4.99 1.51 4.98 1.57 4.99 1.61C5.66 3.84 5.11 6.07 3.65 8.32C3.61 8.29 3.57 8.27 3.53 8.26L0.72 7.62C0.63 7.59 0.53 7.63 0.46 7.7C0.09 8.1 -0.04 8.65 0.01 9.18C0.06 9.7 0.28 10.22 0.63 10.61C0.66 10.66 0.71 10.69 0.76 10.7L2.05 11.09C2.02 12.3 2.13 13.04 2.35 13.53C2.59 14.05 2.9 14.28 3.11 14.61C3.16 14.68 3.23 14.73 3.32 14.74C3.4 14.75 3.48 14.72 3.54 14.67C3.83 14.4 4.07 14.22 4.4 14.14C4.38 14.28 4.3 14.46 4.34 14.59C4.39 14.74 4.52 14.88 4.65 14.92C4.78 14.96 4.9 14.94 5 14.91C5.37 14.82 5.8 14.54 6.25 14.31C6.32 14.49 6.36 14.72 6.48 14.83C6.58 14.93 6.71 14.99 6.84 15C6.96 15.01 7.08 14.97 7.18 14.93C7.49 14.79 7.79 14.52 8.11 14.3C8.18 14.48 8.23 14.71 8.35 14.83C8.55 15.02 8.86 15.04 9.08 14.95C9.38 14.83 9.68 14.54 9.98 14.28C10.04 14.42 10.11 14.56 10.21 14.62C10.47 14.79 10.73 14.75 10.9 14.74C10.94 14.74 10.98 14.72 11.01 14.71C12.23 14.03 12.81 13.07 13 12.04C13.17 11.07 13.03 10.05 12.87 9.06L14.87 7.61C14.98 7.53 15.03 7.38 14.98 7.24C14.94 7.11 14.82 7.02 14.69 7.02C14.68 7.02 14.66 7.03 14.64 7.03L11.6 7.74C11.45 7.78 11.35 7.92 11.36 8.08C11.36 8.08 11.41 8.67 10.98 9.31C10.57 9.92 9.7 10.57 7.77 10.65L7.72 8.35C8.33 8.45 8.9 8.63 9.4 8.94C9.46 8.98 9.54 8.96 9.58 8.89C10.08 8.12 10.23 7.34 10.21 6.58C10.19 5.81 10.01 5.06 9.85 4.32C9.84 4.28 9.82 4.24 9.78 4.22L7.62 2.9L7.56 0.09L7.56 0.09C7.56 0.07 7.55 0.04 7.54 0.03C7.52 0.01 7.5 0 7.48 0ZM7.4 0.48C7.39 0.54 7.39 1.25 7.39 1.43C7.21 1.15 7.19 0.97 7.22 0.82C7.25 0.72 7.32 0.61 7.4 0.48ZM8.73 2.56C8.71 2.56 8.7 2.57 8.7 2.59C8.69 2.61 8.71 2.63 8.72 2.63C9.7 3.03 10.26 3.47 10.58 3.93C10.91 4.38 10.99 4.84 11 5.3C11.01 5.75 10.94 6.2 10.97 6.6C11 7 11.12 7.36 11.51 7.64C11.52 7.64 11.54 7.64 11.55 7.64C11.56 7.63 11.57 7.61 11.57 7.6C11.55 7.49 11.61 7.35 11.73 7.2C11.85 7.06 12.03 6.91 12.24 6.78C12.66 6.52 13.19 6.34 13.61 6.42C13.63 6.42 13.64 6.41 13.65 6.39C13.66 6.38 13.65 6.36 13.63 6.35C13.26 6.14 13.09 5.83 12.97 5.46C12.86 5.08 12.78 4.66 12.6 4.24C12.41 3.83 12.1 3.43 11.51 3.13C10.92 2.83 10.05 2.62 8.75 2.56C8.74 2.56 8.74 2.56 8.74 2.56C8.73 2.56 8.73 2.56 8.73 2.56C8.73 2.56 8.73 2.56 8.73 2.56L8.73 2.56ZM6.84 8.26C7.02 8.27 7.19 8.29 7.36 8.3C7.36 9.35 7.36 10.03 7.35 10.66C5.38 10.65 4.5 10.09 4.11 9.59C3.7 9.08 3.76 8.61 3.76 8.61C3.76 8.61 3.76 8.61 3.76 8.61C4.85 8.38 5.89 8.24 6.84 8.26ZM10.7 10.98C11.04 10.99 11.33 11.27 11.33 11.63C11.33 11.98 11.04 12.27 10.7 12.27C10.53 12.27 10.37 12.2 10.25 12.08C10.13 11.96 10.07 11.8 10.07 11.63C10.07 11.46 10.13 11.29 10.25 11.17C10.37 11.05 10.53 10.98 10.7 10.98ZM4.36 11.12C4.53 11.12 4.69 11.19 4.8 11.31C4.92 11.43 4.99 11.59 4.99 11.77C4.99 11.94 4.92 12.1 4.8 12.22C4.69 12.34 4.53 12.41 4.36 12.41C4.01 12.41 3.73 12.12 3.73 11.77C3.73 11.6 3.8 11.43 3.91 11.31C4.03 11.19 4.19 11.12 4.36 11.12ZM7.55 11.58C7.72 11.58 7.88 11.65 8 11.77C8.11 11.89 8.18 12.05 8.18 12.22C8.18 12.4 8.11 12.56 8 12.68C7.88 12.8 7.72 12.87 7.55 12.87C7.2 12.87 6.92 12.58 6.92 12.22C6.92 12.05 6.99 11.89 7.11 11.77C7.22 11.65 7.38 11.58 7.55 11.58L7.55 11.58Z"/>
</svg>