<svg xmlns="http://www.w3.org/2000/svg" viewBox="0 0 15 15">
  <path fill="param(fill) #888" stroke="param(outline) #000" stroke-width="param(outline-width) 0" fill-opacity="param(fill-opacity) 1" stroke-opacity="param(outline-opacity) 1" d="M8.39 12.81L8.7 13.06C9.01 13.31 9.39 13.46 9.78 13.49L9.95 13.5L10.05 13.5C10.5 13.5 10.94 13.35 11.3 13.06L11.61 12.81C11.86 12.61 12.18 12.5 12.5 12.5C12.82 12.5 13.14 12.61 13.39 12.81L13.71 13.07C14.01 13.31 14.39 13.46 14.78 13.5L15 13.5L15 15L14.95 15C14.49 15 14.06 14.84 13.71 14.56L13.39 14.31C13.14 14.11 12.82 14 12.5 14C12.18 14 11.86 14.11 11.61 14.31L11.3 14.56C10.94 14.84 10.5 15 10.05 15L9.95 15C9.5 15 9.06 14.84 8.7 14.56L8.39 14.31C8.14 14.11 7.82 14 7.5 14C7.18 14 6.86 14.11 6.61 14.31L6.3 14.56C5.94 14.84 5.5 15 5.05 15L4.95 15C4.5 15 4.06 14.84 3.7 14.56L3.39 14.31C3.14 14.11 2.82 14 2.5 14C2.18 14 1.86 14.11 1.61 14.31L1.29 14.56C0.99 14.81 0.61 14.96 0.22 14.99L0 15L0 13.5L0.05 13.5C0.51 13.5 0.94 13.35 1.29 13.07L1.61 12.81C1.86 12.61 2.18 12.5 2.5 12.5C2.82 12.5 3.14 12.61 3.39 12.81L3.7 13.06C4.06 13.35 4.5 13.5 4.95 13.5L5.05 13.5C5.5 13.5 5.94 13.35 6.3 13.06L6.61 12.81C6.86 12.61 7.18 12.5 7.5 12.5C7.82 12.5 8.14 12.61 8.39 12.81ZM13.06 10L13.07 10.01L13.4 10.01L12.25 11.39C12.25 11.39 12.22 11.44 12.16 11.53C11.73 11.59 11.32 11.76 10.98 12.03L10.67 12.28C10.5 12.42 10.28 12.5 10.05 12.5L9.95 12.5C9.72 12.5 9.5 12.42 9.33 12.28L9.01 12.03C8.58 11.69 8.05 11.5 7.5 11.5C6.95 11.5 6.42 11.69 5.99 12.03L5.67 12.28C5.5 12.42 5.28 12.5 5.05 12.5L4.95 12.5C4.72 12.5 4.5 12.42 4.33 12.28L4.01 12.03C3.72 11.8 3.37 11.63 3 11.56L3 10L13.06 10ZM9 0L9 9L1.29 9L9 0ZM10 2.09C10 3.12 14.35 5.7 14 9L10 9L10 2.09Z"/>
</svg>