<?xml version="1.0" encoding="UTF-8"?>
<svg viewBox="0 0 15 15" version="1.1" xmlns="http://www.w3.org/2000/svg" xmlns:xlink="http://www.w3.org/1999/xlink">
  <path fill="param(fill) #888" stroke="param(outline) #000" stroke-width="param(outline-width) 0" fill-opacity="param(fill-opacity) 1" stroke-opacity="param(outline-opacity) 1" d="M2.59 0.1L2.51 0.16L0.16 2.51C0 2.67 -0.04 2.9 0.04 3.11L0.08 3.19L1.29 5.2L1.34 5.26L1.38 5.3L1.43 5.33L1.52 5.38L1.59 5.4L1.69 5.42L1.75 5.42L1.83 5.41L1.92 5.39L2.02 5.34L2.1 5.27L3.3 4.08L4.99 5.78L4.72 5.93C4.68 5.96 4.64 5.98 4.59 6L0 6L0 14L15 14L15 6L12.73 6L12.34 5.63C11.24 4.63 10.11 4 9 4C8.36 4 7.84 4.14 7.11 4.53L6.46 4.88L5.97 5.18L4.08 3.3L5.28 2.1L5.34 2.02L5.37 1.96L5.4 1.87L5.42 1.78L5.42 1.69L5.4 1.59L5.36 1.49L5.32 1.42L5.23 1.31L5.17 1.27L3.19 0.08C3 -0.04 2.76 -0.02 2.59 0.1ZM6 9L11 9L10.63 8.26C10.21 7.43 9.66 6.66 9 6L7.89 7.11L6.69 5.91L6.73 5.89C7.83 5.23 8.38 5 9 5C9.8 5 10.73 5.52 11.66 6.37L12 6.69L12.58 7.25L13.29 7.97L14 8.7L14 12L1 12L1 10C0.99 9.27 1.07 8.66 1.23 8.16C1.55 7.75 2.05 7.54 2.79 7.5L3 7.5C3.64 7.5 4.16 7.36 4.89 6.97L5.54 6.62L5.72 6.51L7.11 7.89L6 9ZM2.5 10C2.22 10 2 10.22 2 10.5C2 10.78 2.22 11 2.5 11C2.78 11 3 10.78 3 10.5C3 10.22 2.78 10 2.5 10ZM10.5 10C10.22 10 10 10.22 10 10.5C10 10.78 10.22 11 10.5 11C10.78 11 11 10.78 11 10.5C11 10.22 10.78 10 10.5 10ZM5.5 10C5.22 10 5 10.22 5 10.5C5 10.78 5.22 11 5.5 11C5.78 11 6 10.78 6 10.5C6 10.22 5.78 10 5.5 10ZM12.5 9C12.22 9 12 9.22 12 9.5C12 9.78 12.22 10 12.5 10C12.78 10 13 9.78 13 9.5C13 9.22 12.78 9 12.5 9ZM3.5 8C3.22 8 3 8.22 3 8.5C3 8.78 3.22 9 3.5 9C3.78 9 4 8.78 4 8.5C4 8.22 3.78 8 3.5 8ZM11.5 7C11.22 7 11 7.22 11 7.5C11 7.78 11.22 8 11.5 8C11.78 8 12 7.78 12 7.5C12 7.22 11.78 7 11.5 7ZM2.99 1.25L3.97 1.84L1.84 3.97L1.25 2.99L2.99 1.25Z"/>
</svg>