<?xml version="1.0" encoding="UTF-8"?>
<svg viewBox="0 0 15 15" version="1.1" xmlns="http://www.w3.org/2000/svg" xmlns:xlink="http://www.w3.org/1999/xlink">
  <path fill="param(fill) #888" stroke="param(outline) #000" stroke-width="param(outline-width) 0" fill-opacity="param(fill-opacity) 1" stroke-opacity="param(outline-opacity) 1" d="M4.99 3.78L4.72 3.93C4.68 3.96 4.64 3.98 4.59 4L0 4L0 12L15 12L15 4L12.73 4L12.34 3.63C11.24 2.63 10.11 2 9 2C8.36 2 7.84 2.14 7.11 2.53L6.46 2.88L5.97 3.18L4.99 3.78ZM6.69 3.91L6.73 3.89C7.83 3.23 8.38 3 9 3C9.8 3 10.73 3.52 11.66 4.37L12 4.69L12.58 5.25L13.29 5.97L14 6.7L14 10L1 10L1 8C0.99 7.27 1.07 6.66 1.23 6.16C1.55 5.75 2.05 5.54 2.79 5.5L3 5.5C3.64 5.5 4.16 5.36 4.89 4.97L5.54 4.62L5.72 4.51L6.69 3.91ZM2.5 8C2.22 8 2 8.22 2 8.5C2 8.78 2.22 9 2.5 9C2.78 9 3 8.78 3 8.5C3 8.22 2.78 8 2.5 8ZM10.5 8C10.22 8 10 8.22 10 8.5C10 8.78 10.22 9 10.5 9C10.78 9 11 8.78 11 8.5C11 8.22 10.78 8 10.5 8ZM5.5 8C5.22 8 5 8.22 5 8.5C5 8.78 5.22 9 5.5 9C5.78 9 6 8.78 6 8.5C6 8.22 5.78 8 5.5 8ZM8.5 4C8.22 4 8 4.22 8 4.5C8 4.78 8.22 5 8.5 5C8.78 5 9 4.78 9 4.5C9 4.22 8.78 4 8.5 4ZM6.5 5C6.22 5 6 5.22 6 5.5C6 5.78 6.22 6 6.5 6C6.78 6 7 5.78 7 5.5C7 5.22 6.78 5 6.5 5ZM7.5 7C7.22 7 7 7.22 7 7.5C7 7.78 7.22 8 7.5 8C7.78 8 8 7.78 8 7.5C8 7.22 7.78 7 7.5 7ZM9.5 6C9.22 6 9 6.22 9 6.5C9 6.78 9.22 7 9.5 7C9.78 7 10 6.78 10 6.5C10 6.22 9.78 6 9.5 6ZM12.5 7C12.22 7 12 7.22 12 7.5C12 7.78 12.22 8 12.5 8C12.78 8 13 7.78 13 7.5C13 7.22 12.78 7 12.5 7ZM3.5 6C3.22 6 3 6.22 3 6.5C3 6.78 3.22 7 3.5 7C3.78 7 4 6.78 4 6.5C4 6.22 3.78 6 3.5 6ZM11.5 5C11.22 5 11 5.22 11 5.5C11 5.78 11.22 6 11.5 6C11.78 6 12 5.78 12 5.5C12 5.22 11.78 5 11.5 5Z"/>
</svg>