<svg xmlns="http://www.w3.org/2000/svg" viewBox="0 0 15 15">
  <path fill="param(fill) #888" stroke="param(outline) #000" stroke-width="param(outline-width) 0" fill-opacity="param(fill-opacity) 1" stroke-opacity="param(outline-opacity) 1" d="M14.73 7.86L12.55 8.54L11.59 7.45L11.9 7.28C12.26 7.09 12.71 6.84 13.02 6.63C13.16 6.5 13.3 6.29 13.3 6.16L13.77 4.26L14.45 6.16C14.52 6.36 14.86 6.22 14.8 6.02L14.11 4.05L14.25 3.98C14.66 3.85 14.45 3.3 14.05 3.44L13.91 3.51L13.23 1.6C13.16 1.39 12.82 1.53 12.89 1.73L13.57 3.64L13.5 3.64L12.23 3.93C11.76 4.03 11.3 4.12 11.11 4.12C10.77 4.05 10.36 3.98 10.02 3.98C9.68 3.92 9.55 3.98 9.27 4.19L8.7 4.52C8.32 4.74 7.8 5.07 7.31 5.42C6.15 6.09 4.92 7.32 4.92 7.32L3.28 8C2.87 8 2.46 7.38 2.19 7.11L1.44 6.43C1.37 6.29 1.24 6.29 1.17 6.36L0.08 6.7C-0.06 6.77 0.01 6.84 0.08 6.91L1.85 9.5C2.06 9.77 2.6 9.91 2.94 9.84L7.51 8.95L7.58 8.95L7.58 10.37L4.17 11.6C4.1 11.6 4.03 11.67 4.03 11.81L4.05 11.86C4.07 11.9 4.1 11.97 4.1 12.01C4.1 12.08 4.24 12.15 4.31 12.15L4.49 12.15C4.9 12.13 5.68 12.06 6.62 11.94L6.79 11.9C7.97 11.58 12.96 9.8 13.98 9.29C14.73 8.75 14.93 8.41 14.93 8.41C15 8.34 15 8.27 15 8.2L14.93 8C14.86 7.86 14.8 7.86 14.73 7.86ZM7.92 10.24L7.92 8.82L11.18 7.59L12.14 8.68L7.92 10.24ZM8.86 4.73L9.68 5.75L9.14 5.94C8.04 6.33 6.88 6.78 6.76 6.84C6.69 6.84 6.62 6.84 6.56 6.77L6.56 6.57C6.56 6.5 6.56 6.43 6.62 6.36L6.77 6.22C6.95 6.07 7.25 5.82 7.44 5.68C7.92 5.35 8.45 5.01 8.86 4.73ZM11.11 4.67L11.1 4.78L11.05 5.21C11.05 5.21 11.05 5.35 10.91 5.35C10.77 5.42 10.5 5.48 10.16 5.61L9.27 4.53L9.34 4.46L9.53 4.36C9.67 4.3 9.74 4.28 9.89 4.33L10.78 4.44C10.89 4.45 10.97 4.46 10.98 4.46C11.05 4.46 11.11 4.6 11.11 4.67Z"/>
</svg>