<svg xmlns="http://www.w3.org/2000/svg" viewBox="0 0 15 15">
  <path fill="param(fill) #888" stroke="param(outline) #000" stroke-width="param(outline-width) 0" fill-opacity="param(fill-opacity) 1" stroke-opacity="param(outline-opacity) 1" d="M14.73 6.36L12.55 7.04L11.59 5.95L11.9 5.78C12.26 5.59 12.71 5.34 13.02 5.13C13.16 5 13.3 4.79 13.3 4.66L13.77 2.76L14.45 4.66C14.52 4.86 14.86 4.72 14.8 4.52L14.11 2.55L14.25 2.48C14.66 2.35 14.45 1.8 14.05 1.94L13.91 2.01L13.23 0.1C13.16 -0.11 12.82 0.03 12.89 0.23L13.57 2.14L13.5 2.14L12.23 2.43C11.76 2.53 11.3 2.62 11.11 2.62C10.77 2.55 10.36 2.48 10.02 2.48C9.68 2.42 9.55 2.48 9.27 2.69L8.7 3.02C8.32 3.24 7.8 3.57 7.31 3.92C6.15 4.59 4.92 5.82 4.92 5.82L3.28 6.5C2.87 6.5 2.46 5.88 2.19 5.61L1.44 4.93C1.37 4.79 1.24 4.79 1.17 4.86L0.08 5.2C-0.06 5.27 0.01 5.34 0.08 5.41L1.85 8C2.06 8.27 2.6 8.41 2.94 8.34L7.51 7.45L7.58 7.45L7.58 8.87L4.17 10.1C4.1 10.1 4.03 10.17 4.03 10.31L4.05 10.36C4.07 10.4 4.1 10.47 4.1 10.51C4.1 10.58 4.24 10.65 4.31 10.65L4.49 10.65C4.9 10.63 5.68 10.56 6.62 10.44L6.79 10.4C7.97 10.08 12.96 8.3 13.98 7.79C14.73 7.25 14.93 6.91 14.93 6.91C15 6.84 15 6.77 15 6.7L14.93 6.5C14.86 6.36 14.8 6.36 14.73 6.36ZM6.3 14.56L6.61 14.31C6.86 14.11 7.18 14 7.5 14C7.82 14 8.14 14.11 8.39 14.31L8.7 14.56C9.06 14.84 9.5 15 9.95 15L10.05 15C10.5 15 10.94 14.84 11.3 14.56L11.61 14.31C11.86 14.11 12.18 14 12.5 14C12.82 14 13.14 14.11 13.39 14.31L13.71 14.56C14.01 14.81 14.39 14.96 14.78 14.99L15 15L15 13.5L14.95 13.5C14.49 13.5 14.06 13.35 13.71 13.07L13.39 12.81C13.14 12.61 12.82 12.5 12.5 12.5C12.18 12.5 11.86 12.61 11.61 12.81L11.3 13.06C10.94 13.35 10.5 13.5 10.05 13.5L9.95 13.5C9.5 13.5 9.06 13.35 8.7 13.06L8.39 12.81C8.14 12.61 7.82 12.5 7.5 12.5C7.18 12.5 6.86 12.61 6.61 12.81L6.3 13.06C5.94 13.35 5.5 13.5 5.05 13.5L4.95 13.5C4.5 13.5 4.06 13.35 3.7 13.06L3.39 12.81C3.14 12.61 2.82 12.5 2.5 12.5C2.18 12.5 1.86 12.61 1.61 12.81L1.29 13.07C0.99 13.31 0.61 13.46 0.22 13.5L0 13.5L0 15L0.05 15C0.51 15 0.94 14.84 1.29 14.56L1.61 14.31C1.86 14.11 2.18 14 2.5 14C2.82 14 3.14 14.11 3.39 14.31L3.7 14.56C4.06 14.84 4.5 15 4.95 15L5.05 15C5.5 15 5.94 14.84 6.3 14.56ZM7.92 8.74L7.92 7.32L11.18 6.09L12.14 7.18L7.92 8.74ZM8.86 3.23L9.68 4.25L9.14 4.44C8.04 4.83 6.88 5.28 6.76 5.34C6.69 5.34 6.62 5.34 6.56 5.27L6.56 5.07C6.56 5 6.56 4.93 6.62 4.86L6.77 4.72C6.95 4.57 7.25 4.32 7.44 4.18C7.92 3.85 8.45 3.51 8.86 3.23ZM11.11 3.17L11.1 3.28L11.05 3.71C11.05 3.71 11.05 3.85 10.91 3.85C10.77 3.92 10.5 3.98 10.16 4.11L9.27 3.03L9.34 2.96L9.53 2.86C9.67 2.8 9.74 2.78 9.89 2.83L10.78 2.94C10.89 2.95 10.97 2.96 10.98 2.96C11.05 2.96 11.11 3.1 11.11 3.17Z"/>
</svg>