<svg xmlns="http://www.w3.org/2000/svg" viewBox="0 0 15 15">
  <path fill="param(fill) #888" stroke="param(outline) #000" stroke-width="param(outline-width) 0" fill-opacity="param(fill-opacity) 1" stroke-opacity="param(outline-opacity) 1" d="M8.39 10.81L8.7 11.06C9.06 11.35 9.5 11.5 9.95 11.5L10.05 11.5C10.5 11.5 10.94 11.35 11.3 11.06L11.61 10.81C11.66 10.77 11.72 10.73 11.78 10.69L11.93 10.62L12.06 10.57L12.16 10.54L12.27 10.52L12.3 10.51C12.37 10.51 12.43 10.5 12.5 10.5C12.82 10.5 13.14 10.61 13.39 10.81L13.71 11.07C14.01 11.31 14.39 11.46 14.78 11.5L15 11.5L15 13L14.95 13C14.49 13 14.06 12.84 13.71 12.56L13.39 12.31C13.2 12.16 12.97 12.06 12.73 12.02L12.65 12.01L12.5 12L12.42 12L12.31 12.01L12.21 12.03L12.15 12.04L12.05 12.07C11.89 12.13 11.74 12.21 11.61 12.31L11.3 12.56C10.94 12.84 10.5 13 10.05 13L9.95 13C9.5 13 9.06 12.84 8.7 12.56L8.39 12.31C8.28 12.23 8.16 12.16 8.04 12.1L7.87 12.05L7.79 12.03C7.75 12.02 7.7 12.01 7.66 12.01L7.5 12L7.42 12L7.32 12.01L7.21 12.03L7.08 12.06L7.05 12.07C6.89 12.12 6.74 12.21 6.61 12.31L6.3 12.56C5.94 12.84 5.5 13 5.05 13L4.95 13C4.5 13 4.06 12.84 3.7 12.56L3.39 12.31C3.19 12.15 2.95 12.05 2.69 12.01L2.64 12.01L2.5 12L2.37 12.01L2.36 12.01C2.08 12.03 1.82 12.14 1.61 12.31L1.29 12.56C0.94 12.84 0.51 13 0.05 13L0 13L0 11.5L0.05 11.5C0.51 11.5 0.94 11.35 1.29 11.07L1.61 10.81C1.86 10.61 2.18 10.5 2.5 10.5C2.82 10.5 3.14 10.61 3.39 10.81L3.15 10.66C3.23 10.7 3.32 10.75 3.39 10.81L3.7 11.06C4.06 11.35 4.5 11.5 4.95 11.5L5.05 11.5C5.5 11.5 5.94 11.35 6.3 11.06L6.61 10.81C6.86 10.61 7.18 10.5 7.5 10.5C7.82 10.5 8.14 10.61 8.39 10.81ZM3.53 2.07C6.27 2.46 8.34 3.43 9.75 5C10.95 6.34 11.62 8.11 12.04 9.55C11.66 9.62 11.29 9.78 10.98 10.03L10.67 10.28C10.5 10.42 10.28 10.5 10.05 10.5L9.95 10.5C9.72 10.5 9.5 10.42 9.33 10.28L9.01 10.03C8.58 9.69 8.05 9.5 7.5 9.5C6.95 9.5 6.42 9.69 5.99 10.03L5.67 10.28C5.5 10.42 5.28 10.5 5.05 10.5L4.95 10.5C4.72 10.5 4.5 10.42 4.33 10.28L4.01 10.03C3.93 9.96 3.84 9.9 3.75 9.85C4.44 8.83 5 7.72 5 6.75C5 5.67 4.43 4.24 3.29 2.45C3.26 2.4 3.25 2.34 3.25 2.28C3.27 2.15 3.4 2.05 3.53 2.07Z"/>
</svg>