<svg xmlns="http://www.w3.org/2000/svg" viewBox="0 0 15 15">
  <path fill="param(fill) #888" stroke="param(outline) #000" stroke-width="param(outline-width) 0" fill-opacity="param(fill-opacity) 1" stroke-opacity="param(outline-opacity) 1" d="M4.76 2.5C4.55 2.5 4.38 2.7 4.4 2.92C5.34 4.41 6.39 5.86 5.1 8.17C5.09 8.17 5.08 8.17 5.06 8.17C4.32 8.17 3.57 7.9 3.33 7.6C3.23 7.48 3.08 7.44 2.94 7.49C2.42 7.68 2.1 8.09 1.81 8.2C1.67 8.26 1.56 8.27 1.38 8.2C1.21 8.13 0.96 7.94 0.64 7.55C0.56 7.44 0.43 7.39 0.3 7.41C0.17 7.44 0.06 7.53 0.02 7.66C-0.02 7.79 0 7.93 0.09 8.03C0.45 8.49 0.78 8.76 1.12 8.9C1.46 9.04 1.8 9.01 2.07 8.9C2.55 8.71 2.84 8.39 3.06 8.27C3.58 8.71 4.3 8.92 5.06 8.92C5.81 8.93 6.53 8.7 7.04 8.22C7.52 8.62 8.05 8.76 8.46 8.62C8.7 8.53 8.89 8.39 9.04 8.23C9.07 8.19 9.07 8.14 9.1 8.11C9.55 8.36 10.02 8.66 10.58 8.8C11.16 8.94 11.82 8.76 12.48 8.27C12.55 8.37 12.57 8.45 12.71 8.55C12.83 8.64 13.01 8.7 13.19 8.69C13.37 8.68 13.55 8.61 13.73 8.49C13.85 8.43 13.92 8.3 13.93 8.16C13.93 8.03 13.86 7.9 13.74 7.83C13.62 7.76 13.48 7.77 13.37 7.85C13.25 7.92 13.17 7.94 13.15 7.94C13.12 7.94 13.13 7.94 13.12 7.93C13.08 7.91 12.99 7.76 12.86 7.57C12.8 7.48 12.7 7.43 12.6 7.42C12.5 7.41 12.4 7.44 12.32 7.52C11.69 8.13 11.24 8.18 10.74 8.07C10.41 7.99 10.05 7.8 9.68 7.6C8.49 3.23 6.73 3.09 5.02 2.62C4.95 2.54 4.86 2.5 4.76 2.5ZM4.58 9.31C4.47 9.31 4.37 9.37 4.31 9.47C4.09 9.8 3.89 9.95 3.67 9.99C3.45 10.02 3.16 9.95 2.75 9.65C2.64 9.56 2.5 9.54 2.38 9.6C2.26 9.66 2.18 9.77 2.17 9.91C2.16 10.05 2.22 10.18 2.33 10.26C2.83 10.63 3.32 10.81 3.78 10.73C4.13 10.67 4.38 10.38 4.62 10.1C4.83 10.25 5.03 10.39 5.28 10.45C5.6 10.53 5.97 10.48 6.29 10.27C6.41 10.2 6.48 10.07 6.48 9.94C6.47 9.8 6.4 9.67 6.28 9.61C6.16 9.55 6.02 9.56 5.91 9.63C5.74 9.75 5.61 9.76 5.44 9.72C5.26 9.68 5.05 9.56 4.82 9.38C4.75 9.33 4.67 9.3 4.58 9.31ZM11.54 10.28C11.53 10.28 11.52 10.28 11.51 10.28C11.43 10.29 11.35 10.32 11.29 10.38C10.81 10.84 10.48 11.37 10.09 11.6C9.89 11.72 9.69 11.77 9.4 11.74C9.1 11.71 8.71 11.57 8.2 11.25C8.09 11.17 7.95 11.16 7.83 11.23C7.71 11.3 7.64 11.42 7.64 11.56C7.64 11.7 7.72 11.83 7.83 11.89C8.4 12.25 8.88 12.44 9.32 12.49C9.75 12.54 10.13 12.44 10.44 12.26C10.95 11.96 11.24 11.51 11.55 11.15C11.6 11.2 11.63 11.21 11.68 11.27C11.81 11.42 11.94 11.6 12.14 11.74C12.33 11.89 12.63 12.01 12.93 11.91C13.13 11.85 13.3 11.63 13.47 11.43C13.6 11.53 13.73 11.63 13.9 11.71C14.16 11.82 14.55 11.84 14.85 11.6C14.96 11.52 15.01 11.39 15 11.26C14.98 11.12 14.9 11.01 14.78 10.95C14.66 10.9 14.52 10.92 14.42 11C14.32 11.08 14.31 11.07 14.18 11.01C14.05 10.96 13.86 10.81 13.64 10.66C13.48 10.55 13.27 10.6 13.16 10.76C12.94 11.07 12.78 11.18 12.72 11.19C12.66 11.21 12.66 11.21 12.57 11.14C12.48 11.07 12.35 10.93 12.22 10.77C12.08 10.61 11.92 10.43 11.68 10.31C11.64 10.29 11.59 10.28 11.54 10.28Z"/>
</svg>