<svg xmlns="http://www.w3.org/2000/svg" viewBox="0 0 15 15">
  <path fill="param(fill) #888" stroke="param(outline) #000" stroke-width="param(outline-width) 0" fill-opacity="param(fill-opacity) 1" stroke-opacity="param(outline-opacity) 1" d="M8.39 8.81L8.7 9.06C9.06 9.35 9.5 9.5 9.95 9.5L10.05 9.5C10.5 9.5 10.94 9.35 11.3 9.06L11.61 8.81C11.66 8.77 11.72 8.73 11.78 8.69L11.93 8.62L12.06 8.57L12.16 8.54L12.27 8.52L12.3 8.51C12.37 8.51 12.43 8.5 12.5 8.5C12.82 8.5 13.14 8.61 13.39 8.81L13.71 9.07C14.01 9.31 14.39 9.46 14.78 9.5L15 9.5L15 11L14.95 11C14.49 11 14.06 10.84 13.71 10.56L13.39 10.31C13.2 10.16 12.97 10.06 12.73 10.02L12.65 10.01L12.5 10L12.42 10L12.31 10.01L12.21 10.03L12.15 10.04L12.05 10.07C11.89 10.13 11.74 10.21 11.61 10.31L11.3 10.56C10.94 10.84 10.5 11 10.05 11L9.95 11C9.5 11 9.06 10.84 8.7 10.56L8.39 10.31C8.28 10.23 8.16 10.16 8.04 10.1L7.87 10.05L7.79 10.03C7.75 10.02 7.7 10.01 7.66 10.01L7.5 10L7.42 10L7.32 10.01L7.21 10.03L7.08 10.06L7.05 10.07C6.89 10.12 6.74 10.21 6.61 10.31L6.3 10.56C5.94 10.84 5.5 11 5.05 11L4.95 11C4.5 11 4.06 10.84 3.7 10.56L3.39 10.31C3.19 10.15 2.95 10.05 2.69 10.01L2.64 10.01L2.5 10L2.37 10.01L2.36 10.01C2.08 10.03 1.82 10.14 1.61 10.31L1.29 10.56C0.94 10.84 0.51 11 0.05 11L0 11L0 9.5L0.05 9.5C0.51 9.5 0.94 9.35 1.29 9.07L1.61 8.81C1.86 8.61 2.18 8.5 2.5 8.5C2.82 8.5 3.14 8.61 3.39 8.81L3.15 8.66C3.23 8.7 3.32 8.75 3.39 8.81L3.7 9.06C4.06 9.35 4.5 9.5 4.95 9.5L5.05 9.5C5.5 9.5 5.94 9.35 6.3 9.06L6.61 8.81C6.86 8.61 7.18 8.5 7.5 8.5C7.82 8.5 8.14 8.61 8.39 8.81ZM3.53 0.07C6.27 0.46 8.34 1.43 9.75 3C10.95 4.34 11.62 6.11 12.04 7.55C11.66 7.62 11.29 7.78 10.98 8.03L10.67 8.28C10.5 8.42 10.28 8.5 10.05 8.5L9.95 8.5C9.72 8.5 9.5 8.42 9.33 8.28L9.01 8.03C8.58 7.69 8.05 7.5 7.5 7.5C6.95 7.5 6.42 7.69 5.99 8.03L5.67 8.28C5.5 8.42 5.28 8.5 5.05 8.5L4.95 8.5C4.72 8.5 4.5 8.42 4.33 8.28L4.01 8.03C3.93 7.96 3.84 7.9 3.75 7.85C4.44 6.83 5 5.72 5 4.75C5 3.67 4.43 2.24 3.29 0.45C3.26 0.4 3.25 0.34 3.25 0.28C3.27 0.15 3.4 0.05 3.53 0.07ZM6.3 13.56L6.61 13.31C6.86 13.11 7.18 13 7.5 13C7.82 13 8.14 13.11 8.39 13.31L8.7 13.56C9.06 13.84 9.5 14 9.95 14L10.05 14C10.5 14 10.94 13.84 11.3 13.56L11.61 13.31C11.86 13.11 12.18 13 12.5 13C12.82 13 13.14 13.11 13.39 13.31L13.71 13.56C14.06 13.84 14.49 14 14.95 14L15 14L15 12.5L14.95 12.5C14.49 12.5 14.06 12.35 13.71 12.07L13.39 11.81C13.14 11.61 12.82 11.5 12.5 11.5C12.18 11.5 11.86 11.61 11.61 11.81L11.3 12.06C10.94 12.35 10.5 12.5 10.05 12.5L9.95 12.5C9.5 12.5 9.06 12.35 8.7 12.06L8.39 11.81C8.14 11.61 7.82 11.5 7.5 11.5C7.18 11.5 6.86 11.61 6.61 11.81L6.3 12.06C5.94 12.35 5.5 12.5 5.05 12.5L4.95 12.5C4.5 12.5 4.06 12.35 3.7 12.06L3.39 11.81C3.14 11.61 2.82 11.5 2.5 11.5C2.18 11.5 1.86 11.61 1.61 11.81L1.29 12.07C0.99 12.31 0.61 12.46 0.22 12.5L0 12.5L0 14L0.05 14C0.51 14 0.94 13.84 1.29 13.56L1.61 13.31C1.86 13.11 2.18 13 2.5 13C2.82 13 3.14 13.11 3.39 13.31L3.7 13.56C4.06 13.84 4.5 14 4.95 14L5.05 14C5.5 14 5.94 13.84 6.3 13.56Z"/>
</svg>