<svg xmlns="http://www.w3.org/2000/svg" viewBox="0 0 15 15">
  <path fill="param(fill) #888" stroke="param(outline) #000" stroke-width="param(outline-width) 0" fill-opacity="param(fill-opacity) 1" stroke-opacity="param(outline-opacity) 1" d="M2.5 11C2.82 11 3.14 11.11 3.39 11.31L3.7 11.56C4.06 11.85 4.5 12 4.95 12L5.05 12C5.5 12 5.94 11.85 6.3 11.56L6.61 11.31C6.86 11.11 7.18 11 7.5 11C7.82 11 8.14 11.11 8.39 11.31L8.7 11.56C9.01 11.81 9.39 11.96 9.78 11.99L9.95 12L10.05 12C10.5 12 10.94 11.85 11.3 11.56L11.61 11.31C11.86 11.11 12.18 11 12.5 11C12.82 11 13.14 11.11 13.39 11.31L13.71 11.57C14.01 11.81 14.39 11.96 14.78 12L15 12L15 13.5L14.95 13.5C14.49 13.5 14.06 13.34 13.71 13.06L13.39 12.81C13.14 12.61 12.82 12.5 12.5 12.5C12.18 12.5 11.86 12.61 11.61 12.81L11.3 13.06C10.94 13.34 10.5 13.5 10.05 13.5L9.95 13.5C9.5 13.5 9.06 13.34 8.7 13.06L8.39 12.81C8.14 12.61 7.82 12.5 7.5 12.5C7.18 12.5 6.86 12.61 6.61 12.81L6.3 13.06C5.94 13.34 5.5 13.5 5.05 13.5L4.95 13.5C4.5 13.5 4.06 13.34 3.7 13.06L3.39 12.81C3.14 12.61 2.82 12.5 2.5 12.5C2.18 12.5 1.86 12.61 1.61 12.81L1.29 13.06C0.94 13.34 0.51 13.5 0.05 13.5L0 13.5L0 12L0.05 12C0.51 12 0.94 11.85 1.29 11.57L1.61 11.31C1.86 11.11 2.18 11 2.5 11ZM5.68 1.82L6.32 3.43L6.75 3.21L7.71 2.79L8.04 3.75L6.64 4.29L8.04 7.5L9.67 6.81C11.53 6.01 12.96 5.36 12.96 5.36L12.66 7.07C12.61 7.37 12.56 7.69 12.51 8.01L12.44 8.45L12.35 9.11C12.31 9.43 12.27 9.74 12.24 10.02C11.78 10.06 11.35 10.24 10.98 10.53L10.67 10.78C10.5 10.92 10.28 11 10.05 11L9.95 11C9.72 11 9.5 10.92 9.33 10.78L9.01 10.53C8.58 10.19 8.05 10 7.5 10C6.95 10 6.42 10.19 5.99 10.53L5.67 10.78C5.5 10.92 5.28 11 5.05 11L4.95 11C4.72 11 4.5 10.92 4.33 10.78L4.01 10.53C3.58 10.19 3.05 10 2.5 10C2.41 10 2.33 10.01 2.24 10.02L2.63 9.84C3.39 9.49 4.7 8.92 6.14 8.31L7.29 7.82L5.89 4.61L4.39 5.25L4.07 4.39L4.82 4.06C5.02 3.96 5.25 3.86 5.46 3.75L4.82 2.14L5.68 1.82Z"/>
</svg>