<svg xmlns="http://www.w3.org/2000/svg" viewBox="0 0 15 15">
  <path fill="param(fill) #888" stroke="param(outline) #000" stroke-width="param(outline-width) 0" fill-opacity="param(fill-opacity) 1" stroke-opacity="param(outline-opacity) 1" d="M7.49 0C7.23 0 7.03 0.22 7.03 0.48L7.03 2.35C5.95 2.44 4.97 2.87 4.19 3.53L2.86 2.2C2.77 2.11 2.65 2.06 2.52 2.06C2.33 2.06 2.16 2.18 2.09 2.35C2.02 2.53 2.06 2.73 2.2 2.86L3.52 4.19C2.87 4.98 2.44 5.96 2.34 7.03L0.47 7.03C0.21 7.03 0 7.24 0 7.5C0 7.76 0.21 7.97 0.47 7.97L2.34 7.97C2.44 9.05 2.87 10.03 3.52 10.82L2.2 12.14C2.08 12.26 2.03 12.43 2.08 12.59C2.12 12.76 2.25 12.88 2.41 12.93C2.57 12.97 2.74 12.92 2.86 12.8L4.19 11.48C4.97 12.14 5.95 12.56 7.03 12.66L7.03 14.53C7.03 14.79 7.24 15 7.5 15C7.76 15 7.97 14.79 7.97 14.53L7.97 12.66C9.05 12.56 10.03 12.14 10.81 11.48L12.14 12.8C12.26 12.92 12.43 12.97 12.59 12.93C12.76 12.88 12.88 12.76 12.92 12.59C12.97 12.43 12.92 12.26 12.8 12.14L11.48 10.82C12.13 10.03 12.56 9.05 12.66 7.97L14.53 7.97C14.79 7.97 15 7.76 15 7.5C15 7.24 14.79 7.03 14.53 7.03L12.66 7.03C12.56 5.96 12.13 4.98 11.48 4.19L12.8 2.86C12.94 2.73 12.98 2.52 12.91 2.35C12.83 2.17 12.66 2.05 12.46 2.06C12.34 2.06 12.23 2.11 12.14 2.2L10.81 3.53C10.03 2.87 9.05 2.44 7.97 2.35L7.97 0.48C7.97 0.35 7.92 0.23 7.83 0.14C7.74 0.05 7.62 0 7.49 0ZM7.03 3.6L7.03 6.04C6.95 6.07 6.87 6.1 6.8 6.14L5.07 4.41C5.62 3.98 6.29 3.69 7.03 3.6ZM7.97 3.6C8.71 3.69 9.38 3.98 9.93 4.41L8.2 6.14C8.13 6.1 8.05 6.07 7.97 6.04L7.97 3.6ZM4.41 5.07L6.13 6.8C6.09 6.87 6.06 6.95 6.04 7.03L3.6 7.03C3.68 6.3 3.97 5.63 4.41 5.07ZM10.59 5.07C11.03 5.63 11.32 6.3 11.4 7.03L8.96 7.03C8.94 6.95 8.91 6.87 8.87 6.8L10.59 5.07ZM7.5 6.87C7.86 6.87 8.13 7.15 8.13 7.5C8.13 7.86 7.86 8.14 7.5 8.14C7.14 8.14 6.87 7.86 6.87 7.5C6.87 7.15 7.14 6.87 7.5 6.87ZM3.6 7.97L6.04 7.97C6.06 8.05 6.09 8.13 6.13 8.21L4.41 9.93C3.97 9.38 3.68 8.71 3.6 7.97ZM8.96 7.97L11.4 7.97C11.32 8.71 11.03 9.38 10.59 9.93L8.87 8.21C8.91 8.13 8.94 8.05 8.96 7.97ZM6.8 8.87C6.87 8.91 6.95 8.94 7.03 8.97L7.03 11.4C6.29 11.32 5.62 11.03 5.07 10.6L6.8 8.87ZM8.2 8.87L9.93 10.6C9.38 11.03 8.71 11.32 7.97 11.4L7.97 8.97C8.05 8.94 8.13 8.91 8.2 8.87Z"/>
</svg>