<svg xmlns="http://www.w3.org/2000/svg" viewBox="0 0 15 15">
  <path fill="param(fill) #888" stroke="param(outline) #000" stroke-width="param(outline-width) 0" fill-opacity="param(fill-opacity) 1" stroke-opacity="param(outline-opacity) 1" d="M1.75 1.5L1.98 1.5C2.38 1.51 3.31 1.58 3.75 2C4.28 2.52 4.5 2.92 4.5 4L13.8 4L12.41 8.81L12.39 8.84C12.16 9.49 11.55 9.97 10.81 9.99C10.81 10 10.8 10 10.8 10L4.3 10L4.3 10.23C4.31 10.31 4.33 10.52 4.45 10.78L4.5 10.9C4.7 11.3 4.8 11.5 5.6 11.5L12.1 11.5C13.1 11.5 13.1 13 12.1 13L5.7 13C4.5 13 3.6 12.3 3.3 11.6C3 10.9 3 10.3 3 10.3L3 4C3 3.48 2.77 3 2.3 3L1.75 3C1.34 3 1 2.66 1 2.25C1 1.84 1.34 1.5 1.75 1.5ZM5.8 13C6.4 13 6.8 13.4 6.8 14C6.8 14.6 6.4 15 5.8 15C5.2 15 4.8 14.6 4.8 14C4.8 13.4 5.2 13 5.8 13ZM10.8 13C11.4 13 11.8 13.4 11.8 14C11.8 14.6 11.4 15 10.8 15C10.2 15 9.8 14.6 9.8 14C9.8 13.4 10.2 13 10.8 13Z"/>
</svg>