<svg xmlns="http://www.w3.org/2000/svg" viewBox="0 0 15 15">
  <path fill="param(fill) #888" stroke="param(outline) #000" stroke-width="param(outline-width) 0" fill-opacity="param(fill-opacity) 1" stroke-opacity="param(outline-opacity) 1" d="M8.62 1C8.99 1.01 9.35 1.07 9.7 1.18C10.41 1.38 10.95 1.95 11.11 2.67L11.5 5L14.33 5C14.38 5 14.42 5.01 14.47 5.02C14.71 5.1 14.85 5.33 14.82 5.56L12.92 13.95C12.72 14.57 12.15 15 11.5 15L3.5 15C2.85 15 2.27 14.57 2.07 13.95L0.19 5.65C0.18 5.6 0.17 5.55 0.17 5.5C0.17 5.22 0.39 5 0.67 5L3.5 5L3.89 2.67C4.05 1.95 4.59 1.38 5.3 1.18C5.65 1.07 6.01 1.01 6.38 1L8.62 1ZM7 12L6 12L6 14L7 14L7 12ZM8 7L6 7L6 8.5L5 8.5L5 9.25L6 9.25L6 9.75L5 9.75L5 10.5L6 10.5L6 12L8 12C9.02 12 9.91 11.38 10.29 10.5L11 10.5L11 9.75L10.49 9.75C10.5 9.67 10.5 9.58 10.5 9.5C10.5 9.42 10.5 9.33 10.49 9.25L11 9.25L11 8.5L10.29 8.5C9.91 7.62 9.03 7 8 7ZM7 10.5L9.12 10.5C8.84 10.81 8.44 11 8 11L7 11L7 10.5ZM7 9.25L9.48 9.25C9.49 9.33 9.5 9.41 9.5 9.5C9.5 9.59 9.49 9.67 9.48 9.75L7 9.75L7 9.25ZM8 8C8.44 8 8.84 8.19 9.12 8.5L7 8.5L7 8L8 8ZM8.62 2L6.38 2C6.12 2.01 5.87 2.05 5.62 2.13C5.25 2.19 4.96 2.47 4.88 2.83L4.52 5L10.48 5L10.13 2.83C10.05 2.47 9.76 2.19 9.39 2.13C9.14 2.05 8.88 2.01 8.62 2Z"/>
</svg>