<svg xmlns="http://www.w3.org/2000/svg" viewBox="0 0 15 15">
  <path fill="param(fill) #888" stroke="param(outline) #000" stroke-width="param(outline-width) 0" fill-opacity="param(fill-opacity) 1" stroke-opacity="param(outline-opacity) 1" d="M8.62 1C8.99 1.01 9.35 1.07 9.7 1.18C10.41 1.38 10.95 1.95 11.11 2.67L11.5 5L14.33 5C14.38 5 14.42 5.01 14.47 5.02C14.74 5.11 14.88 5.39 14.8 5.65L12.92 13.95C12.72 14.57 12.15 15 11.5 15L3.5 15C2.85 15 2.27 14.57 2.07 13.95L0.19 5.65C0.18 5.6 0.17 5.55 0.17 5.5C0.17 5.22 0.39 5 0.67 5L3.5 5L3.89 2.67C4.05 1.95 4.59 1.38 5.3 1.18C5.65 1.07 6.01 1.01 6.38 1L8.62 1ZM8 7L6 7L6 10L5 10L5 11L6 11L6 12L5 12L5 13L6 13L6 14.5L7 14.5L7 13L9 13L9 12L7 12L7 11L8 11C9.1 11 10 10.1 10 9C10 7.9 9.1 7 8 7ZM8 8C8.55 8 9 8.45 9 9C9 9.55 8.55 10 8 10L7 10L7 8ZM8.62 2L6.38 2C6.12 2.01 5.87 2.05 5.62 2.13C5.25 2.19 4.96 2.47 4.88 2.83L4.52 5L10.48 5L10.13 2.83C10.05 2.47 9.76 2.19 9.39 2.13C9.14 2.05 8.88 2.01 8.62 2Z"/>
</svg>