<svg xmlns="http://www.w3.org/2000/svg" viewBox="0 0 15 15">
  <path fill="param(fill) #888" stroke="param(outline) #000" stroke-width="param(outline-width) 0" fill-opacity="param(fill-opacity) 1" stroke-opacity="param(outline-opacity) 1" d="M6.38 1C6.01 1.01 5.65 1.07 5.3 1.18C4.59 1.38 4.05 1.95 3.89 2.67L3.5 5L0.67 5C0.39 5 0.17 5.22 0.17 5.5C0.17 5.55 0.18 5.6 0.19 5.65L2.07 13.95C2.27 14.57 2.85 15 3.5 15L11.5 15C12.15 15 12.72 14.57 12.92 13.95L14.8 5.65C14.88 5.39 14.74 5.11 14.47 5.02C14.42 5.01 14.38 5 14.33 5L11.5 5L11.11 2.67C10.95 1.95 10.41 1.38 9.7 1.18C9.35 1.07 8.99 1.01 8.62 1L6.38 1ZM6.38 2L8.62 2C8.88 2.01 9.14 2.05 9.39 2.13C9.76 2.19 10.05 2.47 10.13 2.83L10.48 5L4.52 5L4.88 2.83C4.96 2.47 5.25 2.19 5.62 2.13C5.87 2.05 6.12 2.01 6.38 2ZM6.59 6L6.61 6L6.62 6L6.63 6C7.25 6 7.15 7.71 7.1 8.15C7.06 8.59 6.76 8.96 6.34 9.02C4.94 9.26 4.82 6.31 6.57 6.01C6.58 6.01 6.58 6.01 6.58 6.01L6.58 6.01L6.58 6L6.58 6L6.59 6C6.59 6 6.59 6 6.59 6ZM8.34 6L8.37 6C8.39 6 8.41 6 8.43 6.01C10.19 6.31 10.05 9.26 8.65 9.02C8.25 8.96 7.94 8.59 7.9 8.15C7.85 7.72 7.76 6.05 8.34 6ZM4.36 9.07C4.36 9.07 4.36 9.07 4.36 9.07L4.39 9.07C4.65 9.08 5.21 9.56 5.4 9.82C5.54 9.97 5.62 10.18 5.62 10.41C5.62 10.89 5.28 11.27 4.88 11.27C4.56 11.27 4.29 11.06 4.17 10.74C3.96 10.18 3.94 9.4 4.3 9.09C4.32 9.08 4.34 9.07 4.36 9.07ZM10.61 9.07C10.64 9.07 10.67 9.07 10.7 9.09C11.05 9.4 11.04 10.18 10.83 10.74C10.71 11.06 10.45 11.27 10.12 11.27C9.71 11.27 9.37 10.89 9.37 10.41C9.37 10.18 9.46 9.97 9.59 9.82C9.78 9.56 10.35 9.08 10.61 9.07ZM7.5 9.47C7.99 9.47 8.4 9.81 8.52 10.25C8.66 10.81 8.63 11.43 9.28 11.75C9.84 11.94 10.06 12.19 10.06 12.83C10.06 13.36 9.62 13.9 9.04 13.97C8.4 14.06 7.91 13.94 7.5 13.71C7.1 13.94 6.59 14.06 5.96 13.97C5.38 13.9 4.94 13.35 4.94 12.83C4.94 12.2 5.17 11.92 5.74 11.74C6.43 11.39 6.34 10.77 6.49 10.22C6.62 9.8 7.03 9.47 7.5 9.47Z"/>
</svg>