<svg xmlns="http://www.w3.org/2000/svg" viewBox="0 0 15 15">
  <path fill="param(fill) #888" stroke="param(outline) #000" stroke-width="param(outline-width) 0" fill-opacity="param(fill-opacity) 1" stroke-opacity="param(outline-opacity) 1" d="M8.62 1C8.99 1.01 9.35 1.07 9.7 1.18C10.41 1.38 10.95 1.95 11.11 2.67L11.5 5L14.33 5C14.38 5 14.42 5.01 14.47 5.02C14.74 5.11 14.88 5.39 14.8 5.65L12.92 13.95C12.72 14.57 12.15 15 11.5 15L3.5 15C2.85 15 2.27 14.57 2.07 13.95L0.19 5.65C0.18 5.6 0.17 5.55 0.17 5.5C0.17 5.22 0.39 5 0.67 5L3.5 5L3.89 2.67C4.05 1.95 4.59 1.38 5.3 1.18C5.65 1.07 6.01 1.01 6.38 1L8.62 1ZM8 7L7 7L7 8L5 8L5 13L7 13L7 14L8 14L8 13L8.53 13C8.94 13 9.32 12.83 9.6 12.53C10.13 11.94 10.09 11.03 9.5 10.5L9.61 10.39C9.84 10.13 9.97 9.79 9.97 9.44C9.97 8.64 9.33 8 8.53 8L8 8L8 7ZM7 10.8L7 12L6 12L6 10.8L7 10.8ZM8.34 10.8L8.83 11.24C9.01 11.4 9.02 11.68 8.86 11.86L8.8 11.91C8.73 11.97 8.63 12 8.53 12L8 12L8 10.8L8.34 10.8ZM7 9L7 10.2L6 10.2L6 9L7 9ZM8.53 9C8.77 9 8.97 9.2 8.97 9.44C8.97 9.56 8.92 9.68 8.83 9.76L8.34 10.2L8 10.2L8 9ZM8.62 2L6.38 2C6.12 2.01 5.87 2.05 5.62 2.13C5.25 2.19 4.96 2.47 4.88 2.83L4.52 5L10.48 5L10.13 2.83C10.05 2.47 9.76 2.19 9.39 2.13C9.14 2.05 8.88 2.01 8.62 2Z"/>
</svg>