<svg xmlns="http://www.w3.org/2000/svg" viewBox="0 0 15 15">
  <path fill="param(fill) #888" stroke="param(outline) #000" stroke-width="param(outline-width) 0" fill-opacity="param(fill-opacity) 1" stroke-opacity="param(outline-opacity) 1" d="M8.26 0C10.2 0 11.97 1.1 12.84 2.83L10.16 4.17C9.8 3.45 9.07 3 8.26 3L7 3C5.9 3 5 3.9 5 5L5 5.51C5.76 5.18 6.61 5 7.5 5C10.46 5 13 6.95 13 10C13 13.05 10.46 15 7.5 15C4.54 15 2 13.05 2 10L2 5C2 2.24 4.24 0 7 0L8.26 0ZM7.5 8C6.05 8 5 8.81 5 10C5 11.19 6.05 12 7.5 12C8.95 12 10 11.19 10 10C10 8.81 8.95 8 7.5 8Z"/>
</svg>