<svg xmlns="http://www.w3.org/2000/svg" viewBox="0 0 15 15">
  <path fill="param(fill) #888" stroke="param(outline) #000" stroke-width="param(outline-width) 0" fill-opacity="param(fill-opacity) 1" stroke-opacity="param(outline-opacity) 1" d="M4.85 2C6.14 2 7.32 2.73 7.9 3.89L6.11 4.78C5.87 4.3 5.38 4 4.85 4L4 4C3.27 4 2.67 4.6 2.67 5.33L2.67 5.67C3.17 5.45 3.74 5.33 4.34 5.33C6.31 5.33 8 6.63 8 8.67C8 10.7 6.31 12 4.34 12C2.36 12 0.67 10.7 0.67 8.67L0.67 5.33C0.67 3.49 2.16 2 4 2L4.85 2ZM4.34 7.33C3.37 7.33 2.67 7.87 2.67 8.67C2.67 9.46 3.37 10 4.34 10C5.31 10 6 9.46 6 8.67C6 7.87 5.31 7.33 4.34 7.33ZM9 6H14.5V8H9V6z"/>
</svg>