<svg xmlns="http://www.w3.org/2000/svg" viewBox="0 0 15 15">
  <path fill="param(fill) #888" stroke="param(outline) #000" stroke-width="param(outline-width) 0" fill-opacity="param(fill-opacity) 1" stroke-opacity="param(outline-opacity) 1" d="M8.01 0C9.3 0 10.48 0.73 11.06 1.89L9.27 2.78C9.03 2.3 8.54 2 8.01 2L7.17 2C6.43 2 5.83 2.6 5.83 3.33L5.83 3.67C6.34 3.45 6.91 3.33 7.5 3.33C9.48 3.33 11.17 4.63 11.17 6.67C11.17 8.7 9.48 10 7.5 10C5.52 10 3.83 8.7 3.83 6.67L3.83 3.33C3.83 1.49 5.33 0 7.17 0L8.01 0ZM7.5 5.33C6.53 5.33 5.83 5.87 5.83 6.67C5.83 7.46 6.53 8 7.5 8C8.47 8 9.17 7.46 9.17 6.67C9.17 5.87 8.47 5.33 7.5 5.33ZM12 11C12.67 12.33 13.42 13 14.25 13C14.51 13 14.76 12.94 15 12.81L15 14.86C14.76 14.95 14.51 15 14.25 15C13.42 15 12.67 14.5 12 13.5C11.33 14.5 10.58 15 9.75 15C8.92 15 8.17 14.5 7.5 13.5C6.83 14.5 6.08 15 5.25 15C4.42 15 3.67 14.5 3 13.5C2.33 14.5 1.58 15 0.75 15C0.49 15 0.24 14.95 0 14.86L0 12.81C0.24 12.94 0.49 13 0.75 13C1.58 13 2.33 12.33 3 11C3.67 12.33 4.42 13 5.25 13C6.08 13 6.83 12.33 7.5 11C8.17 12.33 8.92 13 9.75 13C10.58 13 11.33 12.33 12 11Z"/>
</svg>