<svg xmlns="http://www.w3.org/2000/svg" viewBox="0 0 15 15">
  <path fill="param(fill) #888" stroke="param(outline) #000" stroke-width="param(outline-width) 0" fill-opacity="param(fill-opacity) 1" stroke-opacity="param(outline-opacity) 1" d="M12 11C12.67 12.33 13.42 13 14.25 13C14.51 13 14.76 12.94 15 12.81L15 14.86C14.76 14.95 14.51 15 14.25 15C13.42 15 12.67 14.5 12 13.5C11.33 14.5 10.58 15 9.75 15C8.92 15 8.17 14.5 7.5 13.5C6.83 14.5 6.08 15 5.25 15C4.42 15 3.67 14.5 3 13.5C2.33 14.5 1.58 15 0.75 15C0.49 15 0.24 14.95 0 14.86L0 12.81C0.24 12.94 0.49 13 0.75 13C1.58 13 2.33 12.33 3 11C3.67 12.33 4.42 13 5.25 13C6.08 13 6.83 12.33 7.5 11C8.17 12.33 8.92 13 9.75 13C10.58 13 11.33 12.33 12 11ZM4.85 0C6.14 0 7.32 0.73 7.9 1.89L6.11 2.78C5.87 2.3 5.38 2 4.85 2L4 2C3.27 2 2.67 2.6 2.67 3.33L2.67 3.67C3.17 3.45 3.74 3.33 4.34 3.33C6.31 3.33 8 4.63 8 6.67C8 8.7 6.31 10 4.34 10C2.36 10 0.67 8.7 0.67 6.67L0.67 3.33C0.67 1.49 2.16 0 4 0L4.85 0ZM4.34 5.33C3.37 5.33 2.67 5.87 2.67 6.67C2.67 7.46 3.37 8 4.34 8C5.31 8 6 7.46 6 6.67C6 5.87 5.31 5.33 4.34 5.33ZM9 4H14.5V6H9V4z"/>
</svg>