<svg xmlns="http://www.w3.org/2000/svg" viewBox="0 0 15 15">
  <path fill="param(fill) #888" stroke="param(outline) #000" stroke-width="param(outline-width) 0" fill-opacity="param(fill-opacity) 1" stroke-opacity="param(outline-opacity) 1" d="M7.45 0C6.25 0.01 5.14 0.64 4.41 1.76C3.78 2.73 3.73 2.96 3.9 4.51C4.01 5.59 4.21 6.24 4.45 6.34C4.67 6.42 4.81 6.84 4.81 7.38C4.81 8.04 5.03 8.5 5.61 9.09C6.25 9.74 6.62 9.9 7.52 9.9C8.47 9.9 8.75 9.76 9.43 8.97C9.93 8.4 10.23 7.76 10.23 7.3C10.23 6.89 10.39 6.42 10.59 6.26C10.79 6.09 11.03 5.32 11.12 4.55C11.27 3.4 11.2 2.94 10.76 2.07C10.13 0.81 9.32 0.22 7.98 0.03C7.8 0.01 7.63 0 7.45 0ZM5.76 3.61C5.99 3.6 6.26 3.68 6.52 3.88C7 4.23 7.02 4.37 6.67 4.8C5.97 5.65 5.09 5.39 5.09 4.34C5.09 3.88 5.38 3.62 5.76 3.61ZM9.39 3.65C9.89 3.65 10.2 4.07 10.01 4.69C9.77 5.43 9.22 5.55 8.66 4.98C8.14 4.46 8.19 4.17 8.84 3.81C9.04 3.71 9.23 3.66 9.39 3.65ZM7.47 5.29C7.61 5.2 7.96 5.93 7.81 6.06C7.7 6.15 7.62 6.02 7.48 6.02C7.34 6.02 7.28 6.18 7.15 6.04C7 5.89 7.33 5.38 7.47 5.29ZM5.48 7.13C5.53 7.13 5.58 7.15 5.61 7.19L6.07 7.73L6.45 7.34C6.48 7.32 6.52 7.3 6.56 7.29C7.18 7.22 7.71 7.17 8.45 7.33C8.48 7.34 8.51 7.36 8.54 7.38L8.81 7.67L9.23 7.2C9.39 7.03 9.64 7.26 9.48 7.43L8.93 8.04C8.87 8.12 8.75 8.12 8.68 8.04L8.34 7.67C7.69 7.53 7.23 7.57 6.65 7.64L6.18 8.11C6.11 8.18 5.99 8.18 5.93 8.1L5.35 7.42C5.26 7.31 5.32 7.15 5.46 7.13C5.47 7.13 5.47 7.13 5.48 7.13ZM3.3 8.36C3.01 8.37 2.7 8.61 2.42 9.09C1.88 10.02 1.87 10.27 2.36 10.77C2.61 11.03 2.94 10.87 3.59 10.78C4.22 10.7 6.75 11.75 6.75 11.75C6.75 11.75 5.55 12.63 3.79 12.79C2.29 12.93 1.7 12.98 2.31 13.6C2.51 13.8 2.81 14.23 2.98 14.55C3.41 15.37 4.06 14.99 4.53 14.08C4.75 13.63 7.81 12.3 7.81 12.3C7.81 12.3 9.28 12.74 10.53 14.07C11.06 15.2 11.54 15.36 12.35 14.11C13.14 12.9 12.93 12.52 11.48 12.52C10.5 12.52 8.77 11.81 8.77 11.81C8.77 11.81 10.76 10.78 11.48 10.94C12.04 11.06 12.32 11.1 12.67 10.71C13.12 10.2 13.11 10.15 12.64 9.32C11.98 8.19 11.4 8.1 10.91 9.06C10.49 9.88 7.71 11.27 7.71 11.27C7.71 11.27 4.45 9.81 4.09 9.05C3.87 8.58 3.59 8.35 3.3 8.36Z"/>
</svg>