<svg xmlns="http://www.w3.org/2000/svg" viewBox="0 0 15 15">
  <path fill="param(fill) #888" stroke="param(outline) #000" stroke-width="param(outline-width) 0" fill-opacity="param(fill-opacity) 1" stroke-opacity="param(outline-opacity) 1" d="M12 11C12.67 12.33 13.42 13 14.25 13C14.51 13 14.76 12.94 15 12.81L15 14.86C14.76 14.95 14.51 15 14.25 15C13.42 15 12.67 14.5 12 13.5C11.33 14.5 10.58 15 9.75 15C8.92 15 8.17 14.5 7.5 13.5C6.83 14.5 6.08 15 5.25 15C4.42 15 3.67 14.5 3 13.5C2.33 14.5 1.58 15 0.75 15C0.49 15 0.24 14.95 0 14.86L0 12.81C0.24 12.94 0.49 13 0.75 13C1.58 13 2.33 12.33 3 11C3.67 12.33 4.42 13 5.25 13C6.08 13 6.83 12.33 7.5 11C8.17 12.33 8.92 13 9.75 13C10.58 13 11.33 12.33 12 11ZM12.5 4.7L12.5 5.2C12.5 5.43 12.42 5.67 12.28 5.86C11.66 6.54 10.99 7.19 10.28 7.78L10.28 9.07C10.28 9.3 10.13 9.51 9.92 9.59L7.52 10.56L7.44 10.56L5.03 9.59C4.83 9.49 4.71 9.29 4.72 9.07L4.72 7.78C4 7.19 3.32 6.54 2.7 5.86C2.57 5.67 2.5 5.43 2.5 5.2L2.5 4.7C2.69 2.23 4.61 0.26 7.07 0L7.9 0C10.38 0.23 12.31 2.22 12.5 4.7ZM6 4.5C6 3.95 5.55 3.5 5 3.5C4.45 3.5 4 3.95 4 4.5C4 5.05 4.45 5.5 5 5.5C5.55 5.5 6 5.05 6 4.5ZM7 8C7 7.72 6.78 7.5 6.5 7.5C6.22 7.5 6 7.72 6 8L6 8.5C6 8.78 6.22 9 6.5 9C6.78 9 7 8.78 7 8.5L7 8ZM9 8C9 7.72 8.78 7.5 8.5 7.5C8.22 7.5 8 7.72 8 8L8 8.5C8 8.78 8.22 9 8.5 9C8.78 9 9 8.78 9 8.5L9 8ZM11 4.5C11 3.95 10.55 3.5 10 3.5C9.45 3.5 9 3.95 9 4.5C9 5.05 9.45 5.5 10 5.5C10.55 5.5 11 5.05 11 4.5Z"/>
</svg>