<svg xmlns="http://www.w3.org/2000/svg" viewBox="0 0 15 15">
  <path fill="param(fill) #888" stroke="param(outline) #000" stroke-width="param(outline-width) 0" fill-opacity="param(fill-opacity) 1" stroke-opacity="param(outline-opacity) 1" d="M7.45 0.66C6.19 0.73 4.82 1.25 3.77 2.12C3.08 2.7 2.52 3.44 2.29 4.32C2.07 5.16 2.17 6.12 2.65 7.12C2.47 7.89 2.26 8.2 2.03 8.79C1.84 9.28 1.72 10.26 1.62 11.44C1.48 11.32 1.32 11.19 1.08 11.21C0.81 11.24 0.6 11.45 0.45 11.73C0.29 12 0.16 12.39 0.01 12.96C-0.02 13.07 0.01 13.19 0.1 13.27C0.18 13.35 0.3 13.38 0.41 13.35C0.53 13.32 0.61 13.23 0.64 13.12C0.78 12.58 0.91 12.23 1.02 12.04C1.12 11.85 1.17 11.86 1.15 11.86C1.12 11.87 1.16 11.86 1.26 11.95C1.35 12.04 1.46 12.18 1.59 12.33C1.67 12.44 1.81 12.48 1.94 12.44C2.07 12.4 2.16 12.28 2.16 12.14C2.25 10.33 2.43 9.56 2.64 9.03C2.84 8.49 3.11 8.11 3.31 7.2C3.33 7.13 3.32 7.05 3.28 6.98C2.79 6.04 2.73 5.21 2.92 4.49C3.11 3.76 3.57 3.13 4.19 2.62C5.42 1.6 7.28 1.11 8.51 1.38C9.74 1.65 10.31 2.54 10.8 3.58C11.29 4.63 11.62 5.82 12.52 6.45C12.8 6.66 12.97 6.99 13.04 7.46C13.12 7.92 13.08 8.51 12.98 9.11C12.77 10.31 12.29 11.59 11.99 12.29C11.93 12.43 11.98 12.59 12.1 12.68C12.23 12.77 12.4 12.76 12.51 12.65C12.91 12.28 13.21 12.1 13.38 12.05C13.56 12 13.59 12.02 13.67 12.1C13.85 12.25 14.07 12.84 14.39 13.43C14.44 13.54 14.55 13.6 14.66 13.6C14.78 13.61 14.89 13.55 14.95 13.45C15.01 13.35 15.02 13.22 14.96 13.12C14.68 12.61 14.55 11.99 14.1 11.6C13.88 11.41 13.53 11.33 13.19 11.43C13.09 11.46 12.97 11.59 12.87 11.65C13.14 10.92 13.46 10.16 13.62 9.22C13.73 8.57 13.78 7.93 13.69 7.36C13.6 6.78 13.36 6.25 12.89 5.92C12.27 5.49 11.9 4.41 11.39 3.31C10.88 2.21 10.14 1.06 8.65 0.74C8.27 0.66 7.86 0.63 7.45 0.66ZM4.22 4.42C4.1 4.41 3.97 4.42 3.85 4.46C3.8 4.47 3.75 4.5 3.71 4.53C3.19 5.04 3.22 5.85 3.58 6.43C3.76 6.72 4.04 6.96 4.41 7.05C4.77 7.14 5.2 7.06 5.62 6.81C5.74 6.74 5.8 6.6 5.77 6.47C5.63 5.81 5.44 5.27 5.13 4.89C4.9 4.61 4.57 4.44 4.22 4.42ZM8.86 4.56C8.76 4.56 8.68 4.57 8.59 4.6C8.25 4.69 8.04 4.97 7.92 5.23C7.81 5.49 7.75 5.77 7.68 6C7.61 6.23 7.53 6.39 7.45 6.46C7.38 6.52 7.34 6.6 7.34 6.69C7.34 6.77 7.37 6.86 7.43 6.92C7.89 7.4 8.37 7.63 8.81 7.62C9.25 7.61 9.62 7.36 9.86 7.04C10.09 6.72 10.23 6.33 10.25 5.95C10.28 5.56 10.2 5.16 9.92 4.89C9.89 4.86 9.86 4.84 9.83 4.83C9.45 4.65 9.14 4.55 8.86 4.56ZM6.01 7.61C5.28 7.76 5.08 9.39 5.33 9.6C5.57 9.8 5.64 8.92 6.64 9.81C7.63 10.69 6.75 7.46 6.01 7.61ZM5.01 10.73C4.97 10.73 4.93 10.74 4.89 10.75L3.69 11.27C3.59 11.31 3.52 11.41 3.5 11.52C3.49 11.63 3.54 11.74 3.63 11.81C3.72 11.88 3.84 11.89 3.94 11.85L4.85 11.46C4.87 11.5 4.87 11.5 4.88 11.54C4.93 11.63 4.97 11.73 5.02 11.82C5.05 11.86 5.07 11.9 5.11 11.94C5.13 11.96 5.15 11.98 5.18 12.01C5.22 12.04 5.28 12.09 5.39 12.09C5.52 12.09 5.54 12.05 5.57 12.04C5.6 12.02 5.62 12.01 5.64 11.99C5.68 11.96 5.73 11.93 5.77 11.89C5.87 11.81 5.99 11.72 6.11 11.63C6.23 11.55 6.35 11.47 6.44 11.43C6.48 11.42 6.46 11.42 6.46 11.41C6.47 11.45 6.47 11.52 6.46 11.59C6.45 11.68 6.43 11.78 6.42 11.88C6.42 11.94 6.41 12 6.46 12.1C6.48 12.16 6.53 12.23 6.61 12.27C6.68 12.32 6.77 12.32 6.83 12.32C6.92 12.3 6.96 12.28 7.01 12.26C7.07 12.24 7.13 12.21 7.2 12.18C7.33 12.12 7.48 12.04 7.63 11.96C7.8 11.86 7.85 11.83 7.96 11.77L8.19 12.04C8.27 12.14 8.4 12.18 8.52 12.14L9.74 11.79C9.85 11.76 9.93 11.68 9.96 11.57C9.98 11.46 9.95 11.34 9.87 11.26C9.79 11.18 9.67 11.15 9.56 11.18L8.54 11.48L8.27 11.17C8.17 11.05 8.01 11.02 7.87 11.1C7.87 11.1 7.61 11.25 7.33 11.4C7.24 11.45 7.17 11.48 7.09 11.52C7.09 11.44 7.1 11.37 7.09 11.28C7.06 11.13 6.97 10.93 6.78 10.83C6.56 10.72 6.35 10.78 6.19 10.85C6.03 10.92 5.88 11.02 5.74 11.12C5.64 11.19 5.56 11.25 5.48 11.32C5.47 11.3 5.47 11.29 5.46 11.27C5.38 11.1 5.31 10.93 5.31 10.93C5.26 10.81 5.14 10.73 5.01 10.73ZM10.24 12.59C10.16 12.59 10.09 12.6 10.01 12.62C9.43 12.77 9.05 13.3 8.7 13.86C8.64 13.96 8.63 14.08 8.68 14.18C8.73 14.28 8.84 14.35 8.95 14.35C9.06 14.36 9.17 14.3 9.23 14.2C9.57 13.68 9.91 13.3 10.18 13.23C10.31 13.2 10.43 13.21 10.62 13.32C10.81 13.43 11.05 13.65 11.32 14.03C11.39 14.12 11.5 14.17 11.61 14.16C11.72 14.15 11.82 14.08 11.87 13.98C11.91 13.88 11.9 13.76 11.84 13.66C11.53 13.24 11.24 12.95 10.94 12.77C10.71 12.64 10.47 12.58 10.24 12.59Z"/>
</svg>