<svg xmlns="http://www.w3.org/2000/svg" viewBox="0 0 15 15">
  <path fill="param(fill) #888" stroke="param(outline) #000" stroke-width="param(outline-width) 0" fill-opacity="param(fill-opacity) 1" stroke-opacity="param(outline-opacity) 1" d="M7.45 0.05C6.3 0.06 5.25 0.66 4.56 1.7C3.95 2.62 3.91 2.83 4.06 4.28C4.17 5.31 4.36 5.92 4.59 6C4.8 6.08 4.94 6.48 4.94 6.99C4.94 7.61 5.14 8.04 5.69 8.59C6.31 9.2 6.65 9.35 7.51 9.35C8.42 9.35 8.68 9.22 9.34 8.48C9.81 7.94 10.1 7.34 10.1 6.91C10.1 6.53 10.25 6.08 10.44 5.93C10.63 5.77 10.86 5.05 10.95 4.32C11.08 3.24 11.02 2.81 10.6 2C10 0.81 9.23 0.25 7.95 0.08C7.78 0.06 7.62 0.05 7.45 0.05ZM5.84 3.44C6.06 3.43 6.32 3.51 6.56 3.69C7.02 4.02 7.04 4.16 6.7 4.56C6.04 5.36 5.2 5.12 5.2 4.13C5.2 3.7 5.47 3.45 5.84 3.44ZM9.3 3.48C9.77 3.47 10.07 3.87 9.88 4.45C9.66 5.15 9.14 5.27 8.6 4.73C8.11 4.24 8.15 3.97 8.78 3.63C8.96 3.53 9.14 3.48 9.3 3.48ZM7.47 5.02C7.6 4.94 7.93 5.62 7.79 5.74C7.69 5.83 7.61 5.71 7.48 5.71C7.34 5.71 7.29 5.85 7.16 5.73C7.02 5.59 7.33 5.11 7.47 5.02ZM2.29 6.21C2.09 6.21 2.58 7.83 2.68 8C3.35 9.18 4.69 10.33 6.38 11.35C5.54 11.75 4.67 12.11 3.8 12.43C3.65 12.13 3.58 12.19 3.27 12.01C2.93 11.82 2.47 11.75 2 11.86C1.58 11.97 1.78 12.48 2.19 12.38C2.5 12.3 2.7 12.34 2.9 12.45C3.09 12.56 3.27 12.76 3.39 13.02C3.55 13.37 3.86 13.88 4.16 14.06C4.46 14.25 4.82 14.26 5.18 14.19C5.61 14.11 5.38 13.47 4.95 13.56C4.66 13.5 4.59 13.53 4.38 13.37C5.48 12.97 6.52 12.5 7.5 11.98C8.47 12.5 9.52 12.97 10.62 13.37C10.41 13.53 10.34 13.5 10.05 13.56C9.62 13.47 9.39 14.11 9.82 14.19C10.18 14.26 10.54 14.25 10.84 14.06C11.14 13.88 11.45 13.37 11.61 13.02C11.73 12.76 11.91 12.56 12.1 12.45C12.3 12.34 12.5 12.3 12.81 12.38C13.22 12.48 13.42 11.97 13 11.86C12.53 11.75 12.07 11.82 11.73 12.01C11.42 12.19 11.35 12.13 11.2 12.43C10.33 12.11 9.45 11.75 8.62 11.36C10.31 10.34 11.65 9.18 12.32 8C12.42 7.83 12.91 6.21 12.71 6.21C12.51 6.21 11.94 7.22 11.89 7.31C11.22 8.48 9.54 9.72 7.5 10.8C5.46 9.72 3.78 8.48 3.11 7.31C3.06 7.22 2.49 6.21 2.29 6.21ZM5.57 6.75C5.62 6.75 5.67 6.77 5.7 6.81L6.13 7.32L6.5 6.95C6.53 6.92 6.56 6.91 6.6 6.9C7.19 6.84 7.7 6.79 8.4 6.94C8.43 6.95 8.46 6.96 8.49 6.99L8.74 7.26L9.15 6.81C9.29 6.65 9.53 6.87 9.39 7.03L8.86 7.61C8.8 7.68 8.69 7.68 8.62 7.61L8.29 7.26C7.68 7.13 7.23 7.17 6.68 7.23L6.24 7.67C6.17 7.74 6.06 7.73 6 7.66L5.45 7.02C5.36 6.92 5.42 6.76 5.55 6.75C5.56 6.75 5.56 6.75 5.57 6.75ZM4.5 9.45C4.54 9.45 5.11 9.87 5.14 9.89C5.63 10.3 6.63 10.82 7.5 11.24C8.37 10.82 9.37 10.3 9.86 9.89C9.89 9.87 10.46 9.45 10.5 9.45C9.81 10.22 8.8 10.85 7.81 11.36C8.39 11.59 9.13 11.81 9.45 12.4C10.16 12.28 10.22 12.29 10.76 12.76C10.92 12.88 10.69 13.08 10.53 12.96L10.03 12.58C9.33 12.69 9.25 12.75 8.92 12.19C8.49 12 8 11.77 7.5 11.52C7 11.77 6.51 12 6.08 12.19C5.75 12.75 5.68 12.69 4.97 12.58L4.47 12.96C4.31 13.08 4.08 12.88 4.24 12.76C4.78 12.29 4.84 12.28 5.55 12.4C5.87 11.81 6.61 11.59 7.19 11.36C6.2 10.85 5.19 10.22 4.5 9.45ZM2.83 12.92C2.76 12.92 2.69 12.94 2.63 12.98C2.51 13.06 2.29 13.33 1.92 13.45C1.56 13.56 1.24 13.71 1.24 13.71C0.79 13.8 1.14 14.39 1.58 14.26C1.58 14.26 2.04 14.3 2.43 14.18C2.81 14.06 3.02 13.99 3.3 13.8C3.55 13.63 3.15 12.9 2.83 12.92ZM12.17 12.92C11.85 12.9 11.45 13.63 11.7 13.8C11.98 13.99 12.19 14.06 12.57 14.18C12.96 14.3 13.42 14.26 13.42 14.26C13.86 14.39 14.21 13.8 13.76 13.71C13.76 13.71 13.44 13.56 13.08 13.45C12.71 13.33 12.49 13.06 12.37 12.98C12.31 12.94 12.24 12.92 12.17 12.92ZM0.7 13.2C0.62 13.2 0.53 13.23 0.47 13.28C0.47 13.28 0.29 13.41 0.17 13.63C0.05 13.85 -0.01 14.19 0.24 14.5C0.74 15.1 1.68 14.99 1.68 14.99C2.11 14.95 2.04 14.42 1.61 14.46C1.61 14.46 1.03 14.49 0.78 14.19C0.67 14.06 0.7 13.97 0.76 13.86C0.83 13.75 0.92 13.67 0.92 13.67C1.14 13.5 1 13.2 0.7 13.2ZM14.3 13.2C14 13.2 13.86 13.5 14.08 13.67C14.08 13.67 14.17 13.75 14.24 13.86C14.3 13.97 14.33 14.06 14.22 14.19C13.97 14.49 13.39 14.46 13.39 14.46C12.96 14.42 12.89 14.95 13.32 14.99C13.32 14.99 14.26 15.1 14.76 14.5C15.01 14.19 14.95 13.85 14.83 13.63C14.71 13.41 14.53 13.28 14.53 13.28C14.47 13.23 14.38 13.2 14.3 13.2Z"/>
</svg>