<svg xmlns="http://www.w3.org/2000/svg" viewBox="0 0 15 15">
  <path fill="param(fill) #888" stroke="param(outline) #000" stroke-width="param(outline-width) 0" fill-opacity="param(fill-opacity) 1" stroke-opacity="param(outline-opacity) 1" d="M8.65 0.34C10.06 0.65 10.8 1.71 11.31 2.76L11.39 2.94C11.87 3.97 12.22 4.98 12.76 5.47L12.89 5.58C13.36 5.91 13.6 6.45 13.69 7.03C13.78 7.61 13.73 8.26 13.62 8.91C13.46 9.86 13.14 10.62 12.87 11.36C12.97 11.31 13.09 11.17 13.19 11.14C13.53 11.04 13.88 11.12 14.1 11.32C14.35 11.54 14.5 11.83 14.64 12.13L14.79 12.5C14.84 12.62 14.9 12.86 14.96 12.98C15.02 13.08 15.01 13.21 14.95 13.31C14.93 13.34 14.9 13.37 14.87 13.4C14.86 13.51 14.8 13.63 14.69 13.69C13.92 14.13 13.16 13.59 11.5 13.75C9.84 13.91 9.09 14.74 7.91 14.75L7.5 14.75C5.85 14.75 5.34 14.22 4 14C2.66 13.78 0.96 13.9 0.28 13.42C0.19 13.35 0.14 13.26 0.13 13.15L0.1 13.13C0.01 13.05 -0.02 12.8 0.01 12.69C0.16 12.11 0.29 11.72 0.45 11.44C0.6 11.16 0.81 10.95 1.08 10.93C1.32 10.9 1.48 11.03 1.62 11.15L1.69 10.36C1.78 9.53 1.89 8.86 2.03 8.48C2.26 7.88 2.47 7.57 2.65 6.79C2.17 5.78 2.07 4.81 2.29 3.96C2.52 3.07 3.08 2.32 3.77 1.73C4.82 0.86 6.19 0.33 7.45 0.26C7.86 0.23 8.27 0.26 8.65 0.34ZM5.01 10.33C4.97 10.33 4.93 10.34 4.89 10.36L3.69 10.87C3.59 10.91 3.52 11.01 3.5 11.12C3.49 11.24 3.54 11.35 3.63 11.41C3.72 11.48 3.84 11.5 3.94 11.45L4.85 11.06C4.87 11.1 4.87 11.1 4.88 11.14L4.95 11.28L5.02 11.42C5.05 11.46 5.07 11.5 5.11 11.54C5.13 11.56 5.15 11.59 5.18 11.61L5.22 11.64C5.25 11.66 5.31 11.69 5.39 11.69C5.47 11.69 5.51 11.68 5.53 11.66L5.61 11.62L5.71 11.55L5.99 11.32L6.2 11.17C6.29 11.11 6.37 11.06 6.44 11.04L6.46 11.02L6.47 11.06C6.47 11.1 6.46 11.14 6.46 11.2C6.45 11.29 6.43 11.38 6.42 11.49C6.42 11.54 6.41 11.6 6.46 11.71C6.48 11.76 6.53 11.83 6.61 11.87C6.68 11.92 6.77 11.93 6.83 11.92C6.92 11.91 6.96 11.89 7.01 11.86L7.2 11.78C7.33 11.72 7.48 11.64 7.63 11.56L7.72 11.51L7.96 11.37L8.19 11.65C8.27 11.74 8.4 11.78 8.52 11.74L9.74 11.4C9.85 11.36 9.93 11.28 9.96 11.17C9.98 11.06 9.95 10.94 9.87 10.86C9.79 10.78 9.67 10.75 9.56 10.79L8.54 11.08L8.27 10.77C8.17 10.65 8.01 10.62 7.87 10.7L7.33 11L7.09 11.13C7.09 11.05 7.1 10.97 7.09 10.88C7.06 10.73 6.97 10.53 6.78 10.44C6.56 10.32 6.35 10.38 6.19 10.45C6.03 10.52 5.88 10.62 5.74 10.72C5.7 10.74 5.67 10.77 5.64 10.79L5.48 10.92L5.46 10.88C5.38 10.71 5.31 10.53 5.31 10.53L5.27 10.46C5.21 10.38 5.12 10.33 5.01 10.33ZM6.08 7.21L6.01 7.21C5.28 7.37 5.08 8.99 5.33 9.2C5.57 9.41 5.64 8.53 6.64 9.41L6.72 9.48C7.58 10.11 6.73 7.06 6.01 7.21ZM8.86 4.16C8.76 4.16 8.68 4.17 8.59 4.2C8.25 4.29 8.04 4.57 7.92 4.83C7.87 4.96 7.82 5.1 7.79 5.23L7.68 5.6C7.61 5.83 7.53 5.99 7.45 6.06L7.4 6.11C7.37 6.16 7.34 6.22 7.34 6.29C7.34 6.37 7.37 6.46 7.43 6.52C7.89 7 8.37 7.23 8.81 7.22C9.25 7.21 9.62 6.96 9.86 6.64C10.09 6.32 10.23 5.93 10.25 5.55C10.28 5.16 10.2 4.77 9.92 4.49C9.89 4.46 9.86 4.44 9.83 4.43C9.45 4.25 9.14 4.15 8.86 4.16ZM4.22 4.02C4.1 4.01 3.97 4.03 3.85 4.06C3.8 4.07 3.75 4.1 3.71 4.14C3.19 4.64 3.22 5.46 3.58 6.03C3.76 6.32 4.04 6.56 4.41 6.65C4.77 6.74 5.2 6.67 5.62 6.41C5.74 6.34 5.8 6.2 5.77 6.07C5.63 5.41 5.44 4.87 5.13 4.5C4.9 4.21 4.57 4.04 4.22 4.02Z"/>
</svg>