<svg xmlns="http://www.w3.org/2000/svg" viewBox="0 0 15 15">
  <path fill="param(fill) #888" stroke="param(outline) #000" stroke-width="param(outline-width) 0" fill-opacity="param(fill-opacity) 1" stroke-opacity="param(outline-opacity) 1" d="M7.5 0C8.9 0 10.12 0.05 11.18 0.15L11.57 0.18C13.52 0.39 15 2.04 15 4L15 4.8C15 6.07 14.3 7.24 13.18 7.83L13 7.92L13 14.01C13 14.56 12.56 15 12.01 15.01L3.01 15.07C2.45 15.07 2 14.63 2 14.08L2 8C0.77 7.39 0 6.13 0 4.76L0 4C0 2.04 1.48 0.39 3.43 0.18C4.57 0.06 5.93 0 7.5 0ZM7.5 1.5C5.98 1.5 4.67 1.56 3.59 1.68C2.4 1.8 1.5 2.81 1.5 4L1.5 4.76C1.5 5.57 1.95 6.3 2.67 6.66L3.5 7.07L3.5 13.57L11.5 13.51L11.5 6.96L12.37 6.56C13.06 6.24 13.5 5.56 13.5 4.8L13.5 4C13.5 2.81 12.6 1.8 11.41 1.68C10.33 1.56 9.02 1.5 7.5 1.5Z"/>
</svg>