<svg xmlns="http://www.w3.org/2000/svg" viewBox="0 0 15 15">
  <path fill="param(fill) #888" stroke="param(outline) #000" stroke-width="param(outline-width) 0" fill-opacity="param(fill-opacity) 1" stroke-opacity="param(outline-opacity) 1" d="M3.43 0.18C4.57 0.06 5.93 0 7.5 0C9.07 0 10.43 0.06 11.57 0.18L11.57 0.18C13.52 0.39 15 2.04 15 4L15 4.8C15 6.14 14.22 7.36 13 7.92L13 7.92L13 7.92L13 14.01C13 14.56 12.56 15 12.01 15.01L3.01 15.07C2.45 15.07 2 14.63 2 14.08C2 14.07 2 14.07 2 14.07L2 8L2 8C0.77 7.39 0 6.13 0 4.76L0 4C0 2.04 1.48 0.39 3.43 0.18Z"/>
</svg>