<svg xmlns="http://www.w3.org/2000/svg" viewBox="0 0 15 15">
  <path fill="param(fill) #888" stroke="param(outline) #000" stroke-width="param(outline-width) 0" fill-opacity="param(fill-opacity) 1" stroke-opacity="param(outline-opacity) 1" d="M1 10.5C0.45 10.5 0 10.05 0 9.5L0 5.5C0 4.95 0.45 4.5 1 4.5L14 4.5C14.55 4.5 15 4.95 15 5.5L15 9.5C15 10.05 14.55 10.5 14 10.5L1 10.5ZM12.5 6.5L2.5 6.5C2.22 6.5 2 6.72 2 7L2 8C2 8.28 2.22 8.5 2.5 8.5L12.5 8.5C12.78 8.5 13 8.28 13 8L13 7C13 6.72 12.78 6.5 12.5 6.5Z"/>
</svg>