<svg xmlns="http://www.w3.org/2000/svg" viewBox="0 0 15 15">
  <path fill="param(fill) #888" stroke="param(outline) #000" stroke-width="param(outline-width) 0" fill-opacity="param(fill-opacity) 1" stroke-opacity="param(outline-opacity) 1" d="M6.19 5.81C6.19 6.43 5.68 6.94 5.06 6.94C4.44 6.94 3.94 6.43 3.94 5.81C3.94 5.19 4.44 4.69 5.06 4.69C5.68 4.69 6.19 5.19 6.19 5.81ZM9.88 8.83C10.11 8.49 10.57 8.4 10.92 8.63C11.26 8.86 11.35 9.32 11.12 9.67C10.19 11.07 8.55 11.5 7.5 11.5C6.45 11.5 4.81 11.07 3.88 9.67C3.65 9.32 3.74 8.86 4.08 8.63C4.43 8.4 4.89 8.49 5.12 8.83C5.69 9.68 6.75 10 7.5 10C8.25 10 9.31 9.68 9.88 8.83ZM9.94 4.69C10.56 4.69 11.06 5.19 11.06 5.81C11.06 6.43 10.56 6.94 9.94 6.94C9.32 6.94 8.81 6.43 8.81 5.81C8.81 5.19 9.32 4.69 9.94 4.69ZM0 7.5C0 3.36 3.36 0 7.5 0C11.64 0 15 3.36 15 7.5C15 11.64 11.64 15 7.5 15C3.36 15 0 11.64 0 7.5ZM7.5 1.5C4.19 1.5 1.5 4.19 1.5 7.5C1.5 10.81 4.19 13.5 7.5 13.5C10.81 13.5 13.5 10.81 13.5 7.5C13.5 4.19 10.81 1.5 7.5 1.5Z"/>
</svg>