<svg xmlns="http://www.w3.org/2000/svg" viewBox="0 0 15 15">
  <path fill="param(fill) #888" stroke="param(outline) #000" stroke-width="param(outline-width) 0" fill-opacity="param(fill-opacity) 1" stroke-opacity="param(outline-opacity) 1" d="M6.23 3.38C6.64 3.38 6.98 3.71 6.98 4.13L6.98 5.25L8.03 5.25L8.03 4.13C8.03 3.71 8.36 3.38 8.78 3.38L14.25 3.38C14.66 3.38 15 3.71 15 4.13L15 7.88C15 8.29 14.66 8.63 14.25 8.63L8.78 8.63C8.36 8.63 8.03 8.29 8.03 7.88L8.03 6.75L6.98 6.75L6.98 7.88C6.98 8.29 6.64 8.63 6.23 8.63L0.75 8.63C0.34 8.63 0 8.29 0 7.88L0 4.13C0 3.71 0.34 3.38 0.75 3.38L6.23 3.38ZM5.48 4.88L1.5 4.88L1.5 7.13L5.48 7.13L5.48 4.88ZM13.5 4.88L9.53 4.88L9.53 7.13L13.5 7.13L13.5 4.88ZM3.94 5.25C4.35 5.25 4.69 5.59 4.69 6C4.69 6.41 4.35 6.75 3.94 6.75C3.52 6.75 3.19 6.41 3.19 6C3.19 5.59 3.52 5.25 3.94 5.25ZM11.44 5.25C11.85 5.25 12.19 5.59 12.19 6C12.19 6.41 11.85 6.75 11.44 6.75C11.02 6.75 10.69 6.41 10.69 6C10.69 5.59 11.02 5.25 11.44 5.25ZM4.51 10.51C4.86 10.16 5.43 10.16 5.78 10.51C5.92 10.66 6.18 10.8 6.52 10.9C6.86 11 7.22 11.04 7.5 11.04C7.78 11.04 8.14 11 8.48 10.9C8.82 10.8 9.08 10.66 9.22 10.51C9.57 10.16 10.14 10.16 10.49 10.51C10.84 10.86 10.84 11.42 10.49 11.77C10.05 12.22 9.48 12.47 8.97 12.62C8.45 12.77 7.93 12.82 7.5 12.82C7.07 12.82 6.55 12.77 6.03 12.62C5.52 12.47 4.95 12.22 4.51 11.77C4.16 11.42 4.16 10.86 4.51 10.51Z"/>
</svg>