<svg xmlns="http://www.w3.org/2000/svg" viewBox="0 0 15 15">
  <path fill="param(fill) #888" stroke="param(outline) #000" stroke-width="param(outline-width) 0" fill-opacity="param(fill-opacity) 1" stroke-opacity="param(outline-opacity) 1" d="M6.23 3.38C6.64 3.38 6.98 3.71 6.98 4.13L6.98 5.25L8.03 5.25L8.03 4.13C8.03 3.71 8.36 3.38 8.78 3.38L14.25 3.38C14.66 3.38 15 3.71 15 4.13L15 7.88C15 8.29 14.66 8.63 14.25 8.63L8.78 8.63C8.36 8.63 8.03 8.29 8.03 7.88L8.03 6.75L6.98 6.75L6.98 7.88C6.98 8.29 6.64 8.63 6.23 8.63L0.75 8.63C0.34 8.63 0 8.29 0 7.88L0 4.13C0 3.71 0.34 3.38 0.75 3.38L6.23 3.38ZM5.48 4.88L1.5 4.88L1.5 7.13L5.48 7.13L5.48 4.88ZM13.5 4.88L9.53 4.88L9.53 7.13L13.5 7.13L13.5 4.88ZM3.94 5.25C4.35 5.25 4.69 5.59 4.69 6C4.69 6.41 4.35 6.75 3.94 6.75C3.52 6.75 3.19 6.41 3.19 6C3.19 5.59 3.52 5.25 3.94 5.25ZM11.44 5.25C11.85 5.25 12.19 5.59 12.19 6C12.19 6.41 11.85 6.75 11.44 6.75C11.02 6.75 10.69 6.41 10.69 6C10.69 5.59 11.02 5.25 11.44 5.25ZM4 2.63C4.99 1.92 6.19 1.5 7.5 1.5C8.81 1.5 10.01 1.92 11 2.63L13.2 2.63C11.82 1.02 9.78 0 7.5 0C5.22 0 3.18 1.02 1.8 2.63L4 2.63ZM1.8 9.38C2.59 11.77 4.84 13.5 7.5 13.5C10.16 13.5 12.41 11.77 13.2 9.38L14.76 9.38C13.93 12.61 10.99 15 7.5 15C4.01 15 1.07 12.61 0.24 9.38ZM10.01 9.8C10.3 10.09 10.3 10.57 10.01 10.86C9.64 11.23 9.16 11.45 8.74 11.57C8.3 11.7 7.86 11.75 7.5 11.75C7.14 11.75 6.7 11.7 6.26 11.57C5.84 11.45 5.36 11.23 4.99 10.86C4.7 10.57 4.7 10.09 4.99 9.8C5.28 9.51 5.76 9.51 6.05 9.8C6.18 9.93 6.39 10.05 6.68 10.13C6.96 10.21 7.27 10.25 7.5 10.25C7.73 10.25 8.04 10.21 8.32 10.13C8.61 10.05 8.82 9.93 8.95 9.8C9.24 9.51 9.72 9.51 10.01 9.8Z"/>
</svg>