<svg xmlns="http://www.w3.org/2000/svg" viewBox="0 0 15 15">
  <path fill="param(fill) #888" stroke="param(outline) #000" stroke-width="param(outline-width) 0" fill-opacity="param(fill-opacity) 1" stroke-opacity="param(outline-opacity) 1" d="M8.03 6.75L8.03 7.88C8.03 8.29 8.36 8.63 8.78 8.63L14.25 8.63C14.61 8.63 14.9 8.38 14.98 8.04C14.7 11.93 11.46 15 7.5 15C3.54 15 0.3 11.93 0.02 8.04C0.1 8.38 0.39 8.63 0.75 8.63L6.23 8.63C6.64 8.63 6.98 8.29 6.98 7.88L6.98 6.75L8.03 6.75ZM8.95 9.8C8.82 9.93 8.61 10.05 8.32 10.13C8.04 10.21 7.73 10.25 7.5 10.25C7.27 10.25 6.96 10.21 6.68 10.13C6.39 10.05 6.18 9.93 6.05 9.8C5.76 9.51 5.28 9.51 4.99 9.8C4.7 10.09 4.7 10.57 4.99 10.86C5.36 11.23 5.84 11.45 6.26 11.57C6.7 11.7 7.14 11.75 7.5 11.75C7.86 11.75 8.3 11.7 8.74 11.57C9.16 11.45 9.64 11.23 10.01 10.86C10.3 10.57 10.3 10.09 10.01 9.8C9.72 9.51 9.24 9.51 8.95 9.8ZM5.48 4.88L5.48 7.13L1.5 7.13L1.5 4.88L5.48 4.88ZM13.5 4.88L13.5 7.13L9.53 7.13L9.53 4.88L13.5 4.88ZM3.94 5.25C3.52 5.25 3.19 5.59 3.19 6C3.19 6.41 3.52 6.75 3.94 6.75C4.35 6.75 4.69 6.41 4.69 6C4.69 5.59 4.35 5.25 3.94 5.25ZM11.44 5.25C11.02 5.25 10.69 5.59 10.69 6C10.69 6.41 11.02 6.75 11.44 6.75C11.85 6.75 12.19 6.41 12.19 6C12.19 5.59 11.85 5.25 11.44 5.25ZM7.5 0C10.12 0 12.42 1.34 13.76 3.37L8.78 3.38C8.36 3.38 8.03 3.71 8.03 4.13L8.03 5.25L6.98 5.25L6.98 4.13C6.98 3.71 6.64 3.38 6.23 3.38L1.24 3.37C2.58 1.34 4.88 0 7.5 0Z"/>
</svg>