<svg xmlns="http://www.w3.org/2000/svg" viewBox="0 0 15 15">
  <path fill="param(fill) #888" stroke="param(outline) #000" stroke-width="param(outline-width) 0" fill-opacity="param(fill-opacity) 1" stroke-opacity="param(outline-opacity) 1" d="M5.75 5.25C5.75 6.08 5.08 6.75 4.25 6.75C3.42 6.75 2.75 6.08 2.75 5.25C2.75 4.42 3.42 3.75 4.25 3.75C5.08 3.75 5.75 4.42 5.75 5.25ZM10.67 9.28C10.97 8.82 11.6 8.69 12.05 9C12.51 9.31 12.64 9.93 12.33 10.39C11.08 12.26 8.9 12.83 7.5 12.83C6.1 12.83 3.92 12.26 2.67 10.39C2.36 9.93 2.49 9.31 2.95 9C3.4 8.69 4.03 8.82 4.33 9.28C5.08 10.4 6.5 10.83 7.5 10.83C8.5 10.83 9.92 10.4 10.67 9.28ZM10.75 3.75C11.58 3.75 12.25 4.42 12.25 5.25C12.25 6.08 11.58 6.75 10.75 6.75C9.92 6.75 9.25 6.08 9.25 5.25C9.25 4.42 9.92 3.75 10.75 3.75Z"/>
</svg>