<?xml version="1.0" encoding="UTF-8"?>
<svg viewBox="0 0 15 15" version="1.1" xmlns="http://www.w3.org/2000/svg" xmlns:xlink="http://www.w3.org/1999/xlink">
  <path fill="param(fill) #888" stroke="param(outline) #000" stroke-width="param(outline-width) 0" fill-opacity="param(fill-opacity) 1" stroke-opacity="param(outline-opacity) 1" d="M14.21 0L14.21 11.06C14.21 12.39 12.63 14.21 11.3 14.21L7.89 14.21C7.89 14.61 7.5 15 7.1 15L5.53 15C5.13 15 4.74 14.61 4.74 14.21L4.74 13.42C4.74 13.03 5.13 12.64 5.53 12.64L11.3 12.64C11.84 12.64 12.63 11.77 12.63 11.06L12.63 0L14.21 0ZM8.76 3.16C10.18 3.71 11.3 4.82 11.84 6.24L11.84 9.47L10.26 11.06L2.37 11.06L0.79 9.47L0.79 6.24C1.33 4.82 2.45 3.71 3.87 3.16ZM8.84 4.74L3.87 4.74C3.15 4.98 2.61 5.53 2.37 6.24L2.37 9.95L3.87 9.95C3.87 9.95 5.13 7.51 6.32 7.51C7.4 7.51 8.56 9.57 8.74 9.91L8.76 9.95L10.26 9.95L10.26 6.24C10.02 5.53 9.48 4.98 8.84 4.74Z"/>
</svg>