<?xml version="1.0" encoding="UTF-8"?>
<svg viewBox="0 0 15 15" version="1.1" xmlns="http://www.w3.org/2000/svg" xmlns:xlink="http://www.w3.org/1999/xlink">
  <path fill="param(fill) #888" stroke="param(outline) #000" stroke-width="param(outline-width) 0" fill-opacity="param(fill-opacity) 1" stroke-opacity="param(outline-opacity) 1" d="M0.02 10C0.02 10.55 0.46 11 1.02 11L5.61 11C5.87 11 6.13 10.9 6.32 10.71L7.87 9.15C7.96 9.05 8.09 9 8.23 9L11.69 9C11.9 9 12.11 8.93 12.29 8.8L13.63 7.79C13.87 7.6 14.01 7.31 14.02 7C14.01 6.66 13.84 6.34 13.55 6.16L10.02 4L8.98 2.31C8.88 2.09 8.65 1.97 8.42 2.02C8.19 2.06 8.02 2.26 8.02 2.5L8.02 6L7.02 7L6.02 7L0.61 6.01C0.37 5.96 0.12 6.09 0.03 6.32C-0.06 6.55 0.03 6.81 0.25 6.93L2.02 8L0.39 9.22C0.18 9.38 0.06 9.62 0.02 9.87L0.02 10ZM9.52 10L11.79 10C12.29 10 12.79 9.87 13.23 9.63L14.28 9.06C14.43 8.97 14.62 8.98 14.78 9.07C14.93 9.17 15.02 9.33 15.02 9.51C15.01 9.69 14.91 9.85 14.76 9.94L13.49 10.63C13.05 10.87 12.55 11 12.05 11L9.52 11C9.24 11 9.02 10.78 9.02 10.5C9.02 10.22 9.24 10 9.52 10Z"/>
</svg>