<svg xmlns="http://www.w3.org/2000/svg" viewBox="0 0 15 15">
  <path fill="param(fill) #888" stroke="param(outline) #000" stroke-width="param(outline-width) 0" fill-opacity="param(fill-opacity) 1" stroke-opacity="param(outline-opacity) 1" d="M11.25 1.01C14.84 3.08 16.06 7.66 13.99 11.25C13.69 11.78 13.33 12.25 12.93 12.68C13.61 12.91 14 13.2 14 13.5C14 14.33 11.09 15 7.5 15C3.91 15 1 14.33 1 13.5C1 13.2 1.39 12.91 2.07 12.67C-0.17 10.33 -0.7 6.7 1.01 3.75C3.08 0.16 7.66 -1.06 11.25 1.01ZM10.5 2.3C7.63 0.65 3.96 1.63 2.3 4.5C1.08 6.62 1.3 9.19 2.66 11.05C2.59 10.47 2.55 10.12 2.55 9.98C2.55 8.91 2.8 7.89 3.26 6.58C3.06 6.44 2.9 6.29 2.79 6.16L3.61 5.42C3.69 5.51 3.85 5.66 4.07 5.76C4.28 5.86 4.5 5.9 4.72 5.84C4.94 5.78 5.11 5.64 5.25 5.44C5.38 5.24 5.46 5.02 5.48 4.9L6.55 5.12C6.5 5.38 6.38 5.74 6.14 6.08C5.91 6.43 5.54 6.78 5.01 6.93C4.75 7 4.51 7.01 4.28 6.98C3.85 8.24 3.65 9.1 3.65 9.98C3.65 10.63 3.73 11.45 3.96 12.34C4.13 12.47 4.31 12.59 4.5 12.7C6.62 13.92 9.18 13.7 11.04 12.34L11 12.5C11.26 11.55 11.35 10.67 11.35 9.98C11.35 9.1 11.15 8.24 10.72 6.98C10.49 7.01 10.25 7 9.99 6.93C9.46 6.78 9.09 6.43 8.86 6.08C8.62 5.74 8.5 5.38 8.45 5.12L9.52 4.9C9.54 5.02 9.62 5.24 9.75 5.44C9.89 5.64 10.06 5.78 10.28 5.84C10.5 5.9 10.72 5.86 10.93 5.76C11.15 5.66 11.31 5.51 11.39 5.42L12.21 6.16C12.1 6.29 11.94 6.44 11.74 6.58C12.2 7.89 12.45 8.91 12.45 9.98C12.45 10.09 12.42 10.36 12.37 10.78L12.34 11.04C12.47 10.87 12.59 10.69 12.7 10.5C14.35 7.63 13.37 3.96 10.5 2.3ZM7.5 8.25C8.54 8.25 9.38 9.09 9.38 10.12C9.38 11.16 8.54 12 7.5 12C6.46 12 5.63 11.16 5.63 10.12C5.63 9.09 6.46 8.25 7.5 8.25Z"/>
</svg>