<svg xmlns="http://www.w3.org/2000/svg" viewBox="0 0 15 15">
  <path fill="param(fill) #888" stroke="param(outline) #000" stroke-width="param(outline-width) 0" fill-opacity="param(fill-opacity) 1" stroke-opacity="param(outline-opacity) 1" d="M4.81 4.04L6.24 4.33C6.17 4.67 6 5.16 5.69 5.61C5.38 6.07 4.89 6.55 4.17 6.74C3.84 6.83 3.51 6.85 3.21 6.81C2.63 8.49 2.36 9.64 2.36 10.81C2.36 11.73 2.49 12.9 2.83 14.17C2.75 14.75 2.46 15.02 2 14.75C1.54 14.48 1.45 14.17 1.17 13.17C0.93 12.31 0.9 11.45 0.9 11L0.9 10.81C0.9 9.38 1.24 8.03 1.85 6.28C1.58 6.09 1.36 5.88 1.21 5.71L2.31 4.73C2.41 4.84 2.64 5.05 2.93 5.18C3.21 5.32 3.51 5.37 3.8 5.29C4.09 5.21 4.32 5.01 4.5 4.75C4.68 4.48 4.78 4.19 4.81 4.04ZM10.19 4.04C10.22 4.19 10.32 4.48 10.5 4.75C10.68 5.01 10.91 5.21 11.2 5.29C11.49 5.37 11.79 5.32 12.07 5.18C12.36 5.05 12.59 4.84 12.69 4.73L13.79 5.71C13.64 5.88 13.42 6.09 13.15 6.28C13.76 8.03 14.1 9.38 14.1 10.81L14.1 11C14.1 11.45 14.07 12.31 13.83 13.17C13.55 14.17 13.46 14.48 13 14.75C12.54 15.02 12.25 14.75 12.17 14.17C12.51 12.9 12.64 11.73 12.64 10.81C12.64 9.64 12.37 8.49 11.79 6.81C11.49 6.85 11.16 6.83 10.83 6.74C10.11 6.55 9.62 6.07 9.31 5.61C9 5.16 8.83 4.67 8.76 4.33ZM7.5 8.5C8.88 8.5 10 9.62 10 11C10 12.38 8.88 13.5 7.5 13.5C6.12 13.5 5 12.38 5 11C5 9.62 6.12 8.5 7.5 8.5Z"/>
</svg>