<svg xmlns="http://www.w3.org/2000/svg" viewBox="0 0 15 15">
  <path fill="param(fill) #888" stroke="param(outline) #000" stroke-width="param(outline-width) 0" fill-opacity="param(fill-opacity) 1" stroke-opacity="param(outline-opacity) 1" d="M12.93 12.68C13.61 12.91 14 13.2 14 13.5C14 14.33 11.09 15 7.5 15C3.91 15 1 14.33 1 13.5C1 13.2 1.39 12.91 2.07 12.67C2.55 13.18 3.12 13.63 3.75 13.99C6.74 15.72 10.42 15.15 12.77 12.84ZM1.01 3.75C3.08 0.16 7.66 -1.06 11.25 1.01C14.84 3.08 16.06 7.66 13.99 11.25C13.43 12.22 12.69 13.01 11.84 13.62L12.25 11.75L12.37 10.78C12.42 10.36 12.45 10.09 12.45 9.98C12.45 8.91 12.2 7.89 11.74 6.58C11.94 6.44 12.1 6.29 12.21 6.16L11.39 5.42C11.31 5.51 11.15 5.66 10.93 5.76C10.72 5.86 10.5 5.9 10.28 5.84C10.06 5.78 9.89 5.64 9.75 5.44C9.62 5.24 9.54 5.02 9.52 4.9L8.45 5.12C8.5 5.38 8.62 5.74 8.86 6.08C9.09 6.43 9.46 6.78 9.99 6.93C10.25 7 10.49 7.01 10.72 6.98C11.15 8.24 11.35 9.1 11.35 9.98C11.35 10.67 11.26 11.55 11 12.5C10.83 13.13 10.58 13.88 10.25 14.75L10.37 14.43C8.58 15.17 6.51 15.21 4.63 14.43C4.36 13.69 4.15 13.05 4 12.5C3.74 11.55 3.65 10.67 3.65 9.98C3.65 9.1 3.85 8.24 4.28 6.98C4.51 7.01 4.75 7 5.01 6.93C5.54 6.78 5.91 6.43 6.14 6.08C6.38 5.74 6.5 5.38 6.55 5.12L5.48 4.9C5.46 5.02 5.38 5.24 5.25 5.44C5.11 5.64 4.94 5.78 4.72 5.84C4.5 5.9 4.28 5.86 4.07 5.76C3.85 5.66 3.69 5.51 3.61 5.42L2.79 6.16C2.9 6.29 3.06 6.44 3.26 6.58C2.8 7.89 2.55 8.91 2.55 9.98C2.55 10.16 2.62 10.75 2.75 11.75L3.17 13.62C0.04 11.41 -0.95 7.13 1.01 3.75ZM7.5 8.25C6.46 8.25 5.63 9.09 5.63 10.12C5.63 11.16 6.46 12 7.5 12C8.54 12 9.38 11.16 9.38 10.12C9.38 9.09 8.54 8.25 7.5 8.25Z"/>
</svg>