<svg xmlns="http://www.w3.org/2000/svg" viewBox="0 0 15 15">
  <path fill="param(fill) #888" stroke="param(outline) #000" stroke-width="param(outline-width) 0" fill-opacity="param(fill-opacity) 1" stroke-opacity="param(outline-opacity) 1" d="M14.12 5.27l0.18 -0.81c0.23 0.52 0.4 1.06 0.51 1.62l-0.69 -0.81m-13.28 0.2l-0.14 -1.01c-0.23 0.52 -0.4 1.06 -0.51 1.62l0.65 -0.61m10.47 7.65l-0.4 1l1.48 -1h-1.08m-7.64 0l0.39 0.98c-0.51 -0.26 -1 -0.59 -1.45 -0.98h1.06m-2.22 -7.25l2.61 1.01l1.01 3.22l-1.61 2.22h-1.64c-1.28 -1.51 -1.91 -3.47 -1.74 -5.44l1.37 -1.01m12.08 0l-2.62 1.01l-1.01 3.22l1.61 2.22h1.67c1.28 -1.51 1.91 -3.47 1.74 -5.44l-1.39 -1.01m-7.86 4.64l-1.41 2.21l0.61 1.75c1.69 0.64 3.54 0.64 5.23 0.01l0.61 -1.76l-1.61 -2.21h-3.43m1.82 -9.87l-0.81 -0.54c0.53 -0.06 1.08 -0.07 1.61 -0.01l-0.8 0.55m-0.41 3.22l-3.02 2.22l-2.41 -0.81l-0.54 -1.61c1.02 -1.68 2.65 -2.9 4.56 -3.38l1.41 1.16v2.42m0.81 0l3.02 2.22l2.41 -0.81l0.57 -1.61c-1.03 -1.69 -2.68 -2.91 -4.59 -3.39l-1.41 1.17v2.42m-0.4 0.81l-2.62 2l0.8 3.02h3.43l1 -3.02z"/>
</svg>