<svg xmlns="http://www.w3.org/2000/svg" viewBox="0 0 15 15">
  <path fill="param(fill) #888" stroke="param(outline) #000" stroke-width="param(outline-width) 0" fill-opacity="param(fill-opacity) 1" stroke-opacity="param(outline-opacity) 1" d="M7.5 15c4.14 0 7.5 -3.36 7.5 -7.5c0 -3.73 -2.99 -7.5 -7.5 -7.5c-3.8 0 -7.5 3.05 -7.5 7.5c0 4.14 3.36 7.5 7.5 7.5zm6.83 -6.8c-0.03 0.91 -0.33 1.75 -0.78 2.55l-2.84 0.41l-1.26 -1.65l0.84 -2.59l1.94 -0.64zm-6.51 -5.57l2.47 -1.4c0.82 0.42 1.6 0.93 2.3 1.67l-0.56 2.78l-2 0.66l-2.21 -1.6zm1.2 7.36l1.2 1.57l-1.07 2.53c-1.03 0.31 -2.13 0.32 -3.29 0l-1.07 -2.53l1.2 -1.57zm-4.25 -8.71l2.41 1.35v2.1l-2.21 1.6l-2 -0.66l-0.53 -2.71c0.61 -0.69 1.34 -1.29 2.33 -1.69zm-4.03 6.88l2.04 -1.88l1.94 0.64l0.84 2.59l-1.26 1.65l-2.76 -0.41c-0.43 -0.74 -0.7 -1.6 -0.79 -2.59z"/>
</svg>