<svg xmlns="http://www.w3.org/2000/svg" viewBox="0 0 15 15">
  <path fill="param(fill) #888" stroke="param(outline) #000" stroke-width="param(outline-width) 0" fill-opacity="param(fill-opacity) 1" stroke-opacity="param(outline-opacity) 1" d="M7.5 3C8.75 3 10 4 10 7.5C10 11 8.75 12 7.5 12C6.25 12 5 11 5 7.5C5 4 6.25 3 7.5 3ZM2.21 3C3.41 3 4.41 4.2 4.41 6L3.21 6C2.94 5.2 2.61 4.8 2.21 4.8C1.6 4.8 1.4 5.2 1.4 5.7C1.4 6.15 1.83 6.39 2.36 6.65L2.63 6.79C3.46 7.21 4.41 7.78 4.41 9.3C4.41 10.79 3.41 12 2.21 12C1 12 0 10.8 0 9L1.2 9C1.2 9.5 1.6 10.2 2.21 10.2C2.81 10.2 3.01 9.8 3.01 9.3C3.01 8.85 2.59 8.61 2.06 8.35L1.78 8.21C0.95 7.79 0 7.22 0 5.7C0 4.21 1 3 2.21 3ZM12.79 3C14 3 15 4.2 15 6L13.8 6C13.53 5.2 13.2 4.8 12.79 4.8C12.19 4.8 11.99 5.2 11.99 5.7C11.99 6.15 12.41 6.39 12.94 6.65L13.22 6.79C14.05 7.21 15 7.78 15 9.3C15 10.79 14 12 12.79 12C11.59 12 10.59 10.8 10.59 9L11.79 9C11.79 9.5 12.19 10.2 12.79 10.2C13.4 10.2 13.6 9.8 13.6 9.3C13.6 8.85 13.17 8.61 12.64 8.35L12.37 8.21C11.54 7.79 10.59 7.22 10.59 5.7C10.59 4.21 11.59 3 12.79 3ZM7.5 4.5C6.94 4.5 6.5 5.15 6.5 7.5C6.5 9.85 6.94 10.5 7.5 10.5C8.06 10.5 8.5 9.85 8.5 7.5C8.5 5.15 8.06 4.5 7.5 4.5Z"/>
</svg>