<svg xmlns="http://www.w3.org/2000/svg" viewBox="0 0 15 15">
  <path fill="param(fill) #888" stroke="param(outline) #000" stroke-width="param(outline-width) 0" fill-opacity="param(fill-opacity) 1" stroke-opacity="param(outline-opacity) 1" d="M7.5 3.5C8.75 3.5 10 4.39 10 7.5C10 10.61 8.75 11.5 7.5 11.5C6.25 11.5 5 10.61 5 7.5C5 4.39 6.25 3.5 7.5 3.5ZM2.21 3.5C3.41 3.5 4.41 4.57 4.41 6.17L3.21 6.17C2.94 5.46 2.61 5.1 2.21 5.1C1.6 5.1 1.4 5.46 1.4 5.9C1.4 6.97 4.41 6.7 4.41 9.1C4.41 10.43 3.41 11.5 2.21 11.5C1 11.5 0 10.43 0 8.83L1.2 8.83C1.2 9.28 1.6 9.9 2.21 9.9C2.81 9.9 3.01 9.54 3.01 9.1C3.01 8.03 0 8.3 0 5.9C0 4.57 1 3.5 2.21 3.5ZM12.79 3.5C14 3.5 15 4.57 15 6.17L13.8 6.17C13.53 5.46 13.2 5.1 12.79 5.1C12.19 5.1 11.99 5.46 11.99 5.9C11.99 6.97 15 6.7 15 9.1C15 10.43 14 11.5 12.79 11.5C11.59 11.5 10.59 10.43 10.59 8.83L11.79 8.83C11.79 9.28 12.19 9.9 12.79 9.9C13.4 9.9 13.6 9.54 13.6 9.1C13.6 8.03 10.59 8.3 10.59 5.9C10.59 4.57 11.59 3.5 12.79 3.5ZM7.5 5C6.89 5 6.5 5.51 6.5 7.5C6.5 9.49 6.89 10 7.5 10C8.11 10 8.5 9.49 8.5 7.5C8.5 5.51 8.11 5 7.5 5Z"/>
</svg>