<svg xmlns="http://www.w3.org/2000/svg" viewBox="0 0 15 15">
  <path fill="param(fill) #888" stroke="param(outline) #000" stroke-width="param(outline-width) 0" fill-opacity="param(fill-opacity) 1" stroke-opacity="param(outline-opacity) 1" d="M7 2L8 3.5L11.5 3.5L15 7L12.93 9.17L12.93 9.94L11.83 10.5L10.78 11.55L9.25 12.25L9.5 13L9 13L8.5 12.6L8.5 13.5L8 14L7 14L7 13L6.25 12L5.75 10L5 9.5L4 8L2.5 7L1.66 4.87L0.72 4.87L0 4.02L0.5 3L3 2L7 2ZM7.5 4.92L7.14 6.01L6 6.01L6.92 6.76L6.5 8L7.5 7.25L8.5 8L8.08 6.76L9 6.01L7.86 6.01L7.5 4.92Z"/>
</svg>