<svg xmlns="http://www.w3.org/2000/svg" viewBox="0 0 15 15">
  <path fill="param(fill) #888" stroke="param(outline) #000" stroke-width="param(outline-width) 0" fill-opacity="param(fill-opacity) 1" stroke-opacity="param(outline-opacity) 1" d="M15 9.93C15 10.9 14.28 11.7 13.35 11.83L13.33 14.34L10.42 11.84L6.88 11.84C5.84 11.84 5 11 5 9.96L5 9.75L7.92 9.75C9.76 9.75 11.25 8.26 11.25 6.43L11.25 4.75L13.13 4.75C14.16 4.75 15 5.59 15 6.63L15 9.93L15 9.93ZM10 2.88C10 1.84 9.16 1 8.13 1L1.88 1C0.84 1 0 1.84 0 2.88L0 6.65C0 7.61 0.74 8.4 1.67 8.5L1.68 11.01L4.21 8.5L8.13 8.5C9.16 8.5 10 7.66 10 6.62L10 2.88Z"/>
</svg>