<svg xmlns="http://www.w3.org/2000/svg" viewBox="0 0 15 15">
  <path fill="param(fill) #888" stroke="param(outline) #000" stroke-width="param(outline-width) 0" fill-opacity="param(fill-opacity) 1" stroke-opacity="param(outline-opacity) 1" d="M8.64 0C9.05 0 9.39 0.34 9.39 0.75C9.39 1.16 9.05 1.5 8.64 1.5L8.26 1.5L8.26 2.3C9.71 2.51 10.97 3.3 11.79 4.43L12.63 3.95L12.44 3.62C12.23 3.26 12.35 2.81 12.72 2.6C13.08 2.39 13.54 2.51 13.75 2.87L14.88 4.82C15.09 5.18 14.97 5.64 14.61 5.85C14.24 6.05 13.78 5.93 13.57 5.57L13.38 5.25L12.49 5.76C12.69 6.3 12.79 6.89 12.79 7.5C12.79 8.08 12.7 8.64 12.52 9.16L13.4 9.66L13.59 9.34C13.8 8.98 14.26 8.86 14.62 9.06C14.98 9.27 15.11 9.73 14.9 10.09L13.77 12.04C13.56 12.4 13.09 12.52 12.73 12.31C12.37 12.1 12.25 11.65 12.46 11.29L12.65 10.96L11.84 10.5C11.02 11.67 9.74 12.49 8.26 12.7L8.26 13.5L8.64 13.5C9.05 13.5 9.39 13.84 9.39 14.25C9.39 14.66 9.05 15 8.64 15L6.37 15C5.95 15 5.61 14.66 5.61 14.25C5.61 13.84 5.95 13.5 6.37 13.5L6.75 13.5L6.75 12.7C5.26 12.49 3.98 11.67 3.16 10.5L2.35 10.96L2.54 11.29C2.75 11.65 2.63 12.1 2.27 12.31C1.91 12.52 1.44 12.4 1.23 12.04L0.1 10.09C-0.11 9.73 0.02 9.27 0.38 9.06C0.74 8.86 1.2 8.98 1.41 9.34L1.6 9.66L2.48 9.16C2.31 8.64 2.21 8.08 2.21 7.5C2.21 6.89 2.32 6.3 2.51 5.76L1.62 5.25L1.43 5.57C1.22 5.93 0.76 6.05 0.39 5.85C0.03 5.64 -0.09 5.18 0.12 4.82L1.25 2.87C1.46 2.51 1.92 2.39 2.28 2.6C2.65 2.81 2.77 3.26 2.56 3.62L2.37 3.95L3.21 4.43C4.03 3.3 5.3 2.51 6.75 2.3L6.75 1.5L6.37 1.5C5.95 1.5 5.61 1.16 5.61 0.75C5.61 0.34 5.95 0 6.37 0L8.64 0ZM7.5 8.5C6.95 8.5 6.5 8.95 6.5 9.5C6.5 10.05 6.95 10.5 7.5 10.5C8.05 10.5 8.5 10.05 8.5 9.5C8.5 8.95 8.05 8.5 7.5 8.5ZM8.75 4L6.25 4L7 7.75L8 7.75L8.75 4Z"/>
</svg>