<svg xmlns="http://www.w3.org/2000/svg" viewBox="0 0 15 15">
  <path fill="param(fill) #888" stroke="param(outline) #000" stroke-width="param(outline-width) 0" fill-opacity="param(fill-opacity) 1" stroke-opacity="param(outline-opacity) 1" d="M4 0L6 0L7.5 2L9 0L11 0L8.5 3.25L11 6.5L9 6.5L7.5 4.5L6 6.5L4 6.5L6.5 3.25zM11.04 9.9L9.54 8L9.54 9.69C9.21 9.69 9 9.57 8.68 9.57L7.5 8L7.39 9.69C7.07 9.69 6.64 9.69 6.32 9.79L5.46 8.55L5.46 10.02C5.14 10.12 4.71 10.24 4.39 10.36L3.43 9.24L3.43 10.91C3.21 11.02 3 11.26 2.79 11.36C2.57 11.14 2.36 11.02 2.14 10.81C1.71 10.47 0.54 10.24 0 9.9L1.29 11.81L0 13.71C0.54 13.5 1.71 13.16 2.14 12.83C2.36 12.71 2.57 12.48 2.79 12.26C4.18 13.26 6.21 14.05 8.57 14.05C10.29 14.05 11.89 13.61 13.18 13.05L13.61 14.5L14.14 12.48C14.46 12.26 14.68 12.04 15 11.81C14.14 10.91 12.75 10.24 11.04 9.9ZM12 12L11 12L11 11L12 11L12 12Z"/>
</svg>