<svg xmlns="http://www.w3.org/2000/svg" viewBox="0 0 15 15">
  <path fill="param(fill) #888" stroke="param(outline) #000" stroke-width="param(outline-width) 0" fill-opacity="param(fill-opacity) 1" stroke-opacity="param(outline-opacity) 1" d="M12 1C12.67 2.33 13.42 3 14.25 3C14.51 3 14.76 2.94 15 2.81L15 4.36C14.76 4.45 14.51 4.5 14.25 4.5C13.42 4.5 12.67 4 12 3C11.33 4 10.58 4.5 9.75 4.5C8.92 4.5 8.17 4 7.5 3C6.83 4 6.08 4.5 5.25 4.5C4.42 4.5 3.67 4 3 3C2.33 4 1.58 4.5 0.75 4.5C0.49 4.5 0.24 4.45 0 4.36L0 2.81C0.24 2.94 0.49 3 0.75 3C1.58 3 2.33 2.33 3 1C3.67 2.33 4.42 3 5.25 3C6.08 3 6.83 2.33 7.5 1C8.17 2.33 8.92 3 9.75 3C10.58 3 11.33 2.33 12 1ZM11.04 7.9L9.54 6L9.54 7.69C9.21 7.69 9 7.57 8.68 7.57L7.5 6L7.39 7.69C7.07 7.69 6.64 7.69 6.32 7.79L5.46 6.55L5.46 8.02C5.14 8.12 4.71 8.24 4.39 8.36L3.43 7.24L3.43 8.91C3.21 9.02 3 9.26 2.79 9.36C2.57 9.14 2.36 9.02 2.14 8.81C1.71 8.47 0.54 8.24 0 7.9L1.29 9.81L0 11.71C0.54 11.5 1.71 11.16 2.14 10.83C2.36 10.71 2.57 10.48 2.79 10.26C4.18 11.26 6.21 12.05 8.57 12.05C10.29 12.05 11.89 11.61 13.18 11.05L13.61 12.5L14.14 10.48C14.46 10.26 14.68 10.04 15 9.81C14.14 8.91 12.75 8.24 11.04 7.9ZM12 10L11 10L11 9L12 9L12 10Z"/>
</svg>