<svg xmlns="http://www.w3.org/2000/svg" viewBox="0 0 15 15">
  <path fill="param(fill) #888" stroke="param(outline) #000" stroke-width="param(outline-width) 0" fill-opacity="param(fill-opacity) 1" stroke-opacity="param(outline-opacity) 1" d="M11.04 5.9L9.54 4L9.54 5.69C9.21 5.69 9 5.57 8.68 5.57L7.5 4L7.39 5.69C7.07 5.69 6.64 5.69 6.32 5.79L5.46 4.55L5.46 6.02C5.14 6.12 4.71 6.24 4.39 6.36L3.43 5.24L3.43 6.91C3.21 7.02 3 7.26 2.79 7.36C2.57 7.14 2.36 7.02 2.14 6.81C1.71 6.47 0.54 6.24 0 5.9L1.29 7.81L0 9.71C0.54 9.5 1.71 9.16 2.14 8.83C2.36 8.71 2.57 8.48 2.79 8.26C4.18 9.26 6.21 10.05 8.57 10.05C10.29 10.05 11.89 9.61 13.18 9.05L13.61 10.5L14.14 8.48C14.46 8.26 14.68 8.04 15 7.81C14.14 6.91 12.75 6.24 11.04 5.9ZM12 8L11 8L11 7L12 7L12 8Z"/>
</svg>