<svg xmlns="http://www.w3.org/2000/svg" viewBox="0 0 15 15">
  <path fill="param(fill) #888" stroke="param(outline) #000" stroke-width="param(outline-width) 0" fill-opacity="param(fill-opacity) 1" stroke-opacity="param(outline-opacity) 1" d="M11.04 8.9L9.54 7L9.54 8.69C9.21 8.69 9 8.57 8.68 8.57L7.5 7L7.39 8.69C7.07 8.69 6.64 8.69 6.32 8.79L5.46 7.55L5.46 9.02C5.14 9.12 4.71 9.24 4.39 9.36L3.43 8.24L3.43 9.91C3.21 10.02 3 10.26 2.79 10.36C2.57 10.14 2.36 10.02 2.14 9.81C1.71 9.47 0.54 9.24 0 8.9L1.29 10.81L0 12.71C0.54 12.5 1.71 12.16 2.14 11.83C2.36 11.71 2.57 11.48 2.79 11.26C4.18 12.26 6.21 13.05 8.57 13.05C10.29 13.05 11.89 12.61 13.18 12.05L13.61 13.5L14.14 11.48C14.46 11.26 14.68 11.04 15 10.81C14.14 9.91 12.75 9.24 11.04 8.9ZM12 11L11 11L11 10L12 10L12 11ZM2 1L13 1L13 2L2 2L2 1ZM2 3L13 3L13 4L2 4L2 3ZM2 5L10 5L10 6L2 6L2 5Z"/>
</svg>