<svg xmlns="http://www.w3.org/2000/svg" viewBox="0 0 15 15">
  <path fill="param(fill) #888" stroke="param(outline) #000" stroke-width="param(outline-width) 0" fill-opacity="param(fill-opacity) 1" stroke-opacity="param(outline-opacity) 1" d="M1.5 2.22L3 2.22L3 2.94C3 3.21 3.14 3.45 3.38 3.56L3.64 3.68C4.4 4.01 5.79 4.48 7.5 4.48C9.42 4.48 10.94 3.88 11.62 3.56C11.86 3.45 12 3.21 12 2.94L12 2.22L13.5 2.22L13.5 0.72L12 0.72C11.94 0.21 11.38 -0.13 10.89 0.05C10.02 0.35 8.76 0.7 7.5 0.7C6.24 0.7 4.98 0.35 4.11 0.05C3.62 -0.13 3.06 0.21 3 0.72L1.5 0.72L1.5 2.22ZM1.5 7.48L3 7.48L3 8.2C3 8.47 3.14 8.71 3.38 8.83L3.64 8.94C4.4 9.27 5.79 9.74 7.5 9.74C9.42 9.74 10.94 9.14 11.62 8.83C11.86 8.71 12 8.47 12 8.2L12 7.48L13.5 7.48L13.5 5.98L12 5.98C11.94 5.47 11.38 5.13 10.89 5.31C10.02 5.61 8.76 5.96 7.5 5.96C6.24 5.96 4.98 5.61 4.11 5.31C3.62 5.13 3.06 5.47 3 5.98L1.5 5.98L1.5 7.48ZM1.5 12.75L3 12.75L3 13.46C3 13.73 3.14 13.97 3.38 14.09C4.06 14.4 5.58 15 7.5 15C9.42 15 10.94 14.4 11.62 14.09C11.86 13.97 12 13.73 12 13.46L12 12.75L13.5 12.75L13.5 11.24L12 11.24C11.94 10.73 11.38 10.39 10.89 10.57C10.02 10.88 8.76 11.22 7.5 11.22C6.24 11.22 4.98 10.88 4.11 10.57C3.62 10.39 3.06 10.73 3 11.24L1.5 11.24L1.5 12.75Z"/>
</svg>