<svg xmlns="http://www.w3.org/2000/svg" viewBox="0 0 15 15">
  <path fill="param(fill) #888" stroke="param(outline) #000" stroke-width="param(outline-width) 0" fill-opacity="param(fill-opacity) 1" stroke-opacity="param(outline-opacity) 1" d="M9.33 0L9 14.5C9 14.63 9.05 14.76 9.14 14.85C9.24 14.95 9.37 15 9.5 15C9.63 15 9.76 14.95 9.86 14.85C9.95 14.76 10 14.63 10 14.5L9.67 0L9.33 0ZM11.33 0L11 14.5C11 14.63 11.05 14.76 11.14 14.85C11.24 14.95 11.37 15 11.5 15C11.63 15 11.76 14.95 11.86 14.85C11.95 14.76 12 14.63 12 14.5L11.67 0L11.33 0ZM4.49 0C5.35 -0.01 6.78 1.78 6.99 3.71C7.19 5.64 5.23 6.45 5.25 7.12L5.5 14C5.51 14.25 5.43 14.56 5.24 14.73C5.04 14.92 4.79 15.01 4.51 15C4.25 15.01 3.99 14.91 3.81 14.73C3.62 14.56 3.49 14.25 3.5 14L3.76 7.12C3.79 6.34 1.85 5.33 2.01 3.7C2.19 2.07 3.63 -0.01 4.49 0ZM4.61 1.19C4.87 2.37 5.02 3.25 5.02 3.84C5.02 4.43 4.88 5.19 4.62 6.11C5.42 5.74 5.81 4.98 5.81 3.84C5.81 2.7 5.41 1.82 4.61 1.19Z"/>
</svg>