<svg xmlns="http://www.w3.org/2000/svg" viewBox="0 0 15 15">
  <path fill="param(fill) #888" stroke="param(outline) #000" stroke-width="param(outline-width) 0" fill-opacity="param(fill-opacity) 1" stroke-opacity="param(outline-opacity) 1" d="M4.49 0C5.35 -0.01 6.78 1.78 6.99 3.71C7.19 5.64 5.23 6.45 5.25 7.12L5.5 14C5.51 14.25 5.43 14.56 5.24 14.73C5.04 14.92 4.79 15.01 4.51 15C4.25 15.01 3.99 14.91 3.81 14.73C3.62 14.56 3.49 14.25 3.5 14L3.76 7.12C3.79 6.34 1.85 5.33 2.01 3.7C2.19 2.07 3.63 -0.01 4.49 0ZM4.61 1.19C4.87 2.37 5.02 3.25 5.02 3.84C5.02 4.43 4.88 5.19 4.62 6.11C5.42 5.74 5.81 4.98 5.81 3.84C5.81 2.7 5.41 1.82 4.61 1.19ZM9.5 0L8.99 0.01L8 5.5C8.02 6.32 9.78 6.68 9.76 7.5L9.5 14C9.49 14.27 9.59 14.53 9.78 14.72C9.97 14.91 10.23 15.01 10.49 15C10.76 15.01 11.02 14.91 11.21 14.72C11.4 14.53 11.51 14.27 11.5 14L11.24 7.5C11.21 6.68 13.14 6.31 12.99 5.5L11.99 0.01L11.5 0L11.75 4L10.99 4.5L10.74 0.01L10.25 0.01L10 4.5L9.25 4L9.5 0Z"/>
</svg>