<svg xmlns="http://www.w3.org/2000/svg" viewBox="0 0 15 15">
  <path fill="param(fill) #888" stroke="param(outline) #000" stroke-width="param(outline-width) 0" fill-opacity="param(fill-opacity) 1" stroke-opacity="param(outline-opacity) 1" d="M4.49 0c0.86 -0.01 2.29 1.78 2.5 3.71c0.2 1.93 -1.76 2.74 -1.74 3.41l0.25 6.88c0.01 0.25 -0.07 0.56 -0.26 0.73c-0.2 0.19 -0.45 0.28 -0.73 0.27c-0.26 0.01 -0.52 -0.09 -0.7 -0.27c-0.19 -0.17 -0.32 -0.48 -0.31 -0.73l0.26 -6.88c0.03 -0.78 -1.91 -1.79 -1.75 -3.42c0.18 -1.63 1.62 -3.71 2.48 -3.7zm0.12 1.19c0.26 1.18 0.41 2.06 0.41 2.65s-0.14 1.35 -0.4 2.27c0.8 -0.37 1.19 -1.13 1.19 -2.27s-0.4 -2.02 -1.2 -2.65zm4.39 -1.19l-0.51 0.01l-0.49 5.49c0.02 0.82 1.78 1.18 1.76 2l-0.26 6.5c-0.01 0.27 0.09 0.53 0.28 0.72s0.45 0.29 0.71 0.28c0.27 0.01 0.53 -0.09 0.72 -0.28s0.3 -0.45 0.29 -0.72l-0.26 -6.5c-0.03 -0.82 1.9 -1.19 1.75 -2l-0.49 -5.5l-0.49 -0.01l-0.26 4.01l-0.76 0.5l-0.25 -4.49h-0.49l-0.25 4.49l-0.75 -0.5z"/>
</svg>