<svg xmlns="http://www.w3.org/2000/svg" viewBox="0 0 15 15">
  <path fill="param(fill) #888" stroke="param(outline) #000" stroke-width="param(outline-width) 0" fill-opacity="param(fill-opacity) 1" stroke-opacity="param(outline-opacity) 1" d="M7.5 0C5.33 0.03 3.9 1.48 3.76 3.22L3.76 5.37C3.76 5.96 3.28 6.44 2.69 6.44C1.39 6.42 0.72 6.09 0.5 7.35C0.5 8.71 1.37 7.85 2.07 8.62C2.34 8.89 2.11 9.34 2.45 9.7C2.79 10.04 3.4 10.01 3.65 10.29C3.7 10.33 3.73 10.37 3.76 10.42C3.76 10.42 3.59 13.97 4.4 14.79C5.22 15.61 4.92 13.71 5.63 13.71C6.35 13.71 6.79 15 7.5 15C8.22 15 8.66 13.71 9.38 13.71C10.09 13.71 9.9 15.61 10.71 14.79C11.53 13.97 11.25 10.42 11.25 10.42C11.28 10.37 11.31 10.33 11.35 10.29C11.61 10.01 12.22 10.04 12.55 9.7C12.89 9.34 12.67 8.89 12.94 8.62C13.72 7.78 14.53 8.86 14.5 7.2C14.35 6.05 13.34 6.44 12.32 6.44C11.73 6.44 11.25 5.96 11.25 5.37L11.25 3.22C11.11 1.42 9.68 -0.02 7.5 0ZM6.47 2C6.48 2 6.49 2 6.5 2C6.78 2 7 2.45 7 3C7 3.55 6.78 4 6.5 4C6.22 4 6 3.55 6 3C6 2.47 6.21 2.03 6.47 2ZM8.47 2C8.48 2 8.49 2 8.5 2C8.78 2 9 2.45 9 3C9 3.55 8.78 4 8.5 4C8.22 4 8 3.55 8 3C8 2.47 8.21 2.03 8.47 2ZM7.47 5C7.48 5 7.49 5 7.5 5C7.78 5 8 5.45 8 6C8 6.55 7.78 7 7.5 7C7.22 7 7 6.55 7 6C7 5.47 7.21 5.03 7.47 5Z"/>
</svg>