<svg xmlns="http://www.w3.org/2000/svg" viewBox="0 0 15 15">
  <path fill="param(fill) #888" stroke="param(outline) #000" stroke-width="param(outline-width) 0" fill-opacity="param(fill-opacity) 1" stroke-opacity="param(outline-opacity) 1" d="M9.89 0.4C9.53 0.76 9.45 1.24 9.51 1.72L6.52 4.7L6.49 4.71C6.45 4.75 6.39 4.96 6.6 5.44C6.8 5.92 7.24 6.56 7.84 7.16C8.44 7.76 9.08 8.2 9.56 8.4C10.04 8.61 10.25 8.55 10.29 8.51L10.3 8.48L13.28 5.49C13.76 5.55 14.24 5.47 14.6 5.11C15.09 4.62 15.07 3.9 14.86 3.26C14.64 2.62 14.22 1.96 13.63 1.37C13.04 0.78 12.38 0.36 11.74 0.14C11.1 -0.07 10.38 -0.09 9.89 0.4ZM6.18 5.73L2.87 9.04L2.89 9.05C2.9 9.03 2.82 9.16 2.96 9.57C3.11 9.98 3.46 10.53 3.96 11.04C4.47 11.54 5.02 11.89 5.43 12.04C5.79 12.17 5.93 12.11 5.95 12.11L5.96 12.13L9.27 8.82C8.6 8.62 7.94 8.22 7.36 7.64C6.78 7.06 6.38 6.4 6.18 5.73ZM0.3 11.65C-0.07 12.03 -0.04 12.55 0.09 12.97C0.23 13.38 0.5 13.78 0.86 14.14C1.22 14.5 1.62 14.77 2.03 14.91C2.45 15.04 2.97 15.07 3.35 14.7C3.71 14.34 3.7 13.84 3.58 13.44L4.74 12.27C4.33 12.08 3.94 11.79 3.57 11.43C3.21 11.06 2.92 10.67 2.73 10.26L1.56 11.42C1.16 11.3 0.66 11.29 0.3 11.65ZM10.72 1.23C10.76 1.19 10.96 1.12 11.37 1.26C11.78 1.4 12.32 1.72 12.8 2.2C13.28 2.68 13.6 3.22 13.74 3.63C13.88 4.04 13.81 4.24 13.77 4.28C13.72 4.32 13.53 4.39 13.11 4.26C12.7 4.12 12.17 3.79 11.69 3.31C11.21 2.83 10.88 2.3 10.74 1.89C10.61 1.47 10.68 1.28 10.72 1.23Z"/>
</svg>