<?xml version="1.0" encoding="UTF-8"?>
<svg viewBox="0 0 15 15" version="1.1" xmlns="http://www.w3.org/2000/svg" xmlns:xlink="http://www.w3.org/1999/xlink">
  <path fill="param(fill) #888" stroke="param(outline) #000" stroke-width="param(outline-width) 0" fill-opacity="param(fill-opacity) 1" stroke-opacity="param(outline-opacity) 1" d="M12 1C13.1 1 14 1.9 14 3L14 12C14 13.1 13.1 14 12 14L3 14C1.9 14 1 13.1 1 12L1 3C1 1.9 1.9 1 3 1L12 1ZM12 2.5L3 2.5C2.72 2.5 2.5 2.72 2.5 3L2.5 12C2.5 12.28 2.72 12.5 3 12.5L12 12.5C12.28 12.5 12.5 12.28 12.5 12L12.5 3C12.5 2.72 12.28 2.5 12 2.5Z"/>
</svg>