<svg xmlns="http://www.w3.org/2000/svg" viewBox="0 0 15 15">
  <path fill="param(fill) #888" stroke="param(outline) #000" stroke-width="param(outline-width) 0" fill-opacity="param(fill-opacity) 1" stroke-opacity="param(outline-opacity) 1" d="M9.11 0L8.87 2.05L7.29 3.46L8.71 4.11L3.52 9.3C3.4 9.27 3.29 9.25 3.17 9.25C2.87 9.25 2.58 9.37 2.37 9.58L0.34 11.62C0.05 11.9 -0.07 12.32 0.04 12.71C0.14 13.1 0.45 13.41 0.84 13.51C1.23 13.62 1.65 13.5 1.94 13.21L3.64 11.51L3.17 11.51C3.53 11.51 3.88 11.34 4.09 11.05C4.31 10.76 4.37 10.38 4.26 10.03C4.26 10.03 4.26 10.03 4.26 10.03L9.41 4.87L10.02 6.25L11.42 4.73L13.52 4.52L12.51 2.72L12.96 0.66L10.93 1.07L9.11 0ZM13.94 5.91L13.59 6.62L12.82 6.66L13.39 7.22L13.19 7.96L13.89 7.59L14.53 8.01L14.4 7.22L15 6.75L14.21 6.63L13.94 5.91ZM11.05 8.01L10.81 8.77L10.06 8.92L10.7 9.39L10.62 10.15L11.26 9.68L11.95 10L11.71 9.24L12.22 8.68L11.43 8.68L11.05 8.01ZM8.96 9.51L8.4 9.88L7.83 9.59L8.01 10.23L7.56 10.68L8.22 10.71L8.52 11.28L8.75 10.65L9.38 10.55L8.86 10.14L8.96 9.51ZM13.55 10.65L13 11.02L12.42 10.73L12.61 11.37L12.15 11.83L12.82 11.85L13.11 12.42L13.34 11.8L13.97 11.7L13.45 11.28L13.55 10.65ZM10.27 13.05L10.21 13.65L9.68 13.88L10.23 14.12L10.28 14.7L10.68 14.25L11.25 14.38L10.95 13.86L11.24 13.36L10.66 13.49L10.27 13.05Z"/>
</svg>