<svg xmlns="http://www.w3.org/2000/svg" viewBox="0 0 15 15">
  <path fill="param(fill) #888" stroke="param(outline) #000" stroke-width="param(outline-width) 0" fill-opacity="param(fill-opacity) 1" stroke-opacity="param(outline-opacity) 1" d="M7.5 0.5L9.67 4L14 4L11.83 7.5L14 11L9.67 11L7.5 14.5L5.33 11L1 11L3.17 7.5L1 4L5.33 4L7.5 0.5ZM8.49 11L6.51 11L7.5 12.6L8.49 11ZM3.76 8.45L2.8 10L4.71 10L3.76 8.45ZM9.11 5L5.89 5L4.34 7.5L5.89 10L9.11 10L10.66 7.5L9.11 5ZM11.25 8.45L10.29 10L12.2 10L11.25 8.45ZM7.5 6C8.33 6 9 6.67 9 7.5C9 8.33 8.33 9 7.5 9C6.67 9 6 8.33 6 7.5C6 6.67 6.67 6 7.5 6ZM4.71 5L2.8 5L3.76 6.55L4.71 5ZM12.2 5L10.29 5L11.25 6.55L12.2 5ZM7.5 2.4L6.51 4L8.49 4L7.5 2.4Z"/>
</svg>