<svg xmlns="http://www.w3.org/2000/svg" viewBox="0 0 15 15">
  <path fill="param(fill) #888" stroke="param(outline) #000" stroke-width="param(outline-width) 0" fill-opacity="param(fill-opacity) 1" stroke-opacity="param(outline-opacity) 1" d="M9.5 0C9.78 0 10 0.22 10 0.5C10 0.78 9.78 1 9.5 1L9 1L9 2C9.55 2 10 2.45 10 3L10 3.88C10.91 4.61 11.5 5.74 11.5 7C11.5 7.69 11.33 8.34 11.02 8.91L11.81 9.59C12.07 10.07 11.89 10.68 11.4 10.94C11.35 10.96 11.3 10.99 11.25 11L7.5 12.25L3.75 11C3.23 10.83 2.95 10.26 3.12 9.74L3.16 9.64C3.17 9.62 3.18 9.6 3.19 9.59L3.98 8.91C3.67 8.34 3.5 7.69 3.5 7C3.5 5.74 4.09 4.61 5 3.88L5 3C5 2.45 5.45 2 6 2L6 1L5.5 1C5.22 1 5 0.78 5 0.5C5 0.22 5.22 0 5.5 0L9.5 0ZM7.5 6C6.95 6 6.5 6.45 6.5 7C6.5 7.55 6.95 8 7.5 8C8.05 8 8.5 7.55 8.5 7C8.5 6.45 8.05 6 7.5 6ZM4 11.5L6 12.25L6 13C6 13.55 5.55 14 5 14C4.45 14 4 13.55 4 13L4 11.5ZM9 12.25L11 11.5L11 13C11 13.55 10.55 14 10 14C9.45 14 9 13.55 9 13L9 12.25Z"/>
</svg>