<svg xmlns="http://www.w3.org/2000/svg" viewBox="0 0 15 15">
  <path fill="param(fill) #888" stroke="param(outline) #000" stroke-width="param(outline-width) 0" fill-opacity="param(fill-opacity) 1" stroke-opacity="param(outline-opacity) 1" d="M9.34 1.22L9.34 2.45C10.01 2.45 10.56 3 10.56 3.67L10.56 4.75C11.68 5.64 12.4 7.03 12.4 8.57C12.4 9.42 12.19 10.21 11.81 10.91L12.33 11.89C12.64 12.48 12.42 13.22 11.82 13.54C11.76 13.57 11.7 13.6 11.64 13.62L7.5 15L3.36 13.62C2.73 13.41 2.38 12.71 2.59 12.07C2.62 12.01 2.64 11.94 2.68 11.89L3.19 10.91C2.81 10.21 2.6 9.42 2.6 8.57C2.6 7.03 3.33 5.64 4.44 4.75L4.44 3.67C4.44 3 4.99 2.45 5.66 2.45L5.66 1.22L5.05 1.22C4.71 1.22 4.44 0.96 4.44 0.61C4.44 0.27 4.71 0 5.05 0L9.95 0C10.29 0 10.56 0.27 10.56 0.61C10.56 0.96 10.29 1.22 9.95 1.22L9.34 1.22ZM7.5 9.8C8.17 9.8 8.73 9.24 8.73 8.57C8.73 7.9 8.17 7.35 7.5 7.35C6.83 7.35 6.28 7.9 6.28 8.57C6.28 9.24 6.83 9.8 7.5 9.8Z"/>
</svg>