<svg xmlns="http://www.w3.org/2000/svg" viewBox="0 0 15 15">
  <path fill="param(fill) #888" stroke="param(outline) #000" stroke-width="param(outline-width) 0" fill-opacity="param(fill-opacity) 1" stroke-opacity="param(outline-opacity) 1" d="M6.15 13.75L6.54 13.75L6.35 14.64L6.15 13.75ZM2.92 9L2.25 12L7.71 12L8.38 9L2.92 9ZM6.79 9.75L7.11 11.21L7.11 11.25L5.58 11.25L5.25 9.75L6.79 9.75ZM3.82 5L3.14 8L8.61 8L9.28 5L3.82 5ZM5.89 5.75L6.22 7.25L4.69 7.25L4.35 5.75L5.89 5.75ZM10.06 1.5L4.94 1.5L5.33 3.25L4.21 3.24L4.04 4L9.5 4L9.5 4.01L10.06 1.5ZM3.29 0.51L3.31 0.47L3.35 0.38L3.41 0.29L3.49 0.2L3.56 0.14L3.66 0.08L3.75 0.04L3.84 0.02C3.88 0.01 3.92 0 3.96 0L11.04 0L11.11 0.01L11.2 0.03L11.29 0.06L11.37 0.1L11.44 0.14L11.51 0.2L11.59 0.29L11.65 0.37L11.69 0.45L11.71 0.51L11.73 0.59L14.96 15L13.42 15L12.98 13L9.8 13L10.02 12L12.75 12L11 4.18L8.57 15L7.04 15L7.49 13L2.02 13L1.57 15L0.04 15L3.27 0.56L3.29 0.51Z"/>
</svg>