<svg xmlns="http://www.w3.org/2000/svg" viewBox="0 0 15 15">
  <path fill="param(fill) #888" stroke="param(outline) #000" stroke-width="param(outline-width) 0" fill-opacity="param(fill-opacity) 1" stroke-opacity="param(outline-opacity) 1" d="M8.75 12.5L8.5 13L8.5 15L6.5 15L6.5 13L6.25 12.5L8.75 12.5ZM11.75 11L11.5 11.5L11.5 14.5L11.75 15L9.25 15L9.5 14.5L9.5 11.5L9.25 11L11.75 11ZM5.75 11L5.5 11.5L5.5 14.5L5.75 15L3.25 15L3.5 14.5L3.5 11.5L3.25 11L5.75 11ZM8.75 8L8.5 8.5L8.5 11.5L8.75 12L6.25 12L6.5 11.5L6.5 8.5L6.25 8L8.75 8ZM11.59 6.55L11.44 6.35L11.28 6.15C11.21 6.06 11.14 5.98 11.06 5.9L11.01 5.85C10.94 5.78 10.87 5.72 10.8 5.66L10.69 5.58L10.55 5.49L10.44 5.43L10.33 5.39L10.21 5.36L10.1 5.34L10 5.33C9.27 5.33 8.77 5.56 8.5 6.02L8.5 7L8.75 7.5L6.25 7.5L6.5 7L6.5 6.02C6.23 5.56 5.73 5.33 5 5.33L4.9 5.34L4.77 5.36L4.64 5.4L4.53 5.45L4.39 5.52L4.31 5.58L4.2 5.66C4.13 5.72 4.06 5.78 3.99 5.85L3.94 5.9C3.86 5.98 3.78 6.07 3.7 6.16L3.56 6.34L3.45 6.5L3.28 6.75L3.2 6.88C3.01 7.18 2.82 7.52 2.63 7.9C2.54 8.1 2.44 8.3 2.34 8.52L2.04 9.22C1.89 9.58 1.73 9.97 1.58 10.38C1.48 10.64 1.38 10.92 1.28 11.2L1 11.99L1.06 11.6C1.71 7.48 2.73 5.05 4.11 4.32L4.25 4.25C4.52 4.13 4.78 4.06 5.02 4.05L5.17 4.04C5.69 4.06 6.15 4.33 6.55 4.86L6.68 4.47C6.19 3.71 5.38 3.33 4.25 3.33C3.52 3.33 2.8 3.65 2.07 4.3C1.43 4.86 0.8 5.67 0.16 6.72L0 7C1.42 3.67 2.83 2 4.25 2L4.47 2.01C5.07 2.05 5.66 2.28 6.26 2.69L6.48 2.85L6.36 2.65C6.05 2.11 5.72 1.74 5.37 1.53L5.23 1.46C4.44 1.09 3.2 1.35 1.5 2.24C2.82 0.83 4.01 0.09 5.05 0.01L5.25 0L5.35 0.01C6.07 0.09 6.78 0.89 7.5 2.41L7.62 2.16C8.33 0.73 9.04 0.01 9.75 0L9.95 0.01C10.93 0.08 12.04 0.74 13.27 2L13.5 2.24C12.43 1.68 11.53 1.36 10.82 1.3L10.65 1.29C10.31 1.29 10.02 1.34 9.77 1.46C9.37 1.65 8.99 2.04 8.64 2.65L8.52 2.85L8.74 2.69C9.34 2.28 9.93 2.05 10.53 2.01L10.75 2L10.89 2.01C11.16 2.03 11.42 2.1 11.68 2.24C12.74 2.79 13.8 4.26 14.86 6.67L15 7C14.31 5.81 13.62 4.91 12.93 4.3C12.2 3.65 11.48 3.33 10.75 3.33C9.62 3.33 8.81 3.71 8.32 4.47L8.45 4.86L8.56 4.72C8.89 4.33 9.27 4.11 9.69 4.06L9.83 4.04L9.98 4.05C10.22 4.06 10.48 4.13 10.75 4.25L10.89 4.32C12.27 5.05 13.29 7.48 13.94 11.6L14 11.99L13.88 11.63C13.71 11.17 13.56 10.73 13.4 10.32C13.29 10.04 13.19 9.77 13.09 9.52L12.86 8.98L12.64 8.48C12.6 8.4 12.57 8.32 12.53 8.24C12.45 8.07 12.36 7.9 12.28 7.74L12.08 7.35L11.9 7.04C11.8 6.87 11.69 6.7 11.59 6.55ZM4.37 6.5L5.75 6.5L5.5 7L5.5 10L5.75 10.5L3.25 10.5L3.5 10L3.5 7.86C3.82 7.25 4.11 6.79 4.37 6.5ZM10.63 6.5C10.89 6.79 11.18 7.25 11.5 7.86L11.5 10L11.75 10.5L9.25 10.5L9.5 10L9.5 7L9.25 6.5L10.63 6.5Z"/>
</svg>