<svg xmlns="http://www.w3.org/2000/svg" viewBox="0 0 15 15">
  <path fill="param(fill) #888" stroke="param(outline) #000" stroke-width="param(outline-width) 0" fill-opacity="param(fill-opacity) 1" stroke-opacity="param(outline-opacity) 1" d="M9 7C9.35 5.62 9.93 4.69 10.75 4.22C11.57 3.75 12.98 4.03 15 5.07C13.33 5.07 12.17 5.22 11.5 5.5C10.83 5.79 10 6.29 9 7ZM6 13C5.65 11.62 5.07 10.69 4.25 10.22C3.43 9.75 2.02 10.03 0 11.07C1.67 11.07 2.83 11.22 3.5 11.5C4.17 11.79 5 12.29 6 13ZM6.25 11L8.75 11L8.5 11.5L8.5 15L6.5 15L6.5 11.5L6.25 11ZM6.25 5L8.75 5L8.5 5.5L8.5 9.5L8.75 10L6.25 10L6.5 9.5L6.5 5.5L6.25 5ZM8.5 0L8.5 3.5L8.75 4L6.25 4L6.5 3.5L6.5 0L8.5 0Z"/>
</svg>