<svg xmlns="http://www.w3.org/2000/svg" viewBox="0 0 15 15">
  <path fill="param(fill) #888" stroke="param(outline) #000" stroke-width="param(outline-width) 0" fill-opacity="param(fill-opacity) 1" stroke-opacity="param(outline-opacity) 1" d="M0 8.31L3.75 10.19L3.75 14.5L0 12.44L0 8.31ZM8.25 8.31L8.25 12.44L4.5 14.5L4.5 10.19L8.25 8.31ZM9.5 12.79L10.21 13.5L9.5 14.21L8.79 13.5L9.5 12.79ZM12 10.5L13.5 12L12 13.5L10.5 12L12 10.5ZM0 7.56L4.13 5.5L8.25 7.56L4.13 9.63L0 7.56ZM10.36 4.56L14.54 4.81L12.48 8.38L9 8.31L9 7.75L8.99 7.51C8.98 7.34 8.96 7.21 8.88 7.11L10.36 4.56ZM7.4 0.69L9.71 4.18L8.24 6.72L6.21 5.7L5.33 4.26L7.4 0.69ZM7.77 0.04L12.38 0.31L14.92 4.16L10.31 3.88L7.77 0.04Z"/>
</svg>