<svg xmlns="http://www.w3.org/2000/svg" viewBox="0 0 15 15">
  <path fill="param(fill) #888" stroke="param(outline) #000" stroke-width="param(outline-width) 0" fill-opacity="param(fill-opacity) 1" stroke-opacity="param(outline-opacity) 1" d="M1 0L8 0L8 1L1 1zM1 2L8 2L8 3L1 3zM1 4L8 4L8 5L1 5zM13.25 0L11.25 3.5L10.25 2L8.5 2L10.5 5L12 5L15 0zM10 8L10 15L5 15L5 8L10 8ZM11 8L12 8C12.55 8 13 8.45 13 9L13 14C13 14.55 12.55 15 12 15L11 15L11 8ZM4 8L4 15L3 15C2.45 15 2 14.55 2 14L2 9C2 8.45 2.45 8 3 8L4 8ZM9 8L9 7L6 7L6 8L5 8L5 7C5 6.45 5.45 6 6 6L9 6C9.55 6 10 6.45 10 7L10 8L9 8Z"/>
</svg>