<svg xmlns="http://www.w3.org/2000/svg" viewBox="0 0 15 15">
  <path fill="param(fill) #888" stroke="param(outline) #000" stroke-width="param(outline-width) 0" fill-opacity="param(fill-opacity) 1" stroke-opacity="param(outline-opacity) 1" d="M8 8L8 15L3 15L3 8L8 8ZM9 8L10 8C10.55 8 11 8.45 11 9L11 14C11 14.55 10.55 15 10 15L9 15L9 8ZM2 8L2 15L1 15C0.45 15 0 14.55 0 14L0 9C0 8.45 0.45 8 1 8L2 8ZM7 8L7 7L4 7L4 8L3 8L3 7C3 6.45 3.45 6 4 6L7 6C7.55 6 8 6.45 8 7L8 8L7 8ZM12 0C13.1 0 14 0.9 14 2L14 2.5L14.5 2.5C14.78 2.5 15 2.72 15 3L15 6C15 6.28 14.78 6.5 14.5 6.5L9.5 6.5C9.22 6.5 9 6.28 9 6L9 3C9 2.72 9.22 2.5 9.5 2.5L10 2.5L10 2C10 0.9 10.9 0 12 0ZM12 3.25C11.59 3.25 11.25 3.59 11.25 4C11.25 4.27 11.4 4.52 11.62 4.65L11.25 5.75L12.75 5.75L12.38 4.65C12.6 4.51 12.75 4.27 12.75 4C12.75 3.59 12.41 3.25 12 3.25ZM12 1C11.45 1 11 1.45 11 2L11 2.5L13 2.5L13 2C13 1.49 12.61 1.06 12.12 1.01L12 1Z"/>
</svg>