<svg xmlns="http://www.w3.org/2000/svg" viewBox="0 0 15 15">
  <path fill="param(fill) #888" stroke="param(outline) #000" stroke-width="param(outline-width) 0" fill-opacity="param(fill-opacity) 1" stroke-opacity="param(outline-opacity) 1" d="M15 4L15 15L0 15L0 4L2.63 4C2.8 4.3 3.13 4.5 3.5 4.5L5 4.5L5.18 4.49C5.67 4.46 6.12 4.28 6.49 4L15 4ZM14 5L1 5L1 14L14 14L14 5ZM9 6C9.55 6 10 6.45 10 7L10 13L5 13L5 7C5 6.45 5.45 6 6 6L9 6ZM12 8C12.55 8 13 8.45 13 9L13 12C13 12.55 12.55 13 12 13L10.5 13L10.5 8L12 8ZM4.5 8L4.5 13L3 13C2.45 13 2 12.55 2 12L2 9C2 8.45 2.45 8 3 8L4.5 8ZM9 7L6 7L6 8L9 8L9 7ZM5 0C5.74 0 6.38 0.4 6.72 1L11.5 1L12.5 2L11.5 3L10.5 2L9.5 3L8.5 2L7.5 3L6.72 3C6.38 3.6 5.74 4 5 4L3.5 4C3.22 4 3 3.78 3 3.5L3 0.5C3 0.22 3.22 0 3.5 0L5 0ZM4.5 1C4.22 1 4 1.22 4 1.5L4 2.5C4 2.78 4.22 3 4.5 3C4.78 3 5 2.78 5 2.5L5 1.5C5 1.22 4.78 1 4.5 1Z"/>
</svg>