<svg xmlns="http://www.w3.org/2000/svg" viewBox="0 0 15 15">
  <path fill="param(fill) #888" stroke="param(outline) #000" stroke-width="param(outline-width) 0" fill-opacity="param(fill-opacity) 1" stroke-opacity="param(outline-opacity) 1" d="M10 7L10 14L5 14L5 7L10 7ZM11 7L12 7C12.55 7 13 7.45 13 8L13 13C13 13.55 12.55 14 12 14L11 14L11 7ZM4 7L4 14L3 14C2.45 14 2 13.55 2 13L2 8C2 7.45 2.45 7 3 7L4 7ZM9 7L9 6L6 6L6 7L5 7L5 6C5 5.45 5.45 5 6 5L9 5C9.55 5 10 5.45 10 6L10 7L9 7ZM3.5 0C3.22 0 3 0.22 3 0.5L3 3.5C3 3.78 3.22 4 3.5 4L5 4C5.74 4 6.38 3.6 6.72 3L7.5 3L8.5 2L9.5 3L10.5 2L11.5 3L12.5 2L11.5 1L6.72 1C6.38 0.4 5.74 0 5 0L3.5 0ZM4.5 1C4.78 1 5 1.22 5 1.5L5 2.5C5 2.78 4.78 3 4.5 3C4.22 3 4 2.78 4 2.5L4 1.5C4 1.22 4.22 1 4.5 1Z"/>
</svg>