<svg xmlns="http://www.w3.org/2000/svg" viewBox="0 0 15 15">
  <path fill="param(fill) #888" stroke="param(outline) #000" stroke-width="param(outline-width) 0" fill-opacity="param(fill-opacity) 1" stroke-opacity="param(outline-opacity) 1" d="M8 8L8 15L3 15L3 8L8 8ZM9 8L10 8C10.55 8 11 8.45 11 9L11 14C11 14.55 10.55 15 10 15L9 15L9 8ZM2 8L2 15L1 15C0.45 15 0 14.55 0 14L0 9C0 8.45 0.45 8 1 8L2 8ZM7 8L7 7L4 7L4 8L3 8L3 7C3 6.45 3.45 6 4 6L7 6C7.55 6 8 6.45 8 7L8 8L7 8ZM11.5 3L11.5 4.5L14.5 4.5L14.5 5.5L11.5 5.5L11.5 7L9.5 5L11.5 3ZM13 0L15 2L13 4L13 2.5L10 2.5L10 1.5L13 1.5L13 0Z"/>
</svg>