<svg xmlns="http://www.w3.org/2000/svg" viewBox="0 0 15 15">
  <path fill="param(fill) #888" stroke="param(outline) #000" stroke-width="param(outline-width) 0" fill-opacity="param(fill-opacity) 1" stroke-opacity="param(outline-opacity) 1" d="M7.5 0C11.64 0 15 3.36 15 7.5C15 11.64 11.64 15 7.5 15C3.36 15 0 11.64 0 7.5C0 3.36 3.36 0 7.5 0ZM7.5 7.5C6.63 7.5 5.8 7.83 5.18 8.42C4.57 9 4.22 9.8 4.22 10.63C4.22 11.46 6.22 11.82 7.5 11.82C8.78 11.82 10.78 11.46 10.78 10.63C10.78 9.8 10.43 9 9.82 8.42C9.2 7.83 8.37 7.5 7.5 7.5ZM5.06 4.5C4.44 4.5 3.94 5 3.94 5.63C3.94 6.25 4.44 6.75 5.06 6.75C5.68 6.75 6.19 6.25 6.19 5.63C6.19 5 5.68 4.5 5.06 4.5ZM9.94 4.5C9.32 4.5 8.81 5 8.81 5.63C8.81 6.25 9.32 6.75 9.94 6.75C10.56 6.75 11.06 6.25 11.06 5.63C11.06 5 10.56 4.5 9.94 4.5Z"/>
</svg>