<svg xmlns="http://www.w3.org/2000/svg" viewBox="0 0 15 15">
  <path fill="param(fill) #888" stroke="param(outline) #000" stroke-width="param(outline-width) 0" fill-opacity="param(fill-opacity) 1" stroke-opacity="param(outline-opacity) 1" d="M3.13 11.67C3.13 10.57 3.59 9.51 4.41 8.72C5.23 7.94 6.34 7.5 7.5 7.5C8.66 7.5 9.77 7.94 10.59 8.72C11.41 9.51 11.87 10.57 11.87 11.67C11.87 12.78 9.21 13.26 7.5 13.26C5.79 13.26 3.13 12.78 3.13 11.67ZM5.75 5C5.75 5.83 5.08 6.5 4.25 6.5C3.42 6.5 2.75 5.83 2.75 5C2.75 4.17 3.42 3.5 4.25 3.5C5.08 3.5 5.75 4.17 5.75 5ZM12.25 5C12.25 5.83 11.58 6.5 10.75 6.5C9.92 6.5 9.25 5.83 9.25 5C9.25 4.17 9.92 3.5 10.75 3.5C11.58 3.5 12.25 4.17 12.25 5Z"/>
</svg>