<svg xmlns="http://www.w3.org/2000/svg" viewBox="0 0 15 15">
  <path fill="param(fill) #888" stroke="param(outline) #000" stroke-width="param(outline-width) 0" fill-opacity="param(fill-opacity) 1" stroke-opacity="param(outline-opacity) 1" d="M3.13 11.67C3.13 10.57 3.59 9.51 4.41 8.72C5.23 7.94 6.34 7.5 7.5 7.5C8.66 7.5 9.77 7.94 10.59 8.72C11.41 9.51 11.87 10.57 11.87 11.67C11.87 12.78 9.21 13.26 7.5 13.26C5.79 13.26 3.13 12.78 3.13 11.67ZM4.23 3.7L3.23 2.71L2.17 3.77L3.17 4.76L2.17 5.76L3.23 6.82L4.23 5.82L5.22 6.82L6.28 5.76L5.29 4.76L6.28 3.77L5.22 2.71L4.23 3.7ZM10.98 3.7L11.97 2.71L13.03 3.77L12.04 4.76L13.03 5.76L11.97 6.82L10.98 5.82L9.98 6.82L8.92 5.76L9.92 4.76L8.92 3.77L9.98 2.71L10.98 3.7Z"/>
</svg>