<svg xmlns="http://www.w3.org/2000/svg" viewBox="0 0 15 15">
  <path fill="param(fill) #888" stroke="param(outline) #000" stroke-width="param(outline-width) 0" fill-opacity="param(fill-opacity) 1" stroke-opacity="param(outline-opacity) 1" d="M7.5 0C11.64 0 15 3.36 15 7.5C15 11.64 11.64 15 7.5 15C3.36 15 0 11.64 0 7.5C0 3.36 3.36 0 7.5 0ZM7.5 7.5C6.63 7.5 5.8 7.83 5.18 8.42C4.57 9 4.22 9.8 4.22 10.63C4.22 11.46 6.22 11.82 7.5 11.82C8.78 11.82 10.78 11.46 10.78 10.63C10.78 9.8 10.43 9 9.82 8.42C9.2 7.83 8.37 7.5 7.5 7.5ZM5.79 3.91L5.05 4.65L4.3 3.91L3.51 4.7L4.25 5.45L3.51 6.19L4.3 6.99L5.05 6.24L5.79 6.99L6.59 6.19L5.84 5.45L6.59 4.7L5.79 3.91ZM10.85 3.91L10.11 4.65L9.36 3.91L8.57 4.7L9.31 5.45L8.57 6.19L9.36 6.99L10.11 6.24L10.85 6.99L11.65 6.19L10.9 5.45L11.65 4.7L10.85 3.91Z"/>
</svg>