<svg xmlns="http://www.w3.org/2000/svg" viewBox="0 0 15 15">
  <path fill="param(fill) #888" stroke="param(outline) #000" stroke-width="param(outline-width) 0" fill-opacity="param(fill-opacity) 1" stroke-opacity="param(outline-opacity) 1" d="M0 7.5C0 3.36 3.36 0 7.5 0C11.64 0 15 3.36 15 7.5C15 11.64 11.64 15 7.5 15C3.36 15 0 11.64 0 7.5ZM7.5 1.5C4.19 1.5 1.5 4.19 1.5 7.5C1.5 10.81 4.19 13.5 7.5 13.5C10.81 13.5 13.5 10.81 13.5 7.5C13.5 4.19 10.81 1.5 7.5 1.5ZM4.22 10.63C4.22 9.8 4.57 9 5.18 8.42C5.8 7.83 6.63 7.5 7.5 7.5C8.37 7.5 9.2 7.83 9.82 8.42C10.43 9 10.78 9.8 10.78 10.63C10.78 11.46 8.78 11.82 7.5 11.82C6.22 11.82 4.22 11.46 4.22 10.63ZM5.05 4.65L4.3 3.91L3.51 4.7L4.25 5.45L3.51 6.19L4.3 6.99L5.05 6.24L5.79 6.99L6.59 6.19L5.84 5.45L6.59 4.7L5.79 3.91zM10.11 4.65L10.85 3.91L11.65 4.7L10.9 5.45L11.65 6.19L10.85 6.99L10.11 6.24L9.36 6.99L8.57 6.19L9.31 5.45L8.57 4.7L9.36 3.91z"/>
</svg>