<svg xmlns="http://www.w3.org/2000/svg" viewBox="0 0 15 15">
  <path fill="param(fill) #888" stroke="param(outline) #000" stroke-width="param(outline-width) 0" fill-opacity="param(fill-opacity) 1" stroke-opacity="param(outline-opacity) 1" d="M0.89 4.13L0 3.24L3.24 0L4.13 0.89L3.25 1.76L4.7 3.22L5.05 2.87C5.27 2.66 5.57 2.54 5.88 2.54C6.2 2.54 6.5 2.67 6.72 2.89L12.61 8.82C13.16 9.37 12.98 10.26 12.13 11.25L14.82 13.93C15.06 14.18 15.06 14.57 14.82 14.82C14.57 15.07 14.18 15.07 13.93 14.82L11.24 12.13C10.67 12.59 10.05 12.93 9.52 12.93C9.25 12.93 9 12.84 8.79 12.63L2.88 6.71C2.66 6.49 2.53 6.18 2.54 5.87C2.54 5.55 2.67 5.24 2.89 5.02L3.22 4.69L1.77 3.24L0.89 4.12L0.89 4.13ZM6.62 8.76L10.74 8.76L9.16 7.17L8.24 8.09L7.35 7.2L8.27 6.28L7.51 5.52L6.47 6.56L5.59 5.67L6.63 4.63L5.88 3.88L3.81 5.95L6.62 8.76Z"/>
</svg>