<svg xmlns="http://www.w3.org/2000/svg" viewBox="0 0 15 15">
  <path fill="param(fill) #888" stroke="param(outline) #000" stroke-width="param(outline-width) 0" fill-opacity="param(fill-opacity) 1" stroke-opacity="param(outline-opacity) 1" d="M8.75 0C8.89 0 9 0.11 9 0.25L9 1L10.79 1C10.93 1 11.05 1.05 11.15 1.15C11.34 1.34 11.34 1.66 11.15 1.85L9.05 3.95L9.48 4.26C9.94 4.6 10.47 5 11.07 5.48C12.29 6.42 13 7.88 13 9.42L13 14C13 14.55 12.55 15 12 15L3 15C2.45 15 2 14.55 2 14L2 9.42C2 8.13 2.5 6.89 3.38 5.97C2.7 5.47 2.25 4.66 2.25 3.75C2.25 2.23 3.48 1 5 1L6 1L6 0.25C6 0.13 6.08 0.03 6.19 0.01L6.25 0L8.75 0ZM8.25 11.5L6.75 11.5L7 12L7 13.5L6.75 14L8.25 14L8 13.5L8 12L8.25 11.5ZM2.5 10.98C3.43 10.77 4.19 10.86 4.79 11.26C5.38 11.66 5.95 11.99 6.5 12.25C6.28 11.4 5.9 10.8 5.36 10.43C4.81 10.07 3.86 10.25 2.5 10.98ZM8.25 8.5L6.75 8.5L7 9L7 10.5L6.75 11L8.25 11L8 10.5L8 9L8.25 8.5ZM12.5 7.98C11.14 7.25 10.19 7.07 9.64 7.43C9.1 7.8 8.72 8.4 8.5 9.25C9.05 8.99 9.62 8.66 10.21 8.26C10.81 7.86 11.57 7.77 12.5 7.98ZM8.25 5.5L6.75 5.5L7 6L7 7.5L6.75 8L8.25 8L8 7.5L8 6L8.25 5.5ZM6 2.5L5 2.5C4.31 2.5 3.75 3.06 3.75 3.75C3.75 4.31 4.12 4.78 4.62 4.94L5.13 4.55C5.45 4.31 5.74 4.09 6 3.91L6 2.5Z"/>
</svg>