<svg xmlns="http://www.w3.org/2000/svg" viewBox="0 0 15 15">
  <path fill="param(fill) #888" stroke="param(outline) #000" stroke-width="param(outline-width) 0" fill-opacity="param(fill-opacity) 1" stroke-opacity="param(outline-opacity) 1" d="M10.92 0.76L11.58 1.42L12.08 0.92C12.16 0.85 12.28 0.83 12.37 0.89L12.41 0.92L14.08 2.59C14.17 2.68 14.17 2.83 14.08 2.92L13.58 3.42L14.77 4.61C14.86 4.7 14.91 4.82 14.91 4.94C14.91 5.2 14.7 5.41 14.44 5.41L11.65 5.41L11.73 5.91L11.85 6.77C11.89 7.08 11.93 7.41 11.98 7.77C12.16 9.21 11.66 10.65 10.64 11.68L7.59 14.72C7.22 15.09 6.63 15.09 6.26 14.72L0.28 8.74C-0.09 8.37 -0.09 7.78 0.28 7.41L3.32 4.36C4.18 3.5 5.34 3.01 6.53 2.99C6.41 2.2 6.65 1.36 7.26 0.76C8.27 -0.25 9.91 -0.25 10.92 0.76ZM13.75 5.75C13.96 6.34 14.13 6.76 14.25 7C14.62 7.73 15 7.93 15 8.5C15 9.07 14.38 9.5 13.75 9.5C13.13 9.5 12.5 9.07 12.5 8.5C12.5 7.93 12.88 7.73 13.25 7C13.37 6.76 13.54 6.34 13.75 5.75ZM9.92 1.76C9.46 1.3 8.72 1.3 8.26 1.76C7.89 2.13 7.81 2.68 8.04 3.13L8.64 3.21L9.65 3.36L10.58 2.42L9.92 1.76Z"/>
</svg>