<svg xmlns="http://www.w3.org/2000/svg" viewBox="0 0 15 15">
  <path fill="param(fill) #888" stroke="param(outline) #000" stroke-width="param(outline-width) 0" fill-opacity="param(fill-opacity) 1" stroke-opacity="param(outline-opacity) 1" d="M10.92 0.76L11.58 1.42L12.08 0.92C12.16 0.85 12.28 0.83 12.37 0.89L12.41 0.92L14.08 2.59C14.17 2.68 14.17 2.83 14.08 2.92L13.58 3.42L14.77 4.61C14.86 4.7 14.91 4.82 14.91 4.94C14.91 5.2 14.7 5.41 14.44 5.41L11.65 5.41L11.73 5.91L11.85 6.77C11.89 7.08 11.93 7.41 11.98 7.77C12.16 9.21 11.66 10.65 10.64 11.68L7.59 14.72C7.22 15.09 6.63 15.09 6.26 14.72L0.28 8.74C-0.09 8.37 -0.09 7.78 0.28 7.41L3.32 4.36C4.18 3.5 5.34 3.01 6.53 2.99C6.41 2.2 6.65 1.36 7.26 0.76C8.27 -0.25 9.91 -0.25 10.92 0.76ZM5.1 8.9L4.93 9.4L3.93 10.4L3.43 10.57L4.43 11.57L4.6 11.07L5.6 10.07L6.1 9.9L5.1 8.9ZM7.76 8.57C8.3 8.76 8.9 8.93 9.56 9.05C10.21 9.18 10.78 9.63 11.26 10.39C10.84 9 10.33 8.24 9.73 8.12C9.12 8.01 8.47 8.15 7.76 8.57ZM7.09 6.91L6.93 7.41L5.93 8.41L5.43 8.57L6.43 9.57L6.59 9.07L7.59 8.07L8.09 7.91L7.09 6.91ZM13.75 5.75C13.96 6.34 14.13 6.76 14.25 7C14.62 7.73 15 7.93 15 8.5C15 9.07 14.38 9.5 13.75 9.5C13.13 9.5 12.5 9.07 12.5 8.5C12.5 7.93 12.88 7.73 13.25 7C13.37 6.76 13.54 6.34 13.75 5.75ZM2.61 5.74C3.38 6.21 3.82 6.78 3.95 7.44C4.08 8.1 4.24 8.7 4.43 9.24C4.85 8.53 5 7.87 4.88 7.27C4.76 6.66 4.01 6.15 2.61 5.74ZM9.09 4.91L8.92 5.41L7.92 6.41L7.43 6.58L8.42 7.57L8.59 7.08L9.59 6.08L10.09 5.91L9.09 4.91ZM9.92 1.76C9.46 1.3 8.72 1.3 8.26 1.76C7.89 2.13 7.81 2.68 8.04 3.13L8.64 3.21L9.65 3.36L10.58 2.42L9.92 1.76Z"/>
</svg>