<svg xmlns="http://www.w3.org/2000/svg" viewBox="0 0 15 15">
  <path fill="param(fill) #888" stroke="param(outline) #000" stroke-width="param(outline-width) 0" fill-opacity="param(fill-opacity) 1" stroke-opacity="param(outline-opacity) 1" d="M8.75 0C8.89 0 9 0.11 9 0.25L9 1L10.79 1C10.93 1 11.05 1.05 11.15 1.15C11.34 1.34 11.34 1.66 11.15 1.85L9.05 3.95L9.48 4.26C9.94 4.6 10.47 5 11.07 5.48C12.29 6.42 13 7.88 13 9.42L13 14C13 14.55 12.55 15 12 15L3 15C2.45 15 2 14.55 2 14L2 9.42C2 8.13 2.5 6.89 3.38 5.97C2.7 5.47 2.25 4.66 2.25 3.75C2.25 2.23 3.48 1 5 1L6 1L6 0.25C6 0.13 6.08 0.03 6.19 0.01L6.25 0L8.75 0ZM7.5 4.9L6.79 6.67L5.91 6.14L6.35 8.68L5.4 7.88L5.17 8.43C5.14 8.5 5.07 8.53 5 8.52L3.79 8.26L4.2 9.54C4.23 9.61 4.19 9.69 4.13 9.72L3.65 9.95L5.52 11.15L5.21 12.16L7.32 11.62L7.08 13.97C7.2 14.07 7.34 14.12 7.5 14.12C7.66 14.12 7.82 14.07 7.98 13.97L7.68 11.62L9.76 12.15L9.48 11.15L11.34 9.94L10.87 9.72C10.8 9.69 10.77 9.62 10.79 9.55L11.21 8.26L10 8.52C9.93 8.54 9.86 8.5 9.83 8.44L9.6 7.88L8.65 8.68L9.09 6.14L8.21 6.67L7.5 4.9ZM6 2.5L5 2.5C4.31 2.5 3.75 3.06 3.75 3.75C3.75 4.31 4.12 4.78 4.62 4.94L5.13 4.55C5.45 4.31 5.74 4.09 6 3.91L6 2.5Z"/>
</svg>