<svg xmlns="http://www.w3.org/2000/svg" viewBox="0 0 15 15">
  <path fill="param(fill) #888" stroke="param(outline) #000" stroke-width="param(outline-width) 0" fill-opacity="param(fill-opacity) 1" stroke-opacity="param(outline-opacity) 1" d="M2.5 5.5L2.5 7L6.5 7L7 11L8 11L8.5 7L12.5 7L12.5 5.5L2.5 5.5ZM0 4C0 6.89 0 9.22 0 11L1 11L1 9L3 9L3 11L4 11C4 10.33 4 9.33 4 8C2.67 8 1.67 8 1 8L1 4L0 4ZM14 4L14 8C13.33 8 12.33 8 11 8C11 9.33 11 10.33 11 11L12 11L12 9L14 9L14 11L15 11C15 8.33 15 6.67 15 4L14 4Z"/>
</svg>