<svg xmlns="http://www.w3.org/2000/svg" viewBox="0 0 15 15">
  <path fill="param(fill) #888" stroke="param(outline) #000" stroke-width="param(outline-width) 0" fill-opacity="param(fill-opacity) 1" stroke-opacity="param(outline-opacity) 1" d="M7.5 0L15 4L15 14L13 14L13 5.43L7.5 2.5L2 5.43L2 14L0 14L0 4L7.5 0ZM9.9 8.3C10.07 8.3 10.2 8.43 10.2 8.6L10.2 9.5C10.2 10.89 9.15 12.03 7.8 12.18L7.8 13.4L10.2 13.4L10.2 14L4.8 14L4.8 13.4L7.2 13.4L7.2 12.18C5.85 12.03 4.8 10.89 4.8 9.5L4.8 8.6C4.8 8.43 4.93 8.3 5.1 8.3C5.27 8.3 5.4 8.43 5.4 8.6L5.4 9.5C5.4 10.66 6.34 11.6 7.5 11.6C8.66 11.6 9.6 10.66 9.6 9.5L9.6 8.6C9.6 8.43 9.73 8.3 9.9 8.3ZM7.5 5C8.33 5 9 5.67 9 6.5L9 9.5C9 10.33 8.33 11 7.5 11C6.67 11 6 10.33 6 9.5L6 6.5C6 5.67 6.67 5 7.5 5Z"/>
</svg>