<svg xmlns="http://www.w3.org/2000/svg" viewBox="0 0 15 15">
  <path fill="param(fill) #888" stroke="param(outline) #000" stroke-width="param(outline-width) 0" fill-opacity="param(fill-opacity) 1" stroke-opacity="param(outline-opacity) 1" d="M11.5 5.5C11.78 5.5 12 5.72 12 6L12 7.5C12 9.82 10.25 11.72 8 11.97L8 14L12 14L12 15L3 15L3 14L7 14L7 11.97C4.75 11.72 3 9.82 3 7.5L3 6C3 5.72 3.22 5.5 3.5 5.5C3.78 5.5 4 5.72 4 6L4 7.5C4 9.43 5.57 11 7.5 11C9.43 11 11 9.43 11 7.5L11 6C11 5.72 11.22 5.5 11.5 5.5ZM7.5 0C8.88 0 10 1.12 10 2.5L10 7.5C10 8.88 8.88 10 7.5 10C6.12 10 5 8.88 5 7.5L5 2.5C5 1.12 6.12 0 7.5 0Z"/>
</svg>