<svg xmlns="http://www.w3.org/2000/svg" viewBox="0 0 15 15">
  <path fill="param(fill) #888" stroke="param(outline) #000" stroke-width="param(outline-width) 0" fill-opacity="param(fill-opacity) 1" stroke-opacity="param(outline-opacity) 1" d="M7.5 0L0 3L0 4L7 4L7 8.5L2.5 8.5L2.5 10L6.5 10L7 14L8 14L8.5 10L12.5 10L12.5 8.5L8 8.5L8 4L15 4L15 3L7.5 0ZM0 7C0 9.89 0 12.22 0 14L1 14L1 12L3 12L3 14L4 14C4 13.33 4 12.33 4 11C2.67 11 1.67 11 1 11L1 7L0 7ZM14 7L14 11C13.33 11 12.33 11 11 11C11 12.33 11 13.33 11 14L12 14L12 12L14 12L14 14L15 14C15 11.33 15 9.67 15 7L14 7Z"/>
</svg>