<svg xmlns="http://www.w3.org/2000/svg" viewBox="0 0 15 15">
  <path fill="param(fill) #888" stroke="param(outline) #000" stroke-width="param(outline-width) 0" fill-opacity="param(fill-opacity) 1" stroke-opacity="param(outline-opacity) 1" d="M6.05 1C6.32 1 6.57 1.1 6.76 1.29L14.71 9.24C15.1 9.63 15.1 10.26 14.71 10.65L10.65 14.71C10.26 15.1 9.63 15.1 9.24 14.71L1.29 6.76C1.1 6.57 1 6.32 1 6.05L1 1.99C1 1.44 1.44 1 1.99 1L6.05 1ZM9 5L8 5L8 6L6 6L6 11L8 11L8 12L9 12L9 11L9.53 11C9.94 11 10.32 10.83 10.6 10.53C11.13 9.94 11.09 9.03 10.5 8.5L10.61 8.39C10.84 8.13 10.97 7.79 10.97 7.44C10.97 6.64 10.33 6 9.53 6L9 6L9 5ZM8 8.8L8 10L7 10L7 8.8L8 8.8ZM9.34 8.8L9.83 9.24C10.01 9.4 10.02 9.68 9.86 9.86L9.8 9.91C9.73 9.97 9.63 10 9.53 10L9 10L9 8.8L9.34 8.8ZM8 7L8 8.2L7 8.2L7 7L8 7ZM9.53 7C9.77 7 9.97 7.2 9.97 7.44C9.97 7.56 9.92 7.68 9.83 7.76L9.34 8.2L9 8.2L9 7ZM3.98 2.49C3.16 2.49 2.49 3.16 2.49 3.98C2.49 4.8 3.16 5.47 3.98 5.47C4.8 5.47 5.47 4.8 5.47 3.98C5.47 3.16 4.8 2.49 3.98 2.49Z"/>
</svg>