<svg xmlns="http://www.w3.org/2000/svg" viewBox="0 0 15 15">
  <path fill="param(fill) #888" stroke="param(outline) #000" stroke-width="param(outline-width) 0" fill-opacity="param(fill-opacity) 1" stroke-opacity="param(outline-opacity) 1" d="M6.05 1C6.32 1 6.57 1.1 6.76 1.29L14.71 9.24C15.1 9.63 15.1 10.26 14.71 10.65L10.65 14.71C10.26 15.1 9.63 15.1 9.24 14.71L5.53 11L6.5 11L6.5 7L8 7C8.28 7 8.5 7.22 8.5 7.5L8.5 9.5L9.5 9.5L9.5 7.5C9.5 6.67 8.83 6 8 6L5.5 6L5.5 10.97L1.29 6.76C1.1 6.57 1 6.32 1 6.05L1 1.99C1 1.44 1.44 1 1.99 1L6.05 1ZM11 6L10 6L10 10L8.5 10C8.22 10 8 9.78 8 9.5L8 7.5L7 7.5L7 9.5C7 10.33 7.67 11 8.5 11L11 11L11 6ZM3.98 2.49C3.16 2.49 2.49 3.16 2.49 3.98C2.49 4.8 3.16 5.47 3.98 5.47C4.8 5.47 5.47 4.8 5.47 3.98C5.47 3.16 4.8 2.49 3.98 2.49Z"/>
</svg>