<svg xmlns="http://www.w3.org/2000/svg" viewBox="0 0 15 15">
  <path fill="param(fill) #888" stroke="param(outline) #000" stroke-width="param(outline-width) 0" fill-opacity="param(fill-opacity) 1" stroke-opacity="param(outline-opacity) 1" d="M6.05 1C6.32 1 6.57 1.1 6.76 1.29L14.71 9.24C15.1 9.63 15.1 10.26 14.71 10.65L10.65 14.71C10.26 15.1 9.63 15.1 9.24 14.71L6.53 12L7 12L7 10L8 10C9.02 10 9.91 9.38 10.29 8.5L11 8.5L11 7.75L10.49 7.75C10.5 7.67 10.5 7.58 10.5 7.5C10.5 7.42 10.5 7.33 10.49 7.25L11 7.25L11 6.5L10.29 6.5C9.91 5.62 9.03 5 8 5L6 5L6 6.5L5 6.5L5 7.25L6 7.25L6 7.75L5 7.75L5 8.5L6 8.5L6 11.47L1.29 6.76C1.1 6.57 1 6.32 1 6.05L1 1.99C1 1.44 1.44 1 1.99 1L6.05 1ZM7 8.5L9.12 8.5C8.84 8.81 8.44 9 8 9L7 9L7 8.5ZM7 7.25L9.48 7.25C9.49 7.33 9.5 7.41 9.5 7.5C9.5 7.59 9.49 7.67 9.48 7.75L7 7.75L7 7.25ZM8 6C8.44 6 8.84 6.19 9.12 6.5L7 6.5L7 6L8 6ZM3.98 2.49C3.16 2.49 2.49 3.16 2.49 3.98C2.49 4.8 3.16 5.47 3.98 5.47C4.8 5.47 5.47 4.8 5.47 3.98C5.47 3.16 4.8 2.49 3.98 2.49Z"/>
</svg>