<svg xmlns="http://www.w3.org/2000/svg" viewBox="0 0 15 15">
  <path fill="param(fill) #888" stroke="param(outline) #000" stroke-width="param(outline-width) 0" fill-opacity="param(fill-opacity) 1" stroke-opacity="param(outline-opacity) 1" d="M7.67 1C7.91 1 8.14 1.1 8.31 1.27L14.73 7.69C15.09 8.04 15.09 8.62 14.73 8.98L10.98 12.73C10.62 13.09 10.04 13.09 9.69 12.73L9.58 12.63L13.23 8.98C13.56 8.65 13.59 8.14 13.31 7.78L13.23 7.69L6.81 1.27C6.64 1.1 6.41 1 6.17 1L7.67 1ZM4.67 1C4.91 1 5.14 1.1 5.31 1.27L11.73 7.69C12.09 8.04 12.09 8.62 11.73 8.98L7.98 12.73C7.62 13.09 7.04 13.09 6.69 12.73L0.27 6.31C0.1 6.14 0 5.91 0 5.67L0 1.92C0 1.41 0.41 1 0.92 1L4.67 1ZM3 2.75C2.31 2.75 1.75 3.31 1.75 4C1.75 4.69 2.31 5.25 3 5.25C3.69 5.25 4.25 4.69 4.25 4C4.25 3.31 3.69 2.75 3 2.75Z"/>
</svg>