<svg xmlns="http://www.w3.org/2000/svg" viewBox="0 0 15 15">
  <path fill="param(fill) #888" stroke="param(outline) #000" stroke-width="param(outline-width) 0" fill-opacity="param(fill-opacity) 1" stroke-opacity="param(outline-opacity) 1" d="M7.5 0a7.5 7.5 0 0 0 -7.5 7.5a7.5 7.5 0 0 0 7.5 7.5a7.5 7.5 0 0 0 7.5 -7.5a7.5 7.5 0 0 0 -7.5 -7.5zm0 2a5.5 5.5 0 0 1 5.5 5.5a5.5 5.5 0 0 1 -5.5 5.5a5.5 5.5 0 0 1 -5.5 -5.5a5.5 5.5 0 0 1 5.5 -5.5zm0 1.5a4 4 0 0 0 -4 4a4 4 0 0 0 4 4a4 4 0 0 0 4 -4a4 4 0 0 0 -4 -4zm0 1.5a2.5 2.5 0 0 1 2.5 2.5a2.5 2.5 0 0 1 -2.5 2.5a2.5 2.5 0 0 1 -2.5 -2.5a2.5 2.5 0 0 1 2.5 -2.5zm0 1.5a1 1 0 0 0 -1 1a1 1 0 0 0 1 1a1 1 0 0 0 1 -1a1 1 0 0 0 -1 -1z"/>
</svg>