<?xml version="1.0" encoding="UTF-8"?>
<svg viewBox="0 0 15 15" version="1.1" xmlns="http://www.w3.org/2000/svg" xmlns:xlink="http://www.w3.org/1999/xlink">
  <path fill="param(fill) #888" stroke="param(outline) #000" stroke-width="param(outline-width) 0" fill-opacity="param(fill-opacity) 1" stroke-opacity="param(outline-opacity) 1" d="M6.41 2.03C5.43 0.69 3.56 0.39 2.22 1.36C1.99 1.53 1.94 1.84 2.11 2.06C2.26 2.26 2.52 2.33 2.73 2.22L2.8 2.17C3.7 1.52 4.95 1.72 5.6 2.62L0.34 6.44C0.12 6.6 0.07 6.91 0.23 7.13C0.39 7.36 0.7 7.41 0.93 7.25L1.33 6.95L3.1 9.38L3.5 9.08L4.09 9.89L3.28 10.48C3.06 10.64 3.01 10.96 3.17 11.18C3.33 11.4 3.64 11.45 3.87 11.29L9.12 7.47L9.71 8.28L9.31 8.57C9.08 8.74 9.04 9.05 9.2 9.27L11.55 12.51C11.71 12.73 12.02 12.78 12.25 12.62L12.65 12.32L13.24 13.13L14.82 14.46L14.05 12.55L13.46 11.74L13.87 11.44C14.09 11.28 14.14 10.97 13.98 10.74L11.62 7.51C11.46 7.28 11.15 7.24 10.93 7.4L10.52 7.69L9.93 6.88L11.55 5.71L11.85 6.11C12.01 6.33 12.32 6.38 12.54 6.22L13.35 5.63C13.58 5.47 13.63 5.16 13.46 4.94L12.29 3.32C12.13 3.09 11.81 3.04 11.59 3.21L10.78 3.79C10.56 3.96 10.51 4.27 10.67 4.49L10.96 4.9L9.35 6.07L6.99 2.84L7.4 2.54C7.62 2.38 7.67 2.07 7.51 1.84C7.35 1.62 7.04 1.57 6.81 1.73L6.41 2.03ZM6.19 3.42L8.54 6.66L7.32 7.54L6.74 6.73L7.14 6.44L5.38 4.01L6.19 3.42ZM2.95 5.78L3.76 5.19L5.52 7.62L5.93 7.32L6.51 8.13L4.9 9.31L4.31 8.5L4.71 8.2L2.95 5.78Z"/>
</svg>