<svg xmlns="http://www.w3.org/2000/svg" viewBox="0 0 15 15">
  <path fill="param(fill) #888" stroke="param(outline) #000" stroke-width="param(outline-width) 0" fill-opacity="param(fill-opacity) 1" stroke-opacity="param(outline-opacity) 1" d="M8.11 4.5C8.34 4.5 8.54 4.66 8.59 4.88L9 6.5L9.64 6.5C9.85 6.5 10.04 6.64 10.11 6.84L11 9.5C11.55 9.5 12 9.95 12 10.5L12 13.5L11 13.5L11 14C11 14.55 10.55 15 10 15C9.45 15 9 14.55 9 14L9 13.5L6 13.5L6 14C6 14.55 5.55 15 5 15C4.45 15 4 14.55 4 14L4 13.5L3 13.5L3 10.5C3 9.95 3.45 9.5 4 9.5L4.89 6.84C4.96 6.64 5.15 6.5 5.36 6.5L6 6.5L6.41 4.88C6.46 4.66 6.66 4.5 6.89 4.5L8.11 4.5ZM5 10.5C4.45 10.5 4 10.95 4 11.5C4 12.05 4.45 12.5 5 12.5C5.55 12.5 6 12.05 6 11.5C6 10.95 5.55 10.5 5 10.5ZM5 9.5L10 9.5L9.38 7.5L5.62 7.5L5 9.5ZM10 12.5C10.55 12.5 11 12.05 11 11.5C11 10.95 10.55 10.5 10 10.5C9.45 10.5 9 10.95 9 11.5C9 12.05 9.45 12.5 10 12.5ZM6.5 2L6.5 4L4.5 4L4.5 2L6.5 2ZM10.5 2L10.5 4L8.5 4L8.5 2L10.5 2ZM4.5 0L4.5 2L2.5 2L2.5 0L4.5 0ZM8.5 0L8.5 2L6.5 2L6.5 0L8.5 0ZM12.5 0L12.5 2L10.5 2L10.5 0L12.5 0Z"/>
</svg>