<svg xmlns="http://www.w3.org/2000/svg" viewBox="0 0 15 15">
  <path fill="param(fill) #888" stroke="param(outline) #000" stroke-width="param(outline-width) 0" fill-opacity="param(fill-opacity) 1" stroke-opacity="param(outline-opacity) 1" d="M0.5 10C0.22 10 0 10.22 0 10.5L0 12L15 12L15 10.5C15 10.22 14.78 10 14.5 10L0.5 10ZM9.5 3C9.78 3 10 2.78 10 2.5C10 2.22 9.78 2 9.5 2L7.5 2C7.22 2 7 2.22 7 2.5C7 2.78 7.22 3 7.5 3L8 3L8 3.89L7.54 3.81C6.91 3.69 6.27 3.56 5.95 3.49C5.26 3.34 4.57 3.18 3.87 3.04C3.73 3.02 3.59 3.01 3.44 3.01L0.5 3C0.25 3 0.05 3.18 0.01 3.41L0 3.5C0 3.78 0.22 4.01 0.5 4.02L2.05 4.11C3.63 4.21 4.65 4.31 5.09 4.41L5.17 4.42C5.73 4.57 6.31 4.69 6.88 4.82C7.09 4.86 7.3 4.87 7.52 4.9L7.27 5.21C7.23 5.27 7.19 5.32 7.15 5.37C6.73 5.95 6.32 7.09 5.88 7.66C5.3 8.4 4.61 9 3.75 9.38L3.48 9.49C3.47 9.5 3.45 9.51 3.4 9.53L7.5 9.5L7.5 9C7.5 8.45 7.95 8 8.5 8L9.5 8L9.5 6.5C9.5 5.67 10.17 5 11 5C11.83 5 12.5 5.67 12.5 6.5L12.5 8L14 8L14 5L14.5 5C14.78 5 15 4.78 15 4.5C15 4.22 14.78 4 14.5 4L14 4L14 3L14.5 3C14.78 3 15 2.78 15 2.5C15 2.22 14.78 2 14.5 2L12.5 2C12.22 2 12 2.22 12 2.5C12 2.78 12.22 3 12.5 3L13 3L13 4L9 4L9 3L9.5 3ZM8.5 8.5C8.22 8.5 8 8.72 8 9L8 9.5L14.5 9.5L14.5 9C14.5 8.72 14.28 8.5 14 8.5L8.5 8.5ZM11 5.5C10.45 5.5 10 5.95 10 6.5C10 7.05 10.45 7.5 11 7.5C11.55 7.5 12 7.05 12 6.5C12 5.95 11.55 5.5 11 5.5Z"/>
</svg>