<svg xmlns="http://www.w3.org/2000/svg" viewBox="0 0 15 15">
  <path fill="param(fill) #888" stroke="param(outline) #000" stroke-width="param(outline-width) 0" fill-opacity="param(fill-opacity) 1" stroke-opacity="param(outline-opacity) 1" d="M5 0.25L5 14.75L2 14.75L2 3.92L0 5.25L0 2.25L3 0.25L5 0.25ZM10.5 0C12.99 0 15 2.01 15 4.5L15 10.5C15 12.99 12.99 15 10.5 15C8.01 15 6 12.99 6 10.5L6 4.5C6 2.01 8.01 0 10.5 0ZM10.5 3C9.67 3 9 3.67 9 4.5L9 10.5C9 11.33 9.67 12 10.5 12C11.33 12 12 11.33 12 10.5L12 4.5C12 3.67 11.33 3 10.5 3Z"/>
</svg>