<svg xmlns="http://www.w3.org/2000/svg" viewBox="0 0 15 15">
  <path fill="param(fill) #888" stroke="param(outline) #000" stroke-width="param(outline-width) 0" fill-opacity="param(fill-opacity) 1" stroke-opacity="param(outline-opacity) 1" d="M15 5L15 5.71L14.71 5.71L14.33 6.57L13.97 6.3L13.45 6.84L13.17 6.57L11.82 7.95L11.36 7.95L10.78 8.2L10.78 8.74L10.31 8.74L10.31 9.5L0 9.5L0.3 9.01L0.3 8.45L0.63 7.95L0.63 7.47L1.17 6.84L1.43 5.49L4.06 5.49L4.06 5L6.47 5L6.14 6.01L5 6.01L5.92 6.76L5.5 8L6.5 7.25L7.5 8L7.08 6.76L8 6.01L6.86 6.01L6.53 5z"/>
</svg>