<svg xmlns="http://www.w3.org/2000/svg" viewBox="0 0 15 15">
  <path fill="param(fill) #888" stroke="param(outline) #000" stroke-width="param(outline-width) 0" fill-opacity="param(fill-opacity) 1" stroke-opacity="param(outline-opacity) 1" d="M7.5 0.5c-1.65 0 -3.3 0.11 -4.95 0.32c-0.9 0.11 -1.62 0.82 -1.73 1.72c-0.21 1.66 -0.32 3.31 -0.32 4.96s0.11 3.3 0.32 4.95c0.11 0.9 0.82 1.62 1.72 1.73c1.66 0.21 3.31 0.32 4.96 0.32s3.3 -0.11 4.95 -0.32c0.9 -0.11 1.62 -0.82 1.73 -1.72c0.21 -1.66 0.32 -3.31 0.32 -4.96s-0.11 -3.3 -0.32 -4.95c-0.11 -0.9 -0.82 -1.62 -1.72 -1.73c-1.66 -0.21 -3.31 -0.32 -4.96 -0.32zm-3.5 1.5h1v1h1c0.5 0 1 0.5 1 1h-2v1h0.5c0.83 0 1.5 0.67 1.5 1.5s-0.67 1.5 -1.5 1.5h-0.5v1h-1v-1h-1c-0.5 0 -1 -0.5 -1 -1h2v-1h-0.5c-0.83 0 -1.5 -0.67 -1.5 -1.5s0.67 -1.5 1.5 -1.5h0.5v-1zm-0.5 2c-0.28 0 -0.5 0.22 -0.5 0.5s0.22 0.5 0.5 0.5h0.5v-1h-0.5zm1.5 2v1h0.5c0.28 0 0.5 -0.22 0.5 -0.5s-0.22 -0.5 -0.5 -0.5h-0.5zm3 2h5v1h-5v-1z"/>
</svg>