<?xml version="1.0" encoding="UTF-8"?>
<svg viewBox="0 0 15 15" version="1.1" xmlns="http://www.w3.org/2000/svg" xmlns:xlink="http://www.w3.org/1999/xlink">
  <path fill="param(fill) #888" stroke="param(outline) #000" stroke-width="param(outline-width) 0" fill-opacity="param(fill-opacity) 1" stroke-opacity="param(outline-opacity) 1" d="M15 9.21C15 10.48 13.97 11.5 12.69 11.5L2.31 11.5C1.03 11.5 0 10.48 0 9.21L0 5.79C0 4.52 1.03 3.5 2.31 3.5L12.69 3.5C13.97 3.5 15 4.52 15 5.79L15 9.21ZM4.5 7.5C4.5 6.67 3.83 6 3 6C2.17 6 1.5 6.67 1.5 7.5C1.5 8.33 2.17 9 3 9C3.83 9 4.5 8.33 4.5 7.5ZM9 7.5C9 6.67 8.33 6 7.5 6C6.67 6 6 6.67 6 7.5C6 8.33 6.67 9 7.5 9C8.33 9 9 8.33 9 7.5ZM13.5 7.5C13.5 6.67 12.83 6 12 6C11.17 6 10.5 6.67 10.5 7.5C10.5 8.33 11.17 9 12 9C12.83 9 13.5 8.33 13.5 7.5Z"/>
</svg>