<svg xmlns="http://www.w3.org/2000/svg" viewBox="0 0 15 15">
  <path fill="param(fill) #888" stroke="param(outline) #000" stroke-width="param(outline-width) 0" fill-opacity="param(fill-opacity) 1" stroke-opacity="param(outline-opacity) 1" d="M3.57 6L3.57 4L5 4C5.56 4 6 3.55 6 3C6 2.45 5.56 2 5 2L3.67 2C3.12 2 2.67 2.45 2.67 3L0.67 3C0.67 1.34 2.01 0 3.67 0L5 0C6.66 0 8 1.34 8 3C8 3.77 7.71 4.47 7.24 5C7.71 5.53 8 6.23 8 7C8 8.66 6.66 10 5 10L3.67 10C2.01 10 0.67 8.66 0.67 7L2.67 7C2.67 7.55 3.12 8 3.67 8L5 8C5.56 8 6 7.55 6 7C6 6.45 5.56 6 5 6L3.57 6ZM12 11C12.67 12.33 13.42 13 14.25 13C14.51 13 14.76 12.94 15 12.81L15 14.86C14.76 14.95 14.51 15 14.25 15C13.42 15 12.67 14.5 12 13.5C11.33 14.5 10.58 15 9.75 15C8.92 15 8.17 14.5 7.5 13.5C6.83 14.5 6.08 15 5.25 15C4.42 15 3.67 14.5 3 13.5C2.33 14.5 1.58 15 0.75 15C0.49 15 0.24 14.95 0 14.86L0 12.81C0.24 12.94 0.49 13 0.75 13C1.58 13 2.33 12.33 3 11C3.67 12.33 4.42 13 5.25 13C6.08 13 6.83 12.33 7.5 11C8.17 12.33 8.92 13 9.75 13C10.58 13 11.33 12.33 12 11ZM13 2L13 4L15 4L15 6L13 6L13 8L11 8L11 6L9 6L9 4L11 4L11 2L13 2Z"/>
</svg>