<svg xmlns="http://www.w3.org/2000/svg" viewBox="0 0 15 15">
  <path fill="param(fill) #888" stroke="param(outline) #000" stroke-width="param(outline-width) 0" fill-opacity="param(fill-opacity) 1" stroke-opacity="param(outline-opacity) 1" d="M6.57 6L6.57 4L8 4C8.56 4 9 3.55 9 3C9 2.45 8.56 2 8 2L6.67 2C6.12 2 5.67 2.45 5.67 3L3.67 3C3.67 1.34 5.01 0 6.67 0L8 0C9.66 0 11 1.34 11 3C11 3.77 10.71 4.47 10.24 5C10.71 5.53 11 6.23 11 7C11 8.66 9.66 10 8 10L6.67 10C5.01 10 3.67 8.66 3.67 7L5.67 7C5.67 7.55 6.12 8 6.67 8L8 8C8.56 8 9 7.55 9 7C9 6.45 8.56 6 8 6L6.57 6ZM12 11C12.67 12.33 13.42 13 14.25 13C14.51 13 14.76 12.94 15 12.81L15 14.86C14.76 14.95 14.51 15 14.25 15C13.42 15 12.67 14.5 12 13.5C11.33 14.5 10.58 15 9.75 15C8.92 15 8.17 14.5 7.5 13.5C6.83 14.5 6.08 15 5.25 15C4.42 15 3.67 14.5 3 13.5C2.33 14.5 1.58 15 0.75 15C0.49 15 0.24 14.95 0 14.86L0 12.81C0.24 12.94 0.49 13 0.75 13C1.58 13 2.33 12.33 3 11C3.67 12.33 4.42 13 5.25 13C6.08 13 6.83 12.33 7.5 11C8.17 12.33 8.92 13 9.75 13C10.58 13 11.33 12.33 12 11Z"/>
</svg>