<svg xmlns="http://www.w3.org/2000/svg" viewBox="0 0 15 15">
  <path fill="param(fill) #888" stroke="param(outline) #000" stroke-width="param(outline-width) 0" fill-opacity="param(fill-opacity) 1" stroke-opacity="param(outline-opacity) 1" d="M3.57 8L3.57 6L5 6C5.56 6 6 5.55 6 5C6 4.45 5.56 4 5 4L3.67 4C3.12 4 2.67 4.45 2.67 5L0.67 5C0.67 3.34 2.01 2 3.67 2L5 2C6.66 2 8 3.34 8 5C8 5.77 7.71 6.47 7.24 7C7.71 7.53 8 8.23 8 9C8 10.66 6.66 12 5 12L3.67 12C2.01 12 0.67 10.66 0.67 9L2.67 9C2.67 9.55 3.12 10 3.67 10L5 10C5.56 10 6 9.55 6 9C6 8.45 5.56 8 5 8L3.57 8ZM9 6H14.5V8H9V6z"/>
</svg>