<svg xmlns="http://www.w3.org/2000/svg" viewBox="0 0 15 15">
  <path fill="param(fill) #888" stroke="param(outline) #000" stroke-width="param(outline-width) 0" fill-opacity="param(fill-opacity) 1" stroke-opacity="param(outline-opacity) 1" d="M6.36 9L6.36 6L8.5 6C9.33 6 10 5.33 10 4.5C10 3.67 9.33 3 8.5 3L6.5 3C5.67 3 5 3.67 5 4.5L2 4.5C2 2.01 4.01 0 6.5 0L8.5 0C10.99 0 13 2.01 13 4.5C13 5.65 12.57 6.7 11.85 7.5C12.57 8.3 13 9.35 13 10.5C13 12.99 10.99 15 8.5 15L6.5 15C4.01 15 2 12.99 2 10.5L5 10.5C5 11.33 5.67 12 6.5 12L8.5 12C9.33 12 10 11.33 10 10.5C10 9.67 9.33 9 8.5 9L6.36 9Z"/>
</svg>