<?xml version="1.0" encoding="UTF-8"?>
<svg viewBox="0 0 15 15" version="1.1" xmlns="http://www.w3.org/2000/svg" xmlns:xlink="http://www.w3.org/1999/xlink">
  <path fill="param(fill) #888" stroke="param(outline) #000" stroke-width="param(outline-width) 0" fill-opacity="param(fill-opacity) 1" stroke-opacity="param(outline-opacity) 1" d="M5.5 2C5.5 3.1 6.4 4 7.5 4C8.6 4 9.5 3.1 9.5 2C9.5 0.9 8.6 0 7.5 0C6.4 0 5.5 0.9 5.5 2ZM5.5 7.5C5.5 8.6 6.4 9.5 7.5 9.5C8.6 9.5 9.5 8.6 9.5 7.5C9.5 6.4 8.6 5.5 7.5 5.5C6.4 5.5 5.5 6.4 5.5 7.5ZM5.5 13C5.5 14.1 6.4 15 7.5 15C8.6 15 9.5 14.1 9.5 13C9.5 11.9 8.6 11 7.5 11C6.4 11 5.5 11.9 5.5 13Z"/>
</svg>