<svg xmlns="http://www.w3.org/2000/svg" viewBox="0 0 15 15">
  <path fill="param(fill) #888" stroke="param(outline) #000" stroke-width="param(outline-width) 0" fill-opacity="param(fill-opacity) 1" stroke-opacity="param(outline-opacity) 1" d="M0 7.04L3.28 7.04L3.28 13.54L0 13.54L0 7.04ZM15 7.54C15 7.01 14.56 6.57 14.02 6.57L9.84 6.57L9.84 5.18L10.78 5.18L10.78 4.66C10.77 3.78 10.77 3.28 10.62 2.49C10.36 1.17 9.8 1 9.49 1C9.05 1 8.79 1.39 8.79 1.78L8.79 1.96C8.79 4.96 7.18 7.44 4.69 7.5L4.69 13.07L4.8 13.07C5.5 13.07 5.97 13.09 6.51 13.32L6.68 13.4C7.35 13.69 8.12 14 9.38 14L12.66 14C12.83 14 12.9 13.98 12.94 13.94C13.32 13.81 13.59 13.45 13.59 13.03C13.59 12.66 13.37 12.33 13.06 12.17L13.08 12.17C13.62 12.17 14.06 11.73 14.06 11.2C14.06 10.83 13.84 10.5 13.53 10.34L13.55 10.34C14.09 10.34 14.53 9.9 14.53 9.37C14.53 9 14.31 8.67 14 8.51L14.02 8.51C14.55 8.51 15 8.08 15 7.54L15 7.54Z"/>
</svg>