<svg xmlns="http://www.w3.org/2000/svg" viewBox="0 0 15 15">
  <path fill="param(fill) #888" stroke="param(outline) #000" stroke-width="param(outline-width) 0" fill-opacity="param(fill-opacity) 1" stroke-opacity="param(outline-opacity) 1" d="M7.5 0.5h1.5l-1.85 3.04l4.6 8.46h0.75c0.28 0 0.5 0.22 0.5 0.5v1c0 0.28 -0.22 0.5 -0.5 0.5h-12c-0.28 0 -0.5 -0.22 -0.5 -0.5v-1c0 -0.28 0.22 -0.5 0.5 -0.5h0.75l4.6 -8.46l-1.85 -3.04h1.5l1 1.84zm-1 6.5l-2.5 5h5zm6.5 -7v1h1c0.5 0 1 0.5 1 1h-2v1h0.5c0.83 0 1.5 0.67 1.5 1.5s-0.67 1.5 -1.5 1.5h-0.5v1h-1v-1h-1c-0.5 0 -1 -0.5 -1 -1h2v-1h-0.5c-0.83 0 -1.5 -0.67 -1.5 -1.5s0.67 -1.5 1.5 -1.5h0.5v-1zm0 5h0.5c0.28 0 0.5 -0.22 0.5 -0.5s-0.22 -0.5 -0.5 -0.5h-0.5zm-1 -2v-1h-0.5c-0.28 0 -0.5 0.22 -0.5 0.5s0.22 0.5 0.5 0.5z"/>
</svg>