<svg xmlns="http://www.w3.org/2000/svg" viewBox="0 0 15 15">
  <path fill="param(fill) #888" stroke="param(outline) #000" stroke-width="param(outline-width) 0" fill-opacity="param(fill-opacity) 1" stroke-opacity="param(outline-opacity) 1" d="M5.5 0.5L6.5 2.34L7.5 0.5L9 0.5L7.15 3.54L11.75 12L12.5 12C12.78 12 13 12.22 13 12.5L13 13.5C13 13.78 12.78 14 12.5 14L0.5 14C0.22 14 0 13.78 0 13.5L0 12.5C0 12.22 0.22 12 0.5 12L1.25 12L5.85 3.54L4 0.5L5.5 0.5ZM6.5 7L4 12L9 12L6.5 7ZM12 0C13.03 0 13.91 0.62 14.29 1.5L15 1.5L15 2.25L14.49 2.25C14.5 2.33 14.5 2.42 14.5 2.5C14.5 2.58 14.5 2.67 14.49 2.75L15 2.75L15 3.5L14.29 3.5C13.91 4.38 13.02 5 12 5L11 5L11 7L10 7L10 3.5L9 3.5L9 2.75L10 2.75L10 2.25L9 2.25L9 1.5L10 1.5L10 0L12 0ZM11 3.5L11 4L12 4C12.44 4 12.84 3.81 13.12 3.5L11 3.5ZM13.48 2.25L11 2.25L11 2.75L13.48 2.75C13.49 2.67 13.5 2.59 13.5 2.5C13.5 2.41 13.49 2.33 13.48 2.25ZM12 1L11 1L11 1.5L13.12 1.5C12.84 1.19 12.44 1 12 1Z"/>
</svg>