<svg xmlns="http://www.w3.org/2000/svg" viewBox="0 0 15 15">
  <path fill="param(fill) #888" stroke="param(outline) #000" stroke-width="param(outline-width) 0" fill-opacity="param(fill-opacity) 1" stroke-opacity="param(outline-opacity) 1" d="M5.5 0.5L6.5 2.34L7.5 0.5L9 0.5L7.15 3.54L11.75 12L12.5 12C12.78 12 13 12.22 13 12.5L13 13.5C13 13.78 12.78 14 12.5 14L0.5 14C0.22 14 0 13.78 0 13.5L0 12.5C0 12.22 0.22 12 0.5 12L1.25 12L5.85 3.54L4 0.5L5.5 0.5ZM6.5 7L4 12L9 12L6.5 7ZM13 0C14.1 0 15 0.9 15 2C15 3.1 14.1 4 13 4L12 4L12 5L14 5L14 6L12 6L12 7.5L11 7.5L11 6L10 6L10 5L11 5L11 4L10 4L10 3L11 3L11 0L13 0ZM13 1L12 1L12 3L13 3C13.55 3 14 2.55 14 2C14 1.45 13.55 1 13 1Z"/>
</svg>