<svg xmlns="http://www.w3.org/2000/svg" viewBox="0 0 15 15">
  <path fill="param(fill) #888" stroke="param(outline) #000" stroke-width="param(outline-width) 0" fill-opacity="param(fill-opacity) 1" stroke-opacity="param(outline-opacity) 1" d="M1.75 9.07C2.22 9.77 2.58 10.33 2.84 10.77C2.88 10.84 2.91 10.91 2.95 10.97L2.88 10.84C3 11.06 3.1 11.25 3.17 11.4C3.21 11.47 3.24 11.54 3.27 11.61L3.17 11.4C3.22 11.5 3.27 11.61 3.31 11.71C3.32 11.75 3.33 11.78 3.34 11.82C3.36 11.85 3.37 11.89 3.38 11.92C3.39 11.96 3.4 12 3.41 12.04C3.42 12.07 3.42 12.09 3.43 12.11C3.44 12.14 3.44 12.17 3.45 12.2C3.48 12.37 3.5 12.54 3.5 12.7C3.5 13.2 3.33 13.63 2.99 13.98C2.64 14.34 2.23 14.51 1.75 14.51C1.27 14.51 0.86 14.34 0.51 13.98C0.17 13.63 0 13.2 0 12.7C0 12.29 0.11 11.86 0.33 11.4C0.41 11.23 0.52 11.02 0.66 10.77C0.92 10.33 1.28 9.77 1.75 9.07ZM13.25 7.73C13.72 8.43 14.08 8.99 14.34 9.43C14.48 9.68 14.59 9.89 14.67 10.06C14.89 10.52 15 10.95 15 11.36C15 11.86 14.83 12.29 14.49 12.64C14.14 13 13.73 13.17 13.25 13.17C12.77 13.17 12.36 13 12.01 12.64C11.84 12.46 11.71 12.27 11.63 12.05L11.7 12.2C11.57 11.95 11.5 11.67 11.5 11.36C11.5 10.95 11.61 10.52 11.83 10.06C11.84 10.03 11.86 9.99 11.87 9.96L11.83 10.06C11.91 9.89 12.02 9.68 12.16 9.43C12.42 8.99 12.78 8.43 13.25 7.73ZM7.5 6.8C8.76 6.8 10.11 7.49 11 8.5C11.11 8.63 11.22 8.76 11.32 8.9L11.3 8.93C11.14 9.2 11.02 9.43 10.92 9.63C10.65 10.22 10.5 10.79 10.5 11.36C10.5 11.65 10.54 11.93 10.62 12.2L4.46 12.2C4.4 11.8 4.27 11.38 4.08 10.97C3.98 10.77 3.86 10.54 3.7 10.27C3.58 10.07 3.44 9.84 3.28 9.59C3.47 9.2 3.7 8.84 4 8.5C4.89 7.49 6.24 6.8 7.5 6.8ZM5.2 3.04L6.68 3.33C6.61 3.67 6.43 4.16 6.11 4.61C5.79 5.08 5.29 5.55 4.56 5.74C3.82 5.94 3.15 5.78 2.64 5.54C2.14 5.31 1.74 4.97 1.51 4.71L2.64 3.73C2.75 3.84 2.98 4.05 3.27 4.18C3.56 4.32 3.87 4.37 4.17 4.29C4.47 4.21 4.7 4.02 4.89 3.75C5.08 3.48 5.17 3.19 5.2 3.04ZM9.8 3.04C9.83 3.19 9.93 3.48 10.11 3.75C10.3 4.02 10.54 4.21 10.83 4.29C11.13 4.37 11.44 4.32 11.73 4.18C12.03 4.05 12.26 3.84 12.36 3.73L13.49 4.71C13.26 4.97 12.86 5.31 12.36 5.54C11.85 5.78 11.18 5.94 10.45 5.74C9.71 5.55 9.21 5.08 8.89 4.61C8.57 4.16 8.39 3.67 8.33 3.33L9.8 3.04Z"/>
</svg>