<svg xmlns="http://www.w3.org/2000/svg" viewBox="0 0 15 15">
  <path fill="param(fill) #888" stroke="param(outline) #000" stroke-width="param(outline-width) 0" fill-opacity="param(fill-opacity) 1" stroke-opacity="param(outline-opacity) 1" d="M4.5 2.3C7.37 0.65 11.04 1.63 12.7 4.5C13.14 5.27 13.39 6.1 13.47 6.93C14.02 7.84 14.4 8.52 14.6 8.97C14.66 9.11 14.71 9.24 14.76 9.38C15.24 7.54 15.02 5.52 13.99 3.75C11.92 0.16 7.34 -1.06 3.75 1.01C0.48 2.89 -0.83 6.87 0.53 10.27C0.73 9.84 1.08 9.22 1.57 8.41C1.21 6.04 2.3 3.58 4.5 2.3ZM11.25 13.99C8.71 15.46 5.67 15.27 3.38 13.77C3.44 13.71 3.5 13.65 3.56 13.59C3.85 13.26 4.04 12.88 4.11 12.45C5.96 13.71 8.44 13.89 10.5 12.7C10.78 12.53 11.05 12.35 11.29 12.15C11.33 12.2 11.37 12.24 11.41 12.29C11.76 12.68 12.17 12.9 12.64 12.96C12.23 13.35 11.76 13.7 11.25 13.99ZM12.01 9.12C12.22 8.76 12.51 8.3 12.89 7.73C13.27 8.3 13.57 8.76 13.77 9.12C13.89 9.32 13.98 9.49 14.05 9.62C14.23 10 14.32 10.35 14.32 10.68C14.32 11.09 14.18 11.44 13.9 11.72C13.62 12.01 13.28 12.16 12.89 12.16C12.5 12.16 12.17 12.01 11.89 11.72C11.61 11.44 11.47 11.09 11.47 10.68C11.47 10.35 11.56 10 11.74 9.62C11.8 9.49 11.89 9.32 12.01 9.12ZM1.12 10.46C1.33 10.1 1.63 9.64 2 9.07C2.38 9.64 2.68 10.1 2.89 10.46C3.01 10.66 3.1 10.83 3.16 10.96C3.34 11.34 3.43 11.69 3.43 12.02C3.43 12.43 3.29 12.78 3.01 13.07C2.73 13.35 2.4 13.5 2 13.5C1.61 13.5 1.28 13.35 1 13.07C0.72 12.78 0.58 12.43 0.58 12.02C0.58 11.69 0.67 11.34 0.85 10.96C0.91 10.83 1 10.66 1.12 10.46ZM5.61 4.93C5.75 4.73 5.82 4.51 5.84 4.39L6.95 4.61C6.9 4.87 6.77 5.23 6.53 5.57C6.28 5.92 5.91 6.27 5.36 6.42C4.81 6.57 4.31 6.45 3.92 6.27C3.54 6.1 3.25 5.84 3.08 5.65L3.92 4.91C4 5 4.17 5.15 4.4 5.25C4.62 5.35 4.84 5.39 5.07 5.33C5.29 5.27 5.47 5.12 5.61 4.93ZM8.61 5.57C8.37 5.23 8.24 4.87 8.19 4.61L9.29 4.39C9.31 4.51 9.39 4.73 9.53 4.93C9.67 5.12 9.84 5.27 10.07 5.33C10.29 5.39 10.52 5.35 10.74 5.25C10.96 5.15 11.13 5 11.21 4.91L12.06 5.65C11.89 5.84 11.59 6.1 11.21 6.27C10.83 6.45 10.32 6.57 9.78 6.42C9.23 6.27 8.85 5.92 8.61 5.57ZM4.38 10.5L4.38 11L10.76 11L10.76 10.5C10.76 9.65 10.42 8.84 9.82 8.24C9.22 7.65 8.41 7.31 7.57 7.31C6.72 7.31 5.91 7.65 5.31 8.24C4.71 8.84 4.38 9.65 4.38 10.5Z"/>
</svg>