<svg xmlns="http://www.w3.org/2000/svg" viewBox="0 0 15 15">
  <path fill="param(fill) #888" stroke="param(outline) #000" stroke-width="param(outline-width) 0" fill-opacity="param(fill-opacity) 1" stroke-opacity="param(outline-opacity) 1" d="M7.5 0C8.9 0 10.21 0.38 11.33 1.05C11 1.55 10.77 1.94 10.63 2.23C10.38 2.74 10.25 3.25 10.25 3.75C10.25 4.43 10.5 5.04 10.98 5.52C11.46 6 12.07 6.25 12.75 6.25C13.43 6.25 14.03 6 14.51 5.52C14.57 5.46 14.63 5.4 14.68 5.33C14.89 6.02 15 6.75 15 7.5C15 11.64 11.64 15 7.5 15C3.36 15 0 11.64 0 7.5C0 3.36 3.36 0 7.5 0ZM1.86 6.75C1.03 6.75 0.36 7.42 0.36 8.25C0.36 9.08 1.03 9.75 1.86 9.75C2.13 9.75 2.39 9.68 2.61 9.55L4.33 10.29C4.28 10.6 4.26 10.96 4.26 11.4L10.72 11.4C10.72 9.98 10.49 9.38 9.74 8.63C8.99 7.88 8.04 7.65 7.49 7.65C6.94 7.65 5.99 7.88 5.24 8.63C5.14 8.73 5.04 8.82 4.96 8.92L3.36 8.24C3.35 7.41 2.68 6.75 1.86 6.75ZM9.22 4.15L8.11 4.37C8.16 4.63 8.29 4.99 8.53 5.34C8.78 5.68 9.15 6.03 9.7 6.18C10.25 6.33 10.76 6.21 11.14 6.03C11.18 6.01 11.22 5.99 11.26 5.97C11.17 5.9 11.08 5.81 11 5.72C10.81 5.51 10.67 5.3 10.55 5.06C10.37 5.13 10.18 5.14 9.99 5.09C9.77 5.03 9.59 4.89 9.45 4.69C9.31 4.49 9.24 4.27 9.22 4.15ZM5.77 4.15C5.74 4.27 5.67 4.49 5.53 4.69C5.39 4.89 5.21 5.03 4.99 5.09C4.76 5.15 4.54 5.12 4.32 5.01C4.09 4.91 3.92 4.76 3.84 4.67L2.99 5.41C3.17 5.61 3.46 5.86 3.84 6.03C4.23 6.21 4.73 6.33 5.28 6.18C5.83 6.03 6.21 5.68 6.45 5.34C6.69 4.99 6.82 4.63 6.87 4.37L5.77 4.15ZM12.75 0.75C13.37 1.65 13.78 2.29 13.97 2.67C14.16 3.05 14.25 3.41 14.25 3.75C14.25 4.16 14.1 4.52 13.81 4.81C13.51 5.1 13.16 5.25 12.75 5.25C12.33 5.25 11.98 5.1 11.69 4.81C11.39 4.52 11.25 4.16 11.25 3.75C11.25 3.41 11.34 3.05 11.53 2.67C11.71 2.29 12.12 1.65 12.75 0.75Z"/>
</svg>