<svg xmlns="http://www.w3.org/2000/svg" viewBox="0 0 15 15">
  <path fill="param(fill) #888" stroke="param(outline) #000" stroke-width="param(outline-width) 0" fill-opacity="param(fill-opacity) 1" stroke-opacity="param(outline-opacity) 1" d="M0 7.5C0 3.36 3.36 0 7.5 0C11.64 0 15 3.36 15 7.5C15 11.64 11.64 15 7.5 15C3.36 15 0 11.64 0 7.5ZM7.5 1.5C4.19 1.5 1.5 4.19 1.5 7.5C1.5 10.81 4.19 13.5 7.5 13.5C10.81 13.5 13.5 10.81 13.5 7.5C13.5 4.19 10.81 1.5 7.5 1.5ZM5.54 4.69C5.68 4.49 5.76 4.27 5.78 4.15L6.88 4.37C6.83 4.63 6.7 4.99 6.46 5.34C6.22 5.68 5.84 6.03 5.29 6.18C4.74 6.33 4.24 6.21 3.86 6.03C3.48 5.86 3.18 5.61 3.01 5.41L3.86 4.67C3.93 4.76 4.11 4.91 4.33 5.01C4.55 5.12 4.78 5.15 5 5.09C5.22 5.03 5.4 4.89 5.54 4.69ZM8.54 5.34C8.3 4.99 8.17 4.63 8.12 4.37L9.22 4.15C9.25 4.27 9.32 4.49 9.46 4.69C9.6 4.89 9.78 5.03 10 5.09C10.22 5.15 10.45 5.12 10.67 5.01C10.89 4.91 11.07 4.76 11.14 4.67L11.99 5.41C11.82 5.61 11.52 5.86 11.15 6.03C10.76 6.21 10.26 6.33 9.71 6.18C9.16 6.03 8.78 5.68 8.54 5.34ZM3.94 11.03C3.94 9.95 4.21 9.01 4.88 8.25C5.54 7.49 6.56 6.98 7.5 6.98C8.44 6.98 9.46 7.49 10.13 8.25C10.79 9.01 11.06 9.95 11.06 11.03L3.94 11.03Z"/>
</svg>