<svg xmlns="http://www.w3.org/2000/svg" viewBox="0 0 15 15">
  <path fill="param(fill) #888" stroke="param(outline) #000" stroke-width="param(outline-width) 0" fill-opacity="param(fill-opacity) 1" stroke-opacity="param(outline-opacity) 1" d="M1.68 6.5C2.61 6.5 3.36 7.25 3.37 8.17L4.27 8.56L4.42 8.4C5.24 7.56 6.4 7 7.5 7C8.66 7 9.91 7.64 10.74 8.57C11.56 9.51 11.9 10.67 11.9 12L3.1 12C3.1 11.29 3.2 10.62 3.41 10.02L2.53 9.64C2.28 9.78 1.99 9.86 1.68 9.86C0.75 9.86 0 9.11 0 8.18C0 7.25 0.75 6.5 1.68 6.5ZM9.8 3.04C9.83 3.19 9.93 3.48 10.11 3.75C10.24 3.94 10.4 4.09 10.59 4.19C10.71 4.66 10.95 5.08 11.31 5.44C11.43 5.56 11.56 5.67 11.7 5.77C11.32 5.85 10.9 5.86 10.45 5.74C9.71 5.55 9.21 5.08 8.89 4.61C8.57 4.16 8.39 3.67 8.33 3.33L9.8 3.04ZM5.2 3.04L6.68 3.33C6.61 3.67 6.43 4.16 6.11 4.61C5.79 5.08 5.29 5.55 4.56 5.74C3.82 5.94 3.15 5.78 2.64 5.54C2.14 5.31 1.74 4.97 1.51 4.71L2.64 3.73C2.75 3.84 2.98 4.05 3.27 4.18C3.56 4.32 3.87 4.37 4.17 4.29C4.47 4.21 4.7 4.02 4.89 3.75C5.08 3.48 5.17 3.19 5.2 3.04ZM13.25 0C13.98 1.05 14.45 1.8 14.67 2.24C14.89 2.68 15 3.1 15 3.5C15 3.98 14.83 4.39 14.49 4.73C14.14 5.07 13.73 5.24 13.25 5.24C13.08 5.24 12.93 5.22 12.78 5.18L12.93 5.21C12.87 5.2 12.81 5.19 12.75 5.18C12.65 5.15 12.55 5.11 12.46 5.06C12.45 5.06 12.45 5.05 12.44 5.05L12.43 5.04C12.39 5.02 12.36 5 12.32 4.98C12.31 4.97 12.3 4.97 12.29 4.96C12.26 4.94 12.24 4.93 12.22 4.91C12.15 4.86 12.08 4.8 12.01 4.73C11.97 4.69 11.93 4.65 11.9 4.6L12.01 4.73C11.96 4.68 11.91 4.63 11.87 4.57C11.84 4.54 11.82 4.5 11.79 4.47C11.79 4.46 11.78 4.45 11.77 4.44C11.75 4.4 11.73 4.37 11.71 4.33C11.69 4.3 11.68 4.27 11.66 4.24C11.66 4.23 11.65 4.22 11.65 4.22C11.55 4 11.5 3.76 11.5 3.5C11.5 3.1 11.61 2.68 11.83 2.24C12.05 1.8 12.52 1.05 13.25 0Z"/>
</svg>