<svg xmlns="http://www.w3.org/2000/svg" viewBox="0 0 15 15">
  <path fill="param(fill) #888" stroke="param(outline) #000" stroke-width="param(outline-width) 0" fill-opacity="param(fill-opacity) 1" stroke-opacity="param(outline-opacity) 1" d="M4.89 3.75C5.08 3.48 5.17 3.19 5.2 3.04L6.68 3.33C6.61 3.67 6.43 4.16 6.11 4.61C5.79 5.08 5.29 5.55 4.56 5.74C3.82 5.94 3.15 5.78 2.64 5.54C2.14 5.31 1.74 4.97 1.51 4.71L2.64 3.73C2.75 3.84 2.98 4.05 3.27 4.18C3.56 4.32 3.87 4.37 4.17 4.29C4.47 4.21 4.7 4.02 4.89 3.75ZM8.89 4.61C8.57 4.16 8.39 3.67 8.33 3.33L9.8 3.04C9.83 3.19 9.93 3.48 10.11 3.75C10.3 4.02 10.54 4.21 10.83 4.29C11.13 4.37 11.44 4.32 11.73 4.18C12.03 4.05 12.26 3.84 12.36 3.73L13.49 4.71C13.26 4.97 12.86 5.31 12.36 5.54C11.85 5.78 11.18 5.94 10.45 5.74C9.71 5.55 9.21 5.08 8.89 4.61ZM2.75 12.2C2.75 10.77 3.11 9.51 4 8.5C4.89 7.49 6.24 6.8 7.5 6.8C8.76 6.8 10.11 7.49 11 8.5C11.89 9.51 12.25 10.77 12.25 12.2L2.75 12.2Z"/>
</svg>