<svg xmlns="http://www.w3.org/2000/svg" viewBox="0 0 15 15">
  <path fill="param(fill) #888" stroke="param(outline) #000" stroke-width="param(outline-width) 0" fill-opacity="param(fill-opacity) 1" stroke-opacity="param(outline-opacity) 1" d="M7.5 0C11.64 0 15 3.36 15 7.5C15 11.64 11.64 15 7.5 15C3.36 15 0 11.64 0 7.5C0 3.36 3.36 0 7.5 0ZM7.5 6.98C6.56 6.98 5.54 7.49 4.88 8.25C4.21 9.01 3.94 9.95 3.94 11.03L11.06 11.03C11.06 9.95 10.79 9.01 10.13 8.25C9.46 7.49 8.44 6.98 7.5 6.98ZM5.78 4.15C5.76 4.27 5.68 4.49 5.54 4.69C5.4 4.89 5.22 5.03 5 5.09C4.78 5.15 4.55 5.12 4.33 5.01C4.11 4.91 3.93 4.76 3.86 4.67L3.01 5.41C3.18 5.61 3.48 5.86 3.86 6.03C4.24 6.21 4.74 6.33 5.29 6.18C5.84 6.03 6.22 5.68 6.46 5.34C6.7 4.99 6.83 4.63 6.88 4.37ZM9.22 4.15L8.12 4.37C8.17 4.63 8.3 4.99 8.54 5.34C8.78 5.68 9.16 6.03 9.71 6.18C10.26 6.33 10.76 6.21 11.15 6.03C11.52 5.86 11.82 5.61 11.99 5.41L11.14 4.67C11.07 4.76 10.89 4.91 10.67 5.01C10.45 5.12 10.22 5.15 10 5.09C9.78 5.03 9.6 4.89 9.46 4.69C9.32 4.49 9.25 4.27 9.22 4.15Z"/>
</svg>