<svg xmlns="http://www.w3.org/2000/svg" viewBox="0 0 15 15">
  <path fill="param(fill) #888" stroke="param(outline) #000" stroke-width="param(outline-width) 0" fill-opacity="param(fill-opacity) 1" stroke-opacity="param(outline-opacity) 1" d="M7.5 0C11.64 0 15 3.36 15 7.5C15 8.01 14.95 8.51 14.85 8.99L14.72 8.75C14.69 8.7 14.66 8.66 14.64 8.61L14.43 8.26C14.27 8.01 14.09 7.73 13.88 7.42L12.89 5.93L11.75 7.65C11.5 8.02 11.3 8.34 11.15 8.61C11.01 8.83 10.91 9.03 10.83 9.19C10.76 9.35 10.69 9.51 10.64 9.66C10.5 9.13 10.22 8.64 9.82 8.24C9.22 7.65 8.41 7.31 7.57 7.31C6.72 7.31 5.91 7.65 5.31 8.24C4.71 8.84 4.38 9.65 4.38 10.5L4.38 11L10.49 11C10.55 11.54 10.78 12.02 11.17 12.42C11.53 12.8 11.97 13.04 12.46 13.12C11.14 14.29 9.4 15 7.5 15C6.07 15 4.72 14.6 3.59 13.9L3.73 13.76C4.19 13.28 4.43 12.69 4.43 12.02C4.43 11.53 4.3 11.04 4.06 10.53C4.01 10.41 3.93 10.27 3.84 10.11L3.75 9.95C3.53 9.57 3.22 9.1 2.84 8.51L2 7.27L1.17 8.51C0.95 8.85 0.76 9.14 0.59 9.41L0.36 9.79L0.26 9.48C0.09 8.85 0 8.18 0 7.5C0 3.36 3.36 0 7.5 0ZM2 9.07C2.38 9.64 2.68 10.1 2.89 10.46L3.04 10.73C3.09 10.82 3.13 10.89 3.16 10.96C3.34 11.34 3.43 11.69 3.43 12.02C3.43 12.43 3.29 12.78 3.01 13.07L2.94 13.13L2.84 13.22L2.73 13.29C2.52 13.43 2.27 13.5 2 13.5C1.61 13.5 1.28 13.35 1 13.07C0.72 12.78 0.58 12.43 0.58 12.02C0.58 11.69 0.67 11.34 0.85 10.97L0.89 10.87L0.94 10.78C0.99 10.68 1.05 10.57 1.12 10.46L1.32 10.12C1.51 9.83 1.73 9.47 2 9.07ZM12.89 7.73L13.2 8.19C13.38 8.48 13.55 8.73 13.68 8.96L13.77 9.12C13.89 9.32 13.98 9.49 14.05 9.62C14.23 10 14.32 10.35 14.32 10.68C14.32 11.09 14.18 11.44 13.9 11.72C13.77 11.86 13.63 11.96 13.48 12.03L13.41 12.06L13.28 12.11L13.19 12.13L13.04 12.15L12.89 12.16C12.5 12.16 12.17 12.01 11.89 11.72C11.61 11.44 11.47 11.09 11.47 10.68C11.47 10.35 11.56 10 11.74 9.62C11.8 9.49 11.89 9.32 12.01 9.12L12.21 8.78C12.39 8.49 12.62 8.13 12.89 7.73ZM5.84 4.39C5.82 4.51 5.75 4.73 5.61 4.93C5.47 5.12 5.29 5.27 5.07 5.33C4.84 5.39 4.62 5.35 4.4 5.25C4.17 5.15 4 5 3.92 4.91L3.08 5.65C3.25 5.84 3.54 6.1 3.92 6.27C4.31 6.45 4.81 6.57 5.36 6.42C5.91 6.27 6.28 5.92 6.53 5.57C6.77 5.23 6.9 4.87 6.95 4.61L5.84 4.39ZM9.29 4.39L8.19 4.61C8.24 4.87 8.37 5.23 8.61 5.57C8.85 5.92 9.23 6.27 9.78 6.42C10.32 6.57 10.83 6.45 11.21 6.27C11.59 6.1 11.89 5.84 12.06 5.65L11.21 4.91C11.13 5 10.96 5.15 10.74 5.25C10.52 5.35 10.29 5.39 10.07 5.33C9.84 5.27 9.67 5.12 9.53 4.93C9.39 4.73 9.31 4.51 9.29 4.39Z"/>
</svg>