<svg xmlns="http://www.w3.org/2000/svg" viewBox="0 0 15 15">
  <path fill="param(fill) #888" stroke="param(outline) #000" stroke-width="param(outline-width) 0" fill-opacity="param(fill-opacity) 1" stroke-opacity="param(outline-opacity) 1" d="M9.84 8.31C10.81 8.93 11.49 9.91 11.73 11.03L11.89 11.77L3.43 13.61L3.27 12.87C3.02 11.75 3.24 10.58 3.86 9.61C4.48 8.64 5.46 7.96 6.58 7.72C7.7 7.48 8.88 7.69 9.84 8.31ZM5 5.53C5.02 5.87 4.96 6.39 4.76 6.91C4.56 7.43 4.18 8.01 3.52 8.38C2.85 8.74 2.16 8.75 1.61 8.64C1.07 8.54 0.6 8.3 0.32 8.1L1.18 6.88C1.31 6.97 1.58 7.11 1.9 7.17C2.22 7.23 2.52 7.21 2.8 7.06C3.07 6.91 3.25 6.66 3.36 6.37C3.48 6.06 3.51 5.75 3.5 5.6L5 5.53ZM7.96 4.5C8.03 4.64 8.19 4.9 8.44 5.12C8.68 5.33 8.96 5.46 9.27 5.47C9.58 5.48 9.86 5.35 10.11 5.15C10.37 4.94 10.54 4.69 10.61 4.55L11.95 5.24C11.79 5.55 11.48 5.97 11.05 6.32C10.61 6.67 10 6.98 9.24 6.97C8.48 6.95 7.88 6.62 7.45 6.25C7.04 5.88 6.75 5.45 6.6 5.13L7.96 4.5ZM13.5 0C13.95 0 14.17 0.54 13.85 0.85L11.71 3L13.5 3C13.75 3 13.95 3.18 13.99 3.41L14 3.5C14 3.78 13.78 4 13.5 4L10.5 4C10.05 4 9.83 3.46 10.15 3.15L12.29 1L10.5 1C10.25 1 10.05 0.82 10.01 0.59L10 0.5C10 0.22 10.22 0 10.5 0L13.5 0Z"/>
</svg>