<svg xmlns="http://www.w3.org/2000/svg" viewBox="0 0 15 15">
  <path fill="param(fill) #888" stroke="param(outline) #000" stroke-width="param(outline-width) 0" fill-opacity="param(fill-opacity) 1" stroke-opacity="param(outline-opacity) 1" d="M10.53 2.32C10.59 2.15 10.66 1.98 10.73 1.8C10.84 1.57 10.98 1.29 11.16 0.95C10.07 0.35 8.82 0 7.49 0C3.52 0 0.27 3.08 0 6.98C0.37 6.44 0.98 6.07 1.67 6.01C2.34 3.42 4.69 1.5 7.49 1.5C8.6 1.5 9.64 1.8 10.53 2.32ZM11.26 5.97C11.17 5.9 11.08 5.81 11 5.72C10.81 5.51 10.67 5.3 10.55 5.06C10.37 5.13 10.18 5.14 9.99 5.09C9.77 5.03 9.59 4.89 9.45 4.69C9.31 4.49 9.24 4.27 9.22 4.15L8.11 4.37C8.16 4.63 8.29 4.99 8.53 5.34C8.78 5.68 9.15 6.03 9.7 6.18C10.25 6.33 10.76 6.21 11.14 6.03C11.18 6.01 11.22 5.99 11.26 5.97ZM0.4 9.96C1.41 12.89 4.21 15 7.49 15C11.64 15 15 11.64 15 7.5C15 6.79 14.9 6.1 14.71 5.45C14.65 5.54 14.58 5.63 14.5 5.72C14.18 6.07 13.81 6.31 13.4 6.43C13.47 6.78 13.5 7.14 13.5 7.5C13.5 10.81 10.81 13.5 7.49 13.5C5.25 13.5 3.3 12.28 2.27 10.46C2.13 10.49 2 10.5 1.86 10.5C1.3 10.5 0.79 10.3 0.4 9.96ZM5.53 4.69C5.67 4.49 5.74 4.27 5.77 4.15L6.87 4.37C6.82 4.63 6.69 4.99 6.45 5.34C6.21 5.68 5.83 6.03 5.28 6.18C4.73 6.33 4.23 6.21 3.84 6.03C3.46 5.86 3.17 5.61 2.99 5.41L3.84 4.67C3.92 4.76 4.09 4.91 4.32 5.01C4.54 5.12 4.76 5.15 4.99 5.09C5.21 5.03 5.39 4.89 5.53 4.69ZM12.75 5.25C12.33 5.25 11.98 5.1 11.69 4.81C11.39 4.52 11.25 4.16 11.25 3.75C11.25 3.41 11.34 3.05 11.53 2.67C11.71 2.29 12.12 1.65 12.75 0.75C13.37 1.65 13.78 2.29 13.97 2.67C14.16 3.05 14.25 3.41 14.25 3.75C14.25 4.16 14.1 4.52 13.81 4.81C13.51 5.1 13.16 5.25 12.75 5.25ZM2.61 9.55C2.39 9.68 2.13 9.75 1.86 9.75C1.03 9.75 0.36 9.08 0.36 8.25C0.36 7.42 1.03 6.75 1.86 6.75C2.68 6.75 3.35 7.41 3.36 8.24L7.04 9.81C7.42 9.97 7.59 10.41 7.43 10.8C7.27 11.18 6.83 11.35 6.44 11.19L2.61 9.55ZM4.26 11.4C4.26 9.95 4.49 9.38 5.24 8.63C5.99 7.88 6.94 7.65 7.49 7.65C8.04 7.65 8.99 7.88 9.74 8.63C10.49 9.38 10.72 9.98 10.72 11.4L4.26 11.4Z"/>
</svg>