<svg xmlns="http://www.w3.org/2000/svg" viewBox="0 0 15 15">
  <path fill="param(fill) #888" stroke="param(outline) #000" stroke-width="param(outline-width) 0" fill-opacity="param(fill-opacity) 1" stroke-opacity="param(outline-opacity) 1" d="M7.5 0C8.01 0 8.52 0.05 9 0.15L9 1.69C8.52 1.57 8.02 1.5 7.5 1.5C4.19 1.5 1.5 4.19 1.5 7.5C1.5 10.81 4.19 13.5 7.5 13.5C10.81 13.5 13.5 10.81 13.5 7.5C13.5 6.7 13.35 5.94 13.06 5.25L14.66 5.25C14.88 5.96 15 6.72 15 7.5C15 11.64 11.64 15 7.5 15C3.36 15 0 11.64 0 7.5C0 3.36 3.36 0 7.5 0ZM4.5 5.78C4.51 5.9 4.49 6.13 4.4 6.35C4.31 6.58 4.17 6.77 3.97 6.88C3.77 6.99 3.54 7.01 3.3 6.96C3.06 6.91 2.86 6.81 2.76 6.74L2.11 7.66C2.33 7.81 2.67 7.98 3.08 8.06C3.5 8.14 4.02 8.14 4.51 7.86C5.01 7.59 5.29 7.16 5.45 6.76C5.6 6.37 5.64 5.99 5.63 5.72L4.5 5.78ZM7.47 6.27C7.15 5.99 6.94 5.67 6.83 5.43L7.85 4.96C7.9 5.06 8.02 5.26 8.21 5.42C8.39 5.58 8.6 5.68 8.83 5.68C9.06 5.69 9.27 5.59 9.46 5.44C9.65 5.29 9.78 5.1 9.84 5L10.84 5.51C10.72 5.74 10.49 6.06 10.16 6.32C9.83 6.59 9.37 6.82 8.8 6.81C8.24 6.8 7.78 6.54 7.47 6.27ZM13.5 0C13.95 0 14.17 0.54 13.85 0.85L11.71 3L13.5 3C13.75 3 13.95 3.18 13.99 3.41L14 3.5C14 3.78 13.78 4 13.5 4L10.5 4C10.05 4 9.83 3.46 10.15 3.15L12.29 1L10.5 1C10.25 1 10.05 0.82 10.01 0.59L10 0.5C10 0.22 10.22 0 10.5 0L13.5 0ZM4.33 11.24L4.44 11.79L10.79 10.41L10.67 9.86C10.49 9.01 9.98 8.28 9.26 7.81C8.53 7.35 7.65 7.19 6.81 7.37C5.97 7.55 5.23 8.06 4.77 8.79C4.3 9.51 4.14 10.39 4.33 11.24Z"/>
</svg>