<?xml version="1.0" encoding="UTF-8"?>
<svg viewBox="0 0 15 15" version="1.1" xmlns="http://www.w3.org/2000/svg" xmlns:xlink="http://www.w3.org/1999/xlink">
  <path fill="param(fill) #888" stroke="param(outline) #000" stroke-width="param(outline-width) 0" fill-opacity="param(fill-opacity) 1" stroke-opacity="param(outline-opacity) 1" d="M1.8 14.55L14.26 5.1C15.28 4.32 15.25 4.28 14.15 2.68L0.8 12.85L0.4 13.19L0.21 13.36C-0.08 13.64 -0.06 13.77 0.19 14.14L0.51 14.6C0.9 15.15 1.02 15.14 1.8 14.55ZM12.29 0L13.73 2.09L13.11 2.56L11.67 0.47L12.29 0ZM11.26 0.78L12.71 2.87L12.09 3.34L10.64 1.25L11.26 0.78ZM10.24 1.56L11.69 3.65L11.06 4.13L9.61 2.04L10.24 1.56ZM9.22 2.34L10.67 4.42L10.03 4.9L8.59 2.82L9.22 2.34ZM8.19 3.12L9.63 5.21L9.01 5.68L7.57 3.6L8.19 3.12Z"/>
</svg>