<svg xmlns="http://www.w3.org/2000/svg" viewBox="0 0 15 15">
  <path fill="param(fill) #888" stroke="param(outline) #000" stroke-width="param(outline-width) 0" fill-opacity="param(fill-opacity) 1" stroke-opacity="param(outline-opacity) 1" d="M3.39 10.81L3.7 11.06C4.01 11.31 4.39 11.46 4.78 11.49L4.95 11.5L5.05 11.5C5.5 11.5 5.94 11.35 6.3 11.06L6.61 10.81C6.86 10.61 7.18 10.5 7.5 10.5C7.82 10.5 8.14 10.61 8.39 10.81L8.7 11.06C9.01 11.31 9.39 11.46 9.78 11.49L9.95 11.5L10.05 11.5C10.5 11.5 10.94 11.35 11.3 11.06L11.61 10.81C11.86 10.61 12.18 10.5 12.5 10.5C12.82 10.5 13.14 10.61 13.39 10.81L13.71 11.07C14.01 11.31 14.39 11.46 14.78 11.5L15 11.5L15 13L14.95 13C14.49 13 14.06 12.84 13.71 12.56L13.39 12.31C13.14 12.11 12.82 12 12.5 12C12.18 12 11.86 12.11 11.61 12.31L11.3 12.56C10.94 12.84 10.5 13 10.05 13L9.95 13C9.5 13 9.06 12.84 8.7 12.56L8.39 12.31C8.14 12.11 7.82 12 7.5 12C7.18 12 6.86 12.11 6.61 12.31L6.3 12.56C5.94 12.84 5.5 13 5.05 13L4.95 13C4.5 13 4.06 12.84 3.7 12.56L3.39 12.31C3.14 12.11 2.82 12 2.5 12C2.18 12 1.86 12.11 1.61 12.31L1.29 12.56C0.94 12.84 0.51 13 0.05 13L0 13L0 11.5L0.05 11.5C0.51 11.5 0.94 11.35 1.29 11.07L1.61 10.81C1.86 10.61 2.18 10.5 2.5 10.5C2.82 10.5 3.14 10.61 3.39 10.81ZM15 7L13.5 9C13.35 9.2 13.19 9.39 13.01 9.56C12.85 9.52 12.68 9.5 12.5 9.5C11.95 9.5 11.42 9.69 10.98 10.03L10.67 10.28C10.5 10.42 10.28 10.5 10.05 10.5L9.95 10.5C9.72 10.5 9.5 10.42 9.33 10.28L9.01 10.03C8.58 9.69 8.05 9.5 7.5 9.5C6.95 9.5 6.42 9.69 5.99 10.03L5.67 10.28C5.5 10.42 5.28 10.5 5.05 10.5L4.95 10.5C4.72 10.5 4.5 10.42 4.33 10.28L4.01 10.03C3.58 9.69 3.05 9.5 2.5 9.5C1.95 9.5 1.42 9.69 0.99 10.03L0.67 10.28C0.49 10.43 0.28 10.5 0.05 10.5L0 10.5L0 7L15 7ZM10.08 2.5C10.31 2.5 10.99 2.57 11.28 3.19L13 6.5L0 6.5L0 2.5L10.08 2.5ZM10.46 3.6L8.34 3.6L9.3 5.7L12 5.7L11.21 3.92C11.03 3.52 10.48 3.6 10.46 3.6ZM2.45 3.6L1.29 3.6C1.15 3.6 0.91 3.66 0.91 3.8L0.91 5.51C0.91 5.66 1.15 5.7 1.29 5.7L2.45 5.7C2.59 5.7 2.7 5.66 2.7 5.51L2.71 5.51L2.71 3.8C2.71 3.66 2.59 3.6 2.45 3.6ZM7.24 3.6L6.08 3.6C5.93 3.6 5.7 3.66 5.7 3.8L5.7 5.51C5.7 5.66 5.93 5.7 6.08 5.7L7.24 5.7C7.38 5.7 7.5 5.66 7.5 5.51L7.51 5.51L7.51 3.8C7.51 3.66 7.38 3.6 7.24 3.6ZM4.84 3.6L3.68 3.6C3.54 3.6 3.31 3.66 3.31 3.8L3.31 5.51C3.31 5.66 3.54 5.7 3.68 5.7L4.84 5.7C4.98 5.7 5.1 5.66 5.1 5.51L5.1 3.8C5.1 3.66 4.98 3.6 4.84 3.6Z"/>
</svg>