<svg xmlns="http://www.w3.org/2000/svg" viewBox="0 0 15 15">
  <path fill="param(fill) #888" stroke="param(outline) #000" stroke-width="param(outline-width) 0" fill-opacity="param(fill-opacity) 1" stroke-opacity="param(outline-opacity) 1" d="M12.5 12L10.7 12L7.2 1.5C7 0.8 6 0.8 5.8 1.5L2.3 12L0.5 12C0.2 12 0 12.2 0 12.5L0 13.5C0 13.8 0.2 14 0.5 14L12.5 14C12.8 14 13 13.8 13 13.5L13 12.5C13 12.2 12.8 12 12.5 12ZM6 4L7 4L7.7 6L5.4 6L6 4ZM4.7 8L8.3 8L9 10L4 10L4.7 8ZM12.5 6.25C13.19 6.25 13.75 6.81 13.75 7.5C13.75 8.19 13.19 8.75 12.5 8.75C11.81 8.75 11.25 8.19 11.25 7.5C11.25 6.81 11.81 6.25 12.5 6.25ZM14 1L13 5.5L12 5.5L11 1L14 1Z"/>
</svg>