<svg xmlns="http://www.w3.org/2000/svg" viewBox="0 0 15 15">
  <path fill="param(fill) #888" stroke="param(outline) #000" stroke-width="param(outline-width) 0" fill-opacity="param(fill-opacity) 1" stroke-opacity="param(outline-opacity) 1" d="M9.79 1.29L10.91 2.41L10.91 2.41C11.29 2.79 11.5 3.3 11.5 3.83L11.5 10C11.5 11.1 10.6 12 9.5 12L5.5 12C4.4 12 3.5 11.1 3.5 10L3.5 3.83C3.5 3.3 3.71 2.79 4.09 2.41L5.21 1.29C5.39 1.11 5.65 1 5.91 1L9.09 1C9.35 1 9.61 1.11 9.79 1.29ZM6.25 12.5L5.5 14L4 14L4.75 12.5L6.25 12.5ZM10.25 12.5L11 14L9.5 14L8.75 12.5L10.25 12.5ZM8.5 11L9.5 11C10.05 11 10.5 10.55 10.5 10L10.5 9C9.4 9 8.5 9.9 8.5 11ZM6.5 11C6.5 9.9 5.6 9 4.5 9L4.5 10C4.5 10.55 4.95 11 5.5 11L6.5 11ZM4.5 4L4.5 7.5C4.5 7.78 4.72 8 5 8L10 8C10.28 8 10.5 7.78 10.5 7.5L10.5 4C10.5 3.72 10.28 3.5 10 3.5L5 3.5C4.72 3.5 4.5 3.72 4.5 4Z"/>
</svg>