<svg xmlns="http://www.w3.org/2000/svg" viewBox="0 0 15 15">
  <path fill="param(fill) #888" stroke="param(outline) #000" stroke-width="param(outline-width) 0" fill-opacity="param(fill-opacity) 1" stroke-opacity="param(outline-opacity) 1" d="M5.75 12.5L5.5 13L9.5 13L9.25 12.5L10.75 12.5L12 15L10.5 15L10 14L5 14L4.5 15L3 15L4.25 12.5L5.75 12.5ZM13 4L13 10C13 11.1 12.1 12 11 12L4 12C2.9 12 2 11.1 2 10L2 4C2 2.9 2.9 2 4 2L11 2C12.1 2 13 2.9 13 4ZM9 10C9 10.55 9.45 11 10 11C10.55 11 11 10.55 11 10C11 9.45 10.55 9 10 9C9.45 9 9 9.45 9 10ZM6 10C6 9.45 5.55 9 5 9C4.45 9 4 9.45 4 10C4 10.55 4.45 11 5 11C5.55 11 6 10.55 6 10ZM3.01 7.5C3.01 7.78 3.23 8 3.51 8L6.51 8C6.78 8 7.01 7.78 7.01 7.5L6.99 4.5C6.99 4.22 6.77 4 6.49 4L3.5 4C3.22 4 3 4.22 3 4.5L3.01 7.5ZM8.01 7.5C8.01 7.78 8.23 8 8.51 8L11.51 8C11.78 8 12.01 7.78 12.01 7.5L11.99 4.5C11.99 4.22 11.77 4 11.49 4L8.5 4C8.22 4 8 4.22 8 4.5L8.01 7.5ZM1 13L0 13L0 4C0 1.79 1.79 0 4 0L11 0C13.21 0 15 1.79 15 4L15 13L14 13L14 4C14 2.34 12.66 1 11 1L4 1C2.34 1 1 2.34 1 4L1 13Z"/>
</svg>