<svg xmlns="http://www.w3.org/2000/svg" viewBox="0 0 15 15">
  <path fill="param(fill) #888" stroke="param(outline) #000" stroke-width="param(outline-width) 0" fill-opacity="param(fill-opacity) 1" stroke-opacity="param(outline-opacity) 1" d="M5.75 12.5L5.5 13L9.5 13L9.25 12.5L10.75 12.5L12 15L10.5 15L10 14L5 14L4.5 15L3 15L4.25 12.5L5.75 12.5ZM4.5 1C4.22 1 4 0.78 4 0.5C4 0.22 4.22 0 4.5 0L10.5 0C10.78 0 11 0.22 11 0.5C11 0.78 10.78 1 10.5 1L8 1L8 2L11 2C12.1 2 13 2.9 13 4L13 10C13 11.1 12.1 12 11 12L4 12C2.9 12 2 11.1 2 10L2 4C2 2.9 2.9 2 4 2L7 2L7 1L4.5 1ZM10 8.5C9.45 8.5 9 8.95 9 9.5C9 10.05 9.45 10.5 10 10.5C10.55 10.5 11 10.05 11 9.5C11 8.95 10.55 8.5 10 8.5ZM5 8.5C4.45 8.5 4 8.95 4 9.5C4 10.05 4.45 10.5 5 10.5C5.55 10.5 6 10.05 6 9.5C6 8.95 5.55 8.5 5 8.5ZM6.49 3.5L3.5 3.5C3.22 3.5 3 3.72 3 4L3.01 6.5C3.01 6.78 3.24 7 3.51 7L6.51 7C6.78 7 7.01 6.78 7.01 6.5L6.99 4C6.99 3.72 6.77 3.5 6.49 3.5ZM11.49 3.5L8.5 3.5C8.22 3.5 8 3.72 8 4L8.01 6.5C8.01 6.78 8.24 7 8.51 7L11.51 7C11.78 7 12.01 6.78 12.01 6.5L11.99 4C11.99 3.72 11.77 3.5 11.49 3.5Z"/>
</svg>