<svg xmlns="http://www.w3.org/2000/svg" viewBox="0 0 15 15">
  <path fill="param(fill) #888" stroke="param(outline) #000" stroke-width="param(outline-width) 0" fill-opacity="param(fill-opacity) 1" stroke-opacity="param(outline-opacity) 1" d="M4.61 12.34C4.61 12.68 4.33 12.96 3.99 12.96C3.64 12.96 3.36 12.68 3.36 12.34C3.36 11.99 3.64 11.72 3.99 11.72C4.33 11.72 4.61 11.99 4.61 12.34ZM5.05 4.66L5.42 4.66C5.83 4.66 6.21 4.38 6.28 3.97C6.36 3.45 5.97 3 5.46 3L2.97 3L0 8.55L1.26 9.23L3.8 4.66L5.05 4.66L5.05 4.66ZM11.85 11.72C11.51 11.72 11.23 11.99 11.23 12.34C11.23 12.68 11.51 12.96 11.85 12.96C12.2 12.96 12.47 12.68 12.47 12.34C12.47 11.99 12.2 11.72 11.85 11.72ZM14.99 7.57L14.98 11.49C14.98 11.52 14.98 11.53 14.97 11.53C14.95 11.86 14.68 12.11 14.36 12.11L13.7 12.11C13.6 11.17 12.82 10.44 11.86 10.44C10.89 10.44 10.11 11.17 10.01 12.11L5.84 12.11C5.74 11.17 4.96 10.44 3.99 10.44C3.03 10.44 2.24 11.17 2.14 12.11L1.89 12.11C1.55 12.11 1.27 11.83 1.27 11.49L1.27 10.65L1.74 10.9L2.33 9.83L4.52 5.9L5.4 5.9C6.43 5.9 7.33 5.16 7.49 4.17C7.56 3.76 7.51 3.36 7.35 3L11.26 3L11.26 4.66L13.34 4.66C13.62 4.66 13.89 4.93 14.17 5.49L15 7.57L14.99 7.57ZM13.75 7.57L12.91 5.91L11.25 5.91L11.25 7.98L13.75 7.98L13.75 7.57Z"/>
</svg>