<svg xmlns="http://www.w3.org/2000/svg" viewBox="0 0 15 15">
  <path fill="param(fill) #888" stroke="param(outline) #000" stroke-width="param(outline-width) 0" fill-opacity="param(fill-opacity) 1" stroke-opacity="param(outline-opacity) 1" d="M4 0C3.86 0 3.73 0.1 3.68 0.25C3.14 1.88 1.9 2.95 0.21 3.74C0.08 3.8 0 3.93 0 4.08C0 4.23 0.08 4.36 0.21 4.42C1.88 5.22 3.5 5.96 4.51 7.41C3.51 8.79 1.96 9.53 0.28 10.21C0.15 10.27 0.06 10.4 0.05 10.55C0.05 10.7 0.13 10.84 0.26 10.9C2.08 11.76 2.98 13.14 3.88 14.65C3.94 14.76 4.05 14.82 4.17 14.82C4.29 14.82 4.4 14.75 4.46 14.64C5.33 13.08 6.19 11.6 7.47 10.63C8.78 11.51 9.42 13.22 10.32 14.82C10.39 14.95 10.52 15.02 10.66 15C10.79 14.98 10.91 14.87 10.94 14.73C11.54 12.56 12.74 11.36 14.71 10.99C14.87 10.96 14.99 10.82 15 10.65C15.01 10.48 14.92 10.33 14.77 10.27C12.99 9.59 11.54 8.68 10.53 7.39C11.73 6.16 13.12 5.15 14.7 4.3C14.83 4.23 14.9 4.08 14.89 3.93C14.87 3.77 14.77 3.64 14.63 3.61C12.44 3 11.96 1.59 11 0.15C10.93 0.05 10.81 -0.01 10.69 0C10.57 0.01 10.47 0.09 10.41 0.21C9.64 1.88 8.79 3.39 7.59 4.35C6.22 3.42 5.28 1.82 4.29 0.17C4.23 0.06 4.12 0 4 0Z"/>
</svg>