<svg xmlns="http://www.w3.org/2000/svg" viewBox="0 0 15 15">
  <path fill="param(fill) #888" stroke="param(outline) #000" stroke-width="param(outline-width) 0" fill-opacity="param(fill-opacity) 1" stroke-opacity="param(outline-opacity) 1" d="M4.78 0.04C2.7 0.87 1.46 3.37 2.34 6.93C2.42 7.26 2.99 7.7 3.02 8C3.05 8.3 2.55 8.45 2.54 8.72C2.53 9.26 2.45 9.75 2.33 10.18L1.27 9.93C0.9 10.36 0.56 10.77 0.38 11.2C0.25 11.52 0.18 11.9 0.35 12.26C3.24 14.08 8.15 14.97 11.05 15C11.49 15.01 11.64 14.93 11.78 14.61C11.84 14.5 11.89 14.36 11.96 14.18C12.08 13.81 12.23 13.31 12.34 12.7C12.45 12.09 12.52 11.38 12.5 10.62C12.49 10.24 11.53 9.94 11.55 9.53C11.57 9.24 12.36 8.82 12.07 8.23C11.4 6.85 11.6 5.79 11.99 4.94C12.39 4.09 13.19 3.35 14.37 2.55C14.72 2.32 14.61 1.78 14.19 1.7L5.04 0.01C4.95 -0.02 4.86 0.01 4.78 0.04ZM5.04 0.97L13.01 2.44C12.21 3.07 11.52 3.73 11.14 4.54C10.64 5.64 10.64 6.76 11.19 8.36C11.31 8.71 10.32 9.29 10.38 9.65C10.44 10 11.51 10.49 11.52 10.83C11.54 11.51 11.52 11.98 11.42 12.53C11.32 13.09 11.22 13.56 11.07 13.86C10.93 14.09 10.56 13.9 10.43 13.43C10.28 12.83 10.35 12.51 10.67 12.07C8.2 11.86 5.73 11.35 3.26 10.4C3.39 9.94 3.48 9.68 3.49 9.06C3.5 8.75 4 8.72 3.97 8.37C3.93 8.02 3.35 7.09 3.25 6.71C2.46 3.5 3.49 1.64 5.04 0.97ZM6 1.29L5.28 1.9C4.99 1.9 4.7 2.04 4.5 2.27L3.85 2.41L4.25 2.85C4.21 3.17 4.33 3.52 4.57 3.74L4.49 4.65L5.14 3.99C5.47 4.02 5.8 3.87 6.01 3.62L6.58 3.54L6.26 3.05C6.31 2.72 6.19 2.37 5.95 2.15L6 1.29ZM5.33 2.52C5.36 2.52 5.4 2.53 5.43 2.55C5.66 2.64 5.71 2.95 5.59 3.14C5.49 3.35 5.21 3.45 5.02 3.31C4.8 3.15 4.83 2.8 5.02 2.63C5.1 2.55 5.21 2.51 5.33 2.52ZM8.19 3.83L7.66 4.16L8.11 4.91L7.44 5.25L7.72 5.81L8.44 5.44L8.99 6.36L9.53 6.04L9 5.16L9.85 4.72L9.57 4.17L8.67 4.62L8.19 3.83ZM6.75 5.09L6.46 5.16C6.1 5.27 5.76 5.44 5.49 5.7L5.92 6.16C6.18 5.91 6.53 5.77 6.88 5.71L6.75 5.09ZM5.05 6.27L4.92 6.51C4.84 6.71 4.77 6.93 4.72 7.14L4.67 7.58L5.29 7.65C5.31 7.41 5.33 7.16 5.43 6.94C5.46 6.81 5.53 6.7 5.59 6.58L5.05 6.27ZM5.33 8.15L4.73 8.33C4.81 8.58 4.87 8.84 5.01 9.07C5.08 9.25 5.19 9.4 5.3 9.55L5.81 9.18C5.65 8.97 5.52 8.73 5.43 8.48L5.33 8.15ZM6.18 9.56L5.8 10.06C6.15 10.34 6.56 10.52 6.97 10.69L7.21 10.11C6.85 9.96 6.48 9.81 6.18 9.56ZM7.8 10.35L7.54 10.92C7.86 11.07 8.17 11.27 8.37 11.58L8.89 11.24C8.78 11.05 8.62 10.89 8.45 10.75C8.25 10.59 8.03 10.46 7.8 10.35Z"/>
</svg>