<svg xmlns="http://www.w3.org/2000/svg" viewBox="0 0 15 15">
  <path fill="param(fill) #888" stroke="param(outline) #000" stroke-width="param(outline-width) 0" fill-opacity="param(fill-opacity) 1" stroke-opacity="param(outline-opacity) 1" d="M3.14 12.15L3.2 12.19L3.27 12.23C3.31 12.25 3.35 12.28 3.39 12.31L3.7 12.56L3.9 12.7L4.01 12.76L4.08 12.8L4.18 12.85L4.25 12.87L4.35 12.91L4.43 12.93C4.6 12.98 4.77 13 4.95 13L5.05 13C5.17 13 5.28 12.99 5.39 12.97L5.57 12.93L5.74 12.88L5.82 12.85L5.91 12.8L5.99 12.76L6.08 12.72C6.15 12.67 6.23 12.62 6.3 12.56L6.61 12.31C6.86 12.11 7.18 12 7.5 12C7.82 12 8.14 12.11 8.39 12.31L8.7 12.56L8.89 12.7L9 12.76L9.08 12.8L9.17 12.84L9.25 12.87L9.34 12.91L9.41 12.93C9.59 12.97 9.77 13 9.95 13L10.05 13C10.2 13 10.35 12.98 10.49 12.95L10.65 12.91L10.84 12.84C11.01 12.76 11.16 12.67 11.3 12.56L11.61 12.31C11.86 12.11 12.18 12 12.5 12C12.56 12 12.62 12.01 12.67 12.01C12.93 12.04 13.18 12.15 13.39 12.31L13.71 12.57C14.01 12.81 14.39 12.96 14.78 13L15 13L15 14.5L14.95 14.5C14.49 14.5 14.06 14.34 13.71 14.06L13.39 13.81C13.14 13.61 12.82 13.5 12.5 13.5C12.18 13.5 11.86 13.61 11.61 13.81L11.3 14.06C10.94 14.34 10.5 14.5 10.05 14.5L9.95 14.5C9.5 14.5 9.06 14.34 8.7 14.06L8.39 13.81C8.14 13.61 7.82 13.5 7.5 13.5C7.18 13.5 6.86 13.61 6.61 13.81L6.3 14.06C5.94 14.34 5.5 14.5 5.05 14.5L4.95 14.5C4.5 14.5 4.06 14.34 3.7 14.06L3.39 13.81C3.14 13.61 2.82 13.5 2.5 13.5C2.18 13.5 1.86 13.61 1.61 13.81L1.29 14.06C0.99 14.31 0.61 14.46 0.22 14.49L0 14.5L0 13L0.05 13C0.51 13 0.94 12.85 1.29 12.57L1.61 12.31C1.86 12.11 2.18 12 2.5 12L2.61 12.01L2.71 12.02L2.83 12.04L2.98 12.09L3.14 12.15ZM4.5 0.5C5.17 0.5 8 5.83 6 7.43C5.61 7.75 5.28 7.94 5 8.02L5 9.07C5.24 9.02 5.48 9 5.73 9C6.06 9 6.57 8.62 7.27 7.86C7.73 7.36 8.46 7.21 9.07 7.5L9.87 7.87C10.05 7.96 10.23 8.05 10.4 8.15L11.68 8.92C11.74 8.95 11.8 9 11.86 9.04L12.41 9.5C12.78 9.82 13 10.28 13 10.77L13 11.05C12.84 11.02 12.67 11 12.5 11C11.95 11 11.42 11.19 10.98 11.53L10.67 11.78C10.5 11.92 10.28 12 10.05 12L9.95 12C9.72 12 9.5 11.92 9.33 11.78L9.01 11.53C8.58 11.19 8.05 11 7.5 11C6.95 11 6.42 11.19 5.99 11.53L5.67 11.78C5.5 11.92 5.28 12 5.05 12L4.95 12C4.72 12 4.5 11.92 4.33 11.78L4.01 11.53C3.58 11.19 3.05 11 2.5 11L2.42 11.01C2.77 10.33 3.33 9.78 4 9.42L4 8.02C3.72 7.94 3.39 7.75 3 7.43C1 5.83 3.84 0.5 4.5 0.5Z"/>
</svg>