<svg xmlns="http://www.w3.org/2000/svg" viewBox="0 0 15 15">
  <path fill="param(fill) #888" stroke="param(outline) #000" stroke-width="param(outline-width) 0" fill-opacity="param(fill-opacity) 1" stroke-opacity="param(outline-opacity) 1" d="M0 4C0 2.9 0.9 2 2 2L13 2C14.1 2 15 2.9 15 4L15 11C15 12.1 14.1 13 13 13L2 13C0.9 13 0 12.1 0 11L0 4ZM1.5 4L1.5 11C1.5 11.28 1.72 11.5 2 11.5L13 11.5C13.28 11.5 13.5 11.28 13.5 11L13.5 7.5L8.5 10.5L8.5 4.5L13.5 7.5L13.5 4C13.5 3.72 13.28 3.5 13 3.5L2 3.5C1.72 3.5 1.5 3.72 1.5 4ZM1.5 7.5L6.5 4.5L6.5 10.5L1.5 7.5Z"/>
</svg>