<?xml version="1.0" encoding="UTF-8"?>
<svg viewBox="0 0 15 15" version="1.1" xmlns="http://www.w3.org/2000/svg" xmlns:xlink="http://www.w3.org/1999/xlink">
  <path fill="param(fill) #888" stroke="param(outline) #000" stroke-width="param(outline-width) 0" fill-opacity="param(fill-opacity) 1" stroke-opacity="param(outline-opacity) 1" d="M15 11C15 12.1 14.1 13 13 13L2 13C0.9 13 0 12.1 0 11L0 4C0 2.9 0.9 2 2 2L13 2C14.05 2 14.92 2.82 14.99 3.85L15 3.96C15 3.99 15 4.01 15 4.04L15 11L15 11ZM6.5 10.5L6.5 4.5L1.5 7.5L6.5 10.5ZM13.5 7.5L8.5 4.5L8.5 10.5L13.5 7.5Z"/>
</svg>