<svg xmlns="http://www.w3.org/2000/svg" viewBox="0 0 15 15">
  <path fill="param(fill) #888" stroke="param(outline) #000" stroke-width="param(outline-width) 0" fill-opacity="param(fill-opacity) 1" stroke-opacity="param(outline-opacity) 1" d="M14.79 10.91L8.92 0.81C8.63 0.31 8.09 0 7.5 0C6.92 0 6.38 0.31 6.09 0.81L0.22 10.91C-0.07 11.41 -0.07 12.03 0.22 12.53C0.51 13.03 1.05 13.34 1.62 13.34L13.36 13.34C13.95 13.32 14.49 13.03 14.78 12.53C15.07 12.03 15.07 11.41 14.78 10.91L14.79 10.91ZM9.11 9.25L9.11 10.41C9.11 10.97 8.65 11.43 8.09 11.43L6.87 11.43C6.31 11.43 5.85 10.97 5.85 10.41L5.85 9.25C5.13 8.67 4.71 7.74 4.91 6.7C5.1 5.69 5.91 4.86 6.92 4.65C8.61 4.3 10.1 5.58 10.1 7.21C10.1 8.04 9.7 8.77 9.1 9.25L9.11 9.25ZM9.18 7.29C9.18 7.64 8.9 7.92 8.55 7.92C8.2 7.92 7.93 7.64 7.93 7.29C7.93 6.95 8.2 6.67 8.55 6.67C8.9 6.67 9.18 6.95 9.18 7.29ZM7.09 7.29C7.09 7.64 6.81 7.92 6.47 7.92C6.12 7.92 5.84 7.64 5.84 7.29C5.84 6.95 6.12 6.67 6.47 6.67C6.81 6.67 7.09 6.95 7.09 7.29ZM7.9 8.76L7.9 9.17L7.09 9.17L7.09 8.76C7.09 8.54 7.27 8.36 7.49 8.36C7.71 8.36 7.9 8.54 7.9 8.76L7.9 8.76Z"/>
</svg>