<svg xmlns="http://www.w3.org/2000/svg" viewBox="0 0 15 15">
  <path fill="param(fill) #888" stroke="param(outline) #000" stroke-width="param(outline-width) 0" fill-opacity="param(fill-opacity) 1" stroke-opacity="param(outline-opacity) 1" d="M11 0C12.1 0 13 0.9 13 2L13 13C13 14.1 12.1 15 11 15L4 15C2.9 15 2 14.1 2 13L2 2C2 0.9 2.9 0 4 0L11 0ZM11 1.5L4 1.5C3.72 1.5 3.5 1.72 3.5 2L3.5 13C3.5 13.28 3.72 13.5 4 13.5L7.5 13.5L4.5 8.5L10.5 8.5L7.5 13.5L11 13.5C11.28 13.5 11.5 13.28 11.5 13L11.5 2C11.5 1.72 11.28 1.5 11 1.5ZM7.5 1.5L10.5 6.5L4.5 6.5L7.5 1.5Z"/>
</svg>