<svg xmlns="http://www.w3.org/2000/svg" viewBox="0 0 15 15">
  <path fill="param(fill) #888" stroke="param(outline) #000" stroke-width="param(outline-width) 0" fill-opacity="param(fill-opacity) 1" stroke-opacity="param(outline-opacity) 1" d="M7.43 3.13C6.43 3.14 5.64 3.52 5.01 4.03C4.38 4.54 3.9 5.17 3.45 5.72C3 6.27 2.57 6.72 2.13 6.91C1.69 7.11 1.21 7.1 0.46 6.65C0.35 6.58 0.21 6.59 0.11 6.68C0.01 6.77 -0.03 6.91 0.02 7.03L1.82 11.41C1.88 11.54 2.03 11.62 2.18 11.59C5.42 10.8 9.54 10.66 12.63 11.58C12.77 11.63 12.93 11.55 12.99 11.42L14.97 7.1C15.03 6.98 15 6.84 14.9 6.75C14.8 6.66 14.66 6.64 14.54 6.71C13.93 7.06 13.52 7.02 13.07 6.8C12.62 6.57 12.16 6.1 11.66 5.57C10.65 4.49 9.42 3.11 7.43 3.13ZM7.47 4.55C7.56 4.55 7.65 4.55 7.74 4.57C8.41 4.66 8.82 4.95 9.14 5.58C9.36 6.01 9.4 6.24 9.33 6.81C9.28 7.2 9.16 7.58 9.06 7.66C8.96 7.74 8.88 7.98 8.88 8.18C8.88 8.41 8.72 8.73 8.47 9.01C8.13 9.4 7.99 9.47 7.51 9.47C7.05 9.47 6.87 9.39 6.54 9.07C6.25 8.78 6.14 8.55 6.14 8.22C6.14 7.95 6.07 7.74 5.96 7.7C5.84 7.65 5.74 7.33 5.68 6.79C5.6 6.02 5.62 5.91 5.94 5.42C6.31 4.87 6.87 4.56 7.47 4.55ZM6.62 6.34C6.43 6.35 6.28 6.48 6.28 6.71C6.28 7.23 6.73 7.36 7.08 6.94C7.26 6.72 7.24 6.65 7 6.48C6.87 6.38 6.74 6.34 6.62 6.34ZM8.45 6.37C8.37 6.37 8.27 6.39 8.18 6.45C7.84 6.62 7.82 6.77 8.08 7.03C8.37 7.31 8.64 7.25 8.76 6.88C8.86 6.57 8.7 6.36 8.45 6.37ZM7.48 7.18C7.41 7.23 7.25 7.48 7.32 7.55C7.39 7.62 7.42 7.54 7.49 7.54C7.56 7.54 7.6 7.61 7.66 7.56C7.73 7.5 7.55 7.14 7.48 7.18ZM6.47 8.09C6.4 8.1 6.37 8.19 6.42 8.24L6.71 8.58C6.74 8.62 6.8 8.62 6.83 8.58L7.07 8.35C7.36 8.32 7.59 8.3 7.92 8.36L8.09 8.55C8.13 8.59 8.19 8.59 8.22 8.55L8.5 8.25C8.58 8.16 8.45 8.05 8.37 8.13L8.16 8.36L8.02 8.22C8.01 8.21 7.99 8.2 7.98 8.2C7.6 8.12 7.34 8.14 7.02 8.18C7 8.18 6.99 8.19 6.97 8.2L6.78 8.39L6.55 8.13C6.53 8.11 6.5 8.09 6.48 8.09C6.48 8.09 6.47 8.09 6.47 8.09Z"/>
</svg>