<?xml version="1.0" encoding="UTF-8"?>
<svg viewBox="0 0 15 15" version="1.1" xmlns="http://www.w3.org/2000/svg" xmlns:xlink="http://www.w3.org/1999/xlink">
  <path fill="param(fill) #888" stroke="param(outline) #000" stroke-width="param(outline-width) 0" fill-opacity="param(fill-opacity) 1" stroke-opacity="param(outline-opacity) 1" d="M12.25 9.75C13 9.75 13.5 10.25 13.5 11C13.5 11.75 13 12.25 12.25 12.25C11.5 12.25 11 11.75 11 11C11 10.25 11.5 9.75 12.25 9.75ZM3.25 9.75C4 9.75 4.5 10.25 4.5 11C4.5 11.75 4 12.25 3.25 12.25C2.5 12.25 2 11.75 2 11C2 10.25 2.5 9.75 3.25 9.75ZM0.5 3L9.5 3C9.92 3 10 3.26 10 3.4L10 7L10.75 7L10.75 4.5C10.75 4.13 11.03 4.03 11.17 4.01L11.25 4C11.25 4 13 4 13 4C14.5 4 14.5 6 14.5 7L14.58 7.01C14.7 7.03 14.94 7.11 14.99 7.39L15 7.5C15 7.5 15 11 15 11L14 11C14 9.75 13.25 9.25 12.25 9.25C11.25 9.25 10.5 9.75 10.5 11L5 11C5 9.75 4.25 9.25 3.25 9.25C2.25 9.25 1.5 9.75 1.5 11L0 11L0 3.5C0 3.5 0 3 0.5 3ZM12 5L12 7L13.5 7L13.5 6.5C13.49 5.69 13.42 5 13 5L12 5Z"/>
</svg>