<?xml version="1.0" encoding="UTF-8"?>
<svg viewBox="0 0 15 15" version="1.1" xmlns="http://www.w3.org/2000/svg" xmlns:xlink="http://www.w3.org/1999/xlink">
  <path fill="param(fill) #888" stroke="param(outline) #000" stroke-width="param(outline-width) 0" fill-opacity="param(fill-opacity) 1" stroke-opacity="param(outline-opacity) 1" d="M15 1L15 10C11.79 10 11.65 6 9.5 6L7.53 6C8.9 6.01 10 7.13 10 8.5L10 10.5C10 11.88 8.88 13 7.5 13L3.5 13C2.12 13 1 11.88 1 10.5L1 8.5C1 7.17 2.03 6.09 3.34 6.01L3.47 6L1 6C1 6.51 0.61 6.94 0.12 6.99L0 7L0 4C0.51 4 0.94 4.39 0.99 4.88L1 5L4 5L4 3L5 3L5 5L6 5L6 3L7 3L7 5L9.5 5C11.65 5 11.79 1 15 1ZM4 6L3.79 6.11C2.75 6.62 2.08 7.65 2.01 8.8L2 9C2 10.1 2.9 11 4 11L7 11C8.1 11 9 10.1 9 9C9 7.77 8.31 6.65 7.21 6.11L7 6L7 8L6 8L6 6L5 6L5 8L4 8L4 6Z"/>
</svg>