<svg xmlns="http://www.w3.org/2000/svg" viewBox="0 0 15 15">
  <path fill="param(fill) #888" stroke="param(outline) #000" stroke-width="param(outline-width) 0" fill-opacity="param(fill-opacity) 1" stroke-opacity="param(outline-opacity) 1" d="M8.82 0.06C9.41 0.24 9.83 0.79 9.84 1.4C9.84 1.7 9.64 1.93 9.35 1.94C9.11 1.95 8.9 1.78 8.85 1.53L8.84 1.44C8.82 1.18 8.64 1 8.4 1C8.17 1.01 7.99 1.19 7.98 1.41C7.97 1.63 8.1 1.8 8.31 1.85L8.4 1.87C8.73 1.9 8.91 2.08 8.91 2.42C8.91 2.58 8.91 2.74 8.91 2.9C8.9 2.97 8.93 3 8.99 3.03L9.16 3.12C9.5 3.29 10.03 3.59 10.75 4L14.61 4.91C14.84 4.96 15 5.16 15 5.4L15 8L13 8L13 15L1.5 15C0.67 15 0 14.33 0 13.5C0 13.12 0.14 12.77 0.38 12.5C0.14 12.24 0 11.88 0 11.5C0 10.67 0.67 10 1.5 10L4 10L4 8L2 8L2 5L6.25 4L6.63 3.75C7.1 3.44 7.43 3.24 7.62 3.15L7.75 3.07C7.78 3.05 7.8 3.04 7.82 3.03C7.92 3 7.9 2.93 7.91 2.86C7.92 2.78 7.86 2.76 7.81 2.74C7 2.36 6.72 1.36 7.22 0.62C7.58 0.11 8.22 -0.12 8.82 0.06ZM8.5 13L1.5 13C1.22 13 1 13.22 1 13.5C1 13.78 1.22 14 1.5 14L8.5 14C8.78 14 9 13.78 9 13.5C9 13.22 8.78 13 8.5 13ZM8.5 11L1.5 11C1.22 11 1 11.22 1 11.5C1 11.78 1.22 12 1.5 12L8.5 12C8.78 12 9 11.78 9 11.5C9 11.22 8.78 11 8.5 11ZM8.44 3.87C7.96 4.11 7.48 4.51 7 4.75C7.11 5.45 7.81 5.87 8.52 5.85C9.23 5.84 9.93 5.41 10 4.75C9.52 4.51 9.04 4.1 8.56 3.86C8.52 3.85 8.47 3.85 8.44 3.87Z"/>
</svg>