<svg xmlns="http://www.w3.org/2000/svg" viewBox="0 0 15 15">
  <path fill="param(fill) #888" stroke="param(outline) #000" stroke-width="param(outline-width) 0" fill-opacity="param(fill-opacity) 1" stroke-opacity="param(outline-opacity) 1" d="M4.93 9.67L7.09 11.08L7.09 15.02C4.87 14.85 2.86 13.32 1.72 11.25L1.78 11.23L4.93 9.67ZM10.07 9.67L13.25 11.23L13.28 11.25C12.14 13.32 10.13 14.85 7.91 15.02L7.91 11.08L10.07 9.67ZM13.58 4.55C14.01 5.49 14.25 6.51 14.25 7.51C14.25 8.54 14.04 9.56 13.64 10.51L13.6 10.47L10.45 8.92L10.45 6.1L13.58 4.55ZM1.42 4.55L4.55 6.1L4.55 8.92L1.4 10.47L1.36 10.51C0.96 9.56 0.75 8.54 0.75 7.51C0.75 6.51 0.99 5.49 1.42 4.55ZM7.5 4.67L9.61 6.07L9.61 8.95L7.5 10.35L5.39 8.95L5.39 6.07L7.5 4.67ZM7.91 0C9.96 0.2 12 1.76 13.19 3.82L10.07 5.35L7.91 3.94L7.91 0ZM7.09 0L7.09 3.94L4.93 5.35L1.81 3.82C3 1.76 5.04 0.2 7.09 0Z"/>
</svg>