<svg xmlns="http://www.w3.org/2000/svg" viewBox="0 0 15 15">
  <path fill="param(fill) #888" stroke="param(outline) #000" stroke-width="param(outline-width) 0" fill-opacity="param(fill-opacity) 1" stroke-opacity="param(outline-opacity) 1" d="M8.57 12.86L7.5 15L6.43 12.86C6.77 12.95 7.13 13 7.5 13C7.87 13 8.23 12.95 8.57 12.86ZM11.35 10.9L13 13.25L12 13.25L12 14.75L11 13.75L10 14.75L10 12.21C10.43 11.92 10.82 11.56 11.15 11.15L11.35 10.9ZM3.66 10.91C4.03 11.41 4.49 11.86 5 12.21L5 14.75L4 13.75L3 14.75L3 13.25L2 13.25L3.66 10.91ZM5.81 8.92L7.23 9.85L7.23 12.44C5.77 12.33 4.45 11.32 3.7 9.96L3.74 9.95L5.81 8.92ZM9.19 8.92L11.28 9.95L11.3 9.96C10.55 11.32 9.23 12.33 7.77 12.44L7.77 9.85L9.19 8.92ZM11.5 5.55C11.78 6.17 11.94 6.84 11.94 7.5C11.94 8.18 11.8 8.85 11.54 9.47L11.51 9.45L9.44 8.43L9.44 6.57L11.5 5.55ZM3.5 5.55L5.56 6.57L5.56 8.43L3.49 9.45L3.46 9.47C3.2 8.85 3.06 8.18 3.06 7.5C3.06 6.84 3.22 6.17 3.5 5.55ZM7.5 5.63L8.89 6.55L8.89 8.45L7.5 9.37L6.11 8.45L6.11 6.55L7.5 5.63ZM7.77 2.56C9.12 2.69 10.46 3.72 11.24 5.07L9.19 6.08L7.77 5.15L7.77 2.56ZM7.23 2.56L7.23 5.15L5.81 6.08L3.76 5.07C4.54 3.72 5.88 2.69 7.23 2.56ZM3.9 1L4.51 3.28C4.01 3.72 3.58 4.26 3.24 4.85L1.39 3.23L2.35 2.97L1.97 1.52L3.19 2.22L3.9 1ZM11.1 1L11.81 2.22L13.03 1.52L12.65 2.97L13.61 3.23L11.76 4.85C11.42 4.26 10.99 3.72 10.49 3.28L11.1 1ZM8 0L9 1.5L9 2.32C8.51 2.11 8.01 2 7.5 2C6.99 2 6.49 2.11 6 2.32L6 1.5L7 0L8 0Z"/>
</svg>