<svg xmlns="http://www.w3.org/2000/svg" viewBox="0 0 15 15">
  <path fill="param(fill) #888" stroke="param(outline) #000" stroke-width="param(outline-width) 0" fill-opacity="param(fill-opacity) 1" stroke-opacity="param(outline-opacity) 1" d="M5 0.25L5 15L2 15L2 3.82L-0.5 5.25L-0.5 2.25L3 0.25L5 0.25ZM10 0C12.21 0 14 1.79 14 4L14 5C14 6.15 13.05 7.76 11.08 10.33L9.97 12L14 12L14 15L6 15L6 12.55L8.64 8.59L9.09 8C9.72 7.14 10.21 6.43 10.54 5.86C10.69 5.61 10.81 5.39 10.89 5.21L10.99 4.98C11 4.96 11 4.97 11 5L11 4C11 3.45 10.55 3 10 3C9.45 3 9 3.45 9 4L9 5L6 5L6 4C6 1.79 7.79 0 10 0Z"/>
</svg>