<svg xmlns="http://www.w3.org/2000/svg" viewBox="0 0 15 15">
  <path fill="param(fill) #888" stroke="param(outline) #000" stroke-width="param(outline-width) 0" fill-opacity="param(fill-opacity) 1" stroke-opacity="param(outline-opacity) 1" d="M8 0C10.49 0 12.5 2.01 12.5 4.5L12.5 5C12.5 6.27 11.27 7.85 8.56 10.56L7.12 12L13 12L13 15L2.5 15L2.5 12.38L2.94 11.94L6.44 8.44C7.57 7.31 8.4 6.4 8.94 5.7C9.19 5.39 9.36 5.13 9.46 4.95C9.5 4.87 9.5 4.87 9.5 5L9.5 4.5C9.5 3.67 8.83 3 8 3L7 3C6.17 3 5.5 3.67 5.5 4.5L5.5 5L2.5 5L2.5 4.5C2.5 2.01 4.51 0 7 0L8 0Z"/>
</svg>