<svg xmlns="http://www.w3.org/2000/svg" viewBox="0 0 15 15">
  <path fill="param(fill) #888" stroke="param(outline) #000" stroke-width="param(outline-width) 0" fill-opacity="param(fill-opacity) 1" stroke-opacity="param(outline-opacity) 1" d="M4.67 0C6.32 0 7.67 1.34 7.67 3L7.67 3.33C7.67 4.14 6.91 5.15 5.26 6.82L4.08 8L8 8L8 10L1 10L1 8.25L3.63 5.63C4.29 4.96 4.81 4.4 5.17 3.96L5.29 3.8C5.42 3.64 5.52 3.49 5.59 3.38L5.64 3.3C5.67 3.25 5.67 3.25 5.67 3.33L5.67 3C5.67 2.45 5.22 2 4.67 2L4 2C3.45 2 3 2.45 3 3L3 3.33L1 3.33L1 3C1 1.34 2.34 0 4 0L4.67 0ZM12 11C12.67 12.33 13.42 13 14.25 13C14.51 13 14.76 12.94 15 12.81L15 14.86C14.76 14.95 14.51 15 14.25 15C13.42 15 12.67 14.5 12 13.5C11.33 14.5 10.58 15 9.75 15C8.92 15 8.17 14.5 7.5 13.5C6.83 14.5 6.08 15 5.25 15C4.42 15 3.67 14.5 3 13.5C2.33 14.5 1.58 15 0.75 15C0.49 15 0.24 14.95 0 14.86L0 12.81C0.24 12.94 0.49 13 0.75 13C1.58 13 2.33 12.33 3 11C3.67 12.33 4.42 13 5.25 13C6.08 13 6.83 12.33 7.5 11C8.17 12.33 8.92 13 9.75 13C10.58 13 11.33 12.33 12 11ZM9 4H14.5V6H9V4z"/>
</svg>