<svg xmlns="http://www.w3.org/2000/svg" viewBox="0 0 15 15">
  <path fill="param(fill) #888" stroke="param(outline) #000" stroke-width="param(outline-width) 0" fill-opacity="param(fill-opacity) 1" stroke-opacity="param(outline-opacity) 1" d="M4.67 2C6.32 2 7.67 3.34 7.67 5L7.67 5.33C7.67 6.14 6.91 7.15 5.26 8.82L4.08 10L8 10L8 12L1 12L1 10.25L3.63 7.63C4.29 6.96 4.81 6.4 5.17 5.96L5.29 5.8C5.42 5.64 5.52 5.49 5.59 5.38L5.64 5.3C5.67 5.25 5.67 5.25 5.67 5.33L5.67 5C5.67 4.45 5.22 4 4.67 4L4 4C3.45 4 3 4.45 3 5L3 5.33L1 5.33L1 5C1 3.34 2.34 2 4 2L4.67 2ZM9 6H14.5V8H9V6z"/>
</svg>