<svg xmlns="http://www.w3.org/2000/svg" viewBox="0 0 15 15">
  <path fill="param(fill) #888" stroke="param(outline) #000" stroke-width="param(outline-width) 0" fill-opacity="param(fill-opacity) 1" stroke-opacity="param(outline-opacity) 1" d="M7.67 0C9.32 0 10.67 1.34 10.67 3L10.67 3.33C10.67 4.14 9.91 5.15 8.26 6.82L7.08 8L11 8L11 10L4 10L4 8.25L6.63 5.63C7.29 4.96 7.81 4.4 8.17 3.96L8.29 3.8C8.42 3.64 8.52 3.49 8.59 3.38L8.64 3.3C8.67 3.25 8.67 3.25 8.67 3.33L8.67 3C8.67 2.45 8.22 2 7.67 2L7 2C6.45 2 6 2.45 6 3L6 3.33L4 3.33L4 3C4 1.34 5.34 0 7 0L7.67 0ZM12 11C12.67 12.33 13.42 13 14.25 13C14.51 13 14.76 12.94 15 12.81L15 14.86C14.76 14.95 14.51 15 14.25 15C13.42 15 12.67 14.5 12 13.5C11.33 14.5 10.58 15 9.75 15C8.92 15 8.17 14.5 7.5 13.5C6.83 14.5 6.08 15 5.25 15C4.42 15 3.67 14.5 3 13.5C2.33 14.5 1.58 15 0.75 15C0.49 15 0.24 14.95 0 14.86L0 12.81C0.24 12.94 0.49 13 0.75 13C1.58 13 2.33 12.33 3 11C3.67 12.33 4.42 13 5.25 13C6.08 13 6.83 12.33 7.5 11C8.17 12.33 8.92 13 9.75 13C10.58 13 11.33 12.33 12 11Z"/>
</svg>