<?xml version="1.0" encoding="UTF-8"?>
<svg viewBox="0 0 15 15" version="1.1" xmlns="http://www.w3.org/2000/svg" xmlns:xlink="http://www.w3.org/1999/xlink">
  <path fill="param(fill) #888" stroke="param(outline) #000" stroke-width="param(outline-width) 0" fill-opacity="param(fill-opacity) 1" stroke-opacity="param(outline-opacity) 1" d="M13.5 9.21C13.5 10.48 12.47 11.5 11.19 11.5L3.81 11.5C2.53 11.5 1.5 10.48 1.5 9.21L1.5 5.79C1.5 4.52 2.53 3.5 3.81 3.5L11.19 3.5C12.47 3.5 13.5 4.52 13.5 5.79L13.5 9.21ZM6.5 7.5C6.5 6.67 5.83 6 5 6C4.17 6 3.5 6.67 3.5 7.5C3.5 8.33 4.17 9 5 9C5.83 9 6.5 8.33 6.5 7.5ZM11.5 7.5C11.5 6.67 10.83 6 10 6C9.17 6 8.5 6.67 8.5 7.5C8.5 8.33 9.17 9 10 9C10.83 9 11.5 8.33 11.5 7.5Z"/>
</svg>