<svg xmlns="http://www.w3.org/2000/svg" viewBox="0 0 15 15">
  <path fill="param(fill) #888" stroke="param(outline) #000" stroke-width="param(outline-width) 0" fill-opacity="param(fill-opacity) 1" stroke-opacity="param(outline-opacity) 1" d="M7.21 0C3.66 0.09 2.79 1.82 2.57 5.91C3.9 5.57 5.49 5.38 7.21 5.35L7.21 4.22C6.86 4.07 6.63 3.66 6.63 3.21L6.63 2.13C6.64 1.68 6.87 1.28 7.21 1.13L7.21 0ZM7.79 0L7.79 1.13C8.13 1.28 8.36 1.68 8.37 2.13L8.37 3.21C8.37 3.66 8.14 4.07 7.79 4.22L7.79 5.35C9.52 5.38 11.12 5.58 12.44 5.92C12.23 1.87 11.33 0.09 7.79 0ZM7.5 5.92C5.63 5.92 3.91 6.14 2.54 6.51C2.52 7.19 2.51 7.94 2.5 8.75C2.5 9.73 2.59 10.64 2.81 11.37C3.86 15 6.51 15 7.5 15C8.49 15 11.12 15.08 12.19 11.37C12.41 10.64 12.5 9.7 12.5 8.75C12.5 7.94 12.49 7.2 12.47 6.51C11.1 6.14 9.38 5.92 7.5 5.92Z"/>
</svg>