<svg xmlns="http://www.w3.org/2000/svg" viewBox="0 0 15 15">
  <path fill="param(fill) #888" stroke="param(outline) #000" stroke-width="param(outline-width) 0" fill-opacity="param(fill-opacity) 1" stroke-opacity="param(outline-opacity) 1" d="M12.5 11C12.82 11 13.14 11.11 13.39 11.31L13.71 11.57C14.01 11.81 14.39 11.96 14.78 12L15 12L15 13.5L14.95 13.5C14.49 13.5 14.06 13.34 13.71 13.06L13.39 12.81C13.14 12.61 12.82 12.5 12.5 12.5C12.18 12.5 11.86 12.61 11.61 12.81L11.3 13.06C10.94 13.34 10.5 13.5 10.05 13.5L9.95 13.5C9.5 13.5 9.06 13.34 8.7 13.06L8.39 12.81C8.14 12.61 7.82 12.5 7.5 12.5C7.18 12.5 6.86 12.61 6.61 12.81L6.3 13.06C5.94 13.34 5.5 13.5 5.05 13.5L4.95 13.5C4.5 13.5 4.06 13.34 3.7 13.06L3.39 12.81C3.14 12.61 2.82 12.5 2.5 12.5C2.18 12.5 1.86 12.61 1.61 12.81L1.29 13.06C0.99 13.31 0.61 13.46 0.22 13.49L0 13.5L0 12L0.05 12C0.51 12 0.94 11.85 1.29 11.57L1.61 11.31C1.86 11.11 2.18 11 2.5 11C2.82 11 3.14 11.11 3.39 11.31L3.7 11.56C4.06 11.85 4.5 12 4.95 12L5.05 12C5.5 12 5.94 11.85 6.3 11.56L6.61 11.31C6.86 11.11 7.18 11 7.5 11C7.82 11 8.14 11.11 8.39 11.31L8.7 11.56C9.06 11.85 9.5 12 9.95 12L10.05 12C10.5 12 10.94 11.85 11.3 11.56L11.61 11.31C11.86 11.11 12.18 11 12.5 11ZM5 7.38L6.67 8.49L10.04 8.49L11.39 9.85L11.27 10.12C11.23 10.21 11.18 10.32 11.13 10.43L10.98 10.53L10.67 10.78C10.5 10.92 10.28 11 10.05 11L9.95 11C9.72 11 9.5 10.92 9.33 10.78L9.01 10.53C8.58 10.19 8.05 10 7.5 10C6.95 10 6.42 10.19 5.99 10.53L5.73 10.73C5.68 10.71 5.64 10.71 5.6 10.73C5.22 10.34 5.03 9.91 5 9.6L5 7.38ZM3.75 4.5C3.89 4.5 4 4.63 4 4.8L4 5C4.28 5 4.5 5.22 4.5 5.5L4.5 6.5C4.5 6.78 4.28 7 4 7L4 10.52L3.85 10.41C3.74 10.34 3.62 10.27 3.5 10.22L3.5 7C3.22 7 3 6.78 3 6.5L3 5.5C3 5.22 3.22 5 3.5 5L3.5 4.8C3.5 4.63 3.61 4.5 3.75 4.5ZM1.5 0.5C1.64 0.5 1.75 0.63 1.75 0.8L1.75 1C2.03 1 2.25 1.22 2.25 1.5L2.25 2.5C2.25 2.78 2.03 3 1.75 3L1.75 4.63C2.67 2.93 4.34 2.36 5.07 2.19C5 1.92 5.15 1.65 5.42 1.58L6.39 1.32C6.66 1.24 6.93 1.4 7 1.67L7.19 1.62C7.35 1.58 7.51 1.65 7.55 1.78C7.58 1.92 7.48 2.06 7.32 2.1L7.13 2.15C7.2 2.42 7.04 2.69 6.78 2.77L5.81 3.03C5.51 3.1 5.26 2.9 5.2 2.67C4.11 2.95 2.24 3.98 1.75 6.08L1.75 10.12C1.57 10.18 1.41 10.26 1.25 10.35L1.25 3C0.97 3 0.75 2.78 0.75 2.5L0.75 1.5C0.75 1.22 0.97 1 1.25 1L1.25 0.8C1.25 0.63 1.36 0.5 1.5 0.5ZM12.67 6.4C12.89 6.42 13.11 6.51 13.29 6.69C13.48 6.88 13.56 7.13 13.51 7.38L15 7.38L14.97 7.48C14.91 7.64 14.76 7.93 14.44 7.93L13.12 7.93L11.64 9.42L10.47 8.23L12.07 6.63C12.2 6.5 12.38 6.42 12.58 6.4L12.67 6.4Z"/>
</svg>