<svg xmlns="http://www.w3.org/2000/svg" viewBox="0 0 15 15">
  <path fill="param(fill) #888" stroke="param(outline) #000" stroke-width="param(outline-width) 0" fill-opacity="param(fill-opacity) 1" stroke-opacity="param(outline-opacity) 1" d="M4.35 5.5C4.49 5.5 4.6 5.63 4.6 5.8L4.6 6C4.88 6 5.1 6.22 5.1 6.5L5.1 7.5C5.1 7.78 4.88 8 4.6 8L4.6 11.4L4.56 11.42C4.48 11.38 4.4 11.34 4.33 11.28L4.1 11.1L4.1 8C3.85 8 3.65 7.83 3.61 7.59L3.6 7.5L3.6 6.5C3.6 6.22 3.82 6 4.1 6L4.1 5.8C4.1 5.63 4.21 5.5 4.35 5.5ZM11.35 1.5C11.49 1.5 11.6 1.63 11.6 1.8L11.6 2C11.88 2 12.1 2.22 12.1 2.5L12.1 3.5C12.1 3.78 11.88 4 11.6 4L11.6 6.79C12.24 7.17 12.92 7.75 13.4 8.63L13.4 7C13.12 7 12.9 6.78 12.9 6.5L12.9 5.5C12.9 5.22 13.12 5 13.4 5L13.4 4.8C13.4 4.63 13.51 4.5 13.65 4.5C13.79 4.5 13.9 4.63 13.9 4.8L13.9 5C14.18 5 14.4 5.22 14.4 5.5L14.4 6.5C14.4 6.78 14.18 7 13.9 7L13.9 10.95L13.85 10.91C13.71 10.82 13.56 10.74 13.4 10.68L13.4 10.08C13.12 8.87 12.38 8.02 11.6 7.46L11.6 10.67C11.42 10.74 11.26 10.83 11.1 10.95L11.1 7.14C10.68 6.91 10.28 6.75 9.95 6.67C9.89 6.9 9.64 7.1 9.34 7.03L8.37 6.77C8.11 6.69 7.95 6.42 8.02 6.15L7.83 6.1C7.67 6.06 7.57 5.92 7.6 5.78C7.64 5.65 7.8 5.58 7.96 5.62L8.15 5.67C8.22 5.4 8.49 5.24 8.76 5.32L9.73 5.58C10 5.65 10.15 5.92 10.08 6.19L10.32 6.25C10.54 6.31 10.81 6.4 11.1 6.54L11.1 4C10.82 4 10.6 3.78 10.6 3.5L10.6 2.5C10.6 2.22 10.82 2 11.1 2L11.1 1.8C11.1 1.63 11.21 1.5 11.35 1.5ZM1.35 1.5C1.49 1.5 1.6 1.63 1.6 1.8L1.6 2C1.88 2 2.1 2.22 2.1 2.5L2.1 3.5C2.1 3.78 1.88 4 1.6 4L1.6 5.63C2.52 3.93 4.19 3.36 4.92 3.19C4.85 2.92 5 2.65 5.27 2.58L6.24 2.32C6.51 2.24 6.78 2.4 6.85 2.67L7.04 2.62C7.2 2.58 7.36 2.65 7.4 2.78C7.43 2.92 7.33 3.06 7.17 3.1L6.98 3.15C7.05 3.42 6.89 3.69 6.63 3.77L5.66 4.03C5.36 4.1 5.11 3.9 5.05 3.67C3.96 3.95 2.09 4.98 1.6 7.08L1.6 10.68C1.42 10.75 1.26 10.84 1.1 10.95L1.1 4C0.82 4 0.6 3.78 0.6 3.5L0.6 2.5C0.6 2.22 0.82 2 1.1 2L1.1 1.8C1.1 1.63 1.21 1.5 1.35 1.5ZM7.35 7.5C7.49 7.5 7.6 7.63 7.6 7.8L7.6 8C7.88 8 8.1 8.22 8.1 8.5L8.1 9.5C8.1 9.78 7.88 10 7.6 10L7.6 10.51L7.5 10.5C7.37 10.5 7.23 10.51 7.1 10.54L7.1 10C6.82 10 6.6 9.78 6.6 9.5L6.6 8.5C6.6 8.22 6.82 8 7.1 8L7.1 7.8C7.1 7.63 7.21 7.5 7.35 7.5ZM6.3 13.56L6.61 13.31C6.86 13.11 7.18 13 7.5 13C7.82 13 8.14 13.11 8.39 13.31L8.7 13.56C9.06 13.84 9.5 14 9.95 14L10.05 14C10.5 14 10.94 13.84 11.3 13.56L11.61 13.31C11.86 13.11 12.18 13 12.5 13C12.82 13 13.14 13.11 13.39 13.31L13.71 13.56C14.01 13.81 14.39 13.96 14.78 13.99L15 14L15 12.5L14.95 12.5C14.49 12.5 14.06 12.35 13.71 12.07L13.39 11.81C13.14 11.61 12.82 11.5 12.5 11.5C12.18 11.5 11.86 11.61 11.61 11.81L11.3 12.06C10.94 12.35 10.5 12.5 10.05 12.5L9.95 12.5C9.5 12.5 9.06 12.35 8.7 12.06L8.39 11.81C8.14 11.61 7.82 11.5 7.5 11.5C7.18 11.5 6.86 11.61 6.61 11.81L6.3 12.06C5.94 12.35 5.5 12.5 5.05 12.5L4.95 12.5C4.5 12.5 4.06 12.35 3.7 12.06L3.39 11.81C3.14 11.61 2.82 11.5 2.5 11.5C2.18 11.5 1.86 11.61 1.61 11.81L1.29 12.07C0.99 12.31 0.61 12.46 0.22 12.5L0 12.5L0 14L0.05 14C0.51 14 0.94 13.84 1.29 13.56L1.61 13.31C1.86 13.11 2.18 13 2.5 13C2.82 13 3.14 13.11 3.39 13.31L3.7 13.56C4.06 13.84 4.5 14 4.95 14L5.05 14C5.5 14 5.94 13.84 6.3 13.56Z"/>
</svg>