<svg xmlns="http://www.w3.org/2000/svg" viewBox="0 0 15 15">
  <path fill="param(fill) #888" stroke="param(outline) #000" stroke-width="param(outline-width) 0" fill-opacity="param(fill-opacity) 1" stroke-opacity="param(outline-opacity) 1" d="M7.51 3C7.1 3 6.75 2.85 6.45 2.56C6.16 2.27 6.01 1.91 6.01 1.5C6.01 1.09 6.16 0.73 6.45 0.44C6.75 0.15 7.1 0 7.51 0C7.92 0 8.27 0.15 8.56 0.44C8.85 0.73 9 1.09 9 1.5C9 1.91 8.85 2.27 8.56 2.56C8.27 2.85 7.92 3 7.51 3ZM4.65 4.56C4.91 4.29 5.21 4.09 5.53 3.96C5.85 3.82 6.2 3.75 6.57 3.75L8.44 3.75C8.81 3.75 9.16 3.82 9.49 3.96C9.81 4.09 10.1 4.29 10.36 4.56L13 7.2L11.95 8.25L9.75 6.04L9 5.25L8.69 5.87C8.22 6.82 8.47 7.97 9.29 8.64L9.75 9L9.75 15L8.25 15L8.25 9.75L6.76 9.75L6.76 15L5.27 15L5.27 9L5.72 8.64C6.54 7.97 6.8 6.82 6.32 5.87L6.01 5.25L5.27 6.04L3.03 8.29L2 7.22L4.65 4.56Z"/>
</svg>