<?xml version="1.0" encoding="UTF-8"?>
<svg viewBox="0 0 15 15" version="1.1" xmlns="http://www.w3.org/2000/svg" xmlns:xlink="http://www.w3.org/1999/xlink">
  <path fill="param(fill) #888" stroke="param(outline) #000" stroke-width="param(outline-width) 0" fill-opacity="param(fill-opacity) 1" stroke-opacity="param(outline-opacity) 1" d="M9 0.5L9 2L11.5 2C12 2 12 2.5 12 2.5L12 12.5C12 12.5 12 13 11.5 13L9 13L9 14.5C9 15 6 15 6 14.5L6 13L3.5 13C3.04 13 3 12.58 3 12.51L3 2.5C3 2.5 3 2 3.5 2L6 2L6 0.5C6 0 9 0 9 0.5ZM7.5 3.75C5.25 3.75 3.75 5.25 3.75 7.5C3.75 9.75 5.25 11.25 7.5 11.25C9.75 11.25 11.25 9.75 11.25 7.5C11.25 5.25 9.75 3.75 7.5 3.75ZM7.5 4.5C9.2 4.5 10.5 5.9 10.5 7.5C10.5 9.1 9.2 10.5 7.5 10.5C5.8 10.5 4.5 9.2 4.5 7.5C4.5 5.8 5.8 4.5 7.5 4.5ZM8.1 8.2C7.72 8.45 7.28 8.45 6.9 8.2L5.75 9L5.8 9.07C5.96 9.26 6.51 9.8 7.5 9.8C8.7 9.8 9.25 9 9.25 9L8.1 8.2ZM7.1 5.2C6.1 5.4 5.2 6.4 5.2 7.5C5.2 8.13 5.38 8.38 5.38 8.38L6.6 7.6L6.59 7.54C6.59 7.37 6.62 6.94 7.1 6.7L7.1 5.2ZM7.9 5.2L7.9 6.7C8.5 7 8.4 7.6 8.4 7.6L9.63 8.38L9.66 8.32C9.71 8.2 9.8 7.94 9.8 7.5C9.8 6.4 8.9 5.4 7.9 5.2Z"/>
</svg>