<?xml version="1.0" encoding="UTF-8"?>
<svg viewBox="0 0 15 15" version="1.1" xmlns="http://www.w3.org/2000/svg" xmlns:xlink="http://www.w3.org/1999/xlink">
  <path fill="param(fill) #888" stroke="param(outline) #000" stroke-width="param(outline-width) 0" fill-opacity="param(fill-opacity) 1" stroke-opacity="param(outline-opacity) 1" d="M0.56 0C0.13 0 0.03 0.26 0.01 0.38L0 0.44C0 0.44 0 0.89 0.56 0.89L1.69 0.89L3.47 3.95C3.73 4.42 3.98 4.87 4.41 5.64C3.96 6.09 4.45 7.63 4.99 8.73L5.06 8.89C5.86 10.46 6.75 11.67 7.45 11.5C6.8 11.66 6.76 12.15 6.75 12.67L6.76 13.11C6.77 13.69 6.85 14.44 7.32 14.44L7.54 14.44C7.55 14.69 7.88 15 8.44 15C9 15 9.34 14.69 9.34 14.44L11.82 14.44C11.88 14.89 12.31 15 12.66 15C12.98 15 13.41 14.86 13.5 14.44L14.07 14.44C15.19 14.44 15.19 13.33 14.63 12.78C14.07 12.22 13.48 12.22 12.38 12.22C11.84 12.22 11.31 11.22 9.81 11.12L9.57 11.11L9 11.11C9.5 10.62 8.96 9.37 8.2 7.85L7.74 6.96C7.22 5.94 6.62 5.03 5.11 5.28L3.49 2.31C2.22 0.01 2.12 0 1.69 0L0.56 0Z"/>
</svg>