<svg xmlns="http://www.w3.org/2000/svg" viewBox="0 0 15 15">
  <path fill="param(fill) #888" stroke="param(outline) #000" stroke-width="param(outline-width) 0" fill-opacity="param(fill-opacity) 1" stroke-opacity="param(outline-opacity) 1" d="M1.38 0.03C1.34 0.03 1.29 0.04 1.23 0.05C1.16 0.06 1.1 0.1 1.05 0.14C0.93 0.16 0.83 0.26 0.8 0.38C0.8 0.39 0.8 0.41 0.8 0.41L0.8 0.41C0.8 0.42 0.8 0.43 0.8 0.44C0.36 2.35 0.46 5.86 0.66 8.96C0.87 12.07 1.18 14.72 1.18 14.73L1.18 14.76C1.2 14.92 1.35 15.05 1.52 15.03C1.69 15.02 1.82 14.87 1.81 14.7C1.74 13.42 2.23 11.69 2.83 11C2.98 10.82 3.13 10.72 3.26 10.67C3.39 10.63 3.5 10.64 3.65 10.72C3.95 10.88 4.4 11.43 4.84 12.59L4.85 12.62C4.92 12.77 5.1 12.83 5.25 12.77C5.41 12.7 5.48 12.53 5.43 12.37C5.42 12.36 5.42 12.36 5.41 12.35L5.42 12.35C5.42 12.35 4.33 10.05 3.29 7.41C2.77 6.08 2.26 4.67 1.91 3.43C1.71 2.74 1.57 2.12 1.49 1.58C4.98 5.1 6.18 9.92 6.7 13.92C6.83 14.17 7.19 14.17 7.31 13.91C8.41 11.56 9.44 10.43 10.49 9.93C11.54 9.44 12.68 9.56 14.11 9.87C14.45 9.94 14.66 9.49 14.38 9.28C10.17 6.19 6.73 3.21 2.26 0.43C2.05 0.31 1.87 0.21 1.71 0.14C1.6 0.09 1.52 0.04 1.38 0.03ZM1.2 3.19C1.24 3.33 1.26 3.45 1.3 3.6C1.67 4.88 2.18 6.3 2.71 7.64C3.24 8.98 3.38 9.23 3.79 10.14C3.55 10.06 3.29 10 3.06 10.08C2.79 10.17 2.56 10.35 2.36 10.59C2.02 10.98 1.78 11.57 1.58 12.17C1.47 11.1 1.41 10.67 1.29 8.92C1.16 6.94 1.14 4.95 1.2 3.19ZM7.99 6.25L9 6.99L10.18 6.57L9.79 7.76L10.56 8.75L9.31 8.75L8.6 9.78L8.21 8.6L7.01 8.24L8.02 7.51L7.99 6.25Z"/>
</svg>