<svg xmlns="http://www.w3.org/2000/svg" viewBox="0 0 15 15">
  <path fill="param(fill) #888" stroke="param(outline) #000" stroke-width="param(outline-width) 0" fill-opacity="param(fill-opacity) 1" stroke-opacity="param(outline-opacity) 1" d="M4.62 4.27C5.25 3.81 6.13 3.95 6.59 4.57C6.64 4.65 6.68 4.72 6.72 4.8L7 5.38L7.28 4.8C7.61 4.1 8.45 3.81 9.15 4.13C9.23 4.17 9.31 4.21 9.38 4.27C10.05 4.75 10.2 5.68 9.71 6.35C9.68 6.4 9.64 6.44 9.59 6.49L7.36 8.84C7.18 9.04 6.86 9.05 6.66 8.87L6.64 8.84L4.41 6.49C3.84 5.89 3.87 4.95 4.48 4.38L4.54 4.32L4.62 4.27ZM12 0C12.55 0 13 0.45 13 1L13 14C13 14.55 12.55 15 12 15L3 15C2.45 15 2 14.55 2 14L2 1C2 0.45 2.45 0 3 0L12 0ZM9.5 12.5L4.5 12.5L4.5 13.5L9.5 13.5L9.5 12.5ZM10.5 1.5L3.5 1.5L3.5 11L10.5 11L10.5 1.5ZM12.25 8L11.25 8L11.25 9L12.25 9L12.25 8ZM12.25 6L11.25 6L11.25 7L12.25 7L12.25 6ZM12.25 4L11.25 4L11.25 5L12.25 5L12.25 4Z"/>
</svg>