<svg xmlns="http://www.w3.org/2000/svg" viewBox="0 0 15 15">
  <path fill="param(fill) #888" stroke="param(outline) #000" stroke-width="param(outline-width) 0" fill-opacity="param(fill-opacity) 1" stroke-opacity="param(outline-opacity) 1" d="M8.5 5C8.97 4.22 8.72 3.2 7.93 2.74C7.68 2.58 7.38 2.5 7.08 2.5L6.92 2.5C6 2.5 5.26 3.24 5.26 4.15C5.26 4.45 5.35 4.74 5.5 5L5.5 5L5.5 5L5 5C4.59 5 4.25 5.34 4.25 5.75C4.25 6.16 4.59 6.5 5 6.5L9 6.5C9.41 6.5 9.75 6.16 9.75 5.75C9.75 5.34 9.41 5 9 5L8.5 5L8.5 5ZM7 10.5C8.17 8.17 8.75 7 8.75 7L5.25 7C5.25 7 5.83 8.17 7 10.5ZM12 0C12.55 0 13 0.45 13 1L13 14C13 14.55 12.55 15 12 15L3 15C2.45 15 2 14.55 2 14L2 1C2 0.45 2.45 0 3 0L12 0ZM9.5 12.5L4.5 12.5L4.5 13.5L9.5 13.5L9.5 12.5ZM10.5 1.5L3.5 1.5L3.5 11L10.5 11L10.5 1.5ZM12.25 8L11.25 8L11.25 9L12.25 9L12.25 8ZM12.25 6L11.25 6L11.25 7L12.25 7L12.25 6ZM12.25 4L11.25 4L11.25 5L12.25 5L12.25 4Z"/>
</svg>