<svg xmlns="http://www.w3.org/2000/svg" viewBox="0 0 15 15">
  <path fill="param(fill) #888" stroke="param(outline) #000" stroke-width="param(outline-width) 0" fill-opacity="param(fill-opacity) 1" stroke-opacity="param(outline-opacity) 1" d="M4.5 8.25L5.5 8.75L5.5 8.71C5.5 8.25 5.32 7.82 5 7.5L5 7.5L5 7.5L5.75 6.25L6.75 6.75L6.75 6.71C6.75 6.25 6.57 5.82 6.25 5.5L6.25 5.5L6.25 5.5L7 4.25L8 4.75L8 4.71C8 4.25 7.82 3.82 7.5 3.5L7.5 3.5L7.5 3.5L7.96 2.74C8.14 2.43 8.46 2.25 8.82 2.25L9 2.25C9.41 2.25 9.75 2.59 9.75 3L9.75 3.44C9.75 3.97 9.61 4.49 9.34 4.95L6.75 9.39C6.44 9.92 5.87 10.25 5.25 10.25L4.77 10.25C4.46 10.25 4.2 10.04 4.13 9.75C4.04 9.43 4.08 9.09 4.23 8.79L4.5 8.25L4.5 8.25ZM12 0C12.55 0 13 0.45 13 1L13 14C13 14.55 12.55 15 12 15L3 15C2.45 15 2 14.55 2 14L2 1C2 0.45 2.45 0 3 0L12 0ZM9.5 12.5L4.5 12.5L4.5 13.5L9.5 13.5L9.5 12.5ZM10.5 1.5L3.5 1.5L3.5 11L10.5 11L10.5 1.5ZM12.25 8L11.25 8L11.25 9L12.25 9L12.25 8ZM12.25 6L11.25 6L11.25 7L12.25 7L12.25 6ZM12.25 4L11.25 4L11.25 5L12.25 5L12.25 4Z"/>
</svg>