<svg xmlns="http://www.w3.org/2000/svg" viewBox="0 0 15 15">
  <path fill="param(fill) #888" stroke="param(outline) #000" stroke-width="param(outline-width) 0" fill-opacity="param(fill-opacity) 1" stroke-opacity="param(outline-opacity) 1" d="M9.5 5.5L8.75 10C8.25 10.33 7.67 10.5 7 10.5C6.33 10.5 5.75 10.33 5.25 10L4.5 5.5C5.17 5.83 6 6 7 6C8 6 8.83 5.83 9.5 5.5ZM7.31 5.14C8.25 4.86 8.56 4.57 8.56 4C8.56 3.71 8.38 3.29 7.75 3C7.13 2.71 6.69 2.57 6.69 2C6.38 2.57 6.69 3.43 7.31 3.71C8.88 4.29 7.31 5.14 7.31 5.14ZM5.75 5.14C6.24 5.02 6.76 4.95 6.75 4.5C6.75 4.25 6.7 4.18 6.25 4C5.84 3.84 5.44 3.43 5.44 3.14C5.13 3.43 5.34 4 5.75 4.29C6.59 4.67 5.75 5.14 5.75 5.14ZM12 0C12.55 0 13 0.45 13 1L13 14C13 14.55 12.55 15 12 15L3 15C2.45 15 2 14.55 2 14L2 1C2 0.45 2.45 0 3 0L12 0ZM9.5 12.5L4.5 12.5L4.5 13.5L9.5 13.5L9.5 12.5ZM10.5 1.5L3.5 1.5L3.5 11L10.5 11L10.5 1.5ZM12.25 8L11.25 8L11.25 9L12.25 9L12.25 8ZM12.25 6L11.25 6L11.25 7L12.25 7L12.25 6ZM12.25 4L11.25 4L11.25 5L12.25 5L12.25 4Z"/>
</svg>