<svg xmlns="http://www.w3.org/2000/svg" viewBox="0 0 15 15">
  <path fill="param(fill) #888" stroke="param(outline) #000" stroke-width="param(outline-width) 0" fill-opacity="param(fill-opacity) 1" stroke-opacity="param(outline-opacity) 1" d="M9.05 4.35L9.5 4.5L9.5 8.23C9.5 8.4 9.42 8.56 9.28 8.65L8.97 8.85C8.83 8.95 8.71 9.08 8.63 9.24L8.5 9.5C8.17 9.83 7.67 10 7 10C6.33 10 5.83 9.83 5.5 9.5L5.37 9.24C5.29 9.08 5.17 8.95 5.03 8.85L4.72 8.65C4.58 8.56 4.5 8.4 4.5 8.23L4.5 4.5L4.95 4.35C5.43 4.75 6.22 5 7 5C7.78 5 8.57 4.75 9.05 4.35ZM7.96 4.35L7.86 4.38C7.84 4.39 7.82 4.39 7.8 4.4C7.78 4.4 7.76 4.41 7.74 4.41C7.7 4.42 7.66 4.43 7.63 4.44C7.6 4.44 7.57 4.45 7.54 4.45C7.52 4.46 7.51 4.46 7.5 4.46L7.4 4.47C7.39 4.48 7.38 4.48 7.38 4.48C7.33 4.48 7.28 4.49 7.23 4.49C7.22 4.49 7.2 4.49 7.19 4.49C7.18 4.49 7.17 4.5 7.17 4.5L7 4.5C6.94 4.5 6.88 4.5 6.81 4.49L7 4.5C6.92 4.5 6.84 4.5 6.77 4.49C6.72 4.49 6.67 4.48 6.62 4.48C6.62 4.48 6.61 4.48 6.6 4.47L6.5 4.46C6.49 4.46 6.48 4.46 6.46 4.45C6.43 4.45 6.4 4.44 6.37 4.44C6.35 4.43 6.32 4.43 6.3 4.42C6.18 4.4 6.07 4.36 5.96 4.33C5.94 4.32 5.91 4.31 5.88 4.3C5.86 4.29 5.85 4.28 5.83 4.28C5.79 4.26 5.75 4.25 5.72 4.23C5.7 4.23 5.69 4.22 5.68 4.21C5.65 4.2 5.62 4.18 5.59 4.17C5.58 4.16 5.57 4.16 5.55 4.15C5.22 3.97 5 3.73 5 3.5C5 3 6 2.5 7 2.5C8 2.5 9 3 9 3.5C9 3.73 8.78 3.97 8.45 4.15L8.42 4.16C8.39 4.18 8.36 4.2 8.32 4.21L8.45 4.15C8.39 4.18 8.33 4.21 8.27 4.24C8.25 4.25 8.22 4.26 8.19 4.27C8.17 4.28 8.14 4.29 8.11 4.3C8.1 4.31 8.09 4.31 8.08 4.31L8.11 4.3C8.06 4.32 8.01 4.34 7.96 4.35ZM7.5 3C7.13 3 6.75 3.25 6.75 3.5C6.75 3.75 7.13 4 7.5 4C7.88 4 8.25 3.75 8.25 3.5C8.25 3.25 7.88 3 7.5 3ZM12 0C12.55 0 13 0.45 13 1L13 14C13 14.55 12.55 15 12 15L3 15C2.45 15 2 14.55 2 14L2 1C2 0.45 2.45 0 3 0L12 0ZM9.5 12.5L4.5 12.5L4.5 13.5L9.5 13.5L9.5 12.5ZM10.5 1.5L3.5 1.5L3.5 11L10.5 11L10.5 1.5ZM12.25 8L11.25 8L11.25 9L12.25 9L12.25 8ZM12.25 6L11.25 6L11.25 7L12.25 7L12.25 6ZM12.25 4L11.25 4L11.25 5L12.25 5L12.25 4Z"/>
</svg>