<svg xmlns="http://www.w3.org/2000/svg" viewBox="0 0 15 15">
  <path fill="param(fill) #888" stroke="param(outline) #000" stroke-width="param(outline-width) 0" fill-opacity="param(fill-opacity) 1" stroke-opacity="param(outline-opacity) 1" d="M5.75 3.5C6.08 3.5 6.35 3.29 6.46 3L7.54 3C7.65 3.29 7.92 3.5 8.25 3.5C8.58 3.5 8.85 3.29 8.96 3L10 3L10 4.04C9.71 4.15 9.5 4.42 9.5 4.75C9.5 5.08 9.71 5.35 10 5.46L10 6.54C9.71 6.65 9.5 6.92 9.5 7.25C9.5 7.58 9.71 7.85 10 7.96L10 9L8.96 9C8.85 8.71 8.58 8.5 8.25 8.5C7.92 8.5 7.65 8.71 7.54 9L6.46 9C6.35 8.71 6.08 8.5 5.75 8.5C5.42 8.5 5.15 8.71 5.04 9L4 9L4 7.96C4.29 7.85 4.5 7.58 4.5 7.25C4.5 6.92 4.29 6.65 4 6.54L4 5.46C4.29 5.35 4.5 5.08 4.5 4.75C4.5 4.42 4.29 4.15 4 4.04L4 3L5.04 3C5.15 3.29 5.42 3.5 5.75 3.5ZM9 4L5 4L5 8L9 8L9 4ZM8.5 4.5L8.5 7.5L5.5 7.5L5.5 4.5L8.5 4.5ZM12 0C12.55 0 13 0.45 13 1L13 14C13 14.55 12.55 15 12 15L3 15C2.45 15 2 14.55 2 14L2 1C2 0.45 2.45 0 3 0L12 0ZM9.5 12.5L4.5 12.5L4.5 13.5L9.5 13.5L9.5 12.5ZM10.5 1.5L3.5 1.5L3.5 11L10.5 11L10.5 1.5ZM12.25 8L11.25 8L11.25 9L12.25 9L12.25 8ZM12.25 6L11.25 6L11.25 7L12.25 7L12.25 6ZM12.25 4L11.25 4L11.25 5L12.25 5L12.25 4Z"/>
</svg>