<svg xmlns="http://www.w3.org/2000/svg" viewBox="0 0 15 15">
  <path fill="param(fill) #888" stroke="param(outline) #000" stroke-width="param(outline-width) 0" fill-opacity="param(fill-opacity) 1" stroke-opacity="param(outline-opacity) 1" d="M9.5 2.5L9.5 10C9.5 10 8 10 8 10C8 9 6 9 6 10C6 10 5.5 10 4.5 10C4.5 5 4.5 2.5 4.5 2.5L6 2.5C6 3.5 8 3.5 8 2.5L9.5 2.5ZM8.5 4C6.5 4 5.5 4 5.5 4L5.5 8.5L8.5 8.5C8.5 8.5 8.5 7 8.5 4ZM8 4.5C6.67 4.5 6 4.5 6 4.5L6 8L8 8C8 8 8 6.83 8 4.5ZM12 0C12.55 0 13 0.45 13 1L13 14C13 14.55 12.55 15 12 15L3 15C2.45 15 2 14.55 2 14L2 1C2 0.45 2.45 0 3 0L12 0ZM9.5 12.5L4.5 12.5L4.5 13.5L9.5 13.5L9.5 12.5ZM10.5 1.5L3.5 1.5L3.5 11L10.5 11L10.5 1.5ZM12.25 8L11.25 8L11.25 9L12.25 9L12.25 8ZM12.25 6L11.25 6L11.25 7L12.25 7L12.25 6ZM12.25 4L11.25 4L11.25 5L12.25 5L12.25 4Z"/>
</svg>