<svg xmlns="http://www.w3.org/2000/svg" viewBox="0 0 15 15">
  <path fill="param(fill) #888" stroke="param(outline) #000" stroke-width="param(outline-width) 0" fill-opacity="param(fill-opacity) 1" stroke-opacity="param(outline-opacity) 1" d="M4 7.5L8 7.5L8 9L4 9zM12 0C12.55 0 13 0.45 13 1L13 14C13 14.55 12.55 15 12 15L3 15C2.45 15 2 14.55 2 14L2 1C2 0.45 2.45 0 3 0L12 0ZM9.5 12.5L4.5 12.5L4.5 13.5L9.5 13.5L9.5 12.5ZM10.5 1.5L3.5 1.5L3.5 11L10.5 11L10.5 1.5ZM12.25 8L11.25 8L11.25 9L12.25 9L12.25 8ZM12.25 6L11.25 6L11.25 7L12.25 7L12.25 6ZM12.25 4L11.25 4L11.25 5L12.25 5L12.25 4ZM9.5 7.5L10 7.5L10 9L9.5 9zM8.5 7.5L9 7.5L9 9L8.5 9zM9.25 7C8.92 6.6 8.25 6.2 8.25 5.8C8.25 5.4 9.75 5 9.75 4.2C9.75 3.4 8.75 3.4 7.75 3C7.92 3.53 8.75 3.8 8.75 4.2C8.25 4.6 7.25 5 7.25 5.8C7.25 6.6 7.75 6.6 9.25 7Z"/>
</svg>