<svg xmlns="http://www.w3.org/2000/svg" viewBox="0 0 15 15">
  <path fill="param(fill) #888" stroke="param(outline) #000" stroke-width="param(outline-width) 0" fill-opacity="param(fill-opacity) 1" stroke-opacity="param(outline-opacity) 1" d="M7 2C8.38 2 9.5 3.12 9.5 4.5C9.5 5.71 8.64 6.72 7.5 6.95L7.5 8L8.5 8C8.78 8 9 8.22 9 8.5C9 8.78 8.78 9 8.5 9L7.5 9L7.5 10C7.5 10.28 7.28 10.5 7 10.5C6.72 10.5 6.5 10.28 6.5 10L6.5 9L5.5 9C5.22 9 5 8.78 5 8.5C5 8.22 5.22 8 5.5 8L6.5 8L6.5 6.95C5.36 6.72 4.5 5.71 4.5 4.5C4.5 3.12 5.62 2 7 2ZM7 3.2C6.28 3.2 5.7 3.78 5.7 4.5C5.7 5.22 6.28 5.8 7 5.8C7.72 5.8 8.3 5.22 8.3 4.5C8.3 3.78 7.72 3.2 7 3.2ZM12 0C12.55 0 13 0.45 13 1L13 14C13 14.55 12.55 15 12 15L3 15C2.45 15 2 14.55 2 14L2 1C2 0.45 2.45 0 3 0L12 0ZM9.5 12.5L4.5 12.5L4.5 13.5L9.5 13.5L9.5 12.5ZM10.5 1.5L3.5 1.5L3.5 11L10.5 11L10.5 1.5ZM12.25 8L11.25 8L11.25 9L12.25 9L12.25 8ZM12.25 6L11.25 6L11.25 7L12.25 7L12.25 6ZM12.25 4L11.25 4L11.25 5L12.25 5L12.25 4Z"/>
</svg>