<svg xmlns="http://www.w3.org/2000/svg" viewBox="0 0 15 15">
  <path fill="param(fill) #888" stroke="param(outline) #000" stroke-width="param(outline-width) 0" fill-opacity="param(fill-opacity) 1" stroke-opacity="param(outline-opacity) 1" d="M4 10L4 9.5L4.5 9.5L4.5 8.75C4.5 8.61 4.61 8.5 4.75 8.5C4.89 8.5 5 8.61 5 8.75L5 9.5L6 9.5L6 8.75C6 8.61 6.11 8.5 6.25 8.5C6.39 8.5 6.5 8.61 6.5 8.75L6.5 9.5L7.5 9.5L7.5 8.75C7.5 8.61 7.61 8.5 7.75 8.5C7.89 8.5 8 8.61 8 8.75L8 9.5L9 9.5L9 8.75C9 8.61 9.11 8.5 9.25 8.5C9.39 8.5 9.5 8.61 9.5 8.75L9.5 9.5L10 9.5L10 10L4 10ZM12 0C12.55 0 13 0.45 13 1L13 14C13 14.55 12.55 15 12 15L3 15C2.45 15 2 14.55 2 14L2 1C2 0.45 2.45 0 3 0L12 0ZM9.5 12.5L4.5 12.5L4.5 13.5L9.5 13.5L9.5 12.5ZM10.5 1.5L3.5 1.5L3.5 11L10.5 11L10.5 1.5ZM12.25 8L11.25 8L11.25 9L12.25 9L12.25 8ZM12.25 6L11.25 6L11.25 7L12.25 7L12.25 6ZM12.25 4L11.25 4L11.25 5L12.25 5L12.25 4ZM4 4L4 3.5L4.5 3.5L4.5 2.75C4.5 2.61 4.61 2.5 4.75 2.5C4.89 2.5 5 2.61 5 2.75L5 3.5L6 3.5L6 2.75C6 2.61 6.11 2.5 6.25 2.5C6.39 2.5 6.5 2.61 6.5 2.75L6.5 3.5L7.5 3.5L7.5 2.75C7.5 2.61 7.61 2.5 7.75 2.5C7.89 2.5 8 2.61 8 2.75L8 3.5L9 3.5L9 2.75C9 2.61 9.11 2.5 9.25 2.5C9.39 2.5 9.5 2.61 9.5 2.75L9.5 3.5L10 3.5L10 4L4 4ZM4 7L4 6.5L4.5 6.5L4.5 5.75C4.5 5.61 4.61 5.5 4.75 5.5C4.89 5.5 5 5.61 5 5.75L5 6.5L6 6.5L6 5.75C6 5.61 6.11 5.5 6.25 5.5C6.39 5.5 6.5 5.61 6.5 5.75L6.5 6.5L7.5 6.5L7.5 5.75C7.5 5.61 7.61 5.5 7.75 5.5C7.89 5.5 8 5.61 8 5.75L8 6.5L9 6.5L9 5.75C9 5.61 9.11 5.5 9.25 5.5C9.39 5.5 9.5 5.61 9.5 5.75L9.5 6.5L10 6.5L10 7L4 7Z"/>
</svg>