<svg xmlns="http://www.w3.org/2000/svg" viewBox="0 0 15 15">
  <path fill="param(fill) #888" stroke="param(outline) #000" stroke-width="param(outline-width) 0" fill-opacity="param(fill-opacity) 1" stroke-opacity="param(outline-opacity) 1" d="M4.5 1C4.5 0.45 4.95 0 5.5 0L9.5 0C10.05 0 10.5 0.45 10.5 1L10.5 14C10.5 14.55 10.05 15 9.5 15L5.5 15C4.95 15 4.5 14.55 4.5 14L4.5 1ZM8.5 12.5L8.5 2.5C8.5 2.22 8.28 2 8 2L7 2C6.72 2 6.5 2.22 6.5 2.5L6.5 12.5C6.5 12.78 6.72 13 7 13L8 13C8.28 13 8.5 12.78 8.5 12.5Z"/>
</svg>