<svg xmlns="http://www.w3.org/2000/svg" viewBox="0 0 15 15">
  <path fill="param(fill) #888" stroke="param(outline) #000" stroke-width="param(outline-width) 0" fill-opacity="param(fill-opacity) 1" stroke-opacity="param(outline-opacity) 1" d="M7.5 0C11.64 0 15 3.36 15 7.5C15 11.64 11.64 15 7.5 15C3.36 15 0 11.64 0 7.5C0 3.36 3.36 0 7.5 0ZM13.42 9.08C13.22 9.03 13.02 9.14 12.95 9.33L12.87 9.57C12.26 11.14 10.99 12.37 9.4 12.93C9.38 12.94 9.36 12.94 9.33 12.95C9.14 13.02 9.03 13.22 9.08 13.42C9.08 13.43 9.08 13.43 9.08 13.44C9.15 13.63 9.35 13.73 9.54 13.67L9.6 13.65L9.65 13.64C11.53 12.98 13.02 11.47 13.66 9.58C13.66 9.57 13.67 9.56 13.67 9.54C13.67 9.54 13.68 9.53 13.68 9.53C13.73 9.33 13.61 9.13 13.42 9.08ZM11.73 8.63C11.53 8.58 11.33 8.68 11.26 8.87L11.25 8.89C10.85 9.98 9.99 10.84 8.9 11.25C8.89 11.25 8.88 11.25 8.87 11.26C8.68 11.33 8.58 11.53 8.63 11.73L8.64 11.75C8.7 11.94 8.9 12.04 9.09 11.98L9.13 11.96L9.17 11.95C10.46 11.47 11.48 10.44 11.96 9.14C11.96 9.13 11.97 9.11 11.98 9.09C11.98 9.09 11.98 9.08 11.98 9.07C12.03 8.88 11.92 8.68 11.73 8.63ZM7.5 4.5C5.84 4.5 4.5 5.84 4.5 7.5C4.5 9.16 5.84 10.5 7.5 10.5C9.16 10.5 10.5 9.16 10.5 7.5C10.5 5.84 9.16 4.5 7.5 4.5ZM7.5 6.75C7.91 6.75 8.25 7.09 8.25 7.5C8.25 7.91 7.91 8.25 7.5 8.25C7.09 8.25 6.75 7.91 6.75 7.5C6.75 7.09 7.09 6.75 7.5 6.75ZM6.37 3.25C6.3 3.06 6.1 2.96 5.91 3.02L5.88 3.03L5.86 3.04C4.63 3.49 3.63 4.44 3.12 5.65C3.09 5.72 3.06 5.81 3.03 5.91C3.02 5.92 3.02 5.93 3.02 5.94C2.97 6.13 3.08 6.32 3.27 6.37C3.47 6.43 3.68 6.32 3.75 6.12L3.78 6.03C3.81 5.97 3.83 5.91 3.85 5.87C4.28 4.91 5.08 4.14 6.07 3.76C6.09 3.76 6.11 3.75 6.12 3.74C6.32 3.67 6.43 3.47 6.37 3.27C6.37 3.27 6.37 3.26 6.37 3.25ZM5.92 1.57C5.86 1.37 5.65 1.27 5.46 1.33L5.45 1.33L5.43 1.34C3.56 1.96 2.06 3.43 1.39 5.28C1.37 5.33 1.35 5.39 1.33 5.46C1.33 5.47 1.32 5.47 1.32 5.48C1.27 5.67 1.39 5.87 1.58 5.92C1.78 5.97 1.99 5.86 2.05 5.67L2.08 5.58L2.11 5.51C2.7 3.89 4.01 2.61 5.65 2.05C5.66 2.05 5.66 2.05 5.67 2.05C5.86 1.98 5.97 1.78 5.92 1.58Z"/>
</svg>