<svg xmlns="http://www.w3.org/2000/svg" viewBox="0 0 15 15">
  <path fill="param(fill) #888" stroke="param(outline) #000" stroke-width="param(outline-width) 0" fill-opacity="param(fill-opacity) 1" stroke-opacity="param(outline-opacity) 1" d="M9.24 3L9.54 3.26L10.25 3.86L10.87 3.69L11.44 4.22L11.74 4.69L11.36 5.25L11.21 5.6L11.36 5.91L11.74 5.83L12.04 6.24L12.78 6.55L13.21 7.03L13.07 7.53L12.78 7.71L13.34 8.02L13 8.5L13 9.25L14 10L13.99 11L0 11L0 9.7L0.48 9.61L0.63 9.1L1.47 8.61L2.12 8.16L2.89 8.87L3.4 8.61L3.78 8.87L4.32 8.16L4.61 8.46L5.5 8.02L5.5 7.53L6.47 6.1L6.72 5.25L7.36 5.6L8 4.5L8.5 4.5L9.24 3ZM15 6.5L15 8L14 9L14 8.04L14.45 6.5L15 6.5Z"/>
</svg>