<?xml version="1.0" encoding="UTF-8"?>
<svg viewBox="0 0 15 15" version="1.1" xmlns="http://www.w3.org/2000/svg" xmlns:xlink="http://www.w3.org/1999/xlink">
  <path fill="param(fill) #888" stroke="param(outline) #000" stroke-width="param(outline-width) 0" fill-opacity="param(fill-opacity) 1" stroke-opacity="param(outline-opacity) 1" d="M5.75 0.87L4.5 3C4.08 3.79 4.4 4.13 4.51 4.22L6.3 5.4L5.8 9.05L4.3 10.05L2.05 10.85C1.65 11.05 1.5 11.45 1.65 11.85C1.83 12.21 2.18 12.37 2.54 12.28L3.05 12.11C3.41 11.98 4.03 11.76 5 11.4L7 10.05L5.7 13.9C5.5 14.2 5.6 14.7 5.95 14.9C6.3 15.1 6.8 15 7 14.65L8.11 11.78C8.25 11.4 8.35 11.13 8.35 11.1L8.95 6.35L10.15 6.75L12.3 6.75C12.62 6.75 12.9 6.46 12.91 6.14L12.9 6.05C12.9 5.7 12.55 5.4 12.2 5.45L10.45 5.45L7.2 4.4L5.75 3.4L6.9 1.5C7.05 1.2 6.9 0.8 6.6 0.65C6.28 0.51 5.92 0.63 5.75 0.87ZM7.35 2.7C7.15 3.35 7.5 4.05 8.2 4.25C8.85 4.45 9.55 4.1 9.8 3.45C9.95 2.8 9.6 2.1 8.95 1.9C8.3 1.7 7.6 2.05 7.35 2.7ZM10.9 0.85C10.75 1.5 11.1 2.2 11.75 2.45C12.4 2.65 13.15 2.3 13.35 1.65C13.55 0.95 13.2 0.25 12.5 0.05C11.85 -0.15 11.15 0.2 10.9 0.85Z"/>
</svg>