<svg xmlns="http://www.w3.org/2000/svg" viewBox="0 0 15 15">
  <path fill="param(fill) #888" stroke="param(outline) #000" stroke-width="param(outline-width) 0" fill-opacity="param(fill-opacity) 1" stroke-opacity="param(outline-opacity) 1" d="M7.05 9.32C7.19 9.3 7.32 9.3 7.5 9.3C7.69 9.3 7.81 9.3 7.95 9.32L7.95 9.32L7.95 12C7.95 12.37 8.25 12.68 8.63 12.68C9 12.68 9.3 12.37 9.3 12L9.3 9.88L9.69 10.07C10 10.22 10.2 10.53 10.2 10.88L10.2 13.49L10.96 13.61C11.54 13.7 12.04 13.91 12.42 14.12C12.1 14.22 11.66 14.34 11.08 14.43C10.06 14.6 8.81 14.7 7.5 14.7C6.2 14.7 4.95 14.61 3.92 14.43C3.34 14.34 2.9 14.22 2.58 14.12C2.96 13.91 3.46 13.7 4.04 13.61L4.8 13.49L4.8 10.88C4.8 10.53 5 10.22 5.31 10.07L5.7 9.88L5.7 12.9C5.7 13.27 6 13.58 6.38 13.58C6.75 13.58 7.05 13.27 7.05 12.9L7.05 9.32ZM2.85 4.05C3.01 3.71 3.42 3.58 3.75 3.75L4.84 4.29C6 4.87 6 6.53 4.84 7.11L3.75 7.65C3.42 7.82 3.01 7.69 2.85 7.35C2.68 7.02 2.81 6.61 3.15 6.45L4.24 5.9C4.4 5.82 4.4 5.58 4.24 5.5L3.15 4.95C2.81 4.79 2.68 4.38 2.85 4.05ZM12.15 4.05C12.32 4.38 12.19 4.79 11.85 4.95L10.76 5.5C10.6 5.58 10.6 5.82 10.76 5.9L11.85 6.45C12.19 6.61 12.32 7.02 12.15 7.35C11.99 7.69 11.58 7.82 11.25 7.65L10.16 7.11C9 6.53 9 4.87 10.16 4.29L11.25 3.75C11.58 3.58 11.99 3.71 12.15 4.05Z"/>
</svg>