<svg xmlns="http://www.w3.org/2000/svg" viewBox="0 0 15 15">
  <path fill="param(fill) #888" stroke="param(outline) #000" stroke-width="param(outline-width) 0" fill-opacity="param(fill-opacity) 1" stroke-opacity="param(outline-opacity) 1" d="M7.5 0C11.64 0 15 3.36 15 7.5C15 9.34 14.33 11.03 13.23 12.34C13.37 12.51 13.48 12.72 13.5 12.99C13.53 13.5 13.2 13.84 12.95 14.01C12.46 14.37 11.64 14.6 10.73 14.76C9.78 14.92 8.65 15 7.5 15C6.35 15 5.22 14.92 4.27 14.76C3.36 14.6 2.54 14.37 2.05 14.02C1.81 13.84 1.47 13.5 1.5 13C1.52 12.72 1.63 12.51 1.77 12.34C0.67 11.03 0 9.34 0 7.5C0 3.36 3.36 0 7.5 0ZM7.61 9L7.36 9C7.28 9 7.2 9.01 7.13 9.02L7.13 12C7.13 12.31 6.87 12.56 6.56 12.56C6.25 12.56 6 12.31 6 12L6 9.48L5.67 9.64C5.41 9.77 5.25 10.03 5.25 10.32L5.25 12.49L4.62 12.59C4.13 12.67 3.72 12.84 3.4 13.01C3.67 13.1 4.04 13.2 4.52 13.28C5.37 13.42 6.42 13.5 7.5 13.5C8.59 13.5 9.63 13.42 10.49 13.28C10.97 13.2 11.34 13.1 11.6 13.01C11.28 12.84 10.87 12.67 10.38 12.59L9.75 12.49L9.75 10.32C9.75 10.03 9.59 9.77 9.33 9.64L9 9.48L9 11.25C9 11.56 8.75 11.81 8.44 11.81C8.13 11.81 7.88 11.56 7.88 11.25L7.88 9.02C7.76 9 7.66 9 7.5 9ZM4.38 4.37C4.1 4.23 3.76 4.35 3.62 4.62C3.48 4.9 3.6 5.24 3.87 5.38L4.78 5.83C4.92 5.9 4.92 6.1 4.78 6.17L3.87 6.62C3.6 6.76 3.48 7.1 3.62 7.38C3.76 7.65 4.1 7.77 4.38 7.63L5.28 7.17C6.25 6.69 6.25 5.31 5.28 4.83ZM11.38 4.62C11.24 4.35 10.9 4.23 10.62 4.37L9.72 4.83C8.75 5.31 8.75 6.69 9.72 7.17L10.62 7.63C10.9 7.77 11.24 7.65 11.38 7.38C11.52 7.1 11.4 6.76 11.13 6.62L10.22 6.17C10.08 6.1 10.08 5.9 10.22 5.83L11.13 5.38C11.4 5.24 11.52 4.9 11.38 4.62Z"/>
</svg>