<svg xmlns="http://www.w3.org/2000/svg" viewBox="0 0 15 15">
  <path fill="param(fill) #888" stroke="param(outline) #000" stroke-width="param(outline-width) 0" fill-opacity="param(fill-opacity) 1" stroke-opacity="param(outline-opacity) 1" d="M6.06 5C6.21 5.01 6.36 5.06 6.48 5.16L10.93 8.52C11.1 8.65 11.22 8.84 11.24 9.05L12 15L7.2 15L6 9.5L5.07 12.69C4.67 14.06 3.42 15 2 15L0 15L0.76 9.05C0.78 8.84 0.9 8.65 1.07 8.52L5.52 5.16C5.64 5.06 5.79 5.01 5.94 5L6.06 5ZM9.48 0.16L13.93 3.52C14.1 3.65 14.22 3.84 14.24 4.05L15 10L12.37 10L12.23 8.93C12.18 8.5 11.97 8.11 11.66 7.82L11.53 7.72L7.08 4.36C6.44 3.88 5.56 3.88 4.92 4.36L3.59 5.36L3.76 4.05C3.78 3.88 3.86 3.71 3.99 3.59L4.07 3.52L8.52 0.16C8.8 -0.06 9.2 -0.06 9.48 0.16Z"/>
</svg>