<svg xmlns="http://www.w3.org/2000/svg" viewBox="0 0 15 15">
  <path fill="param(fill) #888" stroke="param(outline) #000" stroke-width="param(outline-width) 0" fill-opacity="param(fill-opacity) 1" stroke-opacity="param(outline-opacity) 1" d="M14.61 3L14.61 10.43L15 11.48L10.88 11.48L10.44 11.77L9.77 11.77L8.11 12.29L5.91 12.29L3.79 12.84L3.47 11.13L2.38 10.8L1.18 10.8L1.18 8.67L0 5.92L0 4.77L1.84 5.53L3.85 5.1L4.09 5.76L4.25 7.5L4.81 7.15L5.02 5.78L4.25 4.75L4.5 4L4 3.57L4 3L14.61 3ZM3.5 6.92L3.14 8.01L2 8.01L2.92 8.76L2.5 10L3.5 9.25L4.5 10L4.08 8.76L5 8.01L3.86 8.01L3.5 6.92Z"/>
</svg>