<svg xmlns="http://www.w3.org/2000/svg" viewBox="0 0 15 15">
  <path fill="param(fill) #888" stroke="param(outline) #000" stroke-width="param(outline-width) 0" fill-opacity="param(fill-opacity) 1" stroke-opacity="param(outline-opacity) 1" d="M14 9L13.16 14.2C13.07 14.66 12.66 15 12.18 15L8.82 15C8.34 15 7.93 14.66 7.84 14.2L7 9L14 9ZM12.78 10L8.22 10L8.64 12.09C9.22 12.57 9.81 12.54 10.38 12.03L10.66 11.77C11.3 11.19 11.92 10.97 12.56 11.1L12.78 10ZM9 2C10.66 2 12 3.34 12 5L12 7C12.28 7 12.5 7.22 12.5 7.5C12.5 7.75 12.32 7.95 12.09 7.99L12 8L9 8C8.72 8 8.5 7.78 8.5 7.5C8.5 7.25 8.68 7.05 8.91 7.01L9 7L9 5L0 5L0 2L9 2Z"/>
</svg>