<svg xmlns="http://www.w3.org/2000/svg" viewBox="0 0 15 15">
  <path fill="param(fill) #888" stroke="param(outline) #000" stroke-width="param(outline-width) 0" fill-opacity="param(fill-opacity) 1" stroke-opacity="param(outline-opacity) 1" d="M12 5C12.67 6.33 13.42 7 14.25 7C14.51 7 14.76 6.94 15 6.81L15 9.86C14.76 9.95 14.51 10 14.25 10C13.42 10 12.67 9.5 12 8.5C11.33 9.5 10.58 10 9.75 10C8.92 10 8.17 9.5 7.5 8.5C6.83 9.5 6.08 10 5.25 10C4.42 10 3.67 9.5 3 8.5C2.33 9.5 1.58 10 0.75 10C0.49 10 0.24 9.95 0 9.86L0 6.81C0.24 6.94 0.49 7 0.75 7C1.58 7 2.33 6.33 3 5C3.67 6.33 4.42 7 5.25 7C6.08 7 6.83 6.33 7.5 5C8.17 6.33 8.92 7 9.75 7C10.58 7 11.33 6.33 12 5Z"/>
</svg>