<svg xmlns="http://www.w3.org/2000/svg" viewBox="0 0 15 15">
  <path fill="param(fill) #888" stroke="param(outline) #000" stroke-width="param(outline-width) 0" fill-opacity="param(fill-opacity) 1" stroke-opacity="param(outline-opacity) 1" d="M9.5 2C11.99 2 14 4.01 14 6.5C14 7.67 13.55 8.73 12.81 9.53C12.71 9.51 12.61 9.5 12.5 9.5C11.95 9.5 11.42 9.69 10.98 10.03L10.67 10.28C10.5 10.42 10.28 10.5 10.05 10.5L9.95 10.5C9.72 10.5 9.5 10.42 9.33 10.28L9 10.02L9.17 10.01L9.38 10L9.38 7.99C9.11 7.97 8.87 7.88 8.65 7.73L8.53 7.64L7.12 9.05C7.32 9.24 7.54 9.39 7.78 9.52C7.69 9.51 7.59 9.5 7.5 9.5C6.95 9.5 6.42 9.69 5.99 10.03L5.67 10.28C5.5 10.42 5.28 10.5 5.05 10.5L4.95 10.5C4.72 10.5 4.5 10.42 4.33 10.28L4.01 10.03C3.58 9.69 3.05 9.5 2.5 9.5C2.33 9.5 2.16 9.52 2 9.56L2 5L1 5L4.5 2L6.2 3.46C7.02 2.57 8.19 2 9.5 2ZM10.47 7.64C10.24 7.84 9.95 7.96 9.63 7.99L9.63 10L9.73 10C10.82 9.95 11.31 9.58 11.67 9.25L11.88 9.05L10.47 7.64ZM12.99 6.63L10.99 6.63C10.96 6.95 10.84 7.24 10.64 7.47L12.05 8.88C12.61 8.28 12.96 7.49 12.99 6.63ZM8.01 6.63L6.01 6.63C6.04 7.49 6.39 8.28 6.95 8.88L8.36 7.47C8.16 7.24 8.04 6.95 8.01 6.63ZM12.05 4.13L10.64 5.54C10.84 5.77 10.96 6.06 10.99 6.38L12.99 6.38C12.96 5.51 12.61 4.72 12.05 4.13ZM6.95 4.12C6.39 4.72 6.04 5.51 6.01 6.38L8.01 6.38C8.04 6.06 8.16 5.77 8.36 5.53L6.95 4.12ZM9.38 3.01C8.51 3.04 7.72 3.39 7.12 3.95L8.54 5.36C8.77 5.16 9.06 5.04 9.38 5.01L9.38 3.01ZM9.63 3.01L9.63 5C9.95 5.03 10.24 5.15 10.47 5.35L11.88 3.94C11.29 3.39 10.5 3.04 9.63 3.01ZM6.3 12.56L6.61 12.31C6.86 12.11 7.18 12 7.5 12C7.82 12 8.14 12.11 8.39 12.31L8.7 12.56C9.06 12.84 9.5 13 9.95 13L10.05 13C10.5 13 10.94 12.84 11.3 12.56L11.61 12.31C11.86 12.11 12.18 12 12.5 12C12.82 12 13.14 12.11 13.39 12.31L13.71 12.56C14.01 12.81 14.39 12.96 14.78 12.99L15 13L15 11.5L14.95 11.5C14.49 11.5 14.06 11.35 13.71 11.07L13.39 10.81C13.14 10.61 12.82 10.5 12.5 10.5C12.18 10.5 11.86 10.61 11.61 10.81L11.3 11.06C10.94 11.35 10.5 11.5 10.05 11.5L9.95 11.5C9.5 11.5 9.06 11.35 8.7 11.06L8.39 10.81C8.14 10.61 7.82 10.5 7.5 10.5C7.18 10.5 6.86 10.61 6.61 10.81L6.3 11.06C5.94 11.35 5.5 11.5 5.05 11.5L4.95 11.5C4.5 11.5 4.06 11.35 3.7 11.06L3.39 10.81C3.14 10.61 2.82 10.5 2.5 10.5C2.18 10.5 1.86 10.61 1.61 10.81L1.29 11.07C0.99 11.31 0.61 11.46 0.22 11.5L0 11.5L0 13L0.05 13C0.51 13 0.94 12.84 1.29 12.56L1.61 12.31C1.86 12.11 2.18 12 2.5 12C2.82 12 3.14 12.11 3.39 12.31L3.7 12.56C4.06 12.84 4.5 13 4.95 13L5.05 13C5.5 13 5.94 12.84 6.3 12.56Z"/>
</svg>