<svg xmlns="http://www.w3.org/2000/svg" viewBox="0 0 15 15">
  <path fill="param(fill) #888" stroke="param(outline) #000" stroke-width="param(outline-width) 0" fill-opacity="param(fill-opacity) 1" stroke-opacity="param(outline-opacity) 1" d="M0 3L1 3C2.09 3 4 3.3 4 4.75L4 8.25C4 10.25 5.5 11.25 6.5 11.25L6.46 11.16C6.34 10.87 6 9.9 6 8.25L6 4.75C6 3.84 5.35 3.44 5 3C6.09 3 7 3.3 7 4.75L7 8.25C7 10.25 8.5 11.25 9.5 11.25L9.46 11.16C9.34 10.87 9 9.9 9 8.25L9.1 4.75C9.14 3.84 8.35 3.44 8 3C9.09 3 10 3.3 10 4.75L10 8.25C10 10.25 11.5 11.25 12.5 11.25L12.46 11.16C12.34 10.87 12 9.9 12 8.25L12 4.75C12 1.83 9.16 1.04 8.09 1L0 1L0 3ZM6.3 14.56L6.61 14.31C6.86 14.11 7.18 14 7.5 14C7.82 14 8.14 14.11 8.39 14.31L8.7 14.56C9.06 14.84 9.5 15 9.95 15L10.05 15C10.5 15 10.94 14.84 11.3 14.56L11.61 14.31C11.86 14.11 12.18 14 12.5 14C12.82 14 13.14 14.11 13.39 14.31L13.71 14.56C14.06 14.84 14.49 15 14.95 15L15 15L15 13L14.95 13C14.49 13 14.06 12.84 13.71 12.56L13.39 12.31C13.14 12.11 12.82 12 12.5 12C12.18 12 11.86 12.11 11.61 12.31L11.3 12.56C10.94 12.84 10.5 13 10.05 13L9.95 13C9.5 13 9.06 12.84 8.7 12.56L8.39 12.31C8.14 12.11 7.82 12 7.5 12C7.18 12 6.86 12.11 6.61 12.31L6.3 12.56C5.94 12.84 5.5 13 5.05 13L4.95 13C4.5 13 4.06 12.84 3.7 12.56L3.39 12.31C3.14 12.11 2.82 12 2.5 12C2.18 12 1.86 12.11 1.61 12.31L1.29 12.56C0.94 12.84 0.51 13 0.05 13L0 13L0 15L0.05 15C0.51 15 0.94 14.84 1.29 14.56L1.61 14.31C1.86 14.11 2.18 14 2.5 14C2.82 14 3.14 14.11 3.39 14.31L3.7 14.56C4.06 14.84 4.5 15 4.95 15L5.05 15C5.45 15 5.83 14.88 6.16 14.66L6.3 14.56Z"/>
</svg>