<svg xmlns="http://www.w3.org/2000/svg" viewBox="0 0 15 15">
  <path fill="param(fill) #888" stroke="param(outline) #000" stroke-width="param(outline-width) 0" fill-opacity="param(fill-opacity) 1" stroke-opacity="param(outline-opacity) 1" d="M1 3C2.09 3 4 3.3 4 4.75L4 11.25C4 13.25 6.5 14.25 7.5 14.25C7.5 14.25 6 13.25 6 11.25L6 4.75C6 3.84 5.35 3.44 5 3C6.09 3 7 3.3 7 4.75L7 11.25C7 13.25 9.5 14.25 10.5 14.25C10.5 14.25 9 13.25 9 11.25L9.1 4.75C9.14 3.84 8.35 3.44 8 3C9.09 3 10 3.3 10 4.75L10 11.25C10 13.25 12.5 14.25 13.5 14.25C13.5 14.25 12 13.25 12 11.25L12 4.75C12 1.75 9 1 8 1L0 1L0 3L1 3Z"/>
</svg>