<svg xmlns="http://www.w3.org/2000/svg" viewBox="0 0 15 15">
  <path fill="param(fill) #888" stroke="param(outline) #000" stroke-width="param(outline-width) 0" fill-opacity="param(fill-opacity) 1" stroke-opacity="param(outline-opacity) 1" d="M12 9C12.67 10.33 13.42 11 14.25 11C14.51 11 14.76 10.94 15 10.81L15 12.86C14.76 12.95 14.51 13 14.25 13C13.42 13 12.67 12.5 12 11.5C11.33 12.5 10.58 13 9.75 13C8.92 13 8.17 12.5 7.5 11.5C6.83 12.5 6.08 13 5.25 13C4.42 13 3.67 12.5 3 11.5C2.33 12.5 1.58 13 0.75 13C0.49 13 0.24 12.95 0 12.86L0 10.81C0.24 10.94 0.49 11 0.75 11C1.58 11 2.33 10.33 3 9C3.67 10.33 4.42 11 5.25 11C6.08 11 6.83 10.33 7.5 9C8.17 10.33 8.92 11 9.75 11C10.58 11 11.33 10.33 12 9ZM12 5C12.67 6.33 13.42 7 14.25 7C14.51 7 14.76 6.94 15 6.81L15 8.86C14.76 8.95 14.51 9 14.25 9C13.42 9 12.67 8.5 12 7.5C11.33 8.5 10.58 9 9.75 9C8.92 9 8.17 8.5 7.5 7.5C6.83 8.5 6.08 9 5.25 9C4.42 9 3.67 8.5 3 7.5C2.33 8.5 1.58 9 0.75 9C0.49 9 0.24 8.95 0 8.86L0 6.81C0.24 6.94 0.49 7 0.75 7C1.58 7 2.33 6.33 3 5C3.67 6.33 4.42 7 5.25 7C6.08 7 6.83 6.33 7.5 5C8.17 6.33 8.92 7 9.75 7C10.58 7 11.33 6.33 12 5ZM12 1C12.67 2.33 13.42 3 14.25 3C14.51 3 14.76 2.94 15 2.81L15 4.86C14.76 4.95 14.51 5 14.25 5C13.42 5 12.67 4.5 12 3.5C11.33 4.5 10.58 5 9.75 5C8.92 5 8.17 4.5 7.5 3.5C6.83 4.5 6.08 5 5.25 5C4.42 5 3.67 4.5 3 3.5C2.33 4.5 1.58 5 0.75 5C0.49 5 0.24 4.95 0 4.86L0 2.81C0.24 2.94 0.49 3 0.75 3C1.58 3 2.33 2.33 3 1C3.67 2.33 4.42 3 5.25 3C6.08 3 6.83 2.33 7.5 1C8.17 2.33 8.92 3 9.75 3C10.58 3 11.33 2.33 12 1Z"/>
</svg>