<?xml version="1.0" encoding="UTF-8"?>
<svg viewBox="0 0 15 15" version="1.1" xmlns="http://www.w3.org/2000/svg" xmlns:xlink="http://www.w3.org/1999/xlink">
  <path fill="param(fill) #888" stroke="param(outline) #000" stroke-width="param(outline-width) 0" fill-opacity="param(fill-opacity) 1" stroke-opacity="param(outline-opacity) 1" d="M0 4.5C0.8 4.5 2.29 6.9 3 6.9C3.67 6.9 5.24 4.5 6 4.5C6.76 4.5 8.33 6.9 9 6.9C9.8 6.9 11.28 4.5 12 4.5C12.8 4.47 14.38 6.9 15 6.9L15 10.5C14.24 10.5 12.71 8.1 12 8.1C11.29 8.1 9.76 10.5 9 10.5C8.28 10.5 6.76 8.1 6 8.1C5.24 8.1 3.71 10.5 3 10.5C2.2 10.5 0.76 8.1 0 8.1L0 4.5Z"/>
</svg>