<?xml version="1.0" encoding="UTF-8"?>
<svg viewBox="0 0 15 15" version="1.1" xmlns="http://www.w3.org/2000/svg" xmlns:xlink="http://www.w3.org/1999/xlink">
  <path fill="param(fill) #888" stroke="param(outline) #000" stroke-width="param(outline-width) 0" fill-opacity="param(fill-opacity) 1" stroke-opacity="param(outline-opacity) 1" d="M1 1L10 1C11.66 1 13 2.34 13 4L13 8.88C13.6 9.28 14 9.97 14 10.75C14 11.99 12.99 13 11.75 13C11.29 13 10.86 12.86 10.5 12.62C10.14 12.86 9.71 13 9.25 13C8.71 13 8.22 12.81 7.84 12.5L7.48 12.5C6.98 12.82 6.39 13 5.75 13C3.96 13 2.5 11.54 2.5 9.75C2.5 8.4 3.33 7.24 4.5 6.75L4.5 5C4.5 3.9 3.6 3 2.5 3L1 3L1 1ZM3.5 9.75C3.5 10.99 4.51 12 5.75 12C6.29 12 6.78 11.81 7.16 11.5L8.25 11.5C8.48 11.8 8.84 12 9.25 12C9.66 12 10.02 11.8 10.25 11.5L10.75 11.5C10.98 11.8 11.34 12 11.75 12C12.44 12 13 11.44 13 10.75C13 10.15 12.57 9.64 12 9.53L12 5.75C12 5.34 11.66 5 11.25 5C10.84 5 10.5 5.34 10.5 5.75L10.5 9C10.5 9.28 10.28 9.5 10 9.5C9.72 9.5 9.5 9.28 9.5 9L9.5 6.75C9.5 6.34 9.16 6 8.75 6C8.34 6 8 6.34 8 6.75L8 9C8 9.28 7.78 9.5 7.5 9.5C7.22 9.5 7 9.28 7 9L7 5.75C7 5.34 6.66 5 6.25 5C5.84 5 5.5 5.34 5.5 5.75L5.5 7.51C4.37 7.64 3.5 8.59 3.5 9.75Z"/>
</svg>