<svg xmlns="http://www.w3.org/2000/svg" viewBox="0 0 15 15">
  <path fill="param(fill) #888" stroke="param(outline) #000" stroke-width="param(outline-width) 0" fill-opacity="param(fill-opacity) 1" stroke-opacity="param(outline-opacity) 1" d="M5.5 1C5.22 1 5 1.22 5 1.5C5 1.78 5.22 2 5.5 2L7 2L7 3L6 3C4.9 3 4 3.9 4 5L4 15L6 15L6 5L9 5L9 7L8.5 7C8.22 7 8 7.22 8 7.5L8 8L12 8L12 7.5C12 7.22 11.78 7 11.5 7L11 7L11 5C11 4 10 3 9 3L8 3L8 2L9.5 2C9.78 2 10 1.78 10 1.5C10 1.22 9.78 1 9.5 1L5.5 1ZM7 9L7.84 13.2C7.93 13.66 8.34 14 8.82 14L11.18 14C11.66 14 12.07 13.66 12.16 13.2L13 9L7 9ZM8.22 10L11.78 10L11.61 10.86C11.07 10.75 10.54 10.96 10 11.5C9.52 11.98 9.03 12.03 8.55 11.63L8.22 10Z"/>
</svg>