<svg xmlns="http://www.w3.org/2000/svg" viewBox="0 0 15 15">
  <path fill="param(fill) #888" stroke="param(outline) #000" stroke-width="param(outline-width) 0" fill-opacity="param(fill-opacity) 1" stroke-opacity="param(outline-opacity) 1" d="M5.73 8.57L6.53 3.5L8 3.5L6.53 11.5L5.2 11.5L4 6.36L2.8 11.5L1.47 11.5L0 3.5L1.47 3.5L2.27 8.57L3.33 3.5L4.67 3.5L5.73 8.57ZM11.75 3.5C13.19 3.5 14.4 4.49 14.83 5.87L13.41 6.38C13.18 5.63 12.52 5.1 11.75 5.1C10.78 5.1 10 5.94 10 6.97L10 8.03C10 9.06 10.78 9.9 11.75 9.9C12.52 9.9 13.18 9.37 13.41 8.62L14.83 9.13C14.4 10.51 13.19 11.5 11.75 11.5C9.96 11.5 8.5 9.95 8.5 8.03L8.5 6.97C8.5 5.05 9.96 3.5 11.75 3.5Z"/>
</svg>