<svg xmlns="http://www.w3.org/2000/svg" viewBox="0 0 15 15">
  <path fill="param(fill) #888" stroke="param(outline) #000" stroke-width="param(outline-width) 0" fill-opacity="param(fill-opacity) 1" stroke-opacity="param(outline-opacity) 1" d="M6.5 1L6.5 4.5L9.5 4.5L9.5 6.5L11.37 4.82L12.16 5.31L13.14 4.82L14.22 5.02L15 5.75L15 6L14.71 6.83L12.75 5.66L12.16 7.18L11.08 8.21L10.69 7.91L9.75 9.75L9.25 9.5L8.75 8.75L8.48 9.97L7.79 10.75L7.01 12.03L7.01 12.81L6 13L5.75 13L5.5 13.5L4.22 13.84L3.77 13.55L2.84 14.14L2.01 13.55L2.01 12.81L0.98 12.03L0 10.46L0.2 9.63L0.98 8.84L1.42 8.84L1.62 7.18L2.3 7.57L2.84 6.83L3.58 5.66L4.22 5.66L5.2 4.82L5.83 2.42L5.83 1.39L6.5 1ZM3.5 7.92L3.14 9.01L2 9.01L2.92 9.76L2.5 11L3.5 10.25L4.5 11L4.08 9.76L5 9.01L3.86 9.01L3.5 7.92Z"/>
</svg>