<svg xmlns="http://www.w3.org/2000/svg" viewBox="0 0 15 15">
  <path fill="param(fill) #888" stroke="param(outline) #000" stroke-width="param(outline-width) 0" fill-opacity="param(fill-opacity) 1" stroke-opacity="param(outline-opacity) 1" d="M8.49 0.42C8.66 0.23 8.92 0.3 9.04 0.39C9.22 0.55 9.3 1.06 9.21 1.48L8.32 4.43C8.2 4.85 8.36 5.19 8.54 5.35L8.7 5.49C9.38 6.13 11.97 8.64 12.35 11.51L12.5 11.5C11.95 11.5 11.42 11.69 10.98 12.03L10.67 12.28L10.57 12.35C10.46 12.33 10.35 12.3 10.25 12.26L10.1 12.2C9.83 12.08 9.53 12.01 9.22 12.01C9.15 12.01 9.07 12.01 9 12.02L9.01 12.03C8.96 11.99 8.89 11.94 8.83 11.9L8.83 11.65C8.8 10.17 8.44 5.69 5.3 6.03L4.53 6.11C2.87 6.26 2.03 6.21 1.76 5.76C1.66 5.6 1.74 5.36 1.93 5.28L3.83 4.31C4.39 4.07 5.31 3.88 6.09 4.17C6.11 4.17 5.68 3.59 6.19 3.05L8.49 0.42ZM6.3 14.56L6.61 14.31C6.86 14.11 7.18 14 7.5 14C7.82 14 8.14 14.11 8.39 14.31L8.7 14.56C9.06 14.84 9.5 15 9.95 15L10.05 15C10.5 15 10.94 14.84 11.3 14.56L11.61 14.31C11.86 14.11 12.18 14 12.5 14C12.82 14 13.14 14.11 13.39 14.31L13.71 14.56C14.06 14.84 14.49 15 14.95 15L15 15L15 13.5L14.95 13.5C14.49 13.5 14.06 13.35 13.71 13.07L13.39 12.81C13.14 12.61 12.82 12.5 12.5 12.5C12.18 12.5 11.86 12.61 11.61 12.81L11.3 13.06C10.94 13.35 10.5 13.5 10.05 13.5L9.95 13.5C9.5 13.5 9.06 13.35 8.7 13.06L8.39 12.81C8.14 12.61 7.82 12.5 7.5 12.5C7.18 12.5 6.86 12.61 6.61 12.81L6.3 13.06C5.94 13.35 5.5 13.5 5.05 13.5L4.95 13.5C4.5 13.5 4.06 13.35 3.7 13.06L3.39 12.81C3.14 12.61 2.82 12.5 2.5 12.5C2.18 12.5 1.86 12.61 1.61 12.81L1.29 13.07C0.99 13.31 0.61 13.46 0.22 13.5L0 13.5L0 15L0.05 15C0.51 15 0.94 14.84 1.29 14.56L1.61 14.31C1.86 14.11 2.18 14 2.5 14C2.82 14 3.14 14.11 3.39 14.31L3.7 14.56C4.06 14.84 4.5 15 4.95 15L5.05 15C5.5 15 5.94 14.84 6.3 14.56Z"/>
</svg>