<svg xmlns="http://www.w3.org/2000/svg" viewBox="0 0 15 15">
  <path fill="param(fill) #888" stroke="param(outline) #000" stroke-width="param(outline-width) 0" fill-opacity="param(fill-opacity) 1" stroke-opacity="param(outline-opacity) 1" d="M13.63 14.99C13.48 10.6 8.93 6.66 8.71 6.45C8.49 6.25 8.28 5.81 8.43 5.28L9.52 1.66C9.71 1.1 9.61 0.35 9.35 0.12C9.2 0 8.87 -0.09 8.65 0.15L5.71 3.51C5.06 4.2 5.61 4.94 5.59 4.94C4.59 4.57 3.41 4.82 2.7 5.12L0.27 6.36C0.03 6.46 -0.07 6.77 0.06 6.97C0.45 7.63 1.79 7.63 4.58 7.32C9.09 6.83 9.1 14.08 9.09 14.99C10.78 15 11.78 15 13.63 14.99Z"/>
</svg>