<svg xmlns="http://www.w3.org/2000/svg" viewBox="0 0 15 15">
  <path fill="param(fill) #888" stroke="param(outline) #000" stroke-width="param(outline-width) 0" fill-opacity="param(fill-opacity) 1" stroke-opacity="param(outline-opacity) 1" d="M4.33 12.92C4.33 13.61 3.78 14.17 3.08 14.17C2.39 14.17 1.83 13.61 1.83 12.92C1.83 12.23 2.39 11.67 3.08 11.67C3.78 11.67 4.33 12.23 4.33 12.92ZM11 0.83L9.33 0.83C9.33 0.38 8.96 0 8.5 0L2.65 0C2.2 0 1.83 0.37 1.83 0.82L1.83 0.83L1 0.83L1 2.08L11 2.08L11 0.83ZM11.38 7.68C12.09 7.68 12.67 7.04 12.67 6.25C12.67 6.02 12.5 5.83 12.29 5.83C11.58 5.83 11 6.48 11 7.26C11 7.49 11.17 7.68 11.38 7.68ZM6.83 7.92C7.25 7.08 8.2 6.79 8.95 6.7L9.34 3.33L1.83 3.33L1.82 10.76C2.2 10.53 2.64 10.42 3.08 10.42C4.46 10.42 5.58 11.54 5.58 12.92C5.58 13.02 5.58 13.12 5.56 13.23C5.56 13.25 5.55 13.28 5.55 13.3C5.54 13.38 5.52 13.46 5.5 13.54L5.49 13.6C5.43 13.8 5.35 13.99 5.25 14.17L6.83 14.17C6.83 14.17 6.57 13.87 6.64 13.58C6.74 13.19 7.23 12.87 7.23 12.87C7.59 12.53 7.99 11.79 7.99 11.27C7.99 10.56 7.92 10.3 7.38 9.73C6.84 9.17 6.42 8.75 6.84 7.92L6.83 7.92ZM14.33 8.7C14.04 8.07 13.69 7.92 12.93 7.92C12.48 7.92 11.81 8.21 11.42 8.3C11.38 8.31 11.35 8.31 11.32 8.32C11.29 8.32 11.27 8.33 11.25 8.33C11.24 8.33 11.22 8.33 11.21 8.33C11.2 8.33 11.18 8.33 11.17 8.33C11.15 8.33 11.13 8.32 11.1 8.32C11.07 8.32 11.03 8.31 11 8.3C10.6 8.21 9.93 7.92 9.49 7.92C8.73 7.92 8.38 8.07 8.08 8.7C8.86 9.24 9.23 10.21 9.23 11.27C9.23 12.17 8.67 13.23 8.08 13.78C8.43 14.48 9.06 15 9.49 15C9.96 14.98 10.45 14.68 11 14.61C11.14 14.59 11.28 14.59 11.42 14.61C11.97 14.68 12.46 14.98 12.93 15C13.36 15 13.99 14.48 14.33 13.78C13.75 13.23 13.19 12.17 13.19 11.27C13.19 10.21 13.56 9.25 14.33 8.7Z"/>
</svg>