<svg xmlns="http://www.w3.org/2000/svg" viewBox="0 0 15 15">
  <path fill="param(fill) #888" stroke="param(outline) #000" stroke-width="param(outline-width) 0" fill-opacity="param(fill-opacity) 1" stroke-opacity="param(outline-opacity) 1" d="M11 2.08L1 2.08L1 0.83L1.83 0.83L1.83 0.82C1.83 0.37 2.2 0 2.65 0L8.5 0C8.96 0 9.33 0.38 9.33 0.83L11 0.83L11 2.08ZM5.55 13.3C5.54 13.38 5.52 13.46 5.5 13.54L5.49 13.6C5.43 13.8 5.35 13.99 5.25 14.17L6.46 14.17C6.5 13.92 6.58 13.67 6.72 13.45C7.12 12.79 7.17 12.55 7.17 12.54C7.19 12.37 7.2 12.26 7.22 12.17C7.23 12.11 7.23 12.1 7.24 12.01C7.25 11.91 7.26 11.8 7.27 11.69C7.34 10.66 7.41 9.89 7.65 9.33C7.83 8.94 8.22 8.53 8.83 8.09L9.34 3.33L1.83 3.33L1.82 10.76C2.2 10.53 2.64 10.42 3.08 10.42C4.46 10.42 5.58 11.54 5.58 12.92C5.58 13.02 5.58 13.12 5.56 13.23C5.56 13.25 5.55 13.28 5.55 13.3ZM3.08 11.67C2.39 11.67 1.83 12.23 1.83 12.92C1.83 13.61 2.39 14.17 3.08 14.17C3.78 14.17 4.33 13.61 4.33 12.92C4.33 12.23 3.78 11.67 3.08 11.67ZM7.72 14.66C7.81 14.87 7.99 15 8.2 15L13.82 15C14.03 15 14.21 14.87 14.3 14.66C14.38 14.48 14.33 14.27 14.23 14.1C13.86 13.48 13.65 13 13.61 12.68C13.58 12.37 13.55 12.4 13.53 12.11C13.48 11.4 13.43 10.3 13.23 9.83C13.03 9.38 11.48 8.58 11.48 8.58L12.25 6.98C12.38 6.78 12.05 6.59 11.77 6.7L11.38 6.85C11.12 6.96 10.82 7.01 10.51 7.01L10.17 7.01C9.92 7.01 9.76 7.18 9.87 7.33L10.39 8.58C10.39 8.58 9.01 9.37 8.8 9.83C8.6 10.3 8.55 11.4 8.5 12.11C8.48 12.4 8.45 12.37 8.42 12.69C8.38 13.01 8.17 13.48 7.8 14.1C7.69 14.27 7.65 14.48 7.73 14.66L7.72 14.66Z"/>
</svg>