<?xml version="1.0" encoding="UTF-8"?>
<svg viewBox="0 0 15 15" version="1.1" xmlns="http://www.w3.org/2000/svg" xmlns:xlink="http://www.w3.org/1999/xlink">
  <path fill="param(fill) #888" stroke="param(outline) #000" stroke-width="param(outline-width) 0" fill-opacity="param(fill-opacity) 1" stroke-opacity="param(outline-opacity) 1" d="M0.19 0L3.78 0.26L3.78 0.27L3.79 0.26L4.36 4.98L10.05 4.98L10.05 6.5L7.55 6.5C8.51 7 9.26 7.83 9.66 8.83L12.81 8.83L12.81 8.89L13.47 11.09C14.34 11.33 14.95 12.11 14.95 13.01C14.95 13.54 14.74 14.04 14.36 14.42C13.99 14.79 13.48 15 12.95 15C12.42 15 11.91 14.79 11.53 14.42C11.16 14.04 10.95 13.54 10.95 13.01C10.95 12.3 11.33 11.65 11.94 11.29L11.81 10.86L9.97 10.86C9.77 13.2 7.81 15 5.45 15C4.25 15 3.09 14.52 2.24 13.68C1.39 12.83 0.91 11.68 0.91 10.49C0.91 9.15 1.52 7.87 2.55 7.02L1.9 1.65L0.05 1.51L0.19 0ZM5.42 7.76C4.67 7.76 3.96 8.05 3.43 8.58C2.9 9.1 2.61 9.82 2.61 10.56C2.61 11.3 2.9 12.02 3.43 12.54C3.96 13.07 4.67 13.36 5.42 13.36C6.16 13.36 6.88 13.07 7.41 12.54C7.93 12.02 8.23 11.3 8.23 10.56C8.23 9.82 7.93 9.1 7.41 8.58C6.88 8.05 6.16 7.76 5.42 7.76Z"/>
</svg>