<svg xmlns="http://www.w3.org/2000/svg" viewBox="0 0 15 15">
  <path fill="param(fill) #888" stroke="param(outline) #000" stroke-width="param(outline-width) 0" fill-opacity="param(fill-opacity) 1" stroke-opacity="param(outline-opacity) 1" d="M4.34 12.95C4.34 13.64 3.78 14.2 3.09 14.2C2.39 14.2 1.84 13.64 1.84 12.95C1.84 12.25 2.39 11.69 3.09 11.69C3.78 11.69 4.34 12.25 4.34 12.95ZM8.93 0.84C8.93 0.38 8.56 0 8.1 0L2.65 0C2.2 0 1.84 0.37 1.84 0.82L1.84 0.84L1 0.84L1 2.09L10.6 2.09L10.6 0.84L8.93 0.84ZM5.59 8.03L5.59 7.1C5.59 6.18 6.34 5.43 7.26 5.43L8.69 5.43L8.93 3.34L1.84 3.34L1.82 10.79C2.2 10.56 2.64 10.44 3.09 10.44C4.47 10.44 5.59 11.57 5.59 12.95C5.59 13.05 5.59 13.15 5.57 13.26C5.57 13.28 5.56 13.31 5.56 13.33C5.55 13.42 5.53 13.5 5.51 13.58L5.5 13.63C5.44 13.83 5.36 14.03 5.26 14.2L6.56 14.2C7.15 14.2 7.64 13.79 7.77 13.24C6.49 12.12 5.73 10.35 5.59 8.03L5.59 8.03ZM13.91 14.53C13.67 12.32 12.68 10.9 10.8 10.06C10.59 9.97 10.49 9.72 10.58 9.51C10.68 9.3 10.93 9.21 11.14 9.3C12.54 9.93 13.52 10.87 14.12 12.14C14.35 11.58 14.37 11.09 14.37 10.82C14.36 7.19 10.96 6.65 8.94 6.65L7.26 6.65C7.03 6.65 6.85 6.84 6.85 7.07L6.85 7.93C7.11 12.39 9.72 13.33 11.86 13.33L12.83 13.33C12.97 13.72 13.06 14.15 13.11 14.63C13.14 14.84 13.32 15 13.53 15L13.57 15C13.78 14.97 13.92 14.81 13.94 14.61C13.93 14.58 13.92 14.56 13.92 14.53L13.91 14.53Z"/>
</svg>