<svg xmlns="http://www.w3.org/2000/svg" viewBox="0 0 15 15">
  <path fill="param(fill) #888" stroke="param(outline) #000" stroke-width="param(outline-width) 0" fill-opacity="param(fill-opacity) 1" stroke-opacity="param(outline-opacity) 1" d="M3.34 12.95C3.34 13.64 2.78 14.2 2.08 14.2C1.39 14.2 0.83 13.64 0.83 12.95C0.83 12.25 1.39 11.7 2.08 11.7C2.78 11.7 3.34 12.25 3.34 12.95ZM10.01 0.83L8.34 0.83C8.34 0.38 7.96 0 7.5 0L1.65 0C1.2 0 0.83 0.37 0.83 0.82L0.83 0.83L0 0.83L0 2.08L10.01 2.08L10.01 0.83ZM8.11 7.05L8.75 3.33L0.85 3.33L0.83 10.76C1.22 10.53 1.66 10.42 2.1 10.42C3.48 10.42 4.6 11.54 4.6 12.92C4.6 13.02 4.59 13.12 4.58 13.23C4.58 13.25 4.57 13.28 4.57 13.3C4.56 13.38 4.54 13.46 4.52 13.54L4.51 13.6C4.45 13.8 4.37 13.99 4.26 14.17L5.42 14.17L5.42 9.15C5.42 9.15 6.25 7.05 6.27 7.05L8.12 7.05L8.11 7.05ZM7.04 8.33L6.67 9.17L6.67 14.2L7.04 14.98L10.46 15L10.84 14.16L10.84 9.22L10.46 8.34L7.03 8.33L7.04 8.33ZM13.33 0.85L11.66 0.83L11.66 2.08L13.34 2.08L13.33 0.85ZM14.97 5.25L14.96 5.2C14.94 5.04 14.87 4.88 14.75 4.76C14.44 4.35 13.28 2.93 13.28 2.93L11.67 2.93C11.67 2.93 10.59 4.31 10.21 4.77C10.11 4.89 10.04 5.04 10.02 5.2C10.02 5.2 9.98 7.02 9.98 7.08L11.25 7.08L12.09 9.15L12.09 14.21L11.99 14.39L11.67 15L13.93 15C14.51 15 14.98 14.53 14.98 13.95L14.98 10.83L15 10.83L14.96 5.25L14.97 5.25Z"/>
</svg>