<svg xmlns="http://www.w3.org/2000/svg" viewBox="0 0 15 15">
  <path fill="param(fill) #888" stroke="param(outline) #000" stroke-width="param(outline-width) 0" fill-opacity="param(fill-opacity) 1" stroke-opacity="param(outline-opacity) 1" d="M5.77 13.75C5.77 14.44 5.21 15 4.52 15C3.83 15 3.27 14.44 3.27 13.75C3.27 13.06 3.83 12.5 4.52 12.5C5.21 12.5 5.77 13.06 5.77 13.75ZM11.61 0.83C11.61 0.38 11.23 0 10.77 0L4.08 0C3.63 0 3.27 0.37 3.27 0.82L3.27 0.83L2.43 0.83L2.43 2.5L13.27 2.5L13.27 0.83L11.6 0.83L11.61 0.83ZM3.26 11.6C3.64 11.37 4.08 11.25 4.52 11.25C5.9 11.25 7.02 12.37 7.02 13.75C7.02 13.85 7.01 13.95 7 14.06C7 14.08 6.99 14.11 6.99 14.13C6.98 14.22 6.96 14.3 6.94 14.38L6.93 14.43C6.87 14.63 6.79 14.83 6.68 15L9.23 15C9.87 15 10.41 14.52 10.48 13.89L11.6 3.75L3.27 3.75L3.26 11.6Z"/>
</svg>