<svg xmlns="http://www.w3.org/2000/svg" viewBox="0 0 15 15">
  <path fill="param(fill) #888" stroke="param(outline) #000" stroke-width="param(outline-width) 0" fill-opacity="param(fill-opacity) 1" stroke-opacity="param(outline-opacity) 1" d="M10.96 4C13.19 4 15 5.81 15 8.04C15 10.27 13.19 12.08 10.96 12.08C8.93 12.08 7.25 10.57 6.97 8.62C6.92 8.29 6.67 7.98 6.37 7.9L0 6.31L0.58 4L7 4L7 4.75C7 5.16 7.34 5.5 7.75 5.5L8.25 5.5C8.66 5.5 9 5.16 9 4.75L9 4L9 4L10.96 4ZM10.96 6.31C10 6.31 9.23 7.08 9.23 8.04C9.23 8.5 9.41 8.94 9.74 9.26C10.06 9.59 10.5 9.77 10.96 9.77C11.42 9.77 11.86 9.59 12.18 9.26C12.51 8.94 12.69 8.5 12.69 8.04C12.69 7.13 11.99 6.39 11.11 6.32L10.96 6.31Z"/>
</svg>