<svg xmlns="http://www.w3.org/2000/svg" viewBox="0 0 15 15">
  <path fill="param(fill) #888" stroke="param(outline) #000" stroke-width="param(outline-width) 0" fill-opacity="param(fill-opacity) 1" stroke-opacity="param(outline-opacity) 1" d="M6.5 9L7.5 10.25L8.5 9L10.5 9L8.5 11.5L10.5 14L8.5 14L7.5 12.75L6.5 14L4.5 14L6.5 11.5L4.5 9L6.5 9ZM12.49 7.45L11.21 8.75C11.11 8.47 10.85 8.25 10.5 8.25L10.29 8.25L11.03 7.51L11.01 7.5C10.01 6.78 9.26 6.47 7.51 6.49C5.87 6.5 4.72 7.11 3.3 8.25L2.51 7.45C5.27 4.68 9.74 4.68 12.49 7.45ZM7.5 1.5C10.32 1.51 12.76 2.46 14.83 4.35C15.04 4.54 15.06 4.86 14.87 5.06L13.4 6.54C13.16 6.3 12.91 6.08 12.65 5.87L13.77 4.75L13.64 4.65C11.95 3.29 10.03 2.58 7.84 2.51L7.5 2.5C5.22 2.49 3.22 3.17 0.55 5.48L0.14 5.08C-0.03 4.9 -0.05 4.63 0.09 4.44L0.16 4.36C2.24 2.44 4.68 1.49 7.5 1.5Z"/>
</svg>