<svg xmlns="http://www.w3.org/2000/svg" viewBox="0 0 15 15">
  <path fill="param(fill) #888" stroke="param(outline) #000" stroke-width="param(outline-width) 0" fill-opacity="param(fill-opacity) 1" stroke-opacity="param(outline-opacity) 1" d="M7.52 10.24L7.6 10.24L7.69 10.25C8.57 10.3 9.24 11.06 9.19 11.95L9.18 12L8.17 12C8.18 11.96 8.18 11.93 8.19 11.89C8.21 11.55 7.95 11.26 7.64 11.24L7.52 11.24L7.36 11.25C7.23 11.26 7.11 11.31 7.02 11.4C6.85 11.55 6.78 11.79 6.83 12L5.82 12C5.78 11.51 5.96 11 6.36 10.65C6.61 10.42 6.92 10.29 7.26 10.25C7.35 10.24 7.43 10.24 7.52 10.24ZM12.49 8.45L10.68 10.28C10.43 10.04 10.17 9.83 9.89 9.65L11.03 8.51L11.01 8.5C10.01 7.78 9.26 7.47 7.51 7.49C5.87 7.5 4.72 8.11 3.3 9.25L2.51 8.45C5.27 5.68 9.74 5.68 12.49 8.45ZM7.5 2.5C10.32 2.51 12.76 3.46 14.83 5.35C15.04 5.54 15.06 5.86 14.87 6.06L13.4 7.54C13.16 7.3 12.91 7.08 12.65 6.87L13.77 5.75L13.64 5.65C11.95 4.29 10.03 3.58 7.84 3.51L7.5 3.5C5.22 3.49 3.22 4.17 0.55 6.48L0.14 6.08C-0.03 5.9 -0.05 5.63 0.09 5.44L0.16 5.36C2.24 3.44 4.68 2.49 7.5 2.5Z"/>
</svg>