<svg xmlns="http://www.w3.org/2000/svg" viewBox="0 0 15 15">
  <path fill="param(fill) #888" stroke="param(outline) #000" stroke-width="param(outline-width) 0" fill-opacity="param(fill-opacity) 1" stroke-opacity="param(outline-opacity) 1" d="M5.91 15L12.63 15L12.8 13.94L12.27 12.34L12.82 9.93L13.3 9.45L13.3 8.96L14.49 6.03L14.75 5.43L12.33 7.99L12.09 7.75L12.63 6.85L13.16 6.14L12.98 5.25L12.45 5.43L12.8 4.19L11.92 3.3L7.15 1.88L6.44 1L5.73 1L4.85 1.18L5.08 0.24L4.84 0L2.9 0.82L2.2 0.47L1.66 0.82L1.66 2.95L0.6 3.66L0.25 4.72L1.13 5.07L0.6 5.78L0.6 7.38L4.32 10.21L4.32 11.99L4.85 12.52L4.49 13.05L4.67 14.29L5.73 14.47z"/>
</svg>