<svg xmlns="http://www.w3.org/2000/svg" viewBox="0 0 15 15">
  <path fill="param(fill) #888" stroke="param(outline) #000" stroke-width="param(outline-width) 0" fill-opacity="param(fill-opacity) 1" stroke-opacity="param(outline-opacity) 1" d="M4.84 0L5.08 0.24L4.85 1.18L5.73 1L6.44 1L7.15 1.88L11.92 3.3L12.8 4.19L12.45 5.43L12.98 5.25L13.16 6.14L12.63 6.85L12.09 7.75L12.33 7.99L14.75 5.43L14.49 6.03L13.3 8.96L13.3 9.45L12.82 9.93L12.27 12.34L12.8 13.94L12.63 15L5.91 15L5.73 14.47L4.67 14.29L4.49 13.05L4.85 12.52L4.32 11.99L4.32 10.21L0.6 7.38L0.6 5.78L1.13 5.07L0.25 4.72L0.6 3.66L1.66 2.95L1.66 0.82L2.2 0.47L2.9 0.82L4.84 0ZM8.5 10.92L8.14 12.01L7 12.01L7.92 12.76L7.5 14L8.5 13.25L9.5 14L9.08 12.76L10 12.01L8.86 12.01L8.5 10.92Z"/>
</svg>