<svg xmlns="http://www.w3.org/2000/svg" viewBox="0 0 15 15">
  <path fill="param(fill) #888" stroke="param(outline) #000" stroke-width="param(outline-width) 0" fill-opacity="param(fill-opacity) 1" stroke-opacity="param(outline-opacity) 1" d="M1.05 0.99C0.06 1.46 3.99 4.15 3.35 9.95C1.82 11.28 -1.85 13.59 1.14 14.04C3.73 14.31 5 13.06 6.51 12.21C12.03 9.58 14.09 11.93 14.96 11.37C15.04 11.2 14.99 11.03 14.93 10.92C14.27 9.46 12.98 8.33 10.43 8.23C9.64 4.02 2.51 0.4 1.05 0.99ZM6.73 6.29L7.66 7.18L8.91 6.92L8.35 8.08L8.99 9.19L7.72 9.02L6.85 9.96L6.63 8.7L5.46 8.17L6.59 7.57L6.73 6.29Z"/>
</svg>