<svg xmlns="http://www.w3.org/2000/svg" viewBox="0 0 15 15">
  <path fill="param(fill) #888" stroke="param(outline) #000" stroke-width="param(outline-width) 0" fill-opacity="param(fill-opacity) 1" stroke-opacity="param(outline-opacity) 1" d="M10.54 6.68L10.54 6.45C10.54 5.96 10.33 5.49 9.94 5.17L8.55 4.1L8.55 1.54C8.55 1.54 7.28 1.88 6.61 2.74L6.61 1L6.09 1.18C6.02 1.21 4.39 1.81 3.46 4.01L0.93 5.57L1.76 6.4L0 7.89L0 9.49C0.72 8.78 1.7 8.37 2.72 8.38C3.18 8.38 3.63 8.46 4.04 8.61C4.34 7.75 5.14 6.31 7 7.59C8.83 8.86 10.98 9.52 11.96 9.78L11.71 10.09C11.58 10.19 10.91 10.84 9.56 10.11L7.42 9.15L6.22 11.08L7.11 12.27L6.32 13.46L7.48 15L8.94 15L7.75 13.42L8.51 12.27L7.65 10.98C7.68 10.86 7.87 10.57 7.87 10.57L8.58 10.92C10.94 12.32 12.48 10.97 12.53 10.92L14 9.17L10.55 6.67L10.54 6.68ZM9.29 6.99C9.19 7.19 8.96 7.26 8.76 7.17L7.99 6.78C7.8 6.68 7.72 6.45 7.81 6.26C7.91 6.06 8.14 5.98 8.33 6.08L9.11 6.47C9.3 6.57 9.38 6.8 9.28 6.99L9.29 6.99ZM13.5 4.5C12.95 4.5 12.5 4.95 12.5 5.5C12.5 6.05 12.95 6.5 13.5 6.5C14.05 6.5 14.5 6.05 14.5 5.5C14.5 4.95 14.05 4.5 13.5 4.5ZM14.75 0L12.25 0L13 3.75L14 3.75L14.75 0Z"/>
</svg>