<svg xmlns="http://www.w3.org/2000/svg" viewBox="0 0 15 15">
  <path fill="param(fill) #888" stroke="param(outline) #000" stroke-width="param(outline-width) 0" fill-opacity="param(fill-opacity) 1" stroke-opacity="param(outline-opacity) 1" d="M7.5 0C11.64 0 15 3.36 15 7.5C15 11.64 11.64 15 7.5 15C3.36 15 0 11.64 0 7.5C0 3.36 3.36 0 7.5 0ZM6 8.44C5.29 8.44 4.52 8.67 3.97 9.22C3.68 9.51 3.68 9.99 3.97 10.28C4.26 10.57 4.74 10.57 5.03 10.28C5.23 10.08 5.59 9.94 6 9.94C6.41 9.94 6.77 10.08 6.97 10.28C7.46 10.77 8.16 11.11 8.82 11.27C9.45 11.43 10.23 11.47 10.84 11.17C11.21 10.99 11.36 10.54 11.17 10.16C10.99 9.79 10.54 9.64 10.16 9.83C10.02 9.9 9.67 9.94 9.18 9.82C8.72 9.7 8.29 9.48 8.03 9.22C7.48 8.67 6.71 8.44 6 8.44ZM5.91 5.11C5.89 5.2 5.83 5.39 5.7 5.57C5.58 5.74 5.44 5.86 5.27 5.9C5.1 5.95 4.92 5.92 4.73 5.83C4.53 5.74 4.38 5.6 4.32 5.53L3.18 6.52C3.37 6.73 3.69 7 4.09 7.19C4.5 7.38 5.05 7.51 5.66 7.35C6.26 7.19 6.67 6.8 6.93 6.43C7.19 6.07 7.33 5.67 7.38 5.39ZM10.13 4.65C9.5 4.65 9 5.15 9 5.78C9 6.4 9.5 6.9 10.13 6.9C10.75 6.9 11.25 6.4 11.25 5.78C11.25 5.15 10.75 4.65 10.13 4.65Z"/>
</svg>