<svg xmlns="http://www.w3.org/2000/svg" viewBox="0 0 15 15">
  <path fill="param(fill) #888" stroke="param(outline) #000" stroke-width="param(outline-width) 0" fill-opacity="param(fill-opacity) 1" stroke-opacity="param(outline-opacity) 1" d="M12.5 5.2C12.5 6.03 11.83 6.7 11 6.7C10.17 6.7 9.5 6.03 9.5 5.2C9.5 4.37 10.17 3.7 11 3.7C11.83 3.7 12.5 4.37 12.5 5.2ZM5.11 4.93C5.27 4.69 5.36 4.43 5.38 4.31L7.35 4.69C7.27 5.07 7.08 5.59 6.74 6.07C6.4 6.57 5.85 7.08 5.04 7.3C4.24 7.52 3.51 7.34 2.96 7.09C2.42 6.84 2 6.48 1.75 6.19L3.25 4.88C3.34 4.97 3.54 5.15 3.8 5.27C4.06 5.39 4.3 5.43 4.53 5.37C4.75 5.31 4.94 5.15 5.11 4.93ZM5.5 10.75C4.95 10.75 4.48 10.94 4.21 11.21C3.82 11.6 3.18 11.6 2.79 11.21C2.4 10.82 2.4 10.18 2.79 9.79C3.52 9.06 4.55 8.75 5.5 8.75C6.45 8.75 7.48 9.06 8.21 9.79C8.55 10.13 9.12 10.44 9.74 10.59C10.39 10.76 10.86 10.7 11.05 10.61C11.55 10.36 12.15 10.56 12.39 11.05C12.64 11.55 12.44 12.15 11.95 12.39C11.14 12.8 10.11 12.74 9.26 12.53C8.38 12.31 7.45 11.87 6.79 11.21C6.52 10.94 6.05 10.75 5.5 10.75Z"/>
</svg>