<svg xmlns="http://www.w3.org/2000/svg" viewBox="0 0 15 15">
  <path fill="param(fill) #888" stroke="param(outline) #000" stroke-width="param(outline-width) 0" fill-opacity="param(fill-opacity) 1" stroke-opacity="param(outline-opacity) 1" d="M0 7.5C0 3.36 3.36 0 7.5 0C11.64 0 15 3.36 15 7.5C15 11.64 11.64 15 7.5 15C3.36 15 0 11.64 0 7.5ZM7.5 1.5C4.19 1.5 1.5 4.19 1.5 7.5C1.5 10.81 4.19 13.5 7.5 13.5C10.81 13.5 13.5 10.81 13.5 7.5C13.5 4.19 10.81 1.5 7.5 1.5ZM11.25 5.78C11.25 6.4 10.75 6.9 10.13 6.9C9.5 6.9 9 6.4 9 5.78C9 5.15 9.5 4.65 10.13 4.65C10.75 4.65 11.25 5.15 11.25 5.78ZM5.7 5.57C5.83 5.39 5.89 5.2 5.91 5.11L7.38 5.39C7.33 5.67 7.19 6.07 6.93 6.43C6.67 6.8 6.26 7.19 5.66 7.35C5.05 7.51 4.5 7.38 4.09 7.19C3.69 7 3.37 6.73 3.18 6.52L4.32 5.53C4.38 5.6 4.53 5.74 4.73 5.83C4.92 5.92 5.1 5.95 5.27 5.9C5.44 5.86 5.58 5.74 5.7 5.57ZM6 9.94C5.59 9.94 5.23 10.08 5.03 10.28C4.74 10.57 4.26 10.57 3.97 10.28C3.68 9.99 3.68 9.51 3.97 9.22C4.52 8.67 5.29 8.44 6 8.44C6.71 8.44 7.48 8.67 8.03 9.22C8.29 9.48 8.72 9.7 9.18 9.82C9.67 9.94 10.02 9.9 10.16 9.83C10.54 9.64 10.99 9.79 11.17 10.16C11.36 10.54 11.21 10.99 10.84 11.17C10.23 11.47 9.45 11.43 8.82 11.27C8.16 11.11 7.46 10.77 6.97 10.28C6.77 10.08 6.41 9.94 6 9.94Z"/>
</svg>