<svg xmlns="http://www.w3.org/2000/svg" viewBox="0 0 15 15">
  <path fill="param(fill) #888" stroke="param(outline) #000" stroke-width="param(outline-width) 0" fill-opacity="param(fill-opacity) 1" stroke-opacity="param(outline-opacity) 1" d="M7.5 0C10.54 0 13 2.46 13 5.5L13 9.5C13 12.54 10.54 15 7.5 15C4.46 15 2 12.54 2 9.5L2 5.5C2 2.46 4.46 0 7.5 0ZM10 6.25L6.04 11.53C6.45 11.83 6.96 12 7.5 12C8.88 12 10 10.88 10 9.5L10 6.25ZM7.5 3C6.12 3 5 4.12 5 5.5L5 8.75L8.96 3.47C8.55 3.17 8.04 3 7.5 3Z"/>
</svg>